<svg width="54" height="9" viewBox="0 0 54 9" xmlns="http://www.w3.org/2000/svg">
<path d="M4.11523 6.51562H1.98145L1.56152 8H0.116211L2.44531 0.890625H3.69043L5.97559 8H4.53027L4.11523 6.51562ZM2.31836 5.34863H3.79297L3.06543 2.73145L2.31836 5.34863ZM13.5615 5.77344C13.5387 6.13151 13.4606 6.45378 13.3271 6.74023C13.1969 7.02669 13.0212 7.27083 12.7998 7.47266C12.5785 7.67448 12.3148 7.83073 12.0088 7.94141C11.7028 8.04883 11.3643 8.10254 10.9932 8.10254C10.5732 8.10254 10.2005 8.02604 9.875 7.87305C9.54948 7.7168 9.27604 7.50033 9.05469 7.22363C8.83333 6.94368 8.66406 6.6084 8.54688 6.21777C8.42969 5.82715 8.37109 5.39746 8.37109 4.92871V3.97168C8.37109 3.49967 8.43294 3.06836 8.55664 2.67773C8.68034 2.28711 8.85612 1.95182 9.08398 1.67188C9.31185 1.39193 9.58691 1.17546 9.90918 1.02246C10.2347 0.866211 10.5993 0.788086 11.0029 0.788086C11.3936 0.788086 11.7402 0.843424 12.043 0.954102C12.349 1.06478 12.6094 1.22266 12.8242 1.42773C13.0391 1.63281 13.2083 1.88346 13.332 2.17969C13.4557 2.47591 13.5339 2.80957 13.5664 3.18066H12.1992C12.1862 2.96908 12.1536 2.78353 12.1016 2.62402C12.0527 2.46452 11.9795 2.33268 11.8818 2.22852C11.7874 2.12109 11.667 2.04134 11.5205 1.98926C11.3773 1.93392 11.2048 1.90625 11.0029 1.90625C10.7913 1.90625 10.6074 1.95182 10.4512 2.04297C10.2949 2.13411 10.1647 2.26758 10.0605 2.44336C9.95964 2.61914 9.88477 2.83561 9.83594 3.09277C9.78711 3.34668 9.7627 3.63639 9.7627 3.96191V4.92871C9.7627 5.62858 9.86035 6.14616 10.0557 6.48145C10.2542 6.81673 10.5667 6.98438 10.9932 6.98438C11.3512 6.98438 11.6344 6.88997 11.8428 6.70117C12.0511 6.50911 12.1667 6.19987 12.1895 5.77344H13.5615ZM20.127 6.51562H17.9932L17.5732 8H16.1279L18.457 0.890625H19.7021L21.9873 8H20.542L20.127 6.51562ZM18.3301 5.34863H19.8047L19.0771 2.73145L18.3301 5.34863ZM24.6074 8V0.890625H26.4482C26.9202 0.890625 27.3467 0.972005 27.7275 1.13477C28.1117 1.29427 28.4388 1.51888 28.709 1.80859C28.9824 2.09505 29.1924 2.43848 29.3389 2.83887C29.4886 3.23926 29.5635 3.67871 29.5635 4.15723V4.74316C29.5635 5.22168 29.4886 5.66113 29.3389 6.06152C29.1924 6.45866 28.9857 6.80208 28.7188 7.0918C28.4518 7.37826 28.1312 7.60124 27.7568 7.76074C27.3825 7.92025 26.9691 8 26.5166 8H24.6074ZM25.9893 2.00391V6.89648H26.5166C26.7738 6.89648 27.0033 6.84766 27.2051 6.75C27.4102 6.65234 27.5827 6.51074 27.7227 6.3252C27.8659 6.13965 27.9749 5.91504 28.0498 5.65137C28.1247 5.38444 28.1621 5.08171 28.1621 4.74316V4.14746C28.1621 3.82845 28.1247 3.53874 28.0498 3.27832C27.9782 3.01465 27.8691 2.78841 27.7227 2.59961C27.5794 2.41081 27.4004 2.26432 27.1855 2.16016C26.974 2.05599 26.7282 2.00391 26.4482 2.00391H25.9893ZM37.0176 4.88477H34.0977V6.8916H37.5107V8H32.7207V0.890625H37.4961V2.00879H34.0977V3.80078H37.0176V4.88477ZM42.333 0.890625L43.0068 3.56152L43.7734 0.890625H45.4775V8H44.2178V5.89551L44.2764 2.57031L43.3438 5.65625H42.665L41.8301 2.70215L41.8887 5.89551V8H40.6289V0.890625H42.333ZM51.0811 4.16699L52.4824 0.890625H53.9912L51.7549 5.53906L51.75 8H50.3828L50.3779 5.48047L48.1758 0.890625H49.6797L51.0811 4.16699Z"/>
</svg>
