<svg width="54" height="8" viewBox="0 0 54 8" xmlns="http://www.w3.org/2000/svg">
<path d="M4.11523 6.51562H1.98145L1.56152 8H0.116211L2.44531 0.890625H3.69043L5.97559 8H4.53027L4.11523 6.51562ZM2.31836 5.34863H3.79297L3.06543 2.73145L2.31836 5.34863ZM8.5957 8V0.890625H10.4365C10.9085 0.890625 11.335 0.972005 11.7158 1.13477C12.0999 1.29427 12.4271 1.51888 12.6973 1.80859C12.9707 2.09505 13.1807 2.43848 13.3271 2.83887C13.4769 3.23926 13.5518 3.67871 13.5518 4.15723V4.74316C13.5518 5.22168 13.4769 5.66113 13.3271 6.06152C13.1807 6.45866 12.974 6.80208 12.707 7.0918C12.4401 7.37826 12.1195 7.60124 11.7451 7.76074C11.3708 7.92025 10.9574 8 10.5049 8H8.5957ZM9.97754 2.00391V6.89648H10.5049C10.762 6.89648 10.9915 6.84766 11.1934 6.75C11.3984 6.65234 11.571 6.51074 11.7109 6.3252C11.8542 6.13965 11.9632 5.91504 12.0381 5.65137C12.113 5.38444 12.1504 5.08171 12.1504 4.74316V4.14746C12.1504 3.82845 12.113 3.53874 12.0381 3.27832C11.9665 3.01465 11.8574 2.78841 11.7109 2.59961C11.5677 2.41081 11.3887 2.26432 11.1738 2.16016C10.9622 2.05599 10.7165 2.00391 10.4365 2.00391H9.97754ZM16.6016 8V0.890625H18.4424C18.9144 0.890625 19.3408 0.972005 19.7217 1.13477C20.1058 1.29427 20.4329 1.51888 20.7031 1.80859C20.9766 2.09505 21.1865 2.43848 21.333 2.83887C21.4827 3.23926 21.5576 3.67871 21.5576 4.15723V4.74316C21.5576 5.22168 21.4827 5.66113 21.333 6.06152C21.1865 6.45866 20.9798 6.80208 20.7129 7.0918C20.446 7.37826 20.1253 7.60124 19.751 7.76074C19.3766 7.92025 18.9632 8 18.5107 8H16.6016ZM17.9834 2.00391V6.89648H18.5107C18.7679 6.89648 18.9974 6.84766 19.1992 6.75C19.4043 6.65234 19.5768 6.51074 19.7168 6.3252C19.86 6.13965 19.9691 5.91504 20.0439 5.65137C20.1188 5.38444 20.1562 5.08171 20.1562 4.74316V4.14746C20.1562 3.82845 20.1188 3.53874 20.0439 3.27832C19.9723 3.01465 19.8633 2.78841 19.7168 2.59961C19.5736 2.41081 19.3945 2.26432 19.1797 2.16016C18.9681 2.05599 18.7223 2.00391 18.4424 2.00391H17.9834ZM29.4414 5.41211H25.374V4.31348H29.4414V5.41211ZM34.1025 5.39258V8H32.7305V0.890625H35.1621C35.5495 0.890625 35.8994 0.947591 36.2119 1.06152C36.5244 1.1722 36.7897 1.32845 37.0078 1.53027C37.2292 1.72884 37.3984 1.9681 37.5156 2.24805C37.6361 2.52799 37.6963 2.83887 37.6963 3.18066C37.6963 3.49967 37.6361 3.79427 37.5156 4.06445C37.3984 4.33464 37.2292 4.56901 37.0078 4.76758C36.7897 4.96289 36.5244 5.11589 36.2119 5.22656C35.8994 5.33724 35.5495 5.39258 35.1621 5.39258H34.1025ZM34.1025 4.2793H35.1621C35.3574 4.2793 35.5267 4.25 35.6699 4.19141C35.8132 4.13281 35.932 4.05306 36.0264 3.95215C36.124 3.85124 36.1956 3.73568 36.2412 3.60547C36.29 3.47201 36.3145 3.33366 36.3145 3.19043C36.3145 3.02441 36.29 2.86979 36.2412 2.72656C36.1956 2.58333 36.124 2.45801 36.0264 2.35059C35.932 2.24316 35.8132 2.15853 35.6699 2.09668C35.5267 2.03483 35.3574 2.00391 35.1621 2.00391H34.1025V4.2793ZM40.9512 0.890625H45.0625V1.99902H43.6758V6.89648H45.0625V8H40.9512V6.89648H42.3037V1.99902H40.9512V0.890625ZM53.3418 8H51.9746L49.9971 3.41504V8H48.6152V0.890625H49.9971L51.96 5.45605L51.9648 0.890625H53.3418V8Z"/>
</svg>
