<svg width="32" height="32" viewBox="0 0 32 32" xmlns="http://www.w3.org/2000/svg">
<g>
<path fill-rule="evenodd" clip-rule="evenodd" d="M14 8L12 6C11.4569 6.53939 11.1057 7.24192 11 8C11.1057 8.75808 11.4569 9.46061 12 10L14 8Z"/>
<path fill-rule="evenodd" clip-rule="evenodd" d="M19 8C18.8943 7.24192 18.5431 6.53939 18 6L16 8L18 10C18.5431 9.46061 18.8943 8.75808 19 8V8Z"/>
<path fill-rule="evenodd" clip-rule="evenodd" d="M16.0001 26V11H14.0001V18H9.63012C8.19802 18.0036 6.99101 19.0694 6.81012 20.49L5.87012 28H8.00012C8.25594 28.6016 8.84641 28.9921 9.50012 28.9921C10.1538 28.9921 10.7443 28.6016 11.0001 28H23.0001C23.2559 28.6016 23.8464 28.9921 24.5001 28.9921C25.1538 28.9921 25.7443 28.6016 26.0001 28H27.0001V26H16.0001ZM14.0001 26H8.13012L8.79012 20.74C8.84522 20.3177 9.20428 20.0014 9.63012 20H14.0001V26Z"/>
<path fill-rule="evenodd" clip-rule="evenodd" d="M10.46 11.54C8.50811 9.58749 8.50811 6.42249 10.46 4.46999L9.05002 3.04999C7.73711 4.36276 6.99951 6.14335 6.99951 7.99999C6.99951 9.85663 7.73711 11.6372 9.05002 12.95L10.46 11.54Z"/>
<path fill-rule="evenodd" clip-rule="evenodd" d="M20.95 12.95C22.2629 11.6372 23.0005 9.85663 23.0005 7.99999C23.0005 6.14335 22.2629 4.36276 20.95 3.04999L19.54 4.45999C21.4919 6.41249 21.4919 9.57749 19.54 11.53L20.95 12.95Z"/>
</g>
</svg>
