<svg width="32" height="32" viewBox="0 0 32 32" xmlns="http://www.w3.org/2000/svg">
<g>
<path id="Combined Shape" fill-rule="evenodd" clip-rule="evenodd" d="M23 7L15 3V22H17V10L23 7ZM19 18V20C20.234 20 22.002 20.828 22.002 21.482C22.002 22.156 19.844 23 16 23C12.156 23 9.998 22.141 9.998 21.518C9.998 20.906 11.859 20 13 20V18C10.244 18.429 8 19.714 8 21.5C8 23.905 12.147 25 16 25C19.853 25 24 23.905 24 21.5C24 19.734 21.715 18.438 19 18ZM19 16L19.045 14C25.382 14.727 30 17.857 30 21.5C30 25.706 23.851 29 16 29C8.149 29 2 25.706 2 21.5C2 17.839 6.661 14.708 13.045 14V16.012C7.534 16.662 4 19.228 4 21.5C4 24.156 8.822 27 16 27C23.178 27 28 24.156 28 21.5C28 19.241 24.459 16.666 19 16Z"/>
</g>
</svg>
