<svg width="62" height="9" viewBox="0 0 62 9" xmlns="http://www.w3.org/2000/svg">
<path d="M4.1123 6.51562H1.97852L1.55859 8H0.113281L2.44238 0.890625H3.6875L5.97266 8H4.52734L4.1123 6.51562ZM2.31543 5.34863H3.79004L3.0625 2.73145L2.31543 5.34863ZM11.0342 5.34375H9.99414V8H8.62207V0.890625H11.0049C11.3988 0.890625 11.7552 0.937826 12.0742 1.03223C12.3932 1.12337 12.665 1.25846 12.8896 1.4375C13.1175 1.61654 13.2917 1.83952 13.4121 2.10645C13.5358 2.37337 13.5977 2.68262 13.5977 3.03418C13.5977 3.28809 13.5667 3.51758 13.5049 3.72266C13.4463 3.92448 13.36 4.10677 13.2461 4.26953C13.1354 4.42904 13.0003 4.56901 12.8408 4.68945C12.6846 4.8099 12.5088 4.91406 12.3135 5.00195L13.8418 7.93652V8H12.3721L11.0342 5.34375ZM9.99414 4.23047H11.0098C11.3971 4.23047 11.695 4.13281 11.9033 3.9375C12.1149 3.73893 12.2207 3.46875 12.2207 3.12695C12.2207 2.77214 12.1182 2.49707 11.9131 2.30176C11.708 2.10319 11.4053 2.00391 11.0049 2.00391H9.99414V4.23047ZM19.04 5.34375H18V8H16.6279V0.890625H19.0107C19.4046 0.890625 19.7611 0.937826 20.0801 1.03223C20.3991 1.12337 20.6709 1.25846 20.8955 1.4375C21.1234 1.61654 21.2975 1.83952 21.418 2.10645C21.5417 2.37337 21.6035 2.68262 21.6035 3.03418C21.6035 3.28809 21.5726 3.51758 21.5107 3.72266C21.4521 3.92448 21.3659 4.10677 21.252 4.26953C21.1413 4.42904 21.0062 4.56901 20.8467 4.68945C20.6904 4.8099 20.5146 4.91406 20.3193 5.00195L21.8477 7.93652V8H20.3779L19.04 5.34375ZM18 4.23047H19.0156C19.403 4.23047 19.7008 4.13281 19.9092 3.9375C20.1208 3.73893 20.2266 3.46875 20.2266 3.12695C20.2266 2.77214 20.124 2.49707 19.9189 2.30176C19.7139 2.10319 19.4111 2.00391 19.0107 2.00391H18V4.23047ZM29.5947 4.96777C29.5947 5.4235 29.5345 5.84342 29.4141 6.22754C29.2936 6.61165 29.1195 6.94206 28.8916 7.21875C28.6637 7.49544 28.3854 7.71191 28.0566 7.86816C27.7311 8.02116 27.3633 8.09766 26.9531 8.09766C26.543 8.09766 26.1784 8.02116 25.8594 7.86816C25.5404 7.71191 25.2718 7.49544 25.0537 7.21875C24.8356 6.9388 24.6696 6.6084 24.5557 6.22754C24.4417 5.84342 24.3848 5.4235 24.3848 4.96777V3.93262C24.3848 3.47689 24.4417 3.05697 24.5557 2.67285C24.6696 2.28874 24.8356 1.95833 25.0537 1.68164C25.2718 1.40169 25.5387 1.18359 25.8545 1.02734C26.1735 0.871094 26.5381 0.792969 26.9482 0.792969C27.3617 0.792969 27.7311 0.871094 28.0566 1.02734C28.3854 1.18359 28.6637 1.40169 28.8916 1.68164C29.1195 1.95833 29.2936 2.28874 29.4141 2.67285C29.5345 3.05697 29.5947 3.47689 29.5947 3.93262V4.96777ZM28.2031 3.92285C28.2031 3.63314 28.1787 3.36621 28.1299 3.12207C28.0843 2.87793 28.0111 2.66797 27.9102 2.49219C27.8092 2.31641 27.679 2.17969 27.5195 2.08203C27.3633 1.98112 27.1729 1.93066 26.9482 1.93066C26.7269 1.93066 26.5413 1.98112 26.3916 2.08203C26.2419 2.17969 26.1214 2.31641 26.0303 2.49219C25.9391 2.66797 25.874 2.87793 25.835 3.12207C25.7959 3.36621 25.7764 3.63314 25.7764 3.92285V4.96777C25.7764 5.25423 25.7959 5.51953 25.835 5.76367C25.874 6.00781 25.9391 6.2194 26.0303 6.39844C26.1214 6.57747 26.2419 6.71745 26.3916 6.81836C26.5413 6.91927 26.7285 6.96973 26.9531 6.96973C27.1745 6.96973 27.3633 6.91927 27.5195 6.81836C27.679 6.71745 27.8076 6.5791 27.9053 6.40332C28.0062 6.22428 28.0811 6.0127 28.1299 5.76855C28.1787 5.52441 28.2031 5.25749 28.2031 4.96777V3.92285ZM36.1162 5.17285L36.6338 0.890625H37.8936L36.9072 8H35.667L34.9932 3.80078L34.3438 8H33.1035L32.127 0.890625H33.3818L33.8896 5.14355L34.4951 0.890625H35.4766L36.1162 5.17285ZM45.4502 5.41211H41.3828V4.31348H45.4502V5.41211ZM53.3877 0.890625L53.3926 5.60254C53.3926 5.99967 53.3372 6.35286 53.2266 6.66211C53.1191 6.97135 52.9613 7.2334 52.7529 7.44824C52.5479 7.65983 52.2956 7.82096 51.9961 7.93164C51.6999 8.04232 51.3613 8.09766 50.9805 8.09766C50.6224 8.09766 50.2985 8.04232 50.0088 7.93164C49.7223 7.82096 49.4766 7.65983 49.2715 7.44824C49.0664 7.23665 48.9069 6.97624 48.793 6.66699C48.6823 6.35449 48.627 5.99967 48.627 5.60254L48.6318 0.890625H50.0039L50.0088 5.60254C50.012 6.06152 50.0951 6.4082 50.2578 6.64258C50.4238 6.87695 50.6647 6.99414 50.9805 6.99414C51.3158 6.99414 51.5713 6.87695 51.7471 6.64258C51.9261 6.4082 52.0173 6.06152 52.0205 5.60254L52.0254 0.890625H53.3877ZM58.1172 5.39258V8H56.7451V0.890625H59.1768C59.5641 0.890625 59.9141 0.947591 60.2266 1.06152C60.5391 1.1722 60.8044 1.32845 61.0225 1.53027C61.2438 1.72884 61.4131 1.9681 61.5303 2.24805C61.6507 2.52799 61.7109 2.83887 61.7109 3.18066C61.7109 3.49967 61.6507 3.79427 61.5303 4.06445C61.4131 4.33464 61.2438 4.56901 61.0225 4.76758C60.8044 4.96289 60.5391 5.11589 60.2266 5.22656C59.9141 5.33724 59.5641 5.39258 59.1768 5.39258H58.1172ZM58.1172 4.2793H59.1768C59.3721 4.2793 59.5413 4.25 59.6846 4.19141C59.8278 4.13281 59.9466 4.05306 60.041 3.95215C60.1387 3.85124 60.2103 3.73568 60.2559 3.60547C60.3047 3.47201 60.3291 3.33366 60.3291 3.19043C60.3291 3.02441 60.3047 2.86979 60.2559 2.72656C60.2103 2.58333 60.1387 2.45801 60.041 2.35059C59.9466 2.24316 59.8278 2.15853 59.6846 2.09668C59.5413 2.03483 59.3721 2.00391 59.1768 2.00391H58.1172V4.2793Z"/>
</svg>
