<svg width="78" height="9" viewBox="0 0 78 9" xmlns="http://www.w3.org/2000/svg">
<path d="M4.10645 6.51562H1.97266L1.55273 8H0.107422L2.43652 0.890625H3.68164L5.9668 8H4.52148L4.10645 6.51562ZM2.30957 5.34863H3.78418L3.05664 2.73145L2.30957 5.34863ZM11.0283 5.34375H9.98828V8H8.61621V0.890625H10.999C11.3929 0.890625 11.7493 0.937826 12.0684 1.03223C12.3874 1.12337 12.6592 1.25846 12.8838 1.4375C13.1117 1.61654 13.2858 1.83952 13.4062 2.10645C13.5299 2.37337 13.5918 2.68262 13.5918 3.03418C13.5918 3.28809 13.5609 3.51758 13.499 3.72266C13.4404 3.92448 13.3542 4.10677 13.2402 4.26953C13.1296 4.42904 12.9945 4.56901 12.835 4.68945C12.6787 4.8099 12.5029 4.91406 12.3076 5.00195L13.8359 7.93652V8H12.3662L11.0283 5.34375ZM9.98828 4.23047H11.0039C11.3913 4.23047 11.6891 4.13281 11.8975 3.9375C12.109 3.73893 12.2148 3.46875 12.2148 3.12695C12.2148 2.77214 12.1123 2.49707 11.9072 2.30176C11.7021 2.10319 11.3994 2.00391 10.999 2.00391H9.98828V4.23047ZM19.0342 5.34375H17.9941V8H16.6221V0.890625H19.0049C19.3988 0.890625 19.7552 0.937826 20.0742 1.03223C20.3932 1.12337 20.665 1.25846 20.8896 1.4375C21.1175 1.61654 21.2917 1.83952 21.4121 2.10645C21.5358 2.37337 21.5977 2.68262 21.5977 3.03418C21.5977 3.28809 21.5667 3.51758 21.5049 3.72266C21.4463 3.92448 21.36 4.10677 21.2461 4.26953C21.1354 4.42904 21.0003 4.56901 20.8408 4.68945C20.6846 4.8099 20.5088 4.91406 20.3135 5.00195L21.8418 7.93652V8H20.3721L19.0342 5.34375ZM17.9941 4.23047H19.0098C19.3971 4.23047 19.695 4.13281 19.9033 3.9375C20.1149 3.73893 20.2207 3.46875 20.2207 3.12695C20.2207 2.77214 20.1182 2.49707 19.9131 2.30176C19.708 2.10319 19.4053 2.00391 19.0049 2.00391H17.9941V4.23047ZM29.5889 4.96777C29.5889 5.4235 29.5286 5.84342 29.4082 6.22754C29.2878 6.61165 29.1136 6.94206 28.8857 7.21875C28.6579 7.49544 28.3796 7.71191 28.0508 7.86816C27.7253 8.02116 27.3574 8.09766 26.9473 8.09766C26.5371 8.09766 26.1725 8.02116 25.8535 7.86816C25.5345 7.71191 25.266 7.49544 25.0479 7.21875C24.8298 6.9388 24.6637 6.6084 24.5498 6.22754C24.4359 5.84342 24.3789 5.4235 24.3789 4.96777V3.93262C24.3789 3.47689 24.4359 3.05697 24.5498 2.67285C24.6637 2.28874 24.8298 1.95833 25.0479 1.68164C25.266 1.40169 25.5329 1.18359 25.8486 1.02734C26.1676 0.871094 26.5322 0.792969 26.9424 0.792969C27.3558 0.792969 27.7253 0.871094 28.0508 1.02734C28.3796 1.18359 28.6579 1.40169 28.8857 1.68164C29.1136 1.95833 29.2878 2.28874 29.4082 2.67285C29.5286 3.05697 29.5889 3.47689 29.5889 3.93262V4.96777ZM28.1973 3.92285C28.1973 3.63314 28.1729 3.36621 28.124 3.12207C28.0785 2.87793 28.0052 2.66797 27.9043 2.49219C27.8034 2.31641 27.6732 2.17969 27.5137 2.08203C27.3574 1.98112 27.167 1.93066 26.9424 1.93066C26.721 1.93066 26.5355 1.98112 26.3857 2.08203C26.236 2.17969 26.1156 2.31641 26.0244 2.49219C25.9333 2.66797 25.8682 2.87793 25.8291 3.12207C25.79 3.36621 25.7705 3.63314 25.7705 3.92285V4.96777C25.7705 5.25423 25.79 5.51953 25.8291 5.76367C25.8682 6.00781 25.9333 6.2194 26.0244 6.39844C26.1156 6.57747 26.236 6.71745 26.3857 6.81836C26.5355 6.91927 26.7227 6.96973 26.9473 6.96973C27.1686 6.96973 27.3574 6.91927 27.5137 6.81836C27.6732 6.71745 27.8018 6.5791 27.8994 6.40332C28.0003 6.22428 28.0752 6.0127 28.124 5.76855C28.1729 5.52441 28.1973 5.25749 28.1973 4.96777V3.92285ZM36.1104 5.17285L36.6279 0.890625H37.8877L36.9014 8H35.6611L34.9873 3.80078L34.3379 8H33.0977L32.1211 0.890625H33.376L33.8838 5.14355L34.4893 0.890625H35.4707L36.1104 5.17285ZM45.4443 5.41211H41.377V4.31348H45.4443V5.41211ZM48.6162 8V0.890625H50.457C50.929 0.890625 51.3555 0.972005 51.7363 1.13477C52.1204 1.29427 52.4476 1.51888 52.7178 1.80859C52.9912 2.09505 53.2012 2.43848 53.3477 2.83887C53.4974 3.23926 53.5723 3.67871 53.5723 4.15723V4.74316C53.5723 5.22168 53.4974 5.66113 53.3477 6.06152C53.2012 6.45866 52.9945 6.80208 52.7275 7.0918C52.4606 7.37826 52.14 7.60124 51.7656 7.76074C51.3913 7.92025 50.9779 8 50.5254 8H48.6162ZM49.998 2.00391V6.89648H50.5254C50.7826 6.89648 51.012 6.84766 51.2139 6.75C51.4189 6.65234 51.5915 6.51074 51.7314 6.3252C51.8747 6.13965 51.9837 5.91504 52.0586 5.65137C52.1335 5.38444 52.1709 5.08171 52.1709 4.74316V4.14746C52.1709 3.82845 52.1335 3.53874 52.0586 3.27832C51.987 3.01465 51.8779 2.78841 51.7314 2.59961C51.5882 2.41081 51.4092 2.26432 51.1943 2.16016C50.9827 2.05599 50.737 2.00391 50.457 2.00391H49.998ZM61.6123 4.96777C61.6123 5.4235 61.5521 5.84342 61.4316 6.22754C61.3112 6.61165 61.137 6.94206 60.9092 7.21875C60.6813 7.49544 60.403 7.71191 60.0742 7.86816C59.7487 8.02116 59.3809 8.09766 58.9707 8.09766C58.5605 8.09766 58.196 8.02116 57.877 7.86816C57.5579 7.71191 57.2894 7.49544 57.0713 7.21875C56.8532 6.9388 56.6872 6.6084 56.5732 6.22754C56.4593 5.84342 56.4023 5.4235 56.4023 4.96777V3.93262C56.4023 3.47689 56.4593 3.05697 56.5732 2.67285C56.6872 2.28874 56.8532 1.95833 57.0713 1.68164C57.2894 1.40169 57.5563 1.18359 57.8721 1.02734C58.1911 0.871094 58.5557 0.792969 58.9658 0.792969C59.3792 0.792969 59.7487 0.871094 60.0742 1.02734C60.403 1.18359 60.6813 1.40169 60.9092 1.68164C61.137 1.95833 61.3112 2.28874 61.4316 2.67285C61.5521 3.05697 61.6123 3.47689 61.6123 3.93262V4.96777ZM60.2207 3.92285C60.2207 3.63314 60.1963 3.36621 60.1475 3.12207C60.1019 2.87793 60.0286 2.66797 59.9277 2.49219C59.8268 2.31641 59.6966 2.17969 59.5371 2.08203C59.3809 1.98112 59.1904 1.93066 58.9658 1.93066C58.7445 1.93066 58.5589 1.98112 58.4092 2.08203C58.2594 2.17969 58.139 2.31641 58.0479 2.49219C57.9567 2.66797 57.8916 2.87793 57.8525 3.12207C57.8135 3.36621 57.7939 3.63314 57.7939 3.92285V4.96777C57.7939 5.25423 57.8135 5.51953 57.8525 5.76367C57.8916 6.00781 57.9567 6.2194 58.0479 6.39844C58.139 6.57747 58.2594 6.71745 58.4092 6.81836C58.5589 6.91927 58.7461 6.96973 58.9707 6.96973C59.1921 6.96973 59.3809 6.91927 59.5371 6.81836C59.6966 6.71745 59.8252 6.5791 59.9229 6.40332C60.0238 6.22428 60.0986 6.0127 60.1475 5.76855C60.1963 5.52441 60.2207 5.25749 60.2207 4.96777V3.92285ZM68.1338 5.17285L68.6514 0.890625H69.9111L68.9248 8H67.6846L67.0107 3.80078L66.3613 8H65.1211L64.1445 0.890625H65.3994L65.9072 5.14355L66.5127 0.890625H67.4941L68.1338 5.17285ZM77.3506 8H75.9834L74.0059 3.41504V8H72.624V0.890625H74.0059L75.9688 5.45605L75.9736 0.890625H77.3506V8Z"/>
</svg>
