<svg width="78" height="9" viewBox="0 0 78 9" xmlns="http://www.w3.org/2000/svg">
<path d="M4.10645 6.51562H1.97266L1.55273 8H0.107422L2.43652 0.890625H3.68164L5.9668 8H4.52148L4.10645 6.51562ZM2.30957 5.34863H3.78418L3.05664 2.73145L2.30957 5.34863ZM13.3525 0.890625L13.3574 5.60254C13.3574 5.99967 13.3021 6.35286 13.1914 6.66211C13.084 6.97135 12.9261 7.2334 12.7178 7.44824C12.5127 7.65983 12.2604 7.82096 11.9609 7.93164C11.6647 8.04232 11.3262 8.09766 10.9453 8.09766C10.5872 8.09766 10.2633 8.04232 9.97363 7.93164C9.68717 7.82096 9.44141 7.65983 9.23633 7.44824C9.03125 7.23665 8.87174 6.97624 8.75781 6.66699C8.64714 6.35449 8.5918 5.99967 8.5918 5.60254L8.59668 0.890625H9.96875L9.97363 5.60254C9.97689 6.06152 10.0599 6.4082 10.2227 6.64258C10.3887 6.87695 10.6296 6.99414 10.9453 6.99414C11.2806 6.99414 11.5361 6.87695 11.7119 6.64258C11.891 6.4082 11.9821 6.06152 11.9854 5.60254L11.9902 0.890625H13.3525ZM21.8467 2.00879H19.6543V8H18.2773V2.00879H16.1143V0.890625H21.8467V2.00879ZM29.5889 4.96777C29.5889 5.4235 29.5286 5.84342 29.4082 6.22754C29.2878 6.61165 29.1136 6.94206 28.8857 7.21875C28.6579 7.49544 28.3796 7.71191 28.0508 7.86816C27.7253 8.02116 27.3574 8.09766 26.9473 8.09766C26.5371 8.09766 26.1725 8.02116 25.8535 7.86816C25.5345 7.71191 25.266 7.49544 25.0479 7.21875C24.8298 6.9388 24.6637 6.6084 24.5498 6.22754C24.4359 5.84342 24.3789 5.4235 24.3789 4.96777V3.93262C24.3789 3.47689 24.4359 3.05697 24.5498 2.67285C24.6637 2.28874 24.8298 1.95833 25.0479 1.68164C25.266 1.40169 25.5329 1.18359 25.8486 1.02734C26.1676 0.871094 26.5322 0.792969 26.9424 0.792969C27.3558 0.792969 27.7253 0.871094 28.0508 1.02734C28.3796 1.18359 28.6579 1.40169 28.8857 1.68164C29.1136 1.95833 29.2878 2.28874 29.4082 2.67285C29.5286 3.05697 29.5889 3.47689 29.5889 3.93262V4.96777ZM28.1973 3.92285C28.1973 3.63314 28.1729 3.36621 28.124 3.12207C28.0785 2.87793 28.0052 2.66797 27.9043 2.49219C27.8034 2.31641 27.6732 2.17969 27.5137 2.08203C27.3574 1.98112 27.167 1.93066 26.9424 1.93066C26.721 1.93066 26.5355 1.98112 26.3857 2.08203C26.236 2.17969 26.1156 2.31641 26.0244 2.49219C25.9333 2.66797 25.8682 2.87793 25.8291 3.12207C25.79 3.36621 25.7705 3.63314 25.7705 3.92285V4.96777C25.7705 5.25423 25.79 5.51953 25.8291 5.76367C25.8682 6.00781 25.9333 6.2194 26.0244 6.39844C26.1156 6.57747 26.236 6.71745 26.3857 6.81836C26.5355 6.91927 26.7227 6.96973 26.9473 6.96973C27.1686 6.96973 27.3574 6.91927 27.5137 6.81836C27.6732 6.71745 27.8018 6.5791 27.8994 6.40332C28.0003 6.22428 28.0752 6.0127 28.124 5.76855C28.1729 5.52441 28.1973 5.25749 28.1973 4.96777V3.92285ZM34.3184 0.890625L34.9922 3.56152L35.7588 0.890625H37.4629V8H36.2031V5.89551L36.2617 2.57031L35.3291 5.65625H34.6504L33.8154 2.70215L33.874 5.89551V8H32.6143V0.890625H34.3184ZM44.1357 6.51562H42.002L41.582 8H40.1367L42.4658 0.890625H43.7109L45.9961 8H44.5508L44.1357 6.51562ZM42.3389 5.34863H43.8135L43.0859 2.73145L42.3389 5.34863ZM53.8701 2.00879H51.6777V8H50.3008V2.00879H48.1377V0.890625H53.8701V2.00879ZM56.9541 0.890625H61.0654V1.99902H59.6787V6.89648H61.0654V8H56.9541V6.89648H58.3066V1.99902H56.9541V0.890625ZM69.6182 4.96777C69.6182 5.4235 69.5579 5.84342 69.4375 6.22754C69.3171 6.61165 69.1429 6.94206 68.915 7.21875C68.6872 7.49544 68.4089 7.71191 68.0801 7.86816C67.7546 8.02116 67.3867 8.09766 66.9766 8.09766C66.5664 8.09766 66.2018 8.02116 65.8828 7.86816C65.5638 7.71191 65.2952 7.49544 65.0771 7.21875C64.859 6.9388 64.693 6.6084 64.5791 6.22754C64.4652 5.84342 64.4082 5.4235 64.4082 4.96777V3.93262C64.4082 3.47689 64.4652 3.05697 64.5791 2.67285C64.693 2.28874 64.859 1.95833 65.0771 1.68164C65.2952 1.40169 65.5622 1.18359 65.8779 1.02734C66.1969 0.871094 66.5615 0.792969 66.9717 0.792969C67.3851 0.792969 67.7546 0.871094 68.0801 1.02734C68.4089 1.18359 68.6872 1.40169 68.915 1.68164C69.1429 1.95833 69.3171 2.28874 69.4375 2.67285C69.5579 3.05697 69.6182 3.47689 69.6182 3.93262V4.96777ZM68.2266 3.92285C68.2266 3.63314 68.2021 3.36621 68.1533 3.12207C68.1077 2.87793 68.0345 2.66797 67.9336 2.49219C67.8327 2.31641 67.7025 2.17969 67.543 2.08203C67.3867 1.98112 67.1963 1.93066 66.9717 1.93066C66.7503 1.93066 66.5648 1.98112 66.415 2.08203C66.2653 2.17969 66.1449 2.31641 66.0537 2.49219C65.9626 2.66797 65.8975 2.87793 65.8584 3.12207C65.8193 3.36621 65.7998 3.63314 65.7998 3.92285V4.96777C65.7998 5.25423 65.8193 5.51953 65.8584 5.76367C65.8975 6.00781 65.9626 6.2194 66.0537 6.39844C66.1449 6.57747 66.2653 6.71745 66.415 6.81836C66.5648 6.91927 66.752 6.96973 66.9766 6.96973C67.1979 6.96973 67.3867 6.91927 67.543 6.81836C67.7025 6.71745 67.8311 6.5791 67.9287 6.40332C68.0296 6.22428 68.1045 6.0127 68.1533 5.76855C68.2021 5.52441 68.2266 5.25749 68.2266 4.96777V3.92285ZM77.3506 8H75.9834L74.0059 3.41504V8H72.624V0.890625H74.0059L75.9688 5.45605L75.9736 0.890625H77.3506V8Z"/>
</svg>
