<svg width="30" height="9" viewBox="0 0 30 9" xmlns="http://www.w3.org/2000/svg">
<path d="M4.12402 6.51562H1.99023L1.57031 8H0.125L2.4541 0.890625H3.69922L5.98438 8H4.53906L4.12402 6.51562ZM2.32715 5.34863H3.80176L3.07422 2.73145L2.32715 5.34863ZM11.041 3.43945L12.3057 0.890625H13.917L11.915 4.41602L13.9658 8H12.3643L11.0605 5.41211L9.76172 8H8.14062L10.1914 4.41602L8.19434 0.890625H9.7959L11.041 3.43945ZM16.9424 0.890625H21.0537V1.99902H19.667V6.89648H21.0537V8H16.9424V6.89648H18.2949V1.99902H16.9424V0.890625ZM28.3369 6.14453C28.3369 6.01758 28.3141 5.89876 28.2686 5.78809C28.2262 5.67741 28.1514 5.57487 28.0439 5.48047C27.9398 5.38281 27.8014 5.29492 27.6289 5.2168C27.4596 5.13542 27.248 5.06055 26.9941 4.99219C26.6849 4.90755 26.3887 4.80176 26.1055 4.6748C25.8255 4.54785 25.5781 4.39486 25.3633 4.21582C25.1484 4.03678 24.9759 3.82845 24.8457 3.59082C24.7188 3.35319 24.6553 3.07975 24.6553 2.77051C24.6553 2.47103 24.7188 2.19922 24.8457 1.95508C24.9727 1.71094 25.1484 1.5026 25.373 1.33008C25.5977 1.15755 25.863 1.02572 26.1689 0.93457C26.4749 0.840169 26.807 0.792969 27.165 0.792969C27.5361 0.792969 27.8747 0.84668 28.1807 0.954102C28.4899 1.06152 28.7552 1.21289 28.9766 1.4082C29.1979 1.60026 29.3704 1.82975 29.4941 2.09668C29.6178 2.36361 29.6797 2.65658 29.6797 2.97559H28.3418C28.3353 2.81608 28.306 2.6696 28.2539 2.53613C28.2051 2.40267 28.1302 2.28874 28.0293 2.19434C27.9316 2.09668 27.8079 2.02181 27.6582 1.96973C27.5117 1.91439 27.3392 1.88672 27.1406 1.88672C26.9583 1.88672 26.7956 1.90951 26.6523 1.95508C26.5124 1.9974 26.3936 2.05924 26.2959 2.14062C26.1982 2.21875 26.1234 2.31315 26.0713 2.42383C26.0225 2.53125 25.998 2.64844 25.998 2.77539C25.998 2.90885 26.0306 3.0293 26.0957 3.13672C26.1641 3.24414 26.2617 3.3418 26.3887 3.42969C26.5156 3.51432 26.6686 3.59245 26.8477 3.66406C27.0299 3.73568 27.235 3.80241 27.4629 3.86426C27.7884 3.95866 28.0879 4.07422 28.3613 4.21094C28.6348 4.34766 28.8691 4.51042 29.0645 4.69922C29.263 4.88477 29.416 5.09798 29.5234 5.33887C29.6341 5.5765 29.6895 5.8418 29.6895 6.13477C29.6895 6.44727 29.626 6.72559 29.499 6.96973C29.3753 7.21061 29.2028 7.41569 28.9814 7.58496C28.7601 7.75098 28.4964 7.87793 28.1904 7.96582C27.8844 8.05046 27.5508 8.09277 27.1895 8.09277C26.9648 8.09277 26.7402 8.07161 26.5156 8.0293C26.2943 7.99023 26.0811 7.92839 25.876 7.84375C25.6742 7.75911 25.4854 7.65332 25.3096 7.52637C25.1338 7.39941 24.9808 7.2513 24.8506 7.08203C24.7236 6.91276 24.6227 6.7207 24.5479 6.50586C24.4762 6.29102 24.4404 6.05339 24.4404 5.79297H25.7881C25.7946 6.00781 25.832 6.19173 25.9004 6.34473C25.9688 6.49772 26.0632 6.62305 26.1836 6.7207C26.3073 6.81836 26.4538 6.88997 26.623 6.93555C26.7956 6.98112 26.9844 7.00391 27.1895 7.00391C27.3717 7.00391 27.5329 6.98275 27.6729 6.94043C27.8161 6.89811 27.9365 6.83952 28.0342 6.76465C28.1318 6.68978 28.2067 6.60026 28.2588 6.49609C28.3109 6.38867 28.3369 6.27148 28.3369 6.14453Z"/>
</svg>
