<svg width="70" height="9" viewBox="0 0 70 9" xmlns="http://www.w3.org/2000/svg">
<path d="M0.603516 8V0.890625H2.99121C3.37858 0.890625 3.73014 0.929688 4.0459 1.00781C4.36491 1.08594 4.63672 1.20475 4.86133 1.36426C5.08594 1.52376 5.25846 1.72559 5.37891 1.96973C5.5026 2.21387 5.56445 2.50195 5.56445 2.83398C5.5612 3.16602 5.47168 3.46387 5.2959 3.72754C5.12337 3.99121 4.86784 4.19141 4.5293 4.32812C4.73438 4.38021 4.91178 4.45833 5.06152 4.5625C5.21126 4.66667 5.33496 4.79036 5.43262 4.93359C5.53353 5.07357 5.60677 5.22819 5.65234 5.39746C5.70117 5.56348 5.72559 5.736 5.72559 5.91504C5.72559 6.25684 5.66699 6.55794 5.5498 6.81836C5.43262 7.07878 5.26497 7.29688 5.04688 7.47266C4.82878 7.64844 4.56348 7.78027 4.25098 7.86816C3.93848 7.95605 3.58691 8 3.19629 8H0.603516ZM1.98047 4.86523V6.8916H3.20117C3.57552 6.88835 3.86035 6.7972 4.05566 6.61816C4.25423 6.43587 4.35352 6.19824 4.35352 5.90527C4.35677 5.57975 4.26888 5.32585 4.08984 5.14355C3.91081 4.96126 3.63411 4.86849 3.25977 4.86523H1.98047ZM1.98047 3.87402H3.00098C3.38184 3.87077 3.6748 3.79102 3.87988 3.63477C4.08496 3.47852 4.18913 3.24902 4.19238 2.94629C4.19238 2.61426 4.08984 2.37663 3.88477 2.2334C3.67969 2.08691 3.38346 2.01204 2.99609 2.00879H1.98047V3.87402ZM10.0889 6.8916H13.4189V8H8.71191V0.890625H10.0889V6.8916ZM21.3613 0.890625L21.3662 5.60254C21.3662 5.99967 21.3109 6.35286 21.2002 6.66211C21.0928 6.97135 20.9349 7.2334 20.7266 7.44824C20.5215 7.65983 20.2692 7.82096 19.9697 7.93164C19.6735 8.04232 19.335 8.09766 18.9541 8.09766C18.596 8.09766 18.2721 8.04232 17.9824 7.93164C17.696 7.82096 17.4502 7.65983 17.2451 7.44824C17.04 7.23665 16.8805 6.97624 16.7666 6.66699C16.6559 6.35449 16.6006 5.99967 16.6006 5.60254L16.6055 0.890625H17.9775L17.9824 5.60254C17.9857 6.06152 18.0687 6.4082 18.2314 6.64258C18.3975 6.87695 18.6383 6.99414 18.9541 6.99414C19.2894 6.99414 19.5449 6.87695 19.7207 6.64258C19.8997 6.4082 19.9909 6.06152 19.9941 5.60254L19.999 0.890625H21.3613ZM29.0059 4.88477H26.0859V6.8916H29.499V8H24.709V0.890625H29.4844V2.00879H26.0859V3.80078H29.0059V4.88477ZM37.8613 2.00879H35.6689V8H34.292V2.00879H32.1289V0.890625H37.8613V2.00879ZM45.6035 4.96777C45.6035 5.4235 45.5433 5.84342 45.4229 6.22754C45.3024 6.61165 45.1283 6.94206 44.9004 7.21875C44.6725 7.49544 44.3942 7.71191 44.0654 7.86816C43.7399 8.02116 43.3721 8.09766 42.9619 8.09766C42.5518 8.09766 42.1872 8.02116 41.8682 7.86816C41.5492 7.71191 41.2806 7.49544 41.0625 7.21875C40.8444 6.9388 40.6784 6.6084 40.5645 6.22754C40.4505 5.84342 40.3936 5.4235 40.3936 4.96777V3.93262C40.3936 3.47689 40.4505 3.05697 40.5645 2.67285C40.6784 2.28874 40.8444 1.95833 41.0625 1.68164C41.2806 1.40169 41.5475 1.18359 41.8633 1.02734C42.1823 0.871094 42.5469 0.792969 42.957 0.792969C43.3704 0.792969 43.7399 0.871094 44.0654 1.02734C44.3942 1.18359 44.6725 1.40169 44.9004 1.68164C45.1283 1.95833 45.3024 2.28874 45.4229 2.67285C45.5433 3.05697 45.6035 3.47689 45.6035 3.93262V4.96777ZM44.2119 3.92285C44.2119 3.63314 44.1875 3.36621 44.1387 3.12207C44.0931 2.87793 44.0199 2.66797 43.9189 2.49219C43.818 2.31641 43.6878 2.17969 43.5283 2.08203C43.3721 1.98112 43.1816 1.93066 42.957 1.93066C42.7357 1.93066 42.5501 1.98112 42.4004 2.08203C42.2507 2.17969 42.1302 2.31641 42.0391 2.49219C41.9479 2.66797 41.8828 2.87793 41.8438 3.12207C41.8047 3.36621 41.7852 3.63314 41.7852 3.92285V4.96777C41.7852 5.25423 41.8047 5.51953 41.8438 5.76367C41.8828 6.00781 41.9479 6.2194 42.0391 6.39844C42.1302 6.57747 42.2507 6.71745 42.4004 6.81836C42.5501 6.91927 42.7373 6.96973 42.9619 6.96973C43.1833 6.96973 43.3721 6.91927 43.5283 6.81836C43.6878 6.71745 43.8164 6.5791 43.9141 6.40332C44.015 6.22428 44.0898 6.0127 44.1387 5.76855C44.1875 5.52441 44.2119 5.25749 44.2119 4.96777V3.92285ZM53.6094 4.96777C53.6094 5.4235 53.5492 5.84342 53.4287 6.22754C53.3083 6.61165 53.1341 6.94206 52.9062 7.21875C52.6784 7.49544 52.4001 7.71191 52.0713 7.86816C51.7458 8.02116 51.3779 8.09766 50.9678 8.09766C50.5576 8.09766 50.193 8.02116 49.874 7.86816C49.555 7.71191 49.2865 7.49544 49.0684 7.21875C48.8503 6.9388 48.6842 6.6084 48.5703 6.22754C48.4564 5.84342 48.3994 5.4235 48.3994 4.96777V3.93262C48.3994 3.47689 48.4564 3.05697 48.5703 2.67285C48.6842 2.28874 48.8503 1.95833 49.0684 1.68164C49.2865 1.40169 49.5534 1.18359 49.8691 1.02734C50.1882 0.871094 50.5527 0.792969 50.9629 0.792969C51.3763 0.792969 51.7458 0.871094 52.0713 1.02734C52.4001 1.18359 52.6784 1.40169 52.9062 1.68164C53.1341 1.95833 53.3083 2.28874 53.4287 2.67285C53.5492 3.05697 53.6094 3.47689 53.6094 3.93262V4.96777ZM52.2178 3.92285C52.2178 3.63314 52.1934 3.36621 52.1445 3.12207C52.099 2.87793 52.0257 2.66797 51.9248 2.49219C51.8239 2.31641 51.6937 2.17969 51.5342 2.08203C51.3779 1.98112 51.1875 1.93066 50.9629 1.93066C50.7415 1.93066 50.556 1.98112 50.4062 2.08203C50.2565 2.17969 50.1361 2.31641 50.0449 2.49219C49.9538 2.66797 49.8887 2.87793 49.8496 3.12207C49.8105 3.36621 49.791 3.63314 49.791 3.92285V4.96777C49.791 5.25423 49.8105 5.51953 49.8496 5.76367C49.8887 6.00781 49.9538 6.2194 50.0449 6.39844C50.1361 6.57747 50.2565 6.71745 50.4062 6.81836C50.556 6.91927 50.7432 6.96973 50.9678 6.96973C51.1891 6.96973 51.3779 6.91927 51.5342 6.81836C51.6937 6.71745 51.8223 6.5791 51.9199 6.40332C52.0208 6.22428 52.0957 6.0127 52.1445 5.76855C52.1934 5.52441 52.2178 5.25749 52.2178 4.96777V3.92285ZM61.8789 2.00879H59.6865V8H58.3096V2.00879H56.1465V0.890625H61.8789V2.00879ZM69.3525 8H67.9951V4.91895H65.9834V8H64.6211V0.890625H65.9834V3.80566H67.9951V0.890625H69.3525V8Z"/>
</svg>
