<svg width="47" height="9" viewBox="0 0 47 9" xmlns="http://www.w3.org/2000/svg">
<path d="M5.55859 5.77344C5.53581 6.13151 5.45768 6.45378 5.32422 6.74023C5.19401 7.02669 5.01823 7.27083 4.79688 7.47266C4.57552 7.67448 4.31185 7.83073 4.00586 7.94141C3.69987 8.04883 3.36133 8.10254 2.99023 8.10254C2.57031 8.10254 2.19759 8.02604 1.87207 7.87305C1.54655 7.7168 1.27311 7.50033 1.05176 7.22363C0.830404 6.94368 0.661133 6.6084 0.543945 6.21777C0.426758 5.82715 0.368164 5.39746 0.368164 4.92871V3.97168C0.368164 3.49967 0.430013 3.06836 0.553711 2.67773C0.677409 2.28711 0.85319 1.95182 1.08105 1.67188C1.30892 1.39193 1.58398 1.17546 1.90625 1.02246C2.23177 0.866211 2.59635 0.788086 3 0.788086C3.39062 0.788086 3.7373 0.843424 4.04004 0.954102C4.34603 1.06478 4.60645 1.22266 4.82129 1.42773C5.03613 1.63281 5.2054 1.88346 5.3291 2.17969C5.4528 2.47591 5.53092 2.80957 5.56348 3.18066H4.19629C4.18327 2.96908 4.15072 2.78353 4.09863 2.62402C4.0498 2.46452 3.97656 2.33268 3.87891 2.22852C3.78451 2.12109 3.66406 2.04134 3.51758 1.98926C3.37435 1.93392 3.20182 1.90625 3 1.90625C2.78841 1.90625 2.60449 1.95182 2.44824 2.04297C2.29199 2.13411 2.16178 2.26758 2.05762 2.44336C1.95671 2.61914 1.88184 2.83561 1.83301 3.09277C1.78418 3.34668 1.75977 3.63639 1.75977 3.96191V4.92871C1.75977 5.62858 1.85742 6.14616 2.05273 6.48145C2.2513 6.81673 2.5638 6.98438 2.99023 6.98438C3.34831 6.98438 3.63151 6.88997 3.83984 6.70117C4.04818 6.50911 4.16374 6.19987 4.18652 5.77344H5.55859ZM12.124 6.51562H9.99023L9.57031 8H8.125L10.4541 0.890625H11.6992L13.9844 8H12.5391L12.124 6.51562ZM10.3271 5.34863H11.8018L11.0742 2.73145L10.3271 5.34863ZM18.3184 0.890625L18.9922 3.56152L19.7588 0.890625H21.4629V8H20.2031V5.89551L20.2617 2.57031L19.3291 5.65625H18.6504L17.8154 2.70215L17.874 5.89551V8H16.6143V0.890625H18.3184ZM29.0146 4.88477H26.0947V6.8916H29.5078V8H24.7178V0.890625H29.4932V2.00879H26.0947V3.80078H29.0146V4.88477ZM35.0576 5.34375H34.0176V8H32.6455V0.890625H35.0283C35.4222 0.890625 35.7786 0.937826 36.0977 1.03223C36.4167 1.12337 36.6885 1.25846 36.9131 1.4375C37.141 1.61654 37.3151 1.83952 37.4355 2.10645C37.5592 2.37337 37.6211 2.68262 37.6211 3.03418C37.6211 3.28809 37.5902 3.51758 37.5283 3.72266C37.4697 3.92448 37.3835 4.10677 37.2695 4.26953C37.1589 4.42904 37.0238 4.56901 36.8643 4.68945C36.708 4.8099 36.5322 4.91406 36.3369 5.00195L37.8652 7.93652V8H36.3955L35.0576 5.34375ZM34.0176 4.23047H35.0332C35.4206 4.23047 35.7184 4.13281 35.9268 3.9375C36.1383 3.73893 36.2441 3.46875 36.2441 3.12695C36.2441 2.77214 36.1416 2.49707 35.9365 2.30176C35.7314 2.10319 35.4287 2.00391 35.0283 2.00391H34.0176V4.23047ZM44.1475 6.51562H42.0137L41.5938 8H40.1484L42.4775 0.890625H43.7227L46.0078 8H44.5625L44.1475 6.51562ZM42.3506 5.34863H43.8252L43.0977 2.73145L42.3506 5.34863Z"/>
</svg>
