<svg width="22" height="9" viewBox="0 0 22 9" xmlns="http://www.w3.org/2000/svg">
<path d="M5.56738 5.77344C5.5446 6.13151 5.46647 6.45378 5.33301 6.74023C5.2028 7.02669 5.02702 7.27083 4.80566 7.47266C4.58431 7.67448 4.32064 7.83073 4.01465 7.94141C3.70866 8.04883 3.37012 8.10254 2.99902 8.10254C2.5791 8.10254 2.20638 8.02604 1.88086 7.87305C1.55534 7.7168 1.2819 7.50033 1.06055 7.22363C0.839193 6.94368 0.669922 6.6084 0.552734 6.21777C0.435547 5.82715 0.376953 5.39746 0.376953 4.92871V3.97168C0.376953 3.49967 0.438802 3.06836 0.5625 2.67773C0.686198 2.28711 0.861979 1.95182 1.08984 1.67188C1.31771 1.39193 1.59277 1.17546 1.91504 1.02246C2.24056 0.866211 2.60514 0.788086 3.00879 0.788086C3.39941 0.788086 3.74609 0.843424 4.04883 0.954102C4.35482 1.06478 4.61523 1.22266 4.83008 1.42773C5.04492 1.63281 5.21419 1.88346 5.33789 2.17969C5.46159 2.47591 5.53971 2.80957 5.57227 3.18066H4.20508C4.19206 2.96908 4.15951 2.78353 4.10742 2.62402C4.05859 2.46452 3.98535 2.33268 3.8877 2.22852C3.79329 2.12109 3.67285 2.04134 3.52637 1.98926C3.38314 1.93392 3.21061 1.90625 3.00879 1.90625C2.7972 1.90625 2.61328 1.95182 2.45703 2.04297C2.30078 2.13411 2.17057 2.26758 2.06641 2.44336C1.96549 2.61914 1.89062 2.83561 1.8418 3.09277C1.79297 3.34668 1.76855 3.63639 1.76855 3.96191V4.92871C1.76855 5.62858 1.86621 6.14616 2.06152 6.48145C2.26009 6.81673 2.57259 6.98438 2.99902 6.98438C3.3571 6.98438 3.6403 6.88997 3.84863 6.70117C4.05697 6.50911 4.17253 6.19987 4.19531 5.77344H5.56738ZM12.1328 6.51562H9.99902L9.5791 8H8.13379L10.4629 0.890625H11.708L13.9932 8H12.5479L12.1328 6.51562ZM10.3359 5.34863H11.8105L11.083 2.73145L10.3359 5.34863ZM19.0547 5.34375H18.0146V8H16.6426V0.890625H19.0254C19.4193 0.890625 19.7757 0.937826 20.0947 1.03223C20.4137 1.12337 20.6855 1.25846 20.9102 1.4375C21.138 1.61654 21.3122 1.83952 21.4326 2.10645C21.5563 2.37337 21.6182 2.68262 21.6182 3.03418C21.6182 3.28809 21.5872 3.51758 21.5254 3.72266C21.4668 3.92448 21.3805 4.10677 21.2666 4.26953C21.1559 4.42904 21.0208 4.56901 20.8613 4.68945C20.7051 4.8099 20.5293 4.91406 20.334 5.00195L21.8623 7.93652V8H20.3926L19.0547 5.34375ZM18.0146 4.23047H19.0303C19.4176 4.23047 19.7155 4.13281 19.9238 3.9375C20.1354 3.73893 20.2412 3.46875 20.2412 3.12695C20.2412 2.77214 20.1387 2.49707 19.9336 2.30176C19.7285 2.10319 19.4258 2.00391 19.0254 2.00391H18.0146V4.23047Z"/>
</svg>
