<svg width="32" height="32" viewBox="0 0 32 32" xmlns="http://www.w3.org/2000/svg">
<g>
<path fill-rule="evenodd" clip-rule="evenodd" d="M25 21H12.721L12.064 19H25C26.654 19 28 17.654 28 16V5H7.387L6.721 3H2V5H5.279L10.692 21.238C9.13 21.783 8 23.255 8 25C8 27.206 9.794 29 12 29C14.206 29 16 27.206 16 25C16 24.268 15.788 23.591 15.444 23H21.557C21.212 23.591 21 24.268 21 25C21 27.206 22.794 29 25 29C27.206 29 29 27.206 29 25C29 22.794 27.206 21 25 21ZM26 7V16C26 16.552 25.551 17 25 17H11.397L8.054 7H26ZM14 25C14 26.103 13.103 27 12 27C10.897 27 10 26.103 10 25C10 23.897 10.897 23 12 23C13.103 23 14 23.897 14 25ZM25 27C23.897 27 23 26.103 23 25C23 23.897 23.897 23 25 23C26.103 23 27 23.897 27 25C27 26.103 26.103 27 25 27Z"/>
</g>
</svg>
