<svg width="70" height="9" viewBox="0 0 70 9" xmlns="http://www.w3.org/2000/svg">
<path d="M5.5498 5.77344C5.52702 6.13151 5.44889 6.45378 5.31543 6.74023C5.18522 7.02669 5.00944 7.27083 4.78809 7.47266C4.56673 7.67448 4.30306 7.83073 3.99707 7.94141C3.69108 8.04883 3.35254 8.10254 2.98145 8.10254C2.56152 8.10254 2.1888 8.02604 1.86328 7.87305C1.53776 7.7168 1.26432 7.50033 1.04297 7.22363C0.821615 6.94368 0.652344 6.6084 0.535156 6.21777C0.417969 5.82715 0.359375 5.39746 0.359375 4.92871V3.97168C0.359375 3.49967 0.421224 3.06836 0.544922 2.67773C0.66862 2.28711 0.844401 1.95182 1.07227 1.67188C1.30013 1.39193 1.5752 1.17546 1.89746 1.02246C2.22298 0.866211 2.58757 0.788086 2.99121 0.788086C3.38184 0.788086 3.72852 0.843424 4.03125 0.954102C4.33724 1.06478 4.59766 1.22266 4.8125 1.42773C5.02734 1.63281 5.19661 1.88346 5.32031 2.17969C5.44401 2.47591 5.52214 2.80957 5.55469 3.18066H4.1875C4.17448 2.96908 4.14193 2.78353 4.08984 2.62402C4.04102 2.46452 3.96777 2.33268 3.87012 2.22852C3.77572 2.12109 3.65527 2.04134 3.50879 1.98926C3.36556 1.93392 3.19303 1.90625 2.99121 1.90625C2.77962 1.90625 2.5957 1.95182 2.43945 2.04297C2.2832 2.13411 2.15299 2.26758 2.04883 2.44336C1.94792 2.61914 1.87305 2.83561 1.82422 3.09277C1.77539 3.34668 1.75098 3.63639 1.75098 3.96191V4.92871C1.75098 5.62858 1.84863 6.14616 2.04395 6.48145C2.24251 6.81673 2.55501 6.98438 2.98145 6.98438C3.33952 6.98438 3.62272 6.88997 3.83105 6.70117C4.03939 6.50911 4.15495 6.19987 4.17773 5.77344H5.5498ZM12.1152 6.51562H9.98145L9.56152 8H8.11621L10.4453 0.890625H11.6904L13.9756 8H12.5303L12.1152 6.51562ZM10.3184 5.34863H11.793L11.0654 2.73145L10.3184 5.34863ZM20.3164 6.14453C20.3164 6.01758 20.2936 5.89876 20.248 5.78809C20.2057 5.67741 20.1309 5.57487 20.0234 5.48047C19.9193 5.38281 19.7809 5.29492 19.6084 5.2168C19.4391 5.13542 19.2275 5.06055 18.9736 4.99219C18.6644 4.90755 18.3682 4.80176 18.085 4.6748C17.805 4.54785 17.5576 4.39486 17.3428 4.21582C17.1279 4.03678 16.9554 3.82845 16.8252 3.59082C16.6982 3.35319 16.6348 3.07975 16.6348 2.77051C16.6348 2.47103 16.6982 2.19922 16.8252 1.95508C16.9521 1.71094 17.1279 1.5026 17.3525 1.33008C17.5771 1.15755 17.8424 1.02572 18.1484 0.93457C18.4544 0.840169 18.7865 0.792969 19.1445 0.792969C19.5156 0.792969 19.8542 0.84668 20.1602 0.954102C20.4694 1.06152 20.7347 1.21289 20.9561 1.4082C21.1774 1.60026 21.3499 1.82975 21.4736 2.09668C21.5973 2.36361 21.6592 2.65658 21.6592 2.97559H20.3213C20.3148 2.81608 20.2855 2.6696 20.2334 2.53613C20.1846 2.40267 20.1097 2.28874 20.0088 2.19434C19.9111 2.09668 19.7874 2.02181 19.6377 1.96973C19.4912 1.91439 19.3187 1.88672 19.1201 1.88672C18.9378 1.88672 18.7751 1.90951 18.6318 1.95508C18.4919 1.9974 18.373 2.05924 18.2754 2.14062C18.1777 2.21875 18.1029 2.31315 18.0508 2.42383C18.002 2.53125 17.9775 2.64844 17.9775 2.77539C17.9775 2.90885 18.0101 3.0293 18.0752 3.13672C18.1436 3.24414 18.2412 3.3418 18.3682 3.42969C18.4951 3.51432 18.6481 3.59245 18.8271 3.66406C19.0094 3.73568 19.2145 3.80241 19.4424 3.86426C19.7679 3.95866 20.0674 4.07422 20.3408 4.21094C20.6143 4.34766 20.8486 4.51042 21.0439 4.69922C21.2425 4.88477 21.3955 5.09798 21.5029 5.33887C21.6136 5.5765 21.6689 5.8418 21.6689 6.13477C21.6689 6.44727 21.6055 6.72559 21.4785 6.96973C21.3548 7.21061 21.1823 7.41569 20.9609 7.58496C20.7396 7.75098 20.4759 7.87793 20.1699 7.96582C19.8639 8.05046 19.5303 8.09277 19.1689 8.09277C18.9443 8.09277 18.7197 8.07161 18.4951 8.0293C18.2738 7.99023 18.0605 7.92839 17.8555 7.84375C17.6536 7.75911 17.4648 7.65332 17.2891 7.52637C17.1133 7.39941 16.9603 7.2513 16.8301 7.08203C16.7031 6.91276 16.6022 6.7207 16.5273 6.50586C16.4557 6.29102 16.4199 6.05339 16.4199 5.79297H17.7676C17.7741 6.00781 17.8115 6.19173 17.8799 6.34473C17.9482 6.49772 18.0426 6.62305 18.1631 6.7207C18.2868 6.81836 18.4333 6.88997 18.6025 6.93555C18.7751 6.98112 18.9639 7.00391 19.1689 7.00391C19.3512 7.00391 19.5124 6.98275 19.6523 6.94043C19.7956 6.89811 19.916 6.83952 20.0137 6.76465C20.1113 6.68978 20.1862 6.60026 20.2383 6.49609C20.2904 6.38867 20.3164 6.27148 20.3164 6.14453ZM29.3232 8H27.9658V4.91895H25.9541V8H24.5918V0.890625H25.9541V3.80566H27.9658V0.890625H29.3232V8ZM37.4414 5.41211H33.374V4.31348H37.4414V5.41211ZM45.0176 4.88477H42.0977V6.8916H45.5107V8H40.7207V0.890625H45.4961V2.00879H42.0977V3.80078H45.0176V4.88477ZM53.3848 0.890625L53.3896 5.60254C53.3896 5.99967 53.3343 6.35286 53.2236 6.66211C53.1162 6.97135 52.9583 7.2334 52.75 7.44824C52.5449 7.65983 52.2926 7.82096 51.9932 7.93164C51.6969 8.04232 51.3584 8.09766 50.9775 8.09766C50.6195 8.09766 50.2956 8.04232 50.0059 7.93164C49.7194 7.82096 49.4736 7.65983 49.2686 7.44824C49.0635 7.23665 48.904 6.97624 48.79 6.66699C48.6794 6.35449 48.624 5.99967 48.624 5.60254L48.6289 0.890625H50.001L50.0059 5.60254C50.0091 6.06152 50.0921 6.4082 50.2549 6.64258C50.4209 6.87695 50.6618 6.99414 50.9775 6.99414C51.3128 6.99414 51.5684 6.87695 51.7441 6.64258C51.9232 6.4082 52.0143 6.06152 52.0176 5.60254L52.0225 0.890625H53.3848ZM59.0664 5.34375H58.0264V8H56.6543V0.890625H59.0371C59.431 0.890625 59.7874 0.937826 60.1064 1.03223C60.4255 1.12337 60.6973 1.25846 60.9219 1.4375C61.1497 1.61654 61.3239 1.83952 61.4443 2.10645C61.568 2.37337 61.6299 2.68262 61.6299 3.03418C61.6299 3.28809 61.599 3.51758 61.5371 3.72266C61.4785 3.92448 61.3923 4.10677 61.2783 4.26953C61.1676 4.42904 61.0326 4.56901 60.873 4.68945C60.7168 4.8099 60.541 4.91406 60.3457 5.00195L61.874 7.93652V8H60.4043L59.0664 5.34375ZM58.0264 4.23047H59.042C59.4294 4.23047 59.7272 4.13281 59.9355 3.9375C60.1471 3.73893 60.2529 3.46875 60.2529 3.12695C60.2529 2.77214 60.1504 2.49707 59.9453 2.30176C59.7402 2.10319 59.4375 2.00391 59.0371 2.00391H58.0264V4.23047ZM69.6211 4.96777C69.6211 5.4235 69.5609 5.84342 69.4404 6.22754C69.32 6.61165 69.1458 6.94206 68.918 7.21875C68.6901 7.49544 68.4118 7.71191 68.083 7.86816C67.7575 8.02116 67.3896 8.09766 66.9795 8.09766C66.5693 8.09766 66.2048 8.02116 65.8857 7.86816C65.5667 7.71191 65.2982 7.49544 65.0801 7.21875C64.862 6.9388 64.696 6.6084 64.582 6.22754C64.4681 5.84342 64.4111 5.4235 64.4111 4.96777V3.93262C64.4111 3.47689 64.4681 3.05697 64.582 2.67285C64.696 2.28874 64.862 1.95833 65.0801 1.68164C65.2982 1.40169 65.5651 1.18359 65.8809 1.02734C66.1999 0.871094 66.5645 0.792969 66.9746 0.792969C67.388 0.792969 67.7575 0.871094 68.083 1.02734C68.4118 1.18359 68.6901 1.40169 68.918 1.68164C69.1458 1.95833 69.32 2.28874 69.4404 2.67285C69.5609 3.05697 69.6211 3.47689 69.6211 3.93262V4.96777ZM68.2295 3.92285C68.2295 3.63314 68.2051 3.36621 68.1562 3.12207C68.1107 2.87793 68.0374 2.66797 67.9365 2.49219C67.8356 2.31641 67.7054 2.17969 67.5459 2.08203C67.3896 1.98112 67.1992 1.93066 66.9746 1.93066C66.7533 1.93066 66.5677 1.98112 66.418 2.08203C66.2682 2.17969 66.1478 2.31641 66.0566 2.49219C65.9655 2.66797 65.9004 2.87793 65.8613 3.12207C65.8223 3.36621 65.8027 3.63314 65.8027 3.92285V4.96777C65.8027 5.25423 65.8223 5.51953 65.8613 5.76367C65.9004 6.00781 65.9655 6.2194 66.0566 6.39844C66.1478 6.57747 66.2682 6.71745 66.418 6.81836C66.5677 6.91927 66.7549 6.96973 66.9795 6.96973C67.2008 6.96973 67.3896 6.91927 67.5459 6.81836C67.7054 6.71745 67.834 6.5791 67.9316 6.40332C68.0326 6.22428 68.1074 6.0127 68.1562 5.76855C68.2051 5.52441 68.2295 5.25749 68.2295 4.96777V3.92285Z"/>
</svg>
