<svg width="78" height="9" viewBox="0 0 78 9" xmlns="http://www.w3.org/2000/svg">
<path d="M5.54688 5.77344C5.52409 6.13151 5.44596 6.45378 5.3125 6.74023C5.18229 7.02669 5.00651 7.27083 4.78516 7.47266C4.5638 7.67448 4.30013 7.83073 3.99414 7.94141C3.68815 8.04883 3.34961 8.10254 2.97852 8.10254C2.55859 8.10254 2.18587 8.02604 1.86035 7.87305C1.53483 7.7168 1.26139 7.50033 1.04004 7.22363C0.818685 6.94368 0.649414 6.6084 0.532227 6.21777C0.415039 5.82715 0.356445 5.39746 0.356445 4.92871V3.97168C0.356445 3.49967 0.418294 3.06836 0.541992 2.67773C0.66569 2.28711 0.841471 1.95182 1.06934 1.67188C1.2972 1.39193 1.57227 1.17546 1.89453 1.02246C2.22005 0.866211 2.58464 0.788086 2.98828 0.788086C3.37891 0.788086 3.72559 0.843424 4.02832 0.954102C4.33431 1.06478 4.59473 1.22266 4.80957 1.42773C5.02441 1.63281 5.19368 1.88346 5.31738 2.17969C5.44108 2.47591 5.51921 2.80957 5.55176 3.18066H4.18457C4.17155 2.96908 4.139 2.78353 4.08691 2.62402C4.03809 2.46452 3.96484 2.33268 3.86719 2.22852C3.77279 2.12109 3.65234 2.04134 3.50586 1.98926C3.36263 1.93392 3.1901 1.90625 2.98828 1.90625C2.77669 1.90625 2.59277 1.95182 2.43652 2.04297C2.28027 2.13411 2.15007 2.26758 2.0459 2.44336C1.94499 2.61914 1.87012 2.83561 1.82129 3.09277C1.77246 3.34668 1.74805 3.63639 1.74805 3.96191V4.92871C1.74805 5.62858 1.8457 6.14616 2.04102 6.48145C2.23958 6.81673 2.55208 6.98438 2.97852 6.98438C3.33659 6.98438 3.61979 6.88997 3.82812 6.70117C4.03646 6.50911 4.15202 6.19987 4.1748 5.77344H5.54688ZM12.1123 6.51562H9.97852L9.55859 8H8.11328L10.4424 0.890625H11.6875L13.9727 8H12.5273L12.1123 6.51562ZM10.3154 5.34863H11.79L11.0625 2.73145L10.3154 5.34863ZM20.3135 6.14453C20.3135 6.01758 20.2907 5.89876 20.2451 5.78809C20.2028 5.67741 20.1279 5.57487 20.0205 5.48047C19.9163 5.38281 19.778 5.29492 19.6055 5.2168C19.4362 5.13542 19.2246 5.06055 18.9707 4.99219C18.6615 4.90755 18.3652 4.80176 18.082 4.6748C17.8021 4.54785 17.5547 4.39486 17.3398 4.21582C17.125 4.03678 16.9525 3.82845 16.8223 3.59082C16.6953 3.35319 16.6318 3.07975 16.6318 2.77051C16.6318 2.47103 16.6953 2.19922 16.8223 1.95508C16.9492 1.71094 17.125 1.5026 17.3496 1.33008C17.5742 1.15755 17.8395 1.02572 18.1455 0.93457C18.4515 0.840169 18.7835 0.792969 19.1416 0.792969C19.5127 0.792969 19.8512 0.84668 20.1572 0.954102C20.4665 1.06152 20.7318 1.21289 20.9531 1.4082C21.1745 1.60026 21.347 1.82975 21.4707 2.09668C21.5944 2.36361 21.6562 2.65658 21.6562 2.97559H20.3184C20.3118 2.81608 20.2826 2.6696 20.2305 2.53613C20.1816 2.40267 20.1068 2.28874 20.0059 2.19434C19.9082 2.09668 19.7845 2.02181 19.6348 1.96973C19.4883 1.91439 19.3158 1.88672 19.1172 1.88672C18.9349 1.88672 18.7721 1.90951 18.6289 1.95508C18.4889 1.9974 18.3701 2.05924 18.2725 2.14062C18.1748 2.21875 18.0999 2.31315 18.0479 2.42383C17.999 2.53125 17.9746 2.64844 17.9746 2.77539C17.9746 2.90885 18.0072 3.0293 18.0723 3.13672C18.1406 3.24414 18.2383 3.3418 18.3652 3.42969C18.4922 3.51432 18.6452 3.59245 18.8242 3.66406C19.0065 3.73568 19.2116 3.80241 19.4395 3.86426C19.765 3.95866 20.0645 4.07422 20.3379 4.21094C20.6113 4.34766 20.8457 4.51042 21.041 4.69922C21.2396 4.88477 21.3926 5.09798 21.5 5.33887C21.6107 5.5765 21.666 5.8418 21.666 6.13477C21.666 6.44727 21.6025 6.72559 21.4756 6.96973C21.3519 7.21061 21.1794 7.41569 20.958 7.58496C20.7367 7.75098 20.473 7.87793 20.167 7.96582C19.861 8.05046 19.5273 8.09277 19.166 8.09277C18.9414 8.09277 18.7168 8.07161 18.4922 8.0293C18.2708 7.99023 18.0576 7.92839 17.8525 7.84375C17.6507 7.75911 17.4619 7.65332 17.2861 7.52637C17.1104 7.39941 16.9574 7.2513 16.8271 7.08203C16.7002 6.91276 16.5993 6.7207 16.5244 6.50586C16.4528 6.29102 16.417 6.05339 16.417 5.79297H17.7646C17.7712 6.00781 17.8086 6.19173 17.877 6.34473C17.9453 6.49772 18.0397 6.62305 18.1602 6.7207C18.2839 6.81836 18.4303 6.88997 18.5996 6.93555C18.7721 6.98112 18.9609 7.00391 19.166 7.00391C19.3483 7.00391 19.5094 6.98275 19.6494 6.94043C19.7926 6.89811 19.9131 6.83952 20.0107 6.76465C20.1084 6.68978 20.1833 6.60026 20.2354 6.49609C20.2874 6.38867 20.3135 6.27148 20.3135 6.14453ZM29.3203 8H27.9629V4.91895H25.9512V8H24.5889V0.890625H25.9512V3.80566H27.9629V0.890625H29.3203V8ZM37.4385 5.41211H33.3711V4.31348H37.4385V5.41211ZM42.0996 5.39258V8H40.7275V0.890625H43.1592C43.5465 0.890625 43.8965 0.947591 44.209 1.06152C44.5215 1.1722 44.7868 1.32845 45.0049 1.53027C45.2262 1.72884 45.3955 1.9681 45.5127 2.24805C45.6331 2.52799 45.6934 2.83887 45.6934 3.18066C45.6934 3.49967 45.6331 3.79427 45.5127 4.06445C45.3955 4.33464 45.2262 4.56901 45.0049 4.76758C44.7868 4.96289 44.5215 5.11589 44.209 5.22656C43.8965 5.33724 43.5465 5.39258 43.1592 5.39258H42.0996ZM42.0996 4.2793H43.1592C43.3545 4.2793 43.5238 4.25 43.667 4.19141C43.8102 4.13281 43.929 4.05306 44.0234 3.95215C44.1211 3.85124 44.1927 3.73568 44.2383 3.60547C44.2871 3.47201 44.3115 3.33366 44.3115 3.19043C44.3115 3.02441 44.2871 2.86979 44.2383 2.72656C44.1927 2.58333 44.1211 2.45801 44.0234 2.35059C43.929 2.24316 43.8102 2.15853 43.667 2.09668C43.5238 2.03483 43.3545 2.00391 43.1592 2.00391H42.0996V4.2793ZM53.6064 4.96777C53.6064 5.4235 53.5462 5.84342 53.4258 6.22754C53.3053 6.61165 53.1312 6.94206 52.9033 7.21875C52.6755 7.49544 52.3971 7.71191 52.0684 7.86816C51.7428 8.02116 51.375 8.09766 50.9648 8.09766C50.5547 8.09766 50.1901 8.02116 49.8711 7.86816C49.5521 7.71191 49.2835 7.49544 49.0654 7.21875C48.8473 6.9388 48.6813 6.6084 48.5674 6.22754C48.4535 5.84342 48.3965 5.4235 48.3965 4.96777V3.93262C48.3965 3.47689 48.4535 3.05697 48.5674 2.67285C48.6813 2.28874 48.8473 1.95833 49.0654 1.68164C49.2835 1.40169 49.5505 1.18359 49.8662 1.02734C50.1852 0.871094 50.5498 0.792969 50.96 0.792969C51.3734 0.792969 51.7428 0.871094 52.0684 1.02734C52.3971 1.18359 52.6755 1.40169 52.9033 1.68164C53.1312 1.95833 53.3053 2.28874 53.4258 2.67285C53.5462 3.05697 53.6064 3.47689 53.6064 3.93262V4.96777ZM52.2148 3.92285C52.2148 3.63314 52.1904 3.36621 52.1416 3.12207C52.096 2.87793 52.0228 2.66797 51.9219 2.49219C51.821 2.31641 51.6908 2.17969 51.5312 2.08203C51.375 1.98112 51.1846 1.93066 50.96 1.93066C50.7386 1.93066 50.5531 1.98112 50.4033 2.08203C50.2536 2.17969 50.1331 2.31641 50.042 2.49219C49.9508 2.66797 49.8857 2.87793 49.8467 3.12207C49.8076 3.36621 49.7881 3.63314 49.7881 3.92285V4.96777C49.7881 5.25423 49.8076 5.51953 49.8467 5.76367C49.8857 6.00781 49.9508 6.2194 50.042 6.39844C50.1331 6.57747 50.2536 6.71745 50.4033 6.81836C50.5531 6.91927 50.7402 6.96973 50.9648 6.96973C51.1862 6.96973 51.375 6.91927 51.5312 6.81836C51.6908 6.71745 51.8193 6.5791 51.917 6.40332C52.0179 6.22428 52.0928 6.0127 52.1416 5.76855C52.1904 5.52441 52.2148 5.25749 52.2148 4.96777V3.92285ZM61.3877 0.890625L61.3926 5.60254C61.3926 5.99967 61.3372 6.35286 61.2266 6.66211C61.1191 6.97135 60.9613 7.2334 60.7529 7.44824C60.5479 7.65983 60.2956 7.82096 59.9961 7.93164C59.6999 8.04232 59.3613 8.09766 58.9805 8.09766C58.6224 8.09766 58.2985 8.04232 58.0088 7.93164C57.7223 7.82096 57.4766 7.65983 57.2715 7.44824C57.0664 7.23665 56.9069 6.97624 56.793 6.66699C56.6823 6.35449 56.627 5.99967 56.627 5.60254L56.6318 0.890625H58.0039L58.0088 5.60254C58.012 6.06152 58.0951 6.4082 58.2578 6.64258C58.4238 6.87695 58.6647 6.99414 58.9805 6.99414C59.3158 6.99414 59.5713 6.87695 59.7471 6.64258C59.9261 6.4082 60.0173 6.06152 60.0205 5.60254L60.0254 0.890625H61.3877ZM69.3447 8H67.9775L66 3.41504V8H64.6182V0.890625H66L67.9629 5.45605L67.9678 0.890625H69.3447V8ZM72.6338 8V0.890625H74.4746C74.9466 0.890625 75.373 0.972005 75.7539 1.13477C76.138 1.29427 76.4652 1.51888 76.7354 1.80859C77.0088 2.09505 77.2188 2.43848 77.3652 2.83887C77.515 3.23926 77.5898 3.67871 77.5898 4.15723V4.74316C77.5898 5.22168 77.515 5.66113 77.3652 6.06152C77.2188 6.45866 77.012 6.80208 76.7451 7.0918C76.4782 7.37826 76.1576 7.60124 75.7832 7.76074C75.4089 7.92025 74.9954 8 74.543 8H72.6338ZM74.0156 2.00391V6.89648H74.543C74.8001 6.89648 75.0296 6.84766 75.2314 6.75C75.4365 6.65234 75.609 6.51074 75.749 6.3252C75.8923 6.13965 76.0013 5.91504 76.0762 5.65137C76.151 5.38444 76.1885 5.08171 76.1885 4.74316V4.14746C76.1885 3.82845 76.151 3.53874 76.0762 3.27832C76.0046 3.01465 75.8955 2.78841 75.749 2.59961C75.6058 2.41081 75.4268 2.26432 75.2119 2.16016C75.0003 2.05599 74.7546 2.00391 74.4746 2.00391H74.0156Z"/>
</svg>
