<svg width="70" height="9" viewBox="0 0 70 9" xmlns="http://www.w3.org/2000/svg">
<path d="M5.5498 5.77344C5.52702 6.13151 5.44889 6.45378 5.31543 6.74023C5.18522 7.02669 5.00944 7.27083 4.78809 7.47266C4.56673 7.67448 4.30306 7.83073 3.99707 7.94141C3.69108 8.04883 3.35254 8.10254 2.98145 8.10254C2.56152 8.10254 2.1888 8.02604 1.86328 7.87305C1.53776 7.7168 1.26432 7.50033 1.04297 7.22363C0.821615 6.94368 0.652344 6.6084 0.535156 6.21777C0.417969 5.82715 0.359375 5.39746 0.359375 4.92871V3.97168C0.359375 3.49967 0.421224 3.06836 0.544922 2.67773C0.66862 2.28711 0.844401 1.95182 1.07227 1.67188C1.30013 1.39193 1.5752 1.17546 1.89746 1.02246C2.22298 0.866211 2.58757 0.788086 2.99121 0.788086C3.38184 0.788086 3.72852 0.843424 4.03125 0.954102C4.33724 1.06478 4.59766 1.22266 4.8125 1.42773C5.02734 1.63281 5.19661 1.88346 5.32031 2.17969C5.44401 2.47591 5.52214 2.80957 5.55469 3.18066H4.1875C4.17448 2.96908 4.14193 2.78353 4.08984 2.62402C4.04102 2.46452 3.96777 2.33268 3.87012 2.22852C3.77572 2.12109 3.65527 2.04134 3.50879 1.98926C3.36556 1.93392 3.19303 1.90625 2.99121 1.90625C2.77962 1.90625 2.5957 1.95182 2.43945 2.04297C2.2832 2.13411 2.15299 2.26758 2.04883 2.44336C1.94792 2.61914 1.87305 2.83561 1.82422 3.09277C1.77539 3.34668 1.75098 3.63639 1.75098 3.96191V4.92871C1.75098 5.62858 1.84863 6.14616 2.04395 6.48145C2.24251 6.81673 2.55501 6.98438 2.98145 6.98438C3.33952 6.98438 3.62272 6.88997 3.83105 6.70117C4.03939 6.50911 4.15495 6.19987 4.17773 5.77344H5.5498ZM12.1152 6.51562H9.98145L9.56152 8H8.11621L10.4453 0.890625H11.6904L13.9756 8H12.5303L12.1152 6.51562ZM10.3184 5.34863H11.793L11.0654 2.73145L10.3184 5.34863ZM20.3164 6.14453C20.3164 6.01758 20.2936 5.89876 20.248 5.78809C20.2057 5.67741 20.1309 5.57487 20.0234 5.48047C19.9193 5.38281 19.7809 5.29492 19.6084 5.2168C19.4391 5.13542 19.2275 5.06055 18.9736 4.99219C18.6644 4.90755 18.3682 4.80176 18.085 4.6748C17.805 4.54785 17.5576 4.39486 17.3428 4.21582C17.1279 4.03678 16.9554 3.82845 16.8252 3.59082C16.6982 3.35319 16.6348 3.07975 16.6348 2.77051C16.6348 2.47103 16.6982 2.19922 16.8252 1.95508C16.9521 1.71094 17.1279 1.5026 17.3525 1.33008C17.5771 1.15755 17.8424 1.02572 18.1484 0.93457C18.4544 0.840169 18.7865 0.792969 19.1445 0.792969C19.5156 0.792969 19.8542 0.84668 20.1602 0.954102C20.4694 1.06152 20.7347 1.21289 20.9561 1.4082C21.1774 1.60026 21.3499 1.82975 21.4736 2.09668C21.5973 2.36361 21.6592 2.65658 21.6592 2.97559H20.3213C20.3148 2.81608 20.2855 2.6696 20.2334 2.53613C20.1846 2.40267 20.1097 2.28874 20.0088 2.19434C19.9111 2.09668 19.7874 2.02181 19.6377 1.96973C19.4912 1.91439 19.3187 1.88672 19.1201 1.88672C18.9378 1.88672 18.7751 1.90951 18.6318 1.95508C18.4919 1.9974 18.373 2.05924 18.2754 2.14062C18.1777 2.21875 18.1029 2.31315 18.0508 2.42383C18.002 2.53125 17.9775 2.64844 17.9775 2.77539C17.9775 2.90885 18.0101 3.0293 18.0752 3.13672C18.1436 3.24414 18.2412 3.3418 18.3682 3.42969C18.4951 3.51432 18.6481 3.59245 18.8271 3.66406C19.0094 3.73568 19.2145 3.80241 19.4424 3.86426C19.7679 3.95866 20.0674 4.07422 20.3408 4.21094C20.6143 4.34766 20.8486 4.51042 21.0439 4.69922C21.2425 4.88477 21.3955 5.09798 21.5029 5.33887C21.6136 5.5765 21.6689 5.8418 21.6689 6.13477C21.6689 6.44727 21.6055 6.72559 21.4785 6.96973C21.3548 7.21061 21.1823 7.41569 20.9609 7.58496C20.7396 7.75098 20.4759 7.87793 20.1699 7.96582C19.8639 8.05046 19.5303 8.09277 19.1689 8.09277C18.9443 8.09277 18.7197 8.07161 18.4951 8.0293C18.2738 7.99023 18.0605 7.92839 17.8555 7.84375C17.6536 7.75911 17.4648 7.65332 17.2891 7.52637C17.1133 7.39941 16.9603 7.2513 16.8301 7.08203C16.7031 6.91276 16.6022 6.7207 16.5273 6.50586C16.4557 6.29102 16.4199 6.05339 16.4199 5.79297H17.7676C17.7741 6.00781 17.8115 6.19173 17.8799 6.34473C17.9482 6.49772 18.0426 6.62305 18.1631 6.7207C18.2868 6.81836 18.4333 6.88997 18.6025 6.93555C18.7751 6.98112 18.9639 7.00391 19.1689 7.00391C19.3512 7.00391 19.5124 6.98275 19.6523 6.94043C19.7956 6.89811 19.916 6.83952 20.0137 6.76465C20.1113 6.68978 20.1862 6.60026 20.2383 6.49609C20.2904 6.38867 20.3164 6.27148 20.3164 6.14453ZM29.3232 8H27.9658V4.91895H25.9541V8H24.5918V0.890625H25.9541V3.80566H27.9658V0.890625H29.3232V8ZM37.4414 5.41211H33.374V4.31348H37.4414V5.41211ZM43.0693 4.16699L44.4707 0.890625H45.9795L43.7432 5.53906L43.7383 8H42.3711L42.3662 5.48047L40.1641 0.890625H41.668L43.0693 4.16699ZM53.3848 0.890625L53.3896 5.60254C53.3896 5.99967 53.3343 6.35286 53.2236 6.66211C53.1162 6.97135 52.9583 7.2334 52.75 7.44824C52.5449 7.65983 52.2926 7.82096 51.9932 7.93164C51.6969 8.04232 51.3584 8.09766 50.9775 8.09766C50.6195 8.09766 50.2956 8.04232 50.0059 7.93164C49.7194 7.82096 49.4736 7.65983 49.2686 7.44824C49.0635 7.23665 48.904 6.97624 48.79 6.66699C48.6794 6.35449 48.624 5.99967 48.624 5.60254L48.6289 0.890625H50.001L50.0059 5.60254C50.0091 6.06152 50.0921 6.4082 50.2549 6.64258C50.4209 6.87695 50.6618 6.99414 50.9775 6.99414C51.3128 6.99414 51.5684 6.87695 51.7441 6.64258C51.9232 6.4082 52.0143 6.06152 52.0176 5.60254L52.0225 0.890625H53.3848ZM60.1504 6.51562H58.0166L57.5967 8H56.1514L58.4805 0.890625H59.7256L62.0107 8H60.5654L60.1504 6.51562ZM58.3535 5.34863H59.8281L59.1006 2.73145L58.3535 5.34863ZM69.3477 8H67.9805L66.0029 3.41504V8H64.6211V0.890625H66.0029L67.9658 5.45605L67.9707 0.890625H69.3477V8Z"/>
</svg>
