<svg width="86" height="9" viewBox="0 0 86 9" xmlns="http://www.w3.org/2000/svg">
<path d="M5.54395 5.77344C5.52116 6.13151 5.44303 6.45378 5.30957 6.74023C5.17936 7.02669 5.00358 7.27083 4.78223 7.47266C4.56087 7.67448 4.2972 7.83073 3.99121 7.94141C3.68522 8.04883 3.34668 8.10254 2.97559 8.10254C2.55566 8.10254 2.18294 8.02604 1.85742 7.87305C1.5319 7.7168 1.25846 7.50033 1.03711 7.22363C0.815755 6.94368 0.646484 6.6084 0.529297 6.21777C0.412109 5.82715 0.353516 5.39746 0.353516 4.92871V3.97168C0.353516 3.49967 0.415365 3.06836 0.539062 2.67773C0.66276 2.28711 0.838542 1.95182 1.06641 1.67188C1.29427 1.39193 1.56934 1.17546 1.8916 1.02246C2.21712 0.866211 2.58171 0.788086 2.98535 0.788086C3.37598 0.788086 3.72266 0.843424 4.02539 0.954102C4.33138 1.06478 4.5918 1.22266 4.80664 1.42773C5.02148 1.63281 5.19076 1.88346 5.31445 2.17969C5.43815 2.47591 5.51628 2.80957 5.54883 3.18066H4.18164C4.16862 2.96908 4.13607 2.78353 4.08398 2.62402C4.03516 2.46452 3.96191 2.33268 3.86426 2.22852C3.76986 2.12109 3.64941 2.04134 3.50293 1.98926C3.3597 1.93392 3.18717 1.90625 2.98535 1.90625C2.77376 1.90625 2.58984 1.95182 2.43359 2.04297C2.27734 2.13411 2.14714 2.26758 2.04297 2.44336C1.94206 2.61914 1.86719 2.83561 1.81836 3.09277C1.76953 3.34668 1.74512 3.63639 1.74512 3.96191V4.92871C1.74512 5.62858 1.84277 6.14616 2.03809 6.48145C2.23665 6.81673 2.54915 6.98438 2.97559 6.98438C3.33366 6.98438 3.61686 6.88997 3.8252 6.70117C4.03353 6.50911 4.14909 6.19987 4.17188 5.77344H5.54395ZM12.1094 6.51562H9.97559L9.55566 8H8.11035L10.4395 0.890625H11.6846L13.9697 8H12.5244L12.1094 6.51562ZM10.3125 5.34863H11.7871L11.0596 2.73145L10.3125 5.34863ZM20.3105 6.14453C20.3105 6.01758 20.2878 5.89876 20.2422 5.78809C20.1999 5.67741 20.125 5.57487 20.0176 5.48047C19.9134 5.38281 19.7751 5.29492 19.6025 5.2168C19.4333 5.13542 19.2217 5.06055 18.9678 4.99219C18.6585 4.90755 18.3623 4.80176 18.0791 4.6748C17.7992 4.54785 17.5518 4.39486 17.3369 4.21582C17.1221 4.03678 16.9495 3.82845 16.8193 3.59082C16.6924 3.35319 16.6289 3.07975 16.6289 2.77051C16.6289 2.47103 16.6924 2.19922 16.8193 1.95508C16.9463 1.71094 17.1221 1.5026 17.3467 1.33008C17.5713 1.15755 17.8366 1.02572 18.1426 0.93457C18.4486 0.840169 18.7806 0.792969 19.1387 0.792969C19.5098 0.792969 19.8483 0.84668 20.1543 0.954102C20.4635 1.06152 20.7288 1.21289 20.9502 1.4082C21.1715 1.60026 21.3441 1.82975 21.4678 2.09668C21.5915 2.36361 21.6533 2.65658 21.6533 2.97559H20.3154C20.3089 2.81608 20.2796 2.6696 20.2275 2.53613C20.1787 2.40267 20.1038 2.28874 20.0029 2.19434C19.9053 2.09668 19.7816 2.02181 19.6318 1.96973C19.4854 1.91439 19.3128 1.88672 19.1143 1.88672C18.932 1.88672 18.7692 1.90951 18.626 1.95508C18.486 1.9974 18.3672 2.05924 18.2695 2.14062C18.1719 2.21875 18.097 2.31315 18.0449 2.42383C17.9961 2.53125 17.9717 2.64844 17.9717 2.77539C17.9717 2.90885 18.0042 3.0293 18.0693 3.13672C18.1377 3.24414 18.2354 3.3418 18.3623 3.42969C18.4893 3.51432 18.6423 3.59245 18.8213 3.66406C19.0036 3.73568 19.2087 3.80241 19.4365 3.86426C19.762 3.95866 20.0615 4.07422 20.335 4.21094C20.6084 4.34766 20.8428 4.51042 21.0381 4.69922C21.2367 4.88477 21.3896 5.09798 21.4971 5.33887C21.6077 5.5765 21.6631 5.8418 21.6631 6.13477C21.6631 6.44727 21.5996 6.72559 21.4727 6.96973C21.349 7.21061 21.1764 7.41569 20.9551 7.58496C20.7337 7.75098 20.4701 7.87793 20.1641 7.96582C19.8581 8.05046 19.5244 8.09277 19.1631 8.09277C18.9385 8.09277 18.7139 8.07161 18.4893 8.0293C18.2679 7.99023 18.0547 7.92839 17.8496 7.84375C17.6478 7.75911 17.459 7.65332 17.2832 7.52637C17.1074 7.39941 16.9544 7.2513 16.8242 7.08203C16.6973 6.91276 16.5964 6.7207 16.5215 6.50586C16.4499 6.29102 16.4141 6.05339 16.4141 5.79297H17.7617C17.7682 6.00781 17.8057 6.19173 17.874 6.34473C17.9424 6.49772 18.0368 6.62305 18.1572 6.7207C18.2809 6.81836 18.4274 6.88997 18.5967 6.93555C18.7692 6.98112 18.958 7.00391 19.1631 7.00391C19.3454 7.00391 19.5065 6.98275 19.6465 6.94043C19.7897 6.89811 19.9102 6.83952 20.0078 6.76465C20.1055 6.68978 20.1803 6.60026 20.2324 6.49609C20.2845 6.38867 20.3105 6.27148 20.3105 6.14453ZM29.3174 8H27.96V4.91895H25.9482V8H24.5859V0.890625H25.9482V3.80566H27.96V0.890625H29.3174V8ZM37.4355 5.41211H33.3682V4.31348H37.4355V5.41211ZM40.6074 8V0.890625H42.4482C42.9202 0.890625 43.3467 0.972005 43.7275 1.13477C44.1117 1.29427 44.4388 1.51888 44.709 1.80859C44.9824 2.09505 45.1924 2.43848 45.3389 2.83887C45.4886 3.23926 45.5635 3.67871 45.5635 4.15723V4.74316C45.5635 5.22168 45.4886 5.66113 45.3389 6.06152C45.1924 6.45866 44.9857 6.80208 44.7188 7.0918C44.4518 7.37826 44.1312 7.60124 43.7568 7.76074C43.3825 7.92025 42.9691 8 42.5166 8H40.6074ZM41.9893 2.00391V6.89648H42.5166C42.7738 6.89648 43.0033 6.84766 43.2051 6.75C43.4102 6.65234 43.5827 6.51074 43.7227 6.3252C43.8659 6.13965 43.9749 5.91504 44.0498 5.65137C44.1247 5.38444 44.1621 5.08171 44.1621 4.74316V4.14746C44.1621 3.82845 44.1247 3.53874 44.0498 3.27832C43.9782 3.01465 43.8691 2.78841 43.7227 2.59961C43.5794 2.41081 43.4004 2.26432 43.1855 2.16016C42.974 2.05599 42.7282 2.00391 42.4482 2.00391H41.9893ZM53.6035 4.96777C53.6035 5.4235 53.5433 5.84342 53.4229 6.22754C53.3024 6.61165 53.1283 6.94206 52.9004 7.21875C52.6725 7.49544 52.3942 7.71191 52.0654 7.86816C51.7399 8.02116 51.3721 8.09766 50.9619 8.09766C50.5518 8.09766 50.1872 8.02116 49.8682 7.86816C49.5492 7.71191 49.2806 7.49544 49.0625 7.21875C48.8444 6.9388 48.6784 6.6084 48.5645 6.22754C48.4505 5.84342 48.3936 5.4235 48.3936 4.96777V3.93262C48.3936 3.47689 48.4505 3.05697 48.5645 2.67285C48.6784 2.28874 48.8444 1.95833 49.0625 1.68164C49.2806 1.40169 49.5475 1.18359 49.8633 1.02734C50.1823 0.871094 50.5469 0.792969 50.957 0.792969C51.3704 0.792969 51.7399 0.871094 52.0654 1.02734C52.3942 1.18359 52.6725 1.40169 52.9004 1.68164C53.1283 1.95833 53.3024 2.28874 53.4229 2.67285C53.5433 3.05697 53.6035 3.47689 53.6035 3.93262V4.96777ZM52.2119 3.92285C52.2119 3.63314 52.1875 3.36621 52.1387 3.12207C52.0931 2.87793 52.0199 2.66797 51.9189 2.49219C51.818 2.31641 51.6878 2.17969 51.5283 2.08203C51.3721 1.98112 51.1816 1.93066 50.957 1.93066C50.7357 1.93066 50.5501 1.98112 50.4004 2.08203C50.2507 2.17969 50.1302 2.31641 50.0391 2.49219C49.9479 2.66797 49.8828 2.87793 49.8438 3.12207C49.8047 3.36621 49.7852 3.63314 49.7852 3.92285V4.96777C49.7852 5.25423 49.8047 5.51953 49.8438 5.76367C49.8828 6.00781 49.9479 6.2194 50.0391 6.39844C50.1302 6.57747 50.2507 6.71745 50.4004 6.81836C50.5501 6.91927 50.7373 6.96973 50.9619 6.96973C51.1833 6.96973 51.3721 6.91927 51.5283 6.81836C51.6878 6.71745 51.8164 6.5791 51.9141 6.40332C52.015 6.22428 52.0898 6.0127 52.1387 5.76855C52.1875 5.52441 52.2119 5.25749 52.2119 4.96777V3.92285ZM58.1182 6.8916H61.4482V8H56.7412V0.890625H58.1182V6.8916ZM66.124 6.8916H69.4541V8H64.7471V0.890625H66.124V6.8916ZM76.1562 6.51562H74.0225L73.6025 8H72.1572L74.4863 0.890625H75.7314L78.0166 8H76.5713L76.1562 6.51562ZM74.3594 5.34863H75.834L75.1064 2.73145L74.3594 5.34863ZM83.0781 5.34375H82.0381V8H80.666V0.890625H83.0488C83.4427 0.890625 83.7992 0.937826 84.1182 1.03223C84.4372 1.12337 84.709 1.25846 84.9336 1.4375C85.1615 1.61654 85.3356 1.83952 85.4561 2.10645C85.5798 2.37337 85.6416 2.68262 85.6416 3.03418C85.6416 3.28809 85.6107 3.51758 85.5488 3.72266C85.4902 3.92448 85.404 4.10677 85.29 4.26953C85.1794 4.42904 85.0443 4.56901 84.8848 4.68945C84.7285 4.8099 84.5527 4.91406 84.3574 5.00195L85.8857 7.93652V8H84.416L83.0781 5.34375ZM82.0381 4.23047H83.0537C83.4411 4.23047 83.7389 4.13281 83.9473 3.9375C84.1589 3.73893 84.2646 3.46875 84.2646 3.12695C84.2646 2.77214 84.1621 2.49707 83.957 2.30176C83.752 2.10319 83.4492 2.00391 83.0488 2.00391H82.0381V4.23047Z"/>
</svg>
