<svg width="78" height="9" viewBox="0 0 78 9" xmlns="http://www.w3.org/2000/svg">
<path d="M5.54688 5.77344C5.52409 6.13151 5.44596 6.45378 5.3125 6.74023C5.18229 7.02669 5.00651 7.27083 4.78516 7.47266C4.5638 7.67448 4.30013 7.83073 3.99414 7.94141C3.68815 8.04883 3.34961 8.10254 2.97852 8.10254C2.55859 8.10254 2.18587 8.02604 1.86035 7.87305C1.53483 7.7168 1.26139 7.50033 1.04004 7.22363C0.818685 6.94368 0.649414 6.6084 0.532227 6.21777C0.415039 5.82715 0.356445 5.39746 0.356445 4.92871V3.97168C0.356445 3.49967 0.418294 3.06836 0.541992 2.67773C0.66569 2.28711 0.841471 1.95182 1.06934 1.67188C1.2972 1.39193 1.57227 1.17546 1.89453 1.02246C2.22005 0.866211 2.58464 0.788086 2.98828 0.788086C3.37891 0.788086 3.72559 0.843424 4.02832 0.954102C4.33431 1.06478 4.59473 1.22266 4.80957 1.42773C5.02441 1.63281 5.19368 1.88346 5.31738 2.17969C5.44108 2.47591 5.51921 2.80957 5.55176 3.18066H4.18457C4.17155 2.96908 4.139 2.78353 4.08691 2.62402C4.03809 2.46452 3.96484 2.33268 3.86719 2.22852C3.77279 2.12109 3.65234 2.04134 3.50586 1.98926C3.36263 1.93392 3.1901 1.90625 2.98828 1.90625C2.77669 1.90625 2.59277 1.95182 2.43652 2.04297C2.28027 2.13411 2.15007 2.26758 2.0459 2.44336C1.94499 2.61914 1.87012 2.83561 1.82129 3.09277C1.77246 3.34668 1.74805 3.63639 1.74805 3.96191V4.92871C1.74805 5.62858 1.8457 6.14616 2.04102 6.48145C2.23958 6.81673 2.55208 6.98438 2.97852 6.98438C3.33659 6.98438 3.61979 6.88997 3.82812 6.70117C4.03646 6.50911 4.15202 6.19987 4.1748 5.77344H5.54688ZM12.1123 6.51562H9.97852L9.55859 8H8.11328L10.4424 0.890625H11.6875L13.9727 8H12.5273L12.1123 6.51562ZM10.3154 5.34863H11.79L11.0625 2.73145L10.3154 5.34863ZM20.3135 6.14453C20.3135 6.01758 20.2907 5.89876 20.2451 5.78809C20.2028 5.67741 20.1279 5.57487 20.0205 5.48047C19.9163 5.38281 19.778 5.29492 19.6055 5.2168C19.4362 5.13542 19.2246 5.06055 18.9707 4.99219C18.6615 4.90755 18.3652 4.80176 18.082 4.6748C17.8021 4.54785 17.5547 4.39486 17.3398 4.21582C17.125 4.03678 16.9525 3.82845 16.8223 3.59082C16.6953 3.35319 16.6318 3.07975 16.6318 2.77051C16.6318 2.47103 16.6953 2.19922 16.8223 1.95508C16.9492 1.71094 17.125 1.5026 17.3496 1.33008C17.5742 1.15755 17.8395 1.02572 18.1455 0.93457C18.4515 0.840169 18.7835 0.792969 19.1416 0.792969C19.5127 0.792969 19.8512 0.84668 20.1572 0.954102C20.4665 1.06152 20.7318 1.21289 20.9531 1.4082C21.1745 1.60026 21.347 1.82975 21.4707 2.09668C21.5944 2.36361 21.6562 2.65658 21.6562 2.97559H20.3184C20.3118 2.81608 20.2826 2.6696 20.2305 2.53613C20.1816 2.40267 20.1068 2.28874 20.0059 2.19434C19.9082 2.09668 19.7845 2.02181 19.6348 1.96973C19.4883 1.91439 19.3158 1.88672 19.1172 1.88672C18.9349 1.88672 18.7721 1.90951 18.6289 1.95508C18.4889 1.9974 18.3701 2.05924 18.2725 2.14062C18.1748 2.21875 18.0999 2.31315 18.0479 2.42383C17.999 2.53125 17.9746 2.64844 17.9746 2.77539C17.9746 2.90885 18.0072 3.0293 18.0723 3.13672C18.1406 3.24414 18.2383 3.3418 18.3652 3.42969C18.4922 3.51432 18.6452 3.59245 18.8242 3.66406C19.0065 3.73568 19.2116 3.80241 19.4395 3.86426C19.765 3.95866 20.0645 4.07422 20.3379 4.21094C20.6113 4.34766 20.8457 4.51042 21.041 4.69922C21.2396 4.88477 21.3926 5.09798 21.5 5.33887C21.6107 5.5765 21.666 5.8418 21.666 6.13477C21.666 6.44727 21.6025 6.72559 21.4756 6.96973C21.3519 7.21061 21.1794 7.41569 20.958 7.58496C20.7367 7.75098 20.473 7.87793 20.167 7.96582C19.861 8.05046 19.5273 8.09277 19.166 8.09277C18.9414 8.09277 18.7168 8.07161 18.4922 8.0293C18.2708 7.99023 18.0576 7.92839 17.8525 7.84375C17.6507 7.75911 17.4619 7.65332 17.2861 7.52637C17.1104 7.39941 16.9574 7.2513 16.8271 7.08203C16.7002 6.91276 16.5993 6.7207 16.5244 6.50586C16.4528 6.29102 16.417 6.05339 16.417 5.79297H17.7646C17.7712 6.00781 17.8086 6.19173 17.877 6.34473C17.9453 6.49772 18.0397 6.62305 18.1602 6.7207C18.2839 6.81836 18.4303 6.88997 18.5996 6.93555C18.7721 6.98112 18.9609 7.00391 19.166 7.00391C19.3483 7.00391 19.5094 6.98275 19.6494 6.94043C19.7926 6.89811 19.9131 6.83952 20.0107 6.76465C20.1084 6.68978 20.1833 6.60026 20.2354 6.49609C20.2874 6.38867 20.3135 6.27148 20.3135 6.14453ZM29.3203 8H27.9629V4.91895H25.9512V8H24.5889V0.890625H25.9512V3.80566H27.9629V0.890625H29.3203V8ZM37.4385 5.41211H33.3711V4.31348H37.4385V5.41211ZM43.0518 5.34375H42.0117V8H40.6396V0.890625H43.0225C43.4163 0.890625 43.7728 0.937826 44.0918 1.03223C44.4108 1.12337 44.6826 1.25846 44.9072 1.4375C45.1351 1.61654 45.3092 1.83952 45.4297 2.10645C45.5534 2.37337 45.6152 2.68262 45.6152 3.03418C45.6152 3.28809 45.5843 3.51758 45.5225 3.72266C45.4639 3.92448 45.3776 4.10677 45.2637 4.26953C45.153 4.42904 45.0179 4.56901 44.8584 4.68945C44.7021 4.8099 44.5264 4.91406 44.3311 5.00195L45.8594 7.93652V8H44.3896L43.0518 5.34375ZM42.0117 4.23047H43.0273C43.4147 4.23047 43.7126 4.13281 43.9209 3.9375C44.1325 3.73893 44.2383 3.46875 44.2383 3.12695C44.2383 2.77214 44.1357 2.49707 43.9307 2.30176C43.7256 2.10319 43.4229 2.00391 43.0225 2.00391H42.0117V4.23047ZM53.3818 0.890625L53.3867 5.60254C53.3867 5.99967 53.3314 6.35286 53.2207 6.66211C53.1133 6.97135 52.9554 7.2334 52.7471 7.44824C52.542 7.65983 52.2897 7.82096 51.9902 7.93164C51.694 8.04232 51.3555 8.09766 50.9746 8.09766C50.6165 8.09766 50.2926 8.04232 50.0029 7.93164C49.7165 7.82096 49.4707 7.65983 49.2656 7.44824C49.0605 7.23665 48.901 6.97624 48.7871 6.66699C48.6764 6.35449 48.6211 5.99967 48.6211 5.60254L48.626 0.890625H49.998L50.0029 5.60254C50.0062 6.06152 50.0892 6.4082 50.252 6.64258C50.418 6.87695 50.6589 6.99414 50.9746 6.99414C51.3099 6.99414 51.5654 6.87695 51.7412 6.64258C51.9202 6.4082 52.0114 6.06152 52.0146 5.60254L52.0195 0.890625H53.3818ZM56.6416 8V0.890625H59.0293C59.4167 0.890625 59.7682 0.929688 60.084 1.00781C60.403 1.08594 60.6748 1.20475 60.8994 1.36426C61.124 1.52376 61.2965 1.72559 61.417 1.96973C61.5407 2.21387 61.6025 2.50195 61.6025 2.83398C61.5993 3.16602 61.5098 3.46387 61.334 3.72754C61.1615 3.99121 60.9059 4.19141 60.5674 4.32812C60.7725 4.38021 60.9499 4.45833 61.0996 4.5625C61.2493 4.66667 61.373 4.79036 61.4707 4.93359C61.5716 5.07357 61.6449 5.22819 61.6904 5.39746C61.7393 5.56348 61.7637 5.736 61.7637 5.91504C61.7637 6.25684 61.7051 6.55794 61.5879 6.81836C61.4707 7.07878 61.3031 7.29688 61.085 7.47266C60.8669 7.64844 60.6016 7.78027 60.2891 7.86816C59.9766 7.95605 59.625 8 59.2344 8H56.6416ZM58.0186 4.86523V6.8916H59.2393C59.6136 6.88835 59.8984 6.7972 60.0938 6.61816C60.2923 6.43587 60.3916 6.19824 60.3916 5.90527C60.3949 5.57975 60.307 5.32585 60.1279 5.14355C59.9489 4.96126 59.6722 4.86849 59.2979 4.86523H58.0186ZM58.0186 3.87402H59.0391C59.4199 3.87077 59.7129 3.79102 59.918 3.63477C60.123 3.47852 60.2272 3.24902 60.2305 2.94629C60.2305 2.61426 60.1279 2.37663 59.9229 2.2334C59.7178 2.08691 59.4215 2.01204 59.0342 2.00879H58.0186V3.87402ZM66.127 6.8916H69.457V8H64.75V0.890625H66.127V6.8916ZM77.0381 4.88477H74.1182V6.8916H77.5312V8H72.7412V0.890625H77.5166V2.00879H74.1182V3.80078H77.0381V4.88477Z"/>
</svg>
