<svg width="62" height="9" viewBox="0 0 62 9" xmlns="http://www.w3.org/2000/svg">
<path d="M5.55273 5.77344C5.52995 6.13151 5.45182 6.45378 5.31836 6.74023C5.18815 7.02669 5.01237 7.27083 4.79102 7.47266C4.56966 7.67448 4.30599 7.83073 4 7.94141C3.69401 8.04883 3.35547 8.10254 2.98438 8.10254C2.56445 8.10254 2.19173 8.02604 1.86621 7.87305C1.54069 7.7168 1.26725 7.50033 1.0459 7.22363C0.824544 6.94368 0.655273 6.6084 0.538086 6.21777C0.420898 5.82715 0.362305 5.39746 0.362305 4.92871V3.97168C0.362305 3.49967 0.424154 3.06836 0.547852 2.67773C0.671549 2.28711 0.847331 1.95182 1.0752 1.67188C1.30306 1.39193 1.57812 1.17546 1.90039 1.02246C2.22591 0.866211 2.59049 0.788086 2.99414 0.788086C3.38477 0.788086 3.73145 0.843424 4.03418 0.954102C4.34017 1.06478 4.60059 1.22266 4.81543 1.42773C5.03027 1.63281 5.19954 1.88346 5.32324 2.17969C5.44694 2.47591 5.52507 2.80957 5.55762 3.18066H4.19043C4.17741 2.96908 4.14486 2.78353 4.09277 2.62402C4.04395 2.46452 3.9707 2.33268 3.87305 2.22852C3.77865 2.12109 3.6582 2.04134 3.51172 1.98926C3.36849 1.93392 3.19596 1.90625 2.99414 1.90625C2.78255 1.90625 2.59863 1.95182 2.44238 2.04297C2.28613 2.13411 2.15592 2.26758 2.05176 2.44336C1.95085 2.61914 1.87598 2.83561 1.82715 3.09277C1.77832 3.34668 1.75391 3.63639 1.75391 3.96191V4.92871C1.75391 5.62858 1.85156 6.14616 2.04688 6.48145C2.24544 6.81673 2.55794 6.98438 2.98438 6.98438C3.34245 6.98438 3.62565 6.88997 3.83398 6.70117C4.04232 6.50911 4.15788 6.19987 4.18066 5.77344H5.55273ZM12.9971 4.88477H10.0771V6.8916H13.4902V8H8.7002V0.890625H13.4756V2.00879H10.0771V3.80078H12.9971V4.88477ZM18.0977 6.8916H21.4277V8H16.7207V0.890625H18.0977V6.8916ZM26.1035 6.8916H29.4336V8H24.7266V0.890625H26.1035V6.8916ZM37.376 0.890625L37.3809 5.60254C37.3809 5.99967 37.3255 6.35286 37.2148 6.66211C37.1074 6.97135 36.9495 7.2334 36.7412 7.44824C36.5361 7.65983 36.2839 7.82096 35.9844 7.93164C35.6882 8.04232 35.3496 8.09766 34.9688 8.09766C34.6107 8.09766 34.2868 8.04232 33.9971 7.93164C33.7106 7.82096 33.4648 7.65983 33.2598 7.44824C33.0547 7.23665 32.8952 6.97624 32.7812 6.66699C32.6706 6.35449 32.6152 5.99967 32.6152 5.60254L32.6201 0.890625H33.9922L33.9971 5.60254C34.0003 6.06152 34.0833 6.4082 34.2461 6.64258C34.4121 6.87695 34.653 6.99414 34.9688 6.99414C35.304 6.99414 35.5596 6.87695 35.7354 6.64258C35.9144 6.4082 36.0055 6.06152 36.0088 5.60254L36.0137 0.890625H37.376ZM42.1152 6.8916H45.4453V8H40.7383V0.890625H42.1152V6.8916ZM52.1475 6.51562H50.0137L49.5938 8H48.1484L50.4775 0.890625H51.7227L54.0078 8H52.5625L52.1475 6.51562ZM50.3506 5.34863H51.8252L51.0977 2.73145L50.3506 5.34863ZM59.0693 5.34375H58.0293V8H56.6572V0.890625H59.04C59.4339 0.890625 59.7904 0.937826 60.1094 1.03223C60.4284 1.12337 60.7002 1.25846 60.9248 1.4375C61.1527 1.61654 61.3268 1.83952 61.4473 2.10645C61.571 2.37337 61.6328 2.68262 61.6328 3.03418C61.6328 3.28809 61.6019 3.51758 61.54 3.72266C61.4814 3.92448 61.3952 4.10677 61.2812 4.26953C61.1706 4.42904 61.0355 4.56901 60.876 4.68945C60.7197 4.8099 60.5439 4.91406 60.3486 5.00195L61.877 7.93652V8H60.4072L59.0693 5.34375ZM58.0293 4.23047H59.0449C59.4323 4.23047 59.7301 4.13281 59.9385 3.9375C60.1501 3.73893 60.2559 3.46875 60.2559 3.12695C60.2559 2.77214 60.1533 2.49707 59.9482 2.30176C59.7432 2.10319 59.4404 2.00391 59.04 2.00391H58.0293V4.23047Z"/>
</svg>
