<svg width="78" height="9" viewBox="0 0 78 9" xmlns="http://www.w3.org/2000/svg">
<path d="M5.54688 5.77344C5.52409 6.13151 5.44596 6.45378 5.3125 6.74023C5.18229 7.02669 5.00651 7.27083 4.78516 7.47266C4.5638 7.67448 4.30013 7.83073 3.99414 7.94141C3.68815 8.04883 3.34961 8.10254 2.97852 8.10254C2.55859 8.10254 2.18587 8.02604 1.86035 7.87305C1.53483 7.7168 1.26139 7.50033 1.04004 7.22363C0.818685 6.94368 0.649414 6.6084 0.532227 6.21777C0.415039 5.82715 0.356445 5.39746 0.356445 4.92871V3.97168C0.356445 3.49967 0.418294 3.06836 0.541992 2.67773C0.66569 2.28711 0.841471 1.95182 1.06934 1.67188C1.2972 1.39193 1.57227 1.17546 1.89453 1.02246C2.22005 0.866211 2.58464 0.788086 2.98828 0.788086C3.37891 0.788086 3.72559 0.843424 4.02832 0.954102C4.33431 1.06478 4.59473 1.22266 4.80957 1.42773C5.02441 1.63281 5.19368 1.88346 5.31738 2.17969C5.44108 2.47591 5.51921 2.80957 5.55176 3.18066H4.18457C4.17155 2.96908 4.139 2.78353 4.08691 2.62402C4.03809 2.46452 3.96484 2.33268 3.86719 2.22852C3.77279 2.12109 3.65234 2.04134 3.50586 1.98926C3.36263 1.93392 3.1901 1.90625 2.98828 1.90625C2.77669 1.90625 2.59277 1.95182 2.43652 2.04297C2.28027 2.13411 2.15007 2.26758 2.0459 2.44336C1.94499 2.61914 1.87012 2.83561 1.82129 3.09277C1.77246 3.34668 1.74805 3.63639 1.74805 3.96191V4.92871C1.74805 5.62858 1.8457 6.14616 2.04102 6.48145C2.23958 6.81673 2.55208 6.98438 2.97852 6.98438C3.33659 6.98438 3.61979 6.88997 3.82812 6.70117C4.03646 6.50911 4.15202 6.19987 4.1748 5.77344H5.54688ZM13.5771 4.96777C13.5771 5.4235 13.5169 5.84342 13.3965 6.22754C13.276 6.61165 13.1019 6.94206 12.874 7.21875C12.6462 7.49544 12.3678 7.71191 12.0391 7.86816C11.7135 8.02116 11.3457 8.09766 10.9355 8.09766C10.5254 8.09766 10.1608 8.02116 9.8418 7.86816C9.52279 7.71191 9.25423 7.49544 9.03613 7.21875C8.81803 6.9388 8.65202 6.6084 8.53809 6.22754C8.42415 5.84342 8.36719 5.4235 8.36719 4.96777V3.93262C8.36719 3.47689 8.42415 3.05697 8.53809 2.67285C8.65202 2.28874 8.81803 1.95833 9.03613 1.68164C9.25423 1.40169 9.52116 1.18359 9.83691 1.02734C10.1559 0.871094 10.5205 0.792969 10.9307 0.792969C11.3441 0.792969 11.7135 0.871094 12.0391 1.02734C12.3678 1.18359 12.6462 1.40169 12.874 1.68164C13.1019 1.95833 13.276 2.28874 13.3965 2.67285C13.5169 3.05697 13.5771 3.47689 13.5771 3.93262V4.96777ZM12.1855 3.92285C12.1855 3.63314 12.1611 3.36621 12.1123 3.12207C12.0667 2.87793 11.9935 2.66797 11.8926 2.49219C11.7917 2.31641 11.6615 2.17969 11.502 2.08203C11.3457 1.98112 11.1553 1.93066 10.9307 1.93066C10.7093 1.93066 10.5238 1.98112 10.374 2.08203C10.2243 2.17969 10.1038 2.31641 10.0127 2.49219C9.92155 2.66797 9.85645 2.87793 9.81738 3.12207C9.77832 3.36621 9.75879 3.63314 9.75879 3.92285V4.96777C9.75879 5.25423 9.77832 5.51953 9.81738 5.76367C9.85645 6.00781 9.92155 6.2194 10.0127 6.39844C10.1038 6.57747 10.2243 6.71745 10.374 6.81836C10.5238 6.91927 10.7109 6.96973 10.9355 6.96973C11.1569 6.96973 11.3457 6.91927 11.502 6.81836C11.6615 6.71745 11.79 6.5791 11.8877 6.40332C11.9886 6.22428 12.0635 6.0127 12.1123 5.76855C12.1611 5.52441 12.1855 5.25749 12.1855 4.96777V3.92285ZM18.0918 6.8916H21.4219V8H16.7148V0.890625H18.0918V6.8916ZM29.5889 4.96777C29.5889 5.4235 29.5286 5.84342 29.4082 6.22754C29.2878 6.61165 29.1136 6.94206 28.8857 7.21875C28.6579 7.49544 28.3796 7.71191 28.0508 7.86816C27.7253 8.02116 27.3574 8.09766 26.9473 8.09766C26.5371 8.09766 26.1725 8.02116 25.8535 7.86816C25.5345 7.71191 25.266 7.49544 25.0479 7.21875C24.8298 6.9388 24.6637 6.6084 24.5498 6.22754C24.4359 5.84342 24.3789 5.4235 24.3789 4.96777V3.93262C24.3789 3.47689 24.4359 3.05697 24.5498 2.67285C24.6637 2.28874 24.8298 1.95833 25.0479 1.68164C25.266 1.40169 25.5329 1.18359 25.8486 1.02734C26.1676 0.871094 26.5322 0.792969 26.9424 0.792969C27.3558 0.792969 27.7253 0.871094 28.0508 1.02734C28.3796 1.18359 28.6579 1.40169 28.8857 1.68164C29.1136 1.95833 29.2878 2.28874 29.4082 2.67285C29.5286 3.05697 29.5889 3.47689 29.5889 3.93262V4.96777ZM28.1973 3.92285C28.1973 3.63314 28.1729 3.36621 28.124 3.12207C28.0785 2.87793 28.0052 2.66797 27.9043 2.49219C27.8034 2.31641 27.6732 2.17969 27.5137 2.08203C27.3574 1.98112 27.167 1.93066 26.9424 1.93066C26.721 1.93066 26.5355 1.98112 26.3857 2.08203C26.236 2.17969 26.1156 2.31641 26.0244 2.49219C25.9333 2.66797 25.8682 2.87793 25.8291 3.12207C25.79 3.36621 25.7705 3.63314 25.7705 3.92285V4.96777C25.7705 5.25423 25.79 5.51953 25.8291 5.76367C25.8682 6.00781 25.9333 6.2194 26.0244 6.39844C26.1156 6.57747 26.236 6.71745 26.3857 6.81836C26.5355 6.91927 26.7227 6.96973 26.9473 6.96973C27.1686 6.96973 27.3574 6.91927 27.5137 6.81836C27.6732 6.71745 27.8018 6.5791 27.8994 6.40332C28.0003 6.22428 28.0752 6.0127 28.124 5.76855C28.1729 5.52441 28.1973 5.25749 28.1973 4.96777V3.92285ZM35.0459 5.34375H34.0059V8H32.6338V0.890625H35.0166C35.4105 0.890625 35.7669 0.937826 36.0859 1.03223C36.4049 1.12337 36.6768 1.25846 36.9014 1.4375C37.1292 1.61654 37.3034 1.83952 37.4238 2.10645C37.5475 2.37337 37.6094 2.68262 37.6094 3.03418C37.6094 3.28809 37.5785 3.51758 37.5166 3.72266C37.458 3.92448 37.3717 4.10677 37.2578 4.26953C37.1471 4.42904 37.012 4.56901 36.8525 4.68945C36.6963 4.8099 36.5205 4.91406 36.3252 5.00195L37.8535 7.93652V8H36.3838L35.0459 5.34375ZM34.0059 4.23047H35.0215C35.4089 4.23047 35.7067 4.13281 35.915 3.9375C36.1266 3.73893 36.2324 3.46875 36.2324 3.12695C36.2324 2.77214 36.1299 2.49707 35.9248 2.30176C35.7197 2.10319 35.417 2.00391 35.0166 2.00391H34.0059V4.23047ZM45.4443 5.41211H41.377V4.31348H45.4443V5.41211ZM53.1572 5.05566H50.1104V8H48.7334V0.890625H53.5381V2.00879H50.1104V3.94238H53.1572V5.05566ZM56.9541 0.890625H61.0654V1.99902H59.6787V6.89648H61.0654V8H56.9541V6.89648H58.3066V1.99902H56.9541V0.890625ZM66.127 6.8916H69.457V8H64.75V0.890625H66.127V6.8916ZM74.1328 6.8916H77.4629V8H72.7559V0.890625H74.1328V6.8916Z"/>
</svg>
