<svg width="54" height="9" viewBox="0 0 54 9" xmlns="http://www.w3.org/2000/svg">
<path d="M5.55566 5.77344C5.53288 6.13151 5.45475 6.45378 5.32129 6.74023C5.19108 7.02669 5.0153 7.27083 4.79395 7.47266C4.57259 7.67448 4.30892 7.83073 4.00293 7.94141C3.69694 8.04883 3.3584 8.10254 2.9873 8.10254C2.56738 8.10254 2.19466 8.02604 1.86914 7.87305C1.54362 7.7168 1.27018 7.50033 1.04883 7.22363C0.827474 6.94368 0.658203 6.6084 0.541016 6.21777C0.423828 5.82715 0.365234 5.39746 0.365234 4.92871V3.97168C0.365234 3.49967 0.427083 3.06836 0.550781 2.67773C0.674479 2.28711 0.85026 1.95182 1.07812 1.67188C1.30599 1.39193 1.58105 1.17546 1.90332 1.02246C2.22884 0.866211 2.59342 0.788086 2.99707 0.788086C3.3877 0.788086 3.73438 0.843424 4.03711 0.954102C4.3431 1.06478 4.60352 1.22266 4.81836 1.42773C5.0332 1.63281 5.20247 1.88346 5.32617 2.17969C5.44987 2.47591 5.52799 2.80957 5.56055 3.18066H4.19336C4.18034 2.96908 4.14779 2.78353 4.0957 2.62402C4.04688 2.46452 3.97363 2.33268 3.87598 2.22852C3.78158 2.12109 3.66113 2.04134 3.51465 1.98926C3.37142 1.93392 3.19889 1.90625 2.99707 1.90625C2.78548 1.90625 2.60156 1.95182 2.44531 2.04297C2.28906 2.13411 2.15885 2.26758 2.05469 2.44336C1.95378 2.61914 1.87891 2.83561 1.83008 3.09277C1.78125 3.34668 1.75684 3.63639 1.75684 3.96191V4.92871C1.75684 5.62858 1.85449 6.14616 2.0498 6.48145C2.24837 6.81673 2.56087 6.98438 2.9873 6.98438C3.34538 6.98438 3.62858 6.88997 3.83691 6.70117C4.04525 6.50911 4.16081 6.19987 4.18359 5.77344H5.55566ZM13.5859 4.96777C13.5859 5.4235 13.5257 5.84342 13.4053 6.22754C13.2848 6.61165 13.1107 6.94206 12.8828 7.21875C12.6549 7.49544 12.3766 7.71191 12.0479 7.86816C11.7223 8.02116 11.3545 8.09766 10.9443 8.09766C10.5342 8.09766 10.1696 8.02116 9.85059 7.86816C9.53158 7.71191 9.26302 7.49544 9.04492 7.21875C8.82682 6.9388 8.66081 6.6084 8.54688 6.22754C8.43294 5.84342 8.37598 5.4235 8.37598 4.96777V3.93262C8.37598 3.47689 8.43294 3.05697 8.54688 2.67285C8.66081 2.28874 8.82682 1.95833 9.04492 1.68164C9.26302 1.40169 9.52995 1.18359 9.8457 1.02734C10.1647 0.871094 10.5293 0.792969 10.9395 0.792969C11.3529 0.792969 11.7223 0.871094 12.0479 1.02734C12.3766 1.18359 12.6549 1.40169 12.8828 1.68164C13.1107 1.95833 13.2848 2.28874 13.4053 2.67285C13.5257 3.05697 13.5859 3.47689 13.5859 3.93262V4.96777ZM12.1943 3.92285C12.1943 3.63314 12.1699 3.36621 12.1211 3.12207C12.0755 2.87793 12.0023 2.66797 11.9014 2.49219C11.8005 2.31641 11.6702 2.17969 11.5107 2.08203C11.3545 1.98112 11.1641 1.93066 10.9395 1.93066C10.7181 1.93066 10.5326 1.98112 10.3828 2.08203C10.2331 2.17969 10.1126 2.31641 10.0215 2.49219C9.93034 2.66797 9.86523 2.87793 9.82617 3.12207C9.78711 3.36621 9.76758 3.63314 9.76758 3.92285V4.96777C9.76758 5.25423 9.78711 5.51953 9.82617 5.76367C9.86523 6.00781 9.93034 6.2194 10.0215 6.39844C10.1126 6.57747 10.2331 6.71745 10.3828 6.81836C10.5326 6.91927 10.7197 6.96973 10.9443 6.96973C11.1657 6.96973 11.3545 6.91927 11.5107 6.81836C11.6702 6.71745 11.7988 6.5791 11.8965 6.40332C11.9974 6.22428 12.0723 6.0127 12.1211 5.76855C12.1699 5.52441 12.1943 5.25749 12.1943 4.96777V3.92285ZM18.3154 0.890625L18.9893 3.56152L19.7559 0.890625H21.46V8H20.2002V5.89551L20.2588 2.57031L19.3262 5.65625H18.6475L17.8125 2.70215L17.8711 5.89551V8H16.6113V0.890625H18.3154ZM29.1484 5.05566H26.1016V8H24.7246V0.890625H29.5293V2.00879H26.1016V3.94238H29.1484V5.05566ZM37.6035 4.96777C37.6035 5.4235 37.5433 5.84342 37.4229 6.22754C37.3024 6.61165 37.1283 6.94206 36.9004 7.21875C36.6725 7.49544 36.3942 7.71191 36.0654 7.86816C35.7399 8.02116 35.3721 8.09766 34.9619 8.09766C34.5518 8.09766 34.1872 8.02116 33.8682 7.86816C33.5492 7.71191 33.2806 7.49544 33.0625 7.21875C32.8444 6.9388 32.6784 6.6084 32.5645 6.22754C32.4505 5.84342 32.3936 5.4235 32.3936 4.96777V3.93262C32.3936 3.47689 32.4505 3.05697 32.5645 2.67285C32.6784 2.28874 32.8444 1.95833 33.0625 1.68164C33.2806 1.40169 33.5475 1.18359 33.8633 1.02734C34.1823 0.871094 34.5469 0.792969 34.957 0.792969C35.3704 0.792969 35.7399 0.871094 36.0654 1.02734C36.3942 1.18359 36.6725 1.40169 36.9004 1.68164C37.1283 1.95833 37.3024 2.28874 37.4229 2.67285C37.5433 3.05697 37.6035 3.47689 37.6035 3.93262V4.96777ZM36.2119 3.92285C36.2119 3.63314 36.1875 3.36621 36.1387 3.12207C36.0931 2.87793 36.0199 2.66797 35.9189 2.49219C35.818 2.31641 35.6878 2.17969 35.5283 2.08203C35.3721 1.98112 35.1816 1.93066 34.957 1.93066C34.7357 1.93066 34.5501 1.98112 34.4004 2.08203C34.2507 2.17969 34.1302 2.31641 34.0391 2.49219C33.9479 2.66797 33.8828 2.87793 33.8438 3.12207C33.8047 3.36621 33.7852 3.63314 33.7852 3.92285V4.96777C33.7852 5.25423 33.8047 5.51953 33.8438 5.76367C33.8828 6.00781 33.9479 6.2194 34.0391 6.39844C34.1302 6.57747 34.2507 6.71745 34.4004 6.81836C34.5501 6.91927 34.7373 6.96973 34.9619 6.96973C35.1833 6.96973 35.3721 6.91927 35.5283 6.81836C35.6878 6.71745 35.8164 6.5791 35.9141 6.40332C36.015 6.22428 36.0898 6.0127 36.1387 5.76855C36.1875 5.52441 36.2119 5.25749 36.2119 4.96777V3.92285ZM43.0605 5.34375H42.0205V8H40.6484V0.890625H43.0312C43.4251 0.890625 43.7816 0.937826 44.1006 1.03223C44.4196 1.12337 44.6914 1.25846 44.916 1.4375C45.1439 1.61654 45.318 1.83952 45.4385 2.10645C45.5622 2.37337 45.624 2.68262 45.624 3.03418C45.624 3.28809 45.5931 3.51758 45.5312 3.72266C45.4727 3.92448 45.3864 4.10677 45.2725 4.26953C45.1618 4.42904 45.0267 4.56901 44.8672 4.68945C44.7109 4.8099 44.5352 4.91406 44.3398 5.00195L45.8682 7.93652V8H44.3984L43.0605 5.34375ZM42.0205 4.23047H43.0361C43.4235 4.23047 43.7214 4.13281 43.9297 3.9375C44.1413 3.73893 44.2471 3.46875 44.2471 3.12695C44.2471 2.77214 44.1445 2.49707 43.9395 2.30176C43.7344 2.10319 43.4316 2.00391 43.0312 2.00391H42.0205V4.23047ZM53.8789 2.00879H51.6865V8H50.3096V2.00879H48.1465V0.890625H53.8789V2.00879Z"/>
</svg>
