<svg width="62" height="9" viewBox="0 0 62 9" xmlns="http://www.w3.org/2000/svg">
<path d="M5.55273 5.77344C5.52995 6.13151 5.45182 6.45378 5.31836 6.74023C5.18815 7.02669 5.01237 7.27083 4.79102 7.47266C4.56966 7.67448 4.30599 7.83073 4 7.94141C3.69401 8.04883 3.35547 8.10254 2.98438 8.10254C2.56445 8.10254 2.19173 8.02604 1.86621 7.87305C1.54069 7.7168 1.26725 7.50033 1.0459 7.22363C0.824544 6.94368 0.655273 6.6084 0.538086 6.21777C0.420898 5.82715 0.362305 5.39746 0.362305 4.92871V3.97168C0.362305 3.49967 0.424154 3.06836 0.547852 2.67773C0.671549 2.28711 0.847331 1.95182 1.0752 1.67188C1.30306 1.39193 1.57812 1.17546 1.90039 1.02246C2.22591 0.866211 2.59049 0.788086 2.99414 0.788086C3.38477 0.788086 3.73145 0.843424 4.03418 0.954102C4.34017 1.06478 4.60059 1.22266 4.81543 1.42773C5.03027 1.63281 5.19954 1.88346 5.32324 2.17969C5.44694 2.47591 5.52507 2.80957 5.55762 3.18066H4.19043C4.17741 2.96908 4.14486 2.78353 4.09277 2.62402C4.04395 2.46452 3.9707 2.33268 3.87305 2.22852C3.77865 2.12109 3.6582 2.04134 3.51172 1.98926C3.36849 1.93392 3.19596 1.90625 2.99414 1.90625C2.78255 1.90625 2.59863 1.95182 2.44238 2.04297C2.28613 2.13411 2.15592 2.26758 2.05176 2.44336C1.95085 2.61914 1.87598 2.83561 1.82715 3.09277C1.77832 3.34668 1.75391 3.63639 1.75391 3.96191V4.92871C1.75391 5.62858 1.85156 6.14616 2.04688 6.48145C2.24544 6.81673 2.55794 6.98438 2.98438 6.98438C3.34245 6.98438 3.62565 6.88997 3.83398 6.70117C4.04232 6.50911 4.15788 6.19987 4.18066 5.77344H5.55273ZM13.583 4.96777C13.583 5.4235 13.5228 5.84342 13.4023 6.22754C13.2819 6.61165 13.1077 6.94206 12.8799 7.21875C12.652 7.49544 12.3737 7.71191 12.0449 7.86816C11.7194 8.02116 11.3516 8.09766 10.9414 8.09766C10.5312 8.09766 10.1667 8.02116 9.84766 7.86816C9.52865 7.71191 9.26009 7.49544 9.04199 7.21875C8.82389 6.9388 8.65788 6.6084 8.54395 6.22754C8.43001 5.84342 8.37305 5.4235 8.37305 4.96777V3.93262C8.37305 3.47689 8.43001 3.05697 8.54395 2.67285C8.65788 2.28874 8.82389 1.95833 9.04199 1.68164C9.26009 1.40169 9.52702 1.18359 9.84277 1.02734C10.1618 0.871094 10.5264 0.792969 10.9365 0.792969C11.3499 0.792969 11.7194 0.871094 12.0449 1.02734C12.3737 1.18359 12.652 1.40169 12.8799 1.68164C13.1077 1.95833 13.2819 2.28874 13.4023 2.67285C13.5228 3.05697 13.583 3.47689 13.583 3.93262V4.96777ZM12.1914 3.92285C12.1914 3.63314 12.167 3.36621 12.1182 3.12207C12.0726 2.87793 11.9993 2.66797 11.8984 2.49219C11.7975 2.31641 11.6673 2.17969 11.5078 2.08203C11.3516 1.98112 11.1611 1.93066 10.9365 1.93066C10.7152 1.93066 10.5296 1.98112 10.3799 2.08203C10.2301 2.17969 10.1097 2.31641 10.0186 2.49219C9.92741 2.66797 9.8623 2.87793 9.82324 3.12207C9.78418 3.36621 9.76465 3.63314 9.76465 3.92285V4.96777C9.76465 5.25423 9.78418 5.51953 9.82324 5.76367C9.8623 6.00781 9.92741 6.2194 10.0186 6.39844C10.1097 6.57747 10.2301 6.71745 10.3799 6.81836C10.5296 6.91927 10.7168 6.96973 10.9414 6.96973C11.1628 6.96973 11.3516 6.91927 11.5078 6.81836C11.6673 6.71745 11.7959 6.5791 11.8936 6.40332C11.9945 6.22428 12.0693 6.0127 12.1182 5.76855C12.167 5.52441 12.1914 5.25749 12.1914 4.96777V3.92285ZM18.3125 0.890625L18.9863 3.56152L19.7529 0.890625H21.457V8H20.1973V5.89551L20.2559 2.57031L19.3232 5.65625H18.6445L17.8096 2.70215L17.8682 5.89551V8H16.6084V0.890625H18.3125ZM26.0938 5.39258V8H24.7217V0.890625H27.1533C27.5407 0.890625 27.8906 0.947591 28.2031 1.06152C28.5156 1.1722 28.7809 1.32845 28.999 1.53027C29.2204 1.72884 29.3896 1.9681 29.5068 2.24805C29.6273 2.52799 29.6875 2.83887 29.6875 3.18066C29.6875 3.49967 29.6273 3.79427 29.5068 4.06445C29.3896 4.33464 29.2204 4.56901 28.999 4.76758C28.7809 4.96289 28.5156 5.11589 28.2031 5.22656C27.8906 5.33724 27.5407 5.39258 27.1533 5.39258H26.0938ZM26.0938 4.2793H27.1533C27.3486 4.2793 27.5179 4.25 27.6611 4.19141C27.8044 4.13281 27.9232 4.05306 28.0176 3.95215C28.1152 3.85124 28.1868 3.73568 28.2324 3.60547C28.2812 3.47201 28.3057 3.33366 28.3057 3.19043C28.3057 3.02441 28.2812 2.86979 28.2324 2.72656C28.1868 2.58333 28.1152 2.45801 28.0176 2.35059C27.9232 2.24316 27.8044 2.15853 27.6611 2.09668C27.5179 2.03483 27.3486 2.00391 27.1533 2.00391H26.0938V4.2793ZM37.376 0.890625L37.3809 5.60254C37.3809 5.99967 37.3255 6.35286 37.2148 6.66211C37.1074 6.97135 36.9495 7.2334 36.7412 7.44824C36.5361 7.65983 36.2839 7.82096 35.9844 7.93164C35.6882 8.04232 35.3496 8.09766 34.9688 8.09766C34.6107 8.09766 34.2868 8.04232 33.9971 7.93164C33.7106 7.82096 33.4648 7.65983 33.2598 7.44824C33.0547 7.23665 32.8952 6.97624 32.7812 6.66699C32.6706 6.35449 32.6152 5.99967 32.6152 5.60254L32.6201 0.890625H33.9922L33.9971 5.60254C34.0003 6.06152 34.0833 6.4082 34.2461 6.64258C34.4121 6.87695 34.653 6.99414 34.9688 6.99414C35.304 6.99414 35.5596 6.87695 35.7354 6.64258C35.9144 6.4082 36.0055 6.06152 36.0088 5.60254L36.0137 0.890625H37.376ZM45.8701 2.00879H43.6777V8H42.3008V2.00879H40.1377V0.890625H45.8701V2.00879ZM53.0264 4.88477H50.1064V6.8916H53.5195V8H48.7295V0.890625H53.5049V2.00879H50.1064V3.80078H53.0264V4.88477ZM59.0693 5.34375H58.0293V8H56.6572V0.890625H59.04C59.4339 0.890625 59.7904 0.937826 60.1094 1.03223C60.4284 1.12337 60.7002 1.25846 60.9248 1.4375C61.1527 1.61654 61.3268 1.83952 61.4473 2.10645C61.571 2.37337 61.6328 2.68262 61.6328 3.03418C61.6328 3.28809 61.6019 3.51758 61.54 3.72266C61.4814 3.92448 61.3952 4.10677 61.2812 4.26953C61.1706 4.42904 61.0355 4.56901 60.876 4.68945C60.7197 4.8099 60.5439 4.91406 60.3486 5.00195L61.877 7.93652V8H60.4072L59.0693 5.34375ZM58.0293 4.23047H59.0449C59.4323 4.23047 59.7301 4.13281 59.9385 3.9375C60.1501 3.73893 60.2559 3.46875 60.2559 3.12695C60.2559 2.77214 60.1533 2.49707 59.9482 2.30176C59.7432 2.10319 59.4404 2.00391 59.04 2.00391H58.0293V4.23047Z"/>
</svg>
