<svg width="94" height="9" viewBox="0 0 94 9" xmlns="http://www.w3.org/2000/svg">
<path d="M5.54102 5.77344C5.51823 6.13151 5.4401 6.45378 5.30664 6.74023C5.17643 7.02669 5.00065 7.27083 4.7793 7.47266C4.55794 7.67448 4.29427 7.83073 3.98828 7.94141C3.68229 8.04883 3.34375 8.10254 2.97266 8.10254C2.55273 8.10254 2.18001 8.02604 1.85449 7.87305C1.52897 7.7168 1.25553 7.50033 1.03418 7.22363C0.812826 6.94368 0.643555 6.6084 0.526367 6.21777C0.40918 5.82715 0.350586 5.39746 0.350586 4.92871V3.97168C0.350586 3.49967 0.412435 3.06836 0.536133 2.67773C0.659831 2.28711 0.835612 1.95182 1.06348 1.67188C1.29134 1.39193 1.56641 1.17546 1.88867 1.02246C2.21419 0.866211 2.57878 0.788086 2.98242 0.788086C3.37305 0.788086 3.71973 0.843424 4.02246 0.954102C4.32845 1.06478 4.58887 1.22266 4.80371 1.42773C5.01855 1.63281 5.18783 1.88346 5.31152 2.17969C5.43522 2.47591 5.51335 2.80957 5.5459 3.18066H4.17871C4.16569 2.96908 4.13314 2.78353 4.08105 2.62402C4.03223 2.46452 3.95898 2.33268 3.86133 2.22852C3.76693 2.12109 3.64648 2.04134 3.5 1.98926C3.35677 1.93392 3.18424 1.90625 2.98242 1.90625C2.77083 1.90625 2.58691 1.95182 2.43066 2.04297C2.27441 2.13411 2.14421 2.26758 2.04004 2.44336C1.93913 2.61914 1.86426 2.83561 1.81543 3.09277C1.7666 3.34668 1.74219 3.63639 1.74219 3.96191V4.92871C1.74219 5.62858 1.83984 6.14616 2.03516 6.48145C2.23372 6.81673 2.54622 6.98438 2.97266 6.98438C3.33073 6.98438 3.61393 6.88997 3.82227 6.70117C4.0306 6.50911 4.14616 6.19987 4.16895 5.77344H5.54102ZM13.5713 4.96777C13.5713 5.4235 13.5111 5.84342 13.3906 6.22754C13.2702 6.61165 13.096 6.94206 12.8682 7.21875C12.6403 7.49544 12.362 7.71191 12.0332 7.86816C11.7077 8.02116 11.3398 8.09766 10.9297 8.09766C10.5195 8.09766 10.1549 8.02116 9.83594 7.86816C9.51693 7.71191 9.24837 7.49544 9.03027 7.21875C8.81217 6.9388 8.64616 6.6084 8.53223 6.22754C8.41829 5.84342 8.36133 5.4235 8.36133 4.96777V3.93262C8.36133 3.47689 8.41829 3.05697 8.53223 2.67285C8.64616 2.28874 8.81217 1.95833 9.03027 1.68164C9.24837 1.40169 9.5153 1.18359 9.83105 1.02734C10.1501 0.871094 10.5146 0.792969 10.9248 0.792969C11.3382 0.792969 11.7077 0.871094 12.0332 1.02734C12.362 1.18359 12.6403 1.40169 12.8682 1.68164C13.096 1.95833 13.2702 2.28874 13.3906 2.67285C13.5111 3.05697 13.5713 3.47689 13.5713 3.93262V4.96777ZM12.1797 3.92285C12.1797 3.63314 12.1553 3.36621 12.1064 3.12207C12.0609 2.87793 11.9876 2.66797 11.8867 2.49219C11.7858 2.31641 11.6556 2.17969 11.4961 2.08203C11.3398 1.98112 11.1494 1.93066 10.9248 1.93066C10.7035 1.93066 10.5179 1.98112 10.3682 2.08203C10.2184 2.17969 10.098 2.31641 10.0068 2.49219C9.91569 2.66797 9.85059 2.87793 9.81152 3.12207C9.77246 3.36621 9.75293 3.63314 9.75293 3.92285V4.96777C9.75293 5.25423 9.77246 5.51953 9.81152 5.76367C9.85059 6.00781 9.91569 6.2194 10.0068 6.39844C10.098 6.57747 10.2184 6.71745 10.3682 6.81836C10.5179 6.91927 10.7051 6.96973 10.9297 6.96973C11.151 6.96973 11.3398 6.91927 11.4961 6.81836C11.6556 6.71745 11.7842 6.5791 11.8818 6.40332C11.9827 6.22428 12.0576 6.0127 12.1064 5.76855C12.1553 5.52441 12.1797 5.25749 12.1797 4.96777V3.92285ZM21.3037 8H19.9365L17.959 3.41504V8H16.5771V0.890625H17.959L19.9219 5.45605L19.9268 0.890625H21.3037V8ZM29.8467 2.00879H27.6543V8H26.2773V2.00879H24.1143V0.890625H29.8467V2.00879ZM35.04 5.34375H34V8H32.6279V0.890625H35.0107C35.4046 0.890625 35.7611 0.937826 36.0801 1.03223C36.3991 1.12337 36.6709 1.25846 36.8955 1.4375C37.1234 1.61654 37.2975 1.83952 37.418 2.10645C37.5417 2.37337 37.6035 2.68262 37.6035 3.03418C37.6035 3.28809 37.5726 3.51758 37.5107 3.72266C37.4521 3.92448 37.3659 4.10677 37.252 4.26953C37.1413 4.42904 37.0062 4.56901 36.8467 4.68945C36.6904 4.8099 36.5146 4.91406 36.3193 5.00195L37.8477 7.93652V8H36.3779L35.04 5.34375ZM34 4.23047H35.0156C35.403 4.23047 35.7008 4.13281 35.9092 3.9375C36.1208 3.73893 36.2266 3.46875 36.2266 3.12695C36.2266 2.77214 36.124 2.49707 35.9189 2.30176C35.7139 2.10319 35.4111 2.00391 35.0107 2.00391H34V4.23047ZM45.5947 4.96777C45.5947 5.4235 45.5345 5.84342 45.4141 6.22754C45.2936 6.61165 45.1195 6.94206 44.8916 7.21875C44.6637 7.49544 44.3854 7.71191 44.0566 7.86816C43.7311 8.02116 43.3633 8.09766 42.9531 8.09766C42.543 8.09766 42.1784 8.02116 41.8594 7.86816C41.5404 7.71191 41.2718 7.49544 41.0537 7.21875C40.8356 6.9388 40.6696 6.6084 40.5557 6.22754C40.4417 5.84342 40.3848 5.4235 40.3848 4.96777V3.93262C40.3848 3.47689 40.4417 3.05697 40.5557 2.67285C40.6696 2.28874 40.8356 1.95833 41.0537 1.68164C41.2718 1.40169 41.5387 1.18359 41.8545 1.02734C42.1735 0.871094 42.5381 0.792969 42.9482 0.792969C43.3617 0.792969 43.7311 0.871094 44.0566 1.02734C44.3854 1.18359 44.6637 1.40169 44.8916 1.68164C45.1195 1.95833 45.2936 2.28874 45.4141 2.67285C45.5345 3.05697 45.5947 3.47689 45.5947 3.93262V4.96777ZM44.2031 3.92285C44.2031 3.63314 44.1787 3.36621 44.1299 3.12207C44.0843 2.87793 44.0111 2.66797 43.9102 2.49219C43.8092 2.31641 43.679 2.17969 43.5195 2.08203C43.3633 1.98112 43.1729 1.93066 42.9482 1.93066C42.7269 1.93066 42.5413 1.98112 42.3916 2.08203C42.2419 2.17969 42.1214 2.31641 42.0303 2.49219C41.9391 2.66797 41.874 2.87793 41.835 3.12207C41.7959 3.36621 41.7764 3.63314 41.7764 3.92285V4.96777C41.7764 5.25423 41.7959 5.51953 41.835 5.76367C41.874 6.00781 41.9391 6.2194 42.0303 6.39844C42.1214 6.57747 42.2419 6.71745 42.3916 6.81836C42.5413 6.91927 42.7285 6.96973 42.9531 6.96973C43.1745 6.96973 43.3633 6.91927 43.5195 6.81836C43.679 6.71745 43.8076 6.5791 43.9053 6.40332C44.0062 6.22428 44.0811 6.0127 44.1299 5.76855C44.1787 5.52441 44.2031 5.25749 44.2031 4.96777V3.92285ZM50.1094 6.8916H53.4395V8H48.7324V0.890625H50.1094V6.8916ZM61.4502 5.41211H57.3828V4.31348H61.4502V5.41211ZM69.876 2.00879H67.6836V8H66.3066V2.00879H64.1436V0.890625H69.876V2.00879ZM75.084 4.16699L76.4854 0.890625H77.9941L75.7578 5.53906L75.7529 8H74.3857L74.3809 5.48047L72.1787 0.890625H73.6826L75.084 4.16699ZM82.123 5.39258V8H80.751V0.890625H83.1826C83.57 0.890625 83.9199 0.947591 84.2324 1.06152C84.5449 1.1722 84.8102 1.32845 85.0283 1.53027C85.2497 1.72884 85.4189 1.9681 85.5361 2.24805C85.6566 2.52799 85.7168 2.83887 85.7168 3.18066C85.7168 3.49967 85.6566 3.79427 85.5361 4.06445C85.4189 4.33464 85.2497 4.56901 85.0283 4.76758C84.8102 4.96289 84.5449 5.11589 84.2324 5.22656C83.9199 5.33724 83.57 5.39258 83.1826 5.39258H82.123ZM82.123 4.2793H83.1826C83.3779 4.2793 83.5472 4.25 83.6904 4.19141C83.8337 4.13281 83.9525 4.05306 84.0469 3.95215C84.1445 3.85124 84.2161 3.73568 84.2617 3.60547C84.3105 3.47201 84.335 3.33366 84.335 3.19043C84.335 3.02441 84.3105 2.86979 84.2617 2.72656C84.2161 2.58333 84.1445 2.45801 84.0469 2.35059C83.9525 2.24316 83.8337 2.15853 83.6904 2.09668C83.5472 2.03483 83.3779 2.00391 83.1826 2.00391H82.123V4.2793ZM93.0439 4.88477H90.124V6.8916H93.5371V8H88.7471V0.890625H93.5225V2.00879H90.124V3.80078H93.0439V4.88477Z"/>
</svg>
