<svg width="46" height="8" viewBox="0 0 46 8" xmlns="http://www.w3.org/2000/svg">
<path d="M0.592773 8V0.890625H2.43359C2.9056 0.890625 3.33203 0.972005 3.71289 1.13477C4.09701 1.29427 4.42415 1.51888 4.69434 1.80859C4.96777 2.09505 5.17773 2.43848 5.32422 2.83887C5.47396 3.23926 5.54883 3.67871 5.54883 4.15723V4.74316C5.54883 5.22168 5.47396 5.66113 5.32422 6.06152C5.17773 6.45866 4.97103 6.80208 4.7041 7.0918C4.43717 7.37826 4.11654 7.60124 3.74219 7.76074C3.36784 7.92025 2.95443 8 2.50195 8H0.592773ZM1.97461 2.00391V6.89648H2.50195C2.75911 6.89648 2.98861 6.84766 3.19043 6.75C3.39551 6.65234 3.56803 6.51074 3.70801 6.3252C3.85124 6.13965 3.96029 5.91504 4.03516 5.65137C4.11003 5.38444 4.14746 5.08171 4.14746 4.74316V4.14746C4.14746 3.82845 4.11003 3.53874 4.03516 3.27832C3.96354 3.01465 3.85449 2.78841 3.70801 2.59961C3.56478 2.41081 3.38574 2.26432 3.1709 2.16016C2.95931 2.05599 2.71354 2.00391 2.43359 2.00391H1.97461ZM13.0029 4.88477H10.083V6.8916H13.4961V8H8.70605V0.890625H13.4814V2.00879H10.083V3.80078H13.0029V4.88477ZM20.1299 6.51562H17.9961L17.5762 8H16.1309L18.46 0.890625H19.7051L21.9902 8H20.5449L20.1299 6.51562ZM18.333 5.34863H19.8076L19.0801 2.73145L18.333 5.34863ZM26.1094 6.8916H29.4395V8H24.7324V0.890625H26.1094V6.8916ZM37.0205 4.88477H34.1006V6.8916H37.5137V8H32.7236V0.890625H37.499V2.00879H34.1006V3.80078H37.0205V4.88477ZM43.0635 5.34375H42.0234V8H40.6514V0.890625H43.0342C43.4281 0.890625 43.7845 0.937826 44.1035 1.03223C44.4225 1.12337 44.6943 1.25846 44.9189 1.4375C45.1468 1.61654 45.321 1.83952 45.4414 2.10645C45.5651 2.37337 45.627 2.68262 45.627 3.03418C45.627 3.28809 45.596 3.51758 45.5342 3.72266C45.4756 3.92448 45.3893 4.10677 45.2754 4.26953C45.1647 4.42904 45.0296 4.56901 44.8701 4.68945C44.7139 4.8099 44.5381 4.91406 44.3428 5.00195L45.8711 7.93652V8H44.4014L43.0635 5.34375ZM42.0234 4.23047H43.0391C43.4264 4.23047 43.7243 4.13281 43.9326 3.9375C44.1442 3.73893 44.25 3.46875 44.25 3.12695C44.25 2.77214 44.1475 2.49707 43.9424 2.30176C43.7373 2.10319 43.4346 2.00391 43.0342 2.00391H42.0234V4.23047Z"/>
</svg>
