<svg width="94" height="9" viewBox="0 0 94 9" xmlns="http://www.w3.org/2000/svg">
<path d="M0.575195 8V0.890625H2.41602C2.88802 0.890625 3.31445 0.972005 3.69531 1.13477C4.07943 1.29427 4.40658 1.51888 4.67676 1.80859C4.9502 2.09505 5.16016 2.43848 5.30664 2.83887C5.45638 3.23926 5.53125 3.67871 5.53125 4.15723V4.74316C5.53125 5.22168 5.45638 5.66113 5.30664 6.06152C5.16016 6.45866 4.95345 6.80208 4.68652 7.0918C4.4196 7.37826 4.09896 7.60124 3.72461 7.76074C3.35026 7.92025 2.93685 8 2.48438 8H0.575195ZM1.95703 2.00391V6.89648H2.48438C2.74154 6.89648 2.97103 6.84766 3.17285 6.75C3.37793 6.65234 3.55046 6.51074 3.69043 6.3252C3.83366 6.13965 3.94271 5.91504 4.01758 5.65137C4.09245 5.38444 4.12988 5.08171 4.12988 4.74316V4.14746C4.12988 3.82845 4.09245 3.53874 4.01758 3.27832C3.94596 3.01465 3.83691 2.78841 3.69043 2.59961C3.5472 2.41081 3.36816 2.26432 3.15332 2.16016C2.94173 2.05599 2.69596 2.00391 2.41602 2.00391H1.95703ZM8.91309 0.890625H13.0244V1.99902H11.6377V6.89648H13.0244V8H8.91309V6.89648H10.2656V1.99902H8.91309V0.890625ZM21.5039 7.16992C21.416 7.27734 21.2956 7.38639 21.1426 7.49707C20.9896 7.60775 20.8073 7.70866 20.5957 7.7998C20.3874 7.8877 20.153 7.95931 19.8926 8.01465C19.6322 8.06999 19.3522 8.09766 19.0527 8.09766C18.6491 8.09766 18.2845 8.02604 17.959 7.88281C17.6335 7.73958 17.3551 7.53288 17.124 7.2627C16.8929 6.99251 16.7139 6.66211 16.5869 6.27148C16.4632 5.8776 16.4014 5.43164 16.4014 4.93359V3.9668C16.4014 3.46875 16.4665 3.02441 16.5967 2.63379C16.7301 2.23991 16.9124 1.90625 17.1436 1.63281C17.3779 1.35938 17.6514 1.15104 17.9639 1.00781C18.2796 0.864583 18.6214 0.792969 18.9893 0.792969C19.3896 0.792969 19.738 0.843424 20.0342 0.944336C20.3337 1.04525 20.5859 1.19173 20.791 1.38379C20.9961 1.57259 21.1556 1.80371 21.2695 2.07715C21.3867 2.35059 21.4632 2.6582 21.499 3H20.1611C20.1156 2.63542 20.0049 2.36198 19.8291 2.17969C19.6566 1.99414 19.388 1.90137 19.0234 1.90137C18.8477 1.90137 18.6849 1.94694 18.5352 2.03809C18.3854 2.12598 18.2552 2.25618 18.1445 2.42871C18.0339 2.60124 17.946 2.81608 17.8809 3.07324C17.8158 3.32715 17.7832 3.62174 17.7832 3.95703V4.93359C17.7865 5.59766 17.8971 6.1071 18.1152 6.46191C18.3333 6.81348 18.667 6.99089 19.1162 6.99414C19.2236 6.99414 19.3294 6.986 19.4336 6.96973C19.5378 6.95345 19.6354 6.93066 19.7266 6.90137C19.8177 6.87207 19.8975 6.83952 19.9658 6.80371C20.0374 6.76465 20.0911 6.72396 20.127 6.68164L20.1318 5.39258H18.9551V4.36719H21.499L21.5039 7.16992ZM24.9248 0.890625H29.0361V1.99902H27.6494V6.89648H29.0361V8H24.9248V6.89648H26.2773V1.99902H24.9248V0.890625ZM37.8525 2.00879H35.6602V8H34.2832V2.00879H32.1201V0.890625H37.8525V2.00879ZM40.9365 0.890625H45.0479V1.99902H43.6611V6.89648H45.0479V8H40.9365V6.89648H42.2891V1.99902H40.9365V0.890625ZM50.1045 6.8916H53.6299V8H48.4346V7.16016L51.8818 2.00879H48.4443V0.890625H53.542L53.5469 1.70605L50.1045 6.8916ZM60.1416 6.51562H58.0078L57.5879 8H56.1426L58.4717 0.890625H59.7168L62.002 8H60.5566L60.1416 6.51562ZM58.3447 5.34863H59.8193L59.0918 2.73145L58.3447 5.34863ZM69.876 2.00879H67.6836V8H66.3066V2.00879H64.1436V0.890625H69.876V2.00879ZM72.96 0.890625H77.0713V1.99902H75.6846V6.89648H77.0713V8H72.96V6.89648H74.3125V1.99902H72.96V0.890625ZM85.624 4.96777C85.624 5.4235 85.5638 5.84342 85.4434 6.22754C85.3229 6.61165 85.1488 6.94206 84.9209 7.21875C84.693 7.49544 84.4147 7.71191 84.0859 7.86816C83.7604 8.02116 83.3926 8.09766 82.9824 8.09766C82.5723 8.09766 82.2077 8.02116 81.8887 7.86816C81.5697 7.71191 81.3011 7.49544 81.083 7.21875C80.8649 6.9388 80.6989 6.6084 80.585 6.22754C80.471 5.84342 80.4141 5.4235 80.4141 4.96777V3.93262C80.4141 3.47689 80.471 3.05697 80.585 2.67285C80.6989 2.28874 80.8649 1.95833 81.083 1.68164C81.3011 1.40169 81.568 1.18359 81.8838 1.02734C82.2028 0.871094 82.5674 0.792969 82.9775 0.792969C83.391 0.792969 83.7604 0.871094 84.0859 1.02734C84.4147 1.18359 84.693 1.40169 84.9209 1.68164C85.1488 1.95833 85.3229 2.28874 85.4434 2.67285C85.5638 3.05697 85.624 3.47689 85.624 3.93262V4.96777ZM84.2324 3.92285C84.2324 3.63314 84.208 3.36621 84.1592 3.12207C84.1136 2.87793 84.0404 2.66797 83.9395 2.49219C83.8385 2.31641 83.7083 2.17969 83.5488 2.08203C83.3926 1.98112 83.2021 1.93066 82.9775 1.93066C82.7562 1.93066 82.5706 1.98112 82.4209 2.08203C82.2712 2.17969 82.1507 2.31641 82.0596 2.49219C81.9684 2.66797 81.9033 2.87793 81.8643 3.12207C81.8252 3.36621 81.8057 3.63314 81.8057 3.92285V4.96777C81.8057 5.25423 81.8252 5.51953 81.8643 5.76367C81.9033 6.00781 81.9684 6.2194 82.0596 6.39844C82.1507 6.57747 82.2712 6.71745 82.4209 6.81836C82.5706 6.91927 82.7578 6.96973 82.9824 6.96973C83.2038 6.96973 83.3926 6.91927 83.5488 6.81836C83.7083 6.71745 83.8369 6.5791 83.9346 6.40332C84.0355 6.22428 84.1104 6.0127 84.1592 5.76855C84.208 5.52441 84.2324 5.25749 84.2324 4.96777V3.92285ZM93.3564 8H91.9893L90.0117 3.41504V8H88.6299V0.890625H90.0117L91.9746 5.45605L91.9795 0.890625H93.3564V8Z"/>
</svg>
