<svg width="46" height="9" viewBox="0 0 46 9" xmlns="http://www.w3.org/2000/svg">
<path d="M0.592773 8V0.890625H2.43359C2.9056 0.890625 3.33203 0.972005 3.71289 1.13477C4.09701 1.29427 4.42415 1.51888 4.69434 1.80859C4.96777 2.09505 5.17773 2.43848 5.32422 2.83887C5.47396 3.23926 5.54883 3.67871 5.54883 4.15723V4.74316C5.54883 5.22168 5.47396 5.66113 5.32422 6.06152C5.17773 6.45866 4.97103 6.80208 4.7041 7.0918C4.43717 7.37826 4.11654 7.60124 3.74219 7.76074C3.36784 7.92025 2.95443 8 2.50195 8H0.592773ZM1.97461 2.00391V6.89648H2.50195C2.75911 6.89648 2.98861 6.84766 3.19043 6.75C3.39551 6.65234 3.56803 6.51074 3.70801 6.3252C3.85124 6.13965 3.96029 5.91504 4.03516 5.65137C4.11003 5.38444 4.14746 5.08171 4.14746 4.74316V4.14746C4.14746 3.82845 4.11003 3.53874 4.03516 3.27832C3.96354 3.01465 3.85449 2.78841 3.70801 2.59961C3.56478 2.41081 3.38574 2.26432 3.1709 2.16016C2.95931 2.05599 2.71354 2.00391 2.43359 2.00391H1.97461ZM13.5889 4.96777C13.5889 5.4235 13.5286 5.84342 13.4082 6.22754C13.2878 6.61165 13.1136 6.94206 12.8857 7.21875C12.6579 7.49544 12.3796 7.71191 12.0508 7.86816C11.7253 8.02116 11.3574 8.09766 10.9473 8.09766C10.5371 8.09766 10.1725 8.02116 9.85352 7.86816C9.53451 7.71191 9.26595 7.49544 9.04785 7.21875C8.82975 6.9388 8.66374 6.6084 8.5498 6.22754C8.43587 5.84342 8.37891 5.4235 8.37891 4.96777V3.93262C8.37891 3.47689 8.43587 3.05697 8.5498 2.67285C8.66374 2.28874 8.82975 1.95833 9.04785 1.68164C9.26595 1.40169 9.53288 1.18359 9.84863 1.02734C10.1676 0.871094 10.5322 0.792969 10.9424 0.792969C11.3558 0.792969 11.7253 0.871094 12.0508 1.02734C12.3796 1.18359 12.6579 1.40169 12.8857 1.68164C13.1136 1.95833 13.2878 2.28874 13.4082 2.67285C13.5286 3.05697 13.5889 3.47689 13.5889 3.93262V4.96777ZM12.1973 3.92285C12.1973 3.63314 12.1729 3.36621 12.124 3.12207C12.0785 2.87793 12.0052 2.66797 11.9043 2.49219C11.8034 2.31641 11.6732 2.17969 11.5137 2.08203C11.3574 1.98112 11.167 1.93066 10.9424 1.93066C10.721 1.93066 10.5355 1.98112 10.3857 2.08203C10.236 2.17969 10.1156 2.31641 10.0244 2.49219C9.93327 2.66797 9.86816 2.87793 9.8291 3.12207C9.79004 3.36621 9.77051 3.63314 9.77051 3.92285V4.96777C9.77051 5.25423 9.79004 5.51953 9.8291 5.76367C9.86816 6.00781 9.93327 6.2194 10.0244 6.39844C10.1156 6.57747 10.236 6.71745 10.3857 6.81836C10.5355 6.91927 10.7227 6.96973 10.9473 6.96973C11.1686 6.96973 11.3574 6.91927 11.5137 6.81836C11.6732 6.71745 11.8018 6.5791 11.8994 6.40332C12.0003 6.22428 12.0752 6.0127 12.124 5.76855C12.1729 5.52441 12.1973 5.25749 12.1973 4.96777V3.92285ZM18.1035 6.8916H21.4336V8H16.7266V0.890625H18.1035V6.8916ZM26.1094 6.8916H29.4395V8H24.7324V0.890625H26.1094V6.8916ZM36.1416 6.51562H34.0078L33.5879 8H32.1426L34.4717 0.890625H35.7168L38.002 8H36.5566L36.1416 6.51562ZM34.3447 5.34863H35.8193L35.0918 2.73145L34.3447 5.34863ZM43.0635 5.34375H42.0234V8H40.6514V0.890625H43.0342C43.4281 0.890625 43.7845 0.937826 44.1035 1.03223C44.4225 1.12337 44.6943 1.25846 44.9189 1.4375C45.1468 1.61654 45.321 1.83952 45.4414 2.10645C45.5651 2.37337 45.627 2.68262 45.627 3.03418C45.627 3.28809 45.596 3.51758 45.5342 3.72266C45.4756 3.92448 45.3893 4.10677 45.2754 4.26953C45.1647 4.42904 45.0296 4.56901 44.8701 4.68945C44.7139 4.8099 44.5381 4.91406 44.3428 5.00195L45.8711 7.93652V8H44.4014L43.0635 5.34375ZM42.0234 4.23047H43.0391C43.4264 4.23047 43.7243 4.13281 43.9326 3.9375C44.1442 3.73893 44.25 3.46875 44.25 3.12695C44.25 2.77214 44.1475 2.49707 43.9424 2.30176C43.7373 2.10319 43.4346 2.00391 43.0342 2.00391H42.0234V4.23047Z"/>
</svg>
