<svg width="87" height="9" viewBox="0 0 87 9" xmlns="http://www.w3.org/2000/svg">
<path d="M4.98242 4.88477H2.0625V6.8916H5.47559V8H0.685547V0.890625H5.46094V2.00879H2.0625V3.80078H4.98242V4.88477ZM10.083 6.8916H13.4131V8H8.70605V0.890625H10.083V6.8916ZM20.9941 4.88477H18.0742V6.8916H21.4873V8H16.6973V0.890625H21.4727V2.00879H18.0742V3.80078H20.9941V4.88477ZM29.5615 5.77344C29.5387 6.13151 29.4606 6.45378 29.3271 6.74023C29.1969 7.02669 29.0212 7.27083 28.7998 7.47266C28.5785 7.67448 28.3148 7.83073 28.0088 7.94141C27.7028 8.04883 27.3643 8.10254 26.9932 8.10254C26.5732 8.10254 26.2005 8.02604 25.875 7.87305C25.5495 7.7168 25.276 7.50033 25.0547 7.22363C24.8333 6.94368 24.6641 6.6084 24.5469 6.21777C24.4297 5.82715 24.3711 5.39746 24.3711 4.92871V3.97168C24.3711 3.49967 24.4329 3.06836 24.5566 2.67773C24.6803 2.28711 24.8561 1.95182 25.084 1.67188C25.3118 1.39193 25.5869 1.17546 25.9092 1.02246C26.2347 0.866211 26.5993 0.788086 27.0029 0.788086C27.3936 0.788086 27.7402 0.843424 28.043 0.954102C28.349 1.06478 28.6094 1.22266 28.8242 1.42773C29.0391 1.63281 29.2083 1.88346 29.332 2.17969C29.4557 2.47591 29.5339 2.80957 29.5664 3.18066H28.1992C28.1862 2.96908 28.1536 2.78353 28.1016 2.62402C28.0527 2.46452 27.9795 2.33268 27.8818 2.22852C27.7874 2.12109 27.667 2.04134 27.5205 1.98926C27.3773 1.93392 27.2048 1.90625 27.0029 1.90625C26.7913 1.90625 26.6074 1.95182 26.4512 2.04297C26.2949 2.13411 26.1647 2.26758 26.0605 2.44336C25.9596 2.61914 25.8848 2.83561 25.8359 3.09277C25.7871 3.34668 25.7627 3.63639 25.7627 3.96191V4.92871C25.7627 5.62858 25.8604 6.14616 26.0557 6.48145C26.2542 6.81673 26.5667 6.98438 26.9932 6.98438C27.3512 6.98438 27.6344 6.88997 27.8428 6.70117C28.0511 6.50911 28.1667 6.19987 28.1895 5.77344H29.5615ZM37.8555 2.00879H35.6631V8H34.2861V2.00879H32.123V0.890625H37.8555V2.00879ZM43.0488 5.34375H42.0088V8H40.6367V0.890625H43.0195C43.4134 0.890625 43.7699 0.937826 44.0889 1.03223C44.4079 1.12337 44.6797 1.25846 44.9043 1.4375C45.1322 1.61654 45.3063 1.83952 45.4268 2.10645C45.5505 2.37337 45.6123 2.68262 45.6123 3.03418C45.6123 3.28809 45.5814 3.51758 45.5195 3.72266C45.4609 3.92448 45.3747 4.10677 45.2607 4.26953C45.1501 4.42904 45.015 4.56901 44.8555 4.68945C44.6992 4.8099 44.5234 4.91406 44.3281 5.00195L45.8564 7.93652V8H44.3867L43.0488 5.34375ZM42.0088 4.23047H43.0244C43.4118 4.23047 43.7096 4.13281 43.918 3.9375C44.1296 3.73893 44.2354 3.46875 44.2354 3.12695C44.2354 2.77214 44.1328 2.49707 43.9277 2.30176C43.7227 2.10319 43.4199 2.00391 43.0195 2.00391H42.0088V4.23047ZM48.9453 0.890625H53.0566V1.99902H51.6699V6.89648H53.0566V8H48.9453V6.89648H50.2979V1.99902H48.9453V0.890625ZM61.585 5.77344C61.5622 6.13151 61.484 6.45378 61.3506 6.74023C61.2204 7.02669 61.0446 7.27083 60.8232 7.47266C60.6019 7.67448 60.3382 7.83073 60.0322 7.94141C59.7262 8.04883 59.3877 8.10254 59.0166 8.10254C58.5967 8.10254 58.224 8.02604 57.8984 7.87305C57.5729 7.7168 57.2995 7.50033 57.0781 7.22363C56.8568 6.94368 56.6875 6.6084 56.5703 6.21777C56.4531 5.82715 56.3945 5.39746 56.3945 4.92871V3.97168C56.3945 3.49967 56.4564 3.06836 56.5801 2.67773C56.7038 2.28711 56.8796 1.95182 57.1074 1.67188C57.3353 1.39193 57.6104 1.17546 57.9326 1.02246C58.2581 0.866211 58.6227 0.788086 59.0264 0.788086C59.417 0.788086 59.7637 0.843424 60.0664 0.954102C60.3724 1.06478 60.6328 1.22266 60.8477 1.42773C61.0625 1.63281 61.2318 1.88346 61.3555 2.17969C61.4792 2.47591 61.5573 2.80957 61.5898 3.18066H60.2227C60.2096 2.96908 60.1771 2.78353 60.125 2.62402C60.0762 2.46452 60.0029 2.33268 59.9053 2.22852C59.8109 2.12109 59.6904 2.04134 59.5439 1.98926C59.4007 1.93392 59.2282 1.90625 59.0264 1.90625C58.8148 1.90625 58.6309 1.95182 58.4746 2.04297C58.3184 2.13411 58.1882 2.26758 58.084 2.44336C57.9831 2.61914 57.9082 2.83561 57.8594 3.09277C57.8105 3.34668 57.7861 3.63639 57.7861 3.96191V4.92871C57.7861 5.62858 57.8838 6.14616 58.0791 6.48145C58.2777 6.81673 58.5902 6.98438 59.0166 6.98438C59.3747 6.98438 59.6579 6.88997 59.8662 6.70117C60.0745 6.50911 60.1901 6.19987 60.2129 5.77344H61.585ZM64.957 0.890625H69.0684V1.99902H67.6816V6.89648H69.0684V8H64.957V6.89648H66.3096V1.99902H64.957V0.890625ZM77.8848 2.00879H75.6924V8H74.3154V2.00879H72.1523V0.890625H77.8848V2.00879ZM83.0928 4.16699L84.4941 0.890625H86.0029L83.7666 5.53906L83.7617 8H82.3945L82.3896 5.48047L80.1875 0.890625H81.6914L83.0928 4.16699Z"/>
</svg>
