<svg width="32" height="32" viewBox="0 0 32 32" xmlns="http://www.w3.org/2000/svg">
<g>
<path fill-rule="evenodd" clip-rule="evenodd" d="M20.0071 25.5H22.0071V14.5H18.0071V16.5H20.0071V25.5Z"/>
<path fill-rule="evenodd" clip-rule="evenodd" d="M12.439 23.061C12.156 22.777 12 22.423 12 22H10C10 22.935 10.364 23.814 11.025 24.475C11.686 25.136 12.565 25.5 13.5 25.5C14.435 25.5 15.313 25.136 15.976 24.475C16.637 23.814 17 22.935 16.997 22.078C16.997 21.063 16.523 20.547 16.007 19.998C16.523 19.484 17 19 17 17.947C16.987 17.032 16.624 16.174 15.976 15.525C14.653 14.202 12.346 14.203 11.027 15.525C10.364 16.186 10 17.064 10 18H12C12 17.599 12.156 17.223 12.44 16.939C13.005 16.373 13.994 16.373 14.561 16.939C14.844 17.223 15 17.578 15 18C15 18.375 14.851 19 14.011 19H13.007V21H14.007C14.866 21 15.005 21.781 15 22C15 22.401 14.844 22.778 14.562 23.061C13.994 23.627 13.006 23.627 12.439 23.061Z"/>
<path fill-rule="evenodd" clip-rule="evenodd" d="M26 5H23V3H21V5H17V3H15V5H11V3H9V5H6C4.346 5 3 6.346 3 8V29H29V8C29 6.346 27.654 5 26 5ZM27 27H5V13H27V27ZM5 11H27V8C27 7.448 26.552 7 26 7H23V9H21V7H17V9H15V7H11V9H9V7H6C5.448 7 5 7.448 5 8V11Z"/>
</g>
</svg>
