<svg width="62" height="9" viewBox="0 0 62 9" xmlns="http://www.w3.org/2000/svg">
<path d="M4.99121 4.88477H2.07129V6.8916H5.48438V8H0.694336V0.890625H5.46973V2.00879H2.07129V3.80078H4.99121V4.88477ZM13.3096 8H11.9424L9.96484 3.41504V8H8.58301V0.890625H9.96484L11.9277 5.45605L11.9326 0.890625H13.3096V8ZM16.5986 8V0.890625H18.4395C18.9115 0.890625 19.3379 0.972005 19.7188 1.13477C20.1029 1.29427 20.43 1.51888 20.7002 1.80859C20.9736 2.09505 21.1836 2.43848 21.3301 2.83887C21.4798 3.23926 21.5547 3.67871 21.5547 4.15723V4.74316C21.5547 5.22168 21.4798 5.66113 21.3301 6.06152C21.1836 6.45866 20.9769 6.80208 20.71 7.0918C20.443 7.37826 20.1224 7.60124 19.748 7.76074C19.3737 7.92025 18.9603 8 18.5078 8H16.5986ZM17.9805 2.00391V6.89648H18.5078C18.765 6.89648 18.9945 6.84766 19.1963 6.75C19.4014 6.65234 19.5739 6.51074 19.7139 6.3252C19.8571 6.13965 19.9661 5.91504 20.041 5.65137C20.1159 5.38444 20.1533 5.08171 20.1533 4.74316V4.14746C20.1533 3.82845 20.1159 3.53874 20.041 3.27832C19.9694 3.01465 19.8604 2.78841 19.7139 2.59961C19.5706 2.41081 19.3916 2.26432 19.1768 2.16016C18.9652 2.05599 18.7194 2.00391 18.4395 2.00391H17.9805ZM26.0938 5.39258V8H24.7217V0.890625H27.1533C27.5407 0.890625 27.8906 0.947591 28.2031 1.06152C28.5156 1.1722 28.7809 1.32845 28.999 1.53027C29.2204 1.72884 29.3896 1.9681 29.5068 2.24805C29.6273 2.52799 29.6875 2.83887 29.6875 3.18066C29.6875 3.49967 29.6273 3.79427 29.5068 4.06445C29.3896 4.33464 29.2204 4.56901 28.999 4.76758C28.7809 4.96289 28.5156 5.11589 28.2031 5.22656C27.8906 5.33724 27.5407 5.39258 27.1533 5.39258H26.0938ZM26.0938 4.2793H27.1533C27.3486 4.2793 27.5179 4.25 27.6611 4.19141C27.8044 4.13281 27.9232 4.05306 28.0176 3.95215C28.1152 3.85124 28.1868 3.73568 28.2324 3.60547C28.2812 3.47201 28.3057 3.33366 28.3057 3.19043C28.3057 3.02441 28.2812 2.86979 28.2324 2.72656C28.1868 2.58333 28.1152 2.45801 28.0176 2.35059C27.9232 2.24316 27.8044 2.15853 27.6611 2.09668C27.5179 2.03483 27.3486 2.00391 27.1533 2.00391H26.0938V4.2793ZM37.6006 4.96777C37.6006 5.4235 37.5404 5.84342 37.4199 6.22754C37.2995 6.61165 37.1253 6.94206 36.8975 7.21875C36.6696 7.49544 36.3913 7.71191 36.0625 7.86816C35.737 8.02116 35.3691 8.09766 34.959 8.09766C34.5488 8.09766 34.1842 8.02116 33.8652 7.86816C33.5462 7.71191 33.2777 7.49544 33.0596 7.21875C32.8415 6.9388 32.6755 6.6084 32.5615 6.22754C32.4476 5.84342 32.3906 5.4235 32.3906 4.96777V3.93262C32.3906 3.47689 32.4476 3.05697 32.5615 2.67285C32.6755 2.28874 32.8415 1.95833 33.0596 1.68164C33.2777 1.40169 33.5446 1.18359 33.8604 1.02734C34.1794 0.871094 34.5439 0.792969 34.9541 0.792969C35.3675 0.792969 35.737 0.871094 36.0625 1.02734C36.3913 1.18359 36.6696 1.40169 36.8975 1.68164C37.1253 1.95833 37.2995 2.28874 37.4199 2.67285C37.5404 3.05697 37.6006 3.47689 37.6006 3.93262V4.96777ZM36.209 3.92285C36.209 3.63314 36.1846 3.36621 36.1357 3.12207C36.0902 2.87793 36.0169 2.66797 35.916 2.49219C35.8151 2.31641 35.6849 2.17969 35.5254 2.08203C35.3691 1.98112 35.1787 1.93066 34.9541 1.93066C34.7327 1.93066 34.5472 1.98112 34.3975 2.08203C34.2477 2.17969 34.1273 2.31641 34.0361 2.49219C33.945 2.66797 33.8799 2.87793 33.8408 3.12207C33.8018 3.36621 33.7822 3.63314 33.7822 3.92285V4.96777C33.7822 5.25423 33.8018 5.51953 33.8408 5.76367C33.8799 6.00781 33.945 6.2194 34.0361 6.39844C34.1273 6.57747 34.2477 6.71745 34.3975 6.81836C34.5472 6.91927 34.7344 6.96973 34.959 6.96973C35.1803 6.96973 35.3691 6.91927 35.5254 6.81836C35.6849 6.71745 35.8135 6.5791 35.9111 6.40332C36.012 6.22428 36.0869 6.0127 36.1357 5.76855C36.1846 5.52441 36.209 5.25749 36.209 4.96777V3.92285ZM40.9482 0.890625H45.0596V1.99902H43.6729V6.89648H45.0596V8H40.9482V6.89648H42.3008V1.99902H40.9482V0.890625ZM53.3389 8H51.9717L49.9941 3.41504V8H48.6123V0.890625H49.9941L51.957 5.45605L51.9619 0.890625H53.3389V8ZM61.8818 2.00879H59.6895V8H58.3125V2.00879H56.1494V0.890625H61.8818V2.00879Z"/>
</svg>
