<svg width="110" height="9" viewBox="0 0 110 9" xmlns="http://www.w3.org/2000/svg">
<path d="M4.97363 4.88477H2.05371V6.8916H5.4668V8H0.676758V0.890625H5.45215V2.00879H2.05371V3.80078H4.97363V4.88477ZM13.292 8H11.9248L9.94727 3.41504V8H8.56543V0.890625H9.94727L11.9102 5.45605L11.915 0.890625H13.292V8ZM20.9854 4.88477H18.0654V6.8916H21.4785V8H16.6885V0.890625H21.4639V2.00879H18.0654V3.80078H20.9854V4.88477ZM27.0283 5.34375H25.9883V8H24.6162V0.890625H26.999C27.3929 0.890625 27.7493 0.937826 28.0684 1.03223C28.3874 1.12337 28.6592 1.25846 28.8838 1.4375C29.1117 1.61654 29.2858 1.83952 29.4062 2.10645C29.5299 2.37337 29.5918 2.68262 29.5918 3.03418C29.5918 3.28809 29.5609 3.51758 29.499 3.72266C29.4404 3.92448 29.3542 4.10677 29.2402 4.26953C29.1296 4.42904 28.9945 4.56901 28.835 4.68945C28.6787 4.8099 28.5029 4.91406 28.3076 5.00195L29.8359 7.93652V8H28.3662L27.0283 5.34375ZM25.9883 4.23047H27.0039C27.3913 4.23047 27.6891 4.13281 27.8975 3.9375C28.109 3.73893 28.2148 3.46875 28.2148 3.12695C28.2148 2.77214 28.1123 2.49707 27.9072 2.30176C27.7021 2.10319 27.3994 2.00391 26.999 2.00391H25.9883V4.23047ZM37.5098 7.16992C37.4219 7.27734 37.3014 7.38639 37.1484 7.49707C36.9954 7.60775 36.8132 7.70866 36.6016 7.7998C36.3932 7.8877 36.1589 7.95931 35.8984 8.01465C35.638 8.06999 35.3581 8.09766 35.0586 8.09766C34.6549 8.09766 34.2904 8.02604 33.9648 7.88281C33.6393 7.73958 33.361 7.53288 33.1299 7.2627C32.8988 6.99251 32.7197 6.66211 32.5928 6.27148C32.4691 5.8776 32.4072 5.43164 32.4072 4.93359V3.9668C32.4072 3.46875 32.4723 3.02441 32.6025 2.63379C32.736 2.23991 32.9183 1.90625 33.1494 1.63281C33.3838 1.35938 33.6572 1.15104 33.9697 1.00781C34.2855 0.864583 34.6273 0.792969 34.9951 0.792969C35.3955 0.792969 35.7438 0.843424 36.04 0.944336C36.3395 1.04525 36.5918 1.19173 36.7969 1.38379C37.002 1.57259 37.1615 1.80371 37.2754 2.07715C37.3926 2.35059 37.4691 2.6582 37.5049 3H36.167C36.1214 2.63542 36.0107 2.36198 35.835 2.17969C35.6624 1.99414 35.3939 1.90137 35.0293 1.90137C34.8535 1.90137 34.6908 1.94694 34.541 2.03809C34.3913 2.12598 34.2611 2.25618 34.1504 2.42871C34.0397 2.60124 33.9518 2.81608 33.8867 3.07324C33.8216 3.32715 33.7891 3.62174 33.7891 3.95703V4.93359C33.7923 5.59766 33.903 6.1071 34.1211 6.46191C34.3392 6.81348 34.6729 6.99089 35.1221 6.99414C35.2295 6.99414 35.3353 6.986 35.4395 6.96973C35.5436 6.95345 35.6413 6.93066 35.7324 6.90137C35.8236 6.87207 35.9033 6.83952 35.9717 6.80371C36.0433 6.76465 36.097 6.72396 36.1328 6.68164L36.1377 5.39258H34.9609V4.36719H37.5049L37.5098 7.16992ZM43.0547 4.16699L44.4561 0.890625H45.9648L43.7285 5.53906L43.7236 8H42.3564L42.3516 5.48047L40.1494 0.890625H41.6533L43.0547 4.16699ZM53.4385 5.41211H49.3711V4.31348H53.4385V5.41211ZM60.3311 6.14453C60.3311 6.01758 60.3083 5.89876 60.2627 5.78809C60.2204 5.67741 60.1455 5.57487 60.0381 5.48047C59.9339 5.38281 59.7956 5.29492 59.623 5.2168C59.4538 5.13542 59.2422 5.06055 58.9883 4.99219C58.679 4.90755 58.3828 4.80176 58.0996 4.6748C57.8197 4.54785 57.5723 4.39486 57.3574 4.21582C57.1426 4.03678 56.9701 3.82845 56.8398 3.59082C56.7129 3.35319 56.6494 3.07975 56.6494 2.77051C56.6494 2.47103 56.7129 2.19922 56.8398 1.95508C56.9668 1.71094 57.1426 1.5026 57.3672 1.33008C57.5918 1.15755 57.8571 1.02572 58.1631 0.93457C58.4691 0.840169 58.8011 0.792969 59.1592 0.792969C59.5303 0.792969 59.8688 0.84668 60.1748 0.954102C60.484 1.06152 60.7493 1.21289 60.9707 1.4082C61.1921 1.60026 61.3646 1.82975 61.4883 2.09668C61.612 2.36361 61.6738 2.65658 61.6738 2.97559H60.3359C60.3294 2.81608 60.3001 2.6696 60.248 2.53613C60.1992 2.40267 60.1243 2.28874 60.0234 2.19434C59.9258 2.09668 59.8021 2.02181 59.6523 1.96973C59.5059 1.91439 59.3333 1.88672 59.1348 1.88672C58.9525 1.88672 58.7897 1.90951 58.6465 1.95508C58.5065 1.9974 58.3877 2.05924 58.29 2.14062C58.1924 2.21875 58.1175 2.31315 58.0654 2.42383C58.0166 2.53125 57.9922 2.64844 57.9922 2.77539C57.9922 2.90885 58.0247 3.0293 58.0898 3.13672C58.1582 3.24414 58.2559 3.3418 58.3828 3.42969C58.5098 3.51432 58.6628 3.59245 58.8418 3.66406C59.0241 3.73568 59.2292 3.80241 59.457 3.86426C59.7826 3.95866 60.082 4.07422 60.3555 4.21094C60.6289 4.34766 60.8633 4.51042 61.0586 4.69922C61.2572 4.88477 61.4102 5.09798 61.5176 5.33887C61.6283 5.5765 61.6836 5.8418 61.6836 6.13477C61.6836 6.44727 61.6201 6.72559 61.4932 6.96973C61.3695 7.21061 61.1969 7.41569 60.9756 7.58496C60.7542 7.75098 60.4906 7.87793 60.1846 7.96582C59.8786 8.05046 59.5449 8.09277 59.1836 8.09277C58.959 8.09277 58.7344 8.07161 58.5098 8.0293C58.2884 7.99023 58.0752 7.92839 57.8701 7.84375C57.6683 7.75911 57.4795 7.65332 57.3037 7.52637C57.1279 7.39941 56.9749 7.2513 56.8447 7.08203C56.7178 6.91276 56.6169 6.7207 56.542 6.50586C56.4704 6.29102 56.4346 6.05339 56.4346 5.79297H57.7822C57.7887 6.00781 57.8262 6.19173 57.8945 6.34473C57.9629 6.49772 58.0573 6.62305 58.1777 6.7207C58.3014 6.81836 58.4479 6.88997 58.6172 6.93555C58.7897 6.98112 58.9785 7.00391 59.1836 7.00391C59.3659 7.00391 59.527 6.98275 59.667 6.94043C59.8102 6.89811 59.9307 6.83952 60.0283 6.76465C60.126 6.68978 60.2008 6.60026 60.2529 6.49609C60.305 6.38867 60.3311 6.27148 60.3311 6.14453ZM67.0723 4.16699L68.4736 0.890625H69.9824L67.7461 5.53906L67.7412 8H66.374L66.3691 5.48047L64.167 0.890625H65.6709L67.0723 4.16699ZM76.3428 6.14453C76.3428 6.01758 76.32 5.89876 76.2744 5.78809C76.2321 5.67741 76.1572 5.57487 76.0498 5.48047C75.9456 5.38281 75.8073 5.29492 75.6348 5.2168C75.4655 5.13542 75.2539 5.06055 75 4.99219C74.6908 4.90755 74.3945 4.80176 74.1113 4.6748C73.8314 4.54785 73.584 4.39486 73.3691 4.21582C73.1543 4.03678 72.9818 3.82845 72.8516 3.59082C72.7246 3.35319 72.6611 3.07975 72.6611 2.77051C72.6611 2.47103 72.7246 2.19922 72.8516 1.95508C72.9785 1.71094 73.1543 1.5026 73.3789 1.33008C73.6035 1.15755 73.8688 1.02572 74.1748 0.93457C74.4808 0.840169 74.8128 0.792969 75.1709 0.792969C75.542 0.792969 75.8805 0.84668 76.1865 0.954102C76.4958 1.06152 76.7611 1.21289 76.9824 1.4082C77.2038 1.60026 77.3763 1.82975 77.5 2.09668C77.6237 2.36361 77.6855 2.65658 77.6855 2.97559H76.3477C76.3411 2.81608 76.3118 2.6696 76.2598 2.53613C76.2109 2.40267 76.1361 2.28874 76.0352 2.19434C75.9375 2.09668 75.8138 2.02181 75.6641 1.96973C75.5176 1.91439 75.3451 1.88672 75.1465 1.88672C74.9642 1.88672 74.8014 1.90951 74.6582 1.95508C74.5182 1.9974 74.3994 2.05924 74.3018 2.14062C74.2041 2.21875 74.1292 2.31315 74.0771 2.42383C74.0283 2.53125 74.0039 2.64844 74.0039 2.77539C74.0039 2.90885 74.0365 3.0293 74.1016 3.13672C74.1699 3.24414 74.2676 3.3418 74.3945 3.42969C74.5215 3.51432 74.6745 3.59245 74.8535 3.66406C75.0358 3.73568 75.2409 3.80241 75.4688 3.86426C75.7943 3.95866 76.0938 4.07422 76.3672 4.21094C76.6406 4.34766 76.875 4.51042 77.0703 4.69922C77.2689 4.88477 77.4219 5.09798 77.5293 5.33887C77.64 5.5765 77.6953 5.8418 77.6953 6.13477C77.6953 6.44727 77.6318 6.72559 77.5049 6.96973C77.3812 7.21061 77.2087 7.41569 76.9873 7.58496C76.766 7.75098 76.5023 7.87793 76.1963 7.96582C75.8903 8.05046 75.5566 8.09277 75.1953 8.09277C74.9707 8.09277 74.7461 8.07161 74.5215 8.0293C74.3001 7.99023 74.0869 7.92839 73.8818 7.84375C73.68 7.75911 73.4912 7.65332 73.3154 7.52637C73.1396 7.39941 72.9867 7.2513 72.8564 7.08203C72.7295 6.91276 72.6286 6.7207 72.5537 6.50586C72.4821 6.29102 72.4463 6.05339 72.4463 5.79297H73.7939C73.8005 6.00781 73.8379 6.19173 73.9062 6.34473C73.9746 6.49772 74.069 6.62305 74.1895 6.7207C74.3132 6.81836 74.4596 6.88997 74.6289 6.93555C74.8014 6.98112 74.9902 7.00391 75.1953 7.00391C75.3776 7.00391 75.5387 6.98275 75.6787 6.94043C75.8219 6.89811 75.9424 6.83952 76.04 6.76465C76.1377 6.68978 76.2126 6.60026 76.2646 6.49609C76.3167 6.38867 76.3428 6.27148 76.3428 6.14453ZM85.8818 2.00879H83.6895V8H82.3125V2.00879H80.1494V0.890625H85.8818V2.00879ZM93.0381 4.88477H90.1182V6.8916H93.5312V8H88.7412V0.890625H93.5166V2.00879H90.1182V3.80078H93.0381V4.88477ZM98.3535 0.890625L99.0273 3.56152L99.7939 0.890625H101.498V8H100.238V5.89551L100.297 2.57031L99.3643 5.65625H98.6855L97.8506 2.70215L97.9092 5.89551V8H96.6494V0.890625H98.3535ZM108.366 6.14453C108.366 6.01758 108.343 5.89876 108.298 5.78809C108.256 5.67741 108.181 5.57487 108.073 5.48047C107.969 5.38281 107.831 5.29492 107.658 5.2168C107.489 5.13542 107.277 5.06055 107.023 4.99219C106.714 4.90755 106.418 4.80176 106.135 4.6748C105.855 4.54785 105.607 4.39486 105.393 4.21582C105.178 4.03678 105.005 3.82845 104.875 3.59082C104.748 3.35319 104.685 3.07975 104.685 2.77051C104.685 2.47103 104.748 2.19922 104.875 1.95508C105.002 1.71094 105.178 1.5026 105.402 1.33008C105.627 1.15755 105.892 1.02572 106.198 0.93457C106.504 0.840169 106.836 0.792969 107.194 0.792969C107.565 0.792969 107.904 0.84668 108.21 0.954102C108.519 1.06152 108.785 1.21289 109.006 1.4082C109.227 1.60026 109.4 1.82975 109.523 2.09668C109.647 2.36361 109.709 2.65658 109.709 2.97559H108.371C108.365 2.81608 108.335 2.6696 108.283 2.53613C108.234 2.40267 108.16 2.28874 108.059 2.19434C107.961 2.09668 107.837 2.02181 107.688 1.96973C107.541 1.91439 107.368 1.88672 107.17 1.88672C106.988 1.88672 106.825 1.90951 106.682 1.95508C106.542 1.9974 106.423 2.05924 106.325 2.14062C106.228 2.21875 106.153 2.31315 106.101 2.42383C106.052 2.53125 106.027 2.64844 106.027 2.77539C106.027 2.90885 106.06 3.0293 106.125 3.13672C106.193 3.24414 106.291 3.3418 106.418 3.42969C106.545 3.51432 106.698 3.59245 106.877 3.66406C107.059 3.73568 107.264 3.80241 107.492 3.86426C107.818 3.95866 108.117 4.07422 108.391 4.21094C108.664 4.34766 108.898 4.51042 109.094 4.69922C109.292 4.88477 109.445 5.09798 109.553 5.33887C109.663 5.5765 109.719 5.8418 109.719 6.13477C109.719 6.44727 109.655 6.72559 109.528 6.96973C109.405 7.21061 109.232 7.41569 109.011 7.58496C108.789 7.75098 108.526 7.87793 108.22 7.96582C107.914 8.05046 107.58 8.09277 107.219 8.09277C106.994 8.09277 106.77 8.07161 106.545 8.0293C106.324 7.99023 106.11 7.92839 105.905 7.84375C105.703 7.75911 105.515 7.65332 105.339 7.52637C105.163 7.39941 105.01 7.2513 104.88 7.08203C104.753 6.91276 104.652 6.7207 104.577 6.50586C104.506 6.29102 104.47 6.05339 104.47 5.79297H105.817C105.824 6.00781 105.861 6.19173 105.93 6.34473C105.998 6.49772 106.092 6.62305 106.213 6.7207C106.337 6.81836 106.483 6.88997 106.652 6.93555C106.825 6.98112 107.014 7.00391 107.219 7.00391C107.401 7.00391 107.562 6.98275 107.702 6.94043C107.845 6.89811 107.966 6.83952 108.063 6.76465C108.161 6.68978 108.236 6.60026 108.288 6.49609C108.34 6.38867 108.366 6.27148 108.366 6.14453Z"/>
</svg>
