<svg width="86" height="9" viewBox="0 0 86 9" xmlns="http://www.w3.org/2000/svg">
<path d="M4.98242 4.88477H2.0625V6.8916H5.47559V8H0.685547V0.890625H5.46094V2.00879H2.0625V3.80078H4.98242V4.88477ZM13.3008 8H11.9336L9.95605 3.41504V8H8.57422V0.890625H9.95605L11.9189 5.45605L11.9238 0.890625H13.3008V8ZM18.9727 6.0127L20.3154 0.890625H21.8291L19.6758 8H18.2793L16.1309 0.890625H17.6445L18.9727 6.0127ZM24.9277 0.890625H29.0391V1.99902H27.6523V6.89648H29.0391V8H24.9277V6.89648H26.2803V1.99902H24.9277V0.890625ZM35.043 5.34375H34.0029V8H32.6309V0.890625H35.0137C35.4076 0.890625 35.764 0.937826 36.083 1.03223C36.402 1.12337 36.6738 1.25846 36.8984 1.4375C37.1263 1.61654 37.3005 1.83952 37.4209 2.10645C37.5446 2.37337 37.6064 2.68262 37.6064 3.03418C37.6064 3.28809 37.5755 3.51758 37.5137 3.72266C37.4551 3.92448 37.3688 4.10677 37.2549 4.26953C37.1442 4.42904 37.0091 4.56901 36.8496 4.68945C36.6934 4.8099 36.5176 4.91406 36.3223 5.00195L37.8506 7.93652V8H36.3809L35.043 5.34375ZM34.0029 4.23047H35.0186C35.4059 4.23047 35.7038 4.13281 35.9121 3.9375C36.1237 3.73893 36.2295 3.46875 36.2295 3.12695C36.2295 2.77214 36.127 2.49707 35.9219 2.30176C35.7168 2.10319 35.4141 2.00391 35.0137 2.00391H34.0029V4.23047ZM45.5977 4.96777C45.5977 5.4235 45.5374 5.84342 45.417 6.22754C45.2965 6.61165 45.1224 6.94206 44.8945 7.21875C44.6667 7.49544 44.3883 7.71191 44.0596 7.86816C43.734 8.02116 43.3662 8.09766 42.9561 8.09766C42.5459 8.09766 42.1813 8.02116 41.8623 7.86816C41.5433 7.71191 41.2747 7.49544 41.0566 7.21875C40.8385 6.9388 40.6725 6.6084 40.5586 6.22754C40.4447 5.84342 40.3877 5.4235 40.3877 4.96777V3.93262C40.3877 3.47689 40.4447 3.05697 40.5586 2.67285C40.6725 2.28874 40.8385 1.95833 41.0566 1.68164C41.2747 1.40169 41.5417 1.18359 41.8574 1.02734C42.1764 0.871094 42.541 0.792969 42.9512 0.792969C43.3646 0.792969 43.734 0.871094 44.0596 1.02734C44.3883 1.18359 44.6667 1.40169 44.8945 1.68164C45.1224 1.95833 45.2965 2.28874 45.417 2.67285C45.5374 3.05697 45.5977 3.47689 45.5977 3.93262V4.96777ZM44.2061 3.92285C44.2061 3.63314 44.1816 3.36621 44.1328 3.12207C44.0872 2.87793 44.014 2.66797 43.9131 2.49219C43.8122 2.31641 43.682 2.17969 43.5225 2.08203C43.3662 1.98112 43.1758 1.93066 42.9512 1.93066C42.7298 1.93066 42.5443 1.98112 42.3945 2.08203C42.2448 2.17969 42.1243 2.31641 42.0332 2.49219C41.9421 2.66797 41.877 2.87793 41.8379 3.12207C41.7988 3.36621 41.7793 3.63314 41.7793 3.92285V4.96777C41.7793 5.25423 41.7988 5.51953 41.8379 5.76367C41.877 6.00781 41.9421 6.2194 42.0332 6.39844C42.1243 6.57747 42.2448 6.71745 42.3945 6.81836C42.5443 6.91927 42.7314 6.96973 42.9561 6.96973C43.1774 6.96973 43.3662 6.91927 43.5225 6.81836C43.682 6.71745 43.8105 6.5791 43.9082 6.40332C44.0091 6.22428 44.084 6.0127 44.1328 5.76855C44.1816 5.52441 44.2061 5.25749 44.2061 4.96777V3.92285ZM53.3301 8H51.9629L49.9854 3.41504V8H48.6035V0.890625H49.9854L51.9482 5.45605L51.9531 0.890625H53.3301V8ZM58.333 0.890625L59.0068 3.56152L59.7734 0.890625H61.4775V8H60.2178V5.89551L60.2764 2.57031L59.3438 5.65625H58.665L57.8301 2.70215L57.8887 5.89551V8H56.6289V0.890625H58.333ZM69.0293 4.88477H66.1094V6.8916H69.5225V8H64.7324V0.890625H69.5078V2.00879H66.1094V3.80078H69.0293V4.88477ZM77.3477 8H75.9805L74.0029 3.41504V8H72.6211V0.890625H74.0029L75.9658 5.45605L75.9707 0.890625H77.3477V8ZM85.8906 2.00879H83.6982V8H82.3213V2.00879H80.1582V0.890625H85.8906V2.00879Z"/>
</svg>
