<svg width="30" height="9" viewBox="0 0 30 9" xmlns="http://www.w3.org/2000/svg">
<path d="M5.00293 4.88477H2.08301V6.8916H5.49609V8H0.706055V0.890625H5.48145V2.00879H2.08301V3.80078H5.00293V4.88477ZM13.3701 0.890625L13.375 5.60254C13.375 5.99967 13.3197 6.35286 13.209 6.66211C13.1016 6.97135 12.9437 7.2334 12.7354 7.44824C12.5303 7.65983 12.278 7.82096 11.9785 7.93164C11.6823 8.04232 11.3438 8.09766 10.9629 8.09766C10.6048 8.09766 10.2809 8.04232 9.99121 7.93164C9.70475 7.82096 9.45898 7.65983 9.25391 7.44824C9.04883 7.23665 8.88932 6.97624 8.77539 6.66699C8.66471 6.35449 8.60938 5.99967 8.60938 5.60254L8.61426 0.890625H9.98633L9.99121 5.60254C9.99447 6.06152 10.0775 6.4082 10.2402 6.64258C10.4062 6.87695 10.6471 6.99414 10.9629 6.99414C11.2982 6.99414 11.5537 6.87695 11.7295 6.64258C11.9085 6.4082 11.9997 6.06152 12.0029 5.60254L12.0078 0.890625H13.3701ZM19.0518 5.34375H18.0117V8H16.6396V0.890625H19.0225C19.4163 0.890625 19.7728 0.937826 20.0918 1.03223C20.4108 1.12337 20.6826 1.25846 20.9072 1.4375C21.1351 1.61654 21.3092 1.83952 21.4297 2.10645C21.5534 2.37337 21.6152 2.68262 21.6152 3.03418C21.6152 3.28809 21.5843 3.51758 21.5225 3.72266C21.4639 3.92448 21.3776 4.10677 21.2637 4.26953C21.153 4.42904 21.0179 4.56901 20.8584 4.68945C20.7021 4.8099 20.5264 4.91406 20.3311 5.00195L21.8594 7.93652V8H20.3896L19.0518 5.34375ZM18.0117 4.23047H19.0273C19.4147 4.23047 19.7126 4.13281 19.9209 3.9375C20.1325 3.73893 20.2383 3.46875 20.2383 3.12695C20.2383 2.77214 20.1357 2.49707 19.9307 2.30176C19.7256 2.10319 19.4229 2.00391 19.0225 2.00391H18.0117V4.23047ZM29.6064 4.96777C29.6064 5.4235 29.5462 5.84342 29.4258 6.22754C29.3053 6.61165 29.1312 6.94206 28.9033 7.21875C28.6755 7.49544 28.3971 7.71191 28.0684 7.86816C27.7428 8.02116 27.375 8.09766 26.9648 8.09766C26.5547 8.09766 26.1901 8.02116 25.8711 7.86816C25.5521 7.71191 25.2835 7.49544 25.0654 7.21875C24.8473 6.9388 24.6813 6.6084 24.5674 6.22754C24.4535 5.84342 24.3965 5.4235 24.3965 4.96777V3.93262C24.3965 3.47689 24.4535 3.05697 24.5674 2.67285C24.6813 2.28874 24.8473 1.95833 25.0654 1.68164C25.2835 1.40169 25.5505 1.18359 25.8662 1.02734C26.1852 0.871094 26.5498 0.792969 26.96 0.792969C27.3734 0.792969 27.7428 0.871094 28.0684 1.02734C28.3971 1.18359 28.6755 1.40169 28.9033 1.68164C29.1312 1.95833 29.3053 2.28874 29.4258 2.67285C29.5462 3.05697 29.6064 3.47689 29.6064 3.93262V4.96777ZM28.2148 3.92285C28.2148 3.63314 28.1904 3.36621 28.1416 3.12207C28.096 2.87793 28.0228 2.66797 27.9219 2.49219C27.821 2.31641 27.6908 2.17969 27.5312 2.08203C27.375 1.98112 27.1846 1.93066 26.96 1.93066C26.7386 1.93066 26.5531 1.98112 26.4033 2.08203C26.2536 2.17969 26.1331 2.31641 26.042 2.49219C25.9508 2.66797 25.8857 2.87793 25.8467 3.12207C25.8076 3.36621 25.7881 3.63314 25.7881 3.92285V4.96777C25.7881 5.25423 25.8076 5.51953 25.8467 5.76367C25.8857 6.00781 25.9508 6.2194 26.042 6.39844C26.1331 6.57747 26.2536 6.71745 26.4033 6.81836C26.5531 6.91927 26.7402 6.96973 26.9648 6.96973C27.1862 6.96973 27.375 6.91927 27.5312 6.81836C27.6908 6.71745 27.8193 6.5791 27.917 6.40332C28.0179 6.22428 28.0928 6.0127 28.1416 5.76855C28.1904 5.52441 28.2148 5.25749 28.2148 4.96777V3.92285Z"/>
</svg>
