<svg width="118" height="31" viewBox="0 0 118 31" xmlns="http://www.w3.org/2000/svg">
<path id="External-launch -big-Keep" d="M4.9707 4.88477H2.05078V6.8916H5.46387V8H0.673828V0.890625H5.44922V2.00879H2.05078V3.80078H4.9707V4.88477ZM11.0088 3.43945L12.2734 0.890625H13.8848L11.8828 4.41602L13.9336 8H12.332L11.0283 5.41211L9.72949 8H8.1084L10.1592 4.41602L8.16211 0.890625H9.76367L11.0088 3.43945ZM21.832 2.00879H19.6396V8H18.2627V2.00879H16.0996V0.890625H21.832V2.00879ZM28.9883 4.88477H26.0684V6.8916H29.4814V8H24.6914V0.890625H29.4668V2.00879H26.0684V3.80078H28.9883V4.88477ZM35.0312 5.34375H33.9912V8H32.6191V0.890625H35.002C35.3958 0.890625 35.7523 0.937826 36.0713 1.03223C36.3903 1.12337 36.6621 1.25846 36.8867 1.4375C37.1146 1.61654 37.2887 1.83952 37.4092 2.10645C37.5329 2.37337 37.5947 2.68262 37.5947 3.03418C37.5947 3.28809 37.5638 3.51758 37.502 3.72266C37.4434 3.92448 37.3571 4.10677 37.2432 4.26953C37.1325 4.42904 36.9974 4.56901 36.8379 4.68945C36.6816 4.8099 36.5059 4.91406 36.3105 5.00195L37.8389 7.93652V8H36.3691L35.0312 5.34375ZM33.9912 4.23047H35.0068C35.3942 4.23047 35.6921 4.13281 35.9004 3.9375C36.112 3.73893 36.2178 3.46875 36.2178 3.12695C36.2178 2.77214 36.1152 2.49707 35.9102 2.30176C35.7051 2.10319 35.4023 2.00391 35.002 2.00391H33.9912V4.23047ZM45.3125 8H43.9453L41.9678 3.41504V8H40.5859V0.890625H41.9678L43.9307 5.45605L43.9355 0.890625H45.3125V8ZM52.127 6.51562H49.9932L49.5732 8H48.1279L50.457 0.890625H51.7021L53.9873 8H52.542L52.127 6.51562ZM50.3301 5.34863H51.8047L51.0771 2.73145L50.3301 5.34863ZM58.1064 6.8916H61.4365V8H56.7295V0.890625H58.1064V6.8916ZM69.4473 5.41211H65.3799V4.31348H69.4473V5.41211ZM74.1182 6.8916H77.4482V8H72.7412V0.890625H74.1182V6.8916ZM84.1504 6.51562H82.0166L81.5967 8H80.1514L82.4805 0.890625H83.7256L86.0107 8H84.5654L84.1504 6.51562ZM82.3535 5.34863H83.8281L83.1006 2.73145L82.3535 5.34863ZM93.3965 0.890625L93.4014 5.60254C93.4014 5.99967 93.346 6.35286 93.2354 6.66211C93.1279 6.97135 92.9701 7.2334 92.7617 7.44824C92.5566 7.65983 92.3044 7.82096 92.0049 7.93164C91.7087 8.04232 91.3701 8.09766 90.9893 8.09766C90.6312 8.09766 90.3073 8.04232 90.0176 7.93164C89.7311 7.82096 89.4854 7.65983 89.2803 7.44824C89.0752 7.23665 88.9157 6.97624 88.8018 6.66699C88.6911 6.35449 88.6357 5.99967 88.6357 5.60254L88.6406 0.890625H90.0127L90.0176 5.60254C90.0208 6.06152 90.1038 6.4082 90.2666 6.64258C90.4326 6.87695 90.6735 6.99414 90.9893 6.99414C91.3245 6.99414 91.5801 6.87695 91.7559 6.64258C91.9349 6.4082 92.026 6.06152 92.0293 5.60254L92.0342 0.890625H93.3965ZM101.354 8H99.9863L98.0088 3.41504V8H96.627V0.890625H98.0088L99.9717 5.45605L99.9766 0.890625H101.354V8ZM109.608 5.77344C109.586 6.13151 109.507 6.45378 109.374 6.74023C109.244 7.02669 109.068 7.27083 108.847 7.47266C108.625 7.67448 108.362 7.83073 108.056 7.94141C107.75 8.04883 107.411 8.10254 107.04 8.10254C106.62 8.10254 106.247 8.02604 105.922 7.87305C105.596 7.7168 105.323 7.50033 105.102 7.22363C104.88 6.94368 104.711 6.6084 104.594 6.21777C104.477 5.82715 104.418 5.39746 104.418 4.92871V3.97168C104.418 3.49967 104.48 3.06836 104.604 2.67773C104.727 2.28711 104.903 1.95182 105.131 1.67188C105.359 1.39193 105.634 1.17546 105.956 1.02246C106.282 0.866211 106.646 0.788086 107.05 0.788086C107.44 0.788086 107.787 0.843424 108.09 0.954102C108.396 1.06478 108.656 1.22266 108.871 1.42773C109.086 1.63281 109.255 1.88346 109.379 2.17969C109.503 2.47591 109.581 2.80957 109.613 3.18066H108.246C108.233 2.96908 108.201 2.78353 108.148 2.62402C108.1 2.46452 108.026 2.33268 107.929 2.22852C107.834 2.12109 107.714 2.04134 107.567 1.98926C107.424 1.93392 107.252 1.90625 107.05 1.90625C106.838 1.90625 106.654 1.95182 106.498 2.04297C106.342 2.13411 106.212 2.26758 106.107 2.44336C106.007 2.61914 105.932 2.83561 105.883 3.09277C105.834 3.34668 105.81 3.63639 105.81 3.96191V4.92871C105.81 5.62858 105.907 6.14616 106.103 6.48145C106.301 6.81673 106.614 6.98438 107.04 6.98438C107.398 6.98438 107.681 6.88997 107.89 6.70117C108.098 6.50911 108.214 6.19987 108.236 5.77344H109.608ZM117.37 8H116.013V4.91895H114.001V8H112.639V0.890625H114.001V3.80566H116.013V0.890625H117.37V8ZM29.418 27.4121H25.3506V26.3135H29.418V27.4121ZM32.6094 30V22.8906H34.9971C35.3844 22.8906 35.736 22.9297 36.0518 23.0078C36.3708 23.0859 36.6426 23.2048 36.8672 23.3643C37.0918 23.5238 37.2643 23.7256 37.3848 23.9697C37.5085 24.2139 37.5703 24.502 37.5703 24.834C37.5671 25.166 37.4775 25.4639 37.3018 25.7275C37.1292 25.9912 36.8737 26.1914 36.5352 26.3281C36.7402 26.3802 36.9176 26.4583 37.0674 26.5625C37.2171 26.6667 37.3408 26.7904 37.4385 26.9336C37.5394 27.0736 37.6126 27.2282 37.6582 27.3975C37.707 27.5635 37.7314 27.736 37.7314 27.915C37.7314 28.2568 37.6729 28.5579 37.5557 28.8184C37.4385 29.0788 37.2708 29.2969 37.0527 29.4727C36.8346 29.6484 36.5693 29.7803 36.2568 29.8682C35.9443 29.9561 35.5928 30 35.2021 30H32.6094ZM33.9863 26.8652V28.8916H35.207C35.5814 28.8883 35.8662 28.7972 36.0615 28.6182C36.2601 28.4359 36.3594 28.1982 36.3594 27.9053C36.3626 27.5798 36.2747 27.3258 36.0957 27.1436C35.9167 26.9613 35.64 26.8685 35.2656 26.8652H33.9863ZM33.9863 25.874H35.0068C35.3877 25.8708 35.6807 25.791 35.8857 25.6348C36.0908 25.4785 36.195 25.249 36.1982 24.9463C36.1982 24.6143 36.0957 24.3766 35.8906 24.2334C35.6855 24.0869 35.3893 24.012 35.002 24.0088H33.9863V25.874ZM40.9277 22.8906H45.0391V23.999H43.6523V28.8965H45.0391V30H40.9277V28.8965H42.2803V23.999H40.9277V22.8906ZM53.5186 29.1699C53.4307 29.2773 53.3102 29.3864 53.1572 29.4971C53.0042 29.6077 52.8219 29.7087 52.6104 29.7998C52.402 29.8877 52.1676 29.9593 51.9072 30.0146C51.6468 30.07 51.3669 30.0977 51.0674 30.0977C50.6637 30.0977 50.2992 30.026 49.9736 29.8828C49.6481 29.7396 49.3698 29.5329 49.1387 29.2627C48.9076 28.9925 48.7285 28.6621 48.6016 28.2715C48.4779 27.8776 48.416 27.4316 48.416 26.9336V25.9668C48.416 25.4688 48.4811 25.0244 48.6113 24.6338C48.7448 24.2399 48.9271 23.9062 49.1582 23.6328C49.3926 23.3594 49.666 23.151 49.9785 23.0078C50.2943 22.8646 50.6361 22.793 51.0039 22.793C51.4043 22.793 51.7526 22.8434 52.0488 22.9443C52.3483 23.0452 52.6006 23.1917 52.8057 23.3838C53.0107 23.5726 53.1702 23.8037 53.2842 24.0771C53.4014 24.3506 53.4779 24.6582 53.5137 25H52.1758C52.1302 24.6354 52.0195 24.362 51.8438 24.1797C51.6712 23.9941 51.4027 23.9014 51.0381 23.9014C50.8623 23.9014 50.6995 23.9469 50.5498 24.0381C50.4001 24.126 50.2699 24.2562 50.1592 24.4287C50.0485 24.6012 49.9606 24.8161 49.8955 25.0732C49.8304 25.3271 49.7979 25.6217 49.7979 25.957V26.9336C49.8011 27.5977 49.9118 28.1071 50.1299 28.4619C50.348 28.8135 50.6816 28.9909 51.1309 28.9941C51.2383 28.9941 51.3441 28.986 51.4482 28.9697C51.5524 28.9535 51.6501 28.9307 51.7412 28.9014C51.8324 28.8721 51.9121 28.8395 51.9805 28.8037C52.0521 28.7646 52.1058 28.724 52.1416 28.6816L52.1465 27.3926H50.9697V26.3672H53.5137L53.5186 29.1699ZM61.4414 27.4121H57.374V26.3135H61.4414V27.4121ZM66.7617 27.0801L66.0098 27.9053V30H64.6328V22.8906H66.0098V26.1475L66.6543 25.2783L68.3828 22.8906H70.0625L67.6699 26.0352L70.1504 30H68.5195L66.7617 27.0801ZM77.0234 26.8848H74.1035V28.8916H77.5166V30H72.7266V22.8906H77.502V24.0088H74.1035V25.8008H77.0234V26.8848ZM85.0293 26.8848H82.1094V28.8916H85.5225V30H80.7324V22.8906H85.5078V24.0088H82.1094V25.8008H85.0293V26.8848ZM90.1201 27.3926V30H88.748V22.8906H91.1797C91.5671 22.8906 91.917 22.9476 92.2295 23.0615C92.542 23.1722 92.8073 23.3285 93.0254 23.5303C93.2467 23.7288 93.416 23.9681 93.5332 24.248C93.6536 24.528 93.7139 24.8389 93.7139 25.1807C93.7139 25.4997 93.6536 25.7943 93.5332 26.0645C93.416 26.3346 93.2467 26.569 93.0254 26.7676C92.8073 26.9629 92.542 27.1159 92.2295 27.2266C91.917 27.3372 91.5671 27.3926 91.1797 27.3926H90.1201ZM90.1201 26.2793H91.1797C91.375 26.2793 91.5443 26.25 91.6875 26.1914C91.8307 26.1328 91.9495 26.0531 92.0439 25.9521C92.1416 25.8512 92.2132 25.7357 92.2588 25.6055C92.3076 25.472 92.332 25.3337 92.332 25.1904C92.332 25.0244 92.3076 24.8698 92.2588 24.7266C92.2132 24.5833 92.1416 24.458 92.0439 24.3506C91.9495 24.2432 91.8307 24.1585 91.6875 24.0967C91.5443 24.0348 91.375 24.0039 91.1797 24.0039H90.1201V26.2793Z"/>
</svg>
