<svg width="110" height="9" viewBox="0 0 110 9" xmlns="http://www.w3.org/2000/svg">
<path d="M4.97363 4.88477H2.05371V6.8916H5.4668V8H0.676758V0.890625H5.45215V2.00879H2.05371V3.80078H4.97363V4.88477ZM11.0117 3.43945L12.2764 0.890625H13.8877L11.8857 4.41602L13.9365 8H12.335L11.0312 5.41211L9.73242 8H8.11133L10.1621 4.41602L8.16504 0.890625H9.7666L11.0117 3.43945ZM21.835 2.00879H19.6426V8H18.2656V2.00879H16.1025V0.890625H21.835V2.00879ZM27.0283 5.34375H25.9883V8H24.6162V0.890625H26.999C27.3929 0.890625 27.7493 0.937826 28.0684 1.03223C28.3874 1.12337 28.6592 1.25846 28.8838 1.4375C29.1117 1.61654 29.2858 1.83952 29.4062 2.10645C29.5299 2.37337 29.5918 2.68262 29.5918 3.03418C29.5918 3.28809 29.5609 3.51758 29.499 3.72266C29.4404 3.92448 29.3542 4.10677 29.2402 4.26953C29.1296 4.42904 28.9945 4.56901 28.835 4.68945C28.6787 4.8099 28.5029 4.91406 28.3076 5.00195L29.8359 7.93652V8H28.3662L27.0283 5.34375ZM25.9883 4.23047H27.0039C27.3913 4.23047 27.6891 4.13281 27.8975 3.9375C28.109 3.73893 28.2148 3.46875 28.2148 3.12695C28.2148 2.77214 28.1123 2.49707 27.9072 2.30176C27.7021 2.10319 27.3994 2.00391 26.999 2.00391H25.9883V4.23047ZM36.1182 6.51562H33.9844L33.5645 8H32.1191L34.4482 0.890625H35.6934L37.9785 8H36.5332L36.1182 6.51562ZM34.3213 5.34863H35.7959L35.0684 2.73145L34.3213 5.34863ZM45.3154 8H43.9482L41.9707 3.41504V8H40.5889V0.890625H41.9707L43.9336 5.45605L43.9385 0.890625H45.3154V8ZM53.0088 4.88477H50.0889V6.8916H53.502V8H48.7119V0.890625H53.4873V2.00879H50.0889V3.80078H53.0088V4.88477ZM61.8643 2.00879H59.6719V8H58.2949V2.00879H56.1318V0.890625H61.8643V2.00879ZM69.4502 5.41211H65.3828V4.31348H69.4502V5.41211ZM74.1211 6.8916H77.4512V8H72.7441V0.890625H74.1211V6.8916ZM85.6182 4.96777C85.6182 5.4235 85.5579 5.84342 85.4375 6.22754C85.3171 6.61165 85.1429 6.94206 84.915 7.21875C84.6872 7.49544 84.4089 7.71191 84.0801 7.86816C83.7546 8.02116 83.3867 8.09766 82.9766 8.09766C82.5664 8.09766 82.2018 8.02116 81.8828 7.86816C81.5638 7.71191 81.2952 7.49544 81.0771 7.21875C80.859 6.9388 80.693 6.6084 80.5791 6.22754C80.4652 5.84342 80.4082 5.4235 80.4082 4.96777V3.93262C80.4082 3.47689 80.4652 3.05697 80.5791 2.67285C80.693 2.28874 80.859 1.95833 81.0771 1.68164C81.2952 1.40169 81.5622 1.18359 81.8779 1.02734C82.1969 0.871094 82.5615 0.792969 82.9717 0.792969C83.3851 0.792969 83.7546 0.871094 84.0801 1.02734C84.4089 1.18359 84.6872 1.40169 84.915 1.68164C85.1429 1.95833 85.3171 2.28874 85.4375 2.67285C85.5579 3.05697 85.6182 3.47689 85.6182 3.93262V4.96777ZM84.2266 3.92285C84.2266 3.63314 84.2021 3.36621 84.1533 3.12207C84.1077 2.87793 84.0345 2.66797 83.9336 2.49219C83.8327 2.31641 83.7025 2.17969 83.543 2.08203C83.3867 1.98112 83.1963 1.93066 82.9717 1.93066C82.7503 1.93066 82.5648 1.98112 82.415 2.08203C82.2653 2.17969 82.1449 2.31641 82.0537 2.49219C81.9626 2.66797 81.8975 2.87793 81.8584 3.12207C81.8193 3.36621 81.7998 3.63314 81.7998 3.92285V4.96777C81.7998 5.25423 81.8193 5.51953 81.8584 5.76367C81.8975 6.00781 81.9626 6.2194 82.0537 6.39844C82.1449 6.57747 82.2653 6.71745 82.415 6.81836C82.5648 6.91927 82.752 6.96973 82.9766 6.96973C83.1979 6.96973 83.3867 6.91927 83.543 6.81836C83.7025 6.71745 83.8311 6.5791 83.9287 6.40332C84.0296 6.22428 84.1045 6.0127 84.1533 5.76855C84.2021 5.52441 84.2266 5.25749 84.2266 4.96777V3.92285ZM93.5508 7.16992C93.4629 7.27734 93.3424 7.38639 93.1895 7.49707C93.0365 7.60775 92.8542 7.70866 92.6426 7.7998C92.4342 7.8877 92.1999 7.95931 91.9395 8.01465C91.679 8.06999 91.3991 8.09766 91.0996 8.09766C90.696 8.09766 90.3314 8.02604 90.0059 7.88281C89.6803 7.73958 89.402 7.53288 89.1709 7.2627C88.9398 6.99251 88.7607 6.66211 88.6338 6.27148C88.5101 5.8776 88.4482 5.43164 88.4482 4.93359V3.9668C88.4482 3.46875 88.5133 3.02441 88.6436 2.63379C88.777 2.23991 88.9593 1.90625 89.1904 1.63281C89.4248 1.35938 89.6982 1.15104 90.0107 1.00781C90.3265 0.864583 90.6683 0.792969 91.0361 0.792969C91.4365 0.792969 91.7848 0.843424 92.0811 0.944336C92.3805 1.04525 92.6328 1.19173 92.8379 1.38379C93.043 1.57259 93.2025 1.80371 93.3164 2.07715C93.4336 2.35059 93.5101 2.6582 93.5459 3H92.208C92.1624 2.63542 92.0518 2.36198 91.876 2.17969C91.7035 1.99414 91.4349 1.90137 91.0703 1.90137C90.8945 1.90137 90.7318 1.94694 90.582 2.03809C90.4323 2.12598 90.3021 2.25618 90.1914 2.42871C90.0807 2.60124 89.9928 2.81608 89.9277 3.07324C89.8626 3.32715 89.8301 3.62174 89.8301 3.95703V4.93359C89.8333 5.59766 89.944 6.1071 90.1621 6.46191C90.3802 6.81348 90.7139 6.99089 91.1631 6.99414C91.2705 6.99414 91.3763 6.986 91.4805 6.96973C91.5846 6.95345 91.6823 6.93066 91.7734 6.90137C91.8646 6.87207 91.9443 6.83952 92.0127 6.80371C92.0843 6.76465 92.138 6.72396 92.1738 6.68164L92.1787 5.39258H91.002V4.36719H93.5459L93.5508 7.16992ZM96.9717 0.890625H101.083V1.99902H99.6963V6.89648H101.083V8H96.9717V6.89648H98.3242V1.99902H96.9717V0.890625ZM109.362 8H107.995L106.018 3.41504V8H104.636V0.890625H106.018L107.98 5.45605L107.985 0.890625H109.362V8Z"/>
</svg>
