<svg width="38" height="9" viewBox="0 0 38 9" xmlns="http://www.w3.org/2000/svg">
<path d="M5.13672 5.05566H2.08984V8H0.712891V0.890625H5.51758V2.00879H2.08984V3.94238H5.13672V5.05566ZM8.93359 0.890625H13.0449V1.99902H11.6582V6.89648H13.0449V8H8.93359V6.89648H10.2861V1.99902H8.93359V0.890625ZM18.1064 6.8916H21.4365V8H16.7295V0.890625H18.1064V6.8916ZM29.0176 4.88477H26.0977V6.8916H29.5107V8H24.7207V0.890625H29.4961V2.00879H26.0977V3.80078H29.0176V4.88477ZM36.3398 6.14453C36.3398 6.01758 36.3171 5.89876 36.2715 5.78809C36.2292 5.67741 36.1543 5.57487 36.0469 5.48047C35.9427 5.38281 35.8044 5.29492 35.6318 5.2168C35.4626 5.13542 35.251 5.06055 34.9971 4.99219C34.6878 4.90755 34.3916 4.80176 34.1084 4.6748C33.8285 4.54785 33.5811 4.39486 33.3662 4.21582C33.1514 4.03678 32.9788 3.82845 32.8486 3.59082C32.7217 3.35319 32.6582 3.07975 32.6582 2.77051C32.6582 2.47103 32.7217 2.19922 32.8486 1.95508C32.9756 1.71094 33.1514 1.5026 33.376 1.33008C33.6006 1.15755 33.8659 1.02572 34.1719 0.93457C34.4779 0.840169 34.8099 0.792969 35.168 0.792969C35.5391 0.792969 35.8776 0.84668 36.1836 0.954102C36.4928 1.06152 36.7581 1.21289 36.9795 1.4082C37.2008 1.60026 37.3734 1.82975 37.4971 2.09668C37.6208 2.36361 37.6826 2.65658 37.6826 2.97559H36.3447C36.3382 2.81608 36.3089 2.6696 36.2568 2.53613C36.208 2.40267 36.1331 2.28874 36.0322 2.19434C35.9346 2.09668 35.8109 2.02181 35.6611 1.96973C35.5146 1.91439 35.3421 1.88672 35.1436 1.88672C34.9613 1.88672 34.7985 1.90951 34.6553 1.95508C34.5153 1.9974 34.3965 2.05924 34.2988 2.14062C34.2012 2.21875 34.1263 2.31315 34.0742 2.42383C34.0254 2.53125 34.001 2.64844 34.001 2.77539C34.001 2.90885 34.0335 3.0293 34.0986 3.13672C34.167 3.24414 34.2646 3.3418 34.3916 3.42969C34.5186 3.51432 34.6715 3.59245 34.8506 3.66406C35.0329 3.73568 35.238 3.80241 35.4658 3.86426C35.7913 3.95866 36.0908 4.07422 36.3643 4.21094C36.6377 4.34766 36.8721 4.51042 37.0674 4.69922C37.266 4.88477 37.4189 5.09798 37.5264 5.33887C37.637 5.5765 37.6924 5.8418 37.6924 6.13477C37.6924 6.44727 37.6289 6.72559 37.502 6.96973C37.3783 7.21061 37.2057 7.41569 36.9844 7.58496C36.763 7.75098 36.4993 7.87793 36.1934 7.96582C35.8874 8.05046 35.5537 8.09277 35.1924 8.09277C34.9678 8.09277 34.7432 8.07161 34.5186 8.0293C34.2972 7.99023 34.084 7.92839 33.8789 7.84375C33.6771 7.75911 33.4883 7.65332 33.3125 7.52637C33.1367 7.39941 32.9837 7.2513 32.8535 7.08203C32.7266 6.91276 32.6257 6.7207 32.5508 6.50586C32.4792 6.29102 32.4434 6.05339 32.4434 5.79297H33.791C33.7975 6.00781 33.835 6.19173 33.9033 6.34473C33.9717 6.49772 34.0661 6.62305 34.1865 6.7207C34.3102 6.81836 34.4567 6.88997 34.626 6.93555C34.7985 6.98112 34.9873 7.00391 35.1924 7.00391C35.3747 7.00391 35.5358 6.98275 35.6758 6.94043C35.819 6.89811 35.9395 6.83952 36.0371 6.76465C36.1348 6.68978 36.2096 6.60026 36.2617 6.49609C36.3138 6.38867 36.3398 6.27148 36.3398 6.14453Z"/>
</svg>
