<svg width="32" height="32" viewBox="0 0 32 32" xmlns="http://www.w3.org/2000/svg">
<g>
<path fill-rule="evenodd" clip-rule="evenodd" d="M14.0001 28C13.4478 28 13.0001 27.5523 13.0001 27V18.3L5.67006 7.30004C5.36697 6.84465 5.33979 6.2592 5.59939 5.77768C5.85899 5.29616 6.36303 4.99711 6.91006 5.00004H25.0901C25.6387 4.99832 26.1432 5.30021 26.4011 5.78445C26.6589 6.26869 26.6277 6.85583 26.3201 7.31004L19.0001 18.3V24C19.0001 24.3148 18.8519 24.6112 18.6001 24.8L14.6001 27.8C14.427 27.9299 14.2164 28 14.0001 28ZM7.87006 7.00004L14.8701 17.45C14.9654 17.6171 15.0105 17.808 15.0001 18V25L17.0001 23.5V18C17.0016 17.804 17.0607 17.6127 17.1701 17.45L24.1301 7.00004H7.87006Z"/>
</g>
</svg>
