<svg width="32" height="32" viewBox="0 0 32 32" xmlns="http://www.w3.org/2000/svg">
<g>
<path fill-rule="evenodd" clip-rule="evenodd" d="M27.949 11.595L26.902 11.246L26.235 6.576C26.025 5.107 24.749 4 23.266 4H18V6H23.266C23.76 6 24.186 6.369 24.255 6.859L25.098 12.754L27.317 13.493C27.726 13.629 28 14.01 28 14.441V18C28 18.551 27.552 19 27 19V18.441C27 17.148 26.176 16.004 24.949 15.595L23.902 15.246L23.235 10.576C23.025 9.107 21.749 8 20.266 8H15V10H20.266C20.76 10 21.186 10.369 21.255 10.859L22.098 16.754L24.317 17.493C24.726 17.629 25 18.01 25 18.441V22C25 22.551 24.552 23 24 23V22.441C24 21.138 23.125 19.991 21.823 19.588L20.662 19.229L19.944 14.565C19.72 13.103 18.378 12 16.824 12H12H11.464H5V26H2V28H7V26V14H10.925L8.371 23.487C7.548 24.022 7 24.947 7 26C7 27.654 8.346 29 10 29C11.302 29 12.402 28.161 12.816 27H18.185C18.599 28.161 19.699 29 21.001 29C22.655 29 24.001 27.654 24.001 26C24.001 25.648 23.929 25.314 23.817 25H24C25.654 25 27 23.654 27 22V21C28.654 21 30 19.654 30 18V14.441C30 13.148 29.176 12.005 27.949 11.595ZM12.997 14H16.824C17.4 14 17.891 14.374 17.968 14.87L18.667 19.41L13.685 21.723C12.925 22.076 12.358 22.688 12.084 23.449L11.973 23.759C11.578 23.411 11.097 23.16 10.559 23.058L12.997 14ZM10 27C9.448 27 9 26.551 9 26C9 25.449 9.448 25 10 25C10.552 25 11 25.449 11 26C11 26.551 10.552 27 10 27ZM18.184 25H13.652L13.967 24.124C14.057 23.874 14.261 23.66 14.527 23.537L19.842 21.069L21.232 21.499C21.691 21.642 22 22.02 22 22.441V23.184C21.686 23.072 21.352 23 21 23C19.698 23 18.598 23.839 18.184 25ZM21 27C20.448 27 20 26.551 20 26C20 25.449 20.448 25 21 25C21.552 25 22 25.449 22 26C22 26.551 21.552 27 21 27Z"/>
</g>
</svg>
