<svg width="110" height="9" viewBox="0 0 110 9" xmlns="http://www.w3.org/2000/svg">
<path d="M5.11035 5.05566H2.06348V8H0.686523V0.890625H5.49121V2.00879H2.06348V3.94238H5.11035V5.05566ZM10.0742 6.8916H13.4043V8H8.69727V0.890625H10.0742V6.8916ZM20.9854 4.88477H18.0654V6.8916H21.4785V8H16.6885V0.890625H21.4639V2.00879H18.0654V3.80078H20.9854V4.88477ZM27.0234 3.43945L28.2881 0.890625H29.8994L27.8975 4.41602L29.9482 8H28.3467L27.043 5.41211L25.7441 8H24.123L26.1738 4.41602L24.1768 0.890625H25.7783L27.0234 3.43945ZM32.9248 0.890625H37.0361V1.99902H35.6494V6.89648H37.0361V8H32.9248V6.89648H34.2773V1.99902H32.9248V0.890625ZM40.6182 8V0.890625H43.0059C43.3932 0.890625 43.7448 0.929688 44.0605 1.00781C44.3796 1.08594 44.6514 1.20475 44.876 1.36426C45.1006 1.52376 45.2731 1.72559 45.3936 1.96973C45.5173 2.21387 45.5791 2.50195 45.5791 2.83398C45.5758 3.16602 45.4863 3.46387 45.3105 3.72754C45.138 3.99121 44.8825 4.19141 44.5439 4.32812C44.749 4.38021 44.9264 4.45833 45.0762 4.5625C45.2259 4.66667 45.3496 4.79036 45.4473 4.93359C45.5482 5.07357 45.6214 5.22819 45.667 5.39746C45.7158 5.56348 45.7402 5.736 45.7402 5.91504C45.7402 6.25684 45.6816 6.55794 45.5645 6.81836C45.4473 7.07878 45.2796 7.29688 45.0615 7.47266C44.8434 7.64844 44.5781 7.78027 44.2656 7.86816C43.9531 7.95605 43.6016 8 43.2109 8H40.6182ZM41.9951 4.86523V6.8916H43.2158C43.5902 6.88835 43.875 6.7972 44.0703 6.61816C44.2689 6.43587 44.3682 6.19824 44.3682 5.90527C44.3714 5.57975 44.2835 5.32585 44.1045 5.14355C43.9255 4.96126 43.6488 4.86849 43.2744 4.86523H41.9951ZM41.9951 3.87402H43.0156C43.3965 3.87077 43.6895 3.79102 43.8945 3.63477C44.0996 3.47852 44.2038 3.24902 44.207 2.94629C44.207 2.61426 44.1045 2.37663 43.8994 2.2334C43.6943 2.08691 43.3981 2.01204 43.0107 2.00879H41.9951V3.87402ZM50.1035 6.8916H53.4336V8H48.7266V0.890625H50.1035V6.8916ZM61.0146 4.88477H58.0947V6.8916H61.5078V8H56.7178V0.890625H61.4932V2.00879H58.0947V3.80078H61.0146V4.88477ZM69.4502 5.41211H65.3828V4.31348H69.4502V5.41211ZM77.3438 8H75.9863V4.91895H73.9746V8H72.6123V0.890625H73.9746V3.80566H75.9863V0.890625H77.3438V8ZM85.6182 4.96777C85.6182 5.4235 85.5579 5.84342 85.4375 6.22754C85.3171 6.61165 85.1429 6.94206 84.915 7.21875C84.6872 7.49544 84.4089 7.71191 84.0801 7.86816C83.7546 8.02116 83.3867 8.09766 82.9766 8.09766C82.5664 8.09766 82.2018 8.02116 81.8828 7.86816C81.5638 7.71191 81.2952 7.49544 81.0771 7.21875C80.859 6.9388 80.693 6.6084 80.5791 6.22754C80.4652 5.84342 80.4082 5.4235 80.4082 4.96777V3.93262C80.4082 3.47689 80.4652 3.05697 80.5791 2.67285C80.693 2.28874 80.859 1.95833 81.0771 1.68164C81.2952 1.40169 81.5622 1.18359 81.8779 1.02734C82.1969 0.871094 82.5615 0.792969 82.9717 0.792969C83.3851 0.792969 83.7546 0.871094 84.0801 1.02734C84.4089 1.18359 84.6872 1.40169 84.915 1.68164C85.1429 1.95833 85.3171 2.28874 85.4375 2.67285C85.5579 3.05697 85.6182 3.47689 85.6182 3.93262V4.96777ZM84.2266 3.92285C84.2266 3.63314 84.2021 3.36621 84.1533 3.12207C84.1077 2.87793 84.0345 2.66797 83.9336 2.49219C83.8327 2.31641 83.7025 2.17969 83.543 2.08203C83.3867 1.98112 83.1963 1.93066 82.9717 1.93066C82.7503 1.93066 82.5648 1.98112 82.415 2.08203C82.2653 2.17969 82.1449 2.31641 82.0537 2.49219C81.9626 2.66797 81.8975 2.87793 81.8584 3.12207C81.8193 3.36621 81.7998 3.63314 81.7998 3.92285V4.96777C81.7998 5.25423 81.8193 5.51953 81.8584 5.76367C81.8975 6.00781 81.9626 6.2194 82.0537 6.39844C82.1449 6.57747 82.2653 6.71745 82.415 6.81836C82.5648 6.91927 82.752 6.96973 82.9766 6.96973C83.1979 6.96973 83.3867 6.91927 83.543 6.81836C83.7025 6.71745 83.8311 6.5791 83.9287 6.40332C84.0296 6.22428 84.1045 6.0127 84.1533 5.76855C84.2021 5.52441 84.2266 5.25749 84.2266 4.96777V3.92285ZM93.3994 0.890625L93.4043 5.60254C93.4043 5.99967 93.349 6.35286 93.2383 6.66211C93.1309 6.97135 92.973 7.2334 92.7646 7.44824C92.5596 7.65983 92.3073 7.82096 92.0078 7.93164C91.7116 8.04232 91.373 8.09766 90.9922 8.09766C90.6341 8.09766 90.3102 8.04232 90.0205 7.93164C89.734 7.82096 89.4883 7.65983 89.2832 7.44824C89.0781 7.23665 88.9186 6.97624 88.8047 6.66699C88.694 6.35449 88.6387 5.99967 88.6387 5.60254L88.6436 0.890625H90.0156L90.0205 5.60254C90.0238 6.06152 90.1068 6.4082 90.2695 6.64258C90.4355 6.87695 90.6764 6.99414 90.9922 6.99414C91.3275 6.99414 91.583 6.87695 91.7588 6.64258C91.9378 6.4082 92.029 6.06152 92.0322 5.60254L92.0371 0.890625H93.3994ZM99.0811 5.34375H98.041V8H96.6689V0.890625H99.0518C99.4456 0.890625 99.8021 0.937826 100.121 1.03223C100.44 1.12337 100.712 1.25846 100.937 1.4375C101.164 1.61654 101.339 1.83952 101.459 2.10645C101.583 2.37337 101.645 2.68262 101.645 3.03418C101.645 3.28809 101.614 3.51758 101.552 3.72266C101.493 3.92448 101.407 4.10677 101.293 4.26953C101.182 4.42904 101.047 4.56901 100.888 4.68945C100.731 4.8099 100.556 4.91406 100.36 5.00195L101.889 7.93652V8H100.419L99.0811 5.34375ZM98.041 4.23047H99.0566C99.444 4.23047 99.7419 4.13281 99.9502 3.9375C100.162 3.73893 100.268 3.46875 100.268 3.12695C100.268 2.77214 100.165 2.49707 99.96 2.30176C99.7549 2.10319 99.4521 2.00391 99.0518 2.00391H98.041V4.23047ZM108.366 6.14453C108.366 6.01758 108.343 5.89876 108.298 5.78809C108.256 5.67741 108.181 5.57487 108.073 5.48047C107.969 5.38281 107.831 5.29492 107.658 5.2168C107.489 5.13542 107.277 5.06055 107.023 4.99219C106.714 4.90755 106.418 4.80176 106.135 4.6748C105.855 4.54785 105.607 4.39486 105.393 4.21582C105.178 4.03678 105.005 3.82845 104.875 3.59082C104.748 3.35319 104.685 3.07975 104.685 2.77051C104.685 2.47103 104.748 2.19922 104.875 1.95508C105.002 1.71094 105.178 1.5026 105.402 1.33008C105.627 1.15755 105.892 1.02572 106.198 0.93457C106.504 0.840169 106.836 0.792969 107.194 0.792969C107.565 0.792969 107.904 0.84668 108.21 0.954102C108.519 1.06152 108.785 1.21289 109.006 1.4082C109.227 1.60026 109.4 1.82975 109.523 2.09668C109.647 2.36361 109.709 2.65658 109.709 2.97559H108.371C108.365 2.81608 108.335 2.6696 108.283 2.53613C108.234 2.40267 108.16 2.28874 108.059 2.19434C107.961 2.09668 107.837 2.02181 107.688 1.96973C107.541 1.91439 107.368 1.88672 107.17 1.88672C106.988 1.88672 106.825 1.90951 106.682 1.95508C106.542 1.9974 106.423 2.05924 106.325 2.14062C106.228 2.21875 106.153 2.31315 106.101 2.42383C106.052 2.53125 106.027 2.64844 106.027 2.77539C106.027 2.90885 106.06 3.0293 106.125 3.13672C106.193 3.24414 106.291 3.3418 106.418 3.42969C106.545 3.51432 106.698 3.59245 106.877 3.66406C107.059 3.73568 107.264 3.80241 107.492 3.86426C107.818 3.95866 108.117 4.07422 108.391 4.21094C108.664 4.34766 108.898 4.51042 109.094 4.69922C109.292 4.88477 109.445 5.09798 109.553 5.33887C109.663 5.5765 109.719 5.8418 109.719 6.13477C109.719 6.44727 109.655 6.72559 109.528 6.96973C109.405 7.21061 109.232 7.41569 109.011 7.58496C108.789 7.75098 108.526 7.87793 108.22 7.96582C107.914 8.05046 107.58 8.09277 107.219 8.09277C106.994 8.09277 106.77 8.07161 106.545 8.0293C106.324 7.99023 106.11 7.92839 105.905 7.84375C105.703 7.75911 105.515 7.65332 105.339 7.52637C105.163 7.39941 105.01 7.2513 104.88 7.08203C104.753 6.91276 104.652 6.7207 104.577 6.50586C104.506 6.29102 104.47 6.05339 104.47 5.79297H105.817C105.824 6.00781 105.861 6.19173 105.93 6.34473C105.998 6.49772 106.092 6.62305 106.213 6.7207C106.337 6.81836 106.483 6.88997 106.652 6.93555C106.825 6.98112 107.014 7.00391 107.219 7.00391C107.401 7.00391 107.562 6.98275 107.702 6.94043C107.845 6.89811 107.966 6.83952 108.063 6.76465C108.161 6.68978 108.236 6.60026 108.288 6.49609C108.34 6.38867 108.366 6.27148 108.366 6.14453Z"/>
</svg>
