<svg width="94" height="9" viewBox="0 0 94 9" xmlns="http://www.w3.org/2000/svg">
<path d="M1.56445 5.39258V8H0.192383V0.890625H2.62402C3.01139 0.890625 3.36133 0.947591 3.67383 1.06152C3.98633 1.1722 4.25163 1.32845 4.46973 1.53027C4.69108 1.72884 4.86035 1.9681 4.97754 2.24805C5.09798 2.52799 5.1582 2.83887 5.1582 3.18066C5.1582 3.49967 5.09798 3.79427 4.97754 4.06445C4.86035 4.33464 4.69108 4.56901 4.46973 4.76758C4.25163 4.96289 3.98633 5.11589 3.67383 5.22656C3.36133 5.33724 3.01139 5.39258 2.62402 5.39258H1.56445ZM1.56445 4.2793H2.62402C2.81934 4.2793 2.98861 4.25 3.13184 4.19141C3.27507 4.13281 3.39388 4.05306 3.48828 3.95215C3.58594 3.85124 3.65755 3.73568 3.70312 3.60547C3.75195 3.47201 3.77637 3.33366 3.77637 3.19043C3.77637 3.02441 3.75195 2.86979 3.70312 2.72656C3.65755 2.58333 3.58594 2.45801 3.48828 2.35059C3.39388 2.24316 3.27507 2.15853 3.13184 2.09668C2.98861 2.03483 2.81934 2.00391 2.62402 2.00391H1.56445V4.2793ZM10.5225 5.34375H9.48242V8H8.11035V0.890625H10.4932C10.887 0.890625 11.2435 0.937826 11.5625 1.03223C11.8815 1.12337 12.1533 1.25846 12.3779 1.4375C12.6058 1.61654 12.7799 1.83952 12.9004 2.10645C13.0241 2.37337 13.0859 2.68262 13.0859 3.03418C13.0859 3.28809 13.055 3.51758 12.9932 3.72266C12.9346 3.92448 12.8483 4.10677 12.7344 4.26953C12.6237 4.42904 12.4886 4.56901 12.3291 4.68945C12.1729 4.8099 11.9971 4.91406 11.8018 5.00195L13.3301 7.93652V8H11.8604L10.5225 5.34375ZM9.48242 4.23047H10.498C10.8854 4.23047 11.1833 4.13281 11.3916 3.9375C11.6032 3.73893 11.709 3.46875 11.709 3.12695C11.709 2.77214 11.6064 2.49707 11.4014 2.30176C11.1963 2.10319 10.8936 2.00391 10.4932 2.00391H9.48242V4.23047ZM21.0771 4.96777C21.0771 5.4235 21.0169 5.84342 20.8965 6.22754C20.776 6.61165 20.6019 6.94206 20.374 7.21875C20.1462 7.49544 19.8678 7.71191 19.5391 7.86816C19.2135 8.02116 18.8457 8.09766 18.4355 8.09766C18.0254 8.09766 17.6608 8.02116 17.3418 7.86816C17.0228 7.71191 16.7542 7.49544 16.5361 7.21875C16.318 6.9388 16.152 6.6084 16.0381 6.22754C15.9242 5.84342 15.8672 5.4235 15.8672 4.96777V3.93262C15.8672 3.47689 15.9242 3.05697 16.0381 2.67285C16.152 2.28874 16.318 1.95833 16.5361 1.68164C16.7542 1.40169 17.0212 1.18359 17.3369 1.02734C17.6559 0.871094 18.0205 0.792969 18.4307 0.792969C18.8441 0.792969 19.2135 0.871094 19.5391 1.02734C19.8678 1.18359 20.1462 1.40169 20.374 1.68164C20.6019 1.95833 20.776 2.28874 20.8965 2.67285C21.0169 3.05697 21.0771 3.47689 21.0771 3.93262V4.96777ZM19.6855 3.92285C19.6855 3.63314 19.6611 3.36621 19.6123 3.12207C19.5667 2.87793 19.4935 2.66797 19.3926 2.49219C19.2917 2.31641 19.1615 2.17969 19.002 2.08203C18.8457 1.98112 18.6553 1.93066 18.4307 1.93066C18.2093 1.93066 18.0238 1.98112 17.874 2.08203C17.7243 2.17969 17.6038 2.31641 17.5127 2.49219C17.4215 2.66797 17.3564 2.87793 17.3174 3.12207C17.2783 3.36621 17.2588 3.63314 17.2588 3.92285V4.96777C17.2588 5.25423 17.2783 5.51953 17.3174 5.76367C17.3564 6.00781 17.4215 6.2194 17.5127 6.39844C17.6038 6.57747 17.7243 6.71745 17.874 6.81836C18.0238 6.91927 18.2109 6.96973 18.4355 6.96973C18.6569 6.96973 18.8457 6.91927 19.002 6.81836C19.1615 6.71745 19.29 6.5791 19.3877 6.40332C19.4886 6.22428 19.5635 6.0127 19.6123 5.76855C19.6611 5.52441 19.6855 5.25749 19.6855 4.96777V3.92285ZM24.0928 8V0.890625H25.9336C26.4056 0.890625 26.832 0.972005 27.2129 1.13477C27.597 1.29427 27.9242 1.51888 28.1943 1.80859C28.4678 2.09505 28.6777 2.43848 28.8242 2.83887C28.974 3.23926 29.0488 3.67871 29.0488 4.15723V4.74316C29.0488 5.22168 28.974 5.66113 28.8242 6.06152C28.6777 6.45866 28.471 6.80208 28.2041 7.0918C27.9372 7.37826 27.6165 7.60124 27.2422 7.76074C26.8678 7.92025 26.4544 8 26.002 8H24.0928ZM25.4746 2.00391V6.89648H26.002C26.2591 6.89648 26.4886 6.84766 26.6904 6.75C26.8955 6.65234 27.068 6.51074 27.208 6.3252C27.3512 6.13965 27.4603 5.91504 27.5352 5.65137C27.61 5.38444 27.6475 5.08171 27.6475 4.74316V4.14746C27.6475 3.82845 27.61 3.53874 27.5352 3.27832C27.4635 3.01465 27.3545 2.78841 27.208 2.59961C27.0648 2.41081 26.8857 2.26432 26.6709 2.16016C26.4593 2.05599 26.2135 2.00391 25.9336 2.00391H25.4746ZM36.8643 0.890625L36.8691 5.60254C36.8691 5.99967 36.8138 6.35286 36.7031 6.66211C36.5957 6.97135 36.4378 7.2334 36.2295 7.44824C36.0244 7.65983 35.7721 7.82096 35.4727 7.93164C35.1764 8.04232 34.8379 8.09766 34.457 8.09766C34.099 8.09766 33.7751 8.04232 33.4854 7.93164C33.1989 7.82096 32.9531 7.65983 32.748 7.44824C32.543 7.23665 32.3835 6.97624 32.2695 6.66699C32.1589 6.35449 32.1035 5.99967 32.1035 5.60254L32.1084 0.890625H33.4805L33.4854 5.60254C33.4886 6.06152 33.5716 6.4082 33.7344 6.64258C33.9004 6.87695 34.1413 6.99414 34.457 6.99414C34.7923 6.99414 35.0479 6.87695 35.2236 6.64258C35.4027 6.4082 35.4938 6.06152 35.4971 5.60254L35.502 0.890625H36.8643ZM45.0703 5.77344C45.0475 6.13151 44.9694 6.45378 44.8359 6.74023C44.7057 7.02669 44.5299 7.27083 44.3086 7.47266C44.0872 7.67448 43.8236 7.83073 43.5176 7.94141C43.2116 8.04883 42.873 8.10254 42.502 8.10254C42.082 8.10254 41.7093 8.02604 41.3838 7.87305C41.0583 7.7168 40.7848 7.50033 40.5635 7.22363C40.3421 6.94368 40.1729 6.6084 40.0557 6.21777C39.9385 5.82715 39.8799 5.39746 39.8799 4.92871V3.97168C39.8799 3.49967 39.9417 3.06836 40.0654 2.67773C40.1891 2.28711 40.3649 1.95182 40.5928 1.67188C40.8206 1.39193 41.0957 1.17546 41.418 1.02246C41.7435 0.866211 42.1081 0.788086 42.5117 0.788086C42.9023 0.788086 43.249 0.843424 43.5518 0.954102C43.8577 1.06478 44.1182 1.22266 44.333 1.42773C44.5479 1.63281 44.7171 1.88346 44.8408 2.17969C44.9645 2.47591 45.0426 2.80957 45.0752 3.18066H43.708C43.695 2.96908 43.6624 2.78353 43.6104 2.62402C43.5615 2.46452 43.4883 2.33268 43.3906 2.22852C43.2962 2.12109 43.1758 2.04134 43.0293 1.98926C42.8861 1.93392 42.7135 1.90625 42.5117 1.90625C42.3001 1.90625 42.1162 1.95182 41.96 2.04297C41.8037 2.13411 41.6735 2.26758 41.5693 2.44336C41.4684 2.61914 41.3936 2.83561 41.3447 3.09277C41.2959 3.34668 41.2715 3.63639 41.2715 3.96191V4.92871C41.2715 5.62858 41.3691 6.14616 41.5645 6.48145C41.763 6.81673 42.0755 6.98438 42.502 6.98438C42.86 6.98438 43.1432 6.88997 43.3516 6.70117C43.5599 6.50911 43.6755 6.19987 43.6982 5.77344H45.0703ZM53.3643 2.00879H51.1719V8H49.7949V2.00879H47.6318V0.890625H53.3643V2.00879ZM60.9502 5.41211H56.8828V4.31348H60.9502V5.41211ZM69.376 2.00879H67.1836V8H65.8066V2.00879H63.6436V0.890625H69.376V2.00879ZM74.584 4.16699L75.9854 0.890625H77.4941L75.2578 5.53906L75.2529 8H73.8857L73.8809 5.48047L71.6787 0.890625H73.1826L74.584 4.16699ZM81.623 5.39258V8H80.251V0.890625H82.6826C83.07 0.890625 83.4199 0.947591 83.7324 1.06152C84.0449 1.1722 84.3102 1.32845 84.5283 1.53027C84.7497 1.72884 84.9189 1.9681 85.0361 2.24805C85.1566 2.52799 85.2168 2.83887 85.2168 3.18066C85.2168 3.49967 85.1566 3.79427 85.0361 4.06445C84.9189 4.33464 84.7497 4.56901 84.5283 4.76758C84.3102 4.96289 84.0449 5.11589 83.7324 5.22656C83.4199 5.33724 83.07 5.39258 82.6826 5.39258H81.623ZM81.623 4.2793H82.6826C82.8779 4.2793 83.0472 4.25 83.1904 4.19141C83.3337 4.13281 83.4525 4.05306 83.5469 3.95215C83.6445 3.85124 83.7161 3.73568 83.7617 3.60547C83.8105 3.47201 83.835 3.33366 83.835 3.19043C83.835 3.02441 83.8105 2.86979 83.7617 2.72656C83.7161 2.58333 83.6445 2.45801 83.5469 2.35059C83.4525 2.24316 83.3337 2.15853 83.1904 2.09668C83.0472 2.03483 82.8779 2.00391 82.6826 2.00391H81.623V4.2793ZM92.5439 4.88477H89.624V6.8916H93.0371V8H88.2471V0.890625H93.0225V2.00879H89.624V3.80078H92.5439V4.88477Z"/>
</svg>
