<svg width="23" height="9" viewBox="0 0 23 9" xmlns="http://www.w3.org/2000/svg">
<path d="M4.62695 6.51562H2.49316L2.07324 8H0.62793L2.95703 0.890625H4.20215L6.4873 8H5.04199L4.62695 6.51562ZM2.83008 5.34863H4.30469L3.57715 2.73145L2.83008 5.34863ZM14.0244 7.16992C13.9365 7.27734 13.8161 7.38639 13.6631 7.49707C13.5101 7.60775 13.3278 7.70866 13.1162 7.7998C12.9079 7.8877 12.6735 7.95931 12.4131 8.01465C12.1527 8.06999 11.8727 8.09766 11.5732 8.09766C11.1696 8.09766 10.805 8.02604 10.4795 7.88281C10.154 7.73958 9.87565 7.53288 9.64453 7.2627C9.41341 6.99251 9.23438 6.66211 9.10742 6.27148C8.98372 5.8776 8.92188 5.43164 8.92188 4.93359V3.9668C8.92188 3.46875 8.98698 3.02441 9.11719 2.63379C9.25065 2.23991 9.43294 1.90625 9.66406 1.63281C9.89844 1.35938 10.1719 1.15104 10.4844 1.00781C10.8001 0.864583 11.1419 0.792969 11.5098 0.792969C11.9102 0.792969 12.2585 0.843424 12.5547 0.944336C12.8542 1.04525 13.1064 1.19173 13.3115 1.38379C13.5166 1.57259 13.6761 1.80371 13.79 2.07715C13.9072 2.35059 13.9837 2.6582 14.0195 3H12.6816C12.6361 2.63542 12.5254 2.36198 12.3496 2.17969C12.1771 1.99414 11.9085 1.90137 11.5439 1.90137C11.3682 1.90137 11.2054 1.94694 11.0557 2.03809C10.9059 2.12598 10.7757 2.25618 10.665 2.42871C10.5544 2.60124 10.4665 2.81608 10.4014 3.07324C10.3363 3.32715 10.3037 3.62174 10.3037 3.95703V4.93359C10.307 5.59766 10.4176 6.1071 10.6357 6.46191C10.8538 6.81348 11.1875 6.99089 11.6367 6.99414C11.7441 6.99414 11.8499 6.986 11.9541 6.96973C12.0583 6.95345 12.1559 6.93066 12.2471 6.90137C12.3382 6.87207 12.418 6.83952 12.4863 6.80371C12.5579 6.76465 12.6117 6.72396 12.6475 6.68164L12.6523 5.39258H11.4756V4.36719H14.0195L14.0244 7.16992ZM19.4961 6.0127L20.8389 0.890625H22.3525L20.1992 8H18.8027L16.6543 0.890625H18.168L19.4961 6.0127Z"/>
</svg>
