<svg width="39" height="8" viewBox="0 0 39 8" xmlns="http://www.w3.org/2000/svg">
<path d="M3.47852 6.0127L4.82129 0.890625H6.33496L4.18164 8H2.78516L0.636719 0.890625H2.15039L3.47852 6.0127ZM13.8184 8H12.4512L10.4736 3.41504V8H9.0918V0.890625H10.4736L12.4365 5.45605L12.4414 0.890625H13.8184V8ZM20.6328 6.51562H18.499L18.0791 8H16.6338L18.9629 0.890625H20.208L22.4932 8H21.0479L20.6328 6.51562ZM18.8359 5.34863H20.3105L19.583 2.73145L18.8359 5.34863ZM29.9473 5.41211H25.8799V4.31348H29.9473V5.41211ZM35.2676 5.08008L34.5156 5.90527V8H33.1387V0.890625H34.5156V4.14746L35.1602 3.27832L36.8887 0.890625H38.5684L36.1758 4.03516L38.6562 8H37.0254L35.2676 5.08008Z"/>
</svg>
