<svg width="86" height="9" viewBox="0 0 86 9" xmlns="http://www.w3.org/2000/svg">
<path d="M2.51953 5.34375H1.47949V8H0.107422V0.890625H2.49023C2.88411 0.890625 3.24056 0.937826 3.55957 1.03223C3.87858 1.12337 4.15039 1.25846 4.375 1.4375C4.60286 1.61654 4.77702 1.83952 4.89746 2.10645C5.02116 2.37337 5.08301 2.68262 5.08301 3.03418C5.08301 3.28809 5.05208 3.51758 4.99023 3.72266C4.93164 3.92448 4.84538 4.10677 4.73145 4.26953C4.62077 4.42904 4.48568 4.56901 4.32617 4.68945C4.16992 4.8099 3.99414 4.91406 3.79883 5.00195L5.32715 7.93652V8H3.85742L2.51953 5.34375ZM1.47949 4.23047H2.49512C2.88249 4.23047 3.18034 4.13281 3.38867 3.9375C3.60026 3.73893 3.70605 3.46875 3.70605 3.12695C3.70605 2.77214 3.60352 2.49707 3.39844 2.30176C3.19336 2.10319 2.89062 2.00391 2.49023 2.00391H1.47949V4.23047ZM12.4883 4.88477H9.56836V6.8916H12.9814V8H8.19141V0.890625H12.9668V2.00879H9.56836V3.80078H12.4883V4.88477ZM19.6152 6.51562H17.4814L17.0615 8H15.6162L17.9453 0.890625H19.1904L21.4756 8H20.0303L19.6152 6.51562ZM17.8184 5.34863H19.293L18.5654 2.73145L17.8184 5.34863ZM29.0615 5.77344C29.0387 6.13151 28.9606 6.45378 28.8271 6.74023C28.6969 7.02669 28.5212 7.27083 28.2998 7.47266C28.0785 7.67448 27.8148 7.83073 27.5088 7.94141C27.2028 8.04883 26.8643 8.10254 26.4932 8.10254C26.0732 8.10254 25.7005 8.02604 25.375 7.87305C25.0495 7.7168 24.776 7.50033 24.5547 7.22363C24.3333 6.94368 24.1641 6.6084 24.0469 6.21777C23.9297 5.82715 23.8711 5.39746 23.8711 4.92871V3.97168C23.8711 3.49967 23.9329 3.06836 24.0566 2.67773C24.1803 2.28711 24.3561 1.95182 24.584 1.67188C24.8118 1.39193 25.0869 1.17546 25.4092 1.02246C25.7347 0.866211 26.0993 0.788086 26.5029 0.788086C26.8936 0.788086 27.2402 0.843424 27.543 0.954102C27.849 1.06478 28.1094 1.22266 28.3242 1.42773C28.5391 1.63281 28.7083 1.88346 28.832 2.17969C28.9557 2.47591 29.0339 2.80957 29.0664 3.18066H27.6992C27.6862 2.96908 27.6536 2.78353 27.6016 2.62402C27.5527 2.46452 27.4795 2.33268 27.3818 2.22852C27.2874 2.12109 27.167 2.04134 27.0205 1.98926C26.8773 1.93392 26.7048 1.90625 26.5029 1.90625C26.2913 1.90625 26.1074 1.95182 25.9512 2.04297C25.7949 2.13411 25.6647 2.26758 25.5605 2.44336C25.4596 2.61914 25.3848 2.83561 25.3359 3.09277C25.2871 3.34668 25.2627 3.63639 25.2627 3.96191V4.92871C25.2627 5.62858 25.3604 6.14616 25.5557 6.48145C25.7542 6.81673 26.0667 6.98438 26.4932 6.98438C26.8512 6.98438 27.1344 6.88997 27.3428 6.70117C27.5511 6.50911 27.6667 6.19987 27.6895 5.77344H29.0615ZM36.8232 8H35.4658V4.91895H33.4541V8H32.0918V0.890625H33.4541V3.80566H35.4658V0.890625H36.8232V8ZM44.9414 5.41211H40.874V4.31348H44.9414V5.41211ZM53.3672 2.00879H51.1748V8H49.7979V2.00879H47.6348V0.890625H53.3672V2.00879ZM58.5605 5.34375H57.5205V8H56.1484V0.890625H58.5312C58.9251 0.890625 59.2816 0.937826 59.6006 1.03223C59.9196 1.12337 60.1914 1.25846 60.416 1.4375C60.6439 1.61654 60.818 1.83952 60.9385 2.10645C61.0622 2.37337 61.124 2.68262 61.124 3.03418C61.124 3.28809 61.0931 3.51758 61.0312 3.72266C60.9727 3.92448 60.8864 4.10677 60.7725 4.26953C60.6618 4.42904 60.5267 4.56901 60.3672 4.68945C60.2109 4.8099 60.0352 4.91406 59.8398 5.00195L61.3682 7.93652V8H59.8984L58.5605 5.34375ZM57.5205 4.23047H58.5361C58.9235 4.23047 59.2214 4.13281 59.4297 3.9375C59.6413 3.73893 59.7471 3.46875 59.7471 3.12695C59.7471 2.77214 59.6445 2.49707 59.4395 2.30176C59.2344 2.10319 58.9316 2.00391 58.5312 2.00391H57.5205V4.23047ZM68.8906 0.890625L68.8955 5.60254C68.8955 5.99967 68.8402 6.35286 68.7295 6.66211C68.6221 6.97135 68.4642 7.2334 68.2559 7.44824C68.0508 7.65983 67.7985 7.82096 67.499 7.93164C67.2028 8.04232 66.8643 8.09766 66.4834 8.09766C66.1253 8.09766 65.8014 8.04232 65.5117 7.93164C65.2253 7.82096 64.9795 7.65983 64.7744 7.44824C64.5693 7.23665 64.4098 6.97624 64.2959 6.66699C64.1852 6.35449 64.1299 5.99967 64.1299 5.60254L64.1348 0.890625H65.5068L65.5117 5.60254C65.515 6.06152 65.598 6.4082 65.7607 6.64258C65.9268 6.87695 66.1676 6.99414 66.4834 6.99414C66.8187 6.99414 67.0742 6.87695 67.25 6.64258C67.429 6.4082 67.5202 6.06152 67.5234 5.60254L67.5283 0.890625H68.8906ZM77.0967 5.77344C77.0739 6.13151 76.9958 6.45378 76.8623 6.74023C76.7321 7.02669 76.5563 7.27083 76.335 7.47266C76.1136 7.67448 75.8499 7.83073 75.5439 7.94141C75.238 8.04883 74.8994 8.10254 74.5283 8.10254C74.1084 8.10254 73.7357 8.02604 73.4102 7.87305C73.0846 7.7168 72.8112 7.50033 72.5898 7.22363C72.3685 6.94368 72.1992 6.6084 72.082 6.21777C71.9648 5.82715 71.9062 5.39746 71.9062 4.92871V3.97168C71.9062 3.49967 71.9681 3.06836 72.0918 2.67773C72.2155 2.28711 72.3913 1.95182 72.6191 1.67188C72.847 1.39193 73.1221 1.17546 73.4443 1.02246C73.7699 0.866211 74.1344 0.788086 74.5381 0.788086C74.9287 0.788086 75.2754 0.843424 75.5781 0.954102C75.8841 1.06478 76.1445 1.22266 76.3594 1.42773C76.5742 1.63281 76.7435 1.88346 76.8672 2.17969C76.9909 2.47591 77.069 2.80957 77.1016 3.18066H75.7344C75.7214 2.96908 75.6888 2.78353 75.6367 2.62402C75.5879 2.46452 75.5146 2.33268 75.417 2.22852C75.3226 2.12109 75.2021 2.04134 75.0557 1.98926C74.9124 1.93392 74.7399 1.90625 74.5381 1.90625C74.3265 1.90625 74.1426 1.95182 73.9863 2.04297C73.8301 2.13411 73.6999 2.26758 73.5957 2.44336C73.4948 2.61914 73.4199 2.83561 73.3711 3.09277C73.3223 3.34668 73.2979 3.63639 73.2979 3.96191V4.92871C73.2979 5.62858 73.3955 6.14616 73.5908 6.48145C73.7894 6.81673 74.1019 6.98438 74.5283 6.98438C74.8864 6.98438 75.1696 6.88997 75.3779 6.70117C75.5863 6.50911 75.7018 6.19987 75.7246 5.77344H77.0967ZM82.2852 5.08008L81.5332 5.90527V8H80.1562V0.890625H81.5332V4.14746L82.1777 3.27832L83.9062 0.890625H85.5859L83.1934 4.03516L85.6738 8H84.043L82.2852 5.08008Z"/>
</svg>
