<svg width="55" height="9" viewBox="0 0 55 9" xmlns="http://www.w3.org/2000/svg">
<path d="M6.34375 2.00879H4.15137V8H2.77441V2.00879H0.611328V0.890625H6.34375V2.00879ZM11.5371 5.34375H10.4971V8H9.125V0.890625H11.5078C11.9017 0.890625 12.2581 0.937826 12.5771 1.03223C12.8962 1.12337 13.168 1.25846 13.3926 1.4375C13.6204 1.61654 13.7946 1.83952 13.915 2.10645C14.0387 2.37337 14.1006 2.68262 14.1006 3.03418C14.1006 3.28809 14.0697 3.51758 14.0078 3.72266C13.9492 3.92448 13.863 4.10677 13.749 4.26953C13.6383 4.42904 13.5033 4.56901 13.3438 4.68945C13.1875 4.8099 13.0117 4.91406 12.8164 5.00195L14.3447 7.93652V8H12.875L11.5371 5.34375ZM10.4971 4.23047H11.5127C11.9001 4.23047 12.1979 4.13281 12.4062 3.9375C12.6178 3.73893 12.7236 3.46875 12.7236 3.12695C12.7236 2.77214 12.6211 2.49707 12.416 2.30176C12.2109 2.10319 11.9082 2.00391 11.5078 2.00391H10.4971V4.23047ZM20.627 6.51562H18.4932L18.0732 8H16.6279L18.957 0.890625H20.2021L22.4873 8H21.042L20.627 6.51562ZM18.8301 5.34863H20.3047L19.5771 2.73145L18.8301 5.34863ZM30.0732 5.77344C30.0505 6.13151 29.9723 6.45378 29.8389 6.74023C29.7087 7.02669 29.5329 7.27083 29.3115 7.47266C29.0902 7.67448 28.8265 7.83073 28.5205 7.94141C28.2145 8.04883 27.876 8.10254 27.5049 8.10254C27.085 8.10254 26.7122 8.02604 26.3867 7.87305C26.0612 7.7168 25.7878 7.50033 25.5664 7.22363C25.3451 6.94368 25.1758 6.6084 25.0586 6.21777C24.9414 5.82715 24.8828 5.39746 24.8828 4.92871V3.97168C24.8828 3.49967 24.9447 3.06836 25.0684 2.67773C25.1921 2.28711 25.3678 1.95182 25.5957 1.67188C25.8236 1.39193 26.0986 1.17546 26.4209 1.02246C26.7464 0.866211 27.111 0.788086 27.5146 0.788086C27.9053 0.788086 28.252 0.843424 28.5547 0.954102C28.8607 1.06478 29.1211 1.22266 29.3359 1.42773C29.5508 1.63281 29.7201 1.88346 29.8438 2.17969C29.9674 2.47591 30.0456 2.80957 30.0781 3.18066H28.7109C28.6979 2.96908 28.6654 2.78353 28.6133 2.62402C28.5645 2.46452 28.4912 2.33268 28.3936 2.22852C28.2992 2.12109 28.1787 2.04134 28.0322 1.98926C27.889 1.93392 27.7165 1.90625 27.5146 1.90625C27.3031 1.90625 27.1191 1.95182 26.9629 2.04297C26.8066 2.13411 26.6764 2.26758 26.5723 2.44336C26.4714 2.61914 26.3965 2.83561 26.3477 3.09277C26.2988 3.34668 26.2744 3.63639 26.2744 3.96191V4.92871C26.2744 5.62858 26.3721 6.14616 26.5674 6.48145C26.766 6.81673 27.0785 6.98438 27.5049 6.98438C27.863 6.98438 28.1462 6.88997 28.3545 6.70117C28.5628 6.50911 28.6784 6.19987 28.7012 5.77344H30.0732ZM38.3672 2.00879H36.1748V8H34.7979V2.00879H32.6348V0.890625H38.3672V2.00879ZM46.1094 4.96777C46.1094 5.4235 46.0492 5.84342 45.9287 6.22754C45.8083 6.61165 45.6341 6.94206 45.4062 7.21875C45.1784 7.49544 44.9001 7.71191 44.5713 7.86816C44.2458 8.02116 43.8779 8.09766 43.4678 8.09766C43.0576 8.09766 42.693 8.02116 42.374 7.86816C42.055 7.71191 41.7865 7.49544 41.5684 7.21875C41.3503 6.9388 41.1842 6.6084 41.0703 6.22754C40.9564 5.84342 40.8994 5.4235 40.8994 4.96777V3.93262C40.8994 3.47689 40.9564 3.05697 41.0703 2.67285C41.1842 2.28874 41.3503 1.95833 41.5684 1.68164C41.7865 1.40169 42.0534 1.18359 42.3691 1.02734C42.6882 0.871094 43.0527 0.792969 43.4629 0.792969C43.8763 0.792969 44.2458 0.871094 44.5713 1.02734C44.9001 1.18359 45.1784 1.40169 45.4062 1.68164C45.6341 1.95833 45.8083 2.28874 45.9287 2.67285C46.0492 3.05697 46.1094 3.47689 46.1094 3.93262V4.96777ZM44.7178 3.92285C44.7178 3.63314 44.6934 3.36621 44.6445 3.12207C44.599 2.87793 44.5257 2.66797 44.4248 2.49219C44.3239 2.31641 44.1937 2.17969 44.0342 2.08203C43.8779 1.98112 43.6875 1.93066 43.4629 1.93066C43.2415 1.93066 43.056 1.98112 42.9062 2.08203C42.7565 2.17969 42.6361 2.31641 42.5449 2.49219C42.4538 2.66797 42.3887 2.87793 42.3496 3.12207C42.3105 3.36621 42.291 3.63314 42.291 3.92285V4.96777C42.291 5.25423 42.3105 5.51953 42.3496 5.76367C42.3887 6.00781 42.4538 6.2194 42.5449 6.39844C42.6361 6.57747 42.7565 6.71745 42.9062 6.81836C43.056 6.91927 43.2432 6.96973 43.4678 6.96973C43.6891 6.96973 43.8779 6.91927 44.0342 6.81836C44.1937 6.71745 44.3223 6.5791 44.4199 6.40332C44.5208 6.22428 44.5957 6.0127 44.6445 5.76855C44.6934 5.52441 44.7178 5.25749 44.7178 4.96777V3.92285ZM51.5664 5.34375H50.5264V8H49.1543V0.890625H51.5371C51.931 0.890625 52.2874 0.937826 52.6064 1.03223C52.9255 1.12337 53.1973 1.25846 53.4219 1.4375C53.6497 1.61654 53.8239 1.83952 53.9443 2.10645C54.068 2.37337 54.1299 2.68262 54.1299 3.03418C54.1299 3.28809 54.099 3.51758 54.0371 3.72266C53.9785 3.92448 53.8923 4.10677 53.7783 4.26953C53.6676 4.42904 53.5326 4.56901 53.373 4.68945C53.2168 4.8099 53.041 4.91406 52.8457 5.00195L54.374 7.93652V8H52.9043L51.5664 5.34375ZM50.5264 4.23047H51.542C51.9294 4.23047 52.2272 4.13281 52.4355 3.9375C52.6471 3.73893 52.7529 3.46875 52.7529 3.12695C52.7529 2.77214 52.6504 2.49707 52.4453 2.30176C52.2402 2.10319 51.9375 2.00391 51.5371 2.00391H50.5264V4.23047Z"/>
</svg>
