<svg width="94" height="30" viewBox="0 0 94 30" xmlns="http://www.w3.org/2000/svg">
<path d="M1.56445 5.39258V8H0.192383V0.890625H2.62402C3.01139 0.890625 3.36133 0.947591 3.67383 1.06152C3.98633 1.1722 4.25163 1.32845 4.46973 1.53027C4.69108 1.72884 4.86035 1.9681 4.97754 2.24805C5.09798 2.52799 5.1582 2.83887 5.1582 3.18066C5.1582 3.49967 5.09798 3.79427 4.97754 4.06445C4.86035 4.33464 4.69108 4.56901 4.46973 4.76758C4.25163 4.96289 3.98633 5.11589 3.67383 5.22656C3.36133 5.33724 3.01139 5.39258 2.62402 5.39258H1.56445ZM1.56445 4.2793H2.62402C2.81934 4.2793 2.98861 4.25 3.13184 4.19141C3.27507 4.13281 3.39388 4.05306 3.48828 3.95215C3.58594 3.85124 3.65755 3.73568 3.70312 3.60547C3.75195 3.47201 3.77637 3.33366 3.77637 3.19043C3.77637 3.02441 3.75195 2.86979 3.70312 2.72656C3.65755 2.58333 3.58594 2.45801 3.48828 2.35059C3.39388 2.24316 3.27507 2.15853 3.13184 2.09668C2.98861 2.03483 2.81934 2.00391 2.62402 2.00391H1.56445V4.2793ZM11.6064 6.51562H9.47266L9.05273 8H7.60742L9.93652 0.890625H11.1816L13.4668 8H12.0215L11.6064 6.51562ZM9.80957 5.34863H11.2842L10.5566 2.73145L9.80957 5.34863ZM17.5859 6.8916H20.916V8H16.209V0.890625H17.5859V6.8916ZM25.5918 6.8916H28.9219V8H24.2148V0.890625H25.5918V6.8916ZM36.5029 4.88477H33.583V6.8916H36.9961V8H32.2061V0.890625H36.9814V2.00879H33.583V3.80078H36.5029V4.88477ZM45.3584 2.00879H43.166V8H41.7891V2.00879H39.626V0.890625H45.3584V2.00879ZM52.9443 5.41211H48.877V4.31348H52.9443V5.41211ZM61.3701 2.00879H59.1777V8H57.8008V2.00879H55.6377V0.890625H61.3701V2.00879ZM66.5635 5.34375H65.5234V8H64.1514V0.890625H66.5342C66.9281 0.890625 67.2845 0.937826 67.6035 1.03223C67.9225 1.12337 68.1943 1.25846 68.4189 1.4375C68.6468 1.61654 68.821 1.83952 68.9414 2.10645C69.0651 2.37337 69.127 2.68262 69.127 3.03418C69.127 3.28809 69.096 3.51758 69.0342 3.72266C68.9756 3.92448 68.8893 4.10677 68.7754 4.26953C68.6647 4.42904 68.5296 4.56901 68.3701 4.68945C68.2139 4.8099 68.0381 4.91406 67.8428 5.00195L69.3711 7.93652V8H67.9014L66.5635 5.34375ZM65.5234 4.23047H66.5391C66.9264 4.23047 67.2243 4.13281 67.4326 3.9375C67.6442 3.73893 67.75 3.46875 67.75 3.12695C67.75 2.77214 67.6475 2.49707 67.4424 2.30176C67.2373 2.10319 66.9346 2.00391 66.5342 2.00391H65.5234V4.23047ZM76.8936 0.890625L76.8984 5.60254C76.8984 5.99967 76.8431 6.35286 76.7324 6.66211C76.625 6.97135 76.4671 7.2334 76.2588 7.44824C76.0537 7.65983 75.8014 7.82096 75.502 7.93164C75.2057 8.04232 74.8672 8.09766 74.4863 8.09766C74.1283 8.09766 73.8044 8.04232 73.5146 7.93164C73.2282 7.82096 72.9824 7.65983 72.7773 7.44824C72.5723 7.23665 72.4128 6.97624 72.2988 6.66699C72.1882 6.35449 72.1328 5.99967 72.1328 5.60254L72.1377 0.890625H73.5098L73.5146 5.60254C73.5179 6.06152 73.6009 6.4082 73.7637 6.64258C73.9297 6.87695 74.1706 6.99414 74.4863 6.99414C74.8216 6.99414 75.0771 6.87695 75.2529 6.64258C75.432 6.4082 75.5231 6.06152 75.5264 5.60254L75.5312 0.890625H76.8936ZM85.0996 5.77344C85.0768 6.13151 84.9987 6.45378 84.8652 6.74023C84.735 7.02669 84.5592 7.27083 84.3379 7.47266C84.1165 7.67448 83.8529 7.83073 83.5469 7.94141C83.2409 8.04883 82.9023 8.10254 82.5312 8.10254C82.1113 8.10254 81.7386 8.02604 81.4131 7.87305C81.0876 7.7168 80.8141 7.50033 80.5928 7.22363C80.3714 6.94368 80.2021 6.6084 80.085 6.21777C79.9678 5.82715 79.9092 5.39746 79.9092 4.92871V3.97168C79.9092 3.49967 79.971 3.06836 80.0947 2.67773C80.2184 2.28711 80.3942 1.95182 80.6221 1.67188C80.8499 1.39193 81.125 1.17546 81.4473 1.02246C81.7728 0.866211 82.1374 0.788086 82.541 0.788086C82.9316 0.788086 83.2783 0.843424 83.5811 0.954102C83.887 1.06478 84.1475 1.22266 84.3623 1.42773C84.5771 1.63281 84.7464 1.88346 84.8701 2.17969C84.9938 2.47591 85.0719 2.80957 85.1045 3.18066H83.7373C83.7243 2.96908 83.6917 2.78353 83.6396 2.62402C83.5908 2.46452 83.5176 2.33268 83.4199 2.22852C83.3255 2.12109 83.2051 2.04134 83.0586 1.98926C82.9154 1.93392 82.7428 1.90625 82.541 1.90625C82.3294 1.90625 82.1455 1.95182 81.9893 2.04297C81.833 2.13411 81.7028 2.26758 81.5986 2.44336C81.4977 2.61914 81.4229 2.83561 81.374 3.09277C81.3252 3.34668 81.3008 3.63639 81.3008 3.96191V4.92871C81.3008 5.62858 81.3984 6.14616 81.5938 6.48145C81.7923 6.81673 82.1048 6.98438 82.5312 6.98438C82.8893 6.98438 83.1725 6.88997 83.3809 6.70117C83.5892 6.50911 83.7048 6.19987 83.7275 5.77344H85.0996ZM90.2881 5.08008L89.5361 5.90527V8H88.1592V0.890625H89.5361V4.14746L90.1807 3.27832L91.9092 0.890625H93.5889L91.1963 4.03516L93.6768 8H92.0459L90.2881 5.08008ZM28.9268 27.4121H24.8594V26.3135H28.9268V27.4121ZM34.54 27.3438H33.5V30H32.1279V22.8906H34.5107C34.9046 22.8906 35.2611 22.9378 35.5801 23.0322C35.8991 23.1234 36.1709 23.2585 36.3955 23.4375C36.6234 23.6165 36.7975 23.8395 36.918 24.1064C37.0417 24.3734 37.1035 24.6826 37.1035 25.0342C37.1035 25.2881 37.0726 25.5176 37.0107 25.7227C36.9521 25.9245 36.8659 26.1068 36.752 26.2695C36.6413 26.429 36.5062 26.569 36.3467 26.6895C36.1904 26.8099 36.0146 26.9141 35.8193 27.002L37.3477 29.9365V30H35.8779L34.54 27.3438ZM33.5 26.2305H34.5156C34.903 26.2305 35.2008 26.1328 35.4092 25.9375C35.6208 25.7389 35.7266 25.4688 35.7266 25.127C35.7266 24.7721 35.624 24.4971 35.4189 24.3018C35.2139 24.1032 34.9111 24.0039 34.5107 24.0039H33.5V26.2305ZM40.4365 22.8906H44.5479V23.999H43.1611V28.8965H44.5479V30H40.4365V28.8965H41.7891V23.999H40.4365V22.8906ZM48.1104 30V22.8906H49.9512C50.4232 22.8906 50.8496 22.972 51.2305 23.1348C51.6146 23.2943 51.9417 23.5189 52.2119 23.8086C52.4854 24.0951 52.6953 24.4385 52.8418 24.8389C52.9915 25.2393 53.0664 25.6787 53.0664 26.1572V26.7432C53.0664 27.2217 52.9915 27.6611 52.8418 28.0615C52.6953 28.4587 52.4886 28.8021 52.2217 29.0918C51.9548 29.3783 51.6341 29.6012 51.2598 29.7607C50.8854 29.9202 50.472 30 50.0195 30H48.1104ZM49.4922 24.0039V28.8965H50.0195C50.2767 28.8965 50.5062 28.8477 50.708 28.75C50.9131 28.6523 51.0856 28.5107 51.2256 28.3252C51.3688 28.1396 51.4779 27.915 51.5527 27.6514C51.6276 27.3844 51.665 27.0817 51.665 26.7432V26.1475C51.665 25.8285 51.6276 25.5387 51.5527 25.2783C51.4811 25.0146 51.3721 24.7884 51.2256 24.5996C51.0824 24.4108 50.9033 24.2643 50.6885 24.1602C50.4769 24.056 50.2311 24.0039 49.9512 24.0039H49.4922ZM60.5205 26.8848H57.6006V28.8916H61.0137V30H56.2236V22.8906H60.999V24.0088H57.6006V25.8008H60.5205V26.8848ZM66.5635 27.3438H65.5234V30H64.1514V22.8906H66.5342C66.9281 22.8906 67.2845 22.9378 67.6035 23.0322C67.9225 23.1234 68.1943 23.2585 68.4189 23.4375C68.6468 23.6165 68.821 23.8395 68.9414 24.1064C69.0651 24.3734 69.127 24.6826 69.127 25.0342C69.127 25.2881 69.096 25.5176 69.0342 25.7227C68.9756 25.9245 68.8893 26.1068 68.7754 26.2695C68.6647 26.429 68.5296 26.569 68.3701 26.6895C68.2139 26.8099 68.0381 26.9141 67.8428 27.002L69.3711 29.9365V30H67.9014L66.5635 27.3438ZM65.5234 26.2305H66.5391C66.9264 26.2305 67.2243 26.1328 67.4326 25.9375C67.6442 25.7389 67.75 25.4688 67.75 25.127C67.75 24.7721 67.6475 24.4971 67.4424 24.3018C67.2373 24.1032 66.9346 24.0039 66.5342 24.0039H65.5234V26.2305Z"/>
</svg>
