<svg width="95" height="9" viewBox="0 0 95 9" xmlns="http://www.w3.org/2000/svg">
<path d="M6.06543 4.96777C6.06543 5.4235 6.00521 5.84342 5.88477 6.22754C5.76432 6.61165 5.59017 6.94206 5.3623 7.21875C5.13444 7.49544 4.85612 7.71191 4.52734 7.86816C4.20182 8.02116 3.83398 8.09766 3.42383 8.09766C3.01367 8.09766 2.64909 8.02116 2.33008 7.86816C2.01107 7.71191 1.74251 7.49544 1.52441 7.21875C1.30632 6.9388 1.1403 6.6084 1.02637 6.22754C0.912435 5.84342 0.855469 5.4235 0.855469 4.96777V3.93262C0.855469 3.47689 0.912435 3.05697 1.02637 2.67285C1.1403 2.28874 1.30632 1.95833 1.52441 1.68164C1.74251 1.40169 2.00944 1.18359 2.3252 1.02734C2.64421 0.871094 3.00879 0.792969 3.41895 0.792969C3.83236 0.792969 4.20182 0.871094 4.52734 1.02734C4.85612 1.18359 5.13444 1.40169 5.3623 1.68164C5.59017 1.95833 5.76432 2.28874 5.88477 2.67285C6.00521 3.05697 6.06543 3.47689 6.06543 3.93262V4.96777ZM4.67383 3.92285C4.67383 3.63314 4.64941 3.36621 4.60059 3.12207C4.55501 2.87793 4.48177 2.66797 4.38086 2.49219C4.27995 2.31641 4.14974 2.17969 3.99023 2.08203C3.83398 1.98112 3.64355 1.93066 3.41895 1.93066C3.19759 1.93066 3.01204 1.98112 2.8623 2.08203C2.71257 2.17969 2.59212 2.31641 2.50098 2.49219C2.40983 2.66797 2.34473 2.87793 2.30566 3.12207C2.2666 3.36621 2.24707 3.63314 2.24707 3.92285V4.96777C2.24707 5.25423 2.2666 5.51953 2.30566 5.76367C2.34473 6.00781 2.40983 6.2194 2.50098 6.39844C2.59212 6.57747 2.71257 6.71745 2.8623 6.81836C3.01204 6.91927 3.19922 6.96973 3.42383 6.96973C3.64518 6.96973 3.83398 6.91927 3.99023 6.81836C4.14974 6.71745 4.27832 6.5791 4.37598 6.40332C4.47689 6.22428 4.55176 6.0127 4.60059 5.76855C4.64941 5.52441 4.67383 5.25749 4.67383 4.96777V3.92285ZM11.5225 5.34375H10.4824V8H9.11035V0.890625H11.4932C11.887 0.890625 12.2435 0.937826 12.5625 1.03223C12.8815 1.12337 13.1533 1.25846 13.3779 1.4375C13.6058 1.61654 13.7799 1.83952 13.9004 2.10645C14.0241 2.37337 14.0859 2.68262 14.0859 3.03418C14.0859 3.28809 14.055 3.51758 13.9932 3.72266C13.9346 3.92448 13.8483 4.10677 13.7344 4.26953C13.6237 4.42904 13.4886 4.56901 13.3291 4.68945C13.1729 4.8099 12.9971 4.91406 12.8018 5.00195L14.3301 7.93652V8H12.8604L11.5225 5.34375ZM10.4824 4.23047H11.498C11.8854 4.23047 12.1833 4.13281 12.3916 3.9375C12.6032 3.73893 12.709 3.46875 12.709 3.12695C12.709 2.77214 12.6064 2.49707 12.4014 2.30176C12.1963 2.10319 11.8936 2.00391 11.4932 2.00391H10.4824V4.23047ZM17.0869 8V0.890625H18.9277C19.3997 0.890625 19.8262 0.972005 20.207 1.13477C20.5911 1.29427 20.9183 1.51888 21.1885 1.80859C21.4619 2.09505 21.6719 2.43848 21.8184 2.83887C21.9681 3.23926 22.043 3.67871 22.043 4.15723V4.74316C22.043 5.22168 21.9681 5.66113 21.8184 6.06152C21.6719 6.45866 21.4652 6.80208 21.1982 7.0918C20.9313 7.37826 20.6107 7.60124 20.2363 7.76074C19.862 7.92025 19.4486 8 18.9961 8H17.0869ZM18.4688 2.00391V6.89648H18.9961C19.2533 6.89648 19.4827 6.84766 19.6846 6.75C19.8896 6.65234 20.0622 6.51074 20.2021 6.3252C20.3454 6.13965 20.4544 5.91504 20.5293 5.65137C20.6042 5.38444 20.6416 5.08171 20.6416 4.74316V4.14746C20.6416 3.82845 20.6042 3.53874 20.5293 3.27832C20.4577 3.01465 20.3486 2.78841 20.2021 2.59961C20.0589 2.41081 19.8799 2.26432 19.665 2.16016C19.4535 2.05599 19.2077 2.00391 18.9277 2.00391H18.4688ZM29.4971 4.88477H26.5771V6.8916H29.9902V8H25.2002V0.890625H29.9756V2.00879H26.5771V3.80078H29.4971V4.88477ZM35.54 5.34375H34.5V8H33.1279V0.890625H35.5107C35.9046 0.890625 36.2611 0.937826 36.5801 1.03223C36.8991 1.12337 37.1709 1.25846 37.3955 1.4375C37.6234 1.61654 37.7975 1.83952 37.918 2.10645C38.0417 2.37337 38.1035 2.68262 38.1035 3.03418C38.1035 3.28809 38.0726 3.51758 38.0107 3.72266C37.9521 3.92448 37.8659 4.10677 37.752 4.26953C37.6413 4.42904 37.5062 4.56901 37.3467 4.68945C37.1904 4.8099 37.0146 4.91406 36.8193 5.00195L38.3477 7.93652V8H36.8779L35.54 5.34375ZM34.5 4.23047H35.5156C35.903 4.23047 36.2008 4.13281 36.4092 3.9375C36.6208 3.73893 36.7266 3.46875 36.7266 3.12695C36.7266 2.77214 36.624 2.49707 36.4189 2.30176C36.2139 2.10319 35.9111 2.00391 35.5107 2.00391H34.5V4.23047ZM50.5996 5.39258V8H49.2275V0.890625H51.6592C52.0465 0.890625 52.3965 0.947591 52.709 1.06152C53.0215 1.1722 53.2868 1.32845 53.5049 1.53027C53.7262 1.72884 53.8955 1.9681 54.0127 2.24805C54.1331 2.52799 54.1934 2.83887 54.1934 3.18066C54.1934 3.49967 54.1331 3.79427 54.0127 4.06445C53.8955 4.33464 53.7262 4.56901 53.5049 4.76758C53.2868 4.96289 53.0215 5.11589 52.709 5.22656C52.3965 5.33724 52.0465 5.39258 51.6592 5.39258H50.5996ZM50.5996 4.2793H51.6592C51.8545 4.2793 52.0238 4.25 52.167 4.19141C52.3102 4.13281 52.429 4.05306 52.5234 3.95215C52.6211 3.85124 52.6927 3.73568 52.7383 3.60547C52.7871 3.47201 52.8115 3.33366 52.8115 3.19043C52.8115 3.02441 52.7871 2.86979 52.7383 2.72656C52.6927 2.58333 52.6211 2.45801 52.5234 2.35059C52.429 2.24316 52.3102 2.15853 52.167 2.09668C52.0238 2.03483 51.8545 2.00391 51.6592 2.00391H50.5996V4.2793ZM57.4482 0.890625H61.5596V1.99902H60.1729V6.89648H61.5596V8H57.4482V6.89648H58.8008V1.99902H57.4482V0.890625ZM70.0879 5.77344C70.0651 6.13151 69.987 6.45378 69.8535 6.74023C69.7233 7.02669 69.5475 7.27083 69.3262 7.47266C69.1048 7.67448 68.8411 7.83073 68.5352 7.94141C68.2292 8.04883 67.8906 8.10254 67.5195 8.10254C67.0996 8.10254 66.7269 8.02604 66.4014 7.87305C66.0758 7.7168 65.8024 7.50033 65.5811 7.22363C65.3597 6.94368 65.1904 6.6084 65.0732 6.21777C64.9561 5.82715 64.8975 5.39746 64.8975 4.92871V3.97168C64.8975 3.49967 64.9593 3.06836 65.083 2.67773C65.2067 2.28711 65.3825 1.95182 65.6104 1.67188C65.8382 1.39193 66.1133 1.17546 66.4355 1.02246C66.7611 0.866211 67.1257 0.788086 67.5293 0.788086C67.9199 0.788086 68.2666 0.843424 68.5693 0.954102C68.8753 1.06478 69.1357 1.22266 69.3506 1.42773C69.5654 1.63281 69.7347 1.88346 69.8584 2.17969C69.9821 2.47591 70.0602 2.80957 70.0928 3.18066H68.7256C68.7126 2.96908 68.68 2.78353 68.6279 2.62402C68.5791 2.46452 68.5059 2.33268 68.4082 2.22852C68.3138 2.12109 68.1934 2.04134 68.0469 1.98926C67.9036 1.93392 67.7311 1.90625 67.5293 1.90625C67.3177 1.90625 67.1338 1.95182 66.9775 2.04297C66.8213 2.13411 66.6911 2.26758 66.5869 2.44336C66.486 2.61914 66.4111 2.83561 66.3623 3.09277C66.3135 3.34668 66.2891 3.63639 66.2891 3.96191V4.92871C66.2891 5.62858 66.3867 6.14616 66.582 6.48145C66.7806 6.81673 67.0931 6.98438 67.5195 6.98438C67.8776 6.98438 68.1608 6.88997 68.3691 6.70117C68.5775 6.50911 68.693 6.19987 68.7158 5.77344H70.0879ZM75.2764 5.08008L74.5244 5.90527V8H73.1475V0.890625H74.5244V4.14746L75.1689 3.27832L76.8975 0.890625H78.5771L76.1846 4.03516L78.665 8H77.0342L75.2764 5.08008ZM85.5381 4.88477H82.6182V6.8916H86.0312V8H81.2412V0.890625H86.0166V2.00879H82.6182V3.80078H85.5381V4.88477ZM91.5811 5.34375H90.541V8H89.1689V0.890625H91.5518C91.9456 0.890625 92.3021 0.937826 92.6211 1.03223C92.9401 1.12337 93.2119 1.25846 93.4365 1.4375C93.6644 1.61654 93.8385 1.83952 93.959 2.10645C94.0827 2.37337 94.1445 2.68262 94.1445 3.03418C94.1445 3.28809 94.1136 3.51758 94.0518 3.72266C93.9932 3.92448 93.9069 4.10677 93.793 4.26953C93.6823 4.42904 93.5472 4.56901 93.3877 4.68945C93.2314 4.8099 93.0557 4.91406 92.8604 5.00195L94.3887 7.93652V8H92.9189L91.5811 5.34375ZM90.541 4.23047H91.5566C91.944 4.23047 92.2419 4.13281 92.4502 3.9375C92.6618 3.73893 92.7676 3.46875 92.7676 3.12695C92.7676 2.77214 92.665 2.49707 92.46 2.30176C92.2549 2.10319 91.9521 2.00391 91.5518 2.00391H90.541V4.23047Z"/>
</svg>
