<svg width="38" height="8" viewBox="0 0 38 8" xmlns="http://www.w3.org/2000/svg">
<path d="M4.63672 5.05566H1.58984V8H0.212891V0.890625H5.01758V2.00879H1.58984V3.94238H4.63672V5.05566ZM9.60059 6.8916H12.9307V8H8.22363V0.890625H9.60059V6.8916ZM20.5117 4.88477H17.5918V6.8916H21.0049V8H16.2148V0.890625H20.9902V2.00879H17.5918V3.80078H20.5117V4.88477ZM28.5176 4.88477H25.5977V6.8916H29.0107V8H24.2207V0.890625H28.9961V2.00879H25.5977V3.80078H28.5176V4.88477ZM37.373 2.00879H35.1807V8H33.8037V2.00879H31.6406V0.890625H37.373V2.00879Z"/>
</svg>
