<svg width="32" height="32" viewBox="0 0 32 32" xmlns="http://www.w3.org/2000/svg">
<g>
<g>
<path d="M32 19.14C32 17.46 31.17 15.91 29.77 14.98L28.9 14.4L27.57 7.1C27.15 4.73 24.92 3 22.5 3H5V26H0V28H7V25.03V5H12.82L10.13 21.13C8.34 21.53 7 23.12 7 25.03C7 27.23 8.79 29 11 29C12.86 29 14.41 27.75 14.86 26.03H24.14C24.59 27.75 26.14 29 28 29C30.21 29 32 27.23 32 25.03C32 25.02 32 25.01 32 25V19.14ZM30 19.14V21.58C29.41 21.24 28.73 21.02 28 21.02C26.14 21.02 24.59 22.3 24.14 24.02H14.86C14.78 23.71 14.66 23.42 14.52 23.15L15.34 21.44C15.6 20.91 16.15 20.37 16.52 20.18C16.89 19.99 27.87 16.1 27.87 16.1L28.67 16.63C29.5 17.2 30 18.14 30 19.14ZM25.61 7.46L26.86 14.34L23 15.73V5C24.3 5.15 25.37 6.15 25.61 7.46ZM14.85 5H21V16.45L15.76 18.33C15.71 18.35 15.66 18.37 15.62 18.39C14.72 18.88 14 19.63 13.54 20.56L13.04 21.6C12.76 21.43 12.46 21.3 12.15 21.21L14.85 5ZM13 25.03C13 26.13 12.1 27.03 11 27.03C9.9 27.03 9 26.13 9 25.03V25.02V25.01C9 23.91 9.9 23.01 11 23.01C12.1 23.01 13 23.91 13 25.01V25.02C13 25.02 13 25.02 13 25.03ZM28 27.03C26.9 27.03 26 26.13 26 25.03C26 23.93 26.9 23.03 28 23.03C29.1 23.03 30 23.93 30 25.03C30 26.13 29.1 27.03 28 27.03Z"/>
</g>
</g>
</svg>
