<svg width="86" height="30" viewBox="0 0 86 30" xmlns="http://www.w3.org/2000/svg">
<path id="Full-Screen -Keep" d="M5.11914 5.05566H2.07227V8H0.695312V0.890625H5.5V2.00879H2.07227V3.94238H5.11914V5.05566ZM13.3496 0.890625L13.3545 5.60254C13.3545 5.99967 13.2992 6.35286 13.1885 6.66211C13.0811 6.97135 12.9232 7.2334 12.7148 7.44824C12.5098 7.65983 12.2575 7.82096 11.958 7.93164C11.6618 8.04232 11.3232 8.09766 10.9424 8.09766C10.5843 8.09766 10.2604 8.04232 9.9707 7.93164C9.68424 7.82096 9.43848 7.65983 9.2334 7.44824C9.02832 7.23665 8.86882 6.97624 8.75488 6.66699C8.64421 6.35449 8.58887 5.99967 8.58887 5.60254L8.59375 0.890625H9.96582L9.9707 5.60254C9.97396 6.06152 10.057 6.4082 10.2197 6.64258C10.3857 6.87695 10.6266 6.99414 10.9424 6.99414C11.2777 6.99414 11.5332 6.87695 11.709 6.64258C11.888 6.4082 11.9792 6.06152 11.9824 5.60254L11.9873 0.890625H13.3496ZM18.0889 6.8916H21.4189V8H16.7119V0.890625H18.0889V6.8916ZM26.0947 6.8916H29.4248V8H24.7178V0.890625H26.0947V6.8916ZM37.4355 5.41211H33.3682V4.31348H37.4355V5.41211ZM44.3281 6.14453C44.3281 6.01758 44.3053 5.89876 44.2598 5.78809C44.2174 5.67741 44.1426 5.57487 44.0352 5.48047C43.931 5.38281 43.7926 5.29492 43.6201 5.2168C43.4508 5.13542 43.2393 5.06055 42.9854 4.99219C42.6761 4.90755 42.3799 4.80176 42.0967 4.6748C41.8167 4.54785 41.5693 4.39486 41.3545 4.21582C41.1396 4.03678 40.9671 3.82845 40.8369 3.59082C40.71 3.35319 40.6465 3.07975 40.6465 2.77051C40.6465 2.47103 40.71 2.19922 40.8369 1.95508C40.9639 1.71094 41.1396 1.5026 41.3643 1.33008C41.5889 1.15755 41.8542 1.02572 42.1602 0.93457C42.4661 0.840169 42.7982 0.792969 43.1562 0.792969C43.5273 0.792969 43.8659 0.84668 44.1719 0.954102C44.4811 1.06152 44.7464 1.21289 44.9678 1.4082C45.1891 1.60026 45.3617 1.82975 45.4854 2.09668C45.609 2.36361 45.6709 2.65658 45.6709 2.97559H44.333C44.3265 2.81608 44.2972 2.6696 44.2451 2.53613C44.1963 2.40267 44.1214 2.28874 44.0205 2.19434C43.9229 2.09668 43.7992 2.02181 43.6494 1.96973C43.5029 1.91439 43.3304 1.88672 43.1318 1.88672C42.9495 1.88672 42.7868 1.90951 42.6436 1.95508C42.5036 1.9974 42.3848 2.05924 42.2871 2.14062C42.1895 2.21875 42.1146 2.31315 42.0625 2.42383C42.0137 2.53125 41.9893 2.64844 41.9893 2.77539C41.9893 2.90885 42.0218 3.0293 42.0869 3.13672C42.1553 3.24414 42.2529 3.3418 42.3799 3.42969C42.5068 3.51432 42.6598 3.59245 42.8389 3.66406C43.0212 3.73568 43.2262 3.80241 43.4541 3.86426C43.7796 3.95866 44.0791 4.07422 44.3525 4.21094C44.626 4.34766 44.8604 4.51042 45.0557 4.69922C45.2542 4.88477 45.4072 5.09798 45.5146 5.33887C45.6253 5.5765 45.6807 5.8418 45.6807 6.13477C45.6807 6.44727 45.6172 6.72559 45.4902 6.96973C45.3665 7.21061 45.194 7.41569 44.9727 7.58496C44.7513 7.75098 44.4876 7.87793 44.1816 7.96582C43.8757 8.05046 43.542 8.09277 43.1807 8.09277C42.9561 8.09277 42.7314 8.07161 42.5068 8.0293C42.2855 7.99023 42.0723 7.92839 41.8672 7.84375C41.6654 7.75911 41.4766 7.65332 41.3008 7.52637C41.125 7.39941 40.972 7.2513 40.8418 7.08203C40.7148 6.91276 40.6139 6.7207 40.5391 6.50586C40.4674 6.29102 40.4316 6.05339 40.4316 5.79297H41.7793C41.7858 6.00781 41.8232 6.19173 41.8916 6.34473C41.96 6.49772 42.0544 6.62305 42.1748 6.7207C42.2985 6.81836 42.445 6.88997 42.6143 6.93555C42.7868 6.98112 42.9756 7.00391 43.1807 7.00391C43.363 7.00391 43.5241 6.98275 43.6641 6.94043C43.8073 6.89811 43.9277 6.83952 44.0254 6.76465C44.123 6.68978 44.1979 6.60026 44.25 6.49609C44.3021 6.38867 44.3281 6.27148 44.3281 6.14453ZM53.5791 5.77344C53.5563 6.13151 53.4782 6.45378 53.3447 6.74023C53.2145 7.02669 53.0387 7.27083 52.8174 7.47266C52.596 7.67448 52.3324 7.83073 52.0264 7.94141C51.7204 8.04883 51.3818 8.10254 51.0107 8.10254C50.5908 8.10254 50.2181 8.02604 49.8926 7.87305C49.5671 7.7168 49.2936 7.50033 49.0723 7.22363C48.8509 6.94368 48.6816 6.6084 48.5645 6.21777C48.4473 5.82715 48.3887 5.39746 48.3887 4.92871V3.97168C48.3887 3.49967 48.4505 3.06836 48.5742 2.67773C48.6979 2.28711 48.8737 1.95182 49.1016 1.67188C49.3294 1.39193 49.6045 1.17546 49.9268 1.02246C50.2523 0.866211 50.6169 0.788086 51.0205 0.788086C51.4111 0.788086 51.7578 0.843424 52.0605 0.954102C52.3665 1.06478 52.627 1.22266 52.8418 1.42773C53.0566 1.63281 53.2259 1.88346 53.3496 2.17969C53.4733 2.47591 53.5514 2.80957 53.584 3.18066H52.2168C52.2038 2.96908 52.1712 2.78353 52.1191 2.62402C52.0703 2.46452 51.9971 2.33268 51.8994 2.22852C51.805 2.12109 51.6846 2.04134 51.5381 1.98926C51.3949 1.93392 51.2223 1.90625 51.0205 1.90625C50.8089 1.90625 50.625 1.95182 50.4688 2.04297C50.3125 2.13411 50.1823 2.26758 50.0781 2.44336C49.9772 2.61914 49.9023 2.83561 49.8535 3.09277C49.8047 3.34668 49.7803 3.63639 49.7803 3.96191V4.92871C49.7803 5.62858 49.8779 6.14616 50.0732 6.48145C50.2718 6.81673 50.5843 6.98438 51.0107 6.98438C51.3688 6.98438 51.652 6.88997 51.8604 6.70117C52.0687 6.50911 52.1842 6.19987 52.207 5.77344H53.5791ZM59.0605 5.34375H58.0205V8H56.6484V0.890625H59.0312C59.4251 0.890625 59.7816 0.937826 60.1006 1.03223C60.4196 1.12337 60.6914 1.25846 60.916 1.4375C61.1439 1.61654 61.318 1.83952 61.4385 2.10645C61.5622 2.37337 61.624 2.68262 61.624 3.03418C61.624 3.28809 61.5931 3.51758 61.5312 3.72266C61.4727 3.92448 61.3864 4.10677 61.2725 4.26953C61.1618 4.42904 61.0267 4.56901 60.8672 4.68945C60.7109 4.8099 60.5352 4.91406 60.3398 5.00195L61.8682 7.93652V8H60.3984L59.0605 5.34375ZM58.0205 4.23047H59.0361C59.4235 4.23047 59.7214 4.13281 59.9297 3.9375C60.1413 3.73893 60.2471 3.46875 60.2471 3.12695C60.2471 2.77214 60.1445 2.49707 59.9395 2.30176C59.7344 2.10319 59.4316 2.00391 59.0312 2.00391H58.0205V4.23047ZM69.0293 4.88477H66.1094V6.8916H69.5225V8H64.7324V0.890625H69.5078V2.00879H66.1094V3.80078H69.0293V4.88477ZM77.0352 4.88477H74.1152V6.8916H77.5283V8H72.7383V0.890625H77.5137V2.00879H74.1152V3.80078H77.0352V4.88477ZM85.3535 8H83.9863L82.0088 3.41504V8H80.627V0.890625H82.0088L83.9717 5.45605L83.9766 0.890625H85.3535V8ZM29.4297 27.4121H25.3623V26.3135H29.4297V27.4121ZM34.75 27.0801L33.998 27.9053V30H32.6211V22.8906H33.998V26.1475L34.6426 25.2783L36.3711 22.8906H38.0508L35.6582 26.0352L38.1387 30H36.5078L34.75 27.0801ZM45.0117 26.8848H42.0918V28.8916H45.5049V30H40.7148V22.8906H45.4902V24.0088H42.0918V25.8008H45.0117V26.8848ZM53.0176 26.8848H50.0977V28.8916H53.5107V30H48.7207V22.8906H53.4961V24.0088H50.0977V25.8008H53.0176V26.8848ZM58.1084 27.3926V30H56.7363V22.8906H59.168C59.5553 22.8906 59.9053 22.9476 60.2178 23.0615C60.5303 23.1722 60.7956 23.3285 61.0137 23.5303C61.235 23.7288 61.4043 23.9681 61.5215 24.248C61.6419 24.528 61.7021 24.8389 61.7021 25.1807C61.7021 25.4997 61.6419 25.7943 61.5215 26.0645C61.4043 26.3346 61.235 26.569 61.0137 26.7676C60.7956 26.9629 60.5303 27.1159 60.2178 27.2266C59.9053 27.3372 59.5553 27.3926 59.168 27.3926H58.1084ZM58.1084 26.2793H59.168C59.3633 26.2793 59.5326 26.25 59.6758 26.1914C59.819 26.1328 59.9378 26.0531 60.0322 25.9521C60.1299 25.8512 60.2015 25.7357 60.2471 25.6055C60.2959 25.472 60.3203 25.3337 60.3203 25.1904C60.3203 25.0244 60.2959 24.8698 60.2471 24.7266C60.2015 24.5833 60.1299 24.458 60.0322 24.3506C59.9378 24.2432 59.819 24.1585 59.6758 24.0967C59.5326 24.0348 59.3633 24.0039 59.168 24.0039H58.1084V26.2793Z"/>
</svg>
