<svg width="46" height="9" viewBox="0 0 46 9" xmlns="http://www.w3.org/2000/svg">
<path d="M5.50977 7.16992C5.42188 7.27734 5.30143 7.38639 5.14844 7.49707C4.99544 7.60775 4.81315 7.70866 4.60156 7.7998C4.39323 7.8877 4.15885 7.95931 3.89844 8.01465C3.63802 8.06999 3.35807 8.09766 3.05859 8.09766C2.65495 8.09766 2.29036 8.02604 1.96484 7.88281C1.63932 7.73958 1.361 7.53288 1.12988 7.2627C0.898763 6.99251 0.719727 6.66211 0.592773 6.27148C0.469076 5.8776 0.407227 5.43164 0.407227 4.93359V3.9668C0.407227 3.46875 0.472331 3.02441 0.602539 2.63379C0.736003 2.23991 0.918294 1.90625 1.14941 1.63281C1.38379 1.35938 1.65723 1.15104 1.96973 1.00781C2.28548 0.864583 2.62728 0.792969 2.99512 0.792969C3.39551 0.792969 3.74382 0.843424 4.04004 0.944336C4.33952 1.04525 4.5918 1.19173 4.79688 1.38379C5.00195 1.57259 5.16146 1.80371 5.27539 2.07715C5.39258 2.35059 5.46908 2.6582 5.50488 3H4.16699C4.12142 2.63542 4.01074 2.36198 3.83496 2.17969C3.66243 1.99414 3.39388 1.90137 3.0293 1.90137C2.85352 1.90137 2.69076 1.94694 2.54102 2.03809C2.39128 2.12598 2.26107 2.25618 2.15039 2.42871C2.03971 2.60124 1.95182 2.81608 1.88672 3.07324C1.82161 3.32715 1.78906 3.62174 1.78906 3.95703V4.93359C1.79232 5.59766 1.90299 6.1071 2.12109 6.46191C2.33919 6.81348 2.67285 6.99089 3.12207 6.99414C3.22949 6.99414 3.33529 6.986 3.43945 6.96973C3.54362 6.95345 3.64128 6.93066 3.73242 6.90137C3.82357 6.87207 3.90332 6.83952 3.97168 6.80371C4.04329 6.76465 4.09701 6.72396 4.13281 6.68164L4.1377 5.39258H2.96094V4.36719H5.50488L5.50977 7.16992ZM11.04 5.34375H10V8H8.62793V0.890625H11.0107C11.4046 0.890625 11.7611 0.937826 12.0801 1.03223C12.3991 1.12337 12.6709 1.25846 12.8955 1.4375C13.1234 1.61654 13.2975 1.83952 13.418 2.10645C13.5417 2.37337 13.6035 2.68262 13.6035 3.03418C13.6035 3.28809 13.5726 3.51758 13.5107 3.72266C13.4521 3.92448 13.3659 4.10677 13.252 4.26953C13.1413 4.42904 13.0062 4.56901 12.8467 4.68945C12.6904 4.8099 12.5146 4.91406 12.3193 5.00195L13.8477 7.93652V8H12.3779L11.04 5.34375ZM10 4.23047H11.0156C11.403 4.23047 11.7008 4.13281 11.9092 3.9375C12.1208 3.73893 12.2266 3.46875 12.2266 3.12695C12.2266 2.77214 12.124 2.49707 11.9189 2.30176C11.7139 2.10319 11.4111 2.00391 11.0107 2.00391H10V4.23047ZM21.5947 4.96777C21.5947 5.4235 21.5345 5.84342 21.4141 6.22754C21.2936 6.61165 21.1195 6.94206 20.8916 7.21875C20.6637 7.49544 20.3854 7.71191 20.0566 7.86816C19.7311 8.02116 19.3633 8.09766 18.9531 8.09766C18.543 8.09766 18.1784 8.02116 17.8594 7.86816C17.5404 7.71191 17.2718 7.49544 17.0537 7.21875C16.8356 6.9388 16.6696 6.6084 16.5557 6.22754C16.4417 5.84342 16.3848 5.4235 16.3848 4.96777V3.93262C16.3848 3.47689 16.4417 3.05697 16.5557 2.67285C16.6696 2.28874 16.8356 1.95833 17.0537 1.68164C17.2718 1.40169 17.5387 1.18359 17.8545 1.02734C18.1735 0.871094 18.5381 0.792969 18.9482 0.792969C19.3617 0.792969 19.7311 0.871094 20.0566 1.02734C20.3854 1.18359 20.6637 1.40169 20.8916 1.68164C21.1195 1.95833 21.2936 2.28874 21.4141 2.67285C21.5345 3.05697 21.5947 3.47689 21.5947 3.93262V4.96777ZM20.2031 3.92285C20.2031 3.63314 20.1787 3.36621 20.1299 3.12207C20.0843 2.87793 20.0111 2.66797 19.9102 2.49219C19.8092 2.31641 19.679 2.17969 19.5195 2.08203C19.3633 1.98112 19.1729 1.93066 18.9482 1.93066C18.7269 1.93066 18.5413 1.98112 18.3916 2.08203C18.2419 2.17969 18.1214 2.31641 18.0303 2.49219C17.9391 2.66797 17.874 2.87793 17.835 3.12207C17.7959 3.36621 17.7764 3.63314 17.7764 3.92285V4.96777C17.7764 5.25423 17.7959 5.51953 17.835 5.76367C17.874 6.00781 17.9391 6.2194 18.0303 6.39844C18.1214 6.57747 18.2419 6.71745 18.3916 6.81836C18.5413 6.91927 18.7285 6.96973 18.9531 6.96973C19.1745 6.96973 19.3633 6.91927 19.5195 6.81836C19.679 6.71745 19.8076 6.5791 19.9053 6.40332C20.0062 6.22428 20.0811 6.0127 20.1299 5.76855C20.1787 5.52441 20.2031 5.25749 20.2031 4.96777V3.92285ZM28.1162 5.17285L28.6338 0.890625H29.8936L28.9072 8H27.667L26.9932 3.80078L26.3438 8H25.1035L24.127 0.890625H25.3818L25.8896 5.14355L26.4951 0.890625H27.4766L28.1162 5.17285ZM37.8701 2.00879H35.6777V8H34.3008V2.00879H32.1377V0.890625H37.8701V2.00879ZM45.3438 8H43.9863V4.91895H41.9746V8H40.6123V0.890625H41.9746V3.80566H43.9863V0.890625H45.3438V8Z"/>
</svg>
