<svg width="32" height="32" viewBox="0 0 32 32" xmlns="http://www.w3.org/2000/svg">
<g>
<path d="M12.0001 2L20.0001 2.5V8H18.0001V10H14.0001C11.5987 13.0342 11.4542 17.0801 13.0001 22C19.0001 12 29.0001 20 29.0001 20V27C29.0001 27 24.9982 29 17.0001 29C8.99781 29 5.00009 27 5.00009 27C-2.08703 8.95624 12.0001 2 12.0001 2ZM13.0001 8H16.0001V6H18.0001V4.5L12.3001 4C10.5267 5.7104 1.4703 10.9287 6.50009 25C12.0067 28.1933 23.0068 27.0204 27.0001 25.5V21C18.1492 15.1122 14.0001 24 14.0001 24L11.5001 23C7.36708 14.0663 13.0001 8 13.0001 8Z"/>
</g>
</svg>
