<svg width="32" height="32" viewBox="0 0 32 32" xmlns="http://www.w3.org/2000/svg">
<g>
<path id="Combined Shape" fill-rule="evenodd" clip-rule="evenodd" d="M16 2C8.28 2 2 8.28 2 16C2 23.72 8.28 30 16 30C23.72 30 30 23.72 30 16C30 8.28 23.72 2 16 2ZM16 28C9.383 28 4 22.617 4 16C4 9.383 9.383 4 16 4C22.617 4 28 9.383 28 16C28 22.617 22.617 28 16 28ZM13.172 10.172C12.416 10.928 12 11.932 12 13H14C14 12.466 14.208 11.964 14.586 11.586C15.342 10.83 16.658 10.83 17.414 11.586C17.792 11.964 18 12.466 18 13C18 13.534 17.792 14.036 17.414 14.414C17.036 14.792 16.534 15 16 15H15V19H17V16.875C17.686 16.699 18.314 16.342 18.828 15.828C19.584 15.072 20 14.068 20 13C20 11.932 19.584 10.928 18.828 10.172C17.316 8.66 14.684 8.66 13.172 10.172ZM17 21V23H15V21H17Z"/>
</g>
</svg>
