<svg width="30" height="9" viewBox="0 0 30 9" xmlns="http://www.w3.org/2000/svg">
<path d="M5.32031 8H3.96289V4.91895H1.95117V8H0.588867V0.890625H1.95117V3.80566H3.96289V0.890625H5.32031V8ZM13.5947 4.96777C13.5947 5.4235 13.5345 5.84342 13.4141 6.22754C13.2936 6.61165 13.1195 6.94206 12.8916 7.21875C12.6637 7.49544 12.3854 7.71191 12.0566 7.86816C11.7311 8.02116 11.3633 8.09766 10.9531 8.09766C10.543 8.09766 10.1784 8.02116 9.85938 7.86816C9.54036 7.71191 9.27181 7.49544 9.05371 7.21875C8.83561 6.9388 8.6696 6.6084 8.55566 6.22754C8.44173 5.84342 8.38477 5.4235 8.38477 4.96777V3.93262C8.38477 3.47689 8.44173 3.05697 8.55566 2.67285C8.6696 2.28874 8.83561 1.95833 9.05371 1.68164C9.27181 1.40169 9.53874 1.18359 9.85449 1.02734C10.1735 0.871094 10.5381 0.792969 10.9482 0.792969C11.3617 0.792969 11.7311 0.871094 12.0566 1.02734C12.3854 1.18359 12.6637 1.40169 12.8916 1.68164C13.1195 1.95833 13.2936 2.28874 13.4141 2.67285C13.5345 3.05697 13.5947 3.47689 13.5947 3.93262V4.96777ZM12.2031 3.92285C12.2031 3.63314 12.1787 3.36621 12.1299 3.12207C12.0843 2.87793 12.0111 2.66797 11.9102 2.49219C11.8092 2.31641 11.679 2.17969 11.5195 2.08203C11.3633 1.98112 11.1729 1.93066 10.9482 1.93066C10.7269 1.93066 10.5413 1.98112 10.3916 2.08203C10.2419 2.17969 10.1214 2.31641 10.0303 2.49219C9.93913 2.66797 9.87402 2.87793 9.83496 3.12207C9.7959 3.36621 9.77637 3.63314 9.77637 3.92285V4.96777C9.77637 5.25423 9.7959 5.51953 9.83496 5.76367C9.87402 6.00781 9.93913 6.2194 10.0303 6.39844C10.1214 6.57747 10.2419 6.71745 10.3916 6.81836C10.5413 6.91927 10.7285 6.96973 10.9531 6.96973C11.1745 6.96973 11.3633 6.91927 11.5195 6.81836C11.679 6.71745 11.8076 6.5791 11.9053 6.40332C12.0062 6.22428 12.0811 6.0127 12.1299 5.76855C12.1787 5.52441 12.2031 5.25749 12.2031 4.96777V3.92285ZM18.3242 0.890625L18.998 3.56152L19.7646 0.890625H21.4688V8H20.209V5.89551L20.2676 2.57031L19.335 5.65625H18.6562L17.8213 2.70215L17.8799 5.89551V8H16.6201V0.890625H18.3242ZM29.0205 4.88477H26.1006V6.8916H29.5137V8H24.7236V0.890625H29.499V2.00879H26.1006V3.80078H29.0205V4.88477Z"/>
</svg>
