<svg width="38" height="9" viewBox="0 0 38 9" xmlns="http://www.w3.org/2000/svg">
<path d="M0.927734 0.890625H5.03906V1.99902H3.65234V6.89648H5.03906V8H0.927734V6.89648H2.28027V1.99902H0.927734V0.890625ZM10.3154 0.890625L10.9893 3.56152L11.7559 0.890625H13.46V8H12.2002V5.89551L12.2588 2.57031L11.3262 5.65625H10.6475L9.8125 2.70215L9.87109 5.89551V8H8.61133V0.890625H10.3154ZM20.1328 6.51562H17.999L17.5791 8H16.1338L18.4629 0.890625H19.708L21.9932 8H20.5479L20.1328 6.51562ZM18.3359 5.34863H19.8105L19.083 2.73145L18.3359 5.34863ZM29.5303 7.16992C29.4424 7.27734 29.3219 7.38639 29.1689 7.49707C29.016 7.60775 28.8337 7.70866 28.6221 7.7998C28.4137 7.8877 28.1794 7.95931 27.9189 8.01465C27.6585 8.06999 27.3786 8.09766 27.0791 8.09766C26.6755 8.09766 26.3109 8.02604 25.9854 7.88281C25.6598 7.73958 25.3815 7.53288 25.1504 7.2627C24.9193 6.99251 24.7402 6.66211 24.6133 6.27148C24.4896 5.8776 24.4277 5.43164 24.4277 4.93359V3.9668C24.4277 3.46875 24.4928 3.02441 24.623 2.63379C24.7565 2.23991 24.9388 1.90625 25.1699 1.63281C25.4043 1.35938 25.6777 1.15104 25.9902 1.00781C26.306 0.864583 26.6478 0.792969 27.0156 0.792969C27.416 0.792969 27.7643 0.843424 28.0605 0.944336C28.36 1.04525 28.6123 1.19173 28.8174 1.38379C29.0225 1.57259 29.182 1.80371 29.2959 2.07715C29.4131 2.35059 29.4896 2.6582 29.5254 3H28.1875C28.1419 2.63542 28.0312 2.36198 27.8555 2.17969C27.6829 1.99414 27.4144 1.90137 27.0498 1.90137C26.874 1.90137 26.7113 1.94694 26.5615 2.03809C26.4118 2.12598 26.2816 2.25618 26.1709 2.42871C26.0602 2.60124 25.9723 2.81608 25.9072 3.07324C25.8421 3.32715 25.8096 3.62174 25.8096 3.95703V4.93359C25.8128 5.59766 25.9235 6.1071 26.1416 6.46191C26.3597 6.81348 26.6934 6.99089 27.1426 6.99414C27.25 6.99414 27.3558 6.986 27.46 6.96973C27.5641 6.95345 27.6618 6.93066 27.7529 6.90137C27.8441 6.87207 27.9238 6.83952 27.9922 6.80371C28.0638 6.76465 28.1175 6.72396 28.1533 6.68164L28.1582 5.39258H26.9814V4.36719H29.5254L29.5303 7.16992ZM37.0234 4.88477H34.1035V6.8916H37.5166V8H32.7266V0.890625H37.502V2.00879H34.1035V3.80078H37.0234V4.88477Z"/>
</svg>
