<svg width="134" height="9" viewBox="0 0 134 9" xmlns="http://www.w3.org/2000/svg">
<path d="M0.892578 0.890625H5.00391V1.99902H3.61719V6.89648H5.00391V8H0.892578V6.89648H2.24512V1.99902H0.892578V0.890625ZM13.2832 8H11.916L9.93848 3.41504V8H8.55664V0.890625H9.93848L11.9014 5.45605L11.9062 0.890625H13.2832V8ZM16.5723 8V0.890625H18.4131C18.8851 0.890625 19.3115 0.972005 19.6924 1.13477C20.0765 1.29427 20.4036 1.51888 20.6738 1.80859C20.9473 2.09505 21.1572 2.43848 21.3037 2.83887C21.4535 3.23926 21.5283 3.67871 21.5283 4.15723V4.74316C21.5283 5.22168 21.4535 5.66113 21.3037 6.06152C21.1572 6.45866 20.9505 6.80208 20.6836 7.0918C20.4167 7.37826 20.096 7.60124 19.7217 7.76074C19.3473 7.92025 18.9339 8 18.4814 8H16.5723ZM17.9541 2.00391V6.89648H18.4814C18.7386 6.89648 18.9681 6.84766 19.1699 6.75C19.375 6.65234 19.5475 6.51074 19.6875 6.3252C19.8307 6.13965 19.9398 5.91504 20.0146 5.65137C20.0895 5.38444 20.127 5.08171 20.127 4.74316V4.14746C20.127 3.82845 20.0895 3.53874 20.0146 3.27832C19.943 3.01465 19.834 2.78841 19.6875 2.59961C19.5443 2.41081 19.3652 2.26432 19.1504 2.16016C18.9388 2.05599 18.693 2.00391 18.4131 2.00391H17.9541ZM24.9102 0.890625H29.0215V1.99902H27.6348V6.89648H29.0215V8H24.9102V6.89648H26.2627V1.99902H24.9102V0.890625ZM34.9668 6.0127L36.3096 0.890625H37.8232L35.6699 8H34.2734L32.125 0.890625H33.6387L34.9668 6.0127ZM40.9219 0.890625H45.0332V1.99902H43.6465V6.89648H45.0332V8H40.9219V6.89648H42.2744V1.99902H40.9219V0.890625ZM48.5957 8V0.890625H50.4365C50.9085 0.890625 51.335 0.972005 51.7158 1.13477C52.0999 1.29427 52.4271 1.51888 52.6973 1.80859C52.9707 2.09505 53.1807 2.43848 53.3271 2.83887C53.4769 3.23926 53.5518 3.67871 53.5518 4.15723V4.74316C53.5518 5.22168 53.4769 5.66113 53.3271 6.06152C53.1807 6.45866 52.974 6.80208 52.707 7.0918C52.4401 7.37826 52.1195 7.60124 51.7451 7.76074C51.3708 7.92025 50.9574 8 50.5049 8H48.5957ZM49.9775 2.00391V6.89648H50.5049C50.762 6.89648 50.9915 6.84766 51.1934 6.75C51.3984 6.65234 51.571 6.51074 51.7109 6.3252C51.8542 6.13965 51.9632 5.91504 52.0381 5.65137C52.113 5.38444 52.1504 5.08171 52.1504 4.74316V4.14746C52.1504 3.82845 52.113 3.53874 52.0381 3.27832C51.9665 3.01465 51.8574 2.78841 51.7109 2.59961C51.5677 2.41081 51.3887 2.26432 51.1738 2.16016C50.9622 2.05599 50.7165 2.00391 50.4365 2.00391H49.9775ZM61.3672 0.890625L61.3721 5.60254C61.3721 5.99967 61.3167 6.35286 61.2061 6.66211C61.0986 6.97135 60.9408 7.2334 60.7324 7.44824C60.5273 7.65983 60.2751 7.82096 59.9756 7.93164C59.6794 8.04232 59.3408 8.09766 58.96 8.09766C58.6019 8.09766 58.278 8.04232 57.9883 7.93164C57.7018 7.82096 57.4561 7.65983 57.251 7.44824C57.0459 7.23665 56.8864 6.97624 56.7725 6.66699C56.6618 6.35449 56.6064 5.99967 56.6064 5.60254L56.6113 0.890625H57.9834L57.9883 5.60254C57.9915 6.06152 58.0745 6.4082 58.2373 6.64258C58.4033 6.87695 58.6442 6.99414 58.96 6.99414C59.2952 6.99414 59.5508 6.87695 59.7266 6.64258C59.9056 6.4082 59.9967 6.06152 60 5.60254L60.0049 0.890625H61.3672ZM68.1328 6.51562H65.999L65.5791 8H64.1338L66.4629 0.890625H67.708L69.9932 8H68.5479L68.1328 6.51562ZM66.3359 5.34863H67.8105L67.083 2.73145L66.3359 5.34863ZM74.1123 6.8916H77.4424V8H72.7354V0.890625H74.1123V6.8916ZM80.9512 0.890625H85.0625V1.99902H83.6758V6.89648H85.0625V8H80.9512V6.89648H82.3037V1.99902H80.9512V0.890625ZM90.1191 6.8916H93.6445V8H88.4492V7.16016L91.8965 2.00879H88.459V0.890625H93.5566L93.5615 1.70605L90.1191 6.8916ZM100.156 6.51562H98.0225L97.6025 8H96.1572L98.4863 0.890625H99.7314L102.017 8H100.571L100.156 6.51562ZM98.3594 5.34863H99.834L99.1064 2.73145L98.3594 5.34863ZM109.891 2.00879H107.698V8H106.321V2.00879H104.158V0.890625H109.891V2.00879ZM112.975 0.890625H117.086V1.99902H115.699V6.89648H117.086V8H112.975V6.89648H114.327V1.99902H112.975V0.890625ZM125.639 4.96777C125.639 5.4235 125.578 5.84342 125.458 6.22754C125.338 6.61165 125.163 6.94206 124.936 7.21875C124.708 7.49544 124.429 7.71191 124.101 7.86816C123.775 8.02116 123.407 8.09766 122.997 8.09766C122.587 8.09766 122.222 8.02116 121.903 7.86816C121.584 7.71191 121.316 7.49544 121.098 7.21875C120.88 6.9388 120.714 6.6084 120.6 6.22754C120.486 5.84342 120.429 5.4235 120.429 4.96777V3.93262C120.429 3.47689 120.486 3.05697 120.6 2.67285C120.714 2.28874 120.88 1.95833 121.098 1.68164C121.316 1.40169 121.583 1.18359 121.898 1.02734C122.217 0.871094 122.582 0.792969 122.992 0.792969C123.406 0.792969 123.775 0.871094 124.101 1.02734C124.429 1.18359 124.708 1.40169 124.936 1.68164C125.163 1.95833 125.338 2.28874 125.458 2.67285C125.578 3.05697 125.639 3.47689 125.639 3.93262V4.96777ZM124.247 3.92285C124.247 3.63314 124.223 3.36621 124.174 3.12207C124.128 2.87793 124.055 2.66797 123.954 2.49219C123.853 2.31641 123.723 2.17969 123.563 2.08203C123.407 1.98112 123.217 1.93066 122.992 1.93066C122.771 1.93066 122.585 1.98112 122.436 2.08203C122.286 2.17969 122.165 2.31641 122.074 2.49219C121.983 2.66797 121.918 2.87793 121.879 3.12207C121.84 3.36621 121.82 3.63314 121.82 3.92285V4.96777C121.82 5.25423 121.84 5.51953 121.879 5.76367C121.918 6.00781 121.983 6.2194 122.074 6.39844C122.165 6.57747 122.286 6.71745 122.436 6.81836C122.585 6.91927 122.772 6.96973 122.997 6.96973C123.218 6.96973 123.407 6.91927 123.563 6.81836C123.723 6.71745 123.852 6.5791 123.949 6.40332C124.05 6.22428 124.125 6.0127 124.174 5.76855C124.223 5.52441 124.247 5.25749 124.247 4.96777V3.92285ZM133.371 8H132.004L130.026 3.41504V8H128.645V0.890625H130.026L131.989 5.45605L131.994 0.890625H133.371V8Z"/>
</svg>
