<svg width="54" height="10" viewBox="0 0 54 10" xmlns="http://www.w3.org/2000/svg">
<path d="M0.921875 0.890625H5.0332V1.99902H3.64648V6.89648H5.0332V8H0.921875V6.89648H2.27441V1.99902H0.921875V0.890625ZM13.3125 8H11.9453L9.96777 3.41504V8H8.58594V0.890625H9.96777L11.9307 5.45605L11.9355 0.890625H13.3125V8ZM21.6357 5.18262C21.6325 5.61882 21.556 6.0306 21.4062 6.41797C21.2598 6.80208 21.0433 7.13086 20.7568 7.4043L21.9336 8.46875L21.0498 9.25488L19.6973 8.00488C19.5833 8.03418 19.4661 8.05697 19.3457 8.07324C19.2285 8.08952 19.1064 8.09766 18.9795 8.09766C18.5693 8.09766 18.2048 8.01953 17.8857 7.86328C17.5667 7.70378 17.2965 7.49056 17.0752 7.22363C16.8571 6.95345 16.6911 6.64258 16.5771 6.29102C16.4632 5.93945 16.4062 5.56999 16.4062 5.18262V3.95215C16.4062 3.49316 16.4632 3.07161 16.5771 2.6875C16.6911 2.30013 16.8571 1.96647 17.0752 1.68652C17.2965 1.40658 17.5667 1.18848 17.8857 1.03223C18.2048 0.872721 18.5693 0.792969 18.9795 0.792969C19.3929 0.792969 19.764 0.872721 20.0928 1.03223C20.4215 1.18848 20.6999 1.40658 20.9277 1.68652C21.1556 1.96647 21.3298 2.30013 21.4502 2.6875C21.5739 3.07161 21.6357 3.49316 21.6357 3.95215V5.18262ZM20.2441 3.94238C20.2441 3.64941 20.2197 3.38086 20.1709 3.13672C20.1253 2.88932 20.0521 2.67611 19.9512 2.49707C19.8503 2.31803 19.7201 2.17969 19.5605 2.08203C19.401 1.98112 19.2074 1.93066 18.9795 1.93066C18.7549 1.93066 18.5661 1.98112 18.4131 2.08203C18.2633 2.18294 18.1429 2.32292 18.0518 2.50195C17.9606 2.67773 17.8955 2.88932 17.8564 3.13672C17.8174 3.38086 17.7979 3.64941 17.7979 3.94238V5.18262C17.7979 5.40397 17.8174 5.62207 17.8564 5.83691C17.8955 6.0485 17.9606 6.23893 18.0518 6.4082C18.1429 6.57422 18.2633 6.70931 18.4131 6.81348C18.5661 6.91764 18.7549 6.96973 18.9795 6.96973C19.2074 6.96973 19.401 6.91927 19.5605 6.81836C19.7201 6.71419 19.8503 6.57747 19.9512 6.4082C20.0521 6.23893 20.1253 6.0485 20.1709 5.83691C20.2197 5.62207 20.2441 5.40397 20.2441 5.18262V3.94238ZM29.373 0.890625L29.3779 5.60254C29.3779 5.99967 29.3226 6.35286 29.2119 6.66211C29.1045 6.97135 28.9466 7.2334 28.7383 7.44824C28.5332 7.65983 28.2809 7.82096 27.9814 7.93164C27.6852 8.04232 27.3467 8.09766 26.9658 8.09766C26.6077 8.09766 26.2839 8.04232 25.9941 7.93164C25.7077 7.82096 25.4619 7.65983 25.2568 7.44824C25.0518 7.23665 24.8923 6.97624 24.7783 6.66699C24.6676 6.35449 24.6123 5.99967 24.6123 5.60254L24.6172 0.890625H25.9893L25.9941 5.60254C25.9974 6.06152 26.0804 6.4082 26.2432 6.64258C26.4092 6.87695 26.6501 6.99414 26.9658 6.99414C27.3011 6.99414 27.5566 6.87695 27.7324 6.64258C27.9115 6.4082 28.0026 6.06152 28.0059 5.60254L28.0107 0.890625H29.373ZM32.9453 0.890625H37.0566V1.99902H35.6699V6.89648H37.0566V8H32.9453V6.89648H34.2979V1.99902H32.9453V0.890625ZM43.0605 5.34375H42.0205V8H40.6484V0.890625H43.0312C43.4251 0.890625 43.7816 0.937826 44.1006 1.03223C44.4196 1.12337 44.6914 1.25846 44.916 1.4375C45.1439 1.61654 45.318 1.83952 45.4385 2.10645C45.5622 2.37337 45.624 2.68262 45.624 3.03418C45.624 3.28809 45.5931 3.51758 45.5312 3.72266C45.4727 3.92448 45.3864 4.10677 45.2725 4.26953C45.1618 4.42904 45.0267 4.56901 44.8672 4.68945C44.7109 4.8099 44.5352 4.91406 44.3398 5.00195L45.8682 7.93652V8H44.3984L43.0605 5.34375ZM42.0205 4.23047H43.0361C43.4235 4.23047 43.7214 4.13281 43.9297 3.9375C44.1413 3.73893 44.2471 3.46875 44.2471 3.12695C44.2471 2.77214 44.1445 2.49707 43.9395 2.30176C43.7344 2.10319 43.4316 2.00391 43.0312 2.00391H42.0205V4.23047ZM51.0811 4.16699L52.4824 0.890625H53.9912L51.7549 5.53906L51.75 8H50.3828L50.3779 5.48047L48.1758 0.890625H49.6797L51.0811 4.16699Z"/>
</svg>
