<svg width="110" height="9" viewBox="0 0 110 9" xmlns="http://www.w3.org/2000/svg">
<path d="M0.901367 0.890625H5.0127V1.99902H3.62598V6.89648H5.0127V8H0.901367V6.89648H2.25391V1.99902H0.901367V0.890625ZM13.292 8H11.9248L9.94727 3.41504V8H8.56543V0.890625H9.94727L11.9102 5.45605L11.915 0.890625H13.292V8ZM21.835 2.00879H19.6426V8H18.2656V2.00879H16.1025V0.890625H21.835V2.00879ZM27.0283 5.34375H25.9883V8H24.6162V0.890625H26.999C27.3929 0.890625 27.7493 0.937826 28.0684 1.03223C28.3874 1.12337 28.6592 1.25846 28.8838 1.4375C29.1117 1.61654 29.2858 1.83952 29.4062 2.10645C29.5299 2.37337 29.5918 2.68262 29.5918 3.03418C29.5918 3.28809 29.5609 3.51758 29.499 3.72266C29.4404 3.92448 29.3542 4.10677 29.2402 4.26953C29.1296 4.42904 28.9945 4.56901 28.835 4.68945C28.6787 4.8099 28.5029 4.91406 28.3076 5.00195L29.8359 7.93652V8H28.3662L27.0283 5.34375ZM25.9883 4.23047H27.0039C27.3913 4.23047 27.6891 4.13281 27.8975 3.9375C28.109 3.73893 28.2148 3.46875 28.2148 3.12695C28.2148 2.77214 28.1123 2.49707 27.9072 2.30176C27.7021 2.10319 27.3994 2.00391 26.999 2.00391H25.9883V4.23047ZM36.1182 6.51562H33.9844L33.5645 8H32.1191L34.4482 0.890625H35.6934L37.9785 8H36.5332L36.1182 6.51562ZM34.3213 5.34863H35.7959L35.0684 2.73145L34.3213 5.34863ZM42.0977 6.8916H45.4277V8H40.7207V0.890625H42.0977V6.8916ZM53.5947 4.96777C53.5947 5.4235 53.5345 5.84342 53.4141 6.22754C53.2936 6.61165 53.1195 6.94206 52.8916 7.21875C52.6637 7.49544 52.3854 7.71191 52.0566 7.86816C51.7311 8.02116 51.3633 8.09766 50.9531 8.09766C50.543 8.09766 50.1784 8.02116 49.8594 7.86816C49.5404 7.71191 49.2718 7.49544 49.0537 7.21875C48.8356 6.9388 48.6696 6.6084 48.5557 6.22754C48.4417 5.84342 48.3848 5.4235 48.3848 4.96777V3.93262C48.3848 3.47689 48.4417 3.05697 48.5557 2.67285C48.6696 2.28874 48.8356 1.95833 49.0537 1.68164C49.2718 1.40169 49.5387 1.18359 49.8545 1.02734C50.1735 0.871094 50.5381 0.792969 50.9482 0.792969C51.3617 0.792969 51.7311 0.871094 52.0566 1.02734C52.3854 1.18359 52.6637 1.40169 52.8916 1.68164C53.1195 1.95833 53.2936 2.28874 53.4141 2.67285C53.5345 3.05697 53.5947 3.47689 53.5947 3.93262V4.96777ZM52.2031 3.92285C52.2031 3.63314 52.1787 3.36621 52.1299 3.12207C52.0843 2.87793 52.0111 2.66797 51.9102 2.49219C51.8092 2.31641 51.679 2.17969 51.5195 2.08203C51.3633 1.98112 51.1729 1.93066 50.9482 1.93066C50.7269 1.93066 50.5413 1.98112 50.3916 2.08203C50.2419 2.17969 50.1214 2.31641 50.0303 2.49219C49.9391 2.66797 49.874 2.87793 49.835 3.12207C49.7959 3.36621 49.7764 3.63314 49.7764 3.92285V4.96777C49.7764 5.25423 49.7959 5.51953 49.835 5.76367C49.874 6.00781 49.9391 6.2194 50.0303 6.39844C50.1214 6.57747 50.2419 6.71745 50.3916 6.81836C50.5413 6.91927 50.7285 6.96973 50.9531 6.96973C51.1745 6.96973 51.3633 6.91927 51.5195 6.81836C51.679 6.71745 51.8076 6.5791 51.9053 6.40332C52.0062 6.22428 52.0811 6.0127 52.1299 5.76855C52.1787 5.52441 52.2031 5.25749 52.2031 4.96777V3.92285ZM61.5273 7.16992C61.4395 7.27734 61.319 7.38639 61.166 7.49707C61.013 7.60775 60.8307 7.70866 60.6191 7.7998C60.4108 7.8877 60.1764 7.95931 59.916 8.01465C59.6556 8.06999 59.3757 8.09766 59.0762 8.09766C58.6725 8.09766 58.3079 8.02604 57.9824 7.88281C57.6569 7.73958 57.3786 7.53288 57.1475 7.2627C56.9163 6.99251 56.7373 6.66211 56.6104 6.27148C56.4867 5.8776 56.4248 5.43164 56.4248 4.93359V3.9668C56.4248 3.46875 56.4899 3.02441 56.6201 2.63379C56.7536 2.23991 56.9359 1.90625 57.167 1.63281C57.4014 1.35938 57.6748 1.15104 57.9873 1.00781C58.3031 0.864583 58.6449 0.792969 59.0127 0.792969C59.4131 0.792969 59.7614 0.843424 60.0576 0.944336C60.3571 1.04525 60.6094 1.19173 60.8145 1.38379C61.0195 1.57259 61.179 1.80371 61.293 2.07715C61.4102 2.35059 61.4867 2.6582 61.5225 3H60.1846C60.139 2.63542 60.0283 2.36198 59.8525 2.17969C59.68 1.99414 59.4115 1.90137 59.0469 1.90137C58.8711 1.90137 58.7083 1.94694 58.5586 2.03809C58.4089 2.12598 58.2786 2.25618 58.168 2.42871C58.0573 2.60124 57.9694 2.81608 57.9043 3.07324C57.8392 3.32715 57.8066 3.62174 57.8066 3.95703V4.93359C57.8099 5.59766 57.9206 6.1071 58.1387 6.46191C58.3568 6.81348 58.6904 6.99089 59.1396 6.99414C59.2471 6.99414 59.3529 6.986 59.457 6.96973C59.5612 6.95345 59.6589 6.93066 59.75 6.90137C59.8411 6.87207 59.9209 6.83952 59.9893 6.80371C60.0609 6.76465 60.1146 6.72396 60.1504 6.68164L60.1553 5.39258H58.9785V4.36719H61.5225L61.5273 7.16992ZM64.9482 0.890625H69.0596V1.99902H67.6729V6.89648H69.0596V8H64.9482V6.89648H66.3008V1.99902H64.9482V0.890625ZM76.3428 6.14453C76.3428 6.01758 76.32 5.89876 76.2744 5.78809C76.2321 5.67741 76.1572 5.57487 76.0498 5.48047C75.9456 5.38281 75.8073 5.29492 75.6348 5.2168C75.4655 5.13542 75.2539 5.06055 75 4.99219C74.6908 4.90755 74.3945 4.80176 74.1113 4.6748C73.8314 4.54785 73.584 4.39486 73.3691 4.21582C73.1543 4.03678 72.9818 3.82845 72.8516 3.59082C72.7246 3.35319 72.6611 3.07975 72.6611 2.77051C72.6611 2.47103 72.7246 2.19922 72.8516 1.95508C72.9785 1.71094 73.1543 1.5026 73.3789 1.33008C73.6035 1.15755 73.8688 1.02572 74.1748 0.93457C74.4808 0.840169 74.8128 0.792969 75.1709 0.792969C75.542 0.792969 75.8805 0.84668 76.1865 0.954102C76.4958 1.06152 76.7611 1.21289 76.9824 1.4082C77.2038 1.60026 77.3763 1.82975 77.5 2.09668C77.6237 2.36361 77.6855 2.65658 77.6855 2.97559H76.3477C76.3411 2.81608 76.3118 2.6696 76.2598 2.53613C76.2109 2.40267 76.1361 2.28874 76.0352 2.19434C75.9375 2.09668 75.8138 2.02181 75.6641 1.96973C75.5176 1.91439 75.3451 1.88672 75.1465 1.88672C74.9642 1.88672 74.8014 1.90951 74.6582 1.95508C74.5182 1.9974 74.3994 2.05924 74.3018 2.14062C74.2041 2.21875 74.1292 2.31315 74.0771 2.42383C74.0283 2.53125 74.0039 2.64844 74.0039 2.77539C74.0039 2.90885 74.0365 3.0293 74.1016 3.13672C74.1699 3.24414 74.2676 3.3418 74.3945 3.42969C74.5215 3.51432 74.6745 3.59245 74.8535 3.66406C75.0358 3.73568 75.2409 3.80241 75.4688 3.86426C75.7943 3.95866 76.0938 4.07422 76.3672 4.21094C76.6406 4.34766 76.875 4.51042 77.0703 4.69922C77.2689 4.88477 77.4219 5.09798 77.5293 5.33887C77.64 5.5765 77.6953 5.8418 77.6953 6.13477C77.6953 6.44727 77.6318 6.72559 77.5049 6.96973C77.3812 7.21061 77.2087 7.41569 76.9873 7.58496C76.766 7.75098 76.5023 7.87793 76.1963 7.96582C75.8903 8.05046 75.5566 8.09277 75.1953 8.09277C74.9707 8.09277 74.7461 8.07161 74.5215 8.0293C74.3001 7.99023 74.0869 7.92839 73.8818 7.84375C73.68 7.75911 73.4912 7.65332 73.3154 7.52637C73.1396 7.39941 72.9867 7.2513 72.8564 7.08203C72.7295 6.91276 72.6286 6.7207 72.5537 6.50586C72.4821 6.29102 72.4463 6.05339 72.4463 5.79297H73.7939C73.8005 6.00781 73.8379 6.19173 73.9062 6.34473C73.9746 6.49772 74.069 6.62305 74.1895 6.7207C74.3132 6.81836 74.4596 6.88997 74.6289 6.93555C74.8014 6.98112 74.9902 7.00391 75.1953 7.00391C75.3776 7.00391 75.5387 6.98275 75.6787 6.94043C75.8219 6.89811 75.9424 6.83952 76.04 6.76465C76.1377 6.68978 76.2126 6.60026 76.2646 6.49609C76.3167 6.38867 76.3428 6.27148 76.3428 6.14453ZM85.8818 2.00879H83.6895V8H82.3125V2.00879H80.1494V0.890625H85.8818V2.00879ZM88.9658 0.890625H93.0771V1.99902H91.6904V6.89648H93.0771V8H88.9658V6.89648H90.3184V1.99902H88.9658V0.890625ZM101.605 5.77344C101.583 6.13151 101.505 6.45378 101.371 6.74023C101.241 7.02669 101.065 7.27083 100.844 7.47266C100.622 7.67448 100.359 7.83073 100.053 7.94141C99.7467 8.04883 99.4082 8.10254 99.0371 8.10254C98.6172 8.10254 98.2445 8.02604 97.9189 7.87305C97.5934 7.7168 97.32 7.50033 97.0986 7.22363C96.8773 6.94368 96.708 6.6084 96.5908 6.21777C96.4736 5.82715 96.415 5.39746 96.415 4.92871V3.97168C96.415 3.49967 96.4769 3.06836 96.6006 2.67773C96.7243 2.28711 96.9001 1.95182 97.1279 1.67188C97.3558 1.39193 97.6309 1.17546 97.9531 1.02246C98.2786 0.866211 98.6432 0.788086 99.0469 0.788086C99.4375 0.788086 99.7842 0.843424 100.087 0.954102C100.393 1.06478 100.653 1.22266 100.868 1.42773C101.083 1.63281 101.252 1.88346 101.376 2.17969C101.5 2.47591 101.578 2.80957 101.61 3.18066H100.243C100.23 2.96908 100.198 2.78353 100.146 2.62402C100.097 2.46452 100.023 2.33268 99.9258 2.22852C99.8314 2.12109 99.7109 2.04134 99.5645 1.98926C99.4212 1.93392 99.2487 1.90625 99.0469 1.90625C98.8353 1.90625 98.6514 1.95182 98.4951 2.04297C98.3389 2.13411 98.2087 2.26758 98.1045 2.44336C98.0036 2.61914 97.9287 2.83561 97.8799 3.09277C97.8311 3.34668 97.8066 3.63639 97.8066 3.96191V4.92871C97.8066 5.62858 97.9043 6.14616 98.0996 6.48145C98.2982 6.81673 98.6107 6.98438 99.0371 6.98438C99.3952 6.98438 99.6784 6.88997 99.8867 6.70117C100.095 6.50911 100.211 6.19987 100.233 5.77344H101.605ZM108.366 6.14453C108.366 6.01758 108.343 5.89876 108.298 5.78809C108.256 5.67741 108.181 5.57487 108.073 5.48047C107.969 5.38281 107.831 5.29492 107.658 5.2168C107.489 5.13542 107.277 5.06055 107.023 4.99219C106.714 4.90755 106.418 4.80176 106.135 4.6748C105.855 4.54785 105.607 4.39486 105.393 4.21582C105.178 4.03678 105.005 3.82845 104.875 3.59082C104.748 3.35319 104.685 3.07975 104.685 2.77051C104.685 2.47103 104.748 2.19922 104.875 1.95508C105.002 1.71094 105.178 1.5026 105.402 1.33008C105.627 1.15755 105.892 1.02572 106.198 0.93457C106.504 0.840169 106.836 0.792969 107.194 0.792969C107.565 0.792969 107.904 0.84668 108.21 0.954102C108.519 1.06152 108.785 1.21289 109.006 1.4082C109.227 1.60026 109.4 1.82975 109.523 2.09668C109.647 2.36361 109.709 2.65658 109.709 2.97559H108.371C108.365 2.81608 108.335 2.6696 108.283 2.53613C108.234 2.40267 108.16 2.28874 108.059 2.19434C107.961 2.09668 107.837 2.02181 107.688 1.96973C107.541 1.91439 107.368 1.88672 107.17 1.88672C106.988 1.88672 106.825 1.90951 106.682 1.95508C106.542 1.9974 106.423 2.05924 106.325 2.14062C106.228 2.21875 106.153 2.31315 106.101 2.42383C106.052 2.53125 106.027 2.64844 106.027 2.77539C106.027 2.90885 106.06 3.0293 106.125 3.13672C106.193 3.24414 106.291 3.3418 106.418 3.42969C106.545 3.51432 106.698 3.59245 106.877 3.66406C107.059 3.73568 107.264 3.80241 107.492 3.86426C107.818 3.95866 108.117 4.07422 108.391 4.21094C108.664 4.34766 108.898 4.51042 109.094 4.69922C109.292 4.88477 109.445 5.09798 109.553 5.33887C109.663 5.5765 109.719 5.8418 109.719 6.13477C109.719 6.44727 109.655 6.72559 109.528 6.96973C109.405 7.21061 109.232 7.41569 109.011 7.58496C108.789 7.75098 108.526 7.87793 108.22 7.96582C107.914 8.05046 107.58 8.09277 107.219 8.09277C106.994 8.09277 106.77 8.07161 106.545 8.0293C106.324 7.99023 106.11 7.92839 105.905 7.84375C105.703 7.75911 105.515 7.65332 105.339 7.52637C105.163 7.39941 105.01 7.2513 104.88 7.08203C104.753 6.91276 104.652 6.7207 104.577 6.50586C104.506 6.29102 104.47 6.05339 104.47 5.79297H105.817C105.824 6.00781 105.861 6.19173 105.93 6.34473C105.998 6.49772 106.092 6.62305 106.213 6.7207C106.337 6.81836 106.483 6.88997 106.652 6.93555C106.825 6.98112 107.014 7.00391 107.219 7.00391C107.401 7.00391 107.562 6.98275 107.702 6.94043C107.845 6.89811 107.966 6.83952 108.063 6.76465C108.161 6.68978 108.236 6.60026 108.288 6.49609C108.34 6.38867 108.366 6.27148 108.366 6.14453Z"/>
</svg>
