<svg width="1229" height="77" viewBox="0 0 1229 77" xmlns="http://www.w3.org/2000/svg">
<g id="Library Section Header">
<path d="M94.0391 20.7422H96.582C97.5117 20.7422 98.3516 20.6094 99.1016 20.3438C99.8516 20.0781 100.492 19.707 101.023 19.2305C101.547 18.7617 101.949 18.2031 102.23 17.5547C102.52 16.9062 102.664 16.1992 102.664 15.4336C102.664 14.6133 102.52 13.8672 102.23 13.1953C101.949 12.5234 101.547 11.9453 101.023 11.4609C100.492 10.9844 99.8516 10.6133 99.1016 10.3477C98.3516 10.0742 97.5117 9.9375 96.582 9.9375H90.7461V27H94.0391V20.7422ZM94.0391 18.0703V12.6094H96.582C97.0508 12.6094 97.457 12.6836 97.8008 12.832C98.1445 12.9805 98.4336 13.1836 98.668 13.4414C98.8945 13.6992 99.0625 14 99.1719 14.3438C99.2891 14.6875 99.3477 15.0586 99.3477 15.457C99.3477 15.8008 99.2891 16.1328 99.1719 16.4531C99.0625 16.7656 98.8945 17.043 98.668 17.2852C98.4336 17.5273 98.1445 17.7188 97.8008 17.8594C97.457 18 97.0508 18.0703 96.582 18.0703H94.0391ZM115.738 20.625L118.949 27H122.477V26.8477L118.809 19.8047C119.277 19.5938 119.699 19.3438 120.074 19.0547C120.457 18.7656 120.785 18.4258 121.059 18.0352C121.324 17.6523 121.527 17.2188 121.668 16.7344C121.816 16.2422 121.891 15.6914 121.891 15.082C121.891 14.2383 121.742 13.4961 121.445 12.8555C121.156 12.2148 120.742 11.6797 120.203 11.25C119.656 10.8203 119 10.4961 118.234 10.2773C117.469 10.0508 116.613 9.9375 115.668 9.9375H109.949V27H113.242V20.625H115.738ZM113.242 17.9531V12.6094H115.668C116.121 12.6094 116.523 12.6641 116.875 12.7734C117.227 12.8828 117.523 13.0391 117.766 13.2422C118.039 13.4688 118.242 13.7578 118.375 14.1094C118.516 14.4531 118.586 14.8516 118.586 15.3047C118.586 15.6797 118.531 16.0195 118.422 16.3242C118.32 16.6289 118.168 16.8906 117.965 17.1094C117.723 17.3828 117.406 17.5938 117.016 17.7422C116.633 17.8828 116.188 17.9531 115.68 17.9531H113.242ZM141.27 19.7227V17.2383C141.27 16.4648 141.195 15.7344 141.047 15.0469C140.906 14.3594 140.699 13.7266 140.426 13.1484C140.176 12.6406 139.875 12.1758 139.523 11.7539C139.18 11.332 138.777 10.9727 138.316 10.6758C137.855 10.3633 137.336 10.125 136.758 9.96094C136.188 9.78906 135.574 9.70312 134.918 9.70312C134.27 9.70312 133.668 9.78516 133.113 9.94922C132.559 10.1133 132.059 10.3477 131.613 10.6523C131.16 10.9648 130.758 11.3398 130.406 11.7773C130.062 12.2148 129.77 12.7031 129.527 13.2422C129.277 13.8125 129.086 14.4336 128.953 15.1055C128.828 15.7773 128.766 16.4883 128.766 17.2383V19.7227C128.766 20.4258 128.82 21.0938 128.93 21.7266C129.047 22.3594 129.215 22.9453 129.434 23.4844C129.676 24.0703 129.977 24.5977 130.336 25.0664C130.695 25.5273 131.102 25.9219 131.555 26.25C132.016 26.5625 132.527 26.8047 133.09 26.9766C133.652 27.1484 134.266 27.2344 134.93 27.2344C135.555 27.2344 136.137 27.1562 136.676 27C137.223 26.8516 137.723 26.6406 138.176 26.3672C138.676 26.0547 139.121 25.6641 139.512 25.1953C139.902 24.7266 140.23 24.2109 140.496 23.6484C140.746 23.0859 140.938 22.4766 141.07 21.8203C141.203 21.1562 141.27 20.457 141.27 19.7227ZM137.93 17.2148V19.7227C137.93 20.1445 137.906 20.5508 137.859 20.9414C137.82 21.332 137.758 21.6914 137.672 22.0195C137.562 22.4414 137.414 22.8203 137.227 23.1562C137.047 23.4844 136.824 23.7578 136.559 23.9766C136.348 24.1562 136.105 24.293 135.832 24.3867C135.559 24.4805 135.258 24.5273 134.93 24.5273C134.586 24.5273 134.277 24.4766 134.004 24.375C133.738 24.2734 133.5 24.1289 133.289 23.9414C133.062 23.7305 132.863 23.457 132.691 23.1211C132.527 22.7773 132.402 22.3984 132.316 21.9844C132.238 21.6562 132.184 21.3008 132.152 20.918C132.121 20.5352 132.105 20.1367 132.105 19.7227V17.2148C132.105 16.7773 132.121 16.3594 132.152 15.9609C132.191 15.5625 132.25 15.1953 132.328 14.8594C132.43 14.4219 132.57 14.0391 132.75 13.7109C132.938 13.3828 133.164 13.1094 133.43 12.8906C133.625 12.7422 133.844 12.6289 134.086 12.5508C134.336 12.4727 134.613 12.4336 134.918 12.4336C135.238 12.4336 135.527 12.4766 135.785 12.5625C136.051 12.6484 136.289 12.7695 136.5 12.9258C136.766 13.1367 136.996 13.4102 137.191 13.7461C137.387 14.0742 137.543 14.4492 137.66 14.8711C137.754 15.207 137.82 15.5742 137.859 15.9727C137.906 16.3633 137.93 16.7773 137.93 17.2148ZM148.707 27H153.289C154.047 27 154.758 26.9062 155.422 26.7188C156.094 26.5312 156.707 26.2617 157.262 25.9102C157.738 25.6133 158.176 25.2461 158.574 24.8086C158.973 24.3633 159.32 23.8789 159.617 23.3555C159.93 22.7695 160.172 22.125 160.344 21.4219C160.516 20.7188 160.602 19.9727 160.602 19.1836V17.7773C160.602 16.957 160.508 16.1836 160.32 15.457C160.141 14.7305 159.883 14.0664 159.547 13.4648C159.258 12.9727 158.918 12.5195 158.527 12.1055C158.145 11.6836 157.707 11.3281 157.215 11.0391C156.652 10.6875 156.027 10.418 155.34 10.2305C154.652 10.0352 153.914 9.9375 153.125 9.9375H148.707V27ZM152.023 12.6094H153.125C153.523 12.6094 153.891 12.6562 154.227 12.75C154.57 12.8359 154.883 12.9609 155.164 13.125C155.531 13.3438 155.852 13.625 156.125 13.9688C156.406 14.3125 156.633 14.7031 156.805 15.1406C156.945 15.5078 157.051 15.9141 157.121 16.3594C157.199 16.7969 157.238 17.2617 157.238 17.7539V19.1836C157.238 19.707 157.199 20.1953 157.121 20.6484C157.051 21.0938 156.945 21.5 156.805 21.8672C156.633 22.2891 156.426 22.6602 156.184 22.9805C155.949 23.293 155.684 23.5508 155.387 23.7539C155.098 23.9492 154.777 24.0977 154.426 24.1992C154.074 24.3008 153.695 24.3516 153.289 24.3516H152.023V12.6094ZM179.559 9.9375H176.289L176.277 21.2461C176.27 21.8008 176.211 22.2891 176.102 22.7109C175.992 23.1328 175.828 23.4844 175.609 23.7656C175.406 24.0391 175.148 24.2461 174.836 24.3867C174.531 24.5195 174.18 24.5859 173.781 24.5859C173.414 24.5859 173.09 24.5234 172.809 24.3984C172.527 24.2656 172.289 24.0703 172.094 23.8125C171.883 23.5312 171.723 23.1758 171.613 22.7461C171.512 22.3164 171.457 21.8164 171.449 21.2461L171.438 9.9375H168.145L168.133 21.2461C168.133 22.1992 168.266 23.0508 168.531 23.8008C168.805 24.543 169.188 25.168 169.68 25.6758C170.172 26.1836 170.762 26.5703 171.449 26.8359C172.145 27.1016 172.922 27.2344 173.781 27.2344C174.695 27.2344 175.508 27.1016 176.219 26.8359C176.938 26.5703 177.547 26.1797 178.047 25.6641C178.539 25.1562 178.914 24.5312 179.172 23.7891C179.438 23.0469 179.57 22.1992 179.57 21.2461L179.559 9.9375ZM199.453 21.6562H196.16C196.129 22.1719 196.043 22.6133 195.902 22.9805C195.762 23.3477 195.57 23.6484 195.328 23.8828C195.086 24.1172 194.793 24.2891 194.449 24.3984C194.105 24.5078 193.719 24.5625 193.289 24.5625C192.969 24.5625 192.676 24.5273 192.41 24.457C192.152 24.3789 191.918 24.2617 191.707 24.1055C191.512 23.9648 191.336 23.7891 191.18 23.5781C191.031 23.3672 190.902 23.125 190.793 22.8516C190.637 22.4531 190.52 21.9883 190.441 21.457C190.371 20.918 190.336 20.3086 190.336 19.6289V17.3086C190.336 16.8086 190.359 16.3438 190.406 15.9141C190.453 15.4766 190.527 15.0781 190.629 14.7188C190.762 14.2578 190.938 13.8555 191.156 13.5117C191.383 13.1602 191.656 12.8906 191.977 12.7031C192.164 12.5938 192.367 12.5117 192.586 12.457C192.812 12.4023 193.055 12.375 193.312 12.375C193.797 12.375 194.211 12.4414 194.555 12.5742C194.906 12.6992 195.199 12.8867 195.434 13.1367C195.66 13.3945 195.832 13.7148 195.949 14.0977C196.074 14.4805 196.152 14.9258 196.184 15.4336H199.465C199.387 14.543 199.199 13.7422 198.902 13.0312C198.605 12.3203 198.199 11.7188 197.684 11.2266C197.168 10.7344 196.543 10.3555 195.809 10.0898C195.082 9.82422 194.25 9.69141 193.312 9.69141C192.68 9.69141 192.086 9.77344 191.531 9.9375C190.984 10.0938 190.48 10.3203 190.02 10.6172C189.504 10.9688 189.043 11.3984 188.637 11.9062C188.23 12.4141 187.902 12.9922 187.652 13.6406C187.434 14.1719 187.27 14.75 187.16 15.375C187.051 15.9922 186.996 16.6445 186.996 17.332V19.6289C186.996 20.3633 187.055 21.0586 187.172 21.7148C187.297 22.3711 187.473 22.9727 187.699 23.5195C187.934 24.0664 188.219 24.5664 188.555 25.0195C188.898 25.4727 189.289 25.8594 189.727 26.1797C190.203 26.5234 190.738 26.7891 191.332 26.9766C191.934 27.1562 192.586 27.2461 193.289 27.2461C194.18 27.2461 194.992 27.1172 195.727 26.8594C196.461 26.5938 197.094 26.2188 197.625 25.7344C198.156 25.25 198.578 24.6641 198.891 23.9766C199.211 23.2891 199.398 22.5156 199.453 21.6562ZM219.559 12.6211V9.9375H205.801V12.6211H210.992V27H214.297V12.6211H219.559ZM256.676 19.9336V17.2617H249.363V12.6211H257.59V9.9375H246.059V27H249.363V19.9336H256.676ZM275.762 19.5234V16.9219H268.754V12.6211H276.91V9.9375H265.449V27H276.945V24.3398H268.754V19.5234H275.762ZM293.066 23.4375L294.062 27H297.531L292.047 9.9375H289.059L283.469 27H286.938L287.945 23.4375H293.066ZM288.754 20.6367L290.547 14.3555L292.293 20.6367H288.754ZM316.629 12.6211V9.9375H302.871V12.6211H308.062V27H311.367V12.6211H316.629ZM334.871 9.9375H331.602L331.59 21.2461C331.582 21.8008 331.523 22.2891 331.414 22.7109C331.305 23.1328 331.141 23.4844 330.922 23.7656C330.719 24.0391 330.461 24.2461 330.148 24.3867C329.844 24.5195 329.492 24.5859 329.094 24.5859C328.727 24.5859 328.402 24.5234 328.121 24.3984C327.84 24.2656 327.602 24.0703 327.406 23.8125C327.195 23.5312 327.035 23.1758 326.926 22.7461C326.824 22.3164 326.77 21.8164 326.762 21.2461L326.75 9.9375H323.457L323.445 21.2461C323.445 22.1992 323.578 23.0508 323.844 23.8008C324.117 24.543 324.5 25.168 324.992 25.6758C325.484 26.1836 326.074 26.5703 326.762 26.8359C327.457 27.1016 328.234 27.2344 329.094 27.2344C330.008 27.2344 330.82 27.1016 331.531 26.8359C332.25 26.5703 332.859 26.1797 333.359 25.6641C333.852 25.1562 334.227 24.5312 334.484 23.7891C334.75 23.0469 334.883 22.1992 334.883 21.2461L334.871 9.9375ZM348.707 20.625L351.918 27H355.445V26.8477L351.777 19.8047C352.246 19.5938 352.668 19.3438 353.043 19.0547C353.426 18.7656 353.754 18.4258 354.027 18.0352C354.293 17.6523 354.496 17.2188 354.637 16.7344C354.785 16.2422 354.859 15.6914 354.859 15.082C354.859 14.2383 354.711 13.4961 354.414 12.8555C354.125 12.2148 353.711 11.6797 353.172 11.25C352.625 10.8203 351.969 10.4961 351.203 10.2773C350.438 10.0508 349.582 9.9375 348.637 9.9375H342.918V27H346.211V20.625H348.707ZM346.211 17.9531V12.6094H348.637C349.09 12.6094 349.492 12.6641 349.844 12.7734C350.195 12.8828 350.492 13.0391 350.734 13.2422C351.008 13.4688 351.211 13.7578 351.344 14.1094C351.484 14.4531 351.555 14.8516 351.555 15.3047C351.555 15.6797 351.5 16.0195 351.391 16.3242C351.289 16.6289 351.137 16.8906 350.934 17.1094C350.691 17.3828 350.375 17.5938 349.984 17.7422C349.602 17.8828 349.156 17.9531 348.648 17.9531H346.211ZM372.832 19.5234V16.9219H365.824V12.6211H373.98V9.9375H362.52V27H374.016V24.3398H365.824V19.5234H372.832ZM401.887 9.9375V12.5977H405.133V24.3516H401.887V27H411.754V24.3516H408.426V12.5977H411.754V9.9375H401.887ZM432.422 21.6562H429.129C429.098 22.1719 429.012 22.6133 428.871 22.9805C428.73 23.3477 428.539 23.6484 428.297 23.8828C428.055 24.1172 427.762 24.2891 427.418 24.3984C427.074 24.5078 426.688 24.5625 426.258 24.5625C425.938 24.5625 425.645 24.5273 425.379 24.457C425.121 24.3789 424.887 24.2617 424.676 24.1055C424.48 23.9648 424.305 23.7891 424.148 23.5781C424 23.3672 423.871 23.125 423.762 22.8516C423.605 22.4531 423.488 21.9883 423.41 21.457C423.34 20.918 423.305 20.3086 423.305 19.6289V17.3086C423.305 16.8086 423.328 16.3438 423.375 15.9141C423.422 15.4766 423.496 15.0781 423.598 14.7188C423.73 14.2578 423.906 13.8555 424.125 13.5117C424.352 13.1602 424.625 12.8906 424.945 12.7031C425.133 12.5938 425.336 12.5117 425.555 12.457C425.781 12.4023 426.023 12.375 426.281 12.375C426.766 12.375 427.18 12.4414 427.523 12.5742C427.875 12.6992 428.168 12.8867 428.402 13.1367C428.629 13.3945 428.801 13.7148 428.918 14.0977C429.043 14.4805 429.121 14.9258 429.152 15.4336H432.434C432.355 14.543 432.168 13.7422 431.871 13.0312C431.574 12.3203 431.168 11.7188 430.652 11.2266C430.137 10.7344 429.512 10.3555 428.777 10.0898C428.051 9.82422 427.219 9.69141 426.281 9.69141C425.648 9.69141 425.055 9.77344 424.5 9.9375C423.953 10.0938 423.449 10.3203 422.988 10.6172C422.473 10.9688 422.012 11.3984 421.605 11.9062C421.199 12.4141 420.871 12.9922 420.621 13.6406C420.402 14.1719 420.238 14.75 420.129 15.375C420.02 15.9922 419.965 16.6445 419.965 17.332V19.6289C419.965 20.3633 420.023 21.0586 420.141 21.7148C420.266 22.3711 420.441 22.9727 420.668 23.5195C420.902 24.0664 421.188 24.5664 421.523 25.0195C421.867 25.4727 422.258 25.8594 422.695 26.1797C423.172 26.5234 423.707 26.7891 424.301 26.9766C424.902 27.1562 425.555 27.2461 426.258 27.2461C427.148 27.2461 427.961 27.1172 428.695 26.8594C429.43 26.5938 430.062 26.2188 430.594 25.7344C431.125 25.25 431.547 24.6641 431.859 23.9766C432.18 23.2891 432.367 22.5156 432.422 21.6562ZM451.895 19.7227V17.2383C451.895 16.4648 451.82 15.7344 451.672 15.0469C451.531 14.3594 451.324 13.7266 451.051 13.1484C450.801 12.6406 450.5 12.1758 450.148 11.7539C449.805 11.332 449.402 10.9727 448.941 10.6758C448.48 10.3633 447.961 10.125 447.383 9.96094C446.812 9.78906 446.199 9.70312 445.543 9.70312C444.895 9.70312 444.293 9.78516 443.738 9.94922C443.184 10.1133 442.684 10.3477 442.238 10.6523C441.785 10.9648 441.383 11.3398 441.031 11.7773C440.688 12.2148 440.395 12.7031 440.152 13.2422C439.902 13.8125 439.711 14.4336 439.578 15.1055C439.453 15.7773 439.391 16.4883 439.391 17.2383V19.7227C439.391 20.4258 439.445 21.0938 439.555 21.7266C439.672 22.3594 439.84 22.9453 440.059 23.4844C440.301 24.0703 440.602 24.5977 440.961 25.0664C441.32 25.5273 441.727 25.9219 442.18 26.25C442.641 26.5625 443.152 26.8047 443.715 26.9766C444.277 27.1484 444.891 27.2344 445.555 27.2344C446.18 27.2344 446.762 27.1562 447.301 27C447.848 26.8516 448.348 26.6406 448.801 26.3672C449.301 26.0547 449.746 25.6641 450.137 25.1953C450.527 24.7266 450.855 24.2109 451.121 23.6484C451.371 23.0859 451.562 22.4766 451.695 21.8203C451.828 21.1562 451.895 20.457 451.895 19.7227ZM448.555 17.2148V19.7227C448.555 20.1445 448.531 20.5508 448.484 20.9414C448.445 21.332 448.383 21.6914 448.297 22.0195C448.188 22.4414 448.039 22.8203 447.852 23.1562C447.672 23.4844 447.449 23.7578 447.184 23.9766C446.973 24.1562 446.73 24.293 446.457 24.3867C446.184 24.4805 445.883 24.5273 445.555 24.5273C445.211 24.5273 444.902 24.4766 444.629 24.375C444.363 24.2734 444.125 24.1289 443.914 23.9414C443.688 23.7305 443.488 23.457 443.316 23.1211C443.152 22.7773 443.027 22.3984 442.941 21.9844C442.863 21.6562 442.809 21.3008 442.777 20.918C442.746 20.5352 442.73 20.1367 442.73 19.7227V17.2148C442.73 16.7773 442.746 16.3594 442.777 15.9609C442.816 15.5625 442.875 15.1953 442.953 14.8594C443.055 14.4219 443.195 14.0391 443.375 13.7109C443.562 13.3828 443.789 13.1094 444.055 12.8906C444.25 12.7422 444.469 12.6289 444.711 12.5508C444.961 12.4727 445.238 12.4336 445.543 12.4336C445.863 12.4336 446.152 12.4766 446.41 12.5625C446.676 12.6484 446.914 12.7695 447.125 12.9258C447.391 13.1367 447.621 13.4102 447.816 13.7461C448.012 14.0742 448.168 14.4492 448.285 14.8711C448.379 15.207 448.445 15.5742 448.484 15.9727C448.531 16.3633 448.555 16.7773 448.555 17.2148ZM470.652 27V9.9375H467.348L467.336 20.8945L462.625 9.9375H459.309V27H462.625V15.9961L467.371 27H470.652ZM487.676 22.5469C487.676 22.8516 487.613 23.1328 487.488 23.3906C487.363 23.6406 487.184 23.8555 486.949 24.0352C486.715 24.2148 486.426 24.3555 486.082 24.457C485.746 24.5586 485.359 24.6094 484.922 24.6094C484.43 24.6094 483.977 24.5547 483.562 24.4453C483.156 24.3359 482.809 24.1641 482.52 23.9297C482.223 23.6953 481.992 23.3945 481.828 23.0273C481.664 22.6602 481.574 22.2188 481.559 21.7031H478.324C478.324 22.5859 478.492 23.3555 478.828 24.0117C479.172 24.668 479.637 25.2383 480.223 25.7227C480.84 26.2148 481.562 26.5898 482.391 26.8477C483.227 27.0977 484.07 27.2227 484.922 27.2227C485.789 27.2227 486.59 27.1211 487.324 26.918C488.059 26.707 488.691 26.3984 489.223 25.9922C489.754 25.5938 490.168 25.1055 490.465 24.5273C490.77 23.9414 490.922 23.2734 490.922 22.5234C490.922 21.6562 490.723 20.8906 490.324 20.2266C489.926 19.5625 489.391 18.9805 488.719 18.4805C488.273 18.1758 487.785 17.9062 487.254 17.6719C486.723 17.4375 486.164 17.2383 485.578 17.0742C485.031 16.9258 484.539 16.7656 484.102 16.5938C483.672 16.4219 483.305 16.2305 483 16.0195C482.695 15.8164 482.461 15.5859 482.297 15.3281C482.141 15.0703 482.062 14.7812 482.062 14.4609C482.062 14.1562 482.121 13.875 482.238 13.6172C482.363 13.3516 482.543 13.1211 482.777 12.9258C483.012 12.7383 483.297 12.5938 483.633 12.4922C483.977 12.3828 484.367 12.3281 484.805 12.3281C485.281 12.3281 485.695 12.3945 486.047 12.5273C486.406 12.6523 486.707 12.8281 486.949 13.0547C487.184 13.2891 487.359 13.5664 487.477 13.8867C487.602 14.207 487.672 14.5586 487.688 14.9414H490.898C490.898 14.1758 490.75 13.4727 490.453 12.832C490.156 12.1914 489.742 11.6367 489.211 11.168C488.68 10.707 488.043 10.3477 487.301 10.0898C486.566 9.83203 485.754 9.70312 484.863 9.70312C484.004 9.70312 483.207 9.81641 482.473 10.043C481.738 10.2617 481.102 10.5781 480.562 10.9922C480.023 11.4062 479.602 11.9062 479.297 12.4922C478.992 13.0781 478.84 13.7305 478.84 14.4492C478.84 15.0742 478.953 15.6523 479.18 16.1836C479.414 16.7148 479.758 17.1992 480.211 17.6367C480.664 18.0742 481.246 18.4766 481.957 18.8438C482.676 19.2109 483.508 19.5234 484.453 19.7812C485.062 19.9453 485.57 20.125 485.977 20.3203C486.391 20.5078 486.727 20.7148 486.984 20.9414C487.234 21.1758 487.41 21.4258 487.512 21.6914C487.621 21.957 487.676 22.2422 487.676 22.5469Z"/>
<g>
<rect x="0.25" y="76.25" width="1228.5" height="0.5" stroke="#AA0020" stroke-width="0.5"/>
</g>
</g>
</svg>
