<svg width="103" height="9" viewBox="0 0 103 9" xmlns="http://www.w3.org/2000/svg">
<path d="M2.07129 6.8916H5.40137V8H0.694336V0.890625H2.07129V6.8916ZM8.91016 0.890625H13.0215V1.99902H11.6348V6.89648H13.0215V8H8.91016V6.89648H10.2627V1.99902H8.91016V0.890625ZM21.125 5.05566H18.0781V8H16.7012V0.890625H21.5059V2.00879H18.0781V3.94238H21.125V5.05566ZM29.8438 2.00879H27.6514V8H26.2744V2.00879H24.1113V0.890625H29.8438V2.00879ZM37.4297 5.41211H33.3623V4.31348H37.4297V5.41211ZM45.5674 5.77344C45.5446 6.13151 45.4665 6.45378 45.333 6.74023C45.2028 7.02669 45.027 7.27083 44.8057 7.47266C44.5843 7.67448 44.3206 7.83073 44.0146 7.94141C43.7087 8.04883 43.3701 8.10254 42.999 8.10254C42.5791 8.10254 42.2064 8.02604 41.8809 7.87305C41.5553 7.7168 41.2819 7.50033 41.0605 7.22363C40.8392 6.94368 40.6699 6.6084 40.5527 6.21777C40.4355 5.82715 40.377 5.39746 40.377 4.92871V3.97168C40.377 3.49967 40.4388 3.06836 40.5625 2.67773C40.6862 2.28711 40.862 1.95182 41.0898 1.67188C41.3177 1.39193 41.5928 1.17546 41.915 1.02246C42.2406 0.866211 42.6051 0.788086 43.0088 0.788086C43.3994 0.788086 43.7461 0.843424 44.0488 0.954102C44.3548 1.06478 44.6152 1.22266 44.8301 1.42773C45.0449 1.63281 45.2142 1.88346 45.3379 2.17969C45.4616 2.47591 45.5397 2.80957 45.5723 3.18066H44.2051C44.1921 2.96908 44.1595 2.78353 44.1074 2.62402C44.0586 2.46452 43.9854 2.33268 43.8877 2.22852C43.7933 2.12109 43.6729 2.04134 43.5264 1.98926C43.3831 1.93392 43.2106 1.90625 43.0088 1.90625C42.7972 1.90625 42.6133 1.95182 42.457 2.04297C42.3008 2.13411 42.1706 2.26758 42.0664 2.44336C41.9655 2.61914 41.8906 2.83561 41.8418 3.09277C41.793 3.34668 41.7686 3.63639 41.7686 3.96191V4.92871C41.7686 5.62858 41.8662 6.14616 42.0615 6.48145C42.2601 6.81673 42.5726 6.98438 42.999 6.98438C43.3571 6.98438 43.6403 6.88997 43.8486 6.70117C44.057 6.50911 44.1725 6.19987 44.1953 5.77344H45.5674ZM52.1328 6.51562H49.999L49.5791 8H48.1338L50.4629 0.890625H51.708L53.9932 8H52.5479L52.1328 6.51562ZM50.3359 5.34863H51.8105L51.083 2.73145L50.3359 5.34863ZM58.1025 5.39258V8H56.7305V0.890625H59.1621C59.5495 0.890625 59.8994 0.947591 60.2119 1.06152C60.5244 1.1722 60.7897 1.32845 61.0078 1.53027C61.2292 1.72884 61.3984 1.9681 61.5156 2.24805C61.6361 2.52799 61.6963 2.83887 61.6963 3.18066C61.6963 3.49967 61.6361 3.79427 61.5156 4.06445C61.3984 4.33464 61.2292 4.56901 61.0078 4.76758C60.7897 4.96289 60.5244 5.11589 60.2119 5.22656C59.8994 5.33724 59.5495 5.39258 59.1621 5.39258H58.1025ZM58.1025 4.2793H59.1621C59.3574 4.2793 59.5267 4.25 59.6699 4.19141C59.8132 4.13281 59.932 4.05306 60.0264 3.95215C60.124 3.85124 60.1956 3.73568 60.2412 3.60547C60.29 3.47201 60.3145 3.33366 60.3145 3.19043C60.3145 3.02441 60.29 2.86979 60.2412 2.72656C60.1956 2.58333 60.124 2.45801 60.0264 2.35059C59.932 2.24316 59.8132 2.15853 59.6699 2.09668C59.5267 2.03483 59.3574 2.00391 59.1621 2.00391H58.1025V4.2793ZM68.1445 6.51562H66.0107L65.5908 8H64.1455L66.4746 0.890625H67.7197L70.0049 8H68.5596L68.1445 6.51562ZM66.3477 5.34863H67.8223L67.0947 2.73145L66.3477 5.34863ZM77.5908 5.77344C77.568 6.13151 77.4899 6.45378 77.3564 6.74023C77.2262 7.02669 77.0505 7.27083 76.8291 7.47266C76.6077 7.67448 76.3441 7.83073 76.0381 7.94141C75.7321 8.04883 75.3936 8.10254 75.0225 8.10254C74.6025 8.10254 74.2298 8.02604 73.9043 7.87305C73.5788 7.7168 73.3053 7.50033 73.084 7.22363C72.8626 6.94368 72.6934 6.6084 72.5762 6.21777C72.459 5.82715 72.4004 5.39746 72.4004 4.92871V3.97168C72.4004 3.49967 72.4622 3.06836 72.5859 2.67773C72.7096 2.28711 72.8854 1.95182 73.1133 1.67188C73.3411 1.39193 73.6162 1.17546 73.9385 1.02246C74.264 0.866211 74.6286 0.788086 75.0322 0.788086C75.4229 0.788086 75.7695 0.843424 76.0723 0.954102C76.3783 1.06478 76.6387 1.22266 76.8535 1.42773C77.0684 1.63281 77.2376 1.88346 77.3613 2.17969C77.485 2.47591 77.5632 2.80957 77.5957 3.18066H76.2285C76.2155 2.96908 76.1829 2.78353 76.1309 2.62402C76.082 2.46452 76.0088 2.33268 75.9111 2.22852C75.8167 2.12109 75.6963 2.04134 75.5498 1.98926C75.4066 1.93392 75.234 1.90625 75.0322 1.90625C74.8206 1.90625 74.6367 1.95182 74.4805 2.04297C74.3242 2.13411 74.194 2.26758 74.0898 2.44336C73.9889 2.61914 73.9141 2.83561 73.8652 3.09277C73.8164 3.34668 73.792 3.63639 73.792 3.96191V4.92871C73.792 5.62858 73.8896 6.14616 74.085 6.48145C74.2835 6.81673 74.596 6.98438 75.0225 6.98438C75.3805 6.98438 75.6637 6.88997 75.8721 6.70117C76.0804 6.50911 76.196 6.19987 76.2188 5.77344H77.5908ZM80.9629 0.890625H85.0742V1.99902H83.6875V6.89648H85.0742V8H80.9629V6.89648H82.3154V1.99902H80.9629V0.890625ZM93.8906 2.00879H91.6982V8H90.3213V2.00879H88.1582V0.890625H93.8906V2.00879ZM99.0986 4.16699L100.5 0.890625H102.009L99.7725 5.53906L99.7676 8H98.4004L98.3955 5.48047L96.1934 0.890625H97.6973L99.0986 4.16699Z"/>
</svg>
