<svg width="32" height="32" viewBox="0 0 32 32" xmlns="http://www.w3.org/2000/svg">
<g>
<path d="M27.85 4.14995C25.0248 1.31805 20.1138 1.08939 17.2 3.99995L6.00001 15.5L6 24.5L2 28.5L3.49997 29.9999L7.49997 25.9999L16.5 26L27.85 14.7499C30.7603 11.8363 30.6621 6.96872 27.85 4.14995ZM26.45 13.3499L15.65 24H9.5L21.5 12L20 10.4999L14 16.4999L14 10.25L18.65 5.49995C20.7884 3.36395 24.38 3.47491 26.45 5.54995C28.5101 7.615 28.586 11.2115 26.45 13.3499ZM7.99996 22.4999L8.00001 16.35L12 12.25L12 18.4999L7.99996 22.4999Z"/>
</g>
</svg>
