<svg width="46" height="31" viewBox="0 0 46 31" xmlns="http://www.w3.org/2000/svg">
<path id="Load- center" d="M6.09473 6.8916H9.4248V8H4.71777V0.890625H6.09473V6.8916ZM17.5918 4.96777C17.5918 5.4235 17.5316 5.84342 17.4111 6.22754C17.2907 6.61165 17.1165 6.94206 16.8887 7.21875C16.6608 7.49544 16.3825 7.71191 16.0537 7.86816C15.7282 8.02116 15.3604 8.09766 14.9502 8.09766C14.54 8.09766 14.1755 8.02116 13.8564 7.86816C13.5374 7.71191 13.2689 7.49544 13.0508 7.21875C12.8327 6.9388 12.6667 6.6084 12.5527 6.22754C12.4388 5.84342 12.3818 5.4235 12.3818 4.96777V3.93262C12.3818 3.47689 12.4388 3.05697 12.5527 2.67285C12.6667 2.28874 12.8327 1.95833 13.0508 1.68164C13.2689 1.40169 13.5358 1.18359 13.8516 1.02734C14.1706 0.871094 14.5352 0.792969 14.9453 0.792969C15.3587 0.792969 15.7282 0.871094 16.0537 1.02734C16.3825 1.18359 16.6608 1.40169 16.8887 1.68164C17.1165 1.95833 17.2907 2.28874 17.4111 2.67285C17.5316 3.05697 17.5918 3.47689 17.5918 3.93262V4.96777ZM16.2002 3.92285C16.2002 3.63314 16.1758 3.36621 16.127 3.12207C16.0814 2.87793 16.0081 2.66797 15.9072 2.49219C15.8063 2.31641 15.6761 2.17969 15.5166 2.08203C15.3604 1.98112 15.1699 1.93066 14.9453 1.93066C14.724 1.93066 14.5384 1.98112 14.3887 2.08203C14.2389 2.17969 14.1185 2.31641 14.0273 2.49219C13.9362 2.66797 13.8711 2.87793 13.832 3.12207C13.793 3.36621 13.7734 3.63314 13.7734 3.92285V4.96777C13.7734 5.25423 13.793 5.51953 13.832 5.76367C13.8711 6.00781 13.9362 6.2194 14.0273 6.39844C14.1185 6.57747 14.2389 6.71745 14.3887 6.81836C14.5384 6.91927 14.7256 6.96973 14.9502 6.96973C15.1715 6.96973 15.3604 6.91927 15.5166 6.81836C15.6761 6.71745 15.8047 6.5791 15.9023 6.40332C16.0033 6.22428 16.0781 6.0127 16.127 5.76855C16.1758 5.52441 16.2002 5.25749 16.2002 4.96777V3.92285ZM24.1328 6.51562H21.999L21.5791 8H20.1338L22.4629 0.890625H23.708L25.9932 8H24.5479L24.1328 6.51562ZM22.3359 5.34863H23.8105L23.083 2.73145L22.3359 5.34863ZM28.6133 8V0.890625H30.4541C30.9261 0.890625 31.3525 0.972005 31.7334 1.13477C32.1175 1.29427 32.4447 1.51888 32.7148 1.80859C32.9883 2.09505 33.1982 2.43848 33.3447 2.83887C33.4945 3.23926 33.5693 3.67871 33.5693 4.15723V4.74316C33.5693 5.22168 33.4945 5.66113 33.3447 6.06152C33.1982 6.45866 32.9915 6.80208 32.7246 7.0918C32.4577 7.37826 32.137 7.60124 31.7627 7.76074C31.3883 7.92025 30.9749 8 30.5225 8H28.6133ZM29.9951 2.00391V6.89648H30.5225C30.7796 6.89648 31.0091 6.84766 31.2109 6.75C31.416 6.65234 31.5885 6.51074 31.7285 6.3252C31.8717 6.13965 31.9808 5.91504 32.0557 5.65137C32.1305 5.38444 32.168 5.08171 32.168 4.74316V4.14746C32.168 3.82845 32.1305 3.53874 32.0557 3.27832C31.984 3.01465 31.875 2.78841 31.7285 2.59961C31.5853 2.41081 31.4062 2.26432 31.1914 2.16016C30.9798 2.05599 30.734 2.00391 30.4541 2.00391H29.9951ZM41.4531 5.41211H37.3857V4.31348H41.4531V5.41211ZM5.55859 27.7734C5.53581 28.1315 5.45768 28.4538 5.32422 28.7402C5.19401 29.0267 5.01823 29.2708 4.79688 29.4727C4.57552 29.6745 4.31185 29.8307 4.00586 29.9414C3.69987 30.0488 3.36133 30.1025 2.99023 30.1025C2.57031 30.1025 2.19759 30.026 1.87207 29.873C1.54655 29.7168 1.27311 29.5003 1.05176 29.2236C0.830404 28.9437 0.661133 28.6084 0.543945 28.2178C0.426758 27.8271 0.368164 27.3975 0.368164 26.9287V25.9717C0.368164 25.4997 0.430013 25.0684 0.553711 24.6777C0.677409 24.2871 0.85319 23.9518 1.08105 23.6719C1.30892 23.3919 1.58398 23.1755 1.90625 23.0225C2.23177 22.8662 2.59635 22.7881 3 22.7881C3.39062 22.7881 3.7373 22.8434 4.04004 22.9541C4.34603 23.0648 4.60645 23.2227 4.82129 23.4277C5.03613 23.6328 5.2054 23.8835 5.3291 24.1797C5.4528 24.4759 5.53092 24.8096 5.56348 25.1807H4.19629C4.18327 24.9691 4.15072 24.7835 4.09863 24.624C4.0498 24.4645 3.97656 24.3327 3.87891 24.2285C3.78451 24.1211 3.66406 24.0413 3.51758 23.9893C3.37435 23.9339 3.20182 23.9062 3 23.9062C2.78841 23.9062 2.60449 23.9518 2.44824 24.043C2.29199 24.1341 2.16178 24.2676 2.05762 24.4434C1.95671 24.6191 1.88184 24.8356 1.83301 25.0928C1.78418 25.3467 1.75977 25.6364 1.75977 25.9619V26.9287C1.75977 27.6286 1.85742 28.1462 2.05273 28.4814C2.2513 28.8167 2.5638 28.9844 2.99023 28.9844C3.34831 28.9844 3.63151 28.89 3.83984 28.7012C4.04818 28.5091 4.16374 28.1999 4.18652 27.7734H5.55859ZM13.0029 26.8848H10.083V28.8916H13.4961V30H8.70605V22.8906H13.4814V24.0088H10.083V25.8008H13.0029V26.8848ZM21.3213 30H19.9541L17.9766 25.415V30H16.5947V22.8906H17.9766L19.9395 27.4561L19.9443 22.8906H21.3213V30ZM29.8643 24.0088H27.6719V30H26.2949V24.0088H24.1318V22.8906H29.8643V24.0088ZM37.0205 26.8848H34.1006V28.8916H37.5137V30H32.7236V22.8906H37.499V24.0088H34.1006V25.8008H37.0205V26.8848ZM43.0635 27.3438H42.0234V30H40.6514V22.8906H43.0342C43.4281 22.8906 43.7845 22.9378 44.1035 23.0322C44.4225 23.1234 44.6943 23.2585 44.9189 23.4375C45.1468 23.6165 45.321 23.8395 45.4414 24.1064C45.5651 24.3734 45.627 24.6826 45.627 25.0342C45.627 25.2881 45.596 25.5176 45.5342 25.7227C45.4756 25.9245 45.3893 26.1068 45.2754 26.2695C45.1647 26.429 45.0296 26.569 44.8701 26.6895C44.7139 26.8099 44.5381 26.9141 44.3428 27.002L45.8711 29.9365V30H44.4014L43.0635 27.3438ZM42.0234 26.2305H43.0391C43.4264 26.2305 43.7243 26.1328 43.9326 25.9375C44.1442 25.7389 44.25 25.4688 44.25 25.127C44.25 24.7721 44.1475 24.4971 43.9424 24.3018C43.7373 24.1032 43.4346 24.0039 43.0342 24.0039H42.0234V26.2305Z"/>
</svg>
