<svg width="32" height="32" viewBox="0 0 32 32" xmlns="http://www.w3.org/2000/svg">
<g>
<path id="Combined Shape" fill-rule="evenodd" clip-rule="evenodd" d="M23.9571 8.794L23.9181 8.658C23.6931 8.042 22.9531 7 21.5001 7H18.9341C19.2741 6.581 19.5001 6.08 19.5001 5.5C19.5001 3.57 17.9301 2 16.0001 2C14.0701 2 12.5001 3.57 12.5001 5.5C12.5001 6.084 12.6931 6.579 12.9861 7H10.5001C9.00006 7 8.26306 8.042 8.03906 8.658L3.97806 28C3.95606 28.144 3.97106 28.913 4.41006 29.352C4.68606 29.627 5.14306 30 5.97806 30H25.9781C26.8131 30 27.2701 29.628 27.5461 29.352C27.9819 28.9162 27.9799 28.4474 27.9783 28.0675L27.9781 28L23.9571 8.794ZM16.0001 4C16.8271 4 17.5001 4.673 17.5001 5.5C17.5001 6.327 16.8271 7 16.0001 7C15.1731 7 14.5001 6.327 14.5001 5.5C14.5001 4.673 15.1731 4 16.0001 4ZM9.93606 9.304L6.00006 28H26.0001L22.0201 9.305C21.9731 9.215 21.8381 9 21.6141 9H10.3421C10.1181 9 9.98206 9.214 9.93606 9.304ZM15.7071 17H14.2931L12.5001 18.793V17H11.5001V22H12.5001V20.207L12.9461 19.761L14.6251 22H15.8751L13.6601 19.047L15.7071 17ZM20.0001 20H18.5001V19H21.0001V19.5C21.0001 21.031 20.0001 22 18.5001 22C17.1221 22 16.0001 20.878 16.0001 19.5C16.0001 18.122 17.1221 17 18.5001 17C19.3751 17 20.1441 17.454 20.5911 18.136L19.5001 18.5C19.2261 18.211 18.9281 18 18.5001 18C17.6731 18 17.0001 18.673 17.0001 19.5C17.0001 20.327 17.6731 21 18.5001 21C19.5001 21 19.8591 20.641 20.0001 20Z"/>
</g>
</svg>
