<svg width="32" height="32" viewBox="0 0 32 32" xmlns="http://www.w3.org/2000/svg">
<g>
<path id="Combined Shape" fill-rule="evenodd" clip-rule="evenodd" d="M27 4V24.81C27.0265 25.1106 26.9248 25.4084 26.72 25.63C26.3406 25.9194 25.8644 26.0518 25.39 26L5.00003 24.13V24H25V4H23V22H3.00003V24.23C2.9964 25.1869 3.72678 25.9868 4.68003 26.07L25.26 28H25.44C26.419 28.0497 27.3781 27.712 28.11 27.06C28.7094 26.4682 29.0324 25.6517 29 24.81V4H27ZM10.35 18.2L9.21003 17H19.79L18.65 18.2L19.35 18.9L21.71 16.55L19.35 14.2L18.65 14.9L19.79 16H9.21003L10.35 14.9L9.65003 14.2L7.29003 16.55L9.65003 18.9L10.35 18.2ZM16.27 12.27C15.8009 12.7395 15.1637 13.0023 14.5 13C13.3695 12.998 12.381 12.2375 12.0892 11.1452C11.7974 10.0529 12.275 8.90078 13.254 8.33525C14.2329 7.76972 15.4696 7.93158 16.27 8.73L15.56 9.44C15.1312 9.01062 14.4859 8.88194 13.9251 9.114C13.3644 9.34606 12.9987 9.89314 12.9987 10.5C12.9987 11.1069 13.3644 11.6539 13.9251 11.886C14.4859 12.1181 15.1312 11.9894 15.56 11.56L16.27 12.27Z"/>
</g>
</svg>
