<svg width="46" height="9" viewBox="0 0 46 9" xmlns="http://www.w3.org/2000/svg">
<path d="M2.0918 6.8916H5.42188V8H0.714844V0.890625H2.0918V6.8916ZM13.5889 4.96777C13.5889 5.4235 13.5286 5.84342 13.4082 6.22754C13.2878 6.61165 13.1136 6.94206 12.8857 7.21875C12.6579 7.49544 12.3796 7.71191 12.0508 7.86816C11.7253 8.02116 11.3574 8.09766 10.9473 8.09766C10.5371 8.09766 10.1725 8.02116 9.85352 7.86816C9.53451 7.71191 9.26595 7.49544 9.04785 7.21875C8.82975 6.9388 8.66374 6.6084 8.5498 6.22754C8.43587 5.84342 8.37891 5.4235 8.37891 4.96777V3.93262C8.37891 3.47689 8.43587 3.05697 8.5498 2.67285C8.66374 2.28874 8.82975 1.95833 9.04785 1.68164C9.26595 1.40169 9.53288 1.18359 9.84863 1.02734C10.1676 0.871094 10.5322 0.792969 10.9424 0.792969C11.3558 0.792969 11.7253 0.871094 12.0508 1.02734C12.3796 1.18359 12.6579 1.40169 12.8857 1.68164C13.1136 1.95833 13.2878 2.28874 13.4082 2.67285C13.5286 3.05697 13.5889 3.47689 13.5889 3.93262V4.96777ZM12.1973 3.92285C12.1973 3.63314 12.1729 3.36621 12.124 3.12207C12.0785 2.87793 12.0052 2.66797 11.9043 2.49219C11.8034 2.31641 11.6732 2.17969 11.5137 2.08203C11.3574 1.98112 11.167 1.93066 10.9424 1.93066C10.721 1.93066 10.5355 1.98112 10.3857 2.08203C10.236 2.17969 10.1156 2.31641 10.0244 2.49219C9.93327 2.66797 9.86816 2.87793 9.8291 3.12207C9.79004 3.36621 9.77051 3.63314 9.77051 3.92285V4.96777C9.77051 5.25423 9.79004 5.51953 9.8291 5.76367C9.86816 6.00781 9.93327 6.2194 10.0244 6.39844C10.1156 6.57747 10.236 6.71745 10.3857 6.81836C10.5355 6.91927 10.7227 6.96973 10.9473 6.96973C11.1686 6.96973 11.3574 6.91927 11.5137 6.81836C11.6732 6.71745 11.8018 6.5791 11.8994 6.40332C12.0003 6.22428 12.0752 6.0127 12.124 5.76855C12.1729 5.52441 12.1973 5.25749 12.1973 4.96777V3.92285ZM21.5215 7.16992C21.4336 7.27734 21.3132 7.38639 21.1602 7.49707C21.0072 7.60775 20.8249 7.70866 20.6133 7.7998C20.4049 7.8877 20.1706 7.95931 19.9102 8.01465C19.6497 8.06999 19.3698 8.09766 19.0703 8.09766C18.6667 8.09766 18.3021 8.02604 17.9766 7.88281C17.651 7.73958 17.3727 7.53288 17.1416 7.2627C16.9105 6.99251 16.7314 6.66211 16.6045 6.27148C16.4808 5.8776 16.4189 5.43164 16.4189 4.93359V3.9668C16.4189 3.46875 16.484 3.02441 16.6143 2.63379C16.7477 2.23991 16.93 1.90625 17.1611 1.63281C17.3955 1.35938 17.6689 1.15104 17.9814 1.00781C18.2972 0.864583 18.639 0.792969 19.0068 0.792969C19.4072 0.792969 19.7555 0.843424 20.0518 0.944336C20.3512 1.04525 20.6035 1.19173 20.8086 1.38379C21.0137 1.57259 21.1732 1.80371 21.2871 2.07715C21.4043 2.35059 21.4808 2.6582 21.5166 3H20.1787C20.1331 2.63542 20.0225 2.36198 19.8467 2.17969C19.6742 1.99414 19.4056 1.90137 19.041 1.90137C18.8652 1.90137 18.7025 1.94694 18.5527 2.03809C18.403 2.12598 18.2728 2.25618 18.1621 2.42871C18.0514 2.60124 17.9635 2.81608 17.8984 3.07324C17.8333 3.32715 17.8008 3.62174 17.8008 3.95703V4.93359C17.804 5.59766 17.9147 6.1071 18.1328 6.46191C18.3509 6.81348 18.6846 6.99089 19.1338 6.99414C19.2412 6.99414 19.347 6.986 19.4512 6.96973C19.5553 6.95345 19.653 6.93066 19.7441 6.90137C19.8353 6.87207 19.915 6.83952 19.9834 6.80371C20.055 6.76465 20.1087 6.72396 20.1445 6.68164L20.1494 5.39258H18.9727V4.36719H21.5166L21.5215 7.16992ZM29.6006 4.96777C29.6006 5.4235 29.5404 5.84342 29.4199 6.22754C29.2995 6.61165 29.1253 6.94206 28.8975 7.21875C28.6696 7.49544 28.3913 7.71191 28.0625 7.86816C27.737 8.02116 27.3691 8.09766 26.959 8.09766C26.5488 8.09766 26.1842 8.02116 25.8652 7.86816C25.5462 7.71191 25.2777 7.49544 25.0596 7.21875C24.8415 6.9388 24.6755 6.6084 24.5615 6.22754C24.4476 5.84342 24.3906 5.4235 24.3906 4.96777V3.93262C24.3906 3.47689 24.4476 3.05697 24.5615 2.67285C24.6755 2.28874 24.8415 1.95833 25.0596 1.68164C25.2777 1.40169 25.5446 1.18359 25.8604 1.02734C26.1794 0.871094 26.5439 0.792969 26.9541 0.792969C27.3675 0.792969 27.737 0.871094 28.0625 1.02734C28.3913 1.18359 28.6696 1.40169 28.8975 1.68164C29.1253 1.95833 29.2995 2.28874 29.4199 2.67285C29.5404 3.05697 29.6006 3.47689 29.6006 3.93262V4.96777ZM28.209 3.92285C28.209 3.63314 28.1846 3.36621 28.1357 3.12207C28.0902 2.87793 28.0169 2.66797 27.916 2.49219C27.8151 2.31641 27.6849 2.17969 27.5254 2.08203C27.3691 1.98112 27.1787 1.93066 26.9541 1.93066C26.7327 1.93066 26.5472 1.98112 26.3975 2.08203C26.2477 2.17969 26.1273 2.31641 26.0361 2.49219C25.945 2.66797 25.8799 2.87793 25.8408 3.12207C25.8018 3.36621 25.7822 3.63314 25.7822 3.92285V4.96777C25.7822 5.25423 25.8018 5.51953 25.8408 5.76367C25.8799 6.00781 25.945 6.2194 26.0361 6.39844C26.1273 6.57747 26.2477 6.71745 26.3975 6.81836C26.5472 6.91927 26.7344 6.96973 26.959 6.96973C27.1803 6.96973 27.3691 6.91927 27.5254 6.81836C27.6849 6.71745 27.8135 6.5791 27.9111 6.40332C28.012 6.22428 28.0869 6.0127 28.1357 5.76855C28.1846 5.52441 28.209 5.25749 28.209 4.96777V3.92285ZM37.3818 0.890625L37.3867 5.60254C37.3867 5.99967 37.3314 6.35286 37.2207 6.66211C37.1133 6.97135 36.9554 7.2334 36.7471 7.44824C36.542 7.65983 36.2897 7.82096 35.9902 7.93164C35.694 8.04232 35.3555 8.09766 34.9746 8.09766C34.6165 8.09766 34.2926 8.04232 34.0029 7.93164C33.7165 7.82096 33.4707 7.65983 33.2656 7.44824C33.0605 7.23665 32.901 6.97624 32.7871 6.66699C32.6764 6.35449 32.6211 5.99967 32.6211 5.60254L32.626 0.890625H33.998L34.0029 5.60254C34.0062 6.06152 34.0892 6.4082 34.252 6.64258C34.418 6.87695 34.6589 6.99414 34.9746 6.99414C35.3099 6.99414 35.5654 6.87695 35.7412 6.64258C35.9202 6.4082 36.0114 6.06152 36.0146 5.60254L36.0195 0.890625H37.3818ZM45.876 2.00879H43.6836V8H42.3066V2.00879H40.1436V0.890625H45.876V2.00879Z"/>
</svg>
