<svg width="32" height="32" viewBox="0 0 32 32" xmlns="http://www.w3.org/2000/svg">
<g>
<path fill-rule="evenodd" clip-rule="evenodd" d="M25.6311 10.901L28.4171 8.13603L30.0001 5.00003L27.7971 2.80603L24.6321 4.37703L21.8461 7.14403V9.50803L17.3811 13.942L15.5781 12.151C15.7841 11.493 15.8931 10.802 15.8931 10.094C15.8931 8.24903 15.1701 6.51503 13.8561 5.21003C12.3111 3.67703 10.1061 2.96303 7.92506 3.28203L7.60106 3.33003L5.84806 5.07003L9.49006 8.68603L8.99706 10.152L7.51906 10.641L3.87806 7.02603L2.12606 8.76603L2.07806 9.08803C1.75206 11.281 2.46006 13.427 4.02006 14.977C5.33306 16.282 7.08006 17 8.93806 17C9.75306 17 10.5431 16.854 11.2881 16.589L11.5141 16.813L4.68806 23.591C4.12506 24.149 3.81606 24.892 3.81606 25.681C3.81606 26.471 4.12606 27.214 4.68706 27.77L4.85806 27.94C5.42006 28.498 6.16806 28.806 6.96306 28.806C7.75806 28.806 8.50606 28.498 9.06806 27.94L15.8931 21.163L22.7181 27.94C23.2981 28.516 24.0601 28.804 24.8231 28.804C25.5861 28.804 26.3481 28.516 26.9291 27.939L27.0981 27.772C27.6611 27.214 27.9711 26.471 27.9711 25.681C27.9711 24.892 27.6611 24.149 27.0991 23.591L18.7851 15.336L23.2501 10.902H25.6311V10.901ZM5.42306 13.584C4.44106 12.608 3.93306 11.297 3.98906 9.92303L6.98306 12.896L10.5651 11.711L11.7591 8.15303L8.76606 5.18003C10.1641 5.14003 11.4801 5.63803 12.4531 6.60303C14.3911 8.52703 14.3911 11.659 12.4531 13.584C11.5151 14.516 10.2661 15.029 8.93806 15.029C7.61006 15.029 6.36206 14.516 5.42306 13.584ZM7.66506 26.546C7.29006 26.918 6.63506 26.915 6.26206 26.547L6.09006 26.376C5.90306 26.19 5.80006 25.944 5.80006 25.681C5.80006 25.418 5.90306 25.171 6.09106 24.984L12.9171 18.206L14.4911 19.769L7.66506 26.546ZM25.9861 25.681C25.9861 25.945 25.8831 26.191 25.6941 26.379L25.5251 26.547C25.1381 26.932 24.5091 26.932 24.1211 26.547L17.2961 19.77V19.77L13.1091 15.613C13.3691 15.418 13.6211 15.211 13.8551 14.979C14.1541 14.682 14.4181 14.36 14.6541 14.023L25.6941 24.986C25.8831 25.171 25.9861 25.418 25.9861 25.681ZM23.8311 7.96003L25.8081 5.99703L27.4061 5.20303L27.5851 5.38103L26.7861 6.96803L24.8101 8.93103H23.8321V7.96003H23.8311Z"/>
</g>
</svg>
