<svg width="46" height="9" viewBox="0 0 46 9" xmlns="http://www.w3.org/2000/svg">
<path d="M2.30664 0.890625L2.98047 3.56152L3.74707 0.890625H5.45117V8H4.19141V5.89551L4.25 2.57031L3.31738 5.65625H2.63867L1.80371 2.70215L1.8623 5.89551V8H0.602539V0.890625H2.30664ZM12.124 6.51562H9.99023L9.57031 8H8.125L10.4541 0.890625H11.6992L13.9844 8H12.5391L12.124 6.51562ZM10.3271 5.34863H11.8018L11.0742 2.73145L10.3271 5.34863ZM21.3213 8H19.9541L17.9766 3.41504V8H16.5947V0.890625H17.9766L19.9395 5.45605L19.9443 0.890625H21.3213V8ZM29.376 0.890625L29.3809 5.60254C29.3809 5.99967 29.3255 6.35286 29.2148 6.66211C29.1074 6.97135 28.9495 7.2334 28.7412 7.44824C28.5361 7.65983 28.2839 7.82096 27.9844 7.93164C27.6882 8.04232 27.3496 8.09766 26.9688 8.09766C26.6107 8.09766 26.2868 8.04232 25.9971 7.93164C25.7106 7.82096 25.4648 7.65983 25.2598 7.44824C25.0547 7.23665 24.8952 6.97624 24.7812 6.66699C24.6706 6.35449 24.6152 5.99967 24.6152 5.60254L24.6201 0.890625H25.9922L25.9971 5.60254C26.0003 6.06152 26.0833 6.4082 26.2461 6.64258C26.4121 6.87695 26.653 6.99414 26.9688 6.99414C27.304 6.99414 27.5596 6.87695 27.7354 6.64258C27.9144 6.4082 28.0055 6.06152 28.0088 5.60254L28.0137 0.890625H29.376ZM36.1416 6.51562H34.0078L33.5879 8H32.1426L34.4717 0.890625H35.7168L38.002 8H36.5566L36.1416 6.51562ZM34.3447 5.34863H35.8193L35.0918 2.73145L34.3447 5.34863ZM42.1211 6.8916H45.4512V8H40.7441V0.890625H42.1211V6.8916Z"/>
</svg>
