<svg width="32" height="32" viewBox="0 0 32 32" xmlns="http://www.w3.org/2000/svg">
<g>
<path fill-rule="evenodd" clip-rule="evenodd" d="M23.29 3.12L21.88 4.53L25.17 7.81999H6.83L10.12 4.53L8.71 3.12L3 8.81999L8.71 14.53L10.12 13.12L6.83 9.81999H25.17L21.88 13.12L23.29 14.53L29 8.81999L23.29 3.12V3.12V3.12Z"/>
<path fill-rule="evenodd" clip-rule="evenodd" d="M3 17.8199V29.8199H29V17.8199H3ZM27 27.8199H5V19.8199H7V23.8199H9V19.8199H11V23.8199H13V19.8199H15V23.8199H17V19.8199H19V23.8199H21V19.8199H23V23.8199H25V19.8199H27V27.8199Z"/>
</g>
</svg>
