<svg width="32" height="32" viewBox="0 0 32 32" xmlns="http://www.w3.org/2000/svg">
<g>
<path id="Combined Shape" fill-rule="evenodd" clip-rule="evenodd" d="M27 3H5C3.346 3 2 4.346 2 6V20C2 21.654 3.346 23 5 23H16.586L22.586 29H25V23H27C28.654 23 30 21.654 30 20V6C30 4.346 28.654 3 27 3ZM28 20C28 20.551 27.551 21 27 21H23V26.586L17.414 21H5C4.449 21 4 20.551 4 20V6C4 5.449 4.449 5 5 5H27C27.551 5 28 5.449 28 6V20ZM11 12H9V14H11V12ZM15 12H17V14H15V12ZM23 12H21V14H23V12Z"/>
<path fill-rule="evenodd" clip-rule="evenodd" d="M5 3H27C28.654 3 30 4.346 30 6V20C30 21.654 28.654 23 27 23H25V29H22.586L16.586 23H5C3.346 23 2 21.654 2 20V6C2 4.346 3.346 3 5 3ZM27 21C27.551 21 28 20.551 28 20V6C28 5.449 27.551 5 27 5H5C4.449 5 4 5.449 4 6V20C4 20.551 4.449 21 5 21H17.414L23 26.586V21H27Z"/>
<rect x="9" y="12" width="2" height="2"/>
<rect x="15" y="12" width="2" height="2"/>
<rect x="21" y="12" width="2" height="2"/>
</g>
</svg>
