<svg width="46" height="8" viewBox="0 0 46 8" xmlns="http://www.w3.org/2000/svg">
<path d="M5.30957 8H3.94238L1.96484 3.41504V8H0.583008V0.890625H1.96484L3.92773 5.45605L3.93262 0.890625H5.30957V8ZM13.0029 4.88477H10.083V6.8916H13.4961V8H8.70605V0.890625H13.4814V2.00879H10.083V3.80078H13.0029V4.88477ZM21.0088 4.88477H18.0889V6.8916H21.502V8H16.7119V0.890625H21.4873V2.00879H18.0889V3.80078H21.0088V4.88477ZM24.6104 8V0.890625H26.4512C26.9232 0.890625 27.3496 0.972005 27.7305 1.13477C28.1146 1.29427 28.4417 1.51888 28.7119 1.80859C28.9854 2.09505 29.1953 2.43848 29.3418 2.83887C29.4915 3.23926 29.5664 3.67871 29.5664 4.15723V4.74316C29.5664 5.22168 29.4915 5.66113 29.3418 6.06152C29.1953 6.45866 28.9886 6.80208 28.7217 7.0918C28.4548 7.37826 28.1341 7.60124 27.7598 7.76074C27.3854 7.92025 26.972 8 26.5195 8H24.6104ZM25.9922 2.00391V6.89648H26.5195C26.7767 6.89648 27.0062 6.84766 27.208 6.75C27.4131 6.65234 27.5856 6.51074 27.7256 6.3252C27.8688 6.13965 27.9779 5.91504 28.0527 5.65137C28.1276 5.38444 28.165 5.08171 28.165 4.74316V4.14746C28.165 3.82845 28.1276 3.53874 28.0527 3.27832C27.9811 3.01465 27.8721 2.78841 27.7256 2.59961C27.5824 2.41081 27.4033 2.26432 27.1885 2.16016C26.9769 2.05599 26.7311 2.00391 26.4512 2.00391H25.9922ZM34.1152 6.8916H37.4453V8H32.7383V0.890625H34.1152V6.8916ZM45.0264 4.88477H42.1064V6.8916H45.5195V8H40.7295V0.890625H45.5049V2.00879H42.1064V3.80078H45.0264V4.88477Z"/>
</svg>
