<svg width="32" height="32" viewBox="0 0 32 32" xmlns="http://www.w3.org/2000/svg">
<g>
<path id="Combined Shape" fill-rule="evenodd" clip-rule="evenodd" d="M24.75 16.9667L27 20.2806V24H21C21 26.7546 18.7546 29 16 29C13.2341 29 11 26.7582 11 24H5V20.0562L7.25 17.847V13.1631C7.25 8.76551 9.7665 5.18615 13.8431 4.23783C14.5071 4.07752 15.226 4 16 4C16.774 4 17.4929 4.07752 18.1422 4.23434C22.2238 5.18722 24.75 8.77851 24.75 13.1631V16.9667ZM11 22H7V20.8954L9.25 18.6862V13.1631C9.25 9.76091 11.0837 6.93311 14.3125 6.18197C14.815 6.06066 15.3775 6 16 6C16.6225 6 17.185 6.06066 17.6875 6.18197C20.905 6.93311 22.75 9.77196 22.75 13.1631V17.5816L25 20.8954V22H21H11ZM13 24C13 25.65 14.335 27 16 27C17.65 27 19 25.65 19 24H13Z"/>
</g>
</svg>
