<svg width="32" height="32" viewBox="0 0 32 32" xmlns="http://www.w3.org/2000/svg">
<g>
<path fill-rule="evenodd" clip-rule="evenodd" d="M29 12H27V15.79L24.5 21.63L24 21.38V18.19C24.0037 17.1606 23.5928 16.173 22.86 15.45L21.41 14H16V4H14V26H3V28H14C14.2558 28.6016 14.8463 28.9921 15.5 28.9921C16.1537 28.9921 16.7442 28.6016 17 28H21C21.2558 28.6016 21.8463 28.9921 22.5 28.9921C23.1537 28.9921 23.7442 28.6016 24 28H26V23.2L29 16.2V12ZM24 26H16V16H20.59L21.45 16.86C21.8006 17.2141 21.9982 17.6917 22 18.19V22.62L24 23.62V26Z"/>
</g>
</svg>
