<svg width="32" height="32" viewBox="0 0 32 32" xmlns="http://www.w3.org/2000/svg">
<g>
<path fill-rule="evenodd" clip-rule="evenodd" d="M26.83 10.42L25.41 9H19V12.41L21 14.41V15H18V4H16V26H5V28H16C16.2558 28.6016 16.8463 28.9921 17.5 28.9921C18.1537 28.9921 18.7442 28.6016 19 28H23C23.2558 28.6016 23.8463 28.9921 24.5 28.9921C25.1537 28.9921 25.7442 28.6016 26 28H28V13.24C27.9982 12.1823 27.5775 11.1683 26.83 10.42ZM26 26H18V17H23V13.59L21 11.59V11H24.59L25.42 11.83C25.7919 12.205 26.0004 12.7119 26 13.24V26Z"/>
</g>
</svg>
