<svg width="32" height="32" viewBox="0 0 32 32" xmlns="http://www.w3.org/2000/svg">
<g>
<path id="Combined Shape" fill-rule="evenodd" clip-rule="evenodd" d="M21.293 2.879L26.121 7.707C26.688 8.273 27 9.027 27 9.829V30H5V2H19.171C19.973 2 20.727 2.312 21.293 2.879ZM24 8L21 5V8H24ZM7 28V4H19V10H25V28H7ZM11.5 19H10V24H11V22H11.5C12.327 22 13 21.327 13 20.5C13 19.673 12.327 19 11.5 19ZM11.5 21H11V20H11.5C11.776 20 12 20.224 12 20.5C12 20.776 11.776 21 11.5 21ZM22 19H19V24H20V22H22V21H20V20H22V19ZM15.5 19H14V24H15.5C16.878 24 18 22.878 18 21.5C18 20.122 16.878 19 15.5 19ZM15.5 23H15V20H15.5C16.327 20 17 20.673 17 21.5C17 22.327 16.327 23 15.5 23Z"/>
</g>
</svg>
