<svg width="32" height="32" viewBox="0 0 32 32" xmlns="http://www.w3.org/2000/svg">
<g>
<path id="Combined Shape" fill-rule="evenodd" clip-rule="evenodd" d="M16 17C19.309 17 22 14.309 22 11V10C22 6.691 19.309 4 16 4C12.691 4 10 6.691 10 10V11C10 14.309 12.691 17 16 17ZM12 10C12 7.794 13.794 6 16 6C18.206 6 20 7.794 20 10V11C20 13.206 18.206 15 16 15C13.794 15 12 13.206 12 11V10ZM28.36 21.295C20.448 18.235 11.551 18.235 3.639 21.295L3 21.542V29H29V21.542L28.36 21.295ZM27 22.923V26.998H5V22.923C12.065 20.36 19.935 20.36 27 22.923Z"/>
</g>
</svg>
