<svg width="32" height="32" viewBox="0 0 32 32" xmlns="http://www.w3.org/2000/svg">
<g>
<path fill-rule="evenodd" clip-rule="evenodd" d="M28.127 21.918L24.976 18.763C23.851 17.637 21.887 17.637 20.762 18.763L18.255 21.274C15.053 19.578 12.412 16.934 10.719 13.729L13.226 11.219C13.789 10.655 14.099 9.90601 14.099 9.10901C14.099 8.31201 13.789 7.56301 13.226 6.99901L10.075 3.84401C8.95 2.71801 6.986 2.71801 5.861 3.84401L3.136 6.57201L3.101 6.92601C3.034 7.60401 3 8.28101 3 8.93601C3 20 11.99 29 23.041 29C23.699 29 24.375 28.966 25.05 28.899L25.402 28.864L28.126 26.138C28.69 25.573 29 24.824 29 24.027C29 23.23 28.69 22.481 28.127 21.918ZM26.722 24.73L24.503 26.95C24.01 26.99 23.52 27.01 23.041 27.01C13.085 27.01 4.987 18.902 4.987 8.93501C4.987 8.45701 5.007 7.96601 5.047 7.47001L7.265 5.25001C7.639 4.87401 8.295 4.87501 8.67 5.25001L11.821 8.40501C12.009 8.59201 12.112 8.84201 12.112 9.10801C12.112 9.37401 12.009 9.62301 11.821 9.81101L8.308 13.33L8.613 13.965C10.579 18.068 13.92 21.412 18.02 23.382L18.654 23.687L22.167 20.17C22.541 19.794 23.197 19.795 23.572 20.17L26.723 23.325C26.911 23.512 27.014 23.762 27.014 24.028C27.014 24.294 26.91 24.542 26.722 24.73Z"/>
</g>
</svg>
