<svg width="110" height="9" viewBox="0 0 110 9" xmlns="http://www.w3.org/2000/svg">
<path d="M2.05859 5.39258V8H0.686523V0.890625H3.11816C3.50553 0.890625 3.85547 0.947591 4.16797 1.06152C4.48047 1.1722 4.74577 1.32845 4.96387 1.53027C5.18522 1.72884 5.35449 1.9681 5.47168 2.24805C5.59212 2.52799 5.65234 2.83887 5.65234 3.18066C5.65234 3.49967 5.59212 3.79427 5.47168 4.06445C5.35449 4.33464 5.18522 4.56901 4.96387 4.76758C4.74577 4.96289 4.48047 5.11589 4.16797 5.22656C3.85547 5.33724 3.50553 5.39258 3.11816 5.39258H2.05859ZM2.05859 4.2793H3.11816C3.31348 4.2793 3.48275 4.25 3.62598 4.19141C3.76921 4.13281 3.88802 4.05306 3.98242 3.95215C4.08008 3.85124 4.15169 3.73568 4.19727 3.60547C4.24609 3.47201 4.27051 3.33366 4.27051 3.19043C4.27051 3.02441 4.24609 2.86979 4.19727 2.72656C4.15169 2.58333 4.08008 2.45801 3.98242 2.35059C3.88802 2.24316 3.76921 2.15853 3.62598 2.09668C3.48275 2.03483 3.31348 2.00391 3.11816 2.00391H2.05859V4.2793ZM8.90723 0.890625H13.0186V1.99902H11.6318V6.89648H13.0186V8H8.90723V6.89648H10.2598V1.99902H8.90723V0.890625ZM21.5469 5.77344C21.5241 6.13151 21.446 6.45378 21.3125 6.74023C21.1823 7.02669 21.0065 7.27083 20.7852 7.47266C20.5638 7.67448 20.3001 7.83073 19.9941 7.94141C19.6882 8.04883 19.3496 8.10254 18.9785 8.10254C18.5586 8.10254 18.1859 8.02604 17.8604 7.87305C17.5348 7.7168 17.2614 7.50033 17.04 7.22363C16.8187 6.94368 16.6494 6.6084 16.5322 6.21777C16.415 5.82715 16.3564 5.39746 16.3564 4.92871V3.97168C16.3564 3.49967 16.4183 3.06836 16.542 2.67773C16.6657 2.28711 16.8415 1.95182 17.0693 1.67188C17.2972 1.39193 17.5723 1.17546 17.8945 1.02246C18.2201 0.866211 18.5846 0.788086 18.9883 0.788086C19.3789 0.788086 19.7256 0.843424 20.0283 0.954102C20.3343 1.06478 20.5947 1.22266 20.8096 1.42773C21.0244 1.63281 21.1937 1.88346 21.3174 2.17969C21.4411 2.47591 21.5192 2.80957 21.5518 3.18066H20.1846C20.1715 2.96908 20.139 2.78353 20.0869 2.62402C20.0381 2.46452 19.9648 2.33268 19.8672 2.22852C19.7728 2.12109 19.6523 2.04134 19.5059 1.98926C19.3626 1.93392 19.1901 1.90625 18.9883 1.90625C18.7767 1.90625 18.5928 1.95182 18.4365 2.04297C18.2803 2.13411 18.1501 2.26758 18.0459 2.44336C17.945 2.61914 17.8701 2.83561 17.8213 3.09277C17.7725 3.34668 17.748 3.63639 17.748 3.96191V4.92871C17.748 5.62858 17.8457 6.14616 18.041 6.48145C18.2396 6.81673 18.5521 6.98438 18.9785 6.98438C19.3366 6.98438 19.6198 6.88997 19.8281 6.70117C20.0365 6.50911 20.152 6.19987 20.1748 5.77344H21.5469ZM26.7354 5.08008L25.9834 5.90527V8H24.6064V0.890625H25.9834V4.14746L26.6279 3.27832L28.3564 0.890625H30.0361L27.6436 4.03516L30.124 8H28.4932L26.7354 5.08008ZM32.9248 0.890625H37.0361V1.99902H35.6494V6.89648H37.0361V8H32.9248V6.89648H34.2773V1.99902H32.9248V0.890625ZM45.3154 8H43.9482L41.9707 3.41504V8H40.5889V0.890625H41.9707L43.9336 5.45605L43.9385 0.890625H45.3154V8ZM53.5215 7.16992C53.4336 7.27734 53.3132 7.38639 53.1602 7.49707C53.0072 7.60775 52.8249 7.70866 52.6133 7.7998C52.4049 7.8877 52.1706 7.95931 51.9102 8.01465C51.6497 8.06999 51.3698 8.09766 51.0703 8.09766C50.6667 8.09766 50.3021 8.02604 49.9766 7.88281C49.651 7.73958 49.3727 7.53288 49.1416 7.2627C48.9105 6.99251 48.7314 6.66211 48.6045 6.27148C48.4808 5.8776 48.4189 5.43164 48.4189 4.93359V3.9668C48.4189 3.46875 48.484 3.02441 48.6143 2.63379C48.7477 2.23991 48.93 1.90625 49.1611 1.63281C49.3955 1.35938 49.6689 1.15104 49.9814 1.00781C50.2972 0.864583 50.639 0.792969 51.0068 0.792969C51.4072 0.792969 51.7555 0.843424 52.0518 0.944336C52.3512 1.04525 52.6035 1.19173 52.8086 1.38379C53.0137 1.57259 53.1732 1.80371 53.2871 2.07715C53.4043 2.35059 53.4808 2.6582 53.5166 3H52.1787C52.1331 2.63542 52.0225 2.36198 51.8467 2.17969C51.6742 1.99414 51.4056 1.90137 51.041 1.90137C50.8652 1.90137 50.7025 1.94694 50.5527 2.03809C50.403 2.12598 50.2728 2.25618 50.1621 2.42871C50.0514 2.60124 49.9635 2.81608 49.8984 3.07324C49.8333 3.32715 49.8008 3.62174 49.8008 3.95703V4.93359C49.804 5.59766 49.9147 6.1071 50.1328 6.46191C50.3509 6.81348 50.6846 6.99089 51.1338 6.99414C51.2412 6.99414 51.347 6.986 51.4512 6.96973C51.5553 6.95345 51.653 6.93066 51.7441 6.90137C51.8353 6.87207 51.915 6.83952 51.9834 6.80371C52.055 6.76465 52.1087 6.72396 52.1445 6.68164L52.1494 5.39258H50.9727V4.36719H53.5166L53.5215 7.16992ZM61.4443 5.41211H57.377V4.31348H61.4443V5.41211ZM69.3379 8H67.9805V4.91895H65.9688V8H64.6064V0.890625H65.9688V3.80566H67.9805V0.890625H69.3379V8ZM77.0264 4.88477H74.1064V6.8916H77.5195V8H72.7295V0.890625H77.5049V2.00879H74.1064V3.80078H77.0264V4.88477ZM80.96 0.890625H85.0713V1.99902H83.6846V6.89648H85.0713V8H80.96V6.89648H82.3125V1.99902H80.96V0.890625ZM93.5508 7.16992C93.4629 7.27734 93.3424 7.38639 93.1895 7.49707C93.0365 7.60775 92.8542 7.70866 92.6426 7.7998C92.4342 7.8877 92.1999 7.95931 91.9395 8.01465C91.679 8.06999 91.3991 8.09766 91.0996 8.09766C90.696 8.09766 90.3314 8.02604 90.0059 7.88281C89.6803 7.73958 89.402 7.53288 89.1709 7.2627C88.9398 6.99251 88.7607 6.66211 88.6338 6.27148C88.5101 5.8776 88.4482 5.43164 88.4482 4.93359V3.9668C88.4482 3.46875 88.5133 3.02441 88.6436 2.63379C88.777 2.23991 88.9593 1.90625 89.1904 1.63281C89.4248 1.35938 89.6982 1.15104 90.0107 1.00781C90.3265 0.864583 90.6683 0.792969 91.0361 0.792969C91.4365 0.792969 91.7848 0.843424 92.0811 0.944336C92.3805 1.04525 92.6328 1.19173 92.8379 1.38379C93.043 1.57259 93.2025 1.80371 93.3164 2.07715C93.4336 2.35059 93.5101 2.6582 93.5459 3H92.208C92.1624 2.63542 92.0518 2.36198 91.876 2.17969C91.7035 1.99414 91.4349 1.90137 91.0703 1.90137C90.8945 1.90137 90.7318 1.94694 90.582 2.03809C90.4323 2.12598 90.3021 2.25618 90.1914 2.42871C90.0807 2.60124 89.9928 2.81608 89.9277 3.07324C89.8626 3.32715 89.8301 3.62174 89.8301 3.95703V4.93359C89.8333 5.59766 89.944 6.1071 90.1621 6.46191C90.3802 6.81348 90.7139 6.99089 91.1631 6.99414C91.2705 6.99414 91.3763 6.986 91.4805 6.96973C91.5846 6.95345 91.6823 6.93066 91.7734 6.90137C91.8646 6.87207 91.9443 6.83952 92.0127 6.80371C92.0843 6.76465 92.138 6.72396 92.1738 6.68164L92.1787 5.39258H91.002V4.36719H93.5459L93.5508 7.16992ZM101.361 8H100.004V4.91895H97.9922V8H96.6299V0.890625H97.9922V3.80566H100.004V0.890625H101.361V8ZM109.899 2.00879H107.707V8H106.33V2.00879H104.167V0.890625H109.899V2.00879Z"/>
</svg>
