<svg width="32" height="32" viewBox="0 0 32 32" xmlns="http://www.w3.org/2000/svg">
<g>
<path id="Combined Shape" fill-rule="evenodd" clip-rule="evenodd" d="M25.797 9.98499C25.666 9.34299 25.469 8.71099 25.214 8.10599C24.962 7.51199 24.652 6.93999 24.292 6.40799C23.934 5.87799 23.523 5.37999 23.072 4.92899C22.62 4.47599 22.122 4.06599 21.593 3.70799C21.06 3.34799 20.489 3.03799 19.893 2.78499C19.289 2.52999 18.657 2.33399 18.015 2.20199C16.697 1.93299 15.306 1.93299 13.986 2.20199C13.344 2.33299 12.712 2.52999 12.107 2.78499C11.513 3.03699 10.941 3.34699 10.409 3.70699C9.878 4.06599 9.38 4.47699 8.93 4.92899C8.477 5.37999 8.066 5.87799 7.708 6.40799C7.348 6.94099 7.038 7.51199 6.785 8.10799C6.531 8.71099 6.334 9.34299 6.203 9.98599C6.068 10.645 6 11.323 6 12C6 12.677 6.068 13.355 6.203 14.015C6.334 14.657 6.531 15.289 6.786 15.894C7.039 16.492 7.35 17.063 7.709 17.594C9.571 20.342 15.173 28.574 15.173 28.574L16 29.789L16.827 28.574C16.827 28.574 22.429 20.341 24.291 17.594C24.65 17.064 24.961 16.492 25.215 15.893C25.47 15.289 25.666 14.657 25.798 14.015C25.932 13.355 26 12.677 26 12C26 11.323 25.932 10.645 25.797 9.98499ZM23.838 13.613C23.733 14.126 23.576 14.631 23.372 15.113C23.169 15.592 22.921 16.048 22.635 16.471C21.217 18.564 17.629 23.839 16 26.233C14.371 23.839 10.783 18.564 9.365 16.471C9.079 16.048 8.831 15.592 8.629 15.114C8.425 14.631 8.268 14.126 8.163 13.614C8.055 13.086 8 12.543 8 12C8 11.457 8.055 10.914 8.162 10.387C8.267 9.87399 8.424 9.36899 8.628 8.88699C8.829 8.41099 9.078 7.95399 9.366 7.52799C9.652 7.10399 9.981 6.70599 10.344 6.34299C10.706 5.98099 11.104 5.65199 11.528 5.36599C11.954 5.07799 12.411 4.82899 12.886 4.62899C13.369 4.42499 13.874 4.26799 14.386 4.16299C14.914 4.05499 15.457 3.99999 16 3.99999C16.543 3.99999 17.086 4.05499 17.613 4.16199C18.126 4.26699 18.631 4.42399 19.113 4.62799C19.589 4.82899 20.046 5.07799 20.472 5.36599C20.896 5.65199 21.294 5.98099 21.657 6.34399C22.019 6.70599 22.348 7.10399 22.634 7.52799C22.922 7.95399 23.171 8.41099 23.371 8.88599C23.575 9.36899 23.732 9.87399 23.837 10.386C23.945 10.914 24 11.457 24 12C24 12.543 23.945 13.086 23.838 13.613ZM16 6.99999C13.519 6.99999 11.5 9.01899 11.5 11.5C11.5 13.981 13.519 16 16 16C18.481 16 20.5 13.981 20.5 11.5C20.5 9.01899 18.481 6.99999 16 6.99999ZM16 14C14.622 14 13.5 12.878 13.5 11.5C13.5 10.122 14.622 8.99999 16 8.99999C17.378 8.99999 18.5 10.122 18.5 11.5C18.5 12.878 17.378 14 16 14Z"/>
</g>
</svg>
