<svg width="30" height="8" viewBox="0 0 30 8" xmlns="http://www.w3.org/2000/svg">
<path d="M2.08789 5.39258V8H0.71582V0.890625H3.14746C3.53483 0.890625 3.88477 0.947591 4.19727 1.06152C4.50977 1.1722 4.77507 1.32845 4.99316 1.53027C5.21452 1.72884 5.38379 1.9681 5.50098 2.24805C5.62142 2.52799 5.68164 2.83887 5.68164 3.18066C5.68164 3.49967 5.62142 3.79427 5.50098 4.06445C5.38379 4.33464 5.21452 4.56901 4.99316 4.76758C4.77507 4.96289 4.50977 5.11589 4.19727 5.22656C3.88477 5.33724 3.53483 5.39258 3.14746 5.39258H2.08789ZM2.08789 4.2793H3.14746C3.34277 4.2793 3.51204 4.25 3.65527 4.19141C3.7985 4.13281 3.91732 4.05306 4.01172 3.95215C4.10938 3.85124 4.18099 3.73568 4.22656 3.60547C4.27539 3.47201 4.2998 3.33366 4.2998 3.19043C4.2998 3.02441 4.27539 2.86979 4.22656 2.72656C4.18099 2.58333 4.10938 2.45801 4.01172 2.35059C3.91732 2.24316 3.7985 2.15853 3.65527 2.09668C3.51204 2.03483 3.34277 2.00391 3.14746 2.00391H2.08789V4.2793ZM10.1035 6.8916H13.4336V8H8.72656V0.890625H10.1035V6.8916ZM20.1357 6.51562H18.002L17.582 8H16.1367L18.4658 0.890625H19.7109L21.9961 8H20.5508L20.1357 6.51562ZM18.3389 5.34863H19.8135L19.0859 2.73145L18.3389 5.34863ZM27.0723 4.16699L28.4736 0.890625H29.9824L27.7461 5.53906L27.7412 8H26.374L26.3691 5.48047L24.167 0.890625H25.6709L27.0723 4.16699Z"/>
</svg>
