<svg width="38" height="9" viewBox="0 0 38 9" xmlns="http://www.w3.org/2000/svg">
<path d="M2.08496 5.39258V8H0.712891V0.890625H3.14453C3.5319 0.890625 3.88184 0.947591 4.19434 1.06152C4.50684 1.1722 4.77214 1.32845 4.99023 1.53027C5.21159 1.72884 5.38086 1.9681 5.49805 2.24805C5.61849 2.52799 5.67871 2.83887 5.67871 3.18066C5.67871 3.49967 5.61849 3.79427 5.49805 4.06445C5.38086 4.33464 5.21159 4.56901 4.99023 4.76758C4.77214 4.96289 4.50684 5.11589 4.19434 5.22656C3.88184 5.33724 3.5319 5.39258 3.14453 5.39258H2.08496ZM2.08496 4.2793H3.14453C3.33984 4.2793 3.50911 4.25 3.65234 4.19141C3.79557 4.13281 3.91439 4.05306 4.00879 3.95215C4.10645 3.85124 4.17806 3.73568 4.22363 3.60547C4.27246 3.47201 4.29688 3.33366 4.29688 3.19043C4.29688 3.02441 4.27246 2.86979 4.22363 2.72656C4.17806 2.58333 4.10645 2.45801 4.00879 2.35059C3.91439 2.24316 3.79557 2.15853 3.65234 2.09668C3.50911 2.03483 3.33984 2.00391 3.14453 2.00391H2.08496V4.2793ZM13.5918 4.96777C13.5918 5.4235 13.5316 5.84342 13.4111 6.22754C13.2907 6.61165 13.1165 6.94206 12.8887 7.21875C12.6608 7.49544 12.3825 7.71191 12.0537 7.86816C11.7282 8.02116 11.3604 8.09766 10.9502 8.09766C10.54 8.09766 10.1755 8.02116 9.85645 7.86816C9.53743 7.71191 9.26888 7.49544 9.05078 7.21875C8.83268 6.9388 8.66667 6.6084 8.55273 6.22754C8.4388 5.84342 8.38184 5.4235 8.38184 4.96777V3.93262C8.38184 3.47689 8.4388 3.05697 8.55273 2.67285C8.66667 2.28874 8.83268 1.95833 9.05078 1.68164C9.26888 1.40169 9.53581 1.18359 9.85156 1.02734C10.1706 0.871094 10.5352 0.792969 10.9453 0.792969C11.3587 0.792969 11.7282 0.871094 12.0537 1.02734C12.3825 1.18359 12.6608 1.40169 12.8887 1.68164C13.1165 1.95833 13.2907 2.28874 13.4111 2.67285C13.5316 3.05697 13.5918 3.47689 13.5918 3.93262V4.96777ZM12.2002 3.92285C12.2002 3.63314 12.1758 3.36621 12.127 3.12207C12.0814 2.87793 12.0081 2.66797 11.9072 2.49219C11.8063 2.31641 11.6761 2.17969 11.5166 2.08203C11.3604 1.98112 11.1699 1.93066 10.9453 1.93066C10.724 1.93066 10.5384 1.98112 10.3887 2.08203C10.2389 2.17969 10.1185 2.31641 10.0273 2.49219C9.9362 2.66797 9.87109 2.87793 9.83203 3.12207C9.79297 3.36621 9.77344 3.63314 9.77344 3.92285V4.96777C9.77344 5.25423 9.79297 5.51953 9.83203 5.76367C9.87109 6.00781 9.9362 6.2194 10.0273 6.39844C10.1185 6.57747 10.2389 6.71745 10.3887 6.81836C10.5384 6.91927 10.7256 6.96973 10.9502 6.96973C11.1715 6.96973 11.3604 6.91927 11.5166 6.81836C11.6761 6.71745 11.8047 6.5791 11.9023 6.40332C12.0033 6.22428 12.0781 6.0127 12.127 5.76855C12.1758 5.52441 12.2002 5.25749 12.2002 4.96777V3.92285ZM21.373 0.890625L21.3779 5.60254C21.3779 5.99967 21.3226 6.35286 21.2119 6.66211C21.1045 6.97135 20.9466 7.2334 20.7383 7.44824C20.5332 7.65983 20.2809 7.82096 19.9814 7.93164C19.6852 8.04232 19.3467 8.09766 18.9658 8.09766C18.6077 8.09766 18.2839 8.04232 17.9941 7.93164C17.7077 7.82096 17.4619 7.65983 17.2568 7.44824C17.0518 7.23665 16.8923 6.97624 16.7783 6.66699C16.6676 6.35449 16.6123 5.99967 16.6123 5.60254L16.6172 0.890625H17.9893L17.9941 5.60254C17.9974 6.06152 18.0804 6.4082 18.2432 6.64258C18.4092 6.87695 18.6501 6.99414 18.9658 6.99414C19.3011 6.99414 19.5566 6.87695 19.7324 6.64258C19.9115 6.4082 20.0026 6.06152 20.0059 5.60254L20.0107 0.890625H21.373ZM29.3301 8H27.9629L25.9854 3.41504V8H24.6035V0.890625H25.9854L27.9482 5.45605L27.9531 0.890625H29.3301V8ZM32.6191 8V0.890625H34.46C34.932 0.890625 35.3584 0.972005 35.7393 1.13477C36.1234 1.29427 36.4505 1.51888 36.7207 1.80859C36.9941 2.09505 37.2041 2.43848 37.3506 2.83887C37.5003 3.23926 37.5752 3.67871 37.5752 4.15723V4.74316C37.5752 5.22168 37.5003 5.66113 37.3506 6.06152C37.2041 6.45866 36.9974 6.80208 36.7305 7.0918C36.4635 7.37826 36.1429 7.60124 35.7686 7.76074C35.3942 7.92025 34.9808 8 34.5283 8H32.6191ZM34.001 2.00391V6.89648H34.5283C34.7855 6.89648 35.015 6.84766 35.2168 6.75C35.4219 6.65234 35.5944 6.51074 35.7344 6.3252C35.8776 6.13965 35.9867 5.91504 36.0615 5.65137C36.1364 5.38444 36.1738 5.08171 36.1738 4.74316V4.14746C36.1738 3.82845 36.1364 3.53874 36.0615 3.27832C35.9899 3.01465 35.8809 2.78841 35.7344 2.59961C35.5911 2.41081 35.4121 2.26432 35.1973 2.16016C34.9857 2.05599 34.7399 2.00391 34.46 2.00391H34.001Z"/>
</svg>
