<svg width="38" height="9" viewBox="0 0 38 9" xmlns="http://www.w3.org/2000/svg">
<path d="M2.08496 5.39258V8H0.712891V0.890625H3.14453C3.5319 0.890625 3.88184 0.947591 4.19434 1.06152C4.50684 1.1722 4.77214 1.32845 4.99023 1.53027C5.21159 1.72884 5.38086 1.9681 5.49805 2.24805C5.61849 2.52799 5.67871 2.83887 5.67871 3.18066C5.67871 3.49967 5.61849 3.79427 5.49805 4.06445C5.38086 4.33464 5.21159 4.56901 4.99023 4.76758C4.77214 4.96289 4.50684 5.11589 4.19434 5.22656C3.88184 5.33724 3.5319 5.39258 3.14453 5.39258H2.08496ZM2.08496 4.2793H3.14453C3.33984 4.2793 3.50911 4.25 3.65234 4.19141C3.79557 4.13281 3.91439 4.05306 4.00879 3.95215C4.10645 3.85124 4.17806 3.73568 4.22363 3.60547C4.27246 3.47201 4.29688 3.33366 4.29688 3.19043C4.29688 3.02441 4.27246 2.86979 4.22363 2.72656C4.17806 2.58333 4.10645 2.45801 4.00879 2.35059C3.91439 2.24316 3.79557 2.15853 3.65234 2.09668C3.50911 2.03483 3.33984 2.00391 3.14453 2.00391H2.08496V4.2793ZM11.043 5.34375H10.0029V8H8.63086V0.890625H11.0137C11.4076 0.890625 11.764 0.937826 12.083 1.03223C12.402 1.12337 12.6738 1.25846 12.8984 1.4375C13.1263 1.61654 13.3005 1.83952 13.4209 2.10645C13.5446 2.37337 13.6064 2.68262 13.6064 3.03418C13.6064 3.28809 13.5755 3.51758 13.5137 3.72266C13.4551 3.92448 13.3688 4.10677 13.2549 4.26953C13.1442 4.42904 13.0091 4.56901 12.8496 4.68945C12.6934 4.8099 12.5176 4.91406 12.3223 5.00195L13.8506 7.93652V8H12.3809L11.043 5.34375ZM10.0029 4.23047H11.0186C11.4059 4.23047 11.7038 4.13281 11.9121 3.9375C12.1237 3.73893 12.2295 3.46875 12.2295 3.12695C12.2295 2.77214 12.127 2.49707 11.9219 2.30176C11.7168 2.10319 11.4141 2.00391 11.0137 2.00391H10.0029V4.23047ZM16.9395 0.890625H21.0508V1.99902H19.6641V6.89648H21.0508V8H16.9395V6.89648H18.292V1.99902H16.9395V0.890625ZM29.5791 5.77344C29.5563 6.13151 29.4782 6.45378 29.3447 6.74023C29.2145 7.02669 29.0387 7.27083 28.8174 7.47266C28.596 7.67448 28.3324 7.83073 28.0264 7.94141C27.7204 8.04883 27.3818 8.10254 27.0107 8.10254C26.5908 8.10254 26.2181 8.02604 25.8926 7.87305C25.5671 7.7168 25.2936 7.50033 25.0723 7.22363C24.8509 6.94368 24.6816 6.6084 24.5645 6.21777C24.4473 5.82715 24.3887 5.39746 24.3887 4.92871V3.97168C24.3887 3.49967 24.4505 3.06836 24.5742 2.67773C24.6979 2.28711 24.8737 1.95182 25.1016 1.67188C25.3294 1.39193 25.6045 1.17546 25.9268 1.02246C26.2523 0.866211 26.6169 0.788086 27.0205 0.788086C27.4111 0.788086 27.7578 0.843424 28.0605 0.954102C28.3665 1.06478 28.627 1.22266 28.8418 1.42773C29.0566 1.63281 29.2259 1.88346 29.3496 2.17969C29.4733 2.47591 29.5514 2.80957 29.584 3.18066H28.2168C28.2038 2.96908 28.1712 2.78353 28.1191 2.62402C28.0703 2.46452 27.9971 2.33268 27.8994 2.22852C27.805 2.12109 27.6846 2.04134 27.5381 1.98926C27.3949 1.93392 27.2223 1.90625 27.0205 1.90625C26.8089 1.90625 26.625 1.95182 26.4688 2.04297C26.3125 2.13411 26.1823 2.26758 26.0781 2.44336C25.9772 2.61914 25.9023 2.83561 25.8535 3.09277C25.8047 3.34668 25.7803 3.63639 25.7803 3.96191V4.92871C25.7803 5.62858 25.8779 6.14616 26.0732 6.48145C26.2718 6.81673 26.5843 6.98438 27.0107 6.98438C27.3688 6.98438 27.652 6.88997 27.8604 6.70117C28.0687 6.50911 28.1842 6.19987 28.207 5.77344H29.5791ZM37.0234 4.88477H34.1035V6.8916H37.5166V8H32.7266V0.890625H37.502V2.00879H34.1035V3.80078H37.0234V4.88477Z"/>
</svg>
