<svg width="32" height="32" viewBox="0 0 32 32" xmlns="http://www.w3.org/2000/svg">
<g>
<path id="Combined Shape" fill-rule="evenodd" clip-rule="evenodd" d="M20.4438 19.4994C19.178 19.4994 18.1086 18.6838 17.7061 17.5551H11.5152C11.1127 18.6838 10.0433 19.4994 8.77753 19.4994C7.16953 19.4994 5.86096 18.1909 5.86096 16.5829C5.86096 15.3249 6.66593 14.2593 7.78492 13.852L9.56014 3.94438H5.86096V16.5829V18.535H1V16.5829L3.91657 16.5906V2H16.5551C18.1757 2 19.5795 3.19093 19.8216 4.7688L20.3281 8.79562L21.975 9.95447C22.5953 10.4454 23.3604 11.2222 23.3604 12.6941V16.5829C23.3604 18.1909 22.0518 19.4994 20.4438 19.4994ZM19.4716 16.5829C19.4716 17.1185 19.9081 17.5551 20.4438 17.5551C20.9795 17.5551 21.416 17.1185 21.416 16.5829C21.416 16.0472 20.9795 15.6107 20.4438 15.6107C19.9081 15.6107 19.4716 16.0472 19.4716 16.5829ZM21.416 12.6941V13.8452C21.1108 13.7363 20.786 13.6663 20.4438 13.6663C19.178 13.6663 18.1086 14.482 17.7061 15.6107H12.6857L13.3847 13.3785C13.4917 13.081 13.7328 12.8273 13.9719 12.7126L19.597 10.6583L20.8113 11.5109C21.1944 11.8152 21.416 12.1069 21.416 12.6941ZM16.5551 3.94438H11.8156H11.5356L9.76139 13.85C10.2232 14.0173 10.6276 14.2943 10.9484 14.655L11.5424 12.7602C11.8409 11.927 12.4359 11.2864 13.2292 10.9179L18.3974 9.02797L17.8967 5.0381C17.8053 4.44701 17.2025 3.94438 16.5551 3.94438ZM8.77753 17.5551C8.24185 17.5551 7.80534 17.1185 7.80534 16.5829C7.80534 16.0472 8.24185 15.6107 8.77753 15.6107C9.31321 15.6107 9.74972 16.0472 9.74972 16.5829C9.74972 17.1185 9.31321 17.5551 8.77753 17.5551ZM27.2492 16.5829H31.1379V18.5273H29.1935V24.5393C30.3223 24.9418 31.1379 26.0112 31.1379 27.277C31.1379 28.885 29.8294 30.1935 28.2214 30.1935C27.3629 30.1935 26.5968 29.8134 26.0631 29.2214H11.6941V27.277H19.459L21.5521 22.3937C22.0839 21.1522 23.305 20.4114 24.8187 20.4114H27.2492V16.5829ZM23.4508 23.2064L21.7067 27.277V27.2779H25.3048C25.3048 26.0122 26.1205 24.9427 27.2492 24.5403V22.4773H24.8187C24.3375 22.4773 23.7094 22.6036 23.4508 23.2064ZM28.2214 28.2492C27.6857 28.2492 27.2492 27.8127 27.2492 27.277C27.2492 26.7413 27.6857 26.3048 28.2214 26.3048C28.757 26.3048 29.1935 26.7413 29.1935 27.277C29.1935 27.8127 28.757 28.2492 28.2214 28.2492Z"/>
</g>
</svg>
