<svg width="54" height="31" viewBox="0 0 54 31" xmlns="http://www.w3.org/2000/svg">
<path id="Rating- 1Point" d="M3.03125 5.34375H1.99121V8H0.619141V0.890625H3.00195C3.39583 0.890625 3.75228 0.937826 4.07129 1.03223C4.3903 1.12337 4.66211 1.25846 4.88672 1.4375C5.11458 1.61654 5.28874 1.83952 5.40918 2.10645C5.53288 2.37337 5.59473 2.68262 5.59473 3.03418C5.59473 3.28809 5.5638 3.51758 5.50195 3.72266C5.44336 3.92448 5.3571 4.10677 5.24316 4.26953C5.13249 4.42904 4.9974 4.56901 4.83789 4.68945C4.68164 4.8099 4.50586 4.91406 4.31055 5.00195L5.83887 7.93652V8H4.36914L3.03125 5.34375ZM1.99121 4.23047H3.00684C3.39421 4.23047 3.69206 4.13281 3.90039 3.9375C4.11198 3.73893 4.21777 3.46875 4.21777 3.12695C4.21777 2.77214 4.11523 2.49707 3.91016 2.30176C3.70508 2.10319 3.40234 2.00391 3.00195 2.00391H1.99121V4.23047ZM12.1211 6.51562H9.9873L9.56738 8H8.12207L10.4512 0.890625H11.6963L13.9814 8H12.5361L12.1211 6.51562ZM10.3242 5.34863H11.7988L11.0713 2.73145L10.3242 5.34863ZM21.8555 2.00879H19.6631V8H18.2861V2.00879H16.123V0.890625H21.8555V2.00879ZM24.9395 0.890625H29.0508V1.99902H27.6641V6.89648H29.0508V8H24.9395V6.89648H26.292V1.99902H24.9395V0.890625ZM37.3301 8H35.9629L33.9854 3.41504V8H32.6035V0.890625H33.9854L35.9482 5.45605L35.9531 0.890625H37.3301V8ZM45.5361 7.16992C45.4482 7.27734 45.3278 7.38639 45.1748 7.49707C45.0218 7.60775 44.8395 7.70866 44.6279 7.7998C44.4196 7.8877 44.1852 7.95931 43.9248 8.01465C43.6644 8.06999 43.3844 8.09766 43.085 8.09766C42.6813 8.09766 42.3167 8.02604 41.9912 7.88281C41.6657 7.73958 41.3874 7.53288 41.1562 7.2627C40.9251 6.99251 40.7461 6.66211 40.6191 6.27148C40.4954 5.8776 40.4336 5.43164 40.4336 4.93359V3.9668C40.4336 3.46875 40.4987 3.02441 40.6289 2.63379C40.7624 2.23991 40.9447 1.90625 41.1758 1.63281C41.4102 1.35938 41.6836 1.15104 41.9961 1.00781C42.3118 0.864583 42.6536 0.792969 43.0215 0.792969C43.4219 0.792969 43.7702 0.843424 44.0664 0.944336C44.3659 1.04525 44.6182 1.19173 44.8232 1.38379C45.0283 1.57259 45.1878 1.80371 45.3018 2.07715C45.4189 2.35059 45.4954 2.6582 45.5312 3H44.1934C44.1478 2.63542 44.0371 2.36198 43.8613 2.17969C43.6888 1.99414 43.4202 1.90137 43.0557 1.90137C42.8799 1.90137 42.7171 1.94694 42.5674 2.03809C42.4176 2.12598 42.2874 2.25618 42.1768 2.42871C42.0661 2.60124 41.9782 2.81608 41.9131 3.07324C41.848 3.32715 41.8154 3.62174 41.8154 3.95703V4.93359C41.8187 5.59766 41.9294 6.1071 42.1475 6.46191C42.3656 6.81348 42.6992 6.99089 43.1484 6.99414C43.2559 6.99414 43.3617 6.986 43.4658 6.96973C43.57 6.95345 43.6676 6.93066 43.7588 6.90137C43.8499 6.87207 43.9297 6.83952 43.998 6.80371C44.0697 6.76465 44.1234 6.72396 44.1592 6.68164L44.1641 5.39258H42.9873V4.36719H45.5312L45.5361 7.16992ZM53.459 5.41211H49.3916V4.31348H53.459V5.41211ZM7.99609 30H6.62402V24.5459L4.82715 25.1904V24.0088L7.92285 22.8906H7.99609V30ZM14.0879 27.3926V30H12.7158V22.8906H15.1475C15.5348 22.8906 15.8848 22.9476 16.1973 23.0615C16.5098 23.1722 16.7751 23.3285 16.9932 23.5303C17.2145 23.7288 17.3838 23.9681 17.501 24.248C17.6214 24.528 17.6816 24.8389 17.6816 25.1807C17.6816 25.4997 17.6214 25.7943 17.501 26.0645C17.3838 26.3346 17.2145 26.569 16.9932 26.7676C16.7751 26.9629 16.5098 27.1159 16.1973 27.2266C15.8848 27.3372 15.5348 27.3926 15.1475 27.3926H14.0879ZM14.0879 26.2793H15.1475C15.3428 26.2793 15.512 26.25 15.6553 26.1914C15.7985 26.1328 15.9173 26.0531 16.0117 25.9521C16.1094 25.8512 16.181 25.7357 16.2266 25.6055C16.2754 25.472 16.2998 25.3337 16.2998 25.1904C16.2998 25.0244 16.2754 24.8698 16.2266 24.7266C16.181 24.5833 16.1094 24.458 16.0117 24.3506C15.9173 24.2432 15.7985 24.1585 15.6553 24.0967C15.512 24.0348 15.3428 24.0039 15.1475 24.0039H14.0879V26.2793ZM25.5947 26.9678C25.5947 27.4235 25.5345 27.8434 25.4141 28.2275C25.2936 28.6117 25.1195 28.9421 24.8916 29.2188C24.6637 29.4954 24.3854 29.7119 24.0566 29.8682C23.7311 30.0212 23.3633 30.0977 22.9531 30.0977C22.543 30.0977 22.1784 30.0212 21.8594 29.8682C21.5404 29.7119 21.2718 29.4954 21.0537 29.2188C20.8356 28.9388 20.6696 28.6084 20.5557 28.2275C20.4417 27.8434 20.3848 27.4235 20.3848 26.9678V25.9326C20.3848 25.4769 20.4417 25.057 20.5557 24.6729C20.6696 24.2887 20.8356 23.9583 21.0537 23.6816C21.2718 23.4017 21.5387 23.1836 21.8545 23.0273C22.1735 22.8711 22.5381 22.793 22.9482 22.793C23.3617 22.793 23.7311 22.8711 24.0566 23.0273C24.3854 23.1836 24.6637 23.4017 24.8916 23.6816C25.1195 23.9583 25.2936 24.2887 25.4141 24.6729C25.5345 25.057 25.5947 25.4769 25.5947 25.9326V26.9678ZM24.2031 25.9229C24.2031 25.6331 24.1787 25.3662 24.1299 25.1221C24.0843 24.8779 24.0111 24.668 23.9102 24.4922C23.8092 24.3164 23.679 24.1797 23.5195 24.082C23.3633 23.9811 23.1729 23.9307 22.9482 23.9307C22.7269 23.9307 22.5413 23.9811 22.3916 24.082C22.2419 24.1797 22.1214 24.3164 22.0303 24.4922C21.9391 24.668 21.874 24.8779 21.835 25.1221C21.7959 25.3662 21.7764 25.6331 21.7764 25.9229V26.9678C21.7764 27.2542 21.7959 27.5195 21.835 27.7637C21.874 28.0078 21.9391 28.2194 22.0303 28.3984C22.1214 28.5775 22.2419 28.7174 22.3916 28.8184C22.5413 28.9193 22.7285 28.9697 22.9531 28.9697C23.1745 28.9697 23.3633 28.9193 23.5195 28.8184C23.679 28.7174 23.8076 28.5791 23.9053 28.4033C24.0062 28.2243 24.0811 28.0127 24.1299 27.7686C24.1787 27.5244 24.2031 27.2575 24.2031 26.9678V25.9229ZM28.9424 22.8906H33.0537V23.999H31.667V28.8965H33.0537V30H28.9424V28.8965H30.2949V23.999H28.9424V22.8906ZM41.333 30H39.9658L37.9883 25.415V30H36.6064V22.8906H37.9883L39.9512 27.4561L39.9561 22.8906H41.333V30ZM49.876 24.0088H47.6836V30H46.3066V24.0088H44.1436V22.8906H49.876V24.0088Z"/>
</svg>
