<svg width="46" height="9" viewBox="0 0 46 9" xmlns="http://www.w3.org/2000/svg">
<path d="M3.03418 5.34375H1.99414V8H0.62207V0.890625H3.00488C3.39876 0.890625 3.75521 0.937826 4.07422 1.03223C4.39323 1.12337 4.66504 1.25846 4.88965 1.4375C5.11751 1.61654 5.29167 1.83952 5.41211 2.10645C5.53581 2.37337 5.59766 2.68262 5.59766 3.03418C5.59766 3.28809 5.56673 3.51758 5.50488 3.72266C5.44629 3.92448 5.36003 4.10677 5.24609 4.26953C5.13542 4.42904 5.00033 4.56901 4.84082 4.68945C4.68457 4.8099 4.50879 4.91406 4.31348 5.00195L5.8418 7.93652V8H4.37207L3.03418 5.34375ZM1.99414 4.23047H3.00977C3.39714 4.23047 3.69499 4.13281 3.90332 3.9375C4.11491 3.73893 4.2207 3.46875 4.2207 3.12695C4.2207 2.77214 4.11816 2.49707 3.91309 2.30176C3.70801 2.10319 3.40527 2.00391 3.00488 2.00391H1.99414V4.23047ZM12.124 6.51562H9.99023L9.57031 8H8.125L10.4541 0.890625H11.6992L13.9844 8H12.5391L12.124 6.51562ZM10.3271 5.34863H11.8018L11.0742 2.73145L10.3271 5.34863ZM21.8584 2.00879H19.666V8H18.2891V2.00879H16.126V0.890625H21.8584V2.00879ZM24.9424 0.890625H29.0537V1.99902H27.667V6.89648H29.0537V8H24.9424V6.89648H26.2949V1.99902H24.9424V0.890625ZM37.333 8H35.9658L33.9883 3.41504V8H32.6064V0.890625H33.9883L35.9512 5.45605L35.9561 0.890625H37.333V8ZM45.5391 7.16992C45.4512 7.27734 45.3307 7.38639 45.1777 7.49707C45.0247 7.60775 44.8424 7.70866 44.6309 7.7998C44.4225 7.8877 44.1882 7.95931 43.9277 8.01465C43.6673 8.06999 43.3874 8.09766 43.0879 8.09766C42.6842 8.09766 42.3197 8.02604 41.9941 7.88281C41.6686 7.73958 41.3903 7.53288 41.1592 7.2627C40.9281 6.99251 40.749 6.66211 40.6221 6.27148C40.4984 5.8776 40.4365 5.43164 40.4365 4.93359V3.9668C40.4365 3.46875 40.5016 3.02441 40.6318 2.63379C40.7653 2.23991 40.9476 1.90625 41.1787 1.63281C41.4131 1.35938 41.6865 1.15104 41.999 1.00781C42.3148 0.864583 42.6566 0.792969 43.0244 0.792969C43.4248 0.792969 43.7731 0.843424 44.0693 0.944336C44.3688 1.04525 44.6211 1.19173 44.8262 1.38379C45.0312 1.57259 45.1908 1.80371 45.3047 2.07715C45.4219 2.35059 45.4984 2.6582 45.5342 3H44.1963C44.1507 2.63542 44.04 2.36198 43.8643 2.17969C43.6917 1.99414 43.4232 1.90137 43.0586 1.90137C42.8828 1.90137 42.7201 1.94694 42.5703 2.03809C42.4206 2.12598 42.2904 2.25618 42.1797 2.42871C42.069 2.60124 41.9811 2.81608 41.916 3.07324C41.8509 3.32715 41.8184 3.62174 41.8184 3.95703V4.93359C41.8216 5.59766 41.9323 6.1071 42.1504 6.46191C42.3685 6.81348 42.7021 6.99089 43.1514 6.99414C43.2588 6.99414 43.3646 6.986 43.4688 6.96973C43.5729 6.95345 43.6706 6.93066 43.7617 6.90137C43.8529 6.87207 43.9326 6.83952 44.001 6.80371C44.0726 6.76465 44.1263 6.72396 44.1621 6.68164L44.167 5.39258H42.9902V4.36719H45.5342L45.5391 7.16992Z"/>
</svg>
