<svg width="54" height="31" viewBox="0 0 54 31" xmlns="http://www.w3.org/2000/svg">
<path id="Rating- 2Points" d="M3.03125 5.34375H1.99121V8H0.619141V0.890625H3.00195C3.39583 0.890625 3.75228 0.937826 4.07129 1.03223C4.3903 1.12337 4.66211 1.25846 4.88672 1.4375C5.11458 1.61654 5.28874 1.83952 5.40918 2.10645C5.53288 2.37337 5.59473 2.68262 5.59473 3.03418C5.59473 3.28809 5.5638 3.51758 5.50195 3.72266C5.44336 3.92448 5.3571 4.10677 5.24316 4.26953C5.13249 4.42904 4.9974 4.56901 4.83789 4.68945C4.68164 4.8099 4.50586 4.91406 4.31055 5.00195L5.83887 7.93652V8H4.36914L3.03125 5.34375ZM1.99121 4.23047H3.00684C3.39421 4.23047 3.69206 4.13281 3.90039 3.9375C4.11198 3.73893 4.21777 3.46875 4.21777 3.12695C4.21777 2.77214 4.11523 2.49707 3.91016 2.30176C3.70508 2.10319 3.40234 2.00391 3.00195 2.00391H1.99121V4.23047ZM12.1211 6.51562H9.9873L9.56738 8H8.12207L10.4512 0.890625H11.6963L13.9814 8H12.5361L12.1211 6.51562ZM10.3242 5.34863H11.7988L11.0713 2.73145L10.3242 5.34863ZM21.8555 2.00879H19.6631V8H18.2861V2.00879H16.123V0.890625H21.8555V2.00879ZM24.9395 0.890625H29.0508V1.99902H27.6641V6.89648H29.0508V8H24.9395V6.89648H26.292V1.99902H24.9395V0.890625ZM37.3301 8H35.9629L33.9854 3.41504V8H32.6035V0.890625H33.9854L35.9482 5.45605L35.9531 0.890625H37.3301V8ZM45.5361 7.16992C45.4482 7.27734 45.3278 7.38639 45.1748 7.49707C45.0218 7.60775 44.8395 7.70866 44.6279 7.7998C44.4196 7.8877 44.1852 7.95931 43.9248 8.01465C43.6644 8.06999 43.3844 8.09766 43.085 8.09766C42.6813 8.09766 42.3167 8.02604 41.9912 7.88281C41.6657 7.73958 41.3874 7.53288 41.1562 7.2627C40.9251 6.99251 40.7461 6.66211 40.6191 6.27148C40.4954 5.8776 40.4336 5.43164 40.4336 4.93359V3.9668C40.4336 3.46875 40.4987 3.02441 40.6289 2.63379C40.7624 2.23991 40.9447 1.90625 41.1758 1.63281C41.4102 1.35938 41.6836 1.15104 41.9961 1.00781C42.3118 0.864583 42.6536 0.792969 43.0215 0.792969C43.4219 0.792969 43.7702 0.843424 44.0664 0.944336C44.3659 1.04525 44.6182 1.19173 44.8232 1.38379C45.0283 1.57259 45.1878 1.80371 45.3018 2.07715C45.4189 2.35059 45.4954 2.6582 45.5312 3H44.1934C44.1478 2.63542 44.0371 2.36198 43.8613 2.17969C43.6888 1.99414 43.4202 1.90137 43.0557 1.90137C42.8799 1.90137 42.7171 1.94694 42.5674 2.03809C42.4176 2.12598 42.2874 2.25618 42.1768 2.42871C42.0661 2.60124 41.9782 2.81608 41.9131 3.07324C41.848 3.32715 41.8154 3.62174 41.8154 3.95703V4.93359C41.8187 5.59766 41.9294 6.1071 42.1475 6.46191C42.3656 6.81348 42.6992 6.99089 43.1484 6.99414C43.2559 6.99414 43.3617 6.986 43.4658 6.96973C43.57 6.95345 43.6676 6.93066 43.7588 6.90137C43.8499 6.87207 43.9297 6.83952 43.998 6.80371C44.0697 6.76465 44.1234 6.72396 44.1592 6.68164L44.1641 5.39258H42.9873V4.36719H45.5312L45.5361 7.16992ZM53.459 5.41211H49.3916V4.31348H53.459V5.41211ZM5.31641 30H0.467773V29.0723L2.76758 26.6016C2.94661 26.4062 3.09798 26.2288 3.22168 26.0693C3.34538 25.9098 3.44466 25.765 3.51953 25.6348C3.59766 25.5013 3.65299 25.3776 3.68555 25.2637C3.72135 25.1497 3.73926 25.0391 3.73926 24.9316C3.73926 24.7721 3.71647 24.6305 3.6709 24.5068C3.62533 24.3831 3.56022 24.279 3.47559 24.1943C3.39421 24.1064 3.29492 24.0397 3.17773 23.9941C3.0638 23.9486 2.93685 23.9258 2.79688 23.9258C2.42253 23.9258 2.14258 24.0299 1.95703 24.2383C1.77474 24.4466 1.68359 24.738 1.68359 25.1123H0.321289C0.321289 24.7965 0.38151 24.4987 0.501953 24.2188C0.622396 23.9355 0.791667 23.6882 1.00977 23.4766C1.23112 23.265 1.49642 23.099 1.80566 22.9785C2.11816 22.8548 2.46322 22.793 2.84082 22.793C3.20215 22.793 3.52116 22.8434 3.79785 22.9443C4.0778 23.0452 4.31055 23.1868 4.49609 23.3691C4.6849 23.5514 4.82812 23.7712 4.92578 24.0283C5.02344 24.2822 5.07227 24.5638 5.07227 24.873C5.07227 25.1074 5.03483 25.332 4.95996 25.5469C4.88835 25.7585 4.78418 25.9684 4.64746 26.1768C4.514 26.3851 4.35286 26.5983 4.16406 26.8164C3.97526 27.0312 3.7653 27.2575 3.53418 27.4951L2.19629 28.9111H5.31641V30ZM10.085 27.3926V30H8.71289V22.8906H11.1445C11.5319 22.8906 11.8818 22.9476 12.1943 23.0615C12.5068 23.1722 12.7721 23.3285 12.9902 23.5303C13.2116 23.7288 13.3809 23.9681 13.498 24.248C13.6185 24.528 13.6787 24.8389 13.6787 25.1807C13.6787 25.4997 13.6185 25.7943 13.498 26.0645C13.3809 26.3346 13.2116 26.569 12.9902 26.7676C12.7721 26.9629 12.5068 27.1159 12.1943 27.2266C11.8818 27.3372 11.5319 27.3926 11.1445 27.3926H10.085ZM10.085 26.2793H11.1445C11.3398 26.2793 11.5091 26.25 11.6523 26.1914C11.7956 26.1328 11.9144 26.0531 12.0088 25.9521C12.1064 25.8512 12.1781 25.7357 12.2236 25.6055C12.2725 25.472 12.2969 25.3337 12.2969 25.1904C12.2969 25.0244 12.2725 24.8698 12.2236 24.7266C12.1781 24.5833 12.1064 24.458 12.0088 24.3506C11.9144 24.2432 11.7956 24.1585 11.6523 24.0967C11.5091 24.0348 11.3398 24.0039 11.1445 24.0039H10.085V26.2793ZM21.5918 26.9678C21.5918 27.4235 21.5316 27.8434 21.4111 28.2275C21.2907 28.6117 21.1165 28.9421 20.8887 29.2188C20.6608 29.4954 20.3825 29.7119 20.0537 29.8682C19.7282 30.0212 19.3604 30.0977 18.9502 30.0977C18.54 30.0977 18.1755 30.0212 17.8564 29.8682C17.5374 29.7119 17.2689 29.4954 17.0508 29.2188C16.8327 28.9388 16.6667 28.6084 16.5527 28.2275C16.4388 27.8434 16.3818 27.4235 16.3818 26.9678V25.9326C16.3818 25.4769 16.4388 25.057 16.5527 24.6729C16.6667 24.2887 16.8327 23.9583 17.0508 23.6816C17.2689 23.4017 17.5358 23.1836 17.8516 23.0273C18.1706 22.8711 18.5352 22.793 18.9453 22.793C19.3587 22.793 19.7282 22.8711 20.0537 23.0273C20.3825 23.1836 20.6608 23.4017 20.8887 23.6816C21.1165 23.9583 21.2907 24.2887 21.4111 24.6729C21.5316 25.057 21.5918 25.4769 21.5918 25.9326V26.9678ZM20.2002 25.9229C20.2002 25.6331 20.1758 25.3662 20.127 25.1221C20.0814 24.8779 20.0081 24.668 19.9072 24.4922C19.8063 24.3164 19.6761 24.1797 19.5166 24.082C19.3604 23.9811 19.1699 23.9307 18.9453 23.9307C18.724 23.9307 18.5384 23.9811 18.3887 24.082C18.2389 24.1797 18.1185 24.3164 18.0273 24.4922C17.9362 24.668 17.8711 24.8779 17.832 25.1221C17.793 25.3662 17.7734 25.6331 17.7734 25.9229V26.9678C17.7734 27.2542 17.793 27.5195 17.832 27.7637C17.8711 28.0078 17.9362 28.2194 18.0273 28.3984C18.1185 28.5775 18.2389 28.7174 18.3887 28.8184C18.5384 28.9193 18.7256 28.9697 18.9502 28.9697C19.1715 28.9697 19.3604 28.9193 19.5166 28.8184C19.6761 28.7174 19.8047 28.5791 19.9023 28.4033C20.0033 28.2243 20.0781 28.0127 20.127 27.7686C20.1758 27.5244 20.2002 27.2575 20.2002 26.9678V25.9229ZM24.9395 22.8906H29.0508V23.999H27.6641V28.8965H29.0508V30H24.9395V28.8965H26.292V23.999H24.9395V22.8906ZM37.3301 30H35.9629L33.9854 25.415V30H32.6035V22.8906H33.9854L35.9482 27.4561L35.9531 22.8906H37.3301V30ZM45.873 24.0088H43.6807V30H42.3037V24.0088H40.1406V22.8906H45.873V24.0088ZM52.3457 28.1445C52.3457 28.0176 52.3229 27.8988 52.2773 27.7881C52.235 27.6774 52.1602 27.5749 52.0527 27.4805C51.9486 27.3828 51.8102 27.2949 51.6377 27.2168C51.4684 27.1354 51.2568 27.0605 51.0029 26.9922C50.6937 26.9076 50.3975 26.8018 50.1143 26.6748C49.8343 26.5479 49.5869 26.3949 49.3721 26.2158C49.1572 26.0368 48.9847 25.8285 48.8545 25.5908C48.7275 25.3532 48.6641 25.0798 48.6641 24.7705C48.6641 24.471 48.7275 24.1992 48.8545 23.9551C48.9814 23.7109 49.1572 23.5026 49.3818 23.3301C49.6064 23.1576 49.8717 23.0257 50.1777 22.9346C50.4837 22.8402 50.8158 22.793 51.1738 22.793C51.5449 22.793 51.8835 22.8467 52.1895 22.9541C52.4987 23.0615 52.764 23.2129 52.9854 23.4082C53.2067 23.6003 53.3792 23.8298 53.5029 24.0967C53.6266 24.3636 53.6885 24.6566 53.6885 24.9756H52.3506C52.3441 24.8161 52.3148 24.6696 52.2627 24.5361C52.2139 24.4027 52.139 24.2887 52.0381 24.1943C51.9404 24.0967 51.8167 24.0218 51.667 23.9697C51.5205 23.9144 51.348 23.8867 51.1494 23.8867C50.9671 23.8867 50.8044 23.9095 50.6611 23.9551C50.5212 23.9974 50.4023 24.0592 50.3047 24.1406C50.207 24.2188 50.1322 24.3132 50.0801 24.4238C50.0312 24.5312 50.0068 24.6484 50.0068 24.7754C50.0068 24.9089 50.0394 25.0293 50.1045 25.1367C50.1729 25.2441 50.2705 25.3418 50.3975 25.4297C50.5244 25.5143 50.6774 25.5924 50.8564 25.6641C51.0387 25.7357 51.2438 25.8024 51.4717 25.8643C51.7972 25.9587 52.0967 26.0742 52.3701 26.2109C52.6436 26.3477 52.8779 26.5104 53.0732 26.6992C53.2718 26.8848 53.4248 27.098 53.5322 27.3389C53.6429 27.5765 53.6982 27.8418 53.6982 28.1348C53.6982 28.4473 53.6348 28.7256 53.5078 28.9697C53.3841 29.2106 53.2116 29.4157 52.9902 29.585C52.7689 29.751 52.5052 29.8779 52.1992 29.9658C51.8932 30.0505 51.5596 30.0928 51.1982 30.0928C50.9736 30.0928 50.749 30.0716 50.5244 30.0293C50.3031 29.9902 50.0898 29.9284 49.8848 29.8438C49.6829 29.7591 49.4941 29.6533 49.3184 29.5264C49.1426 29.3994 48.9896 29.2513 48.8594 29.082C48.7324 28.9128 48.6315 28.7207 48.5566 28.5059C48.485 28.291 48.4492 28.0534 48.4492 27.793H49.7969C49.8034 28.0078 49.8408 28.1917 49.9092 28.3447C49.9775 28.4977 50.0719 28.623 50.1924 28.7207C50.3161 28.8184 50.4626 28.89 50.6318 28.9355C50.8044 28.9811 50.9932 29.0039 51.1982 29.0039C51.3805 29.0039 51.5417 28.9827 51.6816 28.9404C51.8249 28.8981 51.9453 28.8395 52.043 28.7646C52.1406 28.6898 52.2155 28.6003 52.2676 28.4961C52.3197 28.3887 52.3457 28.2715 52.3457 28.1445Z"/>
</svg>
