<svg width="110" height="9" viewBox="0 0 110 9" xmlns="http://www.w3.org/2000/svg">
<path d="M3.01074 5.34375H1.9707V8H0.598633V0.890625H2.98145C3.37533 0.890625 3.73177 0.937826 4.05078 1.03223C4.36979 1.12337 4.6416 1.25846 4.86621 1.4375C5.09408 1.61654 5.26823 1.83952 5.38867 2.10645C5.51237 2.37337 5.57422 2.68262 5.57422 3.03418C5.57422 3.28809 5.54329 3.51758 5.48145 3.72266C5.42285 3.92448 5.33659 4.10677 5.22266 4.26953C5.11198 4.42904 4.97689 4.56901 4.81738 4.68945C4.66113 4.8099 4.48535 4.91406 4.29004 5.00195L5.81836 7.93652V8H4.34863L3.01074 5.34375ZM1.9707 4.23047H2.98633C3.3737 4.23047 3.67155 4.13281 3.87988 3.9375C4.09147 3.73893 4.19727 3.46875 4.19727 3.12695C4.19727 2.77214 4.09473 2.49707 3.88965 2.30176C3.68457 2.10319 3.38184 2.00391 2.98145 2.00391H1.9707V4.23047ZM12.1006 6.51562H9.9668L9.54688 8H8.10156L10.4307 0.890625H11.6758L13.9609 8H12.5156L12.1006 6.51562ZM10.3037 5.34863H11.7783L11.0508 2.73145L10.3037 5.34863ZM21.835 2.00879H19.6426V8H18.2656V2.00879H16.1025V0.890625H21.835V2.00879ZM24.9189 0.890625H29.0303V1.99902H27.6436V6.89648H29.0303V8H24.9189V6.89648H26.2715V1.99902H24.9189V0.890625ZM37.3096 8H35.9424L33.9648 3.41504V8H32.583V0.890625H33.9648L35.9277 5.45605L35.9326 0.890625H37.3096V8ZM45.5156 7.16992C45.4277 7.27734 45.3073 7.38639 45.1543 7.49707C45.0013 7.60775 44.819 7.70866 44.6074 7.7998C44.3991 7.8877 44.1647 7.95931 43.9043 8.01465C43.6439 8.06999 43.3639 8.09766 43.0645 8.09766C42.6608 8.09766 42.2962 8.02604 41.9707 7.88281C41.6452 7.73958 41.3669 7.53288 41.1357 7.2627C40.9046 6.99251 40.7256 6.66211 40.5986 6.27148C40.4749 5.8776 40.4131 5.43164 40.4131 4.93359V3.9668C40.4131 3.46875 40.4782 3.02441 40.6084 2.63379C40.7419 2.23991 40.9242 1.90625 41.1553 1.63281C41.3896 1.35938 41.6631 1.15104 41.9756 1.00781C42.2913 0.864583 42.6331 0.792969 43.001 0.792969C43.4014 0.792969 43.7497 0.843424 44.0459 0.944336C44.3454 1.04525 44.5977 1.19173 44.8027 1.38379C45.0078 1.57259 45.1673 1.80371 45.2812 2.07715C45.3984 2.35059 45.4749 2.6582 45.5107 3H44.1729C44.1273 2.63542 44.0166 2.36198 43.8408 2.17969C43.6683 1.99414 43.3997 1.90137 43.0352 1.90137C42.8594 1.90137 42.6966 1.94694 42.5469 2.03809C42.3971 2.12598 42.2669 2.25618 42.1562 2.42871C42.0456 2.60124 41.9577 2.81608 41.8926 3.07324C41.8275 3.32715 41.7949 3.62174 41.7949 3.95703V4.93359C41.7982 5.59766 41.9089 6.1071 42.127 6.46191C42.3451 6.81348 42.6787 6.99089 43.1279 6.99414C43.2354 6.99414 43.3411 6.986 43.4453 6.96973C43.5495 6.95345 43.6471 6.93066 43.7383 6.90137C43.8294 6.87207 43.9092 6.83952 43.9775 6.80371C44.0492 6.76465 44.1029 6.72396 44.1387 6.68164L44.1436 5.39258H42.9668V4.36719H45.5107L45.5156 7.16992ZM53.4385 5.41211H49.3711V4.31348H53.4385V5.41211ZM58.0557 3.84961H58.793C59.1641 3.84961 59.4391 3.75684 59.6182 3.57129C59.7972 3.38249 59.8867 3.13672 59.8867 2.83398C59.8867 2.69401 59.8656 2.56706 59.8232 2.45312C59.7842 2.33594 59.724 2.23665 59.6426 2.15527C59.5612 2.07064 59.457 2.00553 59.3301 1.95996C59.2064 1.91439 59.0615 1.8916 58.8955 1.8916C58.7588 1.8916 58.6302 1.91113 58.5098 1.9502C58.3926 1.98926 58.2884 2.04622 58.1973 2.12109C58.1094 2.19271 58.0394 2.2806 57.9873 2.38477C57.9352 2.48893 57.9092 2.60612 57.9092 2.73633H56.5518C56.5518 2.44661 56.6104 2.18294 56.7275 1.94531C56.848 1.70768 57.0124 1.50423 57.2207 1.33496C57.429 1.16243 57.6732 1.02897 57.9531 0.93457C58.2363 0.840169 58.5407 0.792969 58.8662 0.792969C59.2178 0.792969 59.54 0.836914 59.833 0.924805C60.126 1.00944 60.3766 1.13802 60.585 1.31055C60.7933 1.47982 60.9544 1.69141 61.0684 1.94531C61.1855 2.19596 61.2441 2.4873 61.2441 2.81934C61.2441 2.97233 61.2214 3.1237 61.1758 3.27344C61.1302 3.41992 61.0635 3.5599 60.9756 3.69336C60.8877 3.82682 60.7786 3.95052 60.6484 4.06445C60.5182 4.17513 60.3685 4.27116 60.1992 4.35254C60.3978 4.42415 60.5687 4.5153 60.7119 4.62598C60.8584 4.73665 60.9788 4.86361 61.0732 5.00684C61.1676 5.14681 61.2376 5.30143 61.2832 5.4707C61.3288 5.63997 61.3516 5.81901 61.3516 6.00781C61.3516 6.33984 61.2881 6.63607 61.1611 6.89648C61.0342 7.1569 60.86 7.37663 60.6387 7.55566C60.4173 7.73145 60.1536 7.86654 59.8477 7.96094C59.5449 8.05208 59.2178 8.09766 58.8662 8.09766C58.5635 8.09766 58.2673 8.05697 57.9775 7.97559C57.6911 7.89095 57.4355 7.76562 57.2109 7.59961C56.9863 7.43034 56.8057 7.21875 56.6689 6.96484C56.5355 6.71094 56.4688 6.41146 56.4688 6.06641H57.8262C57.8262 6.20312 57.8522 6.33008 57.9043 6.44727C57.9564 6.5612 58.0296 6.66048 58.124 6.74512C58.2217 6.8265 58.3356 6.8916 58.4658 6.94043C58.596 6.986 58.7393 7.00879 58.8955 7.00879C59.2406 7.00879 59.5107 6.91764 59.7061 6.73535C59.9014 6.55306 59.999 6.30566 59.999 5.99316C59.999 5.80111 59.9714 5.63672 59.916 5.5C59.8607 5.36328 59.7793 5.25098 59.6719 5.16309C59.5677 5.0752 59.4408 5.01009 59.291 4.96777C59.1445 4.92546 58.9785 4.9043 58.793 4.9043H58.0557V3.84961ZM66.1055 5.39258V8H64.7334V0.890625H67.165C67.5524 0.890625 67.9023 0.947591 68.2148 1.06152C68.5273 1.1722 68.7926 1.32845 69.0107 1.53027C69.2321 1.72884 69.4014 1.9681 69.5186 2.24805C69.639 2.52799 69.6992 2.83887 69.6992 3.18066C69.6992 3.49967 69.639 3.79427 69.5186 4.06445C69.4014 4.33464 69.2321 4.56901 69.0107 4.76758C68.7926 4.96289 68.5273 5.11589 68.2148 5.22656C67.9023 5.33724 67.5524 5.39258 67.165 5.39258H66.1055ZM66.1055 4.2793H67.165C67.3604 4.2793 67.5296 4.25 67.6729 4.19141C67.8161 4.13281 67.9349 4.05306 68.0293 3.95215C68.127 3.85124 68.1986 3.73568 68.2441 3.60547C68.293 3.47201 68.3174 3.33366 68.3174 3.19043C68.3174 3.02441 68.293 2.86979 68.2441 2.72656C68.1986 2.58333 68.127 2.45801 68.0293 2.35059C67.9349 2.24316 67.8161 2.15853 67.6729 2.09668C67.5296 2.03483 67.3604 2.00391 67.165 2.00391H66.1055V4.2793ZM77.6123 4.96777C77.6123 5.4235 77.5521 5.84342 77.4316 6.22754C77.3112 6.61165 77.137 6.94206 76.9092 7.21875C76.6813 7.49544 76.403 7.71191 76.0742 7.86816C75.7487 8.02116 75.3809 8.09766 74.9707 8.09766C74.5605 8.09766 74.196 8.02116 73.877 7.86816C73.5579 7.71191 73.2894 7.49544 73.0713 7.21875C72.8532 6.9388 72.6872 6.6084 72.5732 6.22754C72.4593 5.84342 72.4023 5.4235 72.4023 4.96777V3.93262C72.4023 3.47689 72.4593 3.05697 72.5732 2.67285C72.6872 2.28874 72.8532 1.95833 73.0713 1.68164C73.2894 1.40169 73.5563 1.18359 73.8721 1.02734C74.1911 0.871094 74.5557 0.792969 74.9658 0.792969C75.3792 0.792969 75.7487 0.871094 76.0742 1.02734C76.403 1.18359 76.6813 1.40169 76.9092 1.68164C77.137 1.95833 77.3112 2.28874 77.4316 2.67285C77.5521 3.05697 77.6123 3.47689 77.6123 3.93262V4.96777ZM76.2207 3.92285C76.2207 3.63314 76.1963 3.36621 76.1475 3.12207C76.1019 2.87793 76.0286 2.66797 75.9277 2.49219C75.8268 2.31641 75.6966 2.17969 75.5371 2.08203C75.3809 1.98112 75.1904 1.93066 74.9658 1.93066C74.7445 1.93066 74.5589 1.98112 74.4092 2.08203C74.2594 2.17969 74.139 2.31641 74.0479 2.49219C73.9567 2.66797 73.8916 2.87793 73.8525 3.12207C73.8135 3.36621 73.7939 3.63314 73.7939 3.92285V4.96777C73.7939 5.25423 73.8135 5.51953 73.8525 5.76367C73.8916 6.00781 73.9567 6.2194 74.0479 6.39844C74.139 6.57747 74.2594 6.71745 74.4092 6.81836C74.5589 6.91927 74.7461 6.96973 74.9707 6.96973C75.1921 6.96973 75.3809 6.91927 75.5371 6.81836C75.6966 6.71745 75.8252 6.5791 75.9229 6.40332C76.0238 6.22428 76.0986 6.0127 76.1475 5.76855C76.1963 5.52441 76.2207 5.25749 76.2207 4.96777V3.92285ZM80.96 0.890625H85.0713V1.99902H83.6846V6.89648H85.0713V8H80.96V6.89648H82.3125V1.99902H80.96V0.890625ZM93.3506 8H91.9834L90.0059 3.41504V8H88.624V0.890625H90.0059L91.9688 5.45605L91.9736 0.890625H93.3506V8ZM101.894 2.00879H99.7012V8H98.3242V2.00879H96.1611V0.890625H101.894V2.00879ZM108.366 6.14453C108.366 6.01758 108.343 5.89876 108.298 5.78809C108.256 5.67741 108.181 5.57487 108.073 5.48047C107.969 5.38281 107.831 5.29492 107.658 5.2168C107.489 5.13542 107.277 5.06055 107.023 4.99219C106.714 4.90755 106.418 4.80176 106.135 4.6748C105.855 4.54785 105.607 4.39486 105.393 4.21582C105.178 4.03678 105.005 3.82845 104.875 3.59082C104.748 3.35319 104.685 3.07975 104.685 2.77051C104.685 2.47103 104.748 2.19922 104.875 1.95508C105.002 1.71094 105.178 1.5026 105.402 1.33008C105.627 1.15755 105.892 1.02572 106.198 0.93457C106.504 0.840169 106.836 0.792969 107.194 0.792969C107.565 0.792969 107.904 0.84668 108.21 0.954102C108.519 1.06152 108.785 1.21289 109.006 1.4082C109.227 1.60026 109.4 1.82975 109.523 2.09668C109.647 2.36361 109.709 2.65658 109.709 2.97559H108.371C108.365 2.81608 108.335 2.6696 108.283 2.53613C108.234 2.40267 108.16 2.28874 108.059 2.19434C107.961 2.09668 107.837 2.02181 107.688 1.96973C107.541 1.91439 107.368 1.88672 107.17 1.88672C106.988 1.88672 106.825 1.90951 106.682 1.95508C106.542 1.9974 106.423 2.05924 106.325 2.14062C106.228 2.21875 106.153 2.31315 106.101 2.42383C106.052 2.53125 106.027 2.64844 106.027 2.77539C106.027 2.90885 106.06 3.0293 106.125 3.13672C106.193 3.24414 106.291 3.3418 106.418 3.42969C106.545 3.51432 106.698 3.59245 106.877 3.66406C107.059 3.73568 107.264 3.80241 107.492 3.86426C107.818 3.95866 108.117 4.07422 108.391 4.21094C108.664 4.34766 108.898 4.51042 109.094 4.69922C109.292 4.88477 109.445 5.09798 109.553 5.33887C109.663 5.5765 109.719 5.8418 109.719 6.13477C109.719 6.44727 109.655 6.72559 109.528 6.96973C109.405 7.21061 109.232 7.41569 109.011 7.58496C108.789 7.75098 108.526 7.87793 108.22 7.96582C107.914 8.05046 107.58 8.09277 107.219 8.09277C106.994 8.09277 106.77 8.07161 106.545 8.0293C106.324 7.99023 106.11 7.92839 105.905 7.84375C105.703 7.75911 105.515 7.65332 105.339 7.52637C105.163 7.39941 105.01 7.2513 104.88 7.08203C104.753 6.91276 104.652 6.7207 104.577 6.50586C104.506 6.29102 104.47 6.05339 104.47 5.79297H105.817C105.824 6.00781 105.861 6.19173 105.93 6.34473C105.998 6.49772 106.092 6.62305 106.213 6.7207C106.337 6.81836 106.483 6.88997 106.652 6.93555C106.825 6.98112 107.014 7.00391 107.219 7.00391C107.401 7.00391 107.562 6.98275 107.702 6.94043C107.845 6.89811 107.966 6.83952 108.063 6.76465C108.161 6.68978 108.236 6.60026 108.288 6.49609C108.34 6.38867 108.366 6.27148 108.366 6.14453Z"/>
</svg>
