<svg width="32" height="32" viewBox="0 0 32 32" xmlns="http://www.w3.org/2000/svg">
<g>
<path fill-rule="evenodd" clip-rule="evenodd" d="M18 7V9H26V16H21C19.3431 16 18 17.3431 18 19V26H16V3H14V23.18C13.0832 22.8559 12.0661 22.9962 11.2714 23.5565C10.4766 24.1168 10.0027 25.0276 10 26H4V28H10.78C11.3486 28.6255 12.1547 28.9822 13 28.9822C13.8453 28.9822 14.6514 28.6255 15.22 28H23C23.2558 28.6016 23.8463 28.9921 24.5 28.9921C25.1537 28.9921 25.7442 28.6016 26 28H28V7H18ZM13 27C12.4477 27 12 26.5523 12 26C12 25.4477 12.4477 25 13 25C13.5523 25 14 25.4477 14 26C14 26.5523 13.5523 27 13 27ZM26 26H20V19C20 18.4477 20.4477 18 21 18H26V26Z"/>
</g>
</svg>
