<svg width="32" height="32" viewBox="0 0 32 32" xmlns="http://www.w3.org/2000/svg">
<g>
<path d="M29.35 12C29.7256 13.2632 30 14.6165 30 16C30 23.7197 23.7197 30 16 30C8.28027 30 2 23.7197 2 16C2 8.28027 8.28027 2 16 2C17.9342 2 19.7726 2.4376 21.45 3.15L19.85 4.65C18.6255 4.22751 17.3662 4 16 4C9.3833 4 4 9.3833 4 16C4 22.6167 9.3833 28 16 28C22.6167 28 28 22.6167 28 16C28 15.2012 27.8996 14.4056 27.75 13.65L29.35 12ZM17 14H7.99995V16H15V24H17V14ZM29.55 8H26V2.45001C26 2.06549 25.5219 1.87811 25.25 2.14996L18.15 9.25C17.8781 9.52185 18.0655 10 18.45 10H22V15.55C22 15.9345 22.4781 16.1219 22.75 15.85L29.85 8.75C30.1219 8.47809 29.9345 8 29.55 8Z"/>
</g>
</svg>
