<svg width="46" height="9" viewBox="0 0 46 9" xmlns="http://www.w3.org/2000/svg">
<path d="M3.03418 5.34375H1.99414V8H0.62207V0.890625H3.00488C3.39876 0.890625 3.75521 0.937826 4.07422 1.03223C4.39323 1.12337 4.66504 1.25846 4.88965 1.4375C5.11751 1.61654 5.29167 1.83952 5.41211 2.10645C5.53581 2.37337 5.59766 2.68262 5.59766 3.03418C5.59766 3.28809 5.56673 3.51758 5.50488 3.72266C5.44629 3.92448 5.36003 4.10677 5.24609 4.26953C5.13542 4.42904 5.00033 4.56901 4.84082 4.68945C4.68457 4.8099 4.50879 4.91406 4.31348 5.00195L5.8418 7.93652V8H4.37207L3.03418 5.34375ZM1.99414 4.23047H3.00977C3.39714 4.23047 3.69499 4.13281 3.90332 3.9375C4.11491 3.73893 4.2207 3.46875 4.2207 3.12695C4.2207 2.77214 4.11816 2.49707 3.91309 2.30176C3.70801 2.10319 3.40527 2.00391 3.00488 2.00391H1.99414V4.23047ZM13.0029 4.88477H10.083V6.8916H13.4961V8H8.70605V0.890625H13.4814V2.00879H10.083V3.80078H13.0029V4.88477ZM18.1035 6.8916H21.4336V8H16.7266V0.890625H18.1035V6.8916ZM29.6006 4.96777C29.6006 5.4235 29.5404 5.84342 29.4199 6.22754C29.2995 6.61165 29.1253 6.94206 28.8975 7.21875C28.6696 7.49544 28.3913 7.71191 28.0625 7.86816C27.737 8.02116 27.3691 8.09766 26.959 8.09766C26.5488 8.09766 26.1842 8.02116 25.8652 7.86816C25.5462 7.71191 25.2777 7.49544 25.0596 7.21875C24.8415 6.9388 24.6755 6.6084 24.5615 6.22754C24.4476 5.84342 24.3906 5.4235 24.3906 4.96777V3.93262C24.3906 3.47689 24.4476 3.05697 24.5615 2.67285C24.6755 2.28874 24.8415 1.95833 25.0596 1.68164C25.2777 1.40169 25.5446 1.18359 25.8604 1.02734C26.1794 0.871094 26.5439 0.792969 26.9541 0.792969C27.3675 0.792969 27.737 0.871094 28.0625 1.02734C28.3913 1.18359 28.6696 1.40169 28.8975 1.68164C29.1253 1.95833 29.2995 2.28874 29.4199 2.67285C29.5404 3.05697 29.6006 3.47689 29.6006 3.93262V4.96777ZM28.209 3.92285C28.209 3.63314 28.1846 3.36621 28.1357 3.12207C28.0902 2.87793 28.0169 2.66797 27.916 2.49219C27.8151 2.31641 27.6849 2.17969 27.5254 2.08203C27.3691 1.98112 27.1787 1.93066 26.9541 1.93066C26.7327 1.93066 26.5472 1.98112 26.3975 2.08203C26.2477 2.17969 26.1273 2.31641 26.0361 2.49219C25.945 2.66797 25.8799 2.87793 25.8408 3.12207C25.8018 3.36621 25.7822 3.63314 25.7822 3.92285V4.96777C25.7822 5.25423 25.8018 5.51953 25.8408 5.76367C25.8799 6.00781 25.945 6.2194 26.0361 6.39844C26.1273 6.57747 26.2477 6.71745 26.3975 6.81836C26.5472 6.91927 26.7344 6.96973 26.959 6.96973C27.1803 6.96973 27.3691 6.91927 27.5254 6.81836C27.6849 6.71745 27.8135 6.5791 27.9111 6.40332C28.012 6.22428 28.0869 6.0127 28.1357 5.76855C28.1846 5.52441 28.209 5.25749 28.209 4.96777V3.92285ZM36.1416 6.51562H34.0078L33.5879 8H32.1426L34.4717 0.890625H35.7168L38.002 8H36.5566L36.1416 6.51562ZM34.3447 5.34863H35.8193L35.0918 2.73145L34.3447 5.34863ZM40.6221 8V0.890625H42.4629C42.9349 0.890625 43.3613 0.972005 43.7422 1.13477C44.1263 1.29427 44.4535 1.51888 44.7236 1.80859C44.9971 2.09505 45.207 2.43848 45.3535 2.83887C45.5033 3.23926 45.5781 3.67871 45.5781 4.15723V4.74316C45.5781 5.22168 45.5033 5.66113 45.3535 6.06152C45.207 6.45866 45.0003 6.80208 44.7334 7.0918C44.4665 7.37826 44.1458 7.60124 43.7715 7.76074C43.3971 7.92025 42.9837 8 42.5312 8H40.6221ZM42.0039 2.00391V6.89648H42.5312C42.7884 6.89648 43.0179 6.84766 43.2197 6.75C43.4248 6.65234 43.5973 6.51074 43.7373 6.3252C43.8805 6.13965 43.9896 5.91504 44.0645 5.65137C44.1393 5.38444 44.1768 5.08171 44.1768 4.74316V4.14746C44.1768 3.82845 44.1393 3.53874 44.0645 3.27832C43.9928 3.01465 43.8838 2.78841 43.7373 2.59961C43.5941 2.41081 43.415 2.26432 43.2002 2.16016C42.9886 2.05599 42.7428 2.00391 42.4629 2.00391H42.0039Z"/>
</svg>
