<svg width="110" height="9" viewBox="0 0 110 9" xmlns="http://www.w3.org/2000/svg">
<path d="M3.01074 5.34375H1.9707V8H0.598633V0.890625H2.98145C3.37533 0.890625 3.73177 0.937826 4.05078 1.03223C4.36979 1.12337 4.6416 1.25846 4.86621 1.4375C5.09408 1.61654 5.26823 1.83952 5.38867 2.10645C5.51237 2.37337 5.57422 2.68262 5.57422 3.03418C5.57422 3.28809 5.54329 3.51758 5.48145 3.72266C5.42285 3.92448 5.33659 4.10677 5.22266 4.26953C5.11198 4.42904 4.97689 4.56901 4.81738 4.68945C4.66113 4.8099 4.48535 4.91406 4.29004 5.00195L5.81836 7.93652V8H4.34863L3.01074 5.34375ZM1.9707 4.23047H2.98633C3.3737 4.23047 3.67155 4.13281 3.87988 3.9375C4.09147 3.73893 4.19727 3.46875 4.19727 3.12695C4.19727 2.77214 4.09473 2.49707 3.88965 2.30176C3.68457 2.10319 3.38184 2.00391 2.98145 2.00391H1.9707V4.23047ZM12.9795 4.88477H10.0596V6.8916H13.4727V8H8.68262V0.890625H13.458V2.00879H10.0596V3.80078H12.9795V4.88477ZM18.2949 0.890625L18.9688 3.56152L19.7354 0.890625H21.4395V8H20.1797V5.89551L20.2383 2.57031L19.3057 5.65625H18.627L17.792 2.70215L17.8506 5.89551V8H16.5908V0.890625H18.2949ZM29.5771 4.96777C29.5771 5.4235 29.5169 5.84342 29.3965 6.22754C29.276 6.61165 29.1019 6.94206 28.874 7.21875C28.6462 7.49544 28.3678 7.71191 28.0391 7.86816C27.7135 8.02116 27.3457 8.09766 26.9355 8.09766C26.5254 8.09766 26.1608 8.02116 25.8418 7.86816C25.5228 7.71191 25.2542 7.49544 25.0361 7.21875C24.818 6.9388 24.652 6.6084 24.5381 6.22754C24.4242 5.84342 24.3672 5.4235 24.3672 4.96777V3.93262C24.3672 3.47689 24.4242 3.05697 24.5381 2.67285C24.652 2.28874 24.818 1.95833 25.0361 1.68164C25.2542 1.40169 25.5212 1.18359 25.8369 1.02734C26.1559 0.871094 26.5205 0.792969 26.9307 0.792969C27.3441 0.792969 27.7135 0.871094 28.0391 1.02734C28.3678 1.18359 28.6462 1.40169 28.874 1.68164C29.1019 1.95833 29.276 2.28874 29.3965 2.67285C29.5169 3.05697 29.5771 3.47689 29.5771 3.93262V4.96777ZM28.1855 3.92285C28.1855 3.63314 28.1611 3.36621 28.1123 3.12207C28.0667 2.87793 27.9935 2.66797 27.8926 2.49219C27.7917 2.31641 27.6615 2.17969 27.502 2.08203C27.3457 1.98112 27.1553 1.93066 26.9307 1.93066C26.7093 1.93066 26.5238 1.98112 26.374 2.08203C26.2243 2.17969 26.1038 2.31641 26.0127 2.49219C25.9215 2.66797 25.8564 2.87793 25.8174 3.12207C25.7783 3.36621 25.7588 3.63314 25.7588 3.92285V4.96777C25.7588 5.25423 25.7783 5.51953 25.8174 5.76367C25.8564 6.00781 25.9215 6.2194 26.0127 6.39844C26.1038 6.57747 26.2243 6.71745 26.374 6.81836C26.5238 6.91927 26.7109 6.96973 26.9355 6.96973C27.1569 6.96973 27.3457 6.91927 27.502 6.81836C27.6615 6.71745 27.79 6.5791 27.8877 6.40332C27.9886 6.22428 28.0635 6.0127 28.1123 5.76855C28.1611 5.52441 28.1855 5.25749 28.1855 4.96777V3.92285ZM37.8467 2.00879H35.6543V8H34.2773V2.00879H32.1143V0.890625H37.8467V2.00879ZM45.0029 4.88477H42.083V6.8916H45.4961V8H40.7061V0.890625H45.4814V2.00879H42.083V3.80078H45.0029V4.88477ZM53.4385 5.41211H49.3711V4.31348H53.4385V5.41211ZM61.5762 5.77344C61.5534 6.13151 61.4753 6.45378 61.3418 6.74023C61.2116 7.02669 61.0358 7.27083 60.8145 7.47266C60.5931 7.67448 60.3294 7.83073 60.0234 7.94141C59.7174 8.04883 59.3789 8.10254 59.0078 8.10254C58.5879 8.10254 58.2152 8.02604 57.8896 7.87305C57.5641 7.7168 57.2907 7.50033 57.0693 7.22363C56.848 6.94368 56.6787 6.6084 56.5615 6.21777C56.4443 5.82715 56.3857 5.39746 56.3857 4.92871V3.97168C56.3857 3.49967 56.4476 3.06836 56.5713 2.67773C56.695 2.28711 56.8708 1.95182 57.0986 1.67188C57.3265 1.39193 57.6016 1.17546 57.9238 1.02246C58.2493 0.866211 58.6139 0.788086 59.0176 0.788086C59.4082 0.788086 59.7549 0.843424 60.0576 0.954102C60.3636 1.06478 60.624 1.22266 60.8389 1.42773C61.0537 1.63281 61.223 1.88346 61.3467 2.17969C61.4704 2.47591 61.5485 2.80957 61.5811 3.18066H60.2139C60.2008 2.96908 60.1683 2.78353 60.1162 2.62402C60.0674 2.46452 59.9941 2.33268 59.8965 2.22852C59.8021 2.12109 59.6816 2.04134 59.5352 1.98926C59.3919 1.93392 59.2194 1.90625 59.0176 1.90625C58.806 1.90625 58.6221 1.95182 58.4658 2.04297C58.3096 2.13411 58.1794 2.26758 58.0752 2.44336C57.9743 2.61914 57.8994 2.83561 57.8506 3.09277C57.8018 3.34668 57.7773 3.63639 57.7773 3.96191V4.92871C57.7773 5.62858 57.875 6.14616 58.0703 6.48145C58.2689 6.81673 58.5814 6.98438 59.0078 6.98438C59.3659 6.98438 59.6491 6.88997 59.8574 6.70117C60.0658 6.50911 60.1813 6.19987 60.2041 5.77344H61.5762ZM69.6064 4.96777C69.6064 5.4235 69.5462 5.84342 69.4258 6.22754C69.3053 6.61165 69.1312 6.94206 68.9033 7.21875C68.6755 7.49544 68.3971 7.71191 68.0684 7.86816C67.7428 8.02116 67.375 8.09766 66.9648 8.09766C66.5547 8.09766 66.1901 8.02116 65.8711 7.86816C65.5521 7.71191 65.2835 7.49544 65.0654 7.21875C64.8473 6.9388 64.6813 6.6084 64.5674 6.22754C64.4535 5.84342 64.3965 5.4235 64.3965 4.96777V3.93262C64.3965 3.47689 64.4535 3.05697 64.5674 2.67285C64.6813 2.28874 64.8473 1.95833 65.0654 1.68164C65.2835 1.40169 65.5505 1.18359 65.8662 1.02734C66.1852 0.871094 66.5498 0.792969 66.96 0.792969C67.3734 0.792969 67.7428 0.871094 68.0684 1.02734C68.3971 1.18359 68.6755 1.40169 68.9033 1.68164C69.1312 1.95833 69.3053 2.28874 69.4258 2.67285C69.5462 3.05697 69.6064 3.47689 69.6064 3.93262V4.96777ZM68.2148 3.92285C68.2148 3.63314 68.1904 3.36621 68.1416 3.12207C68.096 2.87793 68.0228 2.66797 67.9219 2.49219C67.821 2.31641 67.6908 2.17969 67.5312 2.08203C67.375 1.98112 67.1846 1.93066 66.96 1.93066C66.7386 1.93066 66.5531 1.98112 66.4033 2.08203C66.2536 2.17969 66.1331 2.31641 66.042 2.49219C65.9508 2.66797 65.8857 2.87793 65.8467 3.12207C65.8076 3.36621 65.7881 3.63314 65.7881 3.92285V4.96777C65.7881 5.25423 65.8076 5.51953 65.8467 5.76367C65.8857 6.00781 65.9508 6.2194 66.042 6.39844C66.1331 6.57747 66.2536 6.71745 66.4033 6.81836C66.5531 6.91927 66.7402 6.96973 66.9648 6.96973C67.1862 6.96973 67.375 6.91927 67.5312 6.81836C67.6908 6.71745 67.8193 6.5791 67.917 6.40332C68.0179 6.22428 68.0928 6.0127 68.1416 5.76855C68.1904 5.52441 68.2148 5.25749 68.2148 4.96777V3.92285ZM77.3389 8H75.9717L73.9941 3.41504V8H72.6123V0.890625H73.9941L75.957 5.45605L75.9619 0.890625H77.3389V8ZM85.8818 2.00879H83.6895V8H82.3125V2.00879H80.1494V0.890625H85.8818V2.00879ZM91.0752 5.34375H90.0352V8H88.6631V0.890625H91.0459C91.4398 0.890625 91.7962 0.937826 92.1152 1.03223C92.4342 1.12337 92.7061 1.25846 92.9307 1.4375C93.1585 1.61654 93.3327 1.83952 93.4531 2.10645C93.5768 2.37337 93.6387 2.68262 93.6387 3.03418C93.6387 3.28809 93.6077 3.51758 93.5459 3.72266C93.4873 3.92448 93.401 4.10677 93.2871 4.26953C93.1764 4.42904 93.0413 4.56901 92.8818 4.68945C92.7256 4.8099 92.5498 4.91406 92.3545 5.00195L93.8828 7.93652V8H92.4131L91.0752 5.34375ZM90.0352 4.23047H91.0508C91.4382 4.23047 91.736 4.13281 91.9443 3.9375C92.1559 3.73893 92.2617 3.46875 92.2617 3.12695C92.2617 2.77214 92.1592 2.49707 91.9541 2.30176C91.749 2.10319 91.4463 2.00391 91.0459 2.00391H90.0352V4.23047ZM101.63 4.96777C101.63 5.4235 101.57 5.84342 101.449 6.22754C101.329 6.61165 101.155 6.94206 100.927 7.21875C100.699 7.49544 100.421 7.71191 100.092 7.86816C99.7663 8.02116 99.3984 8.09766 98.9883 8.09766C98.5781 8.09766 98.2135 8.02116 97.8945 7.86816C97.5755 7.71191 97.307 7.49544 97.0889 7.21875C96.8708 6.9388 96.7048 6.6084 96.5908 6.22754C96.4769 5.84342 96.4199 5.4235 96.4199 4.96777V3.93262C96.4199 3.47689 96.4769 3.05697 96.5908 2.67285C96.7048 2.28874 96.8708 1.95833 97.0889 1.68164C97.307 1.40169 97.5739 1.18359 97.8896 1.02734C98.2087 0.871094 98.5732 0.792969 98.9834 0.792969C99.3968 0.792969 99.7663 0.871094 100.092 1.02734C100.421 1.18359 100.699 1.40169 100.927 1.68164C101.155 1.95833 101.329 2.28874 101.449 2.67285C101.57 3.05697 101.63 3.47689 101.63 3.93262V4.96777ZM100.238 3.92285C100.238 3.63314 100.214 3.36621 100.165 3.12207C100.119 2.87793 100.046 2.66797 99.9453 2.49219C99.8444 2.31641 99.7142 2.17969 99.5547 2.08203C99.3984 1.98112 99.208 1.93066 98.9834 1.93066C98.762 1.93066 98.5765 1.98112 98.4268 2.08203C98.277 2.17969 98.1566 2.31641 98.0654 2.49219C97.9743 2.66797 97.9092 2.87793 97.8701 3.12207C97.8311 3.36621 97.8115 3.63314 97.8115 3.92285V4.96777C97.8115 5.25423 97.8311 5.51953 97.8701 5.76367C97.9092 6.00781 97.9743 6.2194 98.0654 6.39844C98.1566 6.57747 98.277 6.71745 98.4268 6.81836C98.5765 6.91927 98.7637 6.96973 98.9883 6.96973C99.2096 6.96973 99.3984 6.91927 99.5547 6.81836C99.7142 6.71745 99.8428 6.5791 99.9404 6.40332C100.041 6.22428 100.116 6.0127 100.165 5.76855C100.214 5.52441 100.238 5.25749 100.238 4.96777V3.92285ZM106.145 6.8916H109.475V8H104.768V0.890625H106.145V6.8916Z"/>
</svg>
