<svg width="46" height="8" viewBox="0 0 46 8" xmlns="http://www.w3.org/2000/svg">
<path d="M3.03418 5.34375H1.99414V8H0.62207V0.890625H3.00488C3.39876 0.890625 3.75521 0.937826 4.07422 1.03223C4.39323 1.12337 4.66504 1.25846 4.88965 1.4375C5.11751 1.61654 5.29167 1.83952 5.41211 2.10645C5.53581 2.37337 5.59766 2.68262 5.59766 3.03418C5.59766 3.28809 5.56673 3.51758 5.50488 3.72266C5.44629 3.92448 5.36003 4.10677 5.24609 4.26953C5.13542 4.42904 5.00033 4.56901 4.84082 4.68945C4.68457 4.8099 4.50879 4.91406 4.31348 5.00195L5.8418 7.93652V8H4.37207L3.03418 5.34375ZM1.99414 4.23047H3.00977C3.39714 4.23047 3.69499 4.13281 3.90332 3.9375C4.11491 3.73893 4.2207 3.46875 4.2207 3.12695C4.2207 2.77214 4.11816 2.49707 3.91309 2.30176C3.70801 2.10319 3.40527 2.00391 3.00488 2.00391H1.99414V4.23047ZM13.0029 4.88477H10.083V6.8916H13.4961V8H8.70605V0.890625H13.4814V2.00879H10.083V3.80078H13.0029V4.88477ZM21.3213 8H19.9541L17.9766 3.41504V8H16.5947V0.890625H17.9766L19.9395 5.45605L19.9443 0.890625H21.3213V8ZM29.8643 2.00879H27.6719V8H26.2949V2.00879H24.1318V0.890625H29.8643V2.00879ZM36.1416 6.51562H34.0078L33.5879 8H32.1426L34.4717 0.890625H35.7168L38.002 8H36.5566L36.1416 6.51562ZM34.3447 5.34863H35.8193L35.0918 2.73145L34.3447 5.34863ZM42.1211 6.8916H45.4512V8H40.7441V0.890625H42.1211V6.8916Z"/>
</svg>
