<svg width="32" height="32" viewBox="0 0 32 32" xmlns="http://www.w3.org/2000/svg">
<g>
<path d="M16 10V13H8V10H16ZM8 16V19H16V16H8ZM24.65 24.5L23 23V20H21V24L23.25 26L24.65 24.5ZM29 23C29 26.866 25.866 30 22 30C20.685 30 19.4511 29.6307 18.4 29H4V8C4 6.91998 4.90002 6 6 6H7V2H17V6H18C19.1 6 20 6.91998 20 8V16.25C20.6341 16.0612 21.3045 16 22 16C25.866 16 29 19.134 29 23ZM9 6H15V4H9V6ZM18 17.25V8H6V27H16.25C15.8287 26.3966 15.4662 25.721 15.25 25H8V22C8.04468 22 12.9127 22 15 22C15.2815 20.0412 16.4474 18.334 18 17.25ZM27 23C27 20.2386 24.7614 18 22 18C19.2386 18 17 20.2386 17 23C17 25.7614 19.2386 28 22 28C24.7614 28 27 25.7614 27 23Z"/>
</g>
</svg>
