<svg width="30" height="9" viewBox="0 0 30 9" xmlns="http://www.w3.org/2000/svg">
<path d="M4.31934 6.14453C4.31934 6.01758 4.29655 5.89876 4.25098 5.78809C4.20866 5.67741 4.13379 5.57487 4.02637 5.48047C3.9222 5.38281 3.78385 5.29492 3.61133 5.2168C3.44206 5.13542 3.23047 5.06055 2.97656 4.99219C2.66732 4.90755 2.37109 4.80176 2.08789 4.6748C1.80794 4.54785 1.56055 4.39486 1.3457 4.21582C1.13086 4.03678 0.958333 3.82845 0.828125 3.59082C0.701172 3.35319 0.637695 3.07975 0.637695 2.77051C0.637695 2.47103 0.701172 2.19922 0.828125 1.95508C0.955078 1.71094 1.13086 1.5026 1.35547 1.33008C1.58008 1.15755 1.84538 1.02572 2.15137 0.93457C2.45736 0.840169 2.78939 0.792969 3.14746 0.792969C3.51855 0.792969 3.8571 0.84668 4.16309 0.954102C4.47233 1.06152 4.73763 1.21289 4.95898 1.4082C5.18034 1.60026 5.35286 1.82975 5.47656 2.09668C5.60026 2.36361 5.66211 2.65658 5.66211 2.97559H4.32422C4.31771 2.81608 4.28841 2.6696 4.23633 2.53613C4.1875 2.40267 4.11263 2.28874 4.01172 2.19434C3.91406 2.09668 3.79036 2.02181 3.64062 1.96973C3.49414 1.91439 3.32161 1.88672 3.12305 1.88672C2.94076 1.88672 2.77799 1.90951 2.63477 1.95508C2.49479 1.9974 2.37598 2.05924 2.27832 2.14062C2.18066 2.21875 2.10579 2.31315 2.05371 2.42383C2.00488 2.53125 1.98047 2.64844 1.98047 2.77539C1.98047 2.90885 2.01302 3.0293 2.07812 3.13672C2.14648 3.24414 2.24414 3.3418 2.37109 3.42969C2.49805 3.51432 2.65104 3.59245 2.83008 3.66406C3.01237 3.73568 3.21745 3.80241 3.44531 3.86426C3.77083 3.95866 4.07031 4.07422 4.34375 4.21094C4.61719 4.34766 4.85156 4.51042 5.04688 4.69922C5.24544 4.88477 5.39844 5.09798 5.50586 5.33887C5.61654 5.5765 5.67188 5.8418 5.67188 6.13477C5.67188 6.44727 5.6084 6.72559 5.48145 6.96973C5.35775 7.21061 5.18522 7.41569 4.96387 7.58496C4.74251 7.75098 4.47884 7.87793 4.17285 7.96582C3.86686 8.05046 3.5332 8.09277 3.17188 8.09277C2.94727 8.09277 2.72266 8.07161 2.49805 8.0293C2.27669 7.99023 2.06348 7.92839 1.8584 7.84375C1.65658 7.75911 1.46777 7.65332 1.29199 7.52637C1.11621 7.39941 0.963216 7.2513 0.833008 7.08203C0.706055 6.91276 0.605143 6.7207 0.530273 6.50586C0.458659 6.29102 0.422852 6.05339 0.422852 5.79297H1.77051C1.77702 6.00781 1.81445 6.19173 1.88281 6.34473C1.95117 6.49772 2.04557 6.62305 2.16602 6.7207C2.28971 6.81836 2.4362 6.88997 2.60547 6.93555C2.77799 6.98112 2.9668 7.00391 3.17188 7.00391C3.35417 7.00391 3.5153 6.98275 3.65527 6.94043C3.7985 6.89811 3.91895 6.83952 4.0166 6.76465C4.11426 6.68978 4.18913 6.60026 4.24121 6.49609C4.29329 6.38867 4.31934 6.27148 4.31934 6.14453ZM12.1299 6.51562H9.99609L9.57617 8H8.13086L10.46 0.890625H11.7051L13.9902 8H12.5449L12.1299 6.51562ZM10.333 5.34863H11.8076L11.0801 2.73145L10.333 5.34863ZM18.9932 6.0127L20.3359 0.890625H21.8496L19.6963 8H18.2998L16.1514 0.890625H17.665L18.9932 6.0127ZM29.0205 4.88477H26.1006V6.8916H29.5137V8H24.7236V0.890625H29.499V2.00879H26.1006V3.80078H29.0205V4.88477Z"/>
</svg>
