<svg width="32" height="32" viewBox="0 0 32 32" xmlns="http://www.w3.org/2000/svg">
<g>
<path fill-rule="evenodd" clip-rule="evenodd" d="M26.6811 22.239L20.169 15.755C20.697 14.61 21 13.341 21 12C21 7.038 16.962 3 12 3C7.038 3 3 7.038 3 12C3 16.962 7.038 21 12 21C13.341 21 14.61 20.697 15.755 20.169L22.2671 26.653C22.8521 27.238 23.6201 27.53 24.3881 27.53C25.1561 27.53 25.9241 27.238 26.5091 26.653L26.6811 26.481C27.8511 25.312 27.8511 23.408 26.6811 22.239ZM5 12C5 8.14 8.14 5 12 5C15.86 5 19 8.14 19 12C19 15.86 15.86 19 12 19C8.14 19 5 15.86 5 12ZM25.2427 25.0838L25.0838 25.2427C24.7235 25.6031 24.1377 25.6031 23.7774 25.2427L17.513 18.9784C18.0609 18.5524 18.5524 18.0609 18.9784 17.513L25.2427 23.7774C25.6031 24.1377 25.6031 24.7235 25.2427 25.0838Z"/>
</g>
</svg>
