<svg width="32" height="32" viewBox="0 0 32 32" xmlns="http://www.w3.org/2000/svg">
<g>
<path fill-rule="evenodd" clip-rule="evenodd" d="M24.3748 11.3306H23.0625V8.6634C23.0625 4.98353 20.1225 1.99701 16.4998 1.99701C12.8771 1.99701 9.93712 4.98353 9.93712 8.6634V11.3306H8.62475C7.18089 11.3306 6 12.5311 6 13.997V27.3306C6 28.7965 7.18089 29.997 8.62475 29.997H24.3748C25.8187 29.997 26.9996 28.7965 26.9996 27.3306V13.9962C26.9996 12.5295 25.8187 11.3298 24.3748 11.3298V11.3306ZM12.4312 8.6634C12.4312 6.38411 14.2556 4.5311 16.4998 4.5311C18.744 4.5311 20.5684 6.38411 20.5684 8.6634V11.3306H12.4312V8.6634V8.6634ZM24.3748 27.3306H8.62475V13.9962H24.3748V27.3298V27.3306Z"/>
</g>
</svg>
