<svg width="54" height="9" viewBox="0 0 54 9" xmlns="http://www.w3.org/2000/svg">
<path d="M4.31055 6.14453C4.31055 6.01758 4.28776 5.89876 4.24219 5.78809C4.19987 5.67741 4.125 5.57487 4.01758 5.48047C3.91341 5.38281 3.77507 5.29492 3.60254 5.2168C3.43327 5.13542 3.22168 5.06055 2.96777 4.99219C2.65853 4.90755 2.3623 4.80176 2.0791 4.6748C1.79915 4.54785 1.55176 4.39486 1.33691 4.21582C1.12207 4.03678 0.949544 3.82845 0.819336 3.59082C0.692383 3.35319 0.628906 3.07975 0.628906 2.77051C0.628906 2.47103 0.692383 2.19922 0.819336 1.95508C0.946289 1.71094 1.12207 1.5026 1.34668 1.33008C1.57129 1.15755 1.83659 1.02572 2.14258 0.93457C2.44857 0.840169 2.7806 0.792969 3.13867 0.792969C3.50977 0.792969 3.84831 0.84668 4.1543 0.954102C4.46354 1.06152 4.72884 1.21289 4.9502 1.4082C5.17155 1.60026 5.34408 1.82975 5.46777 2.09668C5.59147 2.36361 5.65332 2.65658 5.65332 2.97559H4.31543C4.30892 2.81608 4.27962 2.6696 4.22754 2.53613C4.17871 2.40267 4.10384 2.28874 4.00293 2.19434C3.90527 2.09668 3.78158 2.02181 3.63184 1.96973C3.48535 1.91439 3.31283 1.88672 3.11426 1.88672C2.93197 1.88672 2.76921 1.90951 2.62598 1.95508C2.486 1.9974 2.36719 2.05924 2.26953 2.14062C2.17188 2.21875 2.09701 2.31315 2.04492 2.42383C1.99609 2.53125 1.97168 2.64844 1.97168 2.77539C1.97168 2.90885 2.00423 3.0293 2.06934 3.13672C2.1377 3.24414 2.23535 3.3418 2.3623 3.42969C2.48926 3.51432 2.64225 3.59245 2.82129 3.66406C3.00358 3.73568 3.20866 3.80241 3.43652 3.86426C3.76204 3.95866 4.06152 4.07422 4.33496 4.21094C4.6084 4.34766 4.84277 4.51042 5.03809 4.69922C5.23665 4.88477 5.38965 5.09798 5.49707 5.33887C5.60775 5.5765 5.66309 5.8418 5.66309 6.13477C5.66309 6.44727 5.59961 6.72559 5.47266 6.96973C5.34896 7.21061 5.17643 7.41569 4.95508 7.58496C4.73372 7.75098 4.47005 7.87793 4.16406 7.96582C3.85807 8.05046 3.52441 8.09277 3.16309 8.09277C2.93848 8.09277 2.71387 8.07161 2.48926 8.0293C2.2679 7.99023 2.05469 7.92839 1.84961 7.84375C1.64779 7.75911 1.45898 7.65332 1.2832 7.52637C1.10742 7.39941 0.954427 7.2513 0.824219 7.08203C0.697266 6.91276 0.596354 6.7207 0.521484 6.50586C0.44987 6.29102 0.414062 6.05339 0.414062 5.79297H1.76172C1.76823 6.00781 1.80566 6.19173 1.87402 6.34473C1.94238 6.49772 2.03678 6.62305 2.15723 6.7207C2.28092 6.81836 2.42741 6.88997 2.59668 6.93555C2.76921 6.98112 2.95801 7.00391 3.16309 7.00391C3.34538 7.00391 3.50651 6.98275 3.64648 6.94043C3.78971 6.89811 3.91016 6.83952 4.00781 6.76465C4.10547 6.68978 4.18034 6.60026 4.23242 6.49609C4.28451 6.38867 4.31055 6.27148 4.31055 6.14453ZM13 4.88477H10.0801V6.8916H13.4932V8H8.70312V0.890625H13.4785V2.00879H10.0801V3.80078H13V4.88477ZM19.043 5.34375H18.0029V8H16.6309V0.890625H19.0137C19.4076 0.890625 19.764 0.937826 20.083 1.03223C20.402 1.12337 20.6738 1.25846 20.8984 1.4375C21.1263 1.61654 21.3005 1.83952 21.4209 2.10645C21.5446 2.37337 21.6064 2.68262 21.6064 3.03418C21.6064 3.28809 21.5755 3.51758 21.5137 3.72266C21.4551 3.92448 21.3688 4.10677 21.2549 4.26953C21.1442 4.42904 21.0091 4.56901 20.8496 4.68945C20.6934 4.8099 20.5176 4.91406 20.3223 5.00195L21.8506 7.93652V8H20.3809L19.043 5.34375ZM18.0029 4.23047H19.0186C19.4059 4.23047 19.7038 4.13281 19.9121 3.9375C20.1237 3.73893 20.2295 3.46875 20.2295 3.12695C20.2295 2.77214 20.127 2.49707 19.9219 2.30176C19.7168 2.10319 19.4141 2.00391 19.0137 2.00391H18.0029V4.23047ZM26.9902 6.0127L28.333 0.890625H29.8467L27.6934 8H26.2969L24.1484 0.890625H25.6621L26.9902 6.0127ZM32.9453 0.890625H37.0566V1.99902H35.6699V6.89648H37.0566V8H32.9453V6.89648H34.2979V1.99902H32.9453V0.890625ZM45.585 5.77344C45.5622 6.13151 45.484 6.45378 45.3506 6.74023C45.2204 7.02669 45.0446 7.27083 44.8232 7.47266C44.6019 7.67448 44.3382 7.83073 44.0322 7.94141C43.7262 8.04883 43.3877 8.10254 43.0166 8.10254C42.5967 8.10254 42.224 8.02604 41.8984 7.87305C41.5729 7.7168 41.2995 7.50033 41.0781 7.22363C40.8568 6.94368 40.6875 6.6084 40.5703 6.21777C40.4531 5.82715 40.3945 5.39746 40.3945 4.92871V3.97168C40.3945 3.49967 40.4564 3.06836 40.5801 2.67773C40.7038 2.28711 40.8796 1.95182 41.1074 1.67188C41.3353 1.39193 41.6104 1.17546 41.9326 1.02246C42.2581 0.866211 42.6227 0.788086 43.0264 0.788086C43.417 0.788086 43.7637 0.843424 44.0664 0.954102C44.3724 1.06478 44.6328 1.22266 44.8477 1.42773C45.0625 1.63281 45.2318 1.88346 45.3555 2.17969C45.4792 2.47591 45.5573 2.80957 45.5898 3.18066H44.2227C44.2096 2.96908 44.1771 2.78353 44.125 2.62402C44.0762 2.46452 44.0029 2.33268 43.9053 2.22852C43.8109 2.12109 43.6904 2.04134 43.5439 1.98926C43.4007 1.93392 43.2282 1.90625 43.0264 1.90625C42.8148 1.90625 42.6309 1.95182 42.4746 2.04297C42.3184 2.13411 42.1882 2.26758 42.084 2.44336C41.9831 2.61914 41.9082 2.83561 41.8594 3.09277C41.8105 3.34668 41.7861 3.63639 41.7861 3.96191V4.92871C41.7861 5.62858 41.8838 6.14616 42.0791 6.48145C42.2777 6.81673 42.5902 6.98438 43.0166 6.98438C43.3747 6.98438 43.6579 6.88997 43.8662 6.70117C44.0745 6.50911 44.1901 6.19987 44.2129 5.77344H45.585ZM53.0293 4.88477H50.1094V6.8916H53.5225V8H48.7324V0.890625H53.5078V2.00879H50.1094V3.80078H53.0293V4.88477Z"/>
</svg>
