<svg width="62" height="9" viewBox="0 0 62 9" xmlns="http://www.w3.org/2000/svg">
<path d="M4.30762 6.14453C4.30762 6.01758 4.28483 5.89876 4.23926 5.78809C4.19694 5.67741 4.12207 5.57487 4.01465 5.48047C3.91048 5.38281 3.77214 5.29492 3.59961 5.2168C3.43034 5.13542 3.21875 5.06055 2.96484 4.99219C2.6556 4.90755 2.35938 4.80176 2.07617 4.6748C1.79622 4.54785 1.54883 4.39486 1.33398 4.21582C1.11914 4.03678 0.946615 3.82845 0.816406 3.59082C0.689453 3.35319 0.625977 3.07975 0.625977 2.77051C0.625977 2.47103 0.689453 2.19922 0.816406 1.95508C0.943359 1.71094 1.11914 1.5026 1.34375 1.33008C1.56836 1.15755 1.83366 1.02572 2.13965 0.93457C2.44564 0.840169 2.77767 0.792969 3.13574 0.792969C3.50684 0.792969 3.84538 0.84668 4.15137 0.954102C4.46061 1.06152 4.72591 1.21289 4.94727 1.4082C5.16862 1.60026 5.34115 1.82975 5.46484 2.09668C5.58854 2.36361 5.65039 2.65658 5.65039 2.97559H4.3125C4.30599 2.81608 4.27669 2.6696 4.22461 2.53613C4.17578 2.40267 4.10091 2.28874 4 2.19434C3.90234 2.09668 3.77865 2.02181 3.62891 1.96973C3.48242 1.91439 3.3099 1.88672 3.11133 1.88672C2.92904 1.88672 2.76628 1.90951 2.62305 1.95508C2.48307 1.9974 2.36426 2.05924 2.2666 2.14062C2.16895 2.21875 2.09408 2.31315 2.04199 2.42383C1.99316 2.53125 1.96875 2.64844 1.96875 2.77539C1.96875 2.90885 2.0013 3.0293 2.06641 3.13672C2.13477 3.24414 2.23242 3.3418 2.35938 3.42969C2.48633 3.51432 2.63932 3.59245 2.81836 3.66406C3.00065 3.73568 3.20573 3.80241 3.43359 3.86426C3.75911 3.95866 4.05859 4.07422 4.33203 4.21094C4.60547 4.34766 4.83984 4.51042 5.03516 4.69922C5.23372 4.88477 5.38672 5.09798 5.49414 5.33887C5.60482 5.5765 5.66016 5.8418 5.66016 6.13477C5.66016 6.44727 5.59668 6.72559 5.46973 6.96973C5.34603 7.21061 5.1735 7.41569 4.95215 7.58496C4.73079 7.75098 4.46712 7.87793 4.16113 7.96582C3.85514 8.05046 3.52148 8.09277 3.16016 8.09277C2.93555 8.09277 2.71094 8.07161 2.48633 8.0293C2.26497 7.99023 2.05176 7.92839 1.84668 7.84375C1.64486 7.75911 1.45605 7.65332 1.28027 7.52637C1.10449 7.39941 0.951497 7.2513 0.821289 7.08203C0.694336 6.91276 0.593424 6.7207 0.518555 6.50586C0.44694 6.29102 0.411133 6.05339 0.411133 5.79297H1.75879C1.7653 6.00781 1.80273 6.19173 1.87109 6.34473C1.93945 6.49772 2.03385 6.62305 2.1543 6.7207C2.27799 6.81836 2.42448 6.88997 2.59375 6.93555C2.76628 6.98112 2.95508 7.00391 3.16016 7.00391C3.34245 7.00391 3.50358 6.98275 3.64355 6.94043C3.78678 6.89811 3.90723 6.83952 4.00488 6.76465C4.10254 6.68978 4.17741 6.60026 4.22949 6.49609C4.28158 6.38867 4.30762 6.27148 4.30762 6.14453ZM12.9971 4.88477H10.0771V6.8916H13.4902V8H8.7002V0.890625H13.4756V2.00879H10.0771V3.80078H12.9971V4.88477ZM21.8525 2.00879H19.6602V8H18.2832V2.00879H16.1201V0.890625H21.8525V2.00879ZM29.8584 2.00879H27.666V8H26.2891V2.00879H24.126V0.890625H29.8584V2.00879ZM32.9424 0.890625H37.0537V1.99902H35.667V6.89648H37.0537V8H32.9424V6.89648H34.2949V1.99902H32.9424V0.890625ZM45.333 8H43.9658L41.9883 3.41504V8H40.6064V0.890625H41.9883L43.9512 5.45605L43.9561 0.890625H45.333V8ZM53.5391 7.16992C53.4512 7.27734 53.3307 7.38639 53.1777 7.49707C53.0247 7.60775 52.8424 7.70866 52.6309 7.7998C52.4225 7.8877 52.1882 7.95931 51.9277 8.01465C51.6673 8.06999 51.3874 8.09766 51.0879 8.09766C50.6842 8.09766 50.3197 8.02604 49.9941 7.88281C49.6686 7.73958 49.3903 7.53288 49.1592 7.2627C48.9281 6.99251 48.749 6.66211 48.6221 6.27148C48.4984 5.8776 48.4365 5.43164 48.4365 4.93359V3.9668C48.4365 3.46875 48.5016 3.02441 48.6318 2.63379C48.7653 2.23991 48.9476 1.90625 49.1787 1.63281C49.4131 1.35938 49.6865 1.15104 49.999 1.00781C50.3148 0.864583 50.6566 0.792969 51.0244 0.792969C51.4248 0.792969 51.7731 0.843424 52.0693 0.944336C52.3688 1.04525 52.6211 1.19173 52.8262 1.38379C53.0312 1.57259 53.1908 1.80371 53.3047 2.07715C53.4219 2.35059 53.4984 2.6582 53.5342 3H52.1963C52.1507 2.63542 52.04 2.36198 51.8643 2.17969C51.6917 1.99414 51.4232 1.90137 51.0586 1.90137C50.8828 1.90137 50.7201 1.94694 50.5703 2.03809C50.4206 2.12598 50.2904 2.25618 50.1797 2.42871C50.069 2.60124 49.9811 2.81608 49.916 3.07324C49.8509 3.32715 49.8184 3.62174 49.8184 3.95703V4.93359C49.8216 5.59766 49.9323 6.1071 50.1504 6.46191C50.3685 6.81348 50.7021 6.99089 51.1514 6.99414C51.2588 6.99414 51.3646 6.986 51.4688 6.96973C51.5729 6.95345 51.6706 6.93066 51.7617 6.90137C51.8529 6.87207 51.9326 6.83952 52.001 6.80371C52.0726 6.76465 52.1263 6.72396 52.1621 6.68164L52.167 5.39258H50.9902V4.36719H53.5342L53.5391 7.16992ZM60.3486 6.14453C60.3486 6.01758 60.3258 5.89876 60.2803 5.78809C60.238 5.67741 60.1631 5.57487 60.0557 5.48047C59.9515 5.38281 59.8132 5.29492 59.6406 5.2168C59.4714 5.13542 59.2598 5.06055 59.0059 4.99219C58.6966 4.90755 58.4004 4.80176 58.1172 4.6748C57.8372 4.54785 57.5898 4.39486 57.375 4.21582C57.1602 4.03678 56.9876 3.82845 56.8574 3.59082C56.7305 3.35319 56.667 3.07975 56.667 2.77051C56.667 2.47103 56.7305 2.19922 56.8574 1.95508C56.9844 1.71094 57.1602 1.5026 57.3848 1.33008C57.6094 1.15755 57.8747 1.02572 58.1807 0.93457C58.4867 0.840169 58.8187 0.792969 59.1768 0.792969C59.5479 0.792969 59.8864 0.84668 60.1924 0.954102C60.5016 1.06152 60.7669 1.21289 60.9883 1.4082C61.2096 1.60026 61.3822 1.82975 61.5059 2.09668C61.6296 2.36361 61.6914 2.65658 61.6914 2.97559H60.3535C60.347 2.81608 60.3177 2.6696 60.2656 2.53613C60.2168 2.40267 60.1419 2.28874 60.041 2.19434C59.9434 2.09668 59.8197 2.02181 59.6699 1.96973C59.5234 1.91439 59.3509 1.88672 59.1523 1.88672C58.9701 1.88672 58.8073 1.90951 58.6641 1.95508C58.5241 1.9974 58.4053 2.05924 58.3076 2.14062C58.21 2.21875 58.1351 2.31315 58.083 2.42383C58.0342 2.53125 58.0098 2.64844 58.0098 2.77539C58.0098 2.90885 58.0423 3.0293 58.1074 3.13672C58.1758 3.24414 58.2734 3.3418 58.4004 3.42969C58.5273 3.51432 58.6803 3.59245 58.8594 3.66406C59.0417 3.73568 59.2467 3.80241 59.4746 3.86426C59.8001 3.95866 60.0996 4.07422 60.373 4.21094C60.6465 4.34766 60.8809 4.51042 61.0762 4.69922C61.2747 4.88477 61.4277 5.09798 61.5352 5.33887C61.6458 5.5765 61.7012 5.8418 61.7012 6.13477C61.7012 6.44727 61.6377 6.72559 61.5107 6.96973C61.387 7.21061 61.2145 7.41569 60.9932 7.58496C60.7718 7.75098 60.5081 7.87793 60.2021 7.96582C59.8962 8.05046 59.5625 8.09277 59.2012 8.09277C58.9766 8.09277 58.752 8.07161 58.5273 8.0293C58.306 7.99023 58.0928 7.92839 57.8877 7.84375C57.6859 7.75911 57.4971 7.65332 57.3213 7.52637C57.1455 7.39941 56.9925 7.2513 56.8623 7.08203C56.7354 6.91276 56.6344 6.7207 56.5596 6.50586C56.488 6.29102 56.4521 6.05339 56.4521 5.79297H57.7998C57.8063 6.00781 57.8438 6.19173 57.9121 6.34473C57.9805 6.49772 58.0749 6.62305 58.1953 6.7207C58.319 6.81836 58.4655 6.88997 58.6348 6.93555C58.8073 6.98112 58.9961 7.00391 59.2012 7.00391C59.3835 7.00391 59.5446 6.98275 59.6846 6.94043C59.8278 6.89811 59.9482 6.83952 60.0459 6.76465C60.1436 6.68978 60.2184 6.60026 60.2705 6.49609C60.3226 6.38867 60.3486 6.27148 60.3486 6.14453Z"/>
</svg>
