<svg width="38" height="9" viewBox="0 0 38 9" xmlns="http://www.w3.org/2000/svg">
<path d="M4.31641 6.14453C4.31641 6.01758 4.29362 5.89876 4.24805 5.78809C4.20573 5.67741 4.13086 5.57487 4.02344 5.48047C3.91927 5.38281 3.78092 5.29492 3.6084 5.2168C3.43913 5.13542 3.22754 5.06055 2.97363 4.99219C2.66439 4.90755 2.36816 4.80176 2.08496 4.6748C1.80501 4.54785 1.55762 4.39486 1.34277 4.21582C1.12793 4.03678 0.955404 3.82845 0.825195 3.59082C0.698242 3.35319 0.634766 3.07975 0.634766 2.77051C0.634766 2.47103 0.698242 2.19922 0.825195 1.95508C0.952148 1.71094 1.12793 1.5026 1.35254 1.33008C1.57715 1.15755 1.84245 1.02572 2.14844 0.93457C2.45443 0.840169 2.78646 0.792969 3.14453 0.792969C3.51562 0.792969 3.85417 0.84668 4.16016 0.954102C4.4694 1.06152 4.7347 1.21289 4.95605 1.4082C5.17741 1.60026 5.34993 1.82975 5.47363 2.09668C5.59733 2.36361 5.65918 2.65658 5.65918 2.97559H4.32129C4.31478 2.81608 4.28548 2.6696 4.2334 2.53613C4.18457 2.40267 4.1097 2.28874 4.00879 2.19434C3.91113 2.09668 3.78743 2.02181 3.6377 1.96973C3.49121 1.91439 3.31868 1.88672 3.12012 1.88672C2.93783 1.88672 2.77507 1.90951 2.63184 1.95508C2.49186 1.9974 2.37305 2.05924 2.27539 2.14062C2.17773 2.21875 2.10286 2.31315 2.05078 2.42383C2.00195 2.53125 1.97754 2.64844 1.97754 2.77539C1.97754 2.90885 2.01009 3.0293 2.0752 3.13672C2.14355 3.24414 2.24121 3.3418 2.36816 3.42969C2.49512 3.51432 2.64811 3.59245 2.82715 3.66406C3.00944 3.73568 3.21452 3.80241 3.44238 3.86426C3.7679 3.95866 4.06738 4.07422 4.34082 4.21094C4.61426 4.34766 4.84863 4.51042 5.04395 4.69922C5.24251 4.88477 5.39551 5.09798 5.50293 5.33887C5.61361 5.5765 5.66895 5.8418 5.66895 6.13477C5.66895 6.44727 5.60547 6.72559 5.47852 6.96973C5.35482 7.21061 5.18229 7.41569 4.96094 7.58496C4.73958 7.75098 4.47591 7.87793 4.16992 7.96582C3.86393 8.05046 3.53027 8.09277 3.16895 8.09277C2.94434 8.09277 2.71973 8.07161 2.49512 8.0293C2.27376 7.99023 2.06055 7.92839 1.85547 7.84375C1.65365 7.75911 1.46484 7.65332 1.28906 7.52637C1.11328 7.39941 0.960286 7.2513 0.830078 7.08203C0.703125 6.91276 0.602214 6.7207 0.527344 6.50586C0.455729 6.29102 0.419922 6.05339 0.419922 5.79297H1.76758C1.77409 6.00781 1.81152 6.19173 1.87988 6.34473C1.94824 6.49772 2.04264 6.62305 2.16309 6.7207C2.28678 6.81836 2.43327 6.88997 2.60254 6.93555C2.77507 6.98112 2.96387 7.00391 3.16895 7.00391C3.35124 7.00391 3.51237 6.98275 3.65234 6.94043C3.79557 6.89811 3.91602 6.83952 4.01367 6.76465C4.11133 6.68978 4.1862 6.60026 4.23828 6.49609C4.29036 6.38867 4.31641 6.27148 4.31641 6.14453ZM13.3232 8H11.9658V4.91895H9.9541V8H8.5918V0.890625H9.9541V3.80566H11.9658V0.890625H13.3232V8ZM20.1328 6.51562H17.999L17.5791 8H16.1338L18.4629 0.890625H19.708L21.9932 8H20.5479L20.1328 6.51562ZM18.3359 5.34863H19.8105L19.083 2.73145L18.3359 5.34863ZM27.0547 5.34375H26.0146V8H24.6426V0.890625H27.0254C27.4193 0.890625 27.7757 0.937826 28.0947 1.03223C28.4137 1.12337 28.6855 1.25846 28.9102 1.4375C29.138 1.61654 29.3122 1.83952 29.4326 2.10645C29.5563 2.37337 29.6182 2.68262 29.6182 3.03418C29.6182 3.28809 29.5872 3.51758 29.5254 3.72266C29.4668 3.92448 29.3805 4.10677 29.2666 4.26953C29.1559 4.42904 29.0208 4.56901 28.8613 4.68945C28.7051 4.8099 28.5293 4.91406 28.334 5.00195L29.8623 7.93652V8H28.3926L27.0547 5.34375ZM26.0146 4.23047H27.0303C27.4176 4.23047 27.7155 4.13281 27.9238 3.9375C28.1354 3.73893 28.2412 3.46875 28.2412 3.12695C28.2412 2.77214 28.1387 2.49707 27.9336 2.30176C27.7285 2.10319 27.4258 2.00391 27.0254 2.00391H26.0146V4.23047ZM37.0234 4.88477H34.1035V6.8916H37.5166V8H32.7266V0.890625H37.502V2.00879H34.1035V3.80078H37.0234V4.88477Z"/>
</svg>
