<svg width="78" height="9" viewBox="0 0 78 9" xmlns="http://www.w3.org/2000/svg">
<path d="M4.30176 6.14453C4.30176 6.01758 4.27897 5.89876 4.2334 5.78809C4.19108 5.67741 4.11621 5.57487 4.00879 5.48047C3.90462 5.38281 3.76628 5.29492 3.59375 5.2168C3.42448 5.13542 3.21289 5.06055 2.95898 4.99219C2.64974 4.90755 2.35352 4.80176 2.07031 4.6748C1.79036 4.54785 1.54297 4.39486 1.32812 4.21582C1.11328 4.03678 0.940755 3.82845 0.810547 3.59082C0.683594 3.35319 0.620117 3.07975 0.620117 2.77051C0.620117 2.47103 0.683594 2.19922 0.810547 1.95508C0.9375 1.71094 1.11328 1.5026 1.33789 1.33008C1.5625 1.15755 1.8278 1.02572 2.13379 0.93457C2.43978 0.840169 2.77181 0.792969 3.12988 0.792969C3.50098 0.792969 3.83952 0.84668 4.14551 0.954102C4.45475 1.06152 4.72005 1.21289 4.94141 1.4082C5.16276 1.60026 5.33529 1.82975 5.45898 2.09668C5.58268 2.36361 5.64453 2.65658 5.64453 2.97559H4.30664C4.30013 2.81608 4.27083 2.6696 4.21875 2.53613C4.16992 2.40267 4.09505 2.28874 3.99414 2.19434C3.89648 2.09668 3.77279 2.02181 3.62305 1.96973C3.47656 1.91439 3.30404 1.88672 3.10547 1.88672C2.92318 1.88672 2.76042 1.90951 2.61719 1.95508C2.47721 1.9974 2.3584 2.05924 2.26074 2.14062C2.16309 2.21875 2.08822 2.31315 2.03613 2.42383C1.9873 2.53125 1.96289 2.64844 1.96289 2.77539C1.96289 2.90885 1.99544 3.0293 2.06055 3.13672C2.12891 3.24414 2.22656 3.3418 2.35352 3.42969C2.48047 3.51432 2.63346 3.59245 2.8125 3.66406C2.99479 3.73568 3.19987 3.80241 3.42773 3.86426C3.75326 3.95866 4.05273 4.07422 4.32617 4.21094C4.59961 4.34766 4.83398 4.51042 5.0293 4.69922C5.22786 4.88477 5.38086 5.09798 5.48828 5.33887C5.59896 5.5765 5.6543 5.8418 5.6543 6.13477C5.6543 6.44727 5.59082 6.72559 5.46387 6.96973C5.34017 7.21061 5.16764 7.41569 4.94629 7.58496C4.72493 7.75098 4.46126 7.87793 4.15527 7.96582C3.84928 8.05046 3.51562 8.09277 3.1543 8.09277C2.92969 8.09277 2.70508 8.07161 2.48047 8.0293C2.25911 7.99023 2.0459 7.92839 1.84082 7.84375C1.639 7.75911 1.4502 7.65332 1.27441 7.52637C1.09863 7.39941 0.945638 7.2513 0.81543 7.08203C0.688477 6.91276 0.587565 6.7207 0.512695 6.50586C0.441081 6.29102 0.405273 6.05339 0.405273 5.79297H1.75293C1.75944 6.00781 1.79688 6.19173 1.86523 6.34473C1.93359 6.49772 2.02799 6.62305 2.14844 6.7207C2.27214 6.81836 2.41862 6.88997 2.58789 6.93555C2.76042 6.98112 2.94922 7.00391 3.1543 7.00391C3.33659 7.00391 3.49772 6.98275 3.6377 6.94043C3.78092 6.89811 3.90137 6.83952 3.99902 6.76465C4.09668 6.68978 4.17155 6.60026 4.22363 6.49609C4.27572 6.38867 4.30176 6.27148 4.30176 6.14453ZM10.3008 0.890625L10.9746 3.56152L11.7412 0.890625H13.4453V8H12.1855V5.89551L12.2441 2.57031L11.3115 5.65625H10.6328L9.79785 2.70215L9.85645 5.89551V8H8.59668V0.890625H10.3008ZM20.1182 6.51562H17.9844L17.5645 8H16.1191L18.4482 0.890625H19.6934L21.9785 8H20.5332L20.1182 6.51562ZM18.3213 5.34863H19.7959L19.0684 2.73145L18.3213 5.34863ZM27.04 5.34375H26V8H24.6279V0.890625H27.0107C27.4046 0.890625 27.7611 0.937826 28.0801 1.03223C28.3991 1.12337 28.6709 1.25846 28.8955 1.4375C29.1234 1.61654 29.2975 1.83952 29.418 2.10645C29.5417 2.37337 29.6035 2.68262 29.6035 3.03418C29.6035 3.28809 29.5726 3.51758 29.5107 3.72266C29.4521 3.92448 29.3659 4.10677 29.252 4.26953C29.1413 4.42904 29.0062 4.56901 28.8467 4.68945C28.6904 4.8099 28.5146 4.91406 28.3193 5.00195L29.8477 7.93652V8H28.3779L27.04 5.34375ZM26 4.23047H27.0156C27.403 4.23047 27.7008 4.13281 27.9092 3.9375C28.1208 3.73893 28.2266 3.46875 28.2266 3.12695C28.2266 2.77214 28.124 2.49707 27.9189 2.30176C27.7139 2.10319 27.4111 2.00391 27.0107 2.00391H26V4.23047ZM37.8584 2.00879H35.666V8H34.2891V2.00879H32.126V0.890625H37.8584V2.00879ZM42.0996 5.39258V8H40.7275V0.890625H43.1592C43.5465 0.890625 43.8965 0.947591 44.209 1.06152C44.5215 1.1722 44.7868 1.32845 45.0049 1.53027C45.2262 1.72884 45.3955 1.9681 45.5127 2.24805C45.6331 2.52799 45.6934 2.83887 45.6934 3.18066C45.6934 3.49967 45.6331 3.79427 45.5127 4.06445C45.3955 4.33464 45.2262 4.56901 45.0049 4.76758C44.7868 4.96289 44.5215 5.11589 44.209 5.22656C43.8965 5.33724 43.5465 5.39258 43.1592 5.39258H42.0996ZM42.0996 4.2793H43.1592C43.3545 4.2793 43.5238 4.25 43.667 4.19141C43.8102 4.13281 43.929 4.05306 44.0234 3.95215C44.1211 3.85124 44.1927 3.73568 44.2383 3.60547C44.2871 3.47201 44.3115 3.33366 44.3115 3.19043C44.3115 3.02441 44.2871 2.86979 44.2383 2.72656C44.1927 2.58333 44.1211 2.45801 44.0234 2.35059C43.929 2.24316 43.8102 2.15853 43.667 2.09668C43.5238 2.03483 43.3545 2.00391 43.1592 2.00391H42.0996V4.2793ZM53.3379 8H51.9805V4.91895H49.9688V8H48.6064V0.890625H49.9688V3.80566H51.9805V0.890625H53.3379V8ZM61.6123 4.96777C61.6123 5.4235 61.5521 5.84342 61.4316 6.22754C61.3112 6.61165 61.137 6.94206 60.9092 7.21875C60.6813 7.49544 60.403 7.71191 60.0742 7.86816C59.7487 8.02116 59.3809 8.09766 58.9707 8.09766C58.5605 8.09766 58.196 8.02116 57.877 7.86816C57.5579 7.71191 57.2894 7.49544 57.0713 7.21875C56.8532 6.9388 56.6872 6.6084 56.5732 6.22754C56.4593 5.84342 56.4023 5.4235 56.4023 4.96777V3.93262C56.4023 3.47689 56.4593 3.05697 56.5732 2.67285C56.6872 2.28874 56.8532 1.95833 57.0713 1.68164C57.2894 1.40169 57.5563 1.18359 57.8721 1.02734C58.1911 0.871094 58.5557 0.792969 58.9658 0.792969C59.3792 0.792969 59.7487 0.871094 60.0742 1.02734C60.403 1.18359 60.6813 1.40169 60.9092 1.68164C61.137 1.95833 61.3112 2.28874 61.4316 2.67285C61.5521 3.05697 61.6123 3.47689 61.6123 3.93262V4.96777ZM60.2207 3.92285C60.2207 3.63314 60.1963 3.36621 60.1475 3.12207C60.1019 2.87793 60.0286 2.66797 59.9277 2.49219C59.8268 2.31641 59.6966 2.17969 59.5371 2.08203C59.3809 1.98112 59.1904 1.93066 58.9658 1.93066C58.7445 1.93066 58.5589 1.98112 58.4092 2.08203C58.2594 2.17969 58.139 2.31641 58.0479 2.49219C57.9567 2.66797 57.8916 2.87793 57.8525 3.12207C57.8135 3.36621 57.7939 3.63314 57.7939 3.92285V4.96777C57.7939 5.25423 57.8135 5.51953 57.8525 5.76367C57.8916 6.00781 57.9567 6.2194 58.0479 6.39844C58.139 6.57747 58.2594 6.71745 58.4092 6.81836C58.5589 6.91927 58.7461 6.96973 58.9707 6.96973C59.1921 6.96973 59.3809 6.91927 59.5371 6.81836C59.6966 6.71745 59.8252 6.5791 59.9229 6.40332C60.0238 6.22428 60.0986 6.0127 60.1475 5.76855C60.1963 5.52441 60.2207 5.25749 60.2207 4.96777V3.92285ZM69.3447 8H67.9775L66 3.41504V8H64.6182V0.890625H66L67.9629 5.45605L67.9678 0.890625H69.3447V8ZM77.0381 4.88477H74.1182V6.8916H77.5312V8H72.7412V0.890625H77.5166V2.00879H74.1182V3.80078H77.0381V4.88477Z"/>
</svg>
