<svg width="32" height="32" viewBox="0 0 32 32" xmlns="http://www.w3.org/2000/svg">
<g>
<path id="Combined Shape" fill-rule="evenodd" clip-rule="evenodd" d="M16 25.9999C13.9766 25.9996 12.1529 24.7799 11.38 22.9099C10.941 21.8087 10.8986 20.589 11.26 19.4599C11.3646 19.1568 11.5239 18.8755 11.73 18.6299L20.58 7.43994L22.35 8.17994L20.7 22.2399C20.6475 22.7694 20.4729 23.2794 20.19 23.7299C19.2669 25.1463 17.6906 26.0003 16 25.9999ZM13.37 19.7399C13.2433 19.8916 13.1511 20.069 13.1 20.2599C12.9328 20.887 12.9786 21.5517 13.23 22.1499C13.5344 22.883 14.117 23.4655 14.85 23.7699C16.2135 24.3377 17.7873 23.8287 18.56 22.5699C18.6769 22.372 18.7454 22.1493 18.76 21.9199L20 11.4299L13.37 19.7399ZM30 21.9999H28C28.0002 18.4922 26.4657 15.16 23.8 12.8799L23.48 12.6199L24.66 10.9999C24.82 11.1199 24.95 11.2299 25.1 11.3599C28.2099 14.02 30.0003 17.9076 30 21.9999ZM2 21.9999H4C4 15.3725 9.37258 9.99994 16 9.99994V7.99994C8.26801 7.99994 2 14.268 2 21.9999Z"/>
</g>
</svg>
