<svg width="54" height="9" viewBox="0 0 54 9" xmlns="http://www.w3.org/2000/svg">
<path d="M4.31055 6.14453C4.31055 6.01758 4.28776 5.89876 4.24219 5.78809C4.19987 5.67741 4.125 5.57487 4.01758 5.48047C3.91341 5.38281 3.77507 5.29492 3.60254 5.2168C3.43327 5.13542 3.22168 5.06055 2.96777 4.99219C2.65853 4.90755 2.3623 4.80176 2.0791 4.6748C1.79915 4.54785 1.55176 4.39486 1.33691 4.21582C1.12207 4.03678 0.949544 3.82845 0.819336 3.59082C0.692383 3.35319 0.628906 3.07975 0.628906 2.77051C0.628906 2.47103 0.692383 2.19922 0.819336 1.95508C0.946289 1.71094 1.12207 1.5026 1.34668 1.33008C1.57129 1.15755 1.83659 1.02572 2.14258 0.93457C2.44857 0.840169 2.7806 0.792969 3.13867 0.792969C3.50977 0.792969 3.84831 0.84668 4.1543 0.954102C4.46354 1.06152 4.72884 1.21289 4.9502 1.4082C5.17155 1.60026 5.34408 1.82975 5.46777 2.09668C5.59147 2.36361 5.65332 2.65658 5.65332 2.97559H4.31543C4.30892 2.81608 4.27962 2.6696 4.22754 2.53613C4.17871 2.40267 4.10384 2.28874 4.00293 2.19434C3.90527 2.09668 3.78158 2.02181 3.63184 1.96973C3.48535 1.91439 3.31283 1.88672 3.11426 1.88672C2.93197 1.88672 2.76921 1.90951 2.62598 1.95508C2.486 1.9974 2.36719 2.05924 2.26953 2.14062C2.17188 2.21875 2.09701 2.31315 2.04492 2.42383C1.99609 2.53125 1.97168 2.64844 1.97168 2.77539C1.97168 2.90885 2.00423 3.0293 2.06934 3.13672C2.1377 3.24414 2.23535 3.3418 2.3623 3.42969C2.48926 3.51432 2.64225 3.59245 2.82129 3.66406C3.00358 3.73568 3.20866 3.80241 3.43652 3.86426C3.76204 3.95866 4.06152 4.07422 4.33496 4.21094C4.6084 4.34766 4.84277 4.51042 5.03809 4.69922C5.23665 4.88477 5.38965 5.09798 5.49707 5.33887C5.60775 5.5765 5.66309 5.8418 5.66309 6.13477C5.66309 6.44727 5.59961 6.72559 5.47266 6.96973C5.34896 7.21061 5.17643 7.41569 4.95508 7.58496C4.73372 7.75098 4.47005 7.87793 4.16406 7.96582C3.85807 8.05046 3.52441 8.09277 3.16309 8.09277C2.93848 8.09277 2.71387 8.07161 2.48926 8.0293C2.2679 7.99023 2.05469 7.92839 1.84961 7.84375C1.64779 7.75911 1.45898 7.65332 1.2832 7.52637C1.10742 7.39941 0.954427 7.2513 0.824219 7.08203C0.697266 6.91276 0.596354 6.7207 0.521484 6.50586C0.44987 6.29102 0.414062 6.05339 0.414062 5.79297H1.76172C1.76823 6.00781 1.80566 6.19173 1.87402 6.34473C1.94238 6.49772 2.03678 6.62305 2.15723 6.7207C2.28092 6.81836 2.42741 6.88997 2.59668 6.93555C2.76921 6.98112 2.95801 7.00391 3.16309 7.00391C3.34538 7.00391 3.50651 6.98275 3.64648 6.94043C3.78971 6.89811 3.91016 6.83952 4.00781 6.76465C4.10547 6.68978 4.18034 6.60026 4.23242 6.49609C4.28451 6.38867 4.31055 6.27148 4.31055 6.14453ZM10.085 5.39258V8H8.71289V0.890625H11.1445C11.5319 0.890625 11.8818 0.947591 12.1943 1.06152C12.5068 1.1722 12.7721 1.32845 12.9902 1.53027C13.2116 1.72884 13.3809 1.9681 13.498 2.24805C13.6185 2.52799 13.6787 2.83887 13.6787 3.18066C13.6787 3.49967 13.6185 3.79427 13.498 4.06445C13.3809 4.33464 13.2116 4.56901 12.9902 4.76758C12.7721 4.96289 12.5068 5.11589 12.1943 5.22656C11.8818 5.33724 11.5319 5.39258 11.1445 5.39258H10.085ZM10.085 4.2793H11.1445C11.3398 4.2793 11.5091 4.25 11.6523 4.19141C11.7956 4.13281 11.9144 4.05306 12.0088 3.95215C12.1064 3.85124 12.1781 3.73568 12.2236 3.60547C12.2725 3.47201 12.2969 3.33366 12.2969 3.19043C12.2969 3.02441 12.2725 2.86979 12.2236 2.72656C12.1781 2.58333 12.1064 2.45801 12.0088 2.35059C11.9144 2.24316 11.7956 2.15853 11.6523 2.09668C11.5091 2.03483 11.3398 2.00391 11.1445 2.00391H10.085V4.2793ZM16.9336 0.890625H21.0449V1.99902H19.6582V6.89648H21.0449V8H16.9336V6.89648H18.2861V1.99902H16.9336V0.890625ZM29.3242 8H27.957L25.9795 3.41504V8H24.5977V0.890625H25.9795L27.9424 5.45605L27.9473 0.890625H29.3242V8ZM37.3301 8H35.9629L33.9854 3.41504V8H32.6035V0.890625H33.9854L35.9482 5.45605L35.9531 0.890625H37.3301V8ZM45.0234 4.88477H42.1035V6.8916H45.5166V8H40.7266V0.890625H45.502V2.00879H42.1035V3.80078H45.0234V4.88477ZM51.0664 5.34375H50.0264V8H48.6543V0.890625H51.0371C51.431 0.890625 51.7874 0.937826 52.1064 1.03223C52.4255 1.12337 52.6973 1.25846 52.9219 1.4375C53.1497 1.61654 53.3239 1.83952 53.4443 2.10645C53.568 2.37337 53.6299 2.68262 53.6299 3.03418C53.6299 3.28809 53.599 3.51758 53.5371 3.72266C53.4785 3.92448 53.3923 4.10677 53.2783 4.26953C53.1676 4.42904 53.0326 4.56901 52.873 4.68945C52.7168 4.8099 52.541 4.91406 52.3457 5.00195L53.874 7.93652V8H52.4043L51.0664 5.34375ZM50.0264 4.23047H51.042C51.4294 4.23047 51.7272 4.13281 51.9355 3.9375C52.1471 3.73893 52.2529 3.46875 52.2529 3.12695C52.2529 2.77214 52.1504 2.49707 51.9453 2.30176C51.7402 2.10319 51.4375 2.00391 51.0371 2.00391H50.0264V4.23047Z"/>
</svg>
