<svg width="78" height="9" viewBox="0 0 78 9" xmlns="http://www.w3.org/2000/svg">
<path d="M4.30176 6.14453C4.30176 6.27148 4.27572 6.38867 4.22363 6.49609C4.17155 6.60026 4.09668 6.68978 3.99902 6.76465C3.90137 6.83952 3.78092 6.89811 3.6377 6.94043C3.49772 6.98275 3.33659 7.00391 3.1543 7.00391C2.94922 7.00391 2.76042 6.98112 2.58789 6.93555C2.41862 6.88997 2.27376 6.81836 2.15332 6.7207C2.02962 6.62305 1.93359 6.49772 1.86523 6.34473C1.79688 6.19173 1.75944 6.00781 1.75293 5.79297H0.405273C0.405273 6.16081 0.47526 6.48145 0.615234 6.75488C0.758464 7.02832 0.952148 7.26595 1.19629 7.46777C1.45345 7.67285 1.75456 7.8291 2.09961 7.93652C2.44792 8.04069 2.79948 8.09277 3.1543 8.09277C3.51562 8.09277 3.84928 8.05046 4.15527 7.96582C4.46126 7.87793 4.72493 7.74935 4.94629 7.58008C5.16764 7.41406 5.34017 7.21061 5.46387 6.96973C5.59082 6.72559 5.6543 6.44727 5.6543 6.13477C5.6543 5.77344 5.57129 5.45443 5.40527 5.17773C5.23926 4.90104 5.01628 4.65853 4.73633 4.4502C4.55078 4.32324 4.34733 4.21094 4.12598 4.11328C3.90462 4.01562 3.67188 3.93262 3.42773 3.86426C3.19987 3.80241 2.99479 3.73568 2.8125 3.66406C2.63346 3.59245 2.48047 3.5127 2.35352 3.4248C2.22656 3.34017 2.12891 3.24414 2.06055 3.13672C1.99544 3.0293 1.96289 2.90885 1.96289 2.77539C1.96289 2.64844 1.9873 2.53125 2.03613 2.42383C2.08822 2.31315 2.16309 2.21712 2.26074 2.13574C2.3584 2.05762 2.47721 1.9974 2.61719 1.95508C2.76042 1.90951 2.92318 1.88672 3.10547 1.88672C3.30404 1.88672 3.47656 1.91439 3.62305 1.96973C3.77279 2.02181 3.89811 2.09505 3.99902 2.18945C4.09668 2.28711 4.16992 2.40267 4.21875 2.53613C4.27083 2.6696 4.30013 2.81608 4.30664 2.97559H5.64453C5.64453 2.65658 5.58268 2.36361 5.45898 2.09668C5.33529 1.82975 5.16276 1.59863 4.94141 1.40332C4.72005 1.21126 4.45475 1.06152 4.14551 0.954102C3.83952 0.84668 3.50098 0.792969 3.12988 0.792969C2.77181 0.792969 2.43978 0.840169 2.13379 0.93457C1.8278 1.02572 1.5625 1.15755 1.33789 1.33008C1.11328 1.5026 0.9375 1.71094 0.810547 1.95508C0.683594 2.19922 0.620117 2.47103 0.620117 2.77051C0.620117 3.03092 0.667318 3.27181 0.761719 3.49316C0.859375 3.71452 1.0026 3.91634 1.19141 4.09863C1.38021 4.28092 1.62272 4.44857 1.91895 4.60156C2.21842 4.75456 2.5651 4.88477 2.95898 4.99219C3.21289 5.06055 3.42448 5.13542 3.59375 5.2168C3.76628 5.29492 3.90625 5.38118 4.01367 5.47559C4.11784 5.57324 4.19108 5.67741 4.2334 5.78809C4.27897 5.89876 4.30176 6.01758 4.30176 6.14453ZM13.8408 2.00879V0.890625H8.1084V2.00879H10.2715V8H11.6484V2.00879H13.8408ZM20.1182 6.51562L20.5332 8H21.9785L19.6934 0.890625H18.4482L16.1191 8H17.5645L17.9844 6.51562H20.1182ZM18.3213 5.34863L19.0684 2.73145L19.7959 5.34863H18.3213ZM27.04 5.34375L28.3779 8H29.8477V7.93652L28.3193 5.00195C28.5146 4.91406 28.6904 4.8099 28.8467 4.68945C29.0062 4.56901 29.1429 4.42741 29.2568 4.26465C29.3675 4.10514 29.4521 3.92448 29.5107 3.72266C29.5726 3.51758 29.6035 3.28809 29.6035 3.03418C29.6035 2.68262 29.5417 2.37337 29.418 2.10645C29.2975 1.83952 29.125 1.61654 28.9004 1.4375C28.6725 1.25846 28.3991 1.12337 28.0801 1.03223C27.7611 0.937826 27.4046 0.890625 27.0107 0.890625H24.6279V8H26V5.34375H27.04ZM26 4.23047V2.00391H27.0107C27.1995 2.00391 27.3672 2.02669 27.5137 2.07227C27.6602 2.11784 27.7839 2.18294 27.8848 2.26758C27.9987 2.36198 28.0833 2.48242 28.1387 2.62891C28.1973 2.77214 28.2266 2.93815 28.2266 3.12695C28.2266 3.2832 28.2038 3.4248 28.1582 3.55176C28.1159 3.67871 28.0524 3.78776 27.9678 3.87891C27.8669 3.99284 27.735 4.08073 27.5723 4.14258C27.4128 4.20117 27.2272 4.23047 27.0156 4.23047H26ZM37.4385 5.41211V4.31348H33.3711V5.41211H37.4385ZM43.0518 5.34375L44.3896 8H45.8594V7.93652L44.3311 5.00195C44.5264 4.91406 44.7021 4.8099 44.8584 4.68945C45.0179 4.56901 45.1546 4.42741 45.2686 4.26465C45.3792 4.10514 45.4639 3.92448 45.5225 3.72266C45.5843 3.51758 45.6152 3.28809 45.6152 3.03418C45.6152 2.68262 45.5534 2.37337 45.4297 2.10645C45.3092 1.83952 45.1367 1.61654 44.9121 1.4375C44.6842 1.25846 44.4108 1.12337 44.0918 1.03223C43.7728 0.937826 43.4163 0.890625 43.0225 0.890625H40.6396V8H42.0117V5.34375H43.0518ZM42.0117 4.23047V2.00391H43.0225C43.2113 2.00391 43.3789 2.02669 43.5254 2.07227C43.6719 2.11784 43.7956 2.18294 43.8965 2.26758C44.0104 2.36198 44.0951 2.48242 44.1504 2.62891C44.209 2.77214 44.2383 2.93815 44.2383 3.12695C44.2383 3.2832 44.2155 3.4248 44.1699 3.55176C44.1276 3.67871 44.0641 3.78776 43.9795 3.87891C43.8786 3.99284 43.7467 4.08073 43.584 4.14258C43.4245 4.20117 43.2389 4.23047 43.0273 4.23047H42.0117ZM53.6064 4.96777V3.93262C53.6064 3.61035 53.5755 3.30599 53.5137 3.01953C53.4551 2.73307 53.3688 2.4694 53.2549 2.22852C53.1507 2.01693 53.0254 1.82324 52.8789 1.64746C52.7357 1.47168 52.568 1.32194 52.376 1.19824C52.1839 1.06803 51.9674 0.96875 51.7266 0.900391C51.4889 0.828776 51.2334 0.792969 50.96 0.792969C50.6898 0.792969 50.4391 0.827148 50.208 0.895508C49.9769 0.963867 49.7686 1.06152 49.583 1.18848C49.3942 1.31868 49.2266 1.47493 49.0801 1.65723C48.9368 1.83952 48.8148 2.04297 48.7139 2.26758C48.6097 2.50521 48.5299 2.764 48.4746 3.04395C48.4225 3.32389 48.3965 3.62012 48.3965 3.93262V4.96777C48.3965 5.26074 48.4193 5.53906 48.4648 5.80273C48.5137 6.06641 48.5837 6.31055 48.6748 6.53516C48.7757 6.7793 48.901 6.99902 49.0508 7.19434C49.2005 7.38639 49.3698 7.55078 49.5586 7.6875C49.7507 7.81771 49.9639 7.91862 50.1982 7.99023C50.4326 8.06185 50.6882 8.09766 50.9648 8.09766C51.2253 8.09766 51.4678 8.0651 51.6924 8C51.9202 7.93815 52.1286 7.85026 52.3174 7.73633C52.5257 7.60612 52.7113 7.44336 52.874 7.24805C53.0368 7.05273 53.1735 6.83789 53.2842 6.60352C53.3883 6.36914 53.4681 6.11523 53.5234 5.8418C53.5788 5.5651 53.6064 5.27376 53.6064 4.96777ZM52.2148 3.92285V4.96777C52.2148 5.14355 52.2051 5.31283 52.1855 5.47559C52.1693 5.63835 52.1432 5.78809 52.1074 5.9248C52.0618 6.10059 52 6.25846 51.9219 6.39844C51.847 6.53516 51.7542 6.64909 51.6436 6.74023C51.5557 6.8151 51.4548 6.87207 51.3408 6.91113C51.2269 6.9502 51.1016 6.96973 50.9648 6.96973C50.8216 6.96973 50.693 6.94857 50.5791 6.90625C50.4684 6.86393 50.3691 6.80371 50.2812 6.72559C50.1868 6.6377 50.1038 6.52376 50.0322 6.38379C49.9639 6.24056 49.9118 6.08268 49.876 5.91016C49.8434 5.77344 49.8206 5.62533 49.8076 5.46582C49.7946 5.30632 49.7881 5.1403 49.7881 4.96777V3.92285C49.7881 3.74056 49.7946 3.56641 49.8076 3.40039C49.8239 3.23438 49.8483 3.08138 49.8809 2.94141C49.9232 2.75911 49.9818 2.59961 50.0566 2.46289C50.1348 2.32617 50.2292 2.21224 50.3398 2.12109C50.4212 2.05924 50.5124 2.01204 50.6133 1.97949C50.7174 1.94694 50.833 1.93066 50.96 1.93066C51.0934 1.93066 51.2139 1.94857 51.3213 1.98438C51.432 2.02018 51.5312 2.07064 51.6191 2.13574C51.7298 2.22363 51.8258 2.33757 51.9072 2.47754C51.9886 2.61426 52.0537 2.77051 52.1025 2.94629C52.1416 3.08626 52.1693 3.23926 52.1855 3.40527C52.2051 3.56803 52.2148 3.74056 52.2148 3.92285ZM61.3877 0.890625H60.0254L60.0205 5.60254C60.0173 5.83366 59.9928 6.03711 59.9473 6.21289C59.9017 6.38867 59.8333 6.53516 59.7422 6.65234C59.6576 6.76628 59.5501 6.85254 59.4199 6.91113C59.293 6.96647 59.1465 6.99414 58.9805 6.99414C58.8275 6.99414 58.6924 6.9681 58.5752 6.91602C58.458 6.86068 58.3587 6.7793 58.2773 6.67188C58.1895 6.55469 58.1227 6.40658 58.0771 6.22754C58.0348 6.0485 58.012 5.84017 58.0088 5.60254L58.0039 0.890625H56.6318L56.627 5.60254C56.627 5.99967 56.6823 6.35449 56.793 6.66699C56.9069 6.97624 57.0664 7.23665 57.2715 7.44824C57.4766 7.65983 57.7223 7.82096 58.0088 7.93164C58.2985 8.04232 58.6224 8.09766 58.9805 8.09766C59.3613 8.09766 59.6999 8.04232 59.9961 7.93164C60.2956 7.82096 60.5495 7.6582 60.7578 7.44336C60.9629 7.23177 61.1191 6.97135 61.2266 6.66211C61.3372 6.35286 61.3926 5.99967 61.3926 5.60254L61.3877 0.890625ZM69.3447 8V0.890625H67.9678L67.9629 5.45605L66 0.890625H64.6182V8H66V3.41504L67.9775 8H69.3447ZM72.6338 8H74.543C74.8587 8 75.1549 7.96094 75.4316 7.88281C75.7116 7.80469 75.9671 7.69238 76.1982 7.5459C76.3968 7.4222 76.5791 7.26921 76.7451 7.08691C76.9111 6.90137 77.056 6.69954 77.1797 6.48145C77.3099 6.2373 77.4108 5.96875 77.4824 5.67578C77.554 5.38281 77.5898 5.07194 77.5898 4.74316V4.15723C77.5898 3.81543 77.5508 3.49316 77.4727 3.19043C77.3978 2.8877 77.2904 2.611 77.1504 2.36035C77.0299 2.15527 76.8883 1.96647 76.7256 1.79395C76.5661 1.61816 76.3838 1.47005 76.1787 1.34961C75.9443 1.20312 75.6839 1.09082 75.3975 1.0127C75.111 0.931315 74.8034 0.890625 74.4746 0.890625H72.6338V8ZM74.0156 2.00391H74.4746C74.6406 2.00391 74.7936 2.02344 74.9336 2.0625C75.0768 2.09831 75.207 2.15039 75.3242 2.21875C75.4772 2.3099 75.6107 2.42708 75.7246 2.57031C75.8418 2.71354 75.9362 2.8763 76.0078 3.05859C76.0664 3.21159 76.1104 3.38086 76.1396 3.56641C76.1722 3.7487 76.1885 3.94238 76.1885 4.14746V4.74316C76.1885 4.96126 76.1722 5.16471 76.1396 5.35352C76.1104 5.53906 76.0664 5.70833 76.0078 5.86133C75.9362 6.03711 75.8499 6.19173 75.749 6.3252C75.6514 6.4554 75.5407 6.56283 75.417 6.64746C75.2965 6.72884 75.1631 6.79069 75.0166 6.83301C74.8701 6.87533 74.7122 6.89648 74.543 6.89648H74.0156V2.00391Z"/>
</svg>
