<svg width="32" height="32" viewBox="0 0 32 32" xmlns="http://www.w3.org/2000/svg">
<g>
<path fill-rule="evenodd" clip-rule="evenodd" d="M26 5H23V3H21V5H17V3H15V5H11V3H9V5H6C4.34315 5 3 6.34315 3 8V29H29V8C29 6.34315 27.6569 5 26 5ZM27 27H5V13H27V27ZM5 11H27V8C27 7.44772 26.5523 7 26 7H23V9H21V7H17V9H15V7H11V9H9V7H6C5.44772 7 5 7.44772 5 8V11Z"/>
<path fill-rule="evenodd" clip-rule="evenodd" d="M22.5 21.76C22.5 23.693 20.933 25.26 19 25.26V25.25C17.067 25.25 15.5 23.683 15.5 21.75V18.22C15.5 16.287 17.067 14.72 19 14.72C20.933 14.72 22.5 16.287 22.5 18.22V21.76ZM19 16.76C18.1716 16.76 17.5 17.4315 17.5 18.26V21.79C17.4946 22.1888 17.6538 22.5722 17.94 22.85C18.5342 23.4138 19.4658 23.4138 20.06 22.85C20.3462 22.5722 20.5054 22.1888 20.5 21.79V18.26C20.5 17.4315 19.8284 16.76 19 16.76Z"/>
<path fill-rule="evenodd" clip-rule="evenodd" d="M11.5 25.26H13.5V14.75H9.5V16.5H11.5V25.26V25.26Z"/>
</g>
</svg>
