<svg width="32" height="32" viewBox="0 0 32 32" xmlns="http://www.w3.org/2000/svg">
<g>
<path fill-rule="evenodd" clip-rule="evenodd" d="M23.598 27.944L16.001 23.369L8.40398 27.944C8.10998 28.121 7.74598 27.86 7.82098 27.526L9.78498 18.813L3.13198 12.939C2.87598 12.713 3.01498 12.293 3.35498 12.261L12.154 11.456L15.641 3.237C15.775 2.921 16.225 2.921 16.36 3.237L19.847 11.456L28.646 12.261C28.986 12.292 29.125 12.713 28.869 12.939L22.216 18.813L24.18 27.526C24.256 27.86 23.892 28.121 23.598 27.944ZM16.001 21.086L21.459 24.372L20.048 18.116L24.85 13.877L18.497 13.296L16.001 7.411L13.504 13.295L7.15098 13.876L11.953 18.115L10.542 24.371L16.001 21.086Z"/>
</g>
</svg>
