<svg width="86" height="9" viewBox="0 0 86 9" xmlns="http://www.w3.org/2000/svg">
<path d="M4.29883 6.14453C4.29883 6.01758 4.27604 5.89876 4.23047 5.78809C4.18815 5.67741 4.11328 5.57487 4.00586 5.48047C3.90169 5.38281 3.76335 5.29492 3.59082 5.2168C3.42155 5.13542 3.20996 5.06055 2.95605 4.99219C2.64681 4.90755 2.35059 4.80176 2.06738 4.6748C1.78743 4.54785 1.54004 4.39486 1.3252 4.21582C1.11035 4.03678 0.937826 3.82845 0.807617 3.59082C0.680664 3.35319 0.617188 3.07975 0.617188 2.77051C0.617188 2.47103 0.680664 2.19922 0.807617 1.95508C0.93457 1.71094 1.11035 1.5026 1.33496 1.33008C1.55957 1.15755 1.82487 1.02572 2.13086 0.93457C2.43685 0.840169 2.76888 0.792969 3.12695 0.792969C3.49805 0.792969 3.83659 0.84668 4.14258 0.954102C4.45182 1.06152 4.71712 1.21289 4.93848 1.4082C5.15983 1.60026 5.33236 1.82975 5.45605 2.09668C5.57975 2.36361 5.6416 2.65658 5.6416 2.97559H4.30371C4.2972 2.81608 4.2679 2.6696 4.21582 2.53613C4.16699 2.40267 4.09212 2.28874 3.99121 2.19434C3.89355 2.09668 3.76986 2.02181 3.62012 1.96973C3.47363 1.91439 3.30111 1.88672 3.10254 1.88672C2.92025 1.88672 2.75749 1.90951 2.61426 1.95508C2.47428 1.9974 2.35547 2.05924 2.25781 2.14062C2.16016 2.21875 2.08529 2.31315 2.0332 2.42383C1.98438 2.53125 1.95996 2.64844 1.95996 2.77539C1.95996 2.90885 1.99251 3.0293 2.05762 3.13672C2.12598 3.24414 2.22363 3.3418 2.35059 3.42969C2.47754 3.51432 2.63053 3.59245 2.80957 3.66406C2.99186 3.73568 3.19694 3.80241 3.4248 3.86426C3.75033 3.95866 4.0498 4.07422 4.32324 4.21094C4.59668 4.34766 4.83105 4.51042 5.02637 4.69922C5.22493 4.88477 5.37793 5.09798 5.48535 5.33887C5.59603 5.5765 5.65137 5.8418 5.65137 6.13477C5.65137 6.44727 5.58789 6.72559 5.46094 6.96973C5.33724 7.21061 5.16471 7.41569 4.94336 7.58496C4.72201 7.75098 4.45833 7.87793 4.15234 7.96582C3.84635 8.05046 3.5127 8.09277 3.15137 8.09277C2.92676 8.09277 2.70215 8.07161 2.47754 8.0293C2.25618 7.99023 2.04297 7.92839 1.83789 7.84375C1.63607 7.75911 1.44727 7.65332 1.27148 7.52637C1.0957 7.39941 0.942708 7.2513 0.8125 7.08203C0.685547 6.91276 0.584635 6.7207 0.509766 6.50586C0.438151 6.29102 0.402344 6.05339 0.402344 5.79297H1.75C1.75651 6.00781 1.79395 6.19173 1.8623 6.34473C1.93066 6.49772 2.02507 6.62305 2.14551 6.7207C2.26921 6.81836 2.41569 6.88997 2.58496 6.93555C2.75749 6.98112 2.94629 7.00391 3.15137 7.00391C3.33366 7.00391 3.49479 6.98275 3.63477 6.94043C3.77799 6.89811 3.89844 6.83952 3.99609 6.76465C4.09375 6.68978 4.16862 6.60026 4.2207 6.49609C4.27279 6.38867 4.29883 6.27148 4.29883 6.14453ZM13.8379 2.00879H11.6455V8H10.2686V2.00879H8.10547V0.890625H13.8379V2.00879ZM20.1152 6.51562H17.9814L17.5615 8H16.1162L18.4453 0.890625H19.6904L21.9756 8H20.5303L20.1152 6.51562ZM18.3184 5.34863H19.793L19.0654 2.73145L18.3184 5.34863ZM27.0371 5.34375H25.9971V8H24.625V0.890625H27.0078C27.4017 0.890625 27.7581 0.937826 28.0771 1.03223C28.3962 1.12337 28.668 1.25846 28.8926 1.4375C29.1204 1.61654 29.2946 1.83952 29.415 2.10645C29.5387 2.37337 29.6006 2.68262 29.6006 3.03418C29.6006 3.28809 29.5697 3.51758 29.5078 3.72266C29.4492 3.92448 29.363 4.10677 29.249 4.26953C29.1383 4.42904 29.0033 4.56901 28.8438 4.68945C28.6875 4.8099 28.5117 4.91406 28.3164 5.00195L29.8447 7.93652V8H28.375L27.0371 5.34375ZM25.9971 4.23047H27.0127C27.4001 4.23047 27.6979 4.13281 27.9062 3.9375C28.1178 3.73893 28.2236 3.46875 28.2236 3.12695C28.2236 2.77214 28.1211 2.49707 27.916 2.30176C27.7109 2.10319 27.4082 2.00391 27.0078 2.00391H25.9971V4.23047ZM37.4355 5.41211H33.3682V4.31348H37.4355V5.41211ZM45.1484 5.05566H42.1016V8H40.7246V0.890625H45.5293V2.00879H42.1016V3.94238H45.1484V5.05566ZM48.9453 0.890625H53.0566V1.99902H51.6699V6.89648H53.0566V8H48.9453V6.89648H50.2979V1.99902H48.9453V0.890625ZM58.1182 6.8916H61.4482V8H56.7412V0.890625H58.1182V6.8916ZM66.124 6.8916H69.4541V8H64.7471V0.890625H66.124V6.8916ZM77.0352 4.88477H74.1152V6.8916H77.5283V8H72.7383V0.890625H77.5137V2.00879H74.1152V3.80078H77.0352V4.88477ZM80.6367 8V0.890625H82.4775C82.9495 0.890625 83.376 0.972005 83.7568 1.13477C84.141 1.29427 84.4681 1.51888 84.7383 1.80859C85.0117 2.09505 85.2217 2.43848 85.3682 2.83887C85.5179 3.23926 85.5928 3.67871 85.5928 4.15723V4.74316C85.5928 5.22168 85.5179 5.66113 85.3682 6.06152C85.2217 6.45866 85.015 6.80208 84.748 7.0918C84.4811 7.37826 84.1605 7.60124 83.7861 7.76074C83.4118 7.92025 82.9984 8 82.5459 8H80.6367ZM82.0186 2.00391V6.89648H82.5459C82.8031 6.89648 83.0326 6.84766 83.2344 6.75C83.4395 6.65234 83.612 6.51074 83.752 6.3252C83.8952 6.13965 84.0042 5.91504 84.0791 5.65137C84.154 5.38444 84.1914 5.08171 84.1914 4.74316V4.14746C84.1914 3.82845 84.154 3.53874 84.0791 3.27832C84.0075 3.01465 83.8984 2.78841 83.752 2.59961C83.6087 2.41081 83.4297 2.26432 83.2148 2.16016C83.0033 2.05599 82.7575 2.00391 82.4775 2.00391H82.0186Z"/>
</svg>
