<svg width="30" height="9" viewBox="0 0 30 9" xmlns="http://www.w3.org/2000/svg">
<path d="M4.31934 6.14453C4.31934 6.01758 4.29655 5.89876 4.25098 5.78809C4.20866 5.67741 4.13379 5.57487 4.02637 5.48047C3.9222 5.38281 3.78385 5.29492 3.61133 5.2168C3.44206 5.13542 3.23047 5.06055 2.97656 4.99219C2.66732 4.90755 2.37109 4.80176 2.08789 4.6748C1.80794 4.54785 1.56055 4.39486 1.3457 4.21582C1.13086 4.03678 0.958333 3.82845 0.828125 3.59082C0.701172 3.35319 0.637695 3.07975 0.637695 2.77051C0.637695 2.47103 0.701172 2.19922 0.828125 1.95508C0.955078 1.71094 1.13086 1.5026 1.35547 1.33008C1.58008 1.15755 1.84538 1.02572 2.15137 0.93457C2.45736 0.840169 2.78939 0.792969 3.14746 0.792969C3.51855 0.792969 3.8571 0.84668 4.16309 0.954102C4.47233 1.06152 4.73763 1.21289 4.95898 1.4082C5.18034 1.60026 5.35286 1.82975 5.47656 2.09668C5.60026 2.36361 5.66211 2.65658 5.66211 2.97559H4.32422C4.31771 2.81608 4.28841 2.6696 4.23633 2.53613C4.1875 2.40267 4.11263 2.28874 4.01172 2.19434C3.91406 2.09668 3.79036 2.02181 3.64062 1.96973C3.49414 1.91439 3.32161 1.88672 3.12305 1.88672C2.94076 1.88672 2.77799 1.90951 2.63477 1.95508C2.49479 1.9974 2.37598 2.05924 2.27832 2.14062C2.18066 2.21875 2.10579 2.31315 2.05371 2.42383C2.00488 2.53125 1.98047 2.64844 1.98047 2.77539C1.98047 2.90885 2.01302 3.0293 2.07812 3.13672C2.14648 3.24414 2.24414 3.3418 2.37109 3.42969C2.49805 3.51432 2.65104 3.59245 2.83008 3.66406C3.01237 3.73568 3.21745 3.80241 3.44531 3.86426C3.77083 3.95866 4.07031 4.07422 4.34375 4.21094C4.61719 4.34766 4.85156 4.51042 5.04688 4.69922C5.24544 4.88477 5.39844 5.09798 5.50586 5.33887C5.61654 5.5765 5.67188 5.8418 5.67188 6.13477C5.67188 6.44727 5.6084 6.72559 5.48145 6.96973C5.35775 7.21061 5.18522 7.41569 4.96387 7.58496C4.74251 7.75098 4.47884 7.87793 4.17285 7.96582C3.86686 8.05046 3.5332 8.09277 3.17188 8.09277C2.94727 8.09277 2.72266 8.07161 2.49805 8.0293C2.27669 7.99023 2.06348 7.92839 1.8584 7.84375C1.65658 7.75911 1.46777 7.65332 1.29199 7.52637C1.11621 7.39941 0.963216 7.2513 0.833008 7.08203C0.706055 6.91276 0.605143 6.7207 0.530273 6.50586C0.458659 6.29102 0.422852 6.05339 0.422852 5.79297H1.77051C1.77702 6.00781 1.81445 6.19173 1.88281 6.34473C1.95117 6.49772 2.04557 6.62305 2.16602 6.7207C2.28971 6.81836 2.4362 6.88997 2.60547 6.93555C2.77799 6.98112 2.9668 7.00391 3.17188 7.00391C3.35417 7.00391 3.5153 6.98275 3.65527 6.94043C3.7985 6.89811 3.91895 6.83952 4.0166 6.76465C4.11426 6.68978 4.18913 6.60026 4.24121 6.49609C4.29329 6.38867 4.31934 6.27148 4.31934 6.14453ZM13.8584 2.00879H11.666V8H10.2891V2.00879H8.12598V0.890625H13.8584V2.00879ZM21.6006 4.96777C21.6006 5.4235 21.5404 5.84342 21.4199 6.22754C21.2995 6.61165 21.1253 6.94206 20.8975 7.21875C20.6696 7.49544 20.3913 7.71191 20.0625 7.86816C19.737 8.02116 19.3691 8.09766 18.959 8.09766C18.5488 8.09766 18.1842 8.02116 17.8652 7.86816C17.5462 7.71191 17.2777 7.49544 17.0596 7.21875C16.8415 6.9388 16.6755 6.6084 16.5615 6.22754C16.4476 5.84342 16.3906 5.4235 16.3906 4.96777V3.93262C16.3906 3.47689 16.4476 3.05697 16.5615 2.67285C16.6755 2.28874 16.8415 1.95833 17.0596 1.68164C17.2777 1.40169 17.5446 1.18359 17.8604 1.02734C18.1794 0.871094 18.5439 0.792969 18.9541 0.792969C19.3675 0.792969 19.737 0.871094 20.0625 1.02734C20.3913 1.18359 20.6696 1.40169 20.8975 1.68164C21.1253 1.95833 21.2995 2.28874 21.4199 2.67285C21.5404 3.05697 21.6006 3.47689 21.6006 3.93262V4.96777ZM20.209 3.92285C20.209 3.63314 20.1846 3.36621 20.1357 3.12207C20.0902 2.87793 20.0169 2.66797 19.916 2.49219C19.8151 2.31641 19.6849 2.17969 19.5254 2.08203C19.3691 1.98112 19.1787 1.93066 18.9541 1.93066C18.7327 1.93066 18.5472 1.98112 18.3975 2.08203C18.2477 2.17969 18.1273 2.31641 18.0361 2.49219C17.945 2.66797 17.8799 2.87793 17.8408 3.12207C17.8018 3.36621 17.7822 3.63314 17.7822 3.92285V4.96777C17.7822 5.25423 17.8018 5.51953 17.8408 5.76367C17.8799 6.00781 17.945 6.2194 18.0361 6.39844C18.1273 6.57747 18.2477 6.71745 18.3975 6.81836C18.5472 6.91927 18.7344 6.96973 18.959 6.96973C19.1803 6.96973 19.3691 6.91927 19.5254 6.81836C19.6849 6.71745 19.8135 6.5791 19.9111 6.40332C20.012 6.22428 20.0869 6.0127 20.1357 5.76855C20.1846 5.52441 20.209 5.25749 20.209 4.96777V3.92285ZM26.1055 5.39258V8H24.7334V0.890625H27.165C27.5524 0.890625 27.9023 0.947591 28.2148 1.06152C28.5273 1.1722 28.7926 1.32845 29.0107 1.53027C29.2321 1.72884 29.4014 1.9681 29.5186 2.24805C29.639 2.52799 29.6992 2.83887 29.6992 3.18066C29.6992 3.49967 29.639 3.79427 29.5186 4.06445C29.4014 4.33464 29.2321 4.56901 29.0107 4.76758C28.7926 4.96289 28.5273 5.11589 28.2148 5.22656C27.9023 5.33724 27.5524 5.39258 27.165 5.39258H26.1055ZM26.1055 4.2793H27.165C27.3604 4.2793 27.5296 4.25 27.6729 4.19141C27.8161 4.13281 27.9349 4.05306 28.0293 3.95215C28.127 3.85124 28.1986 3.73568 28.2441 3.60547C28.293 3.47201 28.3174 3.33366 28.3174 3.19043C28.3174 3.02441 28.293 2.86979 28.2441 2.72656C28.1986 2.58333 28.127 2.45801 28.0293 2.35059C27.9349 2.24316 27.8161 2.15853 27.6729 2.09668C27.5296 2.03483 27.3604 2.00391 27.165 2.00391H26.1055V4.2793Z"/>
</svg>
