<svg width="130" height="19" viewBox="0 0 130 19" xmlns="http://www.w3.org/2000/svg">
<path id="Style Name" d="M9.39453 13.5469C9.39453 13.2422 9.33984 12.957 9.23047 12.6914C9.12891 12.4258 8.94922 12.1797 8.69141 11.9531C8.44141 11.7188 8.10938 11.5078 7.69531 11.3203C7.28906 11.125 6.78125 10.9453 6.17188 10.7812C5.42969 10.5781 4.71875 10.3242 4.03906 10.0195C3.36719 9.71484 2.77344 9.34766 2.25781 8.91797C1.74219 8.48828 1.32812 7.98828 1.01562 7.41797C0.710938 6.84766 0.558594 6.19141 0.558594 5.44922C0.558594 4.73047 0.710938 4.07812 1.01562 3.49219C1.32031 2.90625 1.74219 2.40625 2.28125 1.99219C2.82031 1.57812 3.45703 1.26172 4.19141 1.04297C4.92578 0.816406 5.72266 0.703125 6.58203 0.703125C7.47266 0.703125 8.28516 0.832031 9.01953 1.08984C9.76172 1.34766 10.3984 1.71094 10.9297 2.17969C11.4609 2.64062 11.875 3.19141 12.1719 3.83203C12.4688 4.47266 12.6172 5.17578 12.6172 5.94141H9.40625C9.39062 5.55859 9.32031 5.20703 9.19531 4.88672C9.07812 4.56641 8.89844 4.29297 8.65625 4.06641C8.42188 3.83203 8.125 3.65234 7.76562 3.52734C7.41406 3.39453 7 3.32812 6.52344 3.32812C6.08594 3.32812 5.69531 3.38281 5.35156 3.49219C5.01562 3.59375 4.73047 3.74219 4.49609 3.9375C4.26172 4.125 4.08203 4.35156 3.95703 4.61719C3.83984 4.875 3.78125 5.15625 3.78125 5.46094C3.78125 5.78125 3.85938 6.07031 4.01562 6.32812C4.17969 6.58594 4.41406 6.82031 4.71875 7.03125C5.02344 7.23438 5.39062 7.42188 5.82031 7.59375C6.25781 7.76562 6.75 7.92578 7.29688 8.07422C8.07812 8.30078 8.79688 8.57812 9.45312 8.90625C10.1094 9.23438 10.6719 9.625 11.1406 10.0781C11.6172 10.5234 11.9844 11.0352 12.2422 11.6133C12.5078 12.1836 12.6406 12.8203 12.6406 13.5234C12.6406 14.2734 12.4883 14.9414 12.1836 15.5273C11.8867 16.1055 11.4727 16.5977 10.9414 17.0039C10.4102 17.4023 9.77734 17.707 9.04297 17.918C8.30859 18.1211 7.50781 18.2227 6.64062 18.2227C6.10156 18.2227 5.5625 18.1719 5.02344 18.0703C4.49219 17.9766 3.98047 17.8281 3.48828 17.625C3.00391 17.4219 2.55078 17.168 2.12891 16.8633C1.70703 16.5586 1.33984 16.2031 1.02734 15.7969C0.722656 15.3906 0.480469 14.9297 0.300781 14.4141C0.128906 13.8984 0.0429688 13.3281 0.0429688 12.7031H3.27734C3.29297 13.2188 3.38281 13.6602 3.54688 14.0273C3.71094 14.3945 3.9375 14.6953 4.22656 14.9297C4.52344 15.1641 4.875 15.3359 5.28125 15.4453C5.69531 15.5547 6.14844 15.6094 6.64062 15.6094C7.07812 15.6094 7.46484 15.5586 7.80078 15.457C8.14453 15.3555 8.43359 15.2148 8.66797 15.0352C8.90234 14.8555 9.08203 14.6406 9.20703 14.3906C9.33203 14.1328 9.39453 13.8516 9.39453 13.5469ZM23.4531 11.7422V18H20.1602V0.9375H25.9961C26.9258 0.9375 27.7656 1.07422 28.5156 1.34766C29.2656 1.61328 29.9023 1.98828 30.4258 2.47266C30.957 2.94922 31.3633 3.52344 31.6445 4.19531C31.9336 4.86719 32.0781 5.61328 32.0781 6.43359C32.0781 7.19922 31.9336 7.90625 31.6445 8.55469C31.3633 9.20312 30.957 9.76562 30.4258 10.2422C29.9023 10.7109 29.2656 11.0781 28.5156 11.3438C27.7656 11.6094 26.9258 11.7422 25.9961 11.7422H23.4531ZM23.4531 9.07031H25.9961C26.4648 9.07031 26.8711 9 27.2148 8.85938C27.5586 8.71875 27.8438 8.52734 28.0703 8.28516C28.3047 8.04297 28.4766 7.76562 28.5859 7.45312C28.7031 7.13281 28.7617 6.80078 28.7617 6.45703C28.7617 6.05859 28.7031 5.6875 28.5859 5.34375C28.4766 5 28.3047 4.69922 28.0703 4.44141C27.8438 4.18359 27.5586 3.98047 27.2148 3.83203C26.8711 3.68359 26.4648 3.60938 25.9961 3.60938H23.4531V9.07031ZM40.0898 0.9375H49.957V3.59766H46.6289V15.3516H49.957V18H40.0898V15.3516H43.3359V3.59766H40.0898V0.9375ZM70.0273 18H66.7461L62 6.99609V18H58.6836V0.9375H62L66.7109 11.8945L66.7227 0.9375H70.0273V18ZM89.4414 18H86.1602L81.4141 6.99609V18H78.0977V0.9375H81.4141L86.125 11.8945L86.1367 0.9375H89.4414V18ZM108.105 10.5234H101.098V15.3398H109.289V18H97.793V0.9375H109.254V3.62109H101.098V7.92188H108.105V10.5234ZM122.809 11.625H120.312V18H117.02V0.9375H122.738C123.684 0.9375 124.539 1.05078 125.305 1.27734C126.07 1.49609 126.723 1.82031 127.262 2.25C127.809 2.67969 128.227 3.21484 128.516 3.85547C128.812 4.49609 128.961 5.23828 128.961 6.08203C128.961 6.69141 128.887 7.24219 128.738 7.73438C128.598 8.21875 128.391 8.65625 128.117 9.04688C127.852 9.42969 127.527 9.76562 127.145 10.0547C126.77 10.3438 126.348 10.5938 125.879 10.8047L129.547 17.8477V18H126.02L122.809 11.625ZM120.312 8.95312H122.75C123.68 8.95312 124.395 8.71875 124.895 8.25C125.402 7.77344 125.656 7.125 125.656 6.30469C125.656 5.45312 125.41 4.79297 124.918 4.32422C124.426 3.84766 123.699 3.60938 122.738 3.60938H120.312V8.95312Z"/>
</svg>
