<svg width="168" height="19" viewBox="0 0 168 19" xmlns="http://www.w3.org/2000/svg">
<path id="Style Name" d="M4.0625 15.3398H12.0547V18H0.757812V0.9375H4.0625V15.3398ZM23.9922 0.9375L25.6094 7.34766L27.4492 0.9375H31.5391V18H28.5156V12.9492L28.6562 4.96875L26.418 12.375H24.7891L22.7852 5.28516L22.9258 12.9492V18H19.9023V0.9375H23.9922ZM50.625 18H47.3672V10.6055H42.5391V18H39.2695V0.9375H42.5391V7.93359H47.3672V0.9375H50.625V18ZM78.918 0.9375H88.7852V3.59766H85.457V15.3516H88.7852V18H78.918V15.3516H82.1641V3.59766H78.918V0.9375ZM109.453 12.6562C109.398 13.5156 109.211 14.2891 108.891 14.9766C108.578 15.6641 108.156 16.25 107.625 16.7344C107.094 17.2188 106.461 17.5938 105.727 17.8594C104.992 18.1172 104.18 18.2461 103.289 18.2461C102.281 18.2461 101.387 18.0625 100.605 17.6953C99.8242 17.3203 99.168 16.8008 98.6367 16.1367C98.1055 15.4648 97.6992 14.6602 97.418 13.7227C97.1367 12.7852 96.9961 11.7539 96.9961 10.6289V8.33203C96.9961 7.19922 97.1445 6.16406 97.4414 5.22656C97.7383 4.28906 98.1602 3.48438 98.707 2.8125C99.2539 2.14062 99.9141 1.62109 100.688 1.25391C101.469 0.878906 102.344 0.691406 103.312 0.691406C104.25 0.691406 105.082 0.824219 105.809 1.08984C106.543 1.35547 107.168 1.73438 107.684 2.22656C108.199 2.71875 108.605 3.32031 108.902 4.03125C109.199 4.74219 109.387 5.54297 109.465 6.43359H106.184C106.152 5.92578 106.074 5.48047 105.949 5.09766C105.832 4.71484 105.656 4.39844 105.422 4.14844C105.195 3.89062 104.906 3.69922 104.555 3.57422C104.211 3.44141 103.797 3.375 103.312 3.375C102.805 3.375 102.363 3.48438 101.988 3.70312C101.613 3.92188 101.301 4.24219 101.051 4.66406C100.809 5.08594 100.629 5.60547 100.512 6.22266C100.395 6.83203 100.336 7.52734 100.336 8.30859V10.6289C100.336 12.3086 100.57 13.5508 101.039 14.3555C101.516 15.1602 102.266 15.5625 103.289 15.5625C104.148 15.5625 104.828 15.3359 105.328 14.8828C105.828 14.4219 106.105 13.6797 106.16 12.6562H109.453ZM128.926 10.7227C128.926 11.8164 128.781 12.8242 128.492 13.7461C128.203 14.668 127.785 15.4609 127.238 16.125C126.691 16.7891 126.023 17.3086 125.234 17.6836C124.453 18.0508 123.57 18.2344 122.586 18.2344C121.602 18.2344 120.727 18.0508 119.961 17.6836C119.195 17.3086 118.551 16.7891 118.027 16.125C117.504 15.4531 117.105 14.6602 116.832 13.7461C116.559 12.8242 116.422 11.8164 116.422 10.7227V8.23828C116.422 7.14453 116.559 6.13672 116.832 5.21484C117.105 4.29297 117.504 3.5 118.027 2.83594C118.551 2.16406 119.191 1.64062 119.949 1.26562C120.715 0.890625 121.59 0.703125 122.574 0.703125C123.566 0.703125 124.453 0.890625 125.234 1.26562C126.023 1.64062 126.691 2.16406 127.238 2.83594C127.785 3.5 128.203 4.29297 128.492 5.21484C128.781 6.13672 128.926 7.14453 128.926 8.23828V10.7227ZM125.586 8.21484C125.586 7.51953 125.527 6.87891 125.41 6.29297C125.301 5.70703 125.125 5.20312 124.883 4.78125C124.641 4.35938 124.328 4.03125 123.945 3.79688C123.57 3.55469 123.113 3.43359 122.574 3.43359C122.043 3.43359 121.598 3.55469 121.238 3.79688C120.879 4.03125 120.59 4.35938 120.371 4.78125C120.152 5.20312 119.996 5.70703 119.902 6.29297C119.809 6.87891 119.762 7.51953 119.762 8.21484V10.7227C119.762 11.4102 119.809 12.0469 119.902 12.6328C119.996 13.2188 120.152 13.7266 120.371 14.1562C120.59 14.5859 120.879 14.9219 121.238 15.1641C121.598 15.4062 122.047 15.5273 122.586 15.5273C123.117 15.5273 123.57 15.4062 123.945 15.1641C124.328 14.9219 124.637 14.5898 124.871 14.168C125.113 13.7383 125.293 13.2305 125.41 12.6445C125.527 12.0586 125.586 11.418 125.586 10.7227V8.21484ZM147.684 18H144.402L139.656 6.99609V18H136.34V0.9375H139.656L144.367 11.8945L144.379 0.9375H147.684V18ZM164.707 13.5469C164.707 13.2422 164.652 12.957 164.543 12.6914C164.441 12.4258 164.262 12.1797 164.004 11.9531C163.754 11.7188 163.422 11.5078 163.008 11.3203C162.602 11.125 162.094 10.9453 161.484 10.7812C160.742 10.5781 160.031 10.3242 159.352 10.0195C158.68 9.71484 158.086 9.34766 157.57 8.91797C157.055 8.48828 156.641 7.98828 156.328 7.41797C156.023 6.84766 155.871 6.19141 155.871 5.44922C155.871 4.73047 156.023 4.07812 156.328 3.49219C156.633 2.90625 157.055 2.40625 157.594 1.99219C158.133 1.57812 158.77 1.26172 159.504 1.04297C160.238 0.816406 161.035 0.703125 161.895 0.703125C162.785 0.703125 163.598 0.832031 164.332 1.08984C165.074 1.34766 165.711 1.71094 166.242 2.17969C166.773 2.64062 167.188 3.19141 167.484 3.83203C167.781 4.47266 167.93 5.17578 167.93 5.94141H164.719C164.703 5.55859 164.633 5.20703 164.508 4.88672C164.391 4.56641 164.211 4.29297 163.969 4.06641C163.734 3.83203 163.438 3.65234 163.078 3.52734C162.727 3.39453 162.312 3.32812 161.836 3.32812C161.398 3.32812 161.008 3.38281 160.664 3.49219C160.328 3.59375 160.043 3.74219 159.809 3.9375C159.574 4.125 159.395 4.35156 159.27 4.61719C159.152 4.875 159.094 5.15625 159.094 5.46094C159.094 5.78125 159.172 6.07031 159.328 6.32812C159.492 6.58594 159.727 6.82031 160.031 7.03125C160.336 7.23438 160.703 7.42188 161.133 7.59375C161.57 7.76562 162.062 7.92578 162.609 8.07422C163.391 8.30078 164.109 8.57812 164.766 8.90625C165.422 9.23438 165.984 9.625 166.453 10.0781C166.93 10.5234 167.297 11.0352 167.555 11.6133C167.82 12.1836 167.953 12.8203 167.953 13.5234C167.953 14.2734 167.801 14.9414 167.496 15.5273C167.199 16.1055 166.785 16.5977 166.254 17.0039C165.723 17.4023 165.09 17.707 164.355 17.918C163.621 18.1211 162.82 18.2227 161.953 18.2227C161.414 18.2227 160.875 18.1719 160.336 18.0703C159.805 17.9766 159.293 17.8281 158.801 17.625C158.316 17.4219 157.863 17.168 157.441 16.8633C157.02 16.5586 156.652 16.2031 156.34 15.7969C156.035 15.3906 155.793 14.9297 155.613 14.4141C155.441 13.8984 155.355 13.3281 155.355 12.7031H158.59C158.605 13.2188 158.695 13.6602 158.859 14.0273C159.023 14.3945 159.25 14.6953 159.539 14.9297C159.836 15.1641 160.188 15.3359 160.594 15.4453C161.008 15.5547 161.461 15.6094 161.953 15.6094C162.391 15.6094 162.777 15.5586 163.113 15.457C163.457 15.3555 163.746 15.2148 163.98 15.0352C164.215 14.8555 164.395 14.6406 164.52 14.3906C164.645 14.1328 164.707 13.8516 164.707 13.5469Z"/>
</svg>
