<svg width="32" height="32" viewBox="0 0 32 32" xmlns="http://www.w3.org/2000/svg">
<g>
<path fill-rule="evenodd" clip-rule="evenodd" d="M26.969 12.019C26.503 6.244 21.954 2 16.016 2C10.078 2 5.529 6.242 5.062 12.016C3.913 12.1 3 13.051 3 14.222V20.779C3 22.003 3.997 23 5.222 23H6.779C8.003 23 9 22.003 9 20.778V14.221C9 13.093 8.152 12.168 7.061 12.028C7.202 10.521 7.675 9.16 8.406 8H23.625C24.356 9.159 24.829 10.519 24.97 12.025C23.865 12.152 23 13.083 23 14.222V20.779C23 21.928 23.88 22.865 25 22.978V24C25 25.71 23.71 27 22 27H20V26H14V30H20V29H22C24.804 29 27 26.804 27 24V22.978C28.12 22.865 29 21.928 29 20.779V14.222C29 13.062 28.104 12.118 26.969 12.019ZM21.868 6H10.163C11.703 4.734 13.72 4 16.016 4C18.312 4 20.328 4.734 21.868 6ZM7 21H5V14H7V21ZM27 21H25V14H27V21Z"/>
</g>
</svg>
