<svg width="46" height="8" viewBox="0 0 46 8" xmlns="http://www.w3.org/2000/svg">
<path d="M5.84668 2.00879H3.6543V8H2.27734V2.00879H0.114258V0.890625H5.84668V2.00879ZM12.124 6.51562H9.99023L9.57031 8H8.125L10.4541 0.890625H11.6992L13.9844 8H12.5391L12.124 6.51562ZM10.3271 5.34863H11.8018L11.0742 2.73145L10.3271 5.34863ZM16.624 8V0.890625H19.0117C19.3991 0.890625 19.7507 0.929688 20.0664 1.00781C20.3854 1.08594 20.6572 1.20475 20.8818 1.36426C21.1064 1.52376 21.279 1.72559 21.3994 1.96973C21.5231 2.21387 21.585 2.50195 21.585 2.83398C21.5817 3.16602 21.4922 3.46387 21.3164 3.72754C21.1439 3.99121 20.8883 4.19141 20.5498 4.32812C20.7549 4.38021 20.9323 4.45833 21.082 4.5625C21.2318 4.66667 21.3555 4.79036 21.4531 4.93359C21.554 5.07357 21.6273 5.22819 21.6729 5.39746C21.7217 5.56348 21.7461 5.736 21.7461 5.91504C21.7461 6.25684 21.6875 6.55794 21.5703 6.81836C21.4531 7.07878 21.2855 7.29688 21.0674 7.47266C20.8493 7.64844 20.584 7.78027 20.2715 7.86816C19.959 7.95605 19.6074 8 19.2168 8H16.624ZM18.001 4.86523V6.8916H19.2217C19.596 6.88835 19.8809 6.7972 20.0762 6.61816C20.2747 6.43587 20.374 6.19824 20.374 5.90527C20.3773 5.57975 20.2894 5.32585 20.1104 5.14355C19.9313 4.96126 19.6546 4.86849 19.2803 4.86523H18.001ZM18.001 3.87402H19.0215C19.4023 3.87077 19.6953 3.79102 19.9004 3.63477C20.1055 3.47852 20.2096 3.24902 20.2129 2.94629C20.2129 2.61426 20.1104 2.37663 19.9053 2.2334C19.7002 2.08691 19.404 2.01204 19.0166 2.00879H18.001V3.87402ZM26.1094 6.8916H29.4395V8H24.7324V0.890625H26.1094V6.8916ZM37.0205 4.88477H34.1006V6.8916H37.5137V8H32.7236V0.890625H37.499V2.00879H34.1006V3.80078H37.0205V4.88477ZM45.876 2.00879H43.6836V8H42.3066V2.00879H40.1436V0.890625H45.876V2.00879Z"/>
</svg>
