<svg width="78" height="9" viewBox="0 0 78 9" xmlns="http://www.w3.org/2000/svg">
<path d="M5.83496 2.00879H3.64258V8H2.26562V2.00879H0.102539V0.890625H5.83496V2.00879ZM12.1123 6.51562H9.97852L9.55859 8H8.11328L10.4424 0.890625H11.6875L13.9727 8H12.5273L12.1123 6.51562ZM10.3154 5.34863H11.79L11.0625 2.73145L10.3154 5.34863ZM20.3135 6.14453C20.3135 6.01758 20.2907 5.89876 20.2451 5.78809C20.2028 5.67741 20.1279 5.57487 20.0205 5.48047C19.9163 5.38281 19.778 5.29492 19.6055 5.2168C19.4362 5.13542 19.2246 5.06055 18.9707 4.99219C18.6615 4.90755 18.3652 4.80176 18.082 4.6748C17.8021 4.54785 17.5547 4.39486 17.3398 4.21582C17.125 4.03678 16.9525 3.82845 16.8223 3.59082C16.6953 3.35319 16.6318 3.07975 16.6318 2.77051C16.6318 2.47103 16.6953 2.19922 16.8223 1.95508C16.9492 1.71094 17.125 1.5026 17.3496 1.33008C17.5742 1.15755 17.8395 1.02572 18.1455 0.93457C18.4515 0.840169 18.7835 0.792969 19.1416 0.792969C19.5127 0.792969 19.8512 0.84668 20.1572 0.954102C20.4665 1.06152 20.7318 1.21289 20.9531 1.4082C21.1745 1.60026 21.347 1.82975 21.4707 2.09668C21.5944 2.36361 21.6562 2.65658 21.6562 2.97559H20.3184C20.3118 2.81608 20.2826 2.6696 20.2305 2.53613C20.1816 2.40267 20.1068 2.28874 20.0059 2.19434C19.9082 2.09668 19.7845 2.02181 19.6348 1.96973C19.4883 1.91439 19.3158 1.88672 19.1172 1.88672C18.9349 1.88672 18.7721 1.90951 18.6289 1.95508C18.4889 1.9974 18.3701 2.05924 18.2725 2.14062C18.1748 2.21875 18.0999 2.31315 18.0479 2.42383C17.999 2.53125 17.9746 2.64844 17.9746 2.77539C17.9746 2.90885 18.0072 3.0293 18.0723 3.13672C18.1406 3.24414 18.2383 3.3418 18.3652 3.42969C18.4922 3.51432 18.6452 3.59245 18.8242 3.66406C19.0065 3.73568 19.2116 3.80241 19.4395 3.86426C19.765 3.95866 20.0645 4.07422 20.3379 4.21094C20.6113 4.34766 20.8457 4.51042 21.041 4.69922C21.2396 4.88477 21.3926 5.09798 21.5 5.33887C21.6107 5.5765 21.666 5.8418 21.666 6.13477C21.666 6.44727 21.6025 6.72559 21.4756 6.96973C21.3519 7.21061 21.1794 7.41569 20.958 7.58496C20.7367 7.75098 20.473 7.87793 20.167 7.96582C19.861 8.05046 19.5273 8.09277 19.166 8.09277C18.9414 8.09277 18.7168 8.07161 18.4922 8.0293C18.2708 7.99023 18.0576 7.92839 17.8525 7.84375C17.6507 7.75911 17.4619 7.65332 17.2861 7.52637C17.1104 7.39941 16.9574 7.2513 16.8271 7.08203C16.7002 6.91276 16.5993 6.7207 16.5244 6.50586C16.4528 6.29102 16.417 6.05339 16.417 5.79297H17.7646C17.7712 6.00781 17.8086 6.19173 17.877 6.34473C17.9453 6.49772 18.0397 6.62305 18.1602 6.7207C18.2839 6.81836 18.4303 6.88997 18.5996 6.93555C18.7721 6.98112 18.9609 7.00391 19.166 7.00391C19.3483 7.00391 19.5094 6.98275 19.6494 6.94043C19.7926 6.89811 19.9131 6.83952 20.0107 6.76465C20.1084 6.68978 20.1833 6.60026 20.2354 6.49609C20.2874 6.38867 20.3135 6.27148 20.3135 6.14453ZM26.7471 5.08008L25.9951 5.90527V8H24.6182V0.890625H25.9951V4.14746L26.6396 3.27832L28.3682 0.890625H30.0479L27.6553 4.03516L30.1357 8H28.5049L26.7471 5.08008ZM36.3252 6.14453C36.3252 6.01758 36.3024 5.89876 36.2568 5.78809C36.2145 5.67741 36.1396 5.57487 36.0322 5.48047C35.9281 5.38281 35.7897 5.29492 35.6172 5.2168C35.4479 5.13542 35.2363 5.06055 34.9824 4.99219C34.6732 4.90755 34.377 4.80176 34.0938 4.6748C33.8138 4.54785 33.5664 4.39486 33.3516 4.21582C33.1367 4.03678 32.9642 3.82845 32.834 3.59082C32.707 3.35319 32.6436 3.07975 32.6436 2.77051C32.6436 2.47103 32.707 2.19922 32.834 1.95508C32.9609 1.71094 33.1367 1.5026 33.3613 1.33008C33.5859 1.15755 33.8512 1.02572 34.1572 0.93457C34.4632 0.840169 34.7952 0.792969 35.1533 0.792969C35.5244 0.792969 35.863 0.84668 36.1689 0.954102C36.4782 1.06152 36.7435 1.21289 36.9648 1.4082C37.1862 1.60026 37.3587 1.82975 37.4824 2.09668C37.6061 2.36361 37.668 2.65658 37.668 2.97559H36.3301C36.3236 2.81608 36.2943 2.6696 36.2422 2.53613C36.1934 2.40267 36.1185 2.28874 36.0176 2.19434C35.9199 2.09668 35.7962 2.02181 35.6465 1.96973C35.5 1.91439 35.3275 1.88672 35.1289 1.88672C34.9466 1.88672 34.7839 1.90951 34.6406 1.95508C34.5007 1.9974 34.3818 2.05924 34.2842 2.14062C34.1865 2.21875 34.1117 2.31315 34.0596 2.42383C34.0107 2.53125 33.9863 2.64844 33.9863 2.77539C33.9863 2.90885 34.0189 3.0293 34.084 3.13672C34.1523 3.24414 34.25 3.3418 34.377 3.42969C34.5039 3.51432 34.6569 3.59245 34.8359 3.66406C35.0182 3.73568 35.2233 3.80241 35.4512 3.86426C35.7767 3.95866 36.0762 4.07422 36.3496 4.21094C36.623 4.34766 36.8574 4.51042 37.0527 4.69922C37.2513 4.88477 37.4043 5.09798 37.5117 5.33887C37.6224 5.5765 37.6777 5.8418 37.6777 6.13477C37.6777 6.44727 37.6143 6.72559 37.4873 6.96973C37.3636 7.21061 37.1911 7.41569 36.9697 7.58496C36.7484 7.75098 36.4847 7.87793 36.1787 7.96582C35.8727 8.05046 35.5391 8.09277 35.1777 8.09277C34.9531 8.09277 34.7285 8.07161 34.5039 8.0293C34.2826 7.99023 34.0693 7.92839 33.8643 7.84375C33.6624 7.75911 33.4736 7.65332 33.2979 7.52637C33.1221 7.39941 32.9691 7.2513 32.8389 7.08203C32.7119 6.91276 32.611 6.7207 32.5361 6.50586C32.4645 6.29102 32.4287 6.05339 32.4287 5.79297H33.7764C33.7829 6.00781 33.8203 6.19173 33.8887 6.34473C33.957 6.49772 34.0514 6.62305 34.1719 6.7207C34.2956 6.81836 34.4421 6.88997 34.6113 6.93555C34.7839 6.98112 34.9727 7.00391 35.1777 7.00391C35.36 7.00391 35.5212 6.98275 35.6611 6.94043C35.8044 6.89811 35.9248 6.83952 36.0225 6.76465C36.1201 6.68978 36.195 6.60026 36.2471 6.49609C36.2992 6.38867 36.3252 6.27148 36.3252 6.14453ZM45.4443 5.41211H41.377V4.31348H45.4443V5.41211ZM50.1152 6.8916H53.4453V8H48.7383V0.890625H50.1152V6.8916ZM56.9541 0.890625H61.0654V1.99902H59.6787V6.89648H61.0654V8H56.9541V6.89648H58.3066V1.99902H56.9541V0.890625ZM68.3486 6.14453C68.3486 6.01758 68.3258 5.89876 68.2803 5.78809C68.238 5.67741 68.1631 5.57487 68.0557 5.48047C67.9515 5.38281 67.8132 5.29492 67.6406 5.2168C67.4714 5.13542 67.2598 5.06055 67.0059 4.99219C66.6966 4.90755 66.4004 4.80176 66.1172 4.6748C65.8372 4.54785 65.5898 4.39486 65.375 4.21582C65.1602 4.03678 64.9876 3.82845 64.8574 3.59082C64.7305 3.35319 64.667 3.07975 64.667 2.77051C64.667 2.47103 64.7305 2.19922 64.8574 1.95508C64.9844 1.71094 65.1602 1.5026 65.3848 1.33008C65.6094 1.15755 65.8747 1.02572 66.1807 0.93457C66.4867 0.840169 66.8187 0.792969 67.1768 0.792969C67.5479 0.792969 67.8864 0.84668 68.1924 0.954102C68.5016 1.06152 68.7669 1.21289 68.9883 1.4082C69.2096 1.60026 69.3822 1.82975 69.5059 2.09668C69.6296 2.36361 69.6914 2.65658 69.6914 2.97559H68.3535C68.347 2.81608 68.3177 2.6696 68.2656 2.53613C68.2168 2.40267 68.1419 2.28874 68.041 2.19434C67.9434 2.09668 67.8197 2.02181 67.6699 1.96973C67.5234 1.91439 67.3509 1.88672 67.1523 1.88672C66.9701 1.88672 66.8073 1.90951 66.6641 1.95508C66.5241 1.9974 66.4053 2.05924 66.3076 2.14062C66.21 2.21875 66.1351 2.31315 66.083 2.42383C66.0342 2.53125 66.0098 2.64844 66.0098 2.77539C66.0098 2.90885 66.0423 3.0293 66.1074 3.13672C66.1758 3.24414 66.2734 3.3418 66.4004 3.42969C66.5273 3.51432 66.6803 3.59245 66.8594 3.66406C67.0417 3.73568 67.2467 3.80241 67.4746 3.86426C67.8001 3.95866 68.0996 4.07422 68.373 4.21094C68.6465 4.34766 68.8809 4.51042 69.0762 4.69922C69.2747 4.88477 69.4277 5.09798 69.5352 5.33887C69.6458 5.5765 69.7012 5.8418 69.7012 6.13477C69.7012 6.44727 69.6377 6.72559 69.5107 6.96973C69.387 7.21061 69.2145 7.41569 68.9932 7.58496C68.7718 7.75098 68.5081 7.87793 68.2021 7.96582C67.8962 8.05046 67.5625 8.09277 67.2012 8.09277C66.9766 8.09277 66.752 8.07161 66.5273 8.0293C66.306 7.99023 66.0928 7.92839 65.8877 7.84375C65.6859 7.75911 65.4971 7.65332 65.3213 7.52637C65.1455 7.39941 64.9925 7.2513 64.8623 7.08203C64.7354 6.91276 64.6344 6.7207 64.5596 6.50586C64.488 6.29102 64.4521 6.05339 64.4521 5.79297H65.7998C65.8063 6.00781 65.8438 6.19173 65.9121 6.34473C65.9805 6.49772 66.0749 6.62305 66.1953 6.7207C66.319 6.81836 66.4655 6.88997 66.6348 6.93555C66.8073 6.98112 66.9961 7.00391 67.2012 7.00391C67.3835 7.00391 67.5446 6.98275 67.6846 6.94043C67.8278 6.89811 67.9482 6.83952 68.0459 6.76465C68.1436 6.68978 68.2184 6.60026 68.2705 6.49609C68.3226 6.38867 68.3486 6.27148 68.3486 6.14453ZM77.8877 2.00879H75.6953V8H74.3184V2.00879H72.1553V0.890625H77.8877V2.00879Z"/>
</svg>
