<svg width="95" height="9" viewBox="0 0 95 9" xmlns="http://www.w3.org/2000/svg">
<path d="M5.8291 2.00879H3.63672V8H2.25977V2.00879H0.0966797V0.890625H5.8291V2.00879ZM13.5713 4.96777C13.5713 5.4235 13.5111 5.84342 13.3906 6.22754C13.2702 6.61165 13.096 6.94206 12.8682 7.21875C12.6403 7.49544 12.362 7.71191 12.0332 7.86816C11.7077 8.02116 11.3398 8.09766 10.9297 8.09766C10.5195 8.09766 10.1549 8.02116 9.83594 7.86816C9.51693 7.71191 9.24837 7.49544 9.03027 7.21875C8.81217 6.9388 8.64616 6.6084 8.53223 6.22754C8.41829 5.84342 8.36133 5.4235 8.36133 4.96777V3.93262C8.36133 3.47689 8.41829 3.05697 8.53223 2.67285C8.64616 2.28874 8.81217 1.95833 9.03027 1.68164C9.24837 1.40169 9.5153 1.18359 9.83105 1.02734C10.1501 0.871094 10.5146 0.792969 10.9248 0.792969C11.3382 0.792969 11.7077 0.871094 12.0332 1.02734C12.362 1.18359 12.6403 1.40169 12.8682 1.68164C13.096 1.95833 13.2702 2.28874 13.3906 2.67285C13.5111 3.05697 13.5713 3.47689 13.5713 3.93262V4.96777ZM12.1797 3.92285C12.1797 3.63314 12.1553 3.36621 12.1064 3.12207C12.0609 2.87793 11.9876 2.66797 11.8867 2.49219C11.7858 2.31641 11.6556 2.17969 11.4961 2.08203C11.3398 1.98112 11.1494 1.93066 10.9248 1.93066C10.7035 1.93066 10.5179 1.98112 10.3682 2.08203C10.2184 2.17969 10.098 2.31641 10.0068 2.49219C9.91569 2.66797 9.85059 2.87793 9.81152 3.12207C9.77246 3.36621 9.75293 3.63314 9.75293 3.92285V4.96777C9.75293 5.25423 9.77246 5.51953 9.81152 5.76367C9.85059 6.00781 9.91569 6.2194 10.0068 6.39844C10.098 6.57747 10.2184 6.71745 10.3682 6.81836C10.5179 6.91927 10.7051 6.96973 10.9297 6.96973C11.151 6.96973 11.3398 6.91927 11.4961 6.81836C11.6556 6.71745 11.7842 6.5791 11.8818 6.40332C11.9827 6.22428 12.0576 6.0127 12.1064 5.76855C12.1553 5.52441 12.1797 5.25749 12.1797 4.96777V3.92285ZM20.0928 5.17285L20.6104 0.890625H21.8701L20.8838 8H19.6436L18.9697 3.80078L18.3203 8H17.0801L16.1035 0.890625H17.3584L17.8662 5.14355L18.4717 0.890625H19.4531L20.0928 5.17285ZM29.4268 5.41211H25.3594V4.31348H29.4268V5.41211ZM37.5645 5.77344C37.5417 6.13151 37.4635 6.45378 37.3301 6.74023C37.1999 7.02669 37.0241 7.27083 36.8027 7.47266C36.5814 7.67448 36.3177 7.83073 36.0117 7.94141C35.7057 8.04883 35.3672 8.10254 34.9961 8.10254C34.5762 8.10254 34.2035 8.02604 33.8779 7.87305C33.5524 7.7168 33.279 7.50033 33.0576 7.22363C32.8363 6.94368 32.667 6.6084 32.5498 6.21777C32.4326 5.82715 32.374 5.39746 32.374 4.92871V3.97168C32.374 3.49967 32.4359 3.06836 32.5596 2.67773C32.6833 2.28711 32.859 1.95182 33.0869 1.67188C33.3148 1.39193 33.5898 1.17546 33.9121 1.02246C34.2376 0.866211 34.6022 0.788086 35.0059 0.788086C35.3965 0.788086 35.7432 0.843424 36.0459 0.954102C36.3519 1.06478 36.6123 1.22266 36.8271 1.42773C37.042 1.63281 37.2113 1.88346 37.335 2.17969C37.4587 2.47591 37.5368 2.80957 37.5693 3.18066H36.2021C36.1891 2.96908 36.1566 2.78353 36.1045 2.62402C36.0557 2.46452 35.9824 2.33268 35.8848 2.22852C35.7904 2.12109 35.6699 2.04134 35.5234 1.98926C35.3802 1.93392 35.2077 1.90625 35.0059 1.90625C34.7943 1.90625 34.6104 1.95182 34.4541 2.04297C34.2979 2.13411 34.1676 2.26758 34.0635 2.44336C33.9626 2.61914 33.8877 2.83561 33.8389 3.09277C33.79 3.34668 33.7656 3.63639 33.7656 3.96191V4.92871C33.7656 5.62858 33.8633 6.14616 34.0586 6.48145C34.2572 6.81673 34.5697 6.98438 34.9961 6.98438C35.3542 6.98438 35.6374 6.88997 35.8457 6.70117C36.054 6.50911 36.1696 6.19987 36.1924 5.77344H37.5645ZM44.1299 6.51562H41.9961L41.5762 8H40.1309L42.46 0.890625H43.7051L45.9902 8H44.5449L44.1299 6.51562ZM42.333 5.34863H43.8076L43.0801 2.73145L42.333 5.34863ZM50.0996 5.39258V8H48.7275V0.890625H51.1592C51.5465 0.890625 51.8965 0.947591 52.209 1.06152C52.5215 1.1722 52.7868 1.32845 53.0049 1.53027C53.2262 1.72884 53.3955 1.9681 53.5127 2.24805C53.6331 2.52799 53.6934 2.83887 53.6934 3.18066C53.6934 3.49967 53.6331 3.79427 53.5127 4.06445C53.3955 4.33464 53.2262 4.56901 53.0049 4.76758C52.7868 4.96289 52.5215 5.11589 52.209 5.22656C51.8965 5.33724 51.5465 5.39258 51.1592 5.39258H50.0996ZM50.0996 4.2793H51.1592C51.3545 4.2793 51.5238 4.25 51.667 4.19141C51.8102 4.13281 51.929 4.05306 52.0234 3.95215C52.1211 3.85124 52.1927 3.73568 52.2383 3.60547C52.2871 3.47201 52.3115 3.33366 52.3115 3.19043C52.3115 3.02441 52.2871 2.86979 52.2383 2.72656C52.1927 2.58333 52.1211 2.45801 52.0234 2.35059C51.929 2.24316 51.8102 2.15853 51.667 2.09668C51.5238 2.03483 51.3545 2.00391 51.1592 2.00391H50.0996V4.2793ZM60.1416 6.51562H58.0078L57.5879 8H56.1426L58.4717 0.890625H59.7168L62.002 8H60.5566L60.1416 6.51562ZM58.3447 5.34863H59.8193L59.0918 2.73145L58.3447 5.34863ZM69.5879 5.77344C69.5651 6.13151 69.487 6.45378 69.3535 6.74023C69.2233 7.02669 69.0475 7.27083 68.8262 7.47266C68.6048 7.67448 68.3411 7.83073 68.0352 7.94141C67.7292 8.04883 67.3906 8.10254 67.0195 8.10254C66.5996 8.10254 66.2269 8.02604 65.9014 7.87305C65.5758 7.7168 65.3024 7.50033 65.0811 7.22363C64.8597 6.94368 64.6904 6.6084 64.5732 6.21777C64.4561 5.82715 64.3975 5.39746 64.3975 4.92871V3.97168C64.3975 3.49967 64.4593 3.06836 64.583 2.67773C64.7067 2.28711 64.8825 1.95182 65.1104 1.67188C65.3382 1.39193 65.6133 1.17546 65.9355 1.02246C66.2611 0.866211 66.6257 0.788086 67.0293 0.788086C67.4199 0.788086 67.7666 0.843424 68.0693 0.954102C68.3753 1.06478 68.6357 1.22266 68.8506 1.42773C69.0654 1.63281 69.2347 1.88346 69.3584 2.17969C69.4821 2.47591 69.5602 2.80957 69.5928 3.18066H68.2256C68.2126 2.96908 68.18 2.78353 68.1279 2.62402C68.0791 2.46452 68.0059 2.33268 67.9082 2.22852C67.8138 2.12109 67.6934 2.04134 67.5469 1.98926C67.4036 1.93392 67.2311 1.90625 67.0293 1.90625C66.8177 1.90625 66.6338 1.95182 66.4775 2.04297C66.3213 2.13411 66.1911 2.26758 66.0869 2.44336C65.986 2.61914 65.9111 2.83561 65.8623 3.09277C65.8135 3.34668 65.7891 3.63639 65.7891 3.96191V4.92871C65.7891 5.62858 65.8867 6.14616 66.082 6.48145C66.2806 6.81673 66.5931 6.98438 67.0195 6.98438C67.3776 6.98438 67.6608 6.88997 67.8691 6.70117C68.0775 6.50911 68.193 6.19987 68.2158 5.77344H69.5879ZM72.96 0.890625H77.0713V1.99902H75.6846V6.89648H77.0713V8H72.96V6.89648H74.3125V1.99902H72.96V0.890625ZM85.8877 2.00879H83.6953V8H82.3184V2.00879H80.1553V0.890625H85.8877V2.00879ZM91.0957 4.16699L92.4971 0.890625H94.0059L91.7695 5.53906L91.7646 8H90.3975L90.3926 5.48047L88.1904 0.890625H89.6943L91.0957 4.16699Z"/>
</svg>
