<svg width="94" height="31" viewBox="0 0 94 31" xmlns="http://www.w3.org/2000/svg">
<path id="Unevenness- compensation" d="M9.34375 0.890625L9.34863 5.60254C9.34863 5.99967 9.29329 6.35286 9.18262 6.66211C9.0752 6.97135 8.91732 7.2334 8.70898 7.44824C8.50391 7.65983 8.25163 7.82096 7.95215 7.93164C7.65592 8.04232 7.31738 8.09766 6.93652 8.09766C6.57845 8.09766 6.25456 8.04232 5.96484 7.93164C5.67839 7.82096 5.43262 7.65983 5.22754 7.44824C5.02246 7.23665 4.86296 6.97624 4.74902 6.66699C4.63835 6.35449 4.58301 5.99967 4.58301 5.60254L4.58789 0.890625H5.95996L5.96484 5.60254C5.9681 6.06152 6.05111 6.4082 6.21387 6.64258C6.37988 6.87695 6.62077 6.99414 6.93652 6.99414C7.27181 6.99414 7.52734 6.87695 7.70312 6.64258C7.88216 6.4082 7.97331 6.06152 7.97656 5.60254L7.98145 0.890625H9.34375ZM17.3008 8H15.9336L13.9561 3.41504V8H12.5742V0.890625H13.9561L15.9189 5.45605L15.9238 0.890625H17.3008V8ZM24.9941 4.88477H22.0742V6.8916H25.4873V8H20.6973V0.890625H25.4727V2.00879H22.0742V3.80078H24.9941V4.88477ZM30.9785 6.0127L32.3213 0.890625H33.835L31.6816 8H30.2852L28.1367 0.890625H29.6504L30.9785 6.0127ZM41.0059 4.88477H38.0859V6.8916H41.499V8H36.709V0.890625H41.4844V2.00879H38.0859V3.80078H41.0059V4.88477ZM49.3242 8H47.957L45.9795 3.41504V8H44.5977V0.890625H45.9795L47.9424 5.45605L47.9473 0.890625H49.3242V8ZM57.3301 8H55.9629L53.9854 3.41504V8H52.6035V0.890625H53.9854L55.9482 5.45605L55.9531 0.890625H57.3301V8ZM65.0234 4.88477H62.1035V6.8916H65.5166V8H60.7266V0.890625H65.502V2.00879H62.1035V3.80078H65.0234V4.88477ZM72.3457 6.14453C72.3457 6.01758 72.3229 5.89876 72.2773 5.78809C72.235 5.67741 72.1602 5.57487 72.0527 5.48047C71.9486 5.38281 71.8102 5.29492 71.6377 5.2168C71.4684 5.13542 71.2568 5.06055 71.0029 4.99219C70.6937 4.90755 70.3975 4.80176 70.1143 4.6748C69.8343 4.54785 69.5869 4.39486 69.3721 4.21582C69.1572 4.03678 68.9847 3.82845 68.8545 3.59082C68.7275 3.35319 68.6641 3.07975 68.6641 2.77051C68.6641 2.47103 68.7275 2.19922 68.8545 1.95508C68.9814 1.71094 69.1572 1.5026 69.3818 1.33008C69.6064 1.15755 69.8717 1.02572 70.1777 0.93457C70.4837 0.840169 70.8158 0.792969 71.1738 0.792969C71.5449 0.792969 71.8835 0.84668 72.1895 0.954102C72.4987 1.06152 72.764 1.21289 72.9854 1.4082C73.2067 1.60026 73.3792 1.82975 73.5029 2.09668C73.6266 2.36361 73.6885 2.65658 73.6885 2.97559H72.3506C72.3441 2.81608 72.3148 2.6696 72.2627 2.53613C72.2139 2.40267 72.139 2.28874 72.0381 2.19434C71.9404 2.09668 71.8167 2.02181 71.667 1.96973C71.5205 1.91439 71.348 1.88672 71.1494 1.88672C70.9671 1.88672 70.8044 1.90951 70.6611 1.95508C70.5212 1.9974 70.4023 2.05924 70.3047 2.14062C70.207 2.21875 70.1322 2.31315 70.0801 2.42383C70.0312 2.53125 70.0068 2.64844 70.0068 2.77539C70.0068 2.90885 70.0394 3.0293 70.1045 3.13672C70.1729 3.24414 70.2705 3.3418 70.3975 3.42969C70.5244 3.51432 70.6774 3.59245 70.8564 3.66406C71.0387 3.73568 71.2438 3.80241 71.4717 3.86426C71.7972 3.95866 72.0967 4.07422 72.3701 4.21094C72.6436 4.34766 72.8779 4.51042 73.0732 4.69922C73.2718 4.88477 73.4248 5.09798 73.5322 5.33887C73.6429 5.5765 73.6982 5.8418 73.6982 6.13477C73.6982 6.44727 73.6348 6.72559 73.5078 6.96973C73.3841 7.21061 73.2116 7.41569 72.9902 7.58496C72.7689 7.75098 72.5052 7.87793 72.1992 7.96582C71.8932 8.05046 71.5596 8.09277 71.1982 8.09277C70.9736 8.09277 70.749 8.07161 70.5244 8.0293C70.3031 7.99023 70.0898 7.92839 69.8848 7.84375C69.6829 7.75911 69.4941 7.65332 69.3184 7.52637C69.1426 7.39941 68.9896 7.2513 68.8594 7.08203C68.7324 6.91276 68.6315 6.7207 68.5566 6.50586C68.485 6.29102 68.4492 6.05339 68.4492 5.79297H69.7969C69.8034 6.00781 69.8408 6.19173 69.9092 6.34473C69.9775 6.49772 70.0719 6.62305 70.1924 6.7207C70.3161 6.81836 70.4626 6.88997 70.6318 6.93555C70.8044 6.98112 70.9932 7.00391 71.1982 7.00391C71.3805 7.00391 71.5417 6.98275 71.6816 6.94043C71.8249 6.89811 71.9453 6.83952 72.043 6.76465C72.1406 6.68978 72.2155 6.60026 72.2676 6.49609C72.3197 6.38867 72.3457 6.27148 72.3457 6.14453ZM80.3516 6.14453C80.3516 6.01758 80.3288 5.89876 80.2832 5.78809C80.2409 5.67741 80.166 5.57487 80.0586 5.48047C79.9544 5.38281 79.8161 5.29492 79.6436 5.2168C79.4743 5.13542 79.2627 5.06055 79.0088 4.99219C78.6995 4.90755 78.4033 4.80176 78.1201 4.6748C77.8402 4.54785 77.5928 4.39486 77.3779 4.21582C77.1631 4.03678 76.9906 3.82845 76.8604 3.59082C76.7334 3.35319 76.6699 3.07975 76.6699 2.77051C76.6699 2.47103 76.7334 2.19922 76.8604 1.95508C76.9873 1.71094 77.1631 1.5026 77.3877 1.33008C77.6123 1.15755 77.8776 1.02572 78.1836 0.93457C78.4896 0.840169 78.8216 0.792969 79.1797 0.792969C79.5508 0.792969 79.8893 0.84668 80.1953 0.954102C80.5046 1.06152 80.7699 1.21289 80.9912 1.4082C81.2126 1.60026 81.3851 1.82975 81.5088 2.09668C81.6325 2.36361 81.6943 2.65658 81.6943 2.97559H80.3564C80.3499 2.81608 80.3206 2.6696 80.2686 2.53613C80.2197 2.40267 80.1449 2.28874 80.0439 2.19434C79.9463 2.09668 79.8226 2.02181 79.6729 1.96973C79.5264 1.91439 79.3538 1.88672 79.1553 1.88672C78.973 1.88672 78.8102 1.90951 78.667 1.95508C78.527 1.9974 78.4082 2.05924 78.3105 2.14062C78.2129 2.21875 78.138 2.31315 78.0859 2.42383C78.0371 2.53125 78.0127 2.64844 78.0127 2.77539C78.0127 2.90885 78.0452 3.0293 78.1104 3.13672C78.1787 3.24414 78.2764 3.3418 78.4033 3.42969C78.5303 3.51432 78.6833 3.59245 78.8623 3.66406C79.0446 3.73568 79.2497 3.80241 79.4775 3.86426C79.8031 3.95866 80.1025 4.07422 80.376 4.21094C80.6494 4.34766 80.8838 4.51042 81.0791 4.69922C81.2777 4.88477 81.4307 5.09798 81.5381 5.33887C81.6488 5.5765 81.7041 5.8418 81.7041 6.13477C81.7041 6.44727 81.6406 6.72559 81.5137 6.96973C81.39 7.21061 81.2174 7.41569 80.9961 7.58496C80.7747 7.75098 80.5111 7.87793 80.2051 7.96582C79.8991 8.05046 79.5654 8.09277 79.2041 8.09277C78.9795 8.09277 78.7549 8.07161 78.5303 8.0293C78.3089 7.99023 78.0957 7.92839 77.8906 7.84375C77.6888 7.75911 77.5 7.65332 77.3242 7.52637C77.1484 7.39941 76.9954 7.2513 76.8652 7.08203C76.7383 6.91276 76.6374 6.7207 76.5625 6.50586C76.4909 6.29102 76.4551 6.05339 76.4551 5.79297H77.8027C77.8092 6.00781 77.8467 6.19173 77.915 6.34473C77.9834 6.49772 78.0778 6.62305 78.1982 6.7207C78.3219 6.81836 78.4684 6.88997 78.6377 6.93555C78.8102 6.98112 78.999 7.00391 79.2041 7.00391C79.3864 7.00391 79.5475 6.98275 79.6875 6.94043C79.8307 6.89811 79.9512 6.83952 80.0488 6.76465C80.1465 6.68978 80.2214 6.60026 80.2734 6.49609C80.3255 6.38867 80.3516 6.27148 80.3516 6.14453ZM89.4707 5.41211H85.4033V4.31348H89.4707V5.41211ZM5.54102 27.7734C5.51823 28.1315 5.4401 28.4538 5.30664 28.7402C5.17643 29.0267 5.00065 29.2708 4.7793 29.4727C4.55794 29.6745 4.29427 29.8307 3.98828 29.9414C3.68229 30.0488 3.34375 30.1025 2.97266 30.1025C2.55273 30.1025 2.18001 30.026 1.85449 29.873C1.52897 29.7168 1.25553 29.5003 1.03418 29.2236C0.812826 28.9437 0.643555 28.6084 0.526367 28.2178C0.40918 27.8271 0.350586 27.3975 0.350586 26.9287V25.9717C0.350586 25.4997 0.412435 25.0684 0.536133 24.6777C0.659831 24.2871 0.835612 23.9518 1.06348 23.6719C1.29134 23.3919 1.56641 23.1755 1.88867 23.0225C2.21419 22.8662 2.57878 22.7881 2.98242 22.7881C3.37305 22.7881 3.71973 22.8434 4.02246 22.9541C4.32845 23.0648 4.58887 23.2227 4.80371 23.4277C5.01855 23.6328 5.18783 23.8835 5.31152 24.1797C5.43522 24.4759 5.51335 24.8096 5.5459 25.1807H4.17871C4.16569 24.9691 4.13314 24.7835 4.08105 24.624C4.03223 24.4645 3.95898 24.3327 3.86133 24.2285C3.76693 24.1211 3.64648 24.0413 3.5 23.9893C3.35677 23.9339 3.18424 23.9062 2.98242 23.9062C2.77083 23.9062 2.58691 23.9518 2.43066 24.043C2.27441 24.1341 2.14421 24.2676 2.04004 24.4434C1.93913 24.6191 1.86426 24.8356 1.81543 25.0928C1.7666 25.3467 1.74219 25.6364 1.74219 25.9619V26.9287C1.74219 27.6286 1.83984 28.1462 2.03516 28.4814C2.23372 28.8167 2.54622 28.9844 2.97266 28.9844C3.33073 28.9844 3.61393 28.89 3.82227 28.7012C4.0306 28.5091 4.14616 28.1999 4.16895 27.7734H5.54102ZM13.5713 26.9678C13.5713 27.4235 13.5111 27.8434 13.3906 28.2275C13.2702 28.6117 13.096 28.9421 12.8682 29.2188C12.6403 29.4954 12.362 29.7119 12.0332 29.8682C11.7077 30.0212 11.3398 30.0977 10.9297 30.0977C10.5195 30.0977 10.1549 30.0212 9.83594 29.8682C9.51693 29.7119 9.24837 29.4954 9.03027 29.2188C8.81217 28.9388 8.64616 28.6084 8.53223 28.2275C8.41829 27.8434 8.36133 27.4235 8.36133 26.9678V25.9326C8.36133 25.4769 8.41829 25.057 8.53223 24.6729C8.64616 24.2887 8.81217 23.9583 9.03027 23.6816C9.24837 23.4017 9.5153 23.1836 9.83105 23.0273C10.1501 22.8711 10.5146 22.793 10.9248 22.793C11.3382 22.793 11.7077 22.8711 12.0332 23.0273C12.362 23.1836 12.6403 23.4017 12.8682 23.6816C13.096 23.9583 13.2702 24.2887 13.3906 24.6729C13.5111 25.057 13.5713 25.4769 13.5713 25.9326V26.9678ZM12.1797 25.9229C12.1797 25.6331 12.1553 25.3662 12.1064 25.1221C12.0609 24.8779 11.9876 24.668 11.8867 24.4922C11.7858 24.3164 11.6556 24.1797 11.4961 24.082C11.3398 23.9811 11.1494 23.9307 10.9248 23.9307C10.7035 23.9307 10.5179 23.9811 10.3682 24.082C10.2184 24.1797 10.098 24.3164 10.0068 24.4922C9.91569 24.668 9.85059 24.8779 9.81152 25.1221C9.77246 25.3662 9.75293 25.6331 9.75293 25.9229V26.9678C9.75293 27.2542 9.77246 27.5195 9.81152 27.7637C9.85059 28.0078 9.91569 28.2194 10.0068 28.3984C10.098 28.5775 10.2184 28.7174 10.3682 28.8184C10.5179 28.9193 10.7051 28.9697 10.9297 28.9697C11.151 28.9697 11.3398 28.9193 11.4961 28.8184C11.6556 28.7174 11.7842 28.5791 11.8818 28.4033C11.9827 28.2243 12.0576 28.0127 12.1064 27.7686C12.1553 27.5244 12.1797 27.2575 12.1797 26.9678V25.9229ZM18.3008 22.8906L18.9746 25.5615L19.7412 22.8906H21.4453V30H20.1855V27.8955L20.2441 24.5703L19.3115 27.6562H18.6328L17.7979 24.7021L17.8564 27.8955V30H16.5967V22.8906H18.3008ZM26.082 27.3926V30H24.71V22.8906H27.1416C27.529 22.8906 27.8789 22.9476 28.1914 23.0615C28.5039 23.1722 28.7692 23.3285 28.9873 23.5303C29.2087 23.7288 29.3779 23.9681 29.4951 24.248C29.6156 24.528 29.6758 24.8389 29.6758 25.1807C29.6758 25.4997 29.6156 25.7943 29.4951 26.0645C29.3779 26.3346 29.2087 26.569 28.9873 26.7676C28.7692 26.9629 28.5039 27.1159 28.1914 27.2266C27.8789 27.3372 27.529 27.3926 27.1416 27.3926H26.082ZM26.082 26.2793H27.1416C27.3369 26.2793 27.5062 26.25 27.6494 26.1914C27.7926 26.1328 27.9115 26.0531 28.0059 25.9521C28.1035 25.8512 28.1751 25.7357 28.2207 25.6055C28.2695 25.472 28.2939 25.3337 28.2939 25.1904C28.2939 25.0244 28.2695 24.8698 28.2207 24.7266C28.1751 24.5833 28.1035 24.458 28.0059 24.3506C27.9115 24.2432 27.7926 24.1585 27.6494 24.0967C27.5062 24.0348 27.3369 24.0039 27.1416 24.0039H26.082V26.2793ZM37.0029 26.8848H34.083V28.8916H37.4961V30H32.7061V22.8906H37.4814V24.0088H34.083V25.8008H37.0029V26.8848ZM45.3213 30H43.9541L41.9766 25.415V30H40.5947V22.8906H41.9766L43.9395 27.4561L43.9443 22.8906H45.3213V30ZM52.3311 28.1445C52.3311 28.0176 52.3083 27.8988 52.2627 27.7881C52.2204 27.6774 52.1455 27.5749 52.0381 27.4805C51.9339 27.3828 51.7956 27.2949 51.623 27.2168C51.4538 27.1354 51.2422 27.0605 50.9883 26.9922C50.679 26.9076 50.3828 26.8018 50.0996 26.6748C49.8197 26.5479 49.5723 26.3949 49.3574 26.2158C49.1426 26.0368 48.9701 25.8285 48.8398 25.5908C48.7129 25.3532 48.6494 25.0798 48.6494 24.7705C48.6494 24.471 48.7129 24.1992 48.8398 23.9551C48.9668 23.7109 49.1426 23.5026 49.3672 23.3301C49.5918 23.1576 49.8571 23.0257 50.1631 22.9346C50.4691 22.8402 50.8011 22.793 51.1592 22.793C51.5303 22.793 51.8688 22.8467 52.1748 22.9541C52.484 23.0615 52.7493 23.2129 52.9707 23.4082C53.1921 23.6003 53.3646 23.8298 53.4883 24.0967C53.612 24.3636 53.6738 24.6566 53.6738 24.9756H52.3359C52.3294 24.8161 52.3001 24.6696 52.248 24.5361C52.1992 24.4027 52.1243 24.2887 52.0234 24.1943C51.9258 24.0967 51.8021 24.0218 51.6523 23.9697C51.5059 23.9144 51.3333 23.8867 51.1348 23.8867C50.9525 23.8867 50.7897 23.9095 50.6465 23.9551C50.5065 23.9974 50.3877 24.0592 50.29 24.1406C50.1924 24.2188 50.1175 24.3132 50.0654 24.4238C50.0166 24.5312 49.9922 24.6484 49.9922 24.7754C49.9922 24.9089 50.0247 25.0293 50.0898 25.1367C50.1582 25.2441 50.2559 25.3418 50.3828 25.4297C50.5098 25.5143 50.6628 25.5924 50.8418 25.6641C51.0241 25.7357 51.2292 25.8024 51.457 25.8643C51.7826 25.9587 52.082 26.0742 52.3555 26.2109C52.6289 26.3477 52.8633 26.5104 53.0586 26.6992C53.2572 26.8848 53.4102 27.098 53.5176 27.3389C53.6283 27.5765 53.6836 27.8418 53.6836 28.1348C53.6836 28.4473 53.6201 28.7256 53.4932 28.9697C53.3695 29.2106 53.1969 29.4157 52.9756 29.585C52.7542 29.751 52.4906 29.8779 52.1846 29.9658C51.8786 30.0505 51.5449 30.0928 51.1836 30.0928C50.959 30.0928 50.7344 30.0716 50.5098 30.0293C50.2884 29.9902 50.0752 29.9284 49.8701 29.8438C49.6683 29.7591 49.4795 29.6533 49.3037 29.5264C49.1279 29.3994 48.9749 29.2513 48.8447 29.082C48.7178 28.9128 48.6169 28.7207 48.542 28.5059C48.4704 28.291 48.4346 28.0534 48.4346 27.793H49.7822C49.7887 28.0078 49.8262 28.1917 49.8945 28.3447C49.9629 28.4977 50.0573 28.623 50.1777 28.7207C50.3014 28.8184 50.4479 28.89 50.6172 28.9355C50.7897 28.9811 50.9785 29.0039 51.1836 29.0039C51.3659 29.0039 51.527 28.9827 51.667 28.9404C51.8102 28.8981 51.9307 28.8395 52.0283 28.7646C52.126 28.6898 52.2008 28.6003 52.2529 28.4961C52.305 28.3887 52.3311 28.2715 52.3311 28.1445ZM60.1416 28.5156H58.0078L57.5879 30H56.1426L58.4717 22.8906H59.7168L62.002 30H60.5566L60.1416 28.5156ZM58.3447 27.3486H59.8193L59.0918 24.7314L58.3447 27.3486ZM69.876 24.0088H67.6836V30H66.3066V24.0088H64.1436V22.8906H69.876V24.0088ZM72.96 22.8906H77.0713V23.999H75.6846V28.8965H77.0713V30H72.96V28.8965H74.3125V23.999H72.96V22.8906ZM85.624 26.9678C85.624 27.4235 85.5638 27.8434 85.4434 28.2275C85.3229 28.6117 85.1488 28.9421 84.9209 29.2188C84.693 29.4954 84.4147 29.7119 84.0859 29.8682C83.7604 30.0212 83.3926 30.0977 82.9824 30.0977C82.5723 30.0977 82.2077 30.0212 81.8887 29.8682C81.5697 29.7119 81.3011 29.4954 81.083 29.2188C80.8649 28.9388 80.6989 28.6084 80.585 28.2275C80.471 27.8434 80.4141 27.4235 80.4141 26.9678V25.9326C80.4141 25.4769 80.471 25.057 80.585 24.6729C80.6989 24.2887 80.8649 23.9583 81.083 23.6816C81.3011 23.4017 81.568 23.1836 81.8838 23.0273C82.2028 22.8711 82.5674 22.793 82.9775 22.793C83.391 22.793 83.7604 22.8711 84.0859 23.0273C84.4147 23.1836 84.693 23.4017 84.9209 23.6816C85.1488 23.9583 85.3229 24.2887 85.4434 24.6729C85.5638 25.057 85.624 25.4769 85.624 25.9326V26.9678ZM84.2324 25.9229C84.2324 25.6331 84.208 25.3662 84.1592 25.1221C84.1136 24.8779 84.0404 24.668 83.9395 24.4922C83.8385 24.3164 83.7083 24.1797 83.5488 24.082C83.3926 23.9811 83.2021 23.9307 82.9775 23.9307C82.7562 23.9307 82.5706 23.9811 82.4209 24.082C82.2712 24.1797 82.1507 24.3164 82.0596 24.4922C81.9684 24.668 81.9033 24.8779 81.8643 25.1221C81.8252 25.3662 81.8057 25.6331 81.8057 25.9229V26.9678C81.8057 27.2542 81.8252 27.5195 81.8643 27.7637C81.9033 28.0078 81.9684 28.2194 82.0596 28.3984C82.1507 28.5775 82.2712 28.7174 82.4209 28.8184C82.5706 28.9193 82.7578 28.9697 82.9824 28.9697C83.2038 28.9697 83.3926 28.9193 83.5488 28.8184C83.7083 28.7174 83.8369 28.5791 83.9346 28.4033C84.0355 28.2243 84.1104 28.0127 84.1592 27.7686C84.208 27.5244 84.2324 27.2575 84.2324 26.9678V25.9229ZM93.3564 30H91.9893L90.0117 25.415V30H88.6299V22.8906H90.0117L91.9746 27.4561L91.9795 22.8906H93.3564V30Z"/>
</svg>
