<svg width="32" height="32" viewBox="0 0 32 32" xmlns="http://www.w3.org/2000/svg">
<g>
<path id="Combined Shape" fill-rule="evenodd" clip-rule="evenodd" d="M6.00009 5V7H4.00009V5H3.00009L5.00009 3L7.00009 5H6.00009ZM4.16005 21L28.16 23C29.2017 23.0836 30.0034 23.955 30 25V29H2.00005V23C1.99625 22.4387 2.22848 21.9017 2.64005 21.52C3.05177 21.1419 3.60297 20.9533 4.16005 21ZM4.00005 27H28V25L4.00005 23V27ZM29.0001 7H28.0001V5H26.0001V7H25.0001L27.0001 9L29.0001 7ZM5.50009 19H4.50009C3.67166 19 3.00009 18.3284 3.00009 17.5V10.5C3.00009 9.67157 3.67166 9 4.50009 9H5.50009C6.32852 9 7.00009 9.67157 7.00009 10.5V13.25L9.00009 13.42V13C9.00009 12.4477 9.44781 12 10.0001 12H11.0001C11.5524 12 12.0001 12.4477 12.0001 13V13.67L20.0001 14.33V14C20.0001 13.4477 20.4478 13 21.0001 13H22.0001C22.5524 13 23.0001 13.4477 23.0001 14V14.58L25.0001 14.75V12.5C25.0001 11.6716 25.6717 11 26.5001 11H27.5001C28.3285 11 29.0001 11.6716 29.0001 12.5V19.5C29.0001 20.3284 28.3285 21 27.5001 21H26.5001C25.6717 21 25.0001 20.3284 25.0001 19.5V16.75L23.0001 16.58V17C23.0001 17.5523 22.5524 18 22.0001 18H21.0001C20.4478 18 20.0001 17.5523 20.0001 17V16.33L12.0001 15.67V16C12.0001 16.5523 11.5524 17 11.0001 17H10.0001C9.44781 17 9.00009 16.5523 9.00009 16V15.42L7.00009 15.25V17.5C7.00009 18.3284 6.32852 19 5.50009 19Z"/>
</g>
</svg>
