<svg width="38" height="9" viewBox="0 0 38 9" xmlns="http://www.w3.org/2000/svg">
<path d="M5.36133 0.890625L5.36621 5.60254C5.36621 5.99967 5.31087 6.35286 5.2002 6.66211C5.09277 6.97135 4.9349 7.2334 4.72656 7.44824C4.52148 7.65983 4.26921 7.82096 3.96973 7.93164C3.6735 8.04232 3.33496 8.09766 2.9541 8.09766C2.59603 8.09766 2.27214 8.04232 1.98242 7.93164C1.69596 7.82096 1.4502 7.65983 1.24512 7.44824C1.04004 7.23665 0.880534 6.97624 0.766602 6.66699C0.655924 6.35449 0.600586 5.99967 0.600586 5.60254L0.605469 0.890625H1.97754L1.98242 5.60254C1.98568 6.06152 2.06868 6.4082 2.23145 6.64258C2.39746 6.87695 2.63835 6.99414 2.9541 6.99414C3.28939 6.99414 3.54492 6.87695 3.7207 6.64258C3.89974 6.4082 3.99089 6.06152 3.99414 5.60254L3.99902 0.890625H5.36133ZM12.3223 6.14453C12.3223 6.01758 12.2995 5.89876 12.2539 5.78809C12.2116 5.67741 12.1367 5.57487 12.0293 5.48047C11.9251 5.38281 11.7868 5.29492 11.6143 5.2168C11.445 5.13542 11.2334 5.06055 10.9795 4.99219C10.6702 4.90755 10.374 4.80176 10.0908 4.6748C9.81087 4.54785 9.56348 4.39486 9.34863 4.21582C9.13379 4.03678 8.96126 3.82845 8.83105 3.59082C8.7041 3.35319 8.64062 3.07975 8.64062 2.77051C8.64062 2.47103 8.7041 2.19922 8.83105 1.95508C8.95801 1.71094 9.13379 1.5026 9.3584 1.33008C9.58301 1.15755 9.84831 1.02572 10.1543 0.93457C10.4603 0.840169 10.7923 0.792969 11.1504 0.792969C11.5215 0.792969 11.86 0.84668 12.166 0.954102C12.4753 1.06152 12.7406 1.21289 12.9619 1.4082C13.1833 1.60026 13.3558 1.82975 13.4795 2.09668C13.6032 2.36361 13.665 2.65658 13.665 2.97559H12.3271C12.3206 2.81608 12.2913 2.6696 12.2393 2.53613C12.1904 2.40267 12.1156 2.28874 12.0146 2.19434C11.917 2.09668 11.7933 2.02181 11.6436 1.96973C11.4971 1.91439 11.3245 1.88672 11.126 1.88672C10.9437 1.88672 10.7809 1.90951 10.6377 1.95508C10.4977 1.9974 10.3789 2.05924 10.2812 2.14062C10.1836 2.21875 10.1087 2.31315 10.0566 2.42383C10.0078 2.53125 9.9834 2.64844 9.9834 2.77539C9.9834 2.90885 10.016 3.0293 10.0811 3.13672C10.1494 3.24414 10.2471 3.3418 10.374 3.42969C10.501 3.51432 10.654 3.59245 10.833 3.66406C11.0153 3.73568 11.2204 3.80241 11.4482 3.86426C11.7738 3.95866 12.0732 4.07422 12.3467 4.21094C12.6201 4.34766 12.8545 4.51042 13.0498 4.69922C13.2484 4.88477 13.4014 5.09798 13.5088 5.33887C13.6195 5.5765 13.6748 5.8418 13.6748 6.13477C13.6748 6.44727 13.6113 6.72559 13.4844 6.96973C13.3607 7.21061 13.1882 7.41569 12.9668 7.58496C12.7454 7.75098 12.4818 7.87793 12.1758 7.96582C11.8698 8.05046 11.5361 8.09277 11.1748 8.09277C10.9502 8.09277 10.7256 8.07161 10.501 8.0293C10.2796 7.99023 10.0664 7.92839 9.86133 7.84375C9.65951 7.75911 9.4707 7.65332 9.29492 7.52637C9.11914 7.39941 8.96615 7.2513 8.83594 7.08203C8.70898 6.91276 8.60807 6.7207 8.5332 6.50586C8.46159 6.29102 8.42578 6.05339 8.42578 5.79297H9.77344C9.77995 6.00781 9.81738 6.19173 9.88574 6.34473C9.9541 6.49772 10.0485 6.62305 10.1689 6.7207C10.2926 6.81836 10.4391 6.88997 10.6084 6.93555C10.7809 6.98112 10.9697 7.00391 11.1748 7.00391C11.3571 7.00391 11.5182 6.98275 11.6582 6.94043C11.8014 6.89811 11.9219 6.83952 12.0195 6.76465C12.1172 6.68978 12.1921 6.60026 12.2441 6.49609C12.2962 6.38867 12.3223 6.27148 12.3223 6.14453ZM21.0117 4.88477H18.0918V6.8916H21.5049V8H16.7148V0.890625H21.4902V2.00879H18.0918V3.80078H21.0117V4.88477ZM27.0547 5.34375H26.0146V8H24.6426V0.890625H27.0254C27.4193 0.890625 27.7757 0.937826 28.0947 1.03223C28.4137 1.12337 28.6855 1.25846 28.9102 1.4375C29.138 1.61654 29.3122 1.83952 29.4326 2.10645C29.5563 2.37337 29.6182 2.68262 29.6182 3.03418C29.6182 3.28809 29.5872 3.51758 29.5254 3.72266C29.4668 3.92448 29.3805 4.10677 29.2666 4.26953C29.1559 4.42904 29.0208 4.56901 28.8613 4.68945C28.7051 4.8099 28.5293 4.91406 28.334 5.00195L29.8623 7.93652V8H28.3926L27.0547 5.34375ZM26.0146 4.23047H27.0303C27.4176 4.23047 27.7155 4.13281 27.9238 3.9375C28.1354 3.73893 28.2412 3.46875 28.2412 3.12695C28.2412 2.77214 28.1387 2.49707 27.9336 2.30176C27.7285 2.10319 27.4258 2.00391 27.0254 2.00391H26.0146V4.23047ZM36.3398 6.14453C36.3398 6.01758 36.3171 5.89876 36.2715 5.78809C36.2292 5.67741 36.1543 5.57487 36.0469 5.48047C35.9427 5.38281 35.8044 5.29492 35.6318 5.2168C35.4626 5.13542 35.251 5.06055 34.9971 4.99219C34.6878 4.90755 34.3916 4.80176 34.1084 4.6748C33.8285 4.54785 33.5811 4.39486 33.3662 4.21582C33.1514 4.03678 32.9788 3.82845 32.8486 3.59082C32.7217 3.35319 32.6582 3.07975 32.6582 2.77051C32.6582 2.47103 32.7217 2.19922 32.8486 1.95508C32.9756 1.71094 33.1514 1.5026 33.376 1.33008C33.6006 1.15755 33.8659 1.02572 34.1719 0.93457C34.4779 0.840169 34.8099 0.792969 35.168 0.792969C35.5391 0.792969 35.8776 0.84668 36.1836 0.954102C36.4928 1.06152 36.7581 1.21289 36.9795 1.4082C37.2008 1.60026 37.3734 1.82975 37.4971 2.09668C37.6208 2.36361 37.6826 2.65658 37.6826 2.97559H36.3447C36.3382 2.81608 36.3089 2.6696 36.2568 2.53613C36.208 2.40267 36.1331 2.28874 36.0322 2.19434C35.9346 2.09668 35.8109 2.02181 35.6611 1.96973C35.5146 1.91439 35.3421 1.88672 35.1436 1.88672C34.9613 1.88672 34.7985 1.90951 34.6553 1.95508C34.5153 1.9974 34.3965 2.05924 34.2988 2.14062C34.2012 2.21875 34.1263 2.31315 34.0742 2.42383C34.0254 2.53125 34.001 2.64844 34.001 2.77539C34.001 2.90885 34.0335 3.0293 34.0986 3.13672C34.167 3.24414 34.2646 3.3418 34.3916 3.42969C34.5186 3.51432 34.6715 3.59245 34.8506 3.66406C35.0329 3.73568 35.238 3.80241 35.4658 3.86426C35.7913 3.95866 36.0908 4.07422 36.3643 4.21094C36.6377 4.34766 36.8721 4.51042 37.0674 4.69922C37.266 4.88477 37.4189 5.09798 37.5264 5.33887C37.637 5.5765 37.6924 5.8418 37.6924 6.13477C37.6924 6.44727 37.6289 6.72559 37.502 6.96973C37.3783 7.21061 37.2057 7.41569 36.9844 7.58496C36.763 7.75098 36.4993 7.87793 36.1934 7.96582C35.8874 8.05046 35.5537 8.09277 35.1924 8.09277C34.9678 8.09277 34.7432 8.07161 34.5186 8.0293C34.2972 7.99023 34.084 7.92839 33.8789 7.84375C33.6771 7.75911 33.4883 7.65332 33.3125 7.52637C33.1367 7.39941 32.9837 7.2513 32.8535 7.08203C32.7266 6.91276 32.6257 6.7207 32.5508 6.50586C32.4792 6.29102 32.4434 6.05339 32.4434 5.79297H33.791C33.7975 6.00781 33.835 6.19173 33.9033 6.34473C33.9717 6.49772 34.0661 6.62305 34.1865 6.7207C34.3102 6.81836 34.4567 6.88997 34.626 6.93555C34.7985 6.98112 34.9873 7.00391 35.1924 7.00391C35.3747 7.00391 35.5358 6.98275 35.6758 6.94043C35.819 6.89811 35.9395 6.83952 36.0371 6.76465C36.1348 6.68978 36.2096 6.60026 36.2617 6.49609C36.3138 6.38867 36.3398 6.27148 36.3398 6.14453Z"/>
</svg>
