<svg width="54" height="9" viewBox="0 0 54 9" xmlns="http://www.w3.org/2000/svg">
<path d="M2.97266 6.0127L4.31543 0.890625H5.8291L3.67578 8H2.2793L0.130859 0.890625H1.64453L2.97266 6.0127ZM13 4.88477H10.0801V6.8916H13.4932V8H8.70312V0.890625H13.4785V2.00879H10.0801V3.80078H13V4.88477ZM19.043 5.34375H18.0029V8H16.6309V0.890625H19.0137C19.4076 0.890625 19.764 0.937826 20.083 1.03223C20.402 1.12337 20.6738 1.25846 20.8984 1.4375C21.1263 1.61654 21.3005 1.83952 21.4209 2.10645C21.5446 2.37337 21.6064 2.68262 21.6064 3.03418C21.6064 3.28809 21.5755 3.51758 21.5137 3.72266C21.4551 3.92448 21.3688 4.10677 21.2549 4.26953C21.1442 4.42904 21.0091 4.56901 20.8496 4.68945C20.6934 4.8099 20.5176 4.91406 20.3223 5.00195L21.8506 7.93652V8H20.3809L19.043 5.34375ZM18.0029 4.23047H19.0186C19.4059 4.23047 19.7038 4.13281 19.9121 3.9375C20.1237 3.73893 20.2295 3.46875 20.2295 3.12695C20.2295 2.77214 20.127 2.49707 19.9219 2.30176C19.7168 2.10319 19.4141 2.00391 19.0137 2.00391H18.0029V4.23047ZM28.3281 6.14453C28.3281 6.01758 28.3053 5.89876 28.2598 5.78809C28.2174 5.67741 28.1426 5.57487 28.0352 5.48047C27.931 5.38281 27.7926 5.29492 27.6201 5.2168C27.4508 5.13542 27.2393 5.06055 26.9854 4.99219C26.6761 4.90755 26.3799 4.80176 26.0967 4.6748C25.8167 4.54785 25.5693 4.39486 25.3545 4.21582C25.1396 4.03678 24.9671 3.82845 24.8369 3.59082C24.71 3.35319 24.6465 3.07975 24.6465 2.77051C24.6465 2.47103 24.71 2.19922 24.8369 1.95508C24.9639 1.71094 25.1396 1.5026 25.3643 1.33008C25.5889 1.15755 25.8542 1.02572 26.1602 0.93457C26.4661 0.840169 26.7982 0.792969 27.1562 0.792969C27.5273 0.792969 27.8659 0.84668 28.1719 0.954102C28.4811 1.06152 28.7464 1.21289 28.9678 1.4082C29.1891 1.60026 29.3617 1.82975 29.4854 2.09668C29.609 2.36361 29.6709 2.65658 29.6709 2.97559H28.333C28.3265 2.81608 28.2972 2.6696 28.2451 2.53613C28.1963 2.40267 28.1214 2.28874 28.0205 2.19434C27.9229 2.09668 27.7992 2.02181 27.6494 1.96973C27.5029 1.91439 27.3304 1.88672 27.1318 1.88672C26.9495 1.88672 26.7868 1.90951 26.6436 1.95508C26.5036 1.9974 26.3848 2.05924 26.2871 2.14062C26.1895 2.21875 26.1146 2.31315 26.0625 2.42383C26.0137 2.53125 25.9893 2.64844 25.9893 2.77539C25.9893 2.90885 26.0218 3.0293 26.0869 3.13672C26.1553 3.24414 26.2529 3.3418 26.3799 3.42969C26.5068 3.51432 26.6598 3.59245 26.8389 3.66406C27.0212 3.73568 27.2262 3.80241 27.4541 3.86426C27.7796 3.95866 28.0791 4.07422 28.3525 4.21094C28.626 4.34766 28.8604 4.51042 29.0557 4.69922C29.2542 4.88477 29.4072 5.09798 29.5146 5.33887C29.6253 5.5765 29.6807 5.8418 29.6807 6.13477C29.6807 6.44727 29.6172 6.72559 29.4902 6.96973C29.3665 7.21061 29.194 7.41569 28.9727 7.58496C28.7513 7.75098 28.4876 7.87793 28.1816 7.96582C27.8757 8.05046 27.542 8.09277 27.1807 8.09277C26.9561 8.09277 26.7314 8.07161 26.5068 8.0293C26.2855 7.99023 26.0723 7.92839 25.8672 7.84375C25.6654 7.75911 25.4766 7.65332 25.3008 7.52637C25.125 7.39941 24.972 7.2513 24.8418 7.08203C24.7148 6.91276 24.6139 6.7207 24.5391 6.50586C24.4674 6.29102 24.4316 6.05339 24.4316 5.79297H25.7793C25.7858 6.00781 25.8232 6.19173 25.8916 6.34473C25.96 6.49772 26.0544 6.62305 26.1748 6.7207C26.2985 6.81836 26.445 6.88997 26.6143 6.93555C26.7868 6.98112 26.9756 7.00391 27.1807 7.00391C27.363 7.00391 27.5241 6.98275 27.6641 6.94043C27.8073 6.89811 27.9277 6.83952 28.0254 6.76465C28.123 6.68978 28.1979 6.60026 28.25 6.49609C28.3021 6.38867 28.3281 6.27148 28.3281 6.14453ZM32.9453 0.890625H37.0566V1.99902H35.6699V6.89648H37.0566V8H32.9453V6.89648H34.2979V1.99902H32.9453V0.890625ZM45.6094 4.96777C45.6094 5.4235 45.5492 5.84342 45.4287 6.22754C45.3083 6.61165 45.1341 6.94206 44.9062 7.21875C44.6784 7.49544 44.4001 7.71191 44.0713 7.86816C43.7458 8.02116 43.3779 8.09766 42.9678 8.09766C42.5576 8.09766 42.193 8.02116 41.874 7.86816C41.555 7.71191 41.2865 7.49544 41.0684 7.21875C40.8503 6.9388 40.6842 6.6084 40.5703 6.22754C40.4564 5.84342 40.3994 5.4235 40.3994 4.96777V3.93262C40.3994 3.47689 40.4564 3.05697 40.5703 2.67285C40.6842 2.28874 40.8503 1.95833 41.0684 1.68164C41.2865 1.40169 41.5534 1.18359 41.8691 1.02734C42.1882 0.871094 42.5527 0.792969 42.9629 0.792969C43.3763 0.792969 43.7458 0.871094 44.0713 1.02734C44.4001 1.18359 44.6784 1.40169 44.9062 1.68164C45.1341 1.95833 45.3083 2.28874 45.4287 2.67285C45.5492 3.05697 45.6094 3.47689 45.6094 3.93262V4.96777ZM44.2178 3.92285C44.2178 3.63314 44.1934 3.36621 44.1445 3.12207C44.099 2.87793 44.0257 2.66797 43.9248 2.49219C43.8239 2.31641 43.6937 2.17969 43.5342 2.08203C43.3779 1.98112 43.1875 1.93066 42.9629 1.93066C42.7415 1.93066 42.556 1.98112 42.4062 2.08203C42.2565 2.17969 42.1361 2.31641 42.0449 2.49219C41.9538 2.66797 41.8887 2.87793 41.8496 3.12207C41.8105 3.36621 41.791 3.63314 41.791 3.92285V4.96777C41.791 5.25423 41.8105 5.51953 41.8496 5.76367C41.8887 6.00781 41.9538 6.2194 42.0449 6.39844C42.1361 6.57747 42.2565 6.71745 42.4062 6.81836C42.556 6.91927 42.7432 6.96973 42.9678 6.96973C43.1891 6.96973 43.3779 6.91927 43.5342 6.81836C43.6937 6.71745 43.8223 6.5791 43.9199 6.40332C44.0208 6.22428 44.0957 6.0127 44.1445 5.76855C44.1934 5.52441 44.2178 5.25749 44.2178 4.96777V3.92285ZM53.3418 8H51.9746L49.9971 3.41504V8H48.6152V0.890625H49.9971L51.96 5.45605L51.9648 0.890625H53.3418V8Z"/>
</svg>
