<svg width="38" height="9" viewBox="0 0 38 9" xmlns="http://www.w3.org/2000/svg">
<path d="M2.97852 6.0127L4.32129 0.890625H5.83496L3.68164 8H2.28516L0.136719 0.890625H1.65039L2.97852 6.0127ZM8.93359 0.890625H13.0449V1.99902H11.6582V6.89648H13.0449V8H8.93359V6.89648H10.2861V1.99902H8.93359V0.890625ZM16.6074 8V0.890625H18.4482C18.9202 0.890625 19.3467 0.972005 19.7275 1.13477C20.1117 1.29427 20.4388 1.51888 20.709 1.80859C20.9824 2.09505 21.1924 2.43848 21.3389 2.83887C21.4886 3.23926 21.5635 3.67871 21.5635 4.15723V4.74316C21.5635 5.22168 21.4886 5.66113 21.3389 6.06152C21.1924 6.45866 20.9857 6.80208 20.7188 7.0918C20.4518 7.37826 20.1312 7.60124 19.7568 7.76074C19.3825 7.92025 18.9691 8 18.5166 8H16.6074ZM17.9893 2.00391V6.89648H18.5166C18.7738 6.89648 19.0033 6.84766 19.2051 6.75C19.4102 6.65234 19.5827 6.51074 19.7227 6.3252C19.8659 6.13965 19.9749 5.91504 20.0498 5.65137C20.1247 5.38444 20.1621 5.08171 20.1621 4.74316V4.14746C20.1621 3.82845 20.1247 3.53874 20.0498 3.27832C19.9782 3.01465 19.8691 2.78841 19.7227 2.59961C19.5794 2.41081 19.4004 2.26432 19.1855 2.16016C18.974 2.05599 18.7282 2.00391 18.4482 2.00391H17.9893ZM29.0176 4.88477H26.0977V6.8916H29.5107V8H24.7207V0.890625H29.4961V2.00879H26.0977V3.80078H29.0176V4.88477ZM37.6094 4.96777C37.6094 5.4235 37.5492 5.84342 37.4287 6.22754C37.3083 6.61165 37.1341 6.94206 36.9062 7.21875C36.6784 7.49544 36.4001 7.71191 36.0713 7.86816C35.7458 8.02116 35.3779 8.09766 34.9678 8.09766C34.5576 8.09766 34.193 8.02116 33.874 7.86816C33.555 7.71191 33.2865 7.49544 33.0684 7.21875C32.8503 6.9388 32.6842 6.6084 32.5703 6.22754C32.4564 5.84342 32.3994 5.4235 32.3994 4.96777V3.93262C32.3994 3.47689 32.4564 3.05697 32.5703 2.67285C32.6842 2.28874 32.8503 1.95833 33.0684 1.68164C33.2865 1.40169 33.5534 1.18359 33.8691 1.02734C34.1882 0.871094 34.5527 0.792969 34.9629 0.792969C35.3763 0.792969 35.7458 0.871094 36.0713 1.02734C36.4001 1.18359 36.6784 1.40169 36.9062 1.68164C37.1341 1.95833 37.3083 2.28874 37.4287 2.67285C37.5492 3.05697 37.6094 3.47689 37.6094 3.93262V4.96777ZM36.2178 3.92285C36.2178 3.63314 36.1934 3.36621 36.1445 3.12207C36.099 2.87793 36.0257 2.66797 35.9248 2.49219C35.8239 2.31641 35.6937 2.17969 35.5342 2.08203C35.3779 1.98112 35.1875 1.93066 34.9629 1.93066C34.7415 1.93066 34.556 1.98112 34.4062 2.08203C34.2565 2.17969 34.1361 2.31641 34.0449 2.49219C33.9538 2.66797 33.8887 2.87793 33.8496 3.12207C33.8105 3.36621 33.791 3.63314 33.791 3.92285V4.96777C33.791 5.25423 33.8105 5.51953 33.8496 5.76367C33.8887 6.00781 33.9538 6.2194 34.0449 6.39844C34.1361 6.57747 34.2565 6.71745 34.4062 6.81836C34.556 6.91927 34.7432 6.96973 34.9678 6.96973C35.1891 6.96973 35.3779 6.91927 35.5342 6.81836C35.6937 6.71745 35.8223 6.5791 35.9199 6.40332C36.0208 6.22428 36.0957 6.0127 36.1445 5.76855C36.1934 5.52441 36.2178 5.25749 36.2178 4.96777V3.92285Z"/>
</svg>
