<svg width="30" height="8" viewBox="0 0 30 8" xmlns="http://www.w3.org/2000/svg">
<path d="M2.98145 6.0127L4.32422 0.890625H5.83789L3.68457 8H2.28809L0.139648 0.890625H1.65332L2.98145 6.0127ZM8.93652 0.890625H13.0479V1.99902H11.6611V6.89648H13.0479V8H8.93652V6.89648H10.2891V1.99902H8.93652V0.890625ZM21.0146 4.88477H18.0947V6.8916H21.5078V8H16.7178V0.890625H21.4932V2.00879H18.0947V3.80078H21.0146V4.88477ZM28.1221 5.17285L28.6396 0.890625H29.8994L28.9131 8H27.6729L26.999 3.80078L26.3496 8H25.1094L24.1328 0.890625H25.3877L25.8955 5.14355L26.501 0.890625H27.4824L28.1221 5.17285Z"/>
</svg>
