<svg width="32" height="34" viewBox="0 0 32 34" xmlns="http://www.w3.org/2000/svg">
<g>
<path fill-rule="evenodd" clip-rule="evenodd" d="M26.22 21.09L18 1V0H16V4H12.5C11.6716 4 11 4.67157 11 5.5V6H16V9H10C9.44772 9 9 9.44772 9 10V12.4L10 13.4V14H8V7H6V12H2V13C2 13.5523 2.44772 14 3 14H6V17H8V16H10C10 16.5523 10.4477 17 11 17H16V28H11V29C11.0016 29.9038 11.6091 30.6942 12.4821 30.9282C13.3551 31.1623 14.2765 30.7818 14.73 30H26.28C26.7377 30.7715 27.653 31.1439 28.5193 30.911C29.3856 30.6782 29.9908 29.897 30 29V26C29.8299 23.7567 28.3452 21.8282 26.22 21.09ZM25 20.77H24.86L18 20.08V3.49L25 20.77ZM12 15V12.6L11 11.6V11H16V15H12ZM18 22.09L24.67 22.74C26.3942 22.9387 27.7648 24.2804 28 26V28H18V22.09Z"/>
</g>
</svg>
