<svg width="32" height="32" viewBox="0 0 32 32" xmlns="http://www.w3.org/2000/svg">
<g>
<path d="M22.5 26L20 23.5L21.5 22L22.5 23L25 20.5L26.5 22L22.5 26ZM15 16C15 17.313 13.7423 18 12.5 18C11.2577 18 10 17.313 10 16C10 13.9838 12.5 11.75 12.5 11.75C12.5 11.75 15 14.0113 15 16ZM8 16C8 18.3625 10.025 20 12.5 20C14.975 20 17 18.3625 17 16C17 13 12.5 9 12.5 9C12.5 9 8 13 8 16ZM23 16V7L12.5 2L2 7V19C2 25.1 12.5 30 12.5 30C12.5 30 14.85 28.91 17.33 27.1C18.6 28.86 20.67 30 23 30C26.86 30 30 26.86 30 23C30 19.14 26.86 16 23 16ZM16 23C16 23.81 16.14 24.58 16.39 25.3C15 26.34 13.56 27.19 12.5 27.75C9.60999 26.22 4 22.53 4 19V8.25L12.5 4.21997L21 8.25V16.3C18.11 17.16 16 19.83 16 23ZM23 28C20.2432 28 18 25.7568 18 23C18 20.2432 20.2432 18 23 18C25.7568 18 28 20.2432 28 23C28 25.7568 25.7568 28 23 28Z"/>
</g>
</svg>
