<svg width="30" height="8" viewBox="0 0 30 8" xmlns="http://www.w3.org/2000/svg">
<path d="M4.10449 5.17285L4.62207 0.890625H5.88184L4.89551 8H3.65527L2.98145 3.80078L2.33203 8H1.0918L0.115234 0.890625H1.37012L1.87793 5.14355L2.4834 0.890625H3.46484L4.10449 5.17285ZM8.93652 0.890625H13.0479V1.99902H11.6611V6.89648H13.0479V8H8.93652V6.89648H10.2891V1.99902H8.93652V0.890625ZM21.1514 5.05566H18.1045V8H16.7275V0.890625H21.5322V2.00879H18.1045V3.94238H21.1514V5.05566ZM24.9482 0.890625H29.0596V1.99902H27.6729V6.89648H29.0596V8H24.9482V6.89648H26.3008V1.99902H24.9482V0.890625Z"/>
</svg>
