<svg width="32" height="32" viewBox="0 0 32 32" xmlns="http://www.w3.org/2000/svg">
<g>
<path d="M29.45 17.25L23.05 18.95L18 16L23.05 13L29.45 14.75L30 12.85L25.5 11.65L28.65 9.84998L27.65 8.14996L24.5 10L25.7 5.5L23.75 5L22.05 11.35L17 14.3V8.5L21.65 3.75L20.25 2.34998L17 5.5V2H15V5.5L11.75 2.34998L10.35 3.75L15 8.5V14.3L9.95001 11.35L8.25 5L6.29999 5.5L7.5 10L4.34998 8.14996L3.34998 9.84998L6.5 11.65L2 12.85L2.55 14.75L8.95001 13L14 16L8.95001 18.95L2.54999 17.25L2 19.15L6.5 20.35L3.34998 22.15L4.34998 23.85L7.5 22L6.29999 26.5L8.25 27L9.95001 20.65L15 17.7V23.5L10.35 28.25L11.75 29.65L15 26.5V30H17V26.5L20.25 29.65L21.65 28.25L17 23.5V17.7L22.05 20.65L23.75 27L25.7 26.5L24.5 22L27.65 23.85L28.65 22.15L25.5 20.35L30 19.15L29.45 17.25Z"/>
</g>
</svg>
