<svg width="32" height="32" viewBox="0 0 32 32" xmlns="http://www.w3.org/2000/svg">
<g>
<path fill-rule="evenodd" clip-rule="evenodd" d="M16 2C8.28 2 2 8.28 2 16C2 23.72 8.28 30 16 30C23.72 30 30 23.72 30 16C30 8.28 23.72 2 16 2ZM10.024 15H4.041C4.215 12.897 4.941 10.951 6.063 9.294C7.347 9.828 8.859 10.234 10.472 10.519C10.221 11.961 10.071 13.477 10.024 15ZM12.426 10.797C13.604 10.927 14.806 11 16 11C17.194 11 18.396 10.927 19.574 10.798C19.792 12.051 19.936 13.458 19.981 15H12.02C12.064 13.457 12.208 12.05 12.426 10.797ZM10.024 17C10.07 18.522 10.221 20.038 10.472 21.48C8.857 21.766 7.35 22.176 6.066 22.71C4.943 21.052 4.216 19.105 4.041 17H10.024ZM12.02 17H19.981C19.936 18.543 19.792 19.95 19.574 21.203C18.396 21.073 17.194 21 16 21C14.806 21 13.604 21.073 12.426 21.203C12.208 19.95 12.064 18.543 12.02 17ZM21.976 17H27.959C27.785 19.105 27.057 21.052 25.934 22.71C24.649 22.176 23.143 21.765 21.528 21.48C21.779 20.038 21.929 18.522 21.976 17ZM21.976 15C21.93 13.477 21.779 11.961 21.527 10.519C23.141 10.234 24.652 9.828 25.936 9.294C27.058 10.951 27.784 12.897 27.959 15H21.976ZM24.621 7.674C23.643 8.037 22.469 8.35 21.115 8.582C20.718 7.03 20.197 5.632 19.542 4.535C21.497 5.14 23.233 6.238 24.621 7.674ZM16 4C17.034 4 18.32 5.754 19.15 8.852C18.169 8.947 17.118 9 16 9C14.882 9 13.832 8.946 12.85 8.85C13.68 5.753 14.966 4 16 4ZM12.457 4.535C11.802 5.633 11.281 7.031 10.884 8.583C9.531 8.35 8.356 8.037 7.378 7.675C8.766 6.238 10.502 5.14 12.457 4.535ZM7.374 24.321C8.352 23.959 9.532 23.648 10.884 23.417C11.281 24.969 11.802 26.368 12.457 27.466C10.5 26.859 8.763 25.76 7.374 24.321ZM16 28C14.966 28 13.681 26.247 12.851 23.151C13.833 23.055 14.881 23 16 23C17.119 23 18.167 23.055 19.149 23.151C18.319 26.247 17.034 28 16 28ZM19.543 27.465C20.198 26.367 20.72 24.969 21.116 23.416C22.468 23.647 23.648 23.959 24.626 24.32C23.237 25.76 21.5 26.859 19.543 27.465Z"/>
</g>
</svg>
