<svg width="62" height="8" viewBox="0 0 62 8" xmlns="http://www.w3.org/2000/svg">
<path d="M2.08105 6.8916H5.60645V8H0.411133V7.16016L3.8584 2.00879H0.420898V0.890625H5.51855L5.52344 1.70605L2.08105 6.8916ZM8.9248 0.890625H13.0361V1.99902H11.6494V6.89648H13.0361V8H8.9248V6.89648H10.2773V1.99902H8.9248V0.890625ZM18.0879 5.39258V8H16.7158V0.890625H19.1475C19.5348 0.890625 19.8848 0.947591 20.1973 1.06152C20.5098 1.1722 20.7751 1.32845 20.9932 1.53027C21.2145 1.72884 21.3838 1.9681 21.501 2.24805C21.6214 2.52799 21.6816 2.83887 21.6816 3.18066C21.6816 3.49967 21.6214 3.79427 21.501 4.06445C21.3838 4.33464 21.2145 4.56901 20.9932 4.76758C20.7751 4.96289 20.5098 5.11589 20.1973 5.22656C19.8848 5.33724 19.5348 5.39258 19.1475 5.39258H18.0879ZM18.0879 4.2793H19.1475C19.3428 4.2793 19.512 4.25 19.6553 4.19141C19.7985 4.13281 19.9173 4.05306 20.0117 3.95215C20.1094 3.85124 20.181 3.73568 20.2266 3.60547C20.2754 3.47201 20.2998 3.33366 20.2998 3.19043C20.2998 3.02441 20.2754 2.86979 20.2266 2.72656C20.181 2.58333 20.1094 2.45801 20.0117 2.35059C19.9173 2.24316 19.7985 2.15853 19.6553 2.09668C19.512 2.03483 19.3428 2.00391 19.1475 2.00391H18.0879V4.2793ZM29.4385 5.41211H25.3711V4.31348H29.4385V5.41211ZM37.1514 5.05566H34.1045V8H32.7275V0.890625H37.5322V2.00879H34.1045V3.94238H37.1514V5.05566ZM40.9482 0.890625H45.0596V1.99902H43.6729V6.89648H45.0596V8H40.9482V6.89648H42.3008V1.99902H40.9482V0.890625ZM50.1211 6.8916H53.4512V8H48.7441V0.890625H50.1211V6.8916ZM61.0322 4.88477H58.1123V6.8916H61.5254V8H56.7354V0.890625H61.5107V2.00879H58.1123V3.80078H61.0322V4.88477Z"/>
</svg>
