<svg width="32" height="32" viewBox="0 0 32 32" xmlns="http://www.w3.org/2000/svg">
<g>
<path fill-rule="evenodd" clip-rule="evenodd" d="M20.169 15.755L27.293 22.879C28.463 24.048 28.463 25.952 27.293 27.121L27.121 27.293C26.536 27.878 25.768 28.17 25 28.17C24.232 28.17 23.464 27.878 22.879 27.293L15.755 20.169C14.61 20.697 13.341 21 12 21C7.038 21 3 16.962 3 12C3 7.038 7.038 3 12 3C16.962 3 21 7.038 21 12C21 13.341 20.697 14.61 20.169 15.755ZM12 5C8.14 5 5 8.14 5 12C5 15.86 8.14 19 12 19C15.86 19 19 15.86 19 12C19 8.14 15.86 5 12 5ZM25.707 25.879L25.879 25.707C26.269 25.317 26.269 24.683 25.879 24.293L19.099 17.513C18.638 18.106 18.106 18.638 17.513 19.099L24.293 25.879C24.683 26.269 25.317 26.269 25.707 25.879ZM11 11V8H13V11H16V13H13V16H11V13H8V11H11Z"/>
</g>
</svg>
