<svg width="87" height="9" viewBox="0 0 87 9" xmlns="http://www.w3.org/2000/svg">
<path d="M4.10352 6.51562L4.51855 8H5.96387L3.67871 0.890625H2.43359L0.104492 8H1.5498L1.96973 6.51562H4.10352ZM2.30664 5.34863L3.05371 2.73145L3.78125 5.34863H2.30664ZM8.58398 8H10.4932C10.8089 8 11.1051 7.96094 11.3818 7.88281C11.6618 7.80469 11.9173 7.69238 12.1484 7.5459C12.347 7.4222 12.5293 7.26921 12.6953 7.08691C12.8613 6.90137 13.0062 6.69954 13.1299 6.48145C13.2601 6.2373 13.361 5.96875 13.4326 5.67578C13.5042 5.38281 13.54 5.07194 13.54 4.74316V4.15723C13.54 3.81543 13.501 3.49316 13.4229 3.19043C13.348 2.8877 13.2406 2.611 13.1006 2.36035C12.9801 2.15527 12.8385 1.96647 12.6758 1.79395C12.5163 1.61816 12.334 1.47005 12.1289 1.34961C11.8945 1.20312 11.6341 1.09082 11.3477 1.0127C11.0612 0.931315 10.7536 0.890625 10.4248 0.890625H8.58398V8ZM9.96582 2.00391H10.4248C10.5908 2.00391 10.7438 2.02344 10.8838 2.0625C11.027 2.09831 11.1572 2.15039 11.2744 2.21875C11.4274 2.3099 11.5609 2.42708 11.6748 2.57031C11.792 2.71354 11.8864 2.8763 11.958 3.05859C12.0166 3.21159 12.0605 3.38086 12.0898 3.56641C12.1224 3.7487 12.1387 3.94238 12.1387 4.14746V4.74316C12.1387 4.96126 12.1224 5.16471 12.0898 5.35352C12.0605 5.53906 12.0166 5.70833 11.958 5.86133C11.8864 6.03711 11.8001 6.19173 11.6992 6.3252C11.6016 6.4554 11.4909 6.56283 11.3672 6.64746C11.2467 6.72884 11.1133 6.79069 10.9668 6.83301C10.8203 6.87533 10.6624 6.89648 10.4932 6.89648H9.96582V2.00391ZM19.0312 5.34375L20.3691 8H21.8389V7.93652L20.3105 5.00195C20.5059 4.91406 20.6816 4.8099 20.8379 4.68945C20.9974 4.56901 21.1341 4.42741 21.248 4.26465C21.3587 4.10514 21.4434 3.92448 21.502 3.72266C21.5638 3.51758 21.5947 3.28809 21.5947 3.03418C21.5947 2.68262 21.5329 2.37337 21.4092 2.10645C21.2887 1.83952 21.1162 1.61654 20.8916 1.4375C20.6637 1.25846 20.3903 1.12337 20.0713 1.03223C19.7523 0.937826 19.3958 0.890625 19.002 0.890625H16.6191V8H17.9912V5.34375H19.0312ZM17.9912 4.23047V2.00391H19.002C19.1908 2.00391 19.3584 2.02669 19.5049 2.07227C19.6514 2.11784 19.7751 2.18294 19.876 2.26758C19.9899 2.36198 20.0745 2.48242 20.1299 2.62891C20.1885 2.77214 20.2178 2.93815 20.2178 3.12695C20.2178 3.2832 20.195 3.4248 20.1494 3.55176C20.1071 3.67871 20.0436 3.78776 19.959 3.87891C19.8581 3.99284 19.7262 4.08073 19.5635 4.14258C19.404 4.20117 19.2184 4.23047 19.0068 4.23047H17.9912ZM29 4.88477V3.80078H26.0801V2.00879H29.4785V0.890625H24.7031V8H29.4932V6.8916H26.0801V4.88477H29ZM36.3223 6.14453C36.3223 6.27148 36.2962 6.38867 36.2441 6.49609C36.1921 6.60026 36.1172 6.68978 36.0195 6.76465C35.9219 6.83952 35.8014 6.89811 35.6582 6.94043C35.5182 6.98275 35.3571 7.00391 35.1748 7.00391C34.9697 7.00391 34.7809 6.98112 34.6084 6.93555C34.4391 6.88997 34.2943 6.81836 34.1738 6.7207C34.0501 6.62305 33.9541 6.49772 33.8857 6.34473C33.8174 6.19173 33.7799 6.00781 33.7734 5.79297H32.4258C32.4258 6.16081 32.4958 6.48145 32.6357 6.75488C32.779 7.02832 32.9727 7.26595 33.2168 7.46777C33.474 7.67285 33.7751 7.8291 34.1201 7.93652C34.4684 8.04069 34.82 8.09277 35.1748 8.09277C35.5361 8.09277 35.8698 8.05046 36.1758 7.96582C36.4818 7.87793 36.7454 7.74935 36.9668 7.58008C37.1882 7.41406 37.3607 7.21061 37.4844 6.96973C37.6113 6.72559 37.6748 6.44727 37.6748 6.13477C37.6748 5.77344 37.5918 5.45443 37.4258 5.17773C37.2598 4.90104 37.0368 4.65853 36.7568 4.4502C36.5713 4.32324 36.3678 4.21094 36.1465 4.11328C35.9251 4.01562 35.6924 3.93262 35.4482 3.86426C35.2204 3.80241 35.0153 3.73568 34.833 3.66406C34.654 3.59245 34.501 3.5127 34.374 3.4248C34.2471 3.34017 34.1494 3.24414 34.0811 3.13672C34.016 3.0293 33.9834 2.90885 33.9834 2.77539C33.9834 2.64844 34.0078 2.53125 34.0566 2.42383C34.1087 2.31315 34.1836 2.21712 34.2812 2.13574C34.3789 2.05762 34.4977 1.9974 34.6377 1.95508C34.7809 1.90951 34.9437 1.88672 35.126 1.88672C35.3245 1.88672 35.4971 1.91439 35.6436 1.96973C35.7933 2.02181 35.9186 2.09505 36.0195 2.18945C36.1172 2.28711 36.1904 2.40267 36.2393 2.53613C36.2913 2.6696 36.3206 2.81608 36.3271 2.97559H37.665C37.665 2.65658 37.6032 2.36361 37.4795 2.09668C37.3558 1.82975 37.1833 1.59863 36.9619 1.40332C36.7406 1.21126 36.4753 1.06152 36.166 0.954102C35.86 0.84668 35.5215 0.792969 35.1504 0.792969C34.7923 0.792969 34.4603 0.840169 34.1543 0.93457C33.8483 1.02572 33.583 1.15755 33.3584 1.33008C33.1338 1.5026 32.958 1.71094 32.8311 1.95508C32.7041 2.19922 32.6406 2.47103 32.6406 2.77051C32.6406 3.03092 32.6878 3.27181 32.7822 3.49316C32.8799 3.71452 33.0231 3.91634 33.2119 4.09863C33.4007 4.28092 33.6432 4.44857 33.9395 4.60156C34.2389 4.75456 34.5856 4.88477 34.9795 4.99219C35.2334 5.06055 35.445 5.13542 35.6143 5.2168C35.7868 5.29492 35.9268 5.38118 36.0342 5.47559C36.1383 5.57324 36.2116 5.67741 36.2539 5.78809C36.2995 5.89876 36.3223 6.01758 36.3223 6.14453ZM44.3281 6.14453C44.3281 6.27148 44.3021 6.38867 44.25 6.49609C44.1979 6.60026 44.123 6.68978 44.0254 6.76465C43.9277 6.83952 43.8073 6.89811 43.6641 6.94043C43.5241 6.98275 43.363 7.00391 43.1807 7.00391C42.9756 7.00391 42.7868 6.98112 42.6143 6.93555C42.445 6.88997 42.3001 6.81836 42.1797 6.7207C42.056 6.62305 41.96 6.49772 41.8916 6.34473C41.8232 6.19173 41.7858 6.00781 41.7793 5.79297H40.4316C40.4316 6.16081 40.5016 6.48145 40.6416 6.75488C40.7848 7.02832 40.9785 7.26595 41.2227 7.46777C41.4798 7.67285 41.7809 7.8291 42.126 7.93652C42.4743 8.04069 42.8258 8.09277 43.1807 8.09277C43.542 8.09277 43.8757 8.05046 44.1816 7.96582C44.4876 7.87793 44.7513 7.74935 44.9727 7.58008C45.194 7.41406 45.3665 7.21061 45.4902 6.96973C45.6172 6.72559 45.6807 6.44727 45.6807 6.13477C45.6807 5.77344 45.5977 5.45443 45.4316 5.17773C45.2656 4.90104 45.0426 4.65853 44.7627 4.4502C44.5771 4.32324 44.3737 4.21094 44.1523 4.11328C43.931 4.01562 43.6982 3.93262 43.4541 3.86426C43.2262 3.80241 43.0212 3.73568 42.8389 3.66406C42.6598 3.59245 42.5068 3.5127 42.3799 3.4248C42.2529 3.34017 42.1553 3.24414 42.0869 3.13672C42.0218 3.0293 41.9893 2.90885 41.9893 2.77539C41.9893 2.64844 42.0137 2.53125 42.0625 2.42383C42.1146 2.31315 42.1895 2.21712 42.2871 2.13574C42.3848 2.05762 42.5036 1.9974 42.6436 1.95508C42.7868 1.90951 42.9495 1.88672 43.1318 1.88672C43.3304 1.88672 43.5029 1.91439 43.6494 1.96973C43.7992 2.02181 43.9245 2.09505 44.0254 2.18945C44.123 2.28711 44.1963 2.40267 44.2451 2.53613C44.2972 2.6696 44.3265 2.81608 44.333 2.97559H45.6709C45.6709 2.65658 45.609 2.36361 45.4854 2.09668C45.3617 1.82975 45.1891 1.59863 44.9678 1.40332C44.7464 1.21126 44.4811 1.06152 44.1719 0.954102C43.8659 0.84668 43.5273 0.792969 43.1562 0.792969C42.7982 0.792969 42.4661 0.840169 42.1602 0.93457C41.8542 1.02572 41.5889 1.15755 41.3643 1.33008C41.1396 1.5026 40.9639 1.71094 40.8369 1.95508C40.71 2.19922 40.6465 2.47103 40.6465 2.77051C40.6465 3.03092 40.6937 3.27181 40.7881 3.49316C40.8857 3.71452 41.029 3.91634 41.2178 4.09863C41.4066 4.28092 41.6491 4.44857 41.9453 4.60156C42.2448 4.75456 42.5915 4.88477 42.9854 4.99219C43.2393 5.06055 43.4508 5.13542 43.6201 5.2168C43.7926 5.29492 43.9326 5.38118 44.04 5.47559C44.1442 5.57324 44.2174 5.67741 44.2598 5.78809C44.3053 5.89876 44.3281 6.01758 44.3281 6.14453ZM53.4473 5.41211V4.31348H49.3799V5.41211H53.4473ZM56.6387 8H59.2314C59.6221 8 59.9736 7.95605 60.2861 7.86816C60.5986 7.78027 60.8639 7.64844 61.082 7.47266C61.3001 7.29688 61.4678 7.07878 61.585 6.81836C61.7021 6.55794 61.7607 6.25684 61.7607 5.91504C61.7607 5.736 61.7363 5.56348 61.6875 5.39746C61.6419 5.22819 61.5703 5.07194 61.4727 4.92871C61.3783 4.79525 61.2611 4.67806 61.1211 4.57715C60.9844 4.47624 60.7988 4.39323 60.5645 4.32812V4.32324C60.6849 4.27767 60.7939 4.22233 60.8916 4.15723C60.9925 4.09212 61.082 4.02051 61.1602 3.94238C61.3034 3.79915 61.4108 3.63314 61.4824 3.44434C61.5573 3.25228 61.5964 3.04883 61.5996 2.83398C61.5996 2.50195 61.5378 2.21387 61.4141 1.96973C61.2936 1.72559 61.1211 1.52376 60.8965 1.36426C60.6719 1.20475 60.4001 1.08594 60.0811 1.00781C59.7653 0.929688 59.4137 0.890625 59.0264 0.890625H56.6387V8ZM58.0156 4.86523H59.2949C59.487 4.86849 59.653 4.89453 59.793 4.94336C59.9329 4.99219 60.0469 5.06217 60.1348 5.15332C60.2227 5.24121 60.2861 5.34863 60.3252 5.47559C60.3675 5.60254 60.3887 5.74577 60.3887 5.90527C60.3887 6.05827 60.361 6.19661 60.3057 6.32031C60.2536 6.44401 60.1755 6.5498 60.0713 6.6377C59.9769 6.71582 59.8581 6.77767 59.7148 6.82324C59.5749 6.86882 59.4154 6.8916 59.2363 6.8916H58.0156V4.86523ZM58.0156 3.87402V2.00879H59.0312C59.2526 2.01204 59.4447 2.03646 59.6074 2.08203C59.7734 2.1276 59.9053 2.20085 60.0029 2.30176C60.0778 2.37337 60.1331 2.46289 60.1689 2.57031C60.208 2.67773 60.2275 2.80306 60.2275 2.94629C60.2275 3.08301 60.2048 3.20508 60.1592 3.3125C60.1169 3.41992 60.055 3.51107 59.9736 3.58594C59.876 3.68034 59.7474 3.75195 59.5879 3.80078C59.4284 3.84635 59.2445 3.87077 59.0361 3.87402H58.0156ZM69.6152 4.96777V3.93262C69.6152 3.61035 69.5843 3.30599 69.5225 3.01953C69.4639 2.73307 69.3776 2.4694 69.2637 2.22852C69.1595 2.01693 69.0342 1.82324 68.8877 1.64746C68.7445 1.47168 68.5768 1.32194 68.3848 1.19824C68.1927 1.06803 67.9762 0.96875 67.7354 0.900391C67.4977 0.828776 67.2422 0.792969 66.9688 0.792969C66.6986 0.792969 66.4479 0.827148 66.2168 0.895508C65.9857 0.963867 65.7773 1.06152 65.5918 1.18848C65.403 1.31868 65.2354 1.47493 65.0889 1.65723C64.9456 1.83952 64.8236 2.04297 64.7227 2.26758C64.6185 2.50521 64.5387 2.764 64.4834 3.04395C64.4313 3.32389 64.4053 3.62012 64.4053 3.93262V4.96777C64.4053 5.26074 64.4281 5.53906 64.4736 5.80273C64.5225 6.06641 64.5924 6.31055 64.6836 6.53516C64.7845 6.7793 64.9098 6.99902 65.0596 7.19434C65.2093 7.38639 65.3786 7.55078 65.5674 7.6875C65.7594 7.81771 65.9727 7.91862 66.207 7.99023C66.4414 8.06185 66.6969 8.09766 66.9736 8.09766C67.234 8.09766 67.4766 8.0651 67.7012 8C67.929 7.93815 68.1374 7.85026 68.3262 7.73633C68.5345 7.60612 68.7201 7.44336 68.8828 7.24805C69.0456 7.05273 69.1823 6.83789 69.293 6.60352C69.3971 6.36914 69.4769 6.11523 69.5322 5.8418C69.5876 5.5651 69.6152 5.27376 69.6152 4.96777ZM68.2236 3.92285V4.96777C68.2236 5.14355 68.2139 5.31283 68.1943 5.47559C68.1781 5.63835 68.152 5.78809 68.1162 5.9248C68.0706 6.10059 68.0088 6.25846 67.9307 6.39844C67.8558 6.53516 67.763 6.64909 67.6523 6.74023C67.5645 6.8151 67.4635 6.87207 67.3496 6.91113C67.2357 6.9502 67.1104 6.96973 66.9736 6.96973C66.8304 6.96973 66.7018 6.94857 66.5879 6.90625C66.4772 6.86393 66.3779 6.80371 66.29 6.72559C66.1956 6.6377 66.1126 6.52376 66.041 6.38379C65.9727 6.24056 65.9206 6.08268 65.8848 5.91016C65.8522 5.77344 65.8294 5.62533 65.8164 5.46582C65.8034 5.30632 65.7969 5.1403 65.7969 4.96777V3.92285C65.7969 3.74056 65.8034 3.56641 65.8164 3.40039C65.8327 3.23438 65.8571 3.08138 65.8896 2.94141C65.932 2.75911 65.9906 2.59961 66.0654 2.46289C66.1436 2.32617 66.238 2.21224 66.3486 2.12109C66.43 2.05924 66.5212 2.01204 66.6221 1.97949C66.7262 1.94694 66.8418 1.93066 66.9688 1.93066C67.1022 1.93066 67.2227 1.94857 67.3301 1.98438C67.4408 2.02018 67.54 2.07064 67.6279 2.13574C67.7386 2.22363 67.8346 2.33757 67.916 2.47754C67.9974 2.61426 68.0625 2.77051 68.1113 2.94629C68.1504 3.08626 68.1781 3.23926 68.1943 3.40527C68.2139 3.56803 68.2236 3.74056 68.2236 3.92285ZM77.6211 4.96777V3.93262C77.6211 3.61035 77.5902 3.30599 77.5283 3.01953C77.4697 2.73307 77.3835 2.4694 77.2695 2.22852C77.1654 2.01693 77.04 1.82324 76.8936 1.64746C76.7503 1.47168 76.5827 1.32194 76.3906 1.19824C76.1986 1.06803 75.9821 0.96875 75.7412 0.900391C75.5036 0.828776 75.248 0.792969 74.9746 0.792969C74.7044 0.792969 74.4538 0.827148 74.2227 0.895508C73.9915 0.963867 73.7832 1.06152 73.5977 1.18848C73.4089 1.31868 73.2412 1.47493 73.0947 1.65723C72.9515 1.83952 72.8294 2.04297 72.7285 2.26758C72.6243 2.50521 72.5446 2.764 72.4893 3.04395C72.4372 3.32389 72.4111 3.62012 72.4111 3.93262V4.96777C72.4111 5.26074 72.4339 5.53906 72.4795 5.80273C72.5283 6.06641 72.5983 6.31055 72.6895 6.53516C72.7904 6.7793 72.9157 6.99902 73.0654 7.19434C73.2152 7.38639 73.3844 7.55078 73.5732 7.6875C73.7653 7.81771 73.9785 7.91862 74.2129 7.99023C74.4473 8.06185 74.7028 8.09766 74.9795 8.09766C75.2399 8.09766 75.4824 8.0651 75.707 8C75.9349 7.93815 76.1432 7.85026 76.332 7.73633C76.5404 7.60612 76.7259 7.44336 76.8887 7.24805C77.0514 7.05273 77.1882 6.83789 77.2988 6.60352C77.403 6.36914 77.4827 6.11523 77.5381 5.8418C77.5934 5.5651 77.6211 5.27376 77.6211 4.96777ZM76.2295 3.92285V4.96777C76.2295 5.14355 76.2197 5.31283 76.2002 5.47559C76.1839 5.63835 76.1579 5.78809 76.1221 5.9248C76.0765 6.10059 76.0146 6.25846 75.9365 6.39844C75.8617 6.53516 75.7689 6.64909 75.6582 6.74023C75.5703 6.8151 75.4694 6.87207 75.3555 6.91113C75.2415 6.9502 75.1162 6.96973 74.9795 6.96973C74.8363 6.96973 74.7077 6.94857 74.5938 6.90625C74.4831 6.86393 74.3838 6.80371 74.2959 6.72559C74.2015 6.6377 74.1185 6.52376 74.0469 6.38379C73.9785 6.24056 73.9264 6.08268 73.8906 5.91016C73.8581 5.77344 73.8353 5.62533 73.8223 5.46582C73.8092 5.30632 73.8027 5.1403 73.8027 4.96777V3.92285C73.8027 3.74056 73.8092 3.56641 73.8223 3.40039C73.8385 3.23438 73.863 3.08138 73.8955 2.94141C73.9378 2.75911 73.9964 2.59961 74.0713 2.46289C74.1494 2.32617 74.2438 2.21224 74.3545 2.12109C74.4359 2.05924 74.527 2.01204 74.6279 1.97949C74.7321 1.94694 74.8477 1.93066 74.9746 1.93066C75.1081 1.93066 75.2285 1.94857 75.3359 1.98438C75.4466 2.02018 75.5459 2.07064 75.6338 2.13574C75.7445 2.22363 75.8405 2.33757 75.9219 2.47754C76.0033 2.61426 76.0684 2.77051 76.1172 2.94629C76.1562 3.08626 76.1839 3.23926 76.2002 3.40527C76.2197 3.56803 76.2295 3.74056 76.2295 3.92285ZM82.7852 5.08008L84.543 8H86.1738L83.6934 4.03516L86.0859 0.890625H84.4062L82.6777 3.27832L82.0332 4.14746V0.890625H80.6562V8H82.0332V5.90527L82.7852 5.08008Z"/>
</svg>
