<svg width="32" height="32" viewBox="0 0 32 32" xmlns="http://www.w3.org/2000/svg">
<g>
<path d="M29.3701 2.63H27.3701V29.37H29.3701V2.63Z"/>
<path d="M4.6001 2.63H2.6001V29.37H4.6001V2.63Z"/>
<path d="M24.7101 15.5399L21.1701 11.9999C20.9841 11.8227 20.737 11.7238 20.4801 11.7238C20.2232 11.7238 19.9761 11.8227 19.7901 11.9999C19.6099 12.1864 19.5091 12.4356 19.5091 12.6949C19.5091 12.9543 19.6099 13.2035 19.7901 13.3899L21.6401 15.2399H10.3401L12.2001 13.3899C12.3803 13.2035 12.4811 12.9543 12.4811 12.6949C12.4811 12.4356 12.3803 12.1864 12.2001 11.9999V11.9999C12.0141 11.8227 11.767 11.7238 11.5101 11.7238C11.2532 11.7238 11.0061 11.8227 10.8201 11.9999L7.2801 15.5399L6.6001 16.2399L7.2801 16.9499L10.8201 20.4699C11.0061 20.6472 11.2532 20.7461 11.5101 20.7461C11.767 20.7461 12.0141 20.6472 12.2001 20.4699V20.4699C12.3774 20.284 12.4763 20.0369 12.4763 19.7799C12.4763 19.523 12.3774 19.2759 12.2001 19.0899L10.3401 17.2399H21.6401L19.7901 19.0899C19.6128 19.2759 19.5139 19.523 19.5139 19.7799C19.5139 20.0369 19.6128 20.284 19.7901 20.4699C19.9761 20.6472 20.2232 20.7461 20.4801 20.7461C20.737 20.7461 20.9841 20.6472 21.1701 20.4699L24.7101 16.9999L25.3901 16.2899L24.7101 15.5399Z"/>
</g>
</svg>
