<svg width="32" height="32" viewBox="0 0 32 32" xmlns="http://www.w3.org/2000/svg">
<g>
<path d="M18.0001 22.91L23.9201 17H5.31006C5.04484 17 4.79049 16.8947 4.60295 16.7071C4.41542 16.5196 4.31006 16.2652 4.31006 16C4.31006 15.7348 4.41542 15.4805 4.60295 15.2929C4.79049 15.1054 5.04484 15 5.31006 15H23.9201L18.0001 9.09003C17.8228 8.90405 17.7239 8.65697 17.7239 8.40003C17.7239 8.14309 17.8228 7.89601 18.0001 7.71003C18.186 7.53274 18.4331 7.43384 18.6901 7.43384C18.947 7.43384 19.1941 7.53274 19.3801 7.71003L27.0001 15.3L27.6701 16L27.0001 16.7L19.3901 24.31C19.2041 24.4873 18.957 24.5862 18.7001 24.5862C18.4431 24.5862 18.196 24.4873 18.0101 24.31C17.8255 24.1244 17.7211 23.8738 17.7192 23.6121C17.7173 23.3503 17.8182 23.0983 18.0001 22.91V22.91Z"/>
</g>
</svg>
