<svg width="32" height="32" viewBox="0 0 32 32" xmlns="http://www.w3.org/2000/svg">
<g>
<path d="M14.0001 9.09001L8.08008 15H26.6901C26.9553 15 27.2096 15.1054 27.3972 15.2929C27.5847 15.4804 27.6901 15.7348 27.6901 16C27.6901 16.2652 27.5847 16.5196 27.3972 16.7071C27.2096 16.8947 26.9553 17 26.6901 17H8.08008L14.0001 22.91C14.1774 23.096 14.2763 23.3431 14.2763 23.6C14.2763 23.857 14.1774 24.104 14.0001 24.29C13.8141 24.4673 13.567 24.5662 13.3101 24.5662C13.0531 24.5662 12.8061 24.4673 12.6201 24.29L5.00008 16.7L4.33008 16L5.00008 15.3L12.6101 7.69001C12.7961 7.51272 13.0431 7.41382 13.3001 7.41382C13.557 7.41382 13.8041 7.51272 13.9901 7.69001V7.69001C14.1746 7.87563 14.2791 8.12621 14.2809 8.38797C14.2828 8.64972 14.182 8.90177 14.0001 9.09001Z"/>
</g>
</svg>
