<svg width="32" height="32" viewBox="0 0 32 32" xmlns="http://www.w3.org/2000/svg">
<g>
<path d="M28.46 9.20998V25.9C28.46 26.1652 28.3547 26.4195 28.1671 26.6071C27.9796 26.7946 27.7253 26.9 27.46 26.9H4.54004C4.27482 26.9 4.02047 26.7946 3.83293 26.6071C3.6454 26.4195 3.54004 26.1652 3.54004 25.9V9.20998C3.54004 8.94476 3.6454 8.69041 3.83293 8.50287C4.02047 8.31533 4.27482 8.20998 4.54004 8.20998H27.46C27.7253 8.20998 27.9796 8.31533 28.1671 8.50287C28.3547 8.69041 28.46 8.94476 28.46 9.20998ZM5.61004 24.83H26.39V10.29H5.61004V24.83ZM11.85 5.09998V7.16998H7.69004V5.09998H11.85ZM13.92 16.52V18.6H7.69004V16.52H13.92ZM22.23 14.44V16.52H24.31V18.6H22.23V20.67H20.15V18.6H18.08V16.52H20.15V14.44H22.23ZM24.31 5.09998V7.16998H20.15V5.09998H24.31Z"/>
</g>
</svg>
