<svg width="32" height="32" viewBox="0 0 32 32" xmlns="http://www.w3.org/2000/svg">
<g>
<path d="M10.9101 4.30005V5.30005H21.0901V4.30005H23.0901V5.30005H26.1601C26.4253 5.30005 26.6796 5.40541 26.8672 5.59294C27.0547 5.78048 27.1601 6.03483 27.1601 6.30005V26.7001C27.1601 26.9653 27.0547 27.2196 26.8672 27.4072C26.6796 27.5947 26.4253 27.7001 26.1601 27.7001H5.81006C5.54484 27.7001 5.29049 27.5947 5.10295 27.4072C4.91542 27.2196 4.81006 26.9653 4.81006 26.7001V6.32005C4.81006 6.05483 4.91542 5.80048 5.10295 5.61294C5.29049 5.42541 5.54484 5.32005 5.81006 5.32005H8.88006V4.32005L10.9101 4.30005ZM6.84006 9.39005H25.1601V7.39005H23.1601V8.39005H21.1601V7.39005H10.9101V8.39005H8.91006V7.39005H6.91006L6.84006 9.39005ZM6.84006 25.66H25.1601V11.42H6.84006V25.66ZM10.9101 17.53V19.53H8.91006V17.53H10.9101ZM10.9101 21.6V23.6H8.91006V21.6H10.9101ZM15.0001 13.46V15.46H13.0001V13.46H15.0001ZM15.0001 17.53V19.53H13.0001V17.53H15.0001ZM15.0001 21.6V23.6H13.0001V21.6H15.0001ZM19.0701 13.46V15.46H17.0001V13.46H19.0701ZM19.0701 17.53V19.53H17.0001V17.53H19.0701ZM19.0701 21.6V23.6H17.0001V21.6H19.0701ZM23.1401 13.46V15.46H21.1401V13.46H23.1401ZM23.1401 17.53V19.53H21.1401V17.53H23.1401Z"/>
</g>
</svg>
