<svg width="30" height="9" viewBox="0 0 30 9" xmlns="http://www.w3.org/2000/svg">
<path d="M5.56445 5.77344H4.19238C4.17936 5.98828 4.14355 6.1722 4.08496 6.3252C4.02637 6.47819 3.94661 6.60352 3.8457 6.70117C3.74479 6.79883 3.62272 6.87044 3.47949 6.91602C3.33626 6.96159 3.17513 6.98438 2.99609 6.98438C2.86263 6.98438 2.74056 6.96973 2.62988 6.94043C2.52246 6.90788 2.4248 6.85905 2.33691 6.79395C2.25553 6.73535 2.18229 6.66211 2.11719 6.57422C2.05534 6.48633 2.00163 6.38542 1.95605 6.27148C1.89095 6.10547 1.84212 5.91178 1.80957 5.69043C1.78027 5.46582 1.76562 5.21191 1.76562 4.92871V3.96191C1.76562 3.75358 1.77539 3.5599 1.79492 3.38086C1.81445 3.19857 1.84538 3.03255 1.8877 2.88281C1.94303 2.69076 2.01628 2.52311 2.10742 2.37988C2.20182 2.2334 2.31576 2.12109 2.44922 2.04297C2.52734 1.9974 2.61198 1.96322 2.70312 1.94043C2.79753 1.91764 2.89844 1.90625 3.00586 1.90625C3.20768 1.90625 3.38021 1.93392 3.52344 1.98926C3.66992 2.04134 3.79199 2.11947 3.88965 2.22363C3.98405 2.33105 4.05566 2.46452 4.10449 2.62402C4.15658 2.78353 4.18913 2.96908 4.20215 3.18066H5.56934C5.53678 2.80957 5.45866 2.47591 5.33496 2.17969C5.21126 1.88346 5.04199 1.63281 4.82715 1.42773C4.6123 1.22266 4.35189 1.06478 4.0459 0.954102C3.74316 0.843424 3.39648 0.788086 3.00586 0.788086C2.74219 0.788086 2.49479 0.822266 2.26367 0.890625C2.03581 0.955729 1.82585 1.05013 1.63379 1.17383C1.41895 1.32031 1.22689 1.49935 1.05762 1.71094C0.888346 1.92253 0.751628 2.16341 0.647461 2.43359C0.556315 2.65495 0.487956 2.89583 0.442383 3.15625C0.39681 3.41341 0.374023 3.68522 0.374023 3.97168V4.92871C0.374023 5.2347 0.398438 5.52441 0.447266 5.79785C0.499349 6.07129 0.572591 6.32194 0.666992 6.5498C0.764648 6.77767 0.883464 6.986 1.02344 7.1748C1.16667 7.36361 1.32943 7.52474 1.51172 7.6582C1.71029 7.80143 1.93327 7.91211 2.18066 7.99023C2.43132 8.0651 2.70312 8.10254 2.99609 8.10254C3.36719 8.10254 3.70573 8.04883 4.01172 7.94141C4.31771 7.83073 4.58138 7.67448 4.80273 7.47266C5.02409 7.27083 5.19987 7.02669 5.33008 6.74023C5.46354 6.45378 5.54167 6.13151 5.56445 5.77344ZM12.1299 6.51562L12.5449 8H13.9902L11.7051 0.890625H10.46L8.13086 8H9.57617L9.99609 6.51562H12.1299ZM10.333 5.34863L11.0801 2.73145L11.8076 5.34863H10.333ZM19.0518 5.34375L20.3896 8H21.8594V7.93652L20.3311 5.00195C20.5264 4.91406 20.7021 4.8099 20.8584 4.68945C21.0179 4.56901 21.1546 4.42741 21.2686 4.26465C21.3792 4.10514 21.4639 3.92448 21.5225 3.72266C21.5843 3.51758 21.6152 3.28809 21.6152 3.03418C21.6152 2.68262 21.5534 2.37337 21.4297 2.10645C21.3092 1.83952 21.1367 1.61654 20.9121 1.4375C20.6842 1.25846 20.4108 1.12337 20.0918 1.03223C19.7728 0.937826 19.4163 0.890625 19.0225 0.890625H16.6396V8H18.0117V5.34375H19.0518ZM18.0117 4.23047V2.00391H19.0225C19.2113 2.00391 19.3789 2.02669 19.5254 2.07227C19.6719 2.11784 19.7956 2.18294 19.8965 2.26758C20.0104 2.36198 20.0951 2.48242 20.1504 2.62891C20.209 2.77214 20.2383 2.93815 20.2383 3.12695C20.2383 3.2832 20.2155 3.4248 20.1699 3.55176C20.1276 3.67871 20.0641 3.78776 19.9795 3.87891C19.8786 3.99284 19.7467 4.08073 19.584 4.14258C19.4245 4.20117 19.2389 4.23047 19.0273 4.23047H18.0117ZM24.6162 8H26.5254C26.8411 8 27.1374 7.96094 27.4141 7.88281C27.694 7.80469 27.9495 7.69238 28.1807 7.5459C28.3792 7.4222 28.5615 7.26921 28.7275 7.08691C28.8936 6.90137 29.0384 6.69954 29.1621 6.48145C29.2923 6.2373 29.3932 5.96875 29.4648 5.67578C29.5365 5.38281 29.5723 5.07194 29.5723 4.74316V4.15723C29.5723 3.81543 29.5332 3.49316 29.4551 3.19043C29.3802 2.8877 29.2728 2.611 29.1328 2.36035C29.0124 2.15527 28.8708 1.96647 28.708 1.79395C28.5485 1.61816 28.3662 1.47005 28.1611 1.34961C27.9268 1.20312 27.6663 1.09082 27.3799 1.0127C27.0934 0.931315 26.7858 0.890625 26.457 0.890625H24.6162V8ZM25.998 2.00391H26.457C26.623 2.00391 26.776 2.02344 26.916 2.0625C27.0592 2.09831 27.1895 2.15039 27.3066 2.21875C27.4596 2.3099 27.5931 2.42708 27.707 2.57031C27.8242 2.71354 27.9186 2.8763 27.9902 3.05859C28.0488 3.21159 28.0928 3.38086 28.1221 3.56641C28.1546 3.7487 28.1709 3.94238 28.1709 4.14746V4.74316C28.1709 4.96126 28.1546 5.16471 28.1221 5.35352C28.0928 5.53906 28.0488 5.70833 27.9902 5.86133C27.9186 6.03711 27.8324 6.19173 27.7314 6.3252C27.6338 6.4554 27.5231 6.56283 27.3994 6.64746C27.279 6.72884 27.1455 6.79069 26.999 6.83301C26.8525 6.87533 26.6947 6.89648 26.5254 6.89648H25.998V2.00391Z"/>
</svg>
