<svg width="32" height="32" viewBox="0 0 32 32" xmlns="http://www.w3.org/2000/svg">
<g>
<path d="M7.29023 5.93012C7.74575 5.91629 8.19234 6.05844 8.55605 6.33304C8.91977 6.60764 9.17879 6.99823 9.29023 7.44012L11.8802 18.0001H23.4202L25.3402 11.0001H11.6002L11.0902 9.00012H28.0002L25.3902 18.6001C25.2803 19.0238 25.0344 19.3997 24.6902 19.6701C24.3425 19.9424 23.9118 20.0871 23.4702 20.0801H11.8802C11.4294 20.086 10.9906 19.9339 10.6402 19.6501C10.2801 19.3885 10.0277 19.0045 9.93023 18.5701L7.29023 8.00012H5.05023C4.91792 7.99957 4.78704 7.97277 4.66517 7.92128C4.54329 7.86978 4.43285 7.79461 4.34023 7.70012C4.2465 7.60716 4.17211 7.49656 4.12134 7.3747C4.07057 7.25284 4.04443 7.12213 4.04443 6.99012C4.04443 6.85811 4.07057 6.7274 4.12134 6.60555C4.17211 6.48369 4.2465 6.37309 4.34023 6.28012C4.43285 6.18563 4.54329 6.11046 4.66517 6.05897C4.78704 6.00747 4.91792 5.98067 5.05023 5.98012L7.29023 5.93012ZM15.2302 20.9301C15.6597 21.348 15.9542 21.8849 16.0757 22.4717C16.1973 23.0584 16.1404 23.6681 15.9123 24.2222C15.6842 24.7763 15.2954 25.2494 14.796 25.5806C14.2965 25.9117 13.7094 26.0857 13.1102 26.0801C12.7125 26.0836 12.3183 26.0056 11.952 25.8508C11.5857 25.696 11.2549 25.4677 10.9802 25.1801C10.7006 24.9014 10.4786 24.5702 10.3272 24.2056C10.1758 23.8409 10.0979 23.45 10.0979 23.0551C10.0979 22.6603 10.1758 22.2693 10.3272 21.9047C10.4786 21.54 10.7006 21.2088 10.9802 20.9301C11.2589 20.6504 11.5901 20.4285 11.9548 20.2771C12.3194 20.1257 12.7104 20.0478 13.1052 20.0478C13.5001 20.0478 13.891 20.1257 14.2557 20.2771C14.6203 20.4285 14.9515 20.6504 15.2302 20.9301ZM12.4002 22.3301C12.3029 22.4205 12.2258 22.5306 12.1741 22.653C12.1224 22.7753 12.0972 22.9073 12.1002 23.0401C12.0994 23.1741 12.1256 23.3069 12.1771 23.4306C12.2287 23.5543 12.3045 23.6663 12.4002 23.7601C12.494 23.8558 12.6061 23.9317 12.7298 23.9832C12.8535 24.0348 12.9862 24.0609 13.1202 24.0601C13.2531 24.0631 13.385 24.038 13.5074 23.9862C13.6298 23.9345 13.7398 23.8575 13.8302 23.7601C13.9223 23.6647 13.9945 23.5519 14.0426 23.4283C14.0906 23.3046 14.1136 23.1727 14.1102 23.0401C14.1102 22.7749 14.0049 22.5206 13.8173 22.333C13.6298 22.1455 13.3754 22.0401 13.1102 22.0401C12.8459 22.0359 12.5906 22.1366 12.4002 22.3201V22.3301ZM24.2902 20.9301C24.5686 21.2118 24.7888 21.5456 24.9382 21.9124C25.0877 22.2791 25.1634 22.6718 25.161 23.0678C25.1587 23.4638 25.0784 23.8555 24.9247 24.2206C24.771 24.5856 24.5469 24.9167 24.2652 25.1951C23.9835 25.4735 23.6498 25.6937 23.283 25.8431C22.9162 25.9925 22.5236 26.0683 22.1276 26.0659C21.7315 26.0636 21.3398 25.9833 20.9748 25.8296C20.6098 25.6759 20.2786 25.4518 20.0002 25.1701C19.7206 24.8914 19.4986 24.5602 19.3472 24.1956C19.1958 23.8309 19.1179 23.44 19.1179 23.0451C19.1179 22.6503 19.1958 22.2593 19.3472 21.8947C19.4986 21.53 19.7206 21.1988 20.0002 20.9201C20.2789 20.6404 20.6101 20.4185 20.9748 20.2671C21.3394 20.1157 21.7304 20.0378 22.1252 20.0378C22.5201 20.0378 22.911 20.1157 23.2757 20.2671C23.6403 20.4185 23.9715 20.6404 24.2502 20.9201L24.2902 20.9301ZM21.4602 22.3301C21.3629 22.4205 21.2858 22.5306 21.2341 22.653C21.1824 22.7753 21.1572 22.9073 21.1602 23.0401C21.1594 23.1741 21.1856 23.3069 21.2371 23.4306C21.2887 23.5543 21.3645 23.6663 21.4602 23.7601C21.554 23.8558 21.6661 23.9317 21.7898 23.9832C21.9135 24.0348 22.0462 24.0609 22.1802 24.0601C22.3131 24.0638 22.4453 24.0389 22.5678 23.9871C22.6903 23.9354 22.8002 23.858 22.8902 23.7601C22.9823 23.6647 23.0545 23.5519 23.1026 23.4283C23.1506 23.3046 23.1736 23.1727 23.1702 23.0401C23.1702 22.7749 23.0649 22.5206 22.8773 22.333C22.6898 22.1455 22.4354 22.0401 22.1702 22.0401C21.9059 22.0359 21.6506 22.1366 21.4602 22.3201V22.3301Z"/>
</g>
</svg>
