<svg width="32" height="32" viewBox="0 0 32 32" xmlns="http://www.w3.org/2000/svg">
<g>
<path d="M29.3699 5V22.1C29.3699 22.3652 29.2645 22.6196 29.077 22.8071C28.8895 22.9946 28.6351 23.1 28.3699 23.1H13.4599L7.40988 28V23.12H3.62988C3.36467 23.12 3.11031 23.0146 2.92278 22.8271C2.73524 22.6396 2.62988 22.3852 2.62988 22.12V5C2.62988 4.73478 2.73524 4.48043 2.92278 4.29289C3.11031 4.10536 3.36467 4 3.62988 4H28.3699C28.6351 4 28.8895 4.10536 29.077 4.29289C29.2645 4.48043 29.3699 4.73478 29.3699 5ZM4.53988 21.21H9.31988V24L12.8099 21.23H27.4599V5.93H4.53988V21.21ZM23.6399 10.7V12.61H8.35988V10.7H23.6399ZM19.8199 14.52V16.43H8.35988V14.52H19.8199Z"/>
</g>
</svg>
