<svg width="32" height="32" viewBox="0 0 32 32" xmlns="http://www.w3.org/2000/svg">
<g>
<path d="M29.15 6.58007C29.2437 6.67303 29.3181 6.78363 29.3689 6.90549C29.4197 7.02735 29.4458 7.15806 29.4458 7.29007C29.4458 7.42208 29.4197 7.55279 29.3689 7.67465C29.3181 7.79651 29.2437 7.90711 29.15 8.00007L11.66 25.4601C11.567 25.5538 11.4564 25.6282 11.3346 25.679C11.2127 25.7297 11.082 25.7559 10.95 25.7559C10.818 25.7559 10.6873 25.7297 10.5654 25.679C10.4436 25.6282 10.333 25.5538 10.24 25.4601L2.85 18.1001C2.75627 18.0071 2.68187 17.8965 2.63111 17.7746C2.58034 17.6528 2.5542 17.5221 2.5542 17.3901C2.5542 17.2581 2.58034 17.1274 2.63111 17.0055C2.68187 16.8836 2.75627 16.773 2.85 16.6801V16.6801C3.03736 16.4938 3.29081 16.3893 3.555 16.3893C3.81918 16.3893 4.07264 16.4938 4.26 16.6801L11 23.2901L27.7 6.55007C27.8874 6.36382 28.1408 6.25928 28.405 6.25928C28.6692 6.25928 28.9226 6.36382 29.11 6.55007L29.15 6.58007Z"/>
</g>
</svg>
