<svg width="32" height="32" viewBox="0 0 32 32" xmlns="http://www.w3.org/2000/svg">
<g>
<path d="M12.0999 25.33L4.09987 17.33C3.91362 17.1426 3.80908 16.8892 3.80908 16.625C3.80908 16.3608 3.91362 16.1074 4.09987 15.92L5.50988 14.51C5.60284 14.4163 5.71344 14.3419 5.8353 14.2911C5.95716 14.2403 6.08786 14.2142 6.21987 14.2142C6.35189 14.2142 6.48259 14.2403 6.60445 14.2911C6.72631 14.3419 6.83691 14.4163 6.92987 14.51L12.8399 20.42L25.0999 8.08999C25.1928 7.99626 25.3034 7.92186 25.4253 7.8711C25.5472 7.82033 25.6779 7.79419 25.8099 7.79419C25.9419 7.79419 26.0726 7.82033 26.1945 7.8711C26.3163 7.92186 26.4269 7.99626 26.5199 8.08999L27.9299 9.49999C28.1161 9.68735 28.2207 9.9408 28.2207 10.205C28.2207 10.4692 28.1161 10.7226 27.9299 10.91L13.5199 25.33C13.4269 25.4237 13.3163 25.4981 13.1945 25.5489C13.0726 25.5996 12.9419 25.6258 12.8099 25.6258C12.6779 25.6258 12.5472 25.5996 12.4253 25.5489C12.3034 25.4981 12.1928 25.4237 12.0999 25.33Z"/>
</g>
</svg>
