<svg width="32" height="32" viewBox="0 0 32 32" xmlns="http://www.w3.org/2000/svg">
<g>
<path d="M16.0002 13.79L9.09019 20.7C8.90421 20.8773 8.65713 20.9762 8.40019 20.9762C8.14325 20.9762 7.89617 20.8773 7.71019 20.7C7.52995 20.5135 7.4292 20.2643 7.4292 20.005C7.4292 19.7457 7.52995 19.4965 7.71019 19.31L15.3202 11.71L16.0002 11L16.7002 11.67L24.3102 19.27C24.4904 19.4565 24.5912 19.7057 24.5912 19.965C24.5912 20.2243 24.4904 20.4735 24.3102 20.66V20.66C24.1242 20.8373 23.8771 20.9362 23.6202 20.9362C23.3632 20.9362 23.1162 20.8373 22.9302 20.66L16.0002 13.79Z"/>
</g>
</svg>
