<svg width="32" height="32" viewBox="0 0 32 32" xmlns="http://www.w3.org/2000/svg">
<g>
<path d="M13.79 15.9999L20.7 22.9099C20.8773 23.0959 20.9762 23.343 20.9762 23.5999C20.9762 23.8569 20.8773 24.104 20.7 24.2899C20.5135 24.4702 20.2643 24.5709 20.005 24.5709C19.7457 24.5709 19.4965 24.4702 19.31 24.2899L11.71 16.6799L11 15.9999L11.67 15.2999L19.27 7.68993C19.4565 7.50969 19.7057 7.40894 19.965 7.40894C20.2243 7.40894 20.4735 7.50969 20.66 7.68993V7.68993C20.8373 7.8759 20.9362 8.12298 20.9362 8.37993C20.9362 8.63687 20.8373 8.88395 20.66 9.06993L13.79 15.9999Z"/>
</g>
</svg>
