<svg width="32" height="32" viewBox="0 0 32 32" xmlns="http://www.w3.org/2000/svg">
<g>
<path d="M18.2101 15.9999L11.3001 9.08995C11.1228 8.90397 11.0239 8.65689 11.0239 8.39994C11.0239 8.143 11.1228 7.89592 11.3001 7.70995C11.4866 7.52971 11.7358 7.42896 11.9951 7.42896C12.2545 7.42896 12.5036 7.52971 12.6901 7.70995L20.2901 15.3199L21.0001 15.9999L20.3301 16.6999L12.7301 24.3099C12.5436 24.4902 12.2945 24.5909 12.0351 24.5909C11.7758 24.5909 11.5266 24.4902 11.3401 24.3099V24.3099C11.1628 24.124 11.0639 23.8769 11.0639 23.6199C11.0639 23.363 11.1628 23.1159 11.3401 22.9299L18.2101 15.9999Z"/>
</g>
</svg>
