<svg width="32" height="32" viewBox="0 0 32 32" xmlns="http://www.w3.org/2000/svg">
<g>
<path d="M16.0002 18.2101L22.9102 11.3001C23.0961 11.1228 23.3432 11.0239 23.6002 11.0239C23.8571 11.0239 24.1042 11.1228 24.2902 11.3001C24.4704 11.4866 24.5712 11.7358 24.5712 11.9951C24.5712 12.2545 24.4704 12.5036 24.2902 12.6901L16.6802 20.2901L16.0002 21.0001L15.3002 20.3301L7.69017 12.7301C7.50993 12.5436 7.40918 12.2945 7.40918 12.0351C7.40918 11.7758 7.50993 11.5266 7.69017 11.3401V11.3401C7.87615 11.1628 8.12323 11.0639 8.38017 11.0639C8.63711 11.0639 8.88419 11.1628 9.07017 11.3401L16.0002 18.2101Z"/>
</g>
</svg>
