<svg width="32" height="32" viewBox="0 0 32 32" xmlns="http://www.w3.org/2000/svg">
<g>
<path d="M24.7098 8.71006L23.2898 7.29006C23.1025 7.10381 22.849 6.99927 22.5848 6.99927C22.3206 6.99927 22.0672 7.10381 21.8798 7.29006L15.9998 13.1701L10.1198 7.29006C9.93245 7.10381 9.679 6.99927 9.41482 6.99927C9.15063 6.99927 8.89718 7.10381 8.70982 7.29006L7.28982 8.71006C7.10356 8.89742 6.99902 9.15087 6.99902 9.41506C6.99902 9.67925 7.10356 9.9327 7.28982 10.1201L13.1698 16.0001L7.28982 21.8801C7.10356 22.0674 6.99902 22.3209 6.99902 22.5851C6.99902 22.8492 7.10356 23.1027 7.28982 23.2901L8.70982 24.7101C8.89718 24.8963 9.15063 25.0009 9.41482 25.0009C9.679 25.0009 9.93245 24.8963 10.1198 24.7101L15.9998 18.8301L21.8798 24.7101C22.0672 24.8963 22.3206 25.0009 22.5848 25.0009C22.849 25.0009 23.1025 24.8963 23.2898 24.7101L24.7098 23.2901C24.8961 23.1027 25.0006 22.8492 25.0006 22.5851C25.0006 22.3209 24.8961 22.0674 24.7098 21.8801L18.8298 16.0001L24.7098 10.1201C24.8961 9.9327 25.0006 9.67925 25.0006 9.41506C25.0006 9.15087 24.8961 8.89742 24.7098 8.71006V8.71006Z"/>
</g>
</svg>
