<svg width="32" height="32" viewBox="0 0 32 32" xmlns="http://www.w3.org/2000/svg">
<g>
<path d="M8.57982 7.16814C8.18929 6.77761 7.55613 6.77761 7.1656 7.16814C6.77508 7.55866 6.77508 8.19183 7.1656 8.58235L23.4149 24.8317C23.8054 25.2222 24.4386 25.2222 24.8291 24.8317C25.2197 24.4411 25.2197 23.808 24.8291 23.4175L8.57982 7.16814Z"/>
<path d="M23.4149 7.16833L7.1656 23.4176C6.77508 23.8082 6.77508 24.4413 7.1656 24.8319C7.55613 25.2224 8.18929 25.2224 8.57982 24.8319L24.8291 8.58255C25.2197 8.19202 25.2197 7.55886 24.8291 7.16833C24.4386 6.77781 23.8054 6.77781 23.4149 7.16833Z"/>
</g>
</svg>
