<svg width="54" height="9" viewBox="0 0 54 9" xmlns="http://www.w3.org/2000/svg">
<path d="M5.55566 5.77344H4.18359C4.17057 5.98828 4.13477 6.1722 4.07617 6.3252C4.01758 6.47819 3.93783 6.60352 3.83691 6.70117C3.736 6.79883 3.61393 6.87044 3.4707 6.91602C3.32747 6.96159 3.16634 6.98438 2.9873 6.98438C2.85384 6.98438 2.73177 6.96973 2.62109 6.94043C2.51367 6.90788 2.41602 6.85905 2.32812 6.79395C2.24674 6.73535 2.1735 6.66211 2.1084 6.57422C2.04655 6.48633 1.99284 6.38542 1.94727 6.27148C1.88216 6.10547 1.83333 5.91178 1.80078 5.69043C1.77148 5.46582 1.75684 5.21191 1.75684 4.92871V3.96191C1.75684 3.75358 1.7666 3.5599 1.78613 3.38086C1.80566 3.19857 1.83659 3.03255 1.87891 2.88281C1.93424 2.69076 2.00749 2.52311 2.09863 2.37988C2.19303 2.2334 2.30697 2.12109 2.44043 2.04297C2.51855 1.9974 2.60319 1.96322 2.69434 1.94043C2.78874 1.91764 2.88965 1.90625 2.99707 1.90625C3.19889 1.90625 3.37142 1.93392 3.51465 1.98926C3.66113 2.04134 3.7832 2.11947 3.88086 2.22363C3.97526 2.33105 4.04688 2.46452 4.0957 2.62402C4.14779 2.78353 4.18034 2.96908 4.19336 3.18066H5.56055C5.52799 2.80957 5.44987 2.47591 5.32617 2.17969C5.20247 1.88346 5.0332 1.63281 4.81836 1.42773C4.60352 1.22266 4.3431 1.06478 4.03711 0.954102C3.73438 0.843424 3.3877 0.788086 2.99707 0.788086C2.7334 0.788086 2.486 0.822266 2.25488 0.890625C2.02702 0.955729 1.81706 1.05013 1.625 1.17383C1.41016 1.32031 1.2181 1.49935 1.04883 1.71094C0.879557 1.92253 0.742839 2.16341 0.638672 2.43359C0.547526 2.65495 0.479167 2.89583 0.433594 3.15625C0.388021 3.41341 0.365234 3.68522 0.365234 3.97168V4.92871C0.365234 5.2347 0.389648 5.52441 0.438477 5.79785C0.49056 6.07129 0.563802 6.32194 0.658203 6.5498C0.755859 6.77767 0.874674 6.986 1.01465 7.1748C1.15788 7.36361 1.32064 7.52474 1.50293 7.6582C1.7015 7.80143 1.92448 7.91211 2.17188 7.99023C2.42253 8.0651 2.69434 8.10254 2.9873 8.10254C3.3584 8.10254 3.69694 8.04883 4.00293 7.94141C4.30892 7.83073 4.57259 7.67448 4.79395 7.47266C5.0153 7.27083 5.19108 7.02669 5.32129 6.74023C5.45475 6.45378 5.53288 6.13151 5.55566 5.77344ZM13.5859 4.96777V3.93262C13.5859 3.61035 13.555 3.30599 13.4932 3.01953C13.4346 2.73307 13.3483 2.4694 13.2344 2.22852C13.1302 2.01693 13.0049 1.82324 12.8584 1.64746C12.7152 1.47168 12.5475 1.32194 12.3555 1.19824C12.1634 1.06803 11.9469 0.96875 11.7061 0.900391C11.4684 0.828776 11.2129 0.792969 10.9395 0.792969C10.6693 0.792969 10.4186 0.827148 10.1875 0.895508C9.95638 0.963867 9.74805 1.06152 9.5625 1.18848C9.3737 1.31868 9.20605 1.47493 9.05957 1.65723C8.91634 1.83952 8.79427 2.04297 8.69336 2.26758C8.58919 2.50521 8.50944 2.764 8.4541 3.04395C8.40202 3.32389 8.37598 3.62012 8.37598 3.93262V4.96777C8.37598 5.26074 8.39876 5.53906 8.44434 5.80273C8.49316 6.06641 8.56315 6.31055 8.6543 6.53516C8.75521 6.7793 8.88053 6.99902 9.03027 7.19434C9.18001 7.38639 9.34928 7.55078 9.53809 7.6875C9.73014 7.81771 9.94336 7.91862 10.1777 7.99023C10.4121 8.06185 10.6676 8.09766 10.9443 8.09766C11.2048 8.09766 11.4473 8.0651 11.6719 8C11.8997 7.93815 12.1081 7.85026 12.2969 7.73633C12.5052 7.60612 12.6908 7.44336 12.8535 7.24805C13.0163 7.05273 13.153 6.83789 13.2637 6.60352C13.3678 6.36914 13.4476 6.11523 13.5029 5.8418C13.5583 5.5651 13.5859 5.27376 13.5859 4.96777ZM12.1943 3.92285V4.96777C12.1943 5.14355 12.1846 5.31283 12.165 5.47559C12.1488 5.63835 12.1227 5.78809 12.0869 5.9248C12.0413 6.10059 11.9795 6.25846 11.9014 6.39844C11.8265 6.53516 11.7337 6.64909 11.623 6.74023C11.5352 6.8151 11.4342 6.87207 11.3203 6.91113C11.2064 6.9502 11.0811 6.96973 10.9443 6.96973C10.8011 6.96973 10.6725 6.94857 10.5586 6.90625C10.4479 6.86393 10.3486 6.80371 10.2607 6.72559C10.1663 6.6377 10.0833 6.52376 10.0117 6.38379C9.94336 6.24056 9.89128 6.08268 9.85547 5.91016C9.82292 5.77344 9.80013 5.62533 9.78711 5.46582C9.77409 5.30632 9.76758 5.1403 9.76758 4.96777V3.92285C9.76758 3.74056 9.77409 3.56641 9.78711 3.40039C9.80339 3.23438 9.8278 3.08138 9.86035 2.94141C9.90267 2.75911 9.96126 2.59961 10.0361 2.46289C10.1143 2.32617 10.2087 2.21224 10.3193 2.12109C10.4007 2.05924 10.4919 2.01204 10.5928 1.97949C10.6969 1.94694 10.8125 1.93066 10.9395 1.93066C11.0729 1.93066 11.1934 1.94857 11.3008 1.98438C11.4115 2.02018 11.5107 2.07064 11.5986 2.13574C11.7093 2.22363 11.8053 2.33757 11.8867 2.47754C11.9681 2.61426 12.0332 2.77051 12.082 2.94629C12.1211 3.08626 12.1488 3.23926 12.165 3.40527C12.1846 3.56803 12.1943 3.74056 12.1943 3.92285ZM18.3154 0.890625H16.6113V8H17.8711V5.89551L17.8125 2.70215L18.6475 5.65625H19.3262L20.2588 2.57031L20.2002 5.89551V8H21.46V0.890625H19.7559L18.9893 3.56152L18.3154 0.890625ZM26.0967 5.39258H27.1562C27.5436 5.39258 27.8936 5.33724 28.2061 5.22656C28.5186 5.11589 28.7855 4.96126 29.0068 4.7627C29.2249 4.56738 29.3926 4.33464 29.5098 4.06445C29.6302 3.79427 29.6904 3.49967 29.6904 3.18066C29.6904 2.83887 29.6302 2.52799 29.5098 2.24805C29.3926 1.9681 29.2249 1.72721 29.0068 1.52539C28.7855 1.32682 28.5186 1.1722 28.2061 1.06152C27.8936 0.947591 27.5436 0.890625 27.1562 0.890625H24.7246V8H26.0967V5.39258ZM26.0967 4.2793V2.00391H27.1562C27.3516 2.00391 27.5208 2.03483 27.6641 2.09668C27.8073 2.15853 27.9277 2.24316 28.0254 2.35059C28.1198 2.45801 28.1898 2.58333 28.2354 2.72656C28.2842 2.86979 28.3086 3.02441 28.3086 3.19043C28.3086 3.33366 28.2842 3.47201 28.2354 3.60547C28.1898 3.73568 28.1198 3.85124 28.0254 3.95215C27.9277 4.05306 27.8073 4.13281 27.6641 4.19141C27.5208 4.25 27.3516 4.2793 27.1562 4.2793H26.0967ZM36.1387 6.51562L36.5537 8H37.999L35.7139 0.890625H34.4688L32.1396 8H33.585L34.0049 6.51562H36.1387ZM34.3418 5.34863L35.0889 2.73145L35.8164 5.34863H34.3418ZM45.3359 8V0.890625H43.959L43.9541 5.45605L41.9912 0.890625H40.6094V8H41.9912V3.41504L43.9688 8H45.3359ZM51.0811 4.16699L49.6797 0.890625H48.1758L50.3779 5.48047L50.3828 8H51.75L51.7549 5.53906L53.9912 0.890625H52.4824L51.0811 4.16699Z"/>
</svg>
