<svg width="32" height="32" viewBox="0 0 32 32" xmlns="http://www.w3.org/2000/svg">
<g>
<path d="M18 4.00005C18.2645 3.99317 18.5277 4.04021 18.7734 4.13828C19.0192 4.23636 19.2424 4.38343 19.4295 4.57053C19.6166 4.75764 19.7637 4.98086 19.8618 5.22662C19.9598 5.47238 20.0069 5.73553 20 6.00005V7.00005H26C26.2652 7.00005 26.5196 7.1054 26.7071 7.29294C26.8946 7.48048 27 7.73483 27 8.00005V9.00005H25.9L24 27.12C23.9751 27.3676 23.8589 27.5969 23.674 27.7634C23.4891 27.9298 23.2488 28.0213 23 28.02H9C8.75123 28.0213 8.51093 27.9298 8.32602 27.7634C8.14111 27.5969 8.02487 27.3676 8 27.12L6.08 9.00005H5V8.00005C5 7.73483 5.10536 7.48048 5.29289 7.29294C5.48043 7.1054 5.73478 7.00005 6 7.00005H12V6.00005C11.9931 5.73553 12.0402 5.47238 12.1382 5.22662C12.2363 4.98086 12.3834 4.75764 12.5705 4.57053C12.7576 4.38343 12.9808 4.23636 13.2266 4.13828C13.4723 4.04021 13.7355 3.99317 14 4.00005H18ZM9.9 26H22.1L23.89 9.00005H8.11L9.9 26ZM14 12V23H12V12H14ZM14 7.00005H18V6.00005H14V7.00005ZM17 12V23H15V12H17ZM20 12V23H18V12H20Z"/>
</g>
</svg>
