<svg width="32" height="32" viewBox="0 0 32 32" xmlns="http://www.w3.org/2000/svg">
<g>
<path d="M9.84799 20.6215L7.81152 22.658L9.27523 24.1217L11.3117 22.0852L9.84799 20.6215Z"/>
<path d="M8.80016 27.32H6.12016L8.12016 25.32L6.66016 23.81L4.66016 25.81V23.22C4.66016 22.9548 4.5548 22.7004 4.36726 22.5129C4.17973 22.3253 3.92537 22.22 3.66016 22.22C3.39494 22.22 3.14059 22.3253 2.95305 22.5129C2.76551 22.7004 2.66016 22.9548 2.66016 23.22V28.32V29.32H3.66016H8.77016C9.03537 29.32 9.28973 29.2146 9.47726 29.0271C9.6648 28.8395 9.77016 28.5852 9.77016 28.32C9.77027 28.0599 9.66904 27.81 9.48795 27.6233C9.30685 27.4366 9.06014 27.3278 8.80016 27.32Z"/>
<path d="M28.74 17.34L25.12 13.74C24.9326 13.5538 24.6792 13.4492 24.415 13.4492C24.1508 13.4492 23.8974 13.5538 23.71 13.74V13.74C23.5238 13.9274 23.4192 14.1809 23.4192 14.445C23.4192 14.7092 23.5238 14.9627 23.71 15.15L25.61 17.05H15V6.37004H15.07L17 8.27004C17.1874 8.45629 17.4408 8.56083 17.705 8.56083C17.9692 8.56083 18.2226 8.45629 18.41 8.27004V8.27004C18.5963 8.08268 18.7008 7.82922 18.7008 7.56504C18.7008 7.30085 18.5963 7.0474 18.41 6.86004L14.81 3.23004L14.09 2.54004L13.37 3.23004L9.74001 6.86004C9.55376 7.0474 9.44922 7.30085 9.44922 7.56504C9.44922 7.82922 9.55376 8.08268 9.74001 8.27004V8.27004C9.83297 8.36377 9.94358 8.43816 10.0654 8.48893C10.1873 8.5397 10.318 8.56584 10.45 8.56584C10.582 8.56584 10.7127 8.5397 10.8346 8.48893C10.9564 8.43816 11.067 8.36377 11.16 8.27004L13 6.43004V17.48L11 19.48L12.46 20.95L14.34 19.07H25.61L23.71 21C23.6163 21.093 23.5419 21.2036 23.4911 21.3255C23.4404 21.4473 23.4142 21.578 23.4142 21.71C23.4142 21.842 23.4404 21.9728 23.4911 22.0946C23.5419 22.2165 23.6163 22.3271 23.71 22.42C23.8974 22.6063 24.1508 22.7108 24.415 22.7108C24.6792 22.7108 24.9326 22.6063 25.12 22.42L28.74 18.82L29.43 18.1L28.74 17.34Z"/>
</g>
</svg>
