<svg width="32" height="32" viewBox="0 0 32 32" xmlns="http://www.w3.org/2000/svg">
<g>
<path d="M25.1199 27.14C25.1199 27.4052 25.0145 27.6595 24.827 27.8471C24.6395 28.0346 24.3851 28.14 24.1199 28.14H7.87988C7.61467 28.14 7.36031 28.0346 7.17278 27.8471C6.98524 27.6595 6.87988 27.4052 6.87988 27.14C6.87988 26.8747 6.98524 26.6204 7.17278 26.4329C7.36031 26.2453 7.61467 26.14 7.87988 26.14H24.1199C24.3851 26.14 24.6395 26.2453 24.827 26.4329C25.0145 26.6204 25.1199 26.8747 25.1199 27.14ZM16.9999 4.83997V20.62L21.6599 16C21.8472 15.8137 22.1007 15.7092 22.3649 15.7092C22.6291 15.7092 22.8825 15.8137 23.0699 16H23.1199C23.2136 16.0929 23.288 16.2035 23.3388 16.3254C23.3895 16.4472 23.4157 16.578 23.4157 16.71C23.4157 16.842 23.3895 16.9727 23.3388 17.0945C23.288 17.2164 23.2136 17.327 23.1199 17.42L16.7299 23.8L15.9999 24.5L15.2699 23.8L8.87988 17.44C8.78615 17.347 8.71176 17.2364 8.66099 17.1145C8.61022 16.9927 8.58408 16.862 8.58408 16.73C8.58408 16.598 8.61022 16.4672 8.66099 16.3454C8.71176 16.2235 8.78615 16.1129 8.87988 16.02V16.02C9.06725 15.8337 9.3207 15.7292 9.58488 15.7292C9.84907 15.7292 10.1025 15.8337 10.2899 16.02L14.9999 20.62V4.83997C14.9999 4.57475 15.1052 4.3204 15.2928 4.13286C15.4803 3.94532 15.7347 3.83997 15.9999 3.83997V3.83997C16.2651 3.83997 16.5195 3.94532 16.707 4.13286C16.8945 4.3204 16.9999 4.57475 16.9999 4.83997Z"/>
</g>
</svg>
