<svg width="32" height="32" viewBox="0 0 32 32" xmlns="http://www.w3.org/2000/svg">
<g>
<path d="M27.3402 11.71V12.71H25.6902V9.81H19.7802V8H23.5602V6H14.0002V8H17.7702V9.81H12.9402L9.13016 13.62H6.37016V16H4.66016V13.62H2.66016V20.53H4.66016V18H6.37016V20.52H9.09016V24.33H14.5802L16.2102 26H25.6902V19.7H27.3402V20.6H29.3402V11.71H27.3402ZM24.2102 17.71H23.6902V24H17.0002L15.3702 22.37H11.0902V18.53H8.37016V15.62H10.0002L13.8102 11.81H23.7302V14.76H25.7302H27.3802V17.76L24.2102 17.71Z"/>
</g>
</svg>
