<svg width="32" height="32" viewBox="0 0 32 32" xmlns="http://www.w3.org/2000/svg">
<g>
<path d="M17.21 8.00004L15.21 10H6V26H22V16.8L24 14.8V27C24 27.2653 23.8946 27.5196 23.7071 27.7072C23.5196 27.8947 23.2652 28 23 28H5C4.73478 28 4.48043 27.8947 4.29289 27.7072C4.10536 27.5196 4 27.2653 4 27V9.00004C4 8.73483 4.10536 8.48047 4.29289 8.29294C4.48043 8.1054 4.73478 8.00004 5 8.00004H17.21ZM27.14 4.90004C27.4205 5.1718 27.6417 5.49866 27.7897 5.86007C27.9377 6.22148 28.0093 6.60961 28 7.00004C28.0049 7.39168 27.9294 7.78016 27.778 8.14139C27.6266 8.50263 27.4027 8.82892 27.12 9.10005L17 19.21L13.19 20L11.72 20.31L12 18.81L12.79 15L22.94 4.86004C23.2082 4.58591 23.5287 4.3685 23.8826 4.22076C24.2365 4.07302 24.6165 3.99796 25 4.00004C25.3971 3.98512 25.7929 4.05398 26.1616 4.20215C26.5303 4.35033 26.8637 4.57449 27.14 4.86004V4.90004ZM24.35 6.27004L14.64 16L14.29 17.73L16 17.36L25.71 7.65004C25.9128 7.48939 26.0454 7.25641 26.08 7.00004C26.0704 6.86755 26.0345 6.7383 25.9744 6.61982C25.9143 6.50135 25.8312 6.39604 25.73 6.31004C25.65 6.20247 25.5459 6.1151 25.4261 6.05491C25.3063 5.99472 25.1741 5.96337 25.04 5.96337C24.9059 5.96337 24.7737 5.99472 24.6539 6.05491C24.5341 6.1151 24.43 6.20247 24.35 6.31004V6.27004Z"/>
</g>
</svg>
