<svg width="32" height="32" viewBox="0 0 32 32" xmlns="http://www.w3.org/2000/svg">
<g>
<path d="M10.4899 22.8C10.1906 22.5174 9.95279 22.1763 9.79107 21.7978C9.62936 21.4193 9.54725 21.0116 9.54987 20.6H11.3799C11.4118 20.9945 11.5736 21.3673 11.8399 21.66C11.989 21.8148 12.17 21.9352 12.3703 22.0129C12.5706 22.0906 12.7854 22.1237 12.9999 22.11C13.2109 22.1251 13.4225 22.0915 13.6185 22.0117C13.8144 21.9319 13.9894 21.8082 14.1299 21.65C14.3845 21.3337 14.516 20.9358 14.4999 20.53C14.5163 20.348 14.4936 20.1646 14.4332 19.9921C14.3728 19.8196 14.2762 19.6621 14.1499 19.53C13.9149 19.31 13.6184 19.1669 13.2999 19.12C12.8874 19.0446 12.4692 19.0044 12.0499 19V17.61C12.6179 17.6378 13.1849 17.5387 13.7099 17.32C13.9115 17.1948 14.0726 17.014 14.1737 16.7993C14.2748 16.5846 14.3117 16.3452 14.2799 16.11C14.2799 15.22 13.8499 14.77 12.9999 14.77C12.8179 14.7536 12.6344 14.7763 12.462 14.8367C12.2895 14.8971 12.1319 14.9937 11.9999 15.12C11.7701 15.4045 11.637 15.7548 11.6199 16.12H9.84987C9.82996 15.7253 9.89663 15.3311 10.0452 14.9648C10.1937 14.5986 10.4206 14.2693 10.7099 14C11.3774 13.4864 12.2094 13.234 13.0499 13.29C13.8817 13.2277 14.7074 13.4732 15.3699 13.98C15.6261 14.2071 15.8289 14.488 15.9638 14.8026C16.0986 15.1173 16.1622 15.4579 16.1499 15.8C16.1595 16.2161 16.0668 16.6282 15.8799 17C15.7132 17.3239 15.4736 17.6046 15.1799 17.82C14.9316 18.0077 14.6447 18.1375 14.3399 18.2C14.881 18.2795 15.3804 18.5362 15.7599 18.93C15.9763 19.1687 16.1426 19.4482 16.2491 19.7523C16.3556 20.0563 16.4001 20.3785 16.3799 20.7C16.4024 21.1036 16.3279 21.5067 16.1626 21.8755C15.9973 22.2444 15.746 22.5683 15.4299 22.82C14.7105 23.3483 13.8313 23.6131 12.9399 23.57C12.0557 23.6281 11.1818 23.3535 10.4899 22.8V22.8Z"/>
<path d="M19.8301 15.25H17.5601V13.65L21.7601 13.34V23.58H19.8301V15.25Z"/>
<path d="M10.9101 4.30005V5.30005H21.0901V4.30005H23.0901V5.30005H26.1601C26.4253 5.30005 26.6796 5.40541 26.8672 5.59294C27.0547 5.78048 27.1601 6.03483 27.1601 6.30005V26.7001C27.1601 26.9653 27.0547 27.2196 26.8672 27.4072C26.6796 27.5947 26.4253 27.7001 26.1601 27.7001H5.81006C5.54484 27.7001 5.29049 27.5947 5.10295 27.4072C4.91542 27.2196 4.81006 26.9653 4.81006 26.7001V6.32005C4.81006 6.05483 4.91542 5.80048 5.10295 5.61294C5.29049 5.42541 5.54484 5.32005 5.81006 5.32005H8.88006V4.32005L10.9101 4.30005ZM6.84006 9.39005H25.1601V7.39005H23.1601V8.39005H21.1601V7.39005H10.9101V8.39005H8.91006V7.39005H6.91006L6.84006 9.39005ZM6.84006 25.66H25.1601V11.42H6.84006V25.66Z"/>
</g>
</svg>
