<svg width="32" height="32" viewBox="0 0 32 32" xmlns="http://www.w3.org/2000/svg">
<g>
<path d="M17.1299 9.22006V18.2201H14.8699V9.22006H17.1299ZM17.1299 20.5201V22.7801H14.8699V20.5201H17.1299ZM22.7299 4.52006C24.7355 5.69197 26.3998 7.36799 27.5576 9.3818C28.7153 11.3956 29.3263 13.6772 29.3299 16.0001C29.3312 17.751 28.9873 19.4849 28.3179 21.1028C27.6485 22.7207 26.6667 24.1907 25.4286 25.4287C24.1905 26.6668 22.7205 27.6486 21.1026 28.3181C19.4848 28.9875 17.7508 29.3314 15.9999 29.3301C13.6719 29.3317 11.3842 28.7232 9.36467 27.5652C7.34515 26.4071 5.6644 24.7401 4.48992 22.7301C3.29769 20.6876 2.66943 18.365 2.66943 16.0001C2.66943 13.6351 3.29769 11.3125 4.48992 9.27006C5.6644 7.26006 7.34515 5.59298 9.36467 4.43496C11.3842 3.27693 13.6719 2.66842 15.9999 2.67006C18.3663 2.65918 20.6916 3.28802 22.7299 4.49006V4.52006ZM10.2899 6.26006C8.64276 7.23752 7.26738 8.6129 6.28992 10.2601C5.2817 11.9941 4.75059 13.9642 4.75059 15.9701C4.75059 17.9759 5.2817 19.946 6.28992 21.6801C7.26738 23.3272 8.64276 24.7026 10.2899 25.6801C12.024 26.6883 13.9941 27.2194 15.9999 27.2194C18.0058 27.2194 19.9759 26.6883 21.7099 25.6801C23.3571 24.7026 24.7325 23.3272 25.7099 21.6801C26.7181 19.946 27.2493 17.9759 27.2493 15.9701C27.2493 13.9642 26.7181 11.9941 25.7099 10.2601C24.7325 8.6129 23.3571 7.23752 21.7099 6.26006C19.9759 5.25184 18.0058 4.72073 15.9999 4.72073C13.9941 4.72073 12.024 5.25184 10.2899 6.26006V6.26006Z"/>
</g>
</svg>
