<svg width="32" height="32" viewBox="0 0 32 32" xmlns="http://www.w3.org/2000/svg">
<g>
<path d="M10.5501 18.4L7.00015 22H26.9301C27.1954 22 27.4497 22.1053 27.6373 22.2929C27.8248 22.4804 27.9301 22.7348 27.9301 23C27.9301 23.2652 27.8248 23.5196 27.6373 23.7071C27.4497 23.8946 27.1954 24 26.9301 24H7.00015L10.5601 27.56C10.7434 27.7469 10.846 27.9982 10.846 28.26C10.846 28.5217 10.7434 28.7731 10.5601 28.96V28.96C10.3728 29.1462 10.1193 29.2508 9.85515 29.2508C9.59096 29.2508 9.33751 29.1462 9.15015 28.96L3.88015 23.66C3.6939 23.4726 3.58936 23.2192 3.58936 22.955C3.58936 22.6908 3.6939 22.4373 3.88015 22.25L9.14015 17C9.32751 16.8137 9.58096 16.7092 9.84515 16.7092C10.1093 16.7092 10.3628 16.8137 10.5501 17V17C10.7334 17.1869 10.836 17.4382 10.836 17.7C10.836 17.9617 10.7334 18.2131 10.5501 18.4V18.4ZM28.1201 9.74999L22.8601 15C22.6728 15.1862 22.4193 15.2908 22.1551 15.2908C21.891 15.2908 21.6375 15.1862 21.4501 15V15C21.2699 14.8135 21.1692 14.5643 21.1692 14.305C21.1692 14.0456 21.2699 13.7965 21.4501 13.61L25.0001 9.99999H5.07015C4.80493 9.99999 4.55058 9.89463 4.36304 9.70709C4.1755 9.51956 4.07015 9.2652 4.07015 8.99999C4.07015 8.73477 4.1755 8.48042 4.36304 8.29288C4.55058 8.10534 4.80493 7.99999 5.07015 7.99999H25.0001L21.4501 4.48999C21.2669 4.30306 21.1643 4.05174 21.1643 3.78999C21.1643 3.52823 21.2669 3.27692 21.4501 3.08999V3.08999C21.6375 2.90374 21.891 2.79919 22.1551 2.79919C22.4193 2.79919 22.6728 2.90374 22.8601 3.08999L28.1201 8.34999C28.3034 8.53692 28.406 8.78823 28.406 9.04999C28.406 9.31174 28.3034 9.56306 28.1201 9.74999Z"/>
</g>
</svg>
