<svg width="32" height="32" viewBox="0 0 32 32" xmlns="http://www.w3.org/2000/svg">
<g>
<path d="M27 5V6C27.001 6.229 26.9233 6.45138 26.78 6.63L19 16.34V23C19 23.1552 18.9639 23.3084 18.8944 23.4472C18.825 23.5861 18.7242 23.7069 18.6 23.8L14.6 26.8C14.4514 26.9114 14.2748 26.9793 14.0898 26.996C13.9048 27.0126 13.7189 26.9775 13.5528 26.8944C13.3867 26.8114 13.247 26.6837 13.1493 26.5257C13.0517 26.3678 13 26.1857 13 26V16.34L5.22 6.62C5.07884 6.44406 5.00131 6.22556 5 6V5C5 4.73478 5.10536 4.48043 5.29289 4.29289C5.48043 4.10536 5.73478 4 6 4H26C26.2652 4 26.5196 4.10536 26.7071 4.29289C26.8946 4.48043 27 4.73478 27 5ZM14.47 15H17.53L24.72 6H7.28L14.47 15ZM15 24L17 22.5V17H15V24Z"/>
</g>
</svg>
