<svg width="32" height="32" viewBox="0 0 32 32" xmlns="http://www.w3.org/2000/svg">
<g>
<path d="M28.4299 25.82H22.7999V6.26001C22.7999 5.99479 22.6945 5.74044 22.507 5.5529C22.3195 5.36537 22.0651 5.26001 21.7999 5.26001C21.5347 5.26001 21.2803 5.36537 21.0928 5.5529C20.9052 5.74044 20.7999 5.99479 20.7999 6.26001V21.57C20.1522 17.2525 18.8009 13.0703 16.7999 9.19001C15.6099 6.80001 14.4199 6.30001 12.7999 6.24001C11.1799 6.18001 6.66989 6.00001 6.04989 6.47001C5.70989 6.73001 5.44989 6.92001 4.98989 11.22C4.88528 12.8312 4.86525 14.4467 4.92989 16.06C4.78566 16.148 4.65721 16.2595 4.54989 16.39C3.99989 17 3.19989 21 3.19989 21.37C3.19989 21.74 3.19989 23.25 3.19989 23.85C2.83479 24.3604 2.63893 24.9725 2.63989 25.6C2.63158 26.2524 2.8362 26.8898 3.22274 27.4155C3.60928 27.9411 4.15665 28.3264 4.7819 28.513C5.40714 28.6995 6.07616 28.6772 6.68754 28.4493C7.29893 28.2213 7.81934 27.8003 8.16989 27.25H16.4799C16.7593 27.6726 17.1289 28.028 17.562 28.2908C17.9951 28.5536 18.4811 28.7171 18.985 28.7697C19.4889 28.8223 19.9981 28.7626 20.4762 28.5949C20.9543 28.4273 21.3892 28.1558 21.7499 27.8H28.4399C28.7051 27.8 28.9595 27.6947 29.147 27.5071C29.3345 27.3196 29.4399 27.0652 29.4399 26.8C29.4346 26.5365 29.3256 26.2858 29.1365 26.1023C28.9473 25.9188 28.6934 25.8173 28.4299 25.82V25.82ZM16.8999 22.89C15.5498 22.7057 14.2136 22.4317 12.8999 22.07C11.0731 21.6229 9.40947 20.6698 8.09989 19.32C7.66402 18.8258 7.34906 18.2369 7.17989 17.6C8.9777 17.6175 10.7734 17.7277 12.5599 17.93C14.5195 18.2997 16.4588 18.7703 18.3699 19.34C18.5599 20.23 18.7199 21.09 18.8299 21.92C18.0989 22.027 17.422 22.3673 16.8999 22.89V22.89ZM5.64989 22.56C5.49673 22.5497 5.34305 22.5497 5.18989 22.56C5.18989 22.03 5.18989 21.56 5.18989 21.35C5.18989 21.14 5.42989 20.1 5.65989 19.18C5.82743 19.5548 6.03533 19.9103 6.27989 20.24C6.27989 20.49 6.39989 21.01 6.48989 21.86C6.50575 22.1264 6.50575 22.3936 6.48989 22.66C6.21602 22.5872 5.93321 22.5535 5.64989 22.56ZM8.54989 24.76C8.52547 24.705 8.50541 24.6482 8.48989 24.59C8.53209 23.8139 8.53209 23.0361 8.48989 22.26C9.68286 23.0813 11.0193 23.6715 12.4299 24C13.9399 24.4 15.1199 24.63 15.9499 24.77C15.9346 24.9263 15.9346 25.0837 15.9499 25.24H8.63989C8.62005 25.0783 8.58999 24.9179 8.54989 24.76V24.76ZM6.99989 11.44C7.15989 9.96001 7.31989 8.82001 7.43989 8.20001C8.66989 8.20001 11.5499 8.20001 12.7099 8.20001C13.5599 8.20001 14.1199 8.26001 15.0299 10.07C16.1802 12.3082 17.1112 14.6525 17.8099 17.07C16.1744 16.6213 14.5152 16.2641 12.8399 16C10.8745 15.7742 8.89817 15.6574 6.91989 15.65C6.86823 14.2463 6.89494 12.8408 6.99989 11.44V11.44ZM6.61989 25.86C6.5632 26.08 6.43328 26.2742 6.25152 26.4105C6.06975 26.5468 5.84698 26.6172 5.61989 26.61C5.34804 26.61 5.08733 26.502 4.89511 26.3098C4.70288 26.1176 4.59489 25.8569 4.59489 25.585C4.59489 25.3132 4.70288 25.0525 4.89511 24.8602C5.08733 24.668 5.34804 24.56 5.61989 24.56C5.84565 24.5523 6.06738 24.6212 6.24897 24.7556C6.43055 24.89 6.56129 25.0818 6.61989 25.3C6.63398 25.3962 6.63398 25.4939 6.61989 25.59C6.63378 25.6795 6.63378 25.7705 6.61989 25.86V25.86ZM20.7299 25.72C20.6555 25.9792 20.5103 26.2126 20.3105 26.3938C20.1108 26.5751 19.8645 26.697 19.5992 26.7459C19.334 26.7949 19.0604 26.7689 18.8091 26.6708C18.5579 26.5728 18.3389 26.4066 18.1769 26.191C18.0149 25.9754 17.9162 25.7188 17.892 25.4502C17.8678 25.1816 17.919 24.9116 18.0398 24.6704C18.1606 24.4293 18.3463 24.2267 18.576 24.0853C18.8056 23.9439 19.0702 23.8693 19.3399 23.87C19.6549 23.8731 19.9605 23.9779 20.2111 24.169C20.4616 24.36 20.6436 24.627 20.7299 24.93C20.7686 25.0599 20.7888 25.1945 20.7899 25.33C20.7888 25.4622 20.7686 25.5936 20.7299 25.72V25.72Z"/>
</g>
</svg>
