<svg width="32" height="32" viewBox="0 0 32 32" xmlns="http://www.w3.org/2000/svg">
<g>
<path d="M28.2801 29.36H3.54014C3.42242 29.3613 3.30561 29.3393 3.19648 29.2952C3.08734 29.251 2.98804 29.1857 2.90434 29.1029C2.82063 29.0201 2.75418 28.9216 2.70883 28.8129C2.66348 28.7043 2.64013 28.5877 2.64014 28.47V5.34001C2.64013 5.22229 2.66348 5.10573 2.70883 4.99709C2.75418 4.88846 2.82063 4.7899 2.90434 4.70712C2.98804 4.62434 3.08734 4.559 3.19648 4.51486C3.30561 4.47073 3.42242 4.44868 3.54014 4.45001H7.54014C7.77632 4.45255 8.00227 4.54682 8.17022 4.7129C8.33817 4.87899 8.43496 5.10386 8.44014 5.34001L8.49014 23.71L28.4901 27.18C28.7573 27.2315 28.9959 27.3801 29.1599 27.5973C29.3239 27.8144 29.4016 28.0846 29.3779 28.3557C29.3543 28.6267 29.2311 28.8794 29.032 29.0649C28.8329 29.2504 28.5722 29.3555 28.3001 29.36H28.2801ZM4.64014 27.36H17.8101L6.48014 25.36L6.43014 6.45001H4.64014V27.36Z"/>
<path d="M28.69 16.29L25.15 12.78C24.964 12.6027 24.7169 12.5038 24.46 12.5038C24.203 12.5038 23.956 12.6027 23.77 12.78V12.78C23.5927 12.966 23.4938 13.213 23.4938 13.47C23.4938 13.7269 23.5927 13.974 23.77 14.16L25.62 16H12.48C12.2148 16 11.9604 16.1053 11.7729 16.2929C11.5853 16.4804 11.48 16.7348 11.48 17C11.48 17.2652 11.5853 17.5195 11.7729 17.7071C11.9604 17.8946 12.2148 18 12.48 18H25.62L23.77 19.86C23.5927 20.046 23.4938 20.293 23.4938 20.55C23.4938 20.8069 23.5927 21.054 23.77 21.24C23.956 21.4173 24.203 21.5162 24.46 21.5162C24.7169 21.5162 24.964 21.4173 25.15 21.24L28.69 17.73L29.37 17.02L28.69 16.29Z"/>
</g>
</svg>
