<svg width="32" height="32" viewBox="0 0 32 32" xmlns="http://www.w3.org/2000/svg">
<g>
<path d="M24.93 6.17C23.93 3.47 16.54 3.25 16.47 3.25C16.06 3.25 14.96 3.25 13.91 6.96C13.8447 7.19291 13.866 7.4416 13.97 7.66C14.3127 8.44535 14.7528 9.18448 15.28 9.86C15.3632 9.94435 15.4616 10.0122 15.57 10.06C16.7081 10.6024 17.96 10.8631 19.22 10.82V10.94C19.3397 11.9731 19.1887 13.0196 18.782 13.9768C18.3753 14.934 17.7267 15.769 16.9 16.4C16.498 16.1877 16.0801 16.0071 15.65 15.86C11.25 14.39 6.58999 16.75 6.38999 16.86C6.15395 16.982 5.97604 17.1928 5.8954 17.4459C5.81476 17.6991 5.83799 17.974 5.95999 18.21C6.08199 18.446 6.29276 18.624 6.54594 18.7046C6.79911 18.7852 7.07395 18.762 7.30999 18.64C7.30999 18.64 11.41 16.57 15.02 17.77C15.9383 18.1007 16.7787 18.6167 17.4892 19.2859C18.1997 19.955 18.765 20.7632 19.15 21.66C19.2325 21.8283 19.3606 21.97 19.5197 22.0691C19.6788 22.1681 19.8626 22.2204 20.05 22.22C20.2024 22.2206 20.3529 22.1864 20.49 22.12C20.6127 22.067 20.7235 21.9899 20.8159 21.8933C20.9083 21.7968 20.9805 21.6826 21.028 21.5577C21.0755 21.4328 21.0976 21.2996 21.0928 21.166C21.0879 21.0324 21.0564 20.9012 21 20.78C20.442 19.5759 19.65 18.4949 18.67 17.6C19.6048 16.744 20.3274 15.682 20.7805 14.4983C21.2335 13.3145 21.4045 12.0414 21.28 10.78L21 9.31C20.9771 9.12547 20.9032 8.95098 20.7866 8.80613C20.67 8.66128 20.5154 8.5518 20.34 8.49C20.1672 8.43569 19.9829 8.42933 19.8068 8.4716C19.6307 8.51387 19.4693 8.60318 19.34 8.73C19.07 9.01 17.75 8.81 16.61 8.33C16.3818 7.95 16.1781 7.55587 16 7.15C16.1964 6.49087 16.4612 5.85408 16.79 5.25C18.93 5.32 22.79 6.11 23.1 6.87C23.79 8.72 24.76 23.98 23.37 25.44C22.72 25.89 18.49 26.62 14.82 26.62H14.67C11.05 26.6 7.99999 25.47 7.55999 25C7.46703 24.9063 7.35643 24.8319 7.23457 24.7811C7.11271 24.7303 6.98201 24.7042 6.84999 24.7042C6.71798 24.7042 6.58728 24.7303 6.46542 24.7811C6.34356 24.8319 6.23296 24.9063 6.13999 25C5.95374 25.1874 5.8492 25.4408 5.8492 25.705C5.8492 25.9692 5.95374 26.2226 6.13999 26.41C7.13999 27.41 10.89 28.58 14.61 28.6H14.73C17.67 28.6 23.54 28.02 24.73 26.86C27.25 24.33 25.39 7.43 24.93 6.17Z"/>
<path d="M12.8501 24.52C13.3074 24.5164 13.7631 24.4661 14.2101 24.37C14.3398 24.3449 14.4631 24.2944 14.5731 24.2214C14.6831 24.1484 14.7775 24.0543 14.851 23.9446C14.9244 23.8349 14.9754 23.7118 15.001 23.5822C15.0266 23.4527 15.0263 23.3194 15.0001 23.19C14.974 23.0603 14.9223 22.9371 14.8481 22.8274C14.774 22.7178 14.6788 22.624 14.5681 22.5514C14.4574 22.4789 14.3334 22.429 14.2033 22.4048C14.0732 22.3805 13.9396 22.3823 13.8101 22.41C13.1889 22.5696 12.5373 22.5689 11.9165 22.408C11.2956 22.2471 10.7257 21.9313 10.2601 21.49C10.1722 21.3922 10.0658 21.3127 9.94704 21.2559C9.82831 21.1992 9.69957 21.1665 9.56818 21.1595C9.43678 21.1525 9.3053 21.1715 9.18124 21.2154C9.05719 21.2592 8.94298 21.3271 8.84514 21.415C8.64756 21.5927 8.52865 21.8416 8.51459 22.107C8.50762 22.2384 8.52661 22.3699 8.57046 22.4939C8.6143 22.618 8.68216 22.7322 8.77014 22.83C9.30428 23.3681 9.94004 23.7945 10.6405 24.0847C11.3409 24.3748 12.092 24.5228 12.8501 24.52V24.52Z"/>
</g>
</svg>
