<svg width="32" height="32" viewBox="0 0 32 32" xmlns="http://www.w3.org/2000/svg">
<g>
<path d="M29.3699 27.37H2.62988V29.37H29.3699V27.37Z"/>
<path d="M15.2901 8.28999L11.7801 11.83C11.6028 12.016 11.5039 12.263 11.5039 12.52C11.5039 12.7769 11.6028 13.024 11.7801 13.21V13.21C11.9661 13.3873 12.2132 13.4862 12.4701 13.4862C12.727 13.4862 12.9741 13.3873 13.1601 13.21L15.0001 11.35V23.41C15.0001 23.6752 15.1055 23.9296 15.293 24.1171C15.4805 24.3046 15.7349 24.41 16.0001 24.41C16.2653 24.41 16.5197 24.3046 16.7072 24.1171C16.8947 23.9296 17.0001 23.6752 17.0001 23.41V11.35L18.8601 13.21C19.0461 13.3873 19.2932 13.4862 19.5501 13.4862C19.807 13.4862 20.0541 13.3873 20.2401 13.21V13.21C20.4174 13.024 20.5163 12.7769 20.5163 12.52C20.5163 12.263 20.4174 12.016 20.2401 11.83L16.7101 8.28999L16.0001 7.60999L15.2901 8.28999Z"/>
<path d="M23.32 2.63H19.77V4.63H23.32V2.63Z"/>
<path d="M17.7702 2.63H14.2202V4.63H17.7702V2.63Z"/>
<path d="M6.67988 2.63H2.62988V4.63H6.67988V2.63Z"/>
<path d="M29.3698 2.63H25.3198V4.63H29.3698V2.63Z"/>
<path d="M12.2199 2.63H8.66992V4.63H12.2199V2.63Z"/>
</g>
</svg>
