<svg width="32" height="32" viewBox="0 0 32 32" xmlns="http://www.w3.org/2000/svg">
<g>
<path d="M22.75 4.45999C24.7347 5.61464 26.3853 7.26525 27.54 9.24999C28.7387 11.2975 29.3706 13.6274 29.3706 16C29.3706 18.3726 28.7387 20.7025 27.54 22.75C26.3853 24.7347 24.7347 26.3853 22.75 27.54C20.7025 28.7387 18.3726 29.3706 16 29.3706C13.6274 29.3706 11.2975 28.7387 9.24999 27.54C7.26525 26.3853 5.61464 24.7347 4.45999 22.75C3.26124 20.7025 2.62939 18.3726 2.62939 16C2.62939 13.6274 3.26124 11.2975 4.45999 9.24999C5.61464 7.26525 7.26525 5.61464 9.24999 4.45999C11.2975 3.26124 13.6274 2.62939 16 2.62939C18.3726 2.62939 20.7025 3.26124 22.75 4.45999ZM10.28 6.22999C8.63571 7.21115 7.26115 8.58571 6.27999 10.23C5.271 11.9674 4.73955 13.9408 4.73955 15.95C4.73955 17.9592 5.271 19.9326 6.27999 21.67C7.25457 23.3326 8.62966 24.7248 10.28 25.72C12.0174 26.729 13.9908 27.2604 16 27.2604C18.0092 27.2604 19.9826 26.729 21.72 25.72C23.3886 24.7314 24.7814 23.3386 25.77 21.67C26.779 19.9326 27.3104 17.9592 27.3104 15.95C27.3104 13.9408 26.779 11.9674 25.77 10.23C24.7748 8.57966 23.3826 7.20457 21.72 6.22999C19.9826 5.221 18.0092 4.68955 16 4.68955C13.9908 4.68955 12.0174 5.221 10.28 6.22999V6.22999Z"/>
<path d="M18.2301 10.0001C18.894 10.3957 19.4504 10.9486 19.8501 11.6101C20.2533 12.2801 20.4644 13.0481 20.4601 13.8301C20.4606 14.7161 20.1815 15.5797 19.6626 16.2979C19.1437 17.0161 18.4115 17.5523 17.5701 17.8301L17.1101 17.9701V19.3901H14.8901V17.9101C14.8862 17.4382 15.0295 16.9768 15.3001 16.5901C15.5713 16.2035 15.9664 15.9212 16.4201 15.7901L16.8701 15.6501C17.2677 15.5149 17.6158 15.2642 17.8701 14.9301C18.1169 14.5974 18.2501 14.1943 18.2501 13.7801C18.2501 13.1886 18.0152 12.6214 17.597 12.2032C17.1787 11.785 16.6115 11.5501 16.0201 11.5501C15.4287 11.5501 14.8615 11.785 14.4433 12.2032C14.025 12.6214 13.7901 13.1886 13.7901 13.7801H11.5401C11.5358 12.9981 11.7469 12.2301 12.1501 11.5601C12.5562 10.9169 13.1121 10.3816 13.7701 10.0001C14.4454 9.60063 15.2155 9.38989 16.0001 9.38989C16.7847 9.38989 17.5548 9.60063 18.2301 10.0001Z"/>
<path d="M17.1201 20.4399H14.8901V22.6599H17.1201V20.4399Z"/>
</g>
</svg>
