<svg width="32" height="32" viewBox="0 0 32 32" xmlns="http://www.w3.org/2000/svg">
<g>
<path d="M22.75 4.45999C24.7347 5.61464 26.3853 7.26525 27.54 9.24999C28.7387 11.2975 29.3706 13.6274 29.3706 16C29.3706 18.3726 28.7387 20.7025 27.54 22.75C26.3853 24.7347 24.7347 26.3853 22.75 27.54C20.7025 28.7387 18.3726 29.3706 16 29.3706C13.6274 29.3706 11.2975 28.7387 9.24999 27.54C7.26525 26.3853 5.61464 24.7347 4.45999 22.75C3.26124 20.7025 2.62939 18.3726 2.62939 16C2.62939 13.6274 3.26124 11.2975 4.45999 9.24999C5.61464 7.26525 7.26525 5.61464 9.24999 4.45999C11.2975 3.26124 13.6274 2.62939 16 2.62939C18.3726 2.62939 20.7025 3.26124 22.75 4.45999ZM10.28 6.22999C8.63571 7.21115 7.26115 8.58571 6.27999 10.23C5.271 11.9674 4.73955 13.9408 4.73955 15.95C4.73955 17.9592 5.271 19.9326 6.27999 21.67C7.25457 23.3326 8.62966 24.7248 10.28 25.72C12.0174 26.729 13.9908 27.2604 16 27.2604C18.0092 27.2604 19.9826 26.729 21.72 25.72C23.3886 24.7314 24.7814 23.3386 25.77 21.67C26.779 19.9326 27.3104 17.9592 27.3104 15.95C27.3104 13.9408 26.779 11.9674 25.77 10.23C24.7748 8.57966 23.3826 7.20457 21.72 6.22999C19.9826 5.221 18.0092 4.68955 16 4.68955C13.9908 4.68955 12.0174 5.221 10.28 6.22999V6.22999ZM17 9.82999V11.89H15V9.82999H17ZM17 13.94V22.17H15V13.94H17Z"/>
</g>
</svg>
