<svg width="1229" height="77" viewBox="0 0 1229 77" xmlns="http://www.w3.org/2000/svg">
<g id="Library Section Header">
<path d="M99.3945 22.5469C99.3945 22.8516 99.332 23.1328 99.207 23.3906C99.082 23.6406 98.9023 23.8555 98.668 24.0352C98.4336 24.2148 98.1445 24.3555 97.8008 24.457C97.4648 24.5586 97.0781 24.6094 96.6406 24.6094C96.1484 24.6094 95.6953 24.5547 95.2812 24.4453C94.875 24.3359 94.5273 24.1641 94.2383 23.9297C93.9414 23.6953 93.7109 23.3945 93.5469 23.0273C93.3828 22.6602 93.293 22.2188 93.2773 21.7031H90.043C90.043 22.5859 90.2109 23.3555 90.5469 24.0117C90.8906 24.668 91.3555 25.2383 91.9414 25.7227C92.5586 26.2148 93.2812 26.5898 94.1094 26.8477C94.9453 27.0977 95.7891 27.2227 96.6406 27.2227C97.5078 27.2227 98.3086 27.1211 99.043 26.918C99.7773 26.707 100.41 26.3984 100.941 25.9922C101.473 25.5938 101.887 25.1055 102.184 24.5273C102.488 23.9414 102.641 23.2734 102.641 22.5234C102.641 21.6562 102.441 20.8906 102.043 20.2266C101.645 19.5625 101.109 18.9805 100.438 18.4805C99.9922 18.1758 99.5039 17.9062 98.9727 17.6719C98.4414 17.4375 97.8828 17.2383 97.2969 17.0742C96.75 16.9258 96.2578 16.7656 95.8203 16.5938C95.3906 16.4219 95.0234 16.2305 94.7188 16.0195C94.4141 15.8164 94.1797 15.5859 94.0156 15.3281C93.8594 15.0703 93.7812 14.7812 93.7812 14.4609C93.7812 14.1562 93.8398 13.875 93.957 13.6172C94.082 13.3516 94.2617 13.1211 94.4961 12.9258C94.7305 12.7383 95.0156 12.5938 95.3516 12.4922C95.6953 12.3828 96.0859 12.3281 96.5234 12.3281C97 12.3281 97.4141 12.3945 97.7656 12.5273C98.125 12.6523 98.4258 12.8281 98.668 13.0547C98.9023 13.2891 99.0781 13.5664 99.1953 13.8867C99.3203 14.207 99.3906 14.5586 99.4062 14.9414H102.617C102.617 14.1758 102.469 13.4727 102.172 12.832C101.875 12.1914 101.461 11.6367 100.93 11.168C100.398 10.707 99.7617 10.3477 99.0195 10.0898C98.2852 9.83203 97.4727 9.70312 96.582 9.70312C95.7227 9.70312 94.9258 9.81641 94.1914 10.043C93.457 10.2617 92.8203 10.5781 92.2812 10.9922C91.7422 11.4062 91.3203 11.9062 91.0156 12.4922C90.7109 13.0781 90.5586 13.7305 90.5586 14.4492C90.5586 15.0742 90.6719 15.6523 90.8984 16.1836C91.1328 16.7148 91.4766 17.1992 91.9297 17.6367C92.3828 18.0742 92.9648 18.4766 93.6758 18.8438C94.3945 19.2109 95.2266 19.5234 96.1719 19.7812C96.7812 19.9453 97.2891 20.125 97.6953 20.3203C98.1094 20.5078 98.4453 20.7148 98.7031 20.9414C98.9531 21.1758 99.1289 21.4258 99.2305 21.6914C99.3398 21.957 99.3945 22.2422 99.3945 22.5469ZM113.453 20.7422H115.996C116.926 20.7422 117.766 20.6094 118.516 20.3438C119.266 20.0781 119.906 19.707 120.438 19.2305C120.961 18.7617 121.363 18.2031 121.645 17.5547C121.934 16.9062 122.078 16.1992 122.078 15.4336C122.078 14.6133 121.934 13.8672 121.645 13.1953C121.363 12.5234 120.961 11.9453 120.438 11.4609C119.906 10.9844 119.266 10.6133 118.516 10.3477C117.766 10.0742 116.926 9.9375 115.996 9.9375H110.16V27H113.453V20.7422ZM113.453 18.0703V12.6094H115.996C116.465 12.6094 116.871 12.6836 117.215 12.832C117.559 12.9805 117.848 13.1836 118.082 13.4414C118.309 13.6992 118.477 14 118.586 14.3438C118.703 14.6875 118.762 15.0586 118.762 15.457C118.762 15.8008 118.703 16.1328 118.586 16.4531C118.477 16.7656 118.309 17.043 118.082 17.2852C117.848 17.5273 117.559 17.7188 117.215 17.8594C116.871 18 116.465 18.0703 115.996 18.0703H113.453ZM130.09 9.9375V12.5977H133.336V24.3516H130.09V27H139.957V24.3516H136.629V12.5977H139.957V9.9375H130.09ZM160.027 27V9.9375H156.723L156.711 20.8945L152 9.9375H148.684V27H152V15.9961L156.746 27H160.027ZM179.441 27V9.9375H176.137L176.125 20.8945L171.414 9.9375H168.098V27H171.414V15.9961L176.16 27H179.441ZM198.105 19.5234V16.9219H191.098V12.6211H199.254V9.9375H187.793V27H199.289V24.3398H191.098V19.5234H198.105ZM212.809 20.625L216.02 27H219.547V26.8477L215.879 19.8047C216.348 19.5938 216.77 19.3438 217.145 19.0547C217.527 18.7656 217.855 18.4258 218.129 18.0352C218.395 17.6523 218.598 17.2188 218.738 16.7344C218.887 16.2422 218.961 15.6914 218.961 15.082C218.961 14.2383 218.812 13.4961 218.516 12.8555C218.227 12.2148 217.812 11.6797 217.273 11.25C216.727 10.8203 216.07 10.4961 215.305 10.2773C214.539 10.0508 213.684 9.9375 212.738 9.9375H207.02V27H210.312V20.625H212.809ZM210.312 17.9531V12.6094H212.738C213.191 12.6094 213.594 12.6641 213.945 12.7734C214.297 12.8828 214.594 13.0391 214.836 13.2422C215.109 13.4688 215.312 13.7578 215.445 14.1094C215.586 14.4531 215.656 14.8516 215.656 15.3047C215.656 15.6797 215.602 16.0195 215.492 16.3242C215.391 16.6289 215.238 16.8906 215.035 17.1094C214.793 17.3828 214.477 17.5938 214.086 17.7422C213.703 17.8828 213.258 17.9531 212.75 17.9531H210.312Z"/>
<g>
<rect x="0.25" y="76.25" width="1228.5" height="0.5" stroke="#F96915" stroke-width="0.5"/>
</g>
</g>
</svg>
