<svg width="32" height="32" viewBox="0 0 32 32" xmlns="http://www.w3.org/2000/svg">
<g>
<path d="M24.52 5.17003C25.4771 5.72687 26.2731 6.52288 26.83 7.48003C27.3938 8.44077 27.6875 9.53607 27.68 10.65C27.6841 11.5074 27.5069 12.356 27.16 13.14C26.8181 13.9303 26.3217 14.6443 25.7 15.24L17.76 23.18C16.8635 24.0671 15.7854 24.7494 14.6 25.18C13.5526 25.5459 12.4493 25.7253 11.34 25.71H7.62997L6.36997 27C6.18451 27.1744 5.93953 27.2715 5.68497 27.2715C5.43041 27.2715 5.18543 27.1744 4.99997 27C4.8256 26.8146 4.72852 26.5696 4.72852 26.315C4.72852 26.0605 4.8256 25.8155 4.99997 25.63L16.55 14.05C16.7369 13.8668 16.9882 13.7642 17.25 13.7642C17.5117 13.7642 17.763 13.8668 17.95 14.05V14.05C18.1332 14.237 18.2358 14.4883 18.2358 14.75C18.2358 15.0118 18.1332 15.2631 17.95 15.45L9.57997 23.79H11.45C12.094 23.7987 12.7364 23.7213 13.36 23.56C14.4964 23.2667 15.5327 22.6725 16.36 21.84H14.05L17.49 20.68L21.2 17H18.92L22.36 15.85L24.36 13.85C24.7843 13.4323 25.1238 12.9366 25.36 12.39C25.5987 11.8446 25.7213 11.2554 25.72 10.66C25.7284 9.88967 25.5242 9.13191 25.13 8.47003C24.746 7.80576 24.1942 7.25402 23.53 6.87003C22.8681 6.47577 22.1103 6.27162 21.34 6.28003C20.7453 6.27523 20.1561 6.39443 19.61 6.63003C19.0606 6.86105 18.5639 7.20126 18.15 7.63003L10.21 15.63C9.62455 16.2008 9.15583 16.8801 8.82997 17.63C8.49083 18.357 8.28749 19.1399 8.22997 19.94L6.22997 21.94V20.65C6.22832 19.5417 6.42125 18.4417 6.79997 17.4C7.22824 16.2135 7.91086 15.1349 8.79997 14.24L16.8 6.30003C17.381 5.67477 18.086 5.17753 18.87 4.84003C19.654 4.49307 20.5026 4.31586 21.36 4.32003C22.4705 4.31428 23.5622 4.60791 24.52 5.17003V5.17003Z"/>
</g>
</svg>
