<svg width="32" height="32" viewBox="0 0 32 32" xmlns="http://www.w3.org/2000/svg">
<g>
<path d="M19.2901 6C20.3501 7.36667 21.3301 8.7 22.2301 10C23.342 11.5969 24.3443 13.2674 25.2301 15C26.0524 16.4652 26.5407 18.094 26.6601 19.77C26.6702 21.4538 26.2244 23.109 25.3701 24.56C24.5318 25.975 23.3526 27.1577 21.9401 28C20.4813 28.8445 18.8256 29.2893 17.1401 29.2893C15.4545 29.2893 13.7988 28.8445 12.3401 28C10.9289 27.1659 9.75762 25.9808 8.94005 24.56C8.05976 23.1181 7.59916 21.4593 7.61005 19.77C7.71706 18.0971 8.19166 16.4685 9.00005 15C9.88577 13.2674 10.8881 11.5969 12.0001 10C12.9001 8.66667 13.8801 7.33334 14.9401 6L16.3101 4.3C16.4038 4.18321 16.5225 4.08895 16.6575 4.02418C16.7925 3.95941 16.9403 3.92578 17.0901 3.92578C17.2398 3.92578 17.3876 3.95941 17.5226 4.02418C17.6576 4.08895 17.7764 4.18321 17.8701 4.3L19.2901 6ZM16.9101 7C15.7841 8.33898 14.7358 9.74127 13.7701 11.2C12.7344 12.7325 11.8087 14.3365 11.0001 16C10.6587 16.7042 10.3614 17.4289 10.1101 18.17C9.91782 18.6969 9.80656 19.2498 9.78005 19.81C9.77368 21.1092 10.1118 22.387 10.76 23.513C11.4082 24.639 12.3433 25.573 13.4701 26.22C14.6004 26.875 15.8837 27.2199 17.1901 27.2199C18.4965 27.2199 19.7797 26.875 20.9101 26.22C22.0368 25.573 22.9719 24.639 23.6201 23.513C24.2683 22.387 24.6064 21.1092 24.6001 19.81C24.5735 19.2498 24.4623 18.6969 24.2701 18.17C24.0024 17.4277 23.6884 16.703 23.3301 16C22.5036 14.3488 21.5612 12.7581 20.5101 11.24C19.5456 9.76759 18.4972 8.35192 17.3701 7C17.2857 6.90615 17.2088 6.80585 17.1401 6.7L16.9101 7ZM13.0801 19.81C13.3154 19.8057 13.5447 19.8846 13.7277 20.0328C13.9106 20.1809 14.0354 20.3889 14.0801 20.62C14.2205 21.1666 14.5075 21.6645 14.9101 22.06C15.3083 22.4591 15.8051 22.7454 16.3501 22.89C16.5812 22.9347 16.7891 23.0595 16.9373 23.2424C17.0854 23.4253 17.1643 23.6546 17.1601 23.89V24C17.1655 24.1564 17.1341 24.3118 17.0685 24.4539C17.0029 24.5959 16.9049 24.7206 16.7823 24.8178C16.6598 24.9151 16.5161 24.9823 16.3629 25.0139C16.2096 25.0455 16.0511 25.0408 15.9001 25C15.2061 24.8301 14.5539 24.5209 13.9832 24.0911C13.4125 23.6613 12.9351 23.12 12.5801 22.5C12.3113 22.0575 12.1155 21.5747 12.0001 21.07C11.9593 20.9189 11.9545 20.7604 11.9862 20.6072C12.0178 20.454 12.0849 20.3103 12.1822 20.1877C12.2795 20.0652 12.4041 19.9672 12.5462 19.9016C12.6882 19.836 12.8437 19.8046 13.0001 19.81H13.0801Z"/>
</g>
</svg>
