<svg width="32" height="32" viewBox="0 0 32 32" xmlns="http://www.w3.org/2000/svg">
<g>
<path d="M18.1299 5.77997C18.4121 6.05723 18.6347 6.38911 18.7843 6.75534C18.9339 7.12156 19.0073 7.51444 18.9999 7.90997C18.9952 8.25182 18.9309 8.59022 18.8099 8.90997H23.0499C23.2838 8.90526 23.512 8.98273 23.6947 9.1289C23.8775 9.27508 24.0031 9.4807 24.0499 9.70997L27.0499 24.9V25V26.11C27.0499 26.3752 26.9445 26.6295 26.757 26.8171C26.5695 27.0046 26.3151 27.11 26.0499 27.11H5.87988C5.61467 27.11 5.36031 27.0046 5.17278 26.8171C4.98524 26.6295 4.87988 26.3752 4.87988 26.11V25V24.9L7.87988 9.70997C7.92663 9.4807 8.05231 9.27508 8.23503 9.1289C8.41774 8.98273 8.64594 8.90526 8.87988 8.90997H13.1199C12.9989 8.59022 12.9346 8.25182 12.9299 7.90997C12.9264 7.51228 13.0044 7.11809 13.1592 6.75174C13.314 6.38539 13.5423 6.05466 13.8299 5.77997C14.1088 5.49879 14.4406 5.27561 14.8062 5.1233C15.1717 4.97099 15.5638 4.89258 15.9599 4.89258C16.3559 4.89258 16.748 4.97099 17.1136 5.1233C17.4792 5.27561 17.811 5.49879 18.0899 5.77997H18.1299ZM6.89988 25.1H25.0999L22.2599 10.94H9.73988L6.89988 25.1ZM15.2899 7.17997C15.1925 7.2704 15.1155 7.38043 15.0638 7.50281C15.0121 7.62519 14.9869 7.75715 14.9899 7.88997C14.9899 8.0213 15.0157 8.15133 15.066 8.27266C15.1163 8.39398 15.1899 8.50422 15.2828 8.59708C15.3756 8.68994 15.4859 8.7636 15.6072 8.81385C15.7285 8.86411 15.8586 8.88997 15.9899 8.88997C16.1227 8.89298 16.2547 8.8678 16.377 8.81609C16.4994 8.76438 16.6095 8.68731 16.6999 8.58997C16.8883 8.40534 16.9961 8.15374 16.9999 7.88997C17.0041 7.6256 16.9034 7.37032 16.7199 7.17997C16.5229 7.00079 16.2662 6.90149 15.9999 6.90149C15.7336 6.90149 15.4769 7.00079 15.2799 7.17997H15.2899Z"/>
</g>
</svg>
