<svg width="54" height="9" viewBox="0 0 54 9" xmlns="http://www.w3.org/2000/svg">
<path d="M2.08887 6.8916V0.890625H0.711914V8H5.41895V6.8916H2.08887ZM13.5859 4.96777V3.93262C13.5859 3.61035 13.555 3.30599 13.4932 3.01953C13.4346 2.73307 13.3483 2.4694 13.2344 2.22852C13.1302 2.01693 13.0049 1.82324 12.8584 1.64746C12.7152 1.47168 12.5475 1.32194 12.3555 1.19824C12.1634 1.06803 11.9469 0.96875 11.7061 0.900391C11.4684 0.828776 11.2129 0.792969 10.9395 0.792969C10.6693 0.792969 10.4186 0.827148 10.1875 0.895508C9.95638 0.963867 9.74805 1.06152 9.5625 1.18848C9.3737 1.31868 9.20605 1.47493 9.05957 1.65723C8.91634 1.83952 8.79427 2.04297 8.69336 2.26758C8.58919 2.50521 8.50944 2.764 8.4541 3.04395C8.40202 3.32389 8.37598 3.62012 8.37598 3.93262V4.96777C8.37598 5.26074 8.39876 5.53906 8.44434 5.80273C8.49316 6.06641 8.56315 6.31055 8.6543 6.53516C8.75521 6.7793 8.88053 6.99902 9.03027 7.19434C9.18001 7.38639 9.34928 7.55078 9.53809 7.6875C9.73014 7.81771 9.94336 7.91862 10.1777 7.99023C10.4121 8.06185 10.6676 8.09766 10.9443 8.09766C11.2048 8.09766 11.4473 8.0651 11.6719 8C11.8997 7.93815 12.1081 7.85026 12.2969 7.73633C12.5052 7.60612 12.6908 7.44336 12.8535 7.24805C13.0163 7.05273 13.153 6.83789 13.2637 6.60352C13.3678 6.36914 13.4476 6.11523 13.5029 5.8418C13.5583 5.5651 13.5859 5.27376 13.5859 4.96777ZM12.1943 3.92285V4.96777C12.1943 5.14355 12.1846 5.31283 12.165 5.47559C12.1488 5.63835 12.1227 5.78809 12.0869 5.9248C12.0413 6.10059 11.9795 6.25846 11.9014 6.39844C11.8265 6.53516 11.7337 6.64909 11.623 6.74023C11.5352 6.8151 11.4342 6.87207 11.3203 6.91113C11.2064 6.9502 11.0811 6.96973 10.9443 6.96973C10.8011 6.96973 10.6725 6.94857 10.5586 6.90625C10.4479 6.86393 10.3486 6.80371 10.2607 6.72559C10.1663 6.6377 10.0833 6.52376 10.0117 6.38379C9.94336 6.24056 9.89128 6.08268 9.85547 5.91016C9.82292 5.77344 9.80013 5.62533 9.78711 5.46582C9.77409 5.30632 9.76758 5.1403 9.76758 4.96777V3.92285C9.76758 3.74056 9.77409 3.56641 9.78711 3.40039C9.80339 3.23438 9.8278 3.08138 9.86035 2.94141C9.90267 2.75911 9.96126 2.59961 10.0361 2.46289C10.1143 2.32617 10.2087 2.21224 10.3193 2.12109C10.4007 2.05924 10.4919 2.01204 10.5928 1.97949C10.6969 1.94694 10.8125 1.93066 10.9395 1.93066C11.0729 1.93066 11.1934 1.94857 11.3008 1.98438C11.4115 2.02018 11.5107 2.07064 11.5986 2.13574C11.7093 2.22363 11.8053 2.33757 11.8867 2.47754C11.9681 2.61426 12.0332 2.77051 12.082 2.94629C12.1211 3.08626 12.1488 3.23926 12.165 3.40527C12.1846 3.56803 12.1943 3.74056 12.1943 3.92285ZM21.5186 7.16992L21.5137 4.36719H18.9697V5.39258H20.1465L20.1416 6.68164C20.1058 6.72396 20.0521 6.76465 19.9805 6.80371C19.9121 6.83952 19.8324 6.87207 19.7412 6.90137C19.6501 6.93066 19.5524 6.95345 19.4482 6.96973C19.3441 6.986 19.2383 6.99414 19.1309 6.99414C18.9551 6.99089 18.7972 6.96322 18.6572 6.91113C18.5205 6.85579 18.4001 6.77604 18.2959 6.67188C18.234 6.61003 18.1771 6.54004 18.125 6.46191C18.0762 6.38053 18.0322 6.29264 17.9932 6.19824C17.9313 6.03548 17.8825 5.84831 17.8467 5.63672C17.8141 5.42513 17.7979 5.19076 17.7979 4.93359V3.95703C17.7979 3.75195 17.8092 3.56152 17.832 3.38574C17.8581 3.20996 17.8939 3.05046 17.9395 2.90723C17.998 2.72168 18.0713 2.56055 18.1592 2.42383C18.2503 2.28711 18.3512 2.17643 18.4619 2.0918C18.5465 2.02995 18.6377 1.98275 18.7354 1.9502C18.833 1.91764 18.9339 1.90137 19.0381 1.90137C19.2301 1.90137 19.3945 1.92741 19.5312 1.97949C19.6712 2.02832 19.7868 2.10319 19.8779 2.2041C19.9593 2.29525 20.0228 2.40755 20.0684 2.54102C20.1172 2.67448 20.153 2.82747 20.1758 3H21.5137C21.4779 2.6582 21.4014 2.35059 21.2842 2.07715C21.1702 1.80371 21.0107 1.57096 20.8057 1.37891C20.6006 1.1901 20.3483 1.04525 20.0488 0.944336C19.7526 0.843424 19.4043 0.792969 19.0039 0.792969C18.7435 0.792969 18.4961 0.828776 18.2617 0.900391C18.0273 0.972005 17.8109 1.0778 17.6123 1.21777C17.443 1.34147 17.2868 1.48796 17.1436 1.65723C17.0036 1.8265 16.8799 2.01693 16.7725 2.22852C16.6585 2.46615 16.5706 2.73145 16.5088 3.02441C16.4469 3.31413 16.416 3.62826 16.416 3.9668V4.93359C16.416 5.28841 16.4469 5.61719 16.5088 5.91992C16.5739 6.22266 16.6683 6.49447 16.792 6.73535C16.8994 6.95345 17.0296 7.14714 17.1826 7.31641C17.3389 7.48568 17.5114 7.62891 17.7002 7.74609C17.8923 7.86003 18.1022 7.94629 18.3301 8.00488C18.5612 8.06673 18.807 8.09766 19.0674 8.09766C19.3669 8.09766 19.6468 8.06999 19.9072 8.01465C20.1676 7.95931 20.4036 7.88607 20.6152 7.79492C20.8236 7.70703 21.0042 7.60775 21.1572 7.49707C21.3102 7.38639 21.4307 7.27734 21.5186 7.16992ZM29.4414 5.41211V4.31348H25.374V5.41211H29.4414ZM37.6035 4.96777V3.93262C37.6035 3.61035 37.5726 3.30599 37.5107 3.01953C37.4521 2.73307 37.3659 2.4694 37.252 2.22852C37.1478 2.01693 37.0225 1.82324 36.876 1.64746C36.7327 1.47168 36.5651 1.32194 36.373 1.19824C36.181 1.06803 35.9645 0.96875 35.7236 0.900391C35.486 0.828776 35.2305 0.792969 34.957 0.792969C34.6868 0.792969 34.4362 0.827148 34.2051 0.895508C33.974 0.963867 33.7656 1.06152 33.5801 1.18848C33.3913 1.31868 33.2236 1.47493 33.0771 1.65723C32.9339 1.83952 32.8118 2.04297 32.7109 2.26758C32.6068 2.50521 32.527 2.764 32.4717 3.04395C32.4196 3.32389 32.3936 3.62012 32.3936 3.93262V4.96777C32.3936 5.26074 32.4163 5.53906 32.4619 5.80273C32.5107 6.06641 32.5807 6.31055 32.6719 6.53516C32.7728 6.7793 32.8981 6.99902 33.0479 7.19434C33.1976 7.38639 33.3669 7.55078 33.5557 7.6875C33.7477 7.81771 33.9609 7.91862 34.1953 7.99023C34.4297 8.06185 34.6852 8.09766 34.9619 8.09766C35.2223 8.09766 35.4648 8.0651 35.6895 8C35.9173 7.93815 36.1257 7.85026 36.3145 7.73633C36.5228 7.60612 36.7083 7.44336 36.8711 7.24805C37.0339 7.05273 37.1706 6.83789 37.2812 6.60352C37.3854 6.36914 37.4652 6.11523 37.5205 5.8418C37.5758 5.5651 37.6035 5.27376 37.6035 4.96777ZM36.2119 3.92285V4.96777C36.2119 5.14355 36.2021 5.31283 36.1826 5.47559C36.1663 5.63835 36.1403 5.78809 36.1045 5.9248C36.0589 6.10059 35.9971 6.25846 35.9189 6.39844C35.8441 6.53516 35.7513 6.64909 35.6406 6.74023C35.5527 6.8151 35.4518 6.87207 35.3379 6.91113C35.224 6.9502 35.0986 6.96973 34.9619 6.96973C34.8187 6.96973 34.6901 6.94857 34.5762 6.90625C34.4655 6.86393 34.3662 6.80371 34.2783 6.72559C34.1839 6.6377 34.1009 6.52376 34.0293 6.38379C33.9609 6.24056 33.9089 6.08268 33.873 5.91016C33.8405 5.77344 33.8177 5.62533 33.8047 5.46582C33.7917 5.30632 33.7852 5.1403 33.7852 4.96777V3.92285C33.7852 3.74056 33.7917 3.56641 33.8047 3.40039C33.821 3.23438 33.8454 3.08138 33.8779 2.94141C33.9202 2.75911 33.9788 2.59961 34.0537 2.46289C34.1318 2.32617 34.2262 2.21224 34.3369 2.12109C34.4183 2.05924 34.5094 2.01204 34.6104 1.97949C34.7145 1.94694 34.8301 1.93066 34.957 1.93066C35.0905 1.93066 35.2109 1.94857 35.3184 1.98438C35.429 2.02018 35.5283 2.07064 35.6162 2.13574C35.7269 2.22363 35.8229 2.33757 35.9043 2.47754C35.9857 2.61426 36.0508 2.77051 36.0996 2.94629C36.1387 3.08626 36.1663 3.23926 36.1826 3.40527C36.2021 3.56803 36.2119 3.74056 36.2119 3.92285ZM45.3848 0.890625H44.0225L44.0176 5.60254C44.0143 5.83366 43.9899 6.03711 43.9443 6.21289C43.8988 6.38867 43.8304 6.53516 43.7393 6.65234C43.6546 6.76628 43.5472 6.85254 43.417 6.91113C43.29 6.96647 43.1436 6.99414 42.9775 6.99414C42.8245 6.99414 42.6895 6.9681 42.5723 6.91602C42.4551 6.86068 42.3558 6.7793 42.2744 6.67188C42.1865 6.55469 42.1198 6.40658 42.0742 6.22754C42.0319 6.0485 42.0091 5.84017 42.0059 5.60254L42.001 0.890625H40.6289L40.624 5.60254C40.624 5.99967 40.6794 6.35449 40.79 6.66699C40.904 6.97624 41.0635 7.23665 41.2686 7.44824C41.4736 7.65983 41.7194 7.82096 42.0059 7.93164C42.2956 8.04232 42.6195 8.09766 42.9775 8.09766C43.3584 8.09766 43.6969 8.04232 43.9932 7.93164C44.2926 7.82096 44.5465 7.6582 44.7549 7.44336C44.96 7.23177 45.1162 6.97135 45.2236 6.66211C45.3343 6.35286 45.3896 5.99967 45.3896 5.60254L45.3848 0.890625ZM53.8789 2.00879V0.890625H48.1465V2.00879H50.3096V8H51.6865V2.00879H53.8789Z"/>
</svg>
