<svg width="32" height="32" viewBox="0 0 32 32" xmlns="http://www.w3.org/2000/svg">
<g>
<path d="M17 4C17 3.44772 16.5523 3 16 3C15.4477 3 15 3.44772 15 4V7C15 7.55228 15.4477 8 16 8C16.5523 8 17 7.55228 17 7V4Z"/>
<path d="M15 24.75V28C15 28.2652 15.1054 28.5196 15.2929 28.7071C15.4804 28.8946 15.7348 29 16 29C16.2652 29 16.5196 28.8946 16.7071 28.7071C16.8946 28.5196 17 28.2652 17 28V25C17 24.7348 16.8946 24.4804 16.7071 24.2929C16.5196 24.1054 16.2652 24 16 24H15V24.75Z"/>
<path d="M25.2002 6.79995C25.0128 6.6137 24.7594 6.50916 24.4952 6.50916C24.231 6.50916 23.9775 6.6137 23.7902 6.79995L21.6502 8.91995C21.4639 9.10731 21.3594 9.36076 21.3594 9.62495C21.3594 9.88913 21.4639 10.1426 21.6502 10.3299V10.3299C21.8375 10.5162 22.091 10.6207 22.3552 10.6207C22.6194 10.6207 22.8728 10.5162 23.0602 10.3299L25.1902 8.18995C25.3718 8.00478 25.4743 7.75631 25.4762 7.49697C25.478 7.23763 25.3791 6.98771 25.2002 6.79995V6.79995Z"/>
<path d="M21.6502 23.0801L23.7902 25.2101C23.9776 25.3963 24.231 25.5008 24.4952 25.5008C24.7594 25.5008 25.0128 25.3963 25.2002 25.2101V25.2101C25.3865 25.0227 25.491 24.7692 25.491 24.5051C25.491 24.2409 25.3865 23.9874 25.2002 23.8001L23.0702 21.6601C22.8828 21.4738 22.6294 21.3693 22.3652 21.3693C22.101 21.3693 21.8476 21.4738 21.6602 21.6601C21.5658 21.7524 21.4906 21.8624 21.439 21.9839C21.3874 22.1054 21.3603 22.236 21.3594 22.368C21.3585 22.5 21.3837 22.6309 21.4336 22.7531C21.4835 22.8753 21.5571 22.9864 21.6502 23.0801Z"/>
<path d="M28 15H25C24.4477 15 24 15.4477 24 16C24 16.5523 24.4477 17 25 17H28C28.5523 17 29 16.5523 29 16C29 15.4477 28.5523 15 28 15Z"/>
<path d="M22.06 12.48C21.4433 11.4199 20.5589 10.5405 19.4953 9.92971C18.4318 9.31896 17.2264 8.99836 16 9.00001H15V23H16C17.8565 23 19.637 22.2625 20.9497 20.9498C22.2625 19.637 23 17.8565 23 16C23.0102 14.7633 22.6853 13.547 22.06 12.48V12.48ZM20.33 18.48C19.8918 19.2285 19.2685 19.8518 18.52 20.29C18.0493 20.5627 17.5351 20.7521 17 20.85V11.11C17.5351 11.2079 18.0493 11.3973 18.52 11.67C19.2685 12.1082 19.8918 12.7315 20.33 13.48C20.7621 14.2424 20.9892 15.1037 20.9892 15.98C20.9892 16.8563 20.7621 17.7176 20.33 18.48V18.48Z"/>
</g>
</svg>
