<svg width="32" height="32" viewBox="0 0 32 32" xmlns="http://www.w3.org/2000/svg">
<g>
<path d="M28.9298 8.05005V24C28.9298 24.2653 28.8245 24.5196 28.6369 24.7072C28.4494 24.8947 28.195 25 27.9298 25H4.06982C3.80461 25 3.55025 24.8947 3.36272 24.7072C3.17518 24.5196 3.06982 24.2653 3.06982 24V8.05005C3.06982 7.78483 3.17518 7.53048 3.36272 7.34294C3.55025 7.15541 3.80461 7.05005 4.06982 7.05005H27.9298C28.195 7.05005 28.4494 7.15541 28.6369 7.34294C28.8245 7.53048 28.9298 7.78483 28.9298 8.05005ZM5.05982 23H26.9398V10L16.5498 16.9C16.3865 17.0076 16.1953 17.0649 15.9998 17.0649C15.8043 17.0649 15.6131 17.0076 15.4498 16.9L5.05982 9.91005V23ZM15.9998 14.79L24.6398 9.00005H7.35982L15.9998 14.79Z"/>
</g>
</svg>
