<svg width="32" height="32" viewBox="0 0 32 32" xmlns="http://www.w3.org/2000/svg">
<g>
<path d="M6.50021 3.87999L9.84021 5.87999C9.9829 5.96916 10.1008 6.09289 10.1829 6.23972C10.2651 6.38655 10.3089 6.55174 10.3102 6.71999V8.99999L14.1002 12.79L15.3202 11.54V11.33C15.2509 11.0346 15.2107 10.7332 15.2002 10.43C15.1936 9.26085 15.5084 8.11237 16.1102 7.10999C16.6999 6.10011 17.5403 5.25964 18.5502 4.66999C19.5522 4.06723 20.7009 3.75236 21.8702 3.75999C22.7868 3.76409 23.6925 3.95817 24.5302 4.32999L25.8402 4.85999L21.2802 9.35999L22.6202 10.76L27.0602 6.31999L27.7102 7.31999C28.2898 8.22902 28.5437 9.30789 28.4302 10.38V10.47C28.416 11.5639 28.1272 12.6368 27.5902 13.59C27.0617 14.5588 26.307 15.3856 25.3902 16C24.4958 16.6026 23.4641 16.9706 22.3902 17.07L27.3902 22.07C27.8766 22.5153 28.2239 23.0918 28.3902 23.73C28.5603 24.3689 28.5603 25.0411 28.3902 25.68C28.2086 26.332 27.8645 26.9272 27.3902 27.41V27.41C26.9369 27.8777 26.3676 28.2167 25.7403 28.3924C25.1131 28.5681 24.4505 28.5742 23.8202 28.41C23.1832 28.2381 22.5967 27.9157 22.1102 27.47L22.0002 27.39L16.1002 21.46L10.2002 27.39C9.7598 27.8775 9.18615 28.2251 8.55021 28.39C7.91134 28.5601 7.23909 28.5601 6.60021 28.39C5.94823 28.2084 5.35299 27.8643 4.87021 27.39C4.3845 26.936 4.03771 26.3534 3.87021 25.71C3.68981 25.0603 3.68745 24.374 3.86338 23.723C4.03931 23.0721 4.38707 22.4804 4.87021 22.01L12.7702 14.09L8.94021 10.31H6.69021C6.52367 10.307 6.36051 10.2624 6.21557 10.1803C6.07062 10.0982 5.94847 9.98126 5.86021 9.83999L3.86021 6.49999L3.47021 5.87999L4.00021 5.33999L5.34021 3.99999L5.87021 3.48999L6.50021 3.87999ZM19.5002 6.27999C18.7776 6.69835 18.1775 7.29905 17.7598 8.02205C17.3422 8.74506 17.1216 9.56502 17.1202 10.4C17.1208 10.8046 17.1712 11.2077 17.2702 11.6L17.4102 12.13L17.0302 12.52L7.51021 22.05L6.20021 23.36C6.01285 23.5375 5.86383 23.7516 5.76236 23.9889C5.66089 24.2263 5.60911 24.4819 5.61021 24.74C5.60649 24.9781 5.65466 25.2141 5.75136 25.4317C5.84807 25.6493 5.991 25.8432 6.17021 26V26C6.34696 26.1857 6.55945 26.3337 6.79489 26.4351C7.03034 26.5365 7.28387 26.5892 7.54021 26.59C7.78145 26.5953 8.02094 26.5479 8.242 26.4512C8.46306 26.3545 8.66038 26.2108 8.82021 26.03L20.0002 14.9L20.5002 14.99C20.9112 15.0843 21.3293 15.1445 21.7502 15.17C22.5901 15.1764 23.416 14.9552 24.1402 14.53C24.8604 14.1096 25.4598 13.5102 25.8802 12.79C26.3055 12.0657 26.5266 11.2398 26.5202 10.4V10.31C26.5365 10.1932 26.5155 10.0742 26.4602 9.96999C26.4127 9.88321 26.3822 9.78819 26.3702 9.68999L23.2902 12.78C23.1037 12.9602 22.8546 13.061 22.5952 13.061C22.3359 13.061 22.0867 12.9602 21.9002 12.78L19.2602 9.99999C19.0887 9.81508 18.9934 9.57219 18.9934 9.31999C18.9934 9.06779 19.0887 8.82491 19.2602 8.63999L22.2002 5.72999C22.1312 5.7246 22.0636 5.7077 22.0002 5.67999C21.9406 5.66992 21.8798 5.66992 21.8202 5.67999C20.994 5.66535 20.1791 5.87254 19.4602 6.27999H19.5002ZM5.87021 6.16999L7.24021 8.40999H8.24021L8.45021 8.19999V7.24999L6.17021 5.87999L5.87021 6.16999ZM17.4602 20.17L23.3602 26.1C23.5377 26.2848 23.7503 26.4321 23.9856 26.5335C24.2209 26.6348 24.474 26.688 24.7302 26.69C24.9739 26.6891 25.2144 26.6338 25.4341 26.5283C25.6537 26.4228 25.8472 26.2696 26.0002 26.08V26.08C26.1882 25.9045 26.3383 25.6924 26.4415 25.4569C26.5447 25.2213 26.5987 24.9672 26.6002 24.71C26.6057 24.4663 26.5575 24.2244 26.459 24.0014C26.3605 23.7785 26.2141 23.58 26.0302 23.42V23.42L20.1102 17.53L17.4602 20.17Z"/>
</g>
</svg>
