<svg width="32" height="32" viewBox="0 0 32 32" xmlns="http://www.w3.org/2000/svg">
<g>
<path d="M28.3801 2.62H8.53012C8.2649 2.62 8.01055 2.72535 7.82301 2.91289C7.63547 3.10042 7.53012 3.35478 7.53012 3.62V7.53H3.62012C3.3549 7.53 3.10055 7.63535 2.91301 7.82289C2.72547 8.01042 2.62012 8.26478 2.62012 8.52999V28.38C2.62012 28.6452 2.72547 28.8996 2.91301 29.0871C3.10055 29.2746 3.3549 29.38 3.62012 29.38H23.4701C23.7353 29.38 23.9897 29.2746 24.1772 29.0871C24.3648 28.8996 24.4701 28.6452 24.4701 28.38V24.47H28.3801C28.6453 24.47 28.8997 24.3646 29.0872 24.1771C29.2748 23.9896 29.3801 23.7352 29.3801 23.47V3.62C29.3801 3.35478 29.2748 3.10042 29.0872 2.91289C28.8997 2.72535 28.6453 2.62 28.3801 2.62V2.62ZM22.4701 27.38H4.62012V9.52999H22.4701V27.38ZM27.3801 22.47H24.4701V8.52999C24.4701 8.26478 24.3648 8.01042 24.1772 7.82289C23.9897 7.63535 23.7353 7.53 23.4701 7.53H9.53012V4.62H27.3801V22.47Z"/>
<path d="M7.51984 22.92C7.38753 22.9194 7.25665 22.8926 7.13477 22.8411C7.01289 22.7896 6.90245 22.7145 6.80984 22.62C6.62358 22.4326 6.51904 22.1792 6.51904 21.915C6.51904 21.6508 6.62358 21.3973 6.80984 21.21L16.2298 11.79C16.3195 11.6853 16.4298 11.6003 16.5539 11.5402C16.6779 11.4802 16.8131 11.4465 16.9508 11.4412C17.0885 11.4359 17.2258 11.4591 17.3542 11.5093C17.4825 11.5596 17.599 11.6359 17.6965 11.7333C17.7939 11.8308 17.8702 11.9473 17.9205 12.0757C17.9707 12.204 17.994 12.3413 17.9886 12.479C17.9833 12.6167 17.9496 12.7519 17.8896 12.8759C17.8295 13 17.7445 13.1103 17.6398 13.2L8.21984 22.62C8.03521 22.8084 7.7836 22.9162 7.51984 22.92V22.92Z"/>
<path d="M7.41011 17.3099C7.21149 17.3111 7.01702 17.2531 6.8515 17.1433C6.68598 17.0335 6.55691 16.8769 6.48074 16.6934C6.40457 16.51 6.38476 16.308 6.42383 16.1133C6.4629 15.9185 6.55908 15.7398 6.70011 15.5999L10.2501 12.0499C10.3431 11.9562 10.4537 11.8818 10.5755 11.8311C10.6974 11.7803 10.8281 11.7542 10.9601 11.7542C11.0921 11.7542 11.2228 11.7803 11.3447 11.8311C11.4665 11.8818 11.5772 11.9562 11.6701 12.0499C11.8564 12.2373 11.9609 12.4908 11.9609 12.7549C11.9609 13.0191 11.8564 13.2726 11.6701 13.4599L8.11011 16.9999C8.01951 17.0951 7.91106 17.1714 7.79095 17.2246C7.67084 17.2778 7.54143 17.3068 7.41011 17.3099V17.3099Z"/>
</g>
</svg>
