<svg width="32" height="32" viewBox="0 0 32 32" xmlns="http://www.w3.org/2000/svg">
<g>
<path d="M29.3499 7V7.22C29.3499 7.48522 29.2445 7.73957 29.057 7.92711C28.8695 8.11464 28.6151 8.22 28.3499 8.22H3.6499C3.38469 8.22 3.13033 8.11464 2.9428 7.92711C2.75526 7.73957 2.6499 7.48522 2.6499 7.22V7C2.6499 6.73478 2.75526 6.48043 2.9428 6.29289C3.13033 6.10536 3.38469 6 3.6499 6H28.3499C28.4812 6 28.6113 6.02587 28.7326 6.07612C28.8539 6.12638 28.9642 6.20003 29.057 6.29289C29.1499 6.38575 29.2235 6.49599 29.2738 6.61732C29.324 6.73864 29.3499 6.86868 29.3499 7ZM29.3499 15.9V16.12C29.3499 16.3852 29.2445 16.6396 29.057 16.8271C28.8695 17.0146 28.6151 17.12 28.3499 17.12H3.6499C3.38469 17.12 3.13033 17.0146 2.9428 16.8271C2.75526 16.6396 2.6499 16.3852 2.6499 16.12V15.9C2.6499 15.6348 2.75526 15.3804 2.9428 15.1929C3.13033 15.0054 3.38469 14.9 3.6499 14.9H28.3499C28.6134 14.9 28.8662 15.004 29.0535 15.1893C29.2407 15.3747 29.3473 15.6265 29.3499 15.89V15.9ZM29.3499 24.8V25C29.3499 25.2652 29.2445 25.5196 29.057 25.7071C28.8695 25.8946 28.6151 26 28.3499 26H3.6499C3.38469 26 3.13033 25.8946 2.9428 25.7071C2.75526 25.5196 2.6499 25.2652 2.6499 25V24.78C2.6499 24.5148 2.75526 24.2604 2.9428 24.0729C3.13033 23.8854 3.38469 23.78 3.6499 23.78H28.3499C28.4821 23.78 28.6129 23.8062 28.7349 23.8571C28.8569 23.9079 28.9676 23.9825 29.0606 24.0764C29.1536 24.1703 29.227 24.2818 29.2767 24.4042C29.3263 24.5267 29.3512 24.6578 29.3499 24.79V24.8Z"/>
</g>
</svg>
