<svg width="32" height="32" viewBox="0 0 32 32" xmlns="http://www.w3.org/2000/svg">
<g>
<path d="M17.9398 3.72C18.1875 3.95908 18.3829 4.24692 18.5137 4.56534C18.6445 4.88377 18.7079 5.22585 18.6998 5.57C18.7025 5.91218 18.6371 6.25147 18.5073 6.56812C18.3776 6.88477 18.1862 7.17245 17.9442 7.41442C17.7023 7.65638 17.4146 7.8478 17.0979 7.97751C16.7813 8.10723 16.442 8.17267 16.0998 8.17C15.7569 8.1754 15.4164 8.11184 15.0985 7.98309C14.7806 7.85434 14.4918 7.66303 14.2493 7.42051C14.0068 7.178 13.8155 6.88922 13.6867 6.57134C13.558 6.25345 13.4944 5.91293 13.4998 5.57C13.502 5.05659 13.6555 4.55522 13.9412 4.12863C14.2269 3.70204 14.632 3.36918 15.106 3.17172C15.5799 2.97425 16.1015 2.92094 16.6056 3.01847C17.1097 3.11599 17.5738 3.36002 17.9398 3.72V3.72ZM17.9398 14.12C18.4271 14.6124 18.7005 15.2772 18.7005 15.97C18.7005 16.6628 18.4271 17.3276 17.9398 17.82C17.5774 18.183 17.1157 18.4308 16.6128 18.532C16.1099 18.6332 15.5883 18.5834 15.1136 18.3888C14.639 18.1943 14.2325 17.8636 13.9453 17.4386C13.6582 17.0135 13.5032 16.513 13.4998 16C13.502 15.4866 13.6555 14.9852 13.9412 14.5586C14.2269 14.132 14.632 13.7992 15.106 13.6017C15.5799 13.4043 16.1015 13.3509 16.6056 13.4485C17.1097 13.546 17.5738 13.79 17.9398 14.15V14.12ZM17.9398 24.52C18.3182 24.8813 18.5787 25.3483 18.6874 25.86C18.7962 26.3717 18.748 26.9043 18.5493 27.3882C18.3505 27.8721 18.0104 28.2848 17.5734 28.5723C17.1365 28.8599 16.6229 29.0089 16.0998 29C15.6735 28.9978 15.2543 28.8909 14.879 28.6886C14.5038 28.4862 14.184 28.1947 13.948 27.8397C13.7119 27.4847 13.5667 27.0771 13.5253 26.6528C13.4838 26.2285 13.5474 25.8005 13.7103 25.4066C13.8732 25.0126 14.1305 24.6647 14.4595 24.3936C14.7885 24.1225 15.1791 23.9364 15.5969 23.8518C16.0148 23.7671 16.447 23.7866 16.8556 23.9083C17.2641 24.0301 17.6365 24.2505 17.9398 24.55V24.52Z"/>
</g>
</svg>
