<svg width="32" height="32" viewBox="0 0 32 32" xmlns="http://www.w3.org/2000/svg">
<g>
<path d="M27.54 9.24999C26.3853 7.26525 24.7347 5.61464 22.75 4.45999C20.7025 3.26124 18.3726 2.62939 16 2.62939C13.6274 2.62939 11.2975 3.26124 9.24999 4.45999C7.26525 5.61464 5.61464 7.26525 4.45999 9.24999C3.26124 11.2975 2.62939 13.6274 2.62939 16C2.62939 18.3726 3.26124 20.7025 4.45999 22.75C5.61464 24.7347 7.26525 26.3853 9.24999 27.54C11.2975 28.7387 13.6274 29.3706 16 29.3706C18.3726 29.3706 20.7025 28.7387 22.75 27.54C24.7347 26.3853 26.3853 24.7347 27.54 22.75C28.7387 20.7025 29.3706 18.3726 29.3706 16C29.3706 13.6274 28.7387 11.2975 27.54 9.24999V9.24999ZM6.22999 21.72C5.221 19.9826 4.68955 18.0092 4.68955 16C4.68955 13.9908 5.221 12.0174 6.22999 10.28C7.21115 8.63571 8.58571 7.26115 10.23 6.27999C11.9674 5.271 13.9408 4.73955 15.95 4.73955C17.9592 4.73955 19.9326 5.271 21.67 6.27999C22.2077 6.60643 22.7193 6.97421 23.2 7.37999L7.32999 23.25C6.92421 22.7693 6.55643 22.2577 6.22999 21.72V21.72ZM25.77 21.72C24.7814 23.3886 23.3886 24.7814 21.72 25.77C19.9826 26.779 18.0092 27.3104 16 27.3104C13.9908 27.3104 12.0174 26.779 10.28 25.77C9.73885 25.4402 9.22399 25.0691 8.73999 24.66L24.66 8.74999C25.0713 9.2287 25.4426 9.74042 25.77 10.28C26.779 12.0174 27.3104 13.9908 27.3104 16C27.3104 18.0092 26.779 19.9826 25.77 21.72V21.72Z"/>
</g>
</svg>
