<svg width="32" height="32" viewBox="0 0 32 32" xmlns="http://www.w3.org/2000/svg">
<g>
<path d="M17.42 3.58003C17.6096 3.76379 17.759 3.98485 17.8588 4.22925C17.9586 4.47366 18.0067 4.73611 18 5.00003V5.25003C19.1534 5.55704 20.2209 6.12498 21.12 6.91003C22.0353 7.69408 22.7661 8.67069 23.26 9.77004C23.7593 10.8722 24.0118 12.0701 24 13.28V22C24 22.2653 24.1054 22.5196 24.2929 22.7071C24.4804 22.8947 24.7348 23 25 23H26V25H18.81C19.0195 25.6353 19.0106 26.3224 18.7848 26.9521C18.559 27.5817 18.1293 28.1179 17.5638 28.4753C16.9984 28.8327 16.3297 28.9909 15.6641 28.9247C14.9984 28.8585 14.374 28.5718 13.89 28.11C13.4801 27.7182 13.195 27.214 13.0705 26.6607C12.9459 26.1075 12.9875 25.5298 13.19 25H6V23H7C7.26522 23 7.51957 22.8947 7.70711 22.7071C7.89464 22.5196 8 22.2653 8 22V13C7.99203 11.8054 8.2589 10.625 8.78 9.55003C9.28737 8.48749 10.0253 7.55145 10.94 6.81003C11.8314 6.06913 12.8768 5.53621 14 5.25003V5.00003C13.9977 4.60279 14.1137 4.21385 14.3333 3.88281C14.5529 3.55177 14.8661 3.29363 15.233 3.14129C15.5999 2.98896 16.0039 2.94934 16.3934 3.02748C16.7829 3.10562 17.1403 3.29798 17.42 3.58003V3.58003ZM12.75 8.00003C11.9159 8.54471 11.229 9.2866 10.75 10.16C10.2638 11.028 10.0057 12.0052 10 13V22C9.99633 22.342 9.932 22.6806 9.81 23H22.19C22.068 22.6806 22.0037 22.342 22 22V13.28C22.0015 12.2119 21.7368 11.1602 21.23 10.22C20.7392 9.28255 20.0118 8.48967 19.12 7.92003C18.2448 7.3534 17.232 7.03539 16.19 7.00003H15.56C14.5541 7.09153 13.5876 7.43549 12.75 8.00003ZM15.3 25.28C15.2029 25.3685 15.1259 25.4768 15.0742 25.5975C15.0224 25.7183 14.9971 25.8487 15 25.98C15 26.2453 15.1054 26.4996 15.2929 26.6871C15.4804 26.8747 15.7348 26.98 16 26.98C16.1313 26.9829 16.2618 26.9576 16.3825 26.9059C16.5032 26.8541 16.6115 26.7771 16.7 26.68C16.8836 26.5003 16.9911 26.2568 17 26C17.0042 25.8703 16.9814 25.7412 16.9333 25.6207C16.8851 25.5003 16.8125 25.3911 16.72 25.3C16.6262 25.2043 16.5141 25.1285 16.3905 25.0769C16.2668 25.0254 16.134 24.9993 16 25C15.7391 24.9985 15.4879 25.0989 15.3 25.28Z"/>
</g>
</svg>
