<svg width="32" height="32" viewBox="0 0 32 32" xmlns="http://www.w3.org/2000/svg">
<g>
<path d="M18.4998 3.67012C19.2488 4.10341 19.8724 4.72362 20.3098 5.47012C20.7817 6.30493 21.02 7.2514 20.9998 8.21012V9.00012H24.9998C25.255 8.99966 25.5007 9.09674 25.6866 9.27149C25.8725 9.44624 25.9845 9.68544 25.9998 9.94012L26.9998 27.9401C27.008 28.0764 26.9882 28.2129 26.9417 28.3412C26.8951 28.4696 26.8227 28.587 26.729 28.6863C26.6354 28.7856 26.5223 28.8647 26.3969 28.9187C26.2715 28.9726 26.1364 29.0004 25.9998 29.0001H5.99985C5.86332 29.0004 5.72819 28.9726 5.60278 28.9187C5.47737 28.8647 5.36434 28.7856 5.27065 28.6863C5.17697 28.587 5.10461 28.4696 5.05803 28.3412C5.01146 28.2129 4.99166 28.0764 4.99985 27.9401L5.99985 9.94012C6.01516 9.68544 6.12723 9.44624 6.31314 9.27149C6.49904 9.09674 6.74471 8.99966 6.99985 9.00012H10.9998V8.21012C10.9797 7.2514 11.218 6.30493 11.6898 5.47012C12.1273 4.72362 12.7509 4.10341 13.4998 3.67012C14.2599 3.23128 15.1222 3.00024 15.9998 3.00024C16.8775 3.00024 17.7398 3.23128 18.4998 3.67012V3.67012ZM7.05985 27.0001H24.9398L24.0598 11.0001H20.9998V14.0001H18.9998V11.0001H12.9998V14.0001H10.9998V11.0001H7.93985L7.05985 27.0001ZM13.7998 6.00012C13.2892 6.56519 13.0044 7.29849 12.9998 8.06012V9.00012H18.9998V8.06012C18.9953 7.29849 18.7105 6.56519 18.1998 6.00012C17.919 5.6972 17.5787 5.45555 17.2001 5.29029C16.8215 5.12503 16.4129 5.03973 15.9998 5.03973C15.5868 5.03973 15.1782 5.12503 14.7996 5.29029C14.421 5.45555 14.0807 5.6972 13.7998 6.00012V6.00012Z"/>
</g>
</svg>
