<svg width="32" height="32" viewBox="0 0 32 32" xmlns="http://www.w3.org/2000/svg">
<g>
<path d="M15.18 11.63C15.498 11.6243 15.8073 11.7344 16.05 11.94C16.3053 12.1554 16.4986 12.435 16.61 12.75C16.7948 13.3652 16.8593 14.0103 16.8 14.65C16.7447 15.0743 16.651 15.4927 16.52 15.9C16.44 16.25 16.37 16.51 16.33 16.68C16.4126 16.8386 16.4764 17.0065 16.52 17.18C16.5987 17.4124 16.6922 17.6395 16.8 17.86C17.0602 18.3447 17.3756 18.7977 17.74 19.21L18.11 19.67C18.321 19.6623 18.5314 19.6423 18.74 19.61C19.0469 19.5567 19.3587 19.5365 19.67 19.55C19.9475 19.5754 20.2201 19.6393 20.48 19.74C20.744 19.8198 20.982 19.9682 21.17 20.17C21.2891 20.2832 21.3834 20.4198 21.4471 20.5712C21.5108 20.7227 21.5424 20.8857 21.54 21.05C21.5317 21.3565 21.4457 21.6558 21.29 21.92V21.92C21.1309 22.2106 20.8959 22.4525 20.61 22.62C20.3391 22.793 20.0209 22.8769 19.7 22.86C19.0908 22.7788 18.5233 22.5056 18.08 22.08C17.943 21.9214 17.8161 21.7544 17.7 21.58L17.42 21.2C17.2335 21.2125 17.0465 21.2125 16.86 21.2C16.49 21.2 16.19 21.26 15.96 21.3C15.6574 21.3614 15.3624 21.4552 15.08 21.58L14.55 21.8C14.47 21.96 14.36 22.22 14.21 22.58C14.0519 23.0064 13.8438 23.4126 13.59 23.79C13.235 24.3222 12.7354 24.742 12.15 25C11.8279 25.1221 11.4721 25.1221 11.15 25C10.8425 24.8854 10.5773 24.6795 10.39 24.41C10.2033 24.1418 10.0958 23.8264 10.08 23.5C10.0514 23.1889 10.1139 22.8762 10.26 22.6C10.5786 22.0932 11.0185 21.6739 11.54 21.38C11.9194 21.1828 12.3182 21.0252 12.73 20.91C12.963 20.8578 13.1906 20.7841 13.41 20.69C13.48 20.55 13.58 20.34 13.73 20.07C13.9123 19.7463 14.0759 19.4124 14.22 19.07C14.3786 18.6148 14.4957 18.1462 14.57 17.67C14.63 17.31 14.68 17.04 14.72 16.86L14.47 16.26C14.1903 15.6675 13.9628 15.0519 13.79 14.42C13.6507 13.8585 13.6507 13.2715 13.79 12.71C13.8404 12.4171 13.9927 12.1514 14.22 11.96C14.4755 11.7493 14.799 11.6391 15.13 11.65L15.18 11.63ZM12.37 22.63C12.0896 22.7971 11.8449 23.018 11.65 23.28L11.59 23.41L11.65 23.5C11.9109 23.3453 12.1331 23.1333 12.3 22.88C12.3366 22.8285 12.3637 22.771 12.38 22.71C12.3938 22.6481 12.4211 22.5901 12.46 22.54L12.37 22.63ZM15.74 19.23C15.7263 19.3245 15.7063 19.4181 15.68 19.51L15.49 19.91L15.62 19.85C15.753 19.8372 15.887 19.8372 16.02 19.85C16.1463 19.8633 16.2737 19.8633 16.4 19.85L16.12 19.51C16.0007 19.3483 15.8937 19.1778 15.8 19L15.74 19.23ZM19.2 21.04C19.3622 21.1824 19.5532 21.2881 19.76 21.35C19.7758 21.3566 19.7928 21.36 19.81 21.36C19.8272 21.36 19.8442 21.3566 19.86 21.35C19.9108 21.304 19.9576 21.2538 20 21.2V21.2C19.8417 21.1307 19.6725 21.0901 19.5 21.08L19.2 21.04Z"/>
<path d="M19.41 3L19.72 3.28L25.72 9.28L26 9.59V28C26 28.2652 25.8946 28.5196 25.7071 28.7071C25.5196 28.8946 25.2652 29 25 29H7C6.73478 29 6.48043 28.8946 6.29289 28.7071C6.10536 28.5196 6 28.2652 6 28V4C6 3.73478 6.10536 3.48043 6.29289 3.29289C6.48043 3.10536 6.73478 3 7 3H19.41ZM8 27H24V11H18V5H8V27ZM20 9H22.56L20 6.44V9Z"/>
</g>
</svg>
