<svg width="32" height="32" viewBox="0 0 32 32" xmlns="http://www.w3.org/2000/svg">
<g>
<path d="M8.69021 16.5599C8.18891 17.3118 7.87357 18.1722 7.77021 19.0699C7.66828 20.1234 7.62488 21.1817 7.64021 22.2399V28.3699C7.64021 28.6351 7.74557 28.8895 7.9331 29.077C8.12064 29.2646 8.37499 29.3699 8.64021 29.3699H23.4802C23.7454 29.3699 23.9998 29.2646 24.1873 29.077C24.3749 28.8895 24.4802 28.6351 24.4802 28.3699V22.2399C24.4976 21.1819 24.4575 20.1236 24.3602 19.0699C24.2569 18.1722 23.9415 17.3118 23.4402 16.5599C22.8185 15.7693 21.9655 15.1925 21.0002 14.9099C19.3988 14.4317 17.7306 14.2155 16.0602 14.2699C14.3898 14.2162 12.7217 14.4323 11.1202 14.9099C10.1574 15.1919 9.30743 15.769 8.69021 16.5599V16.5599ZM9.74021 22.2099C9.7247 21.2249 9.76811 20.2398 9.87021 19.2599C9.93107 18.7263 10.1197 18.2151 10.4202 17.7699C11.1302 16.8299 12.9802 16.3699 16.0502 16.3699C19.1202 16.3699 20.9902 16.8299 21.7102 17.7699C22.0112 18.214 22.1967 18.7261 22.2502 19.2599C22.3575 20.2394 22.4009 21.2248 22.3802 22.2099V27.2699H9.74021V22.2099Z"/>
<path d="M15.9999 12.7001C14.9963 12.702 14.0147 12.4061 13.1794 11.8498C12.3441 11.2934 11.6927 10.5017 11.3078 9.57488C10.9228 8.64805 10.8215 7.62782 11.0169 6.6434C11.2122 5.65899 11.6952 4.75468 12.4049 4.04503C13.1145 3.33538 14.0189 2.8523 15.0033 2.65699C15.9877 2.46168 17.0079 2.56293 17.9347 2.94791C18.8616 3.33288 19.6533 3.98427 20.2096 4.81955C20.766 5.65484 21.0619 6.63645 21.0599 7.64005C21.0573 8.98123 20.5233 10.2667 19.575 11.2151C18.6266 12.1635 17.3411 12.6974 15.9999 12.7001V12.7001ZM15.9999 4.57005C15.3923 4.56807 14.7978 4.74644 14.2916 5.08257C13.7854 5.4187 13.3904 5.89748 13.1565 6.45827C12.9226 7.01906 12.8604 7.63665 12.9777 8.23282C13.095 8.829 13.3866 9.37696 13.8156 9.80731C14.2445 10.2377 14.7915 10.531 15.3873 10.6503C15.9831 10.7696 16.6009 10.7094 17.1624 10.4773C17.724 10.2452 18.204 9.85176 18.5418 9.34669C18.8796 8.84161 19.0599 8.24766 19.0599 7.64005C19.0599 6.82757 18.7378 6.04821 18.1643 5.47276C17.5907 4.89731 16.8124 4.5727 15.9999 4.57005V4.57005Z"/>
</g>
</svg>
