<svg width="32" height="32" viewBox="0 0 32 32" xmlns="http://www.w3.org/2000/svg">
<g>
<path d="M23.3298 3.00001C23.8668 2.99886 24.3871 3.18645 24.7998 3.53001H24.8598L27.9998 6.81001C28.469 7.22268 28.7976 7.77155 28.9398 8.38001C29.0857 8.97597 29.0545 9.60158 28.8498 10.18V10.18C28.2291 11.9167 27.4456 13.5908 26.5098 15.18C25.1435 17.4869 23.4978 19.6163 21.6098 21.52C18.3752 24.6919 14.5171 27.1573 10.2798 28.76V28.76C9.69073 28.9591 9.0598 29.0005 8.44979 28.88C7.84437 28.7589 7.28191 28.4794 6.81979 28.07L3.60979 25C3.40547 24.7924 3.24592 24.545 3.14099 24.2732C3.03607 24.0015 2.98801 23.7111 2.99979 23.42C2.99305 23.1347 3.04455 22.8509 3.15115 22.5861C3.25775 22.3214 3.41721 22.0811 3.61979 21.88L7.67979 17.82V17.76C7.88355 17.5554 8.12714 17.3948 8.39548 17.2882C8.66381 17.1815 8.95118 17.1311 9.23979 17.14C9.52862 17.1293 9.81652 17.1789 10.0851 17.2856C10.3537 17.3924 10.5971 17.5539 10.7998 17.76L12.7998 19.76C14.3015 19.0531 15.6872 18.1226 16.9098 17C18.0996 15.8491 19.0422 14.4676 19.6798 12.94L17.6798 10.94C17.473 10.7458 17.3099 10.5099 17.2012 10.2478C17.0926 9.98573 17.041 9.70355 17.0498 9.42001C17.0433 9.13252 17.099 8.84703 17.2129 8.583C17.3268 8.31896 17.4963 8.08259 17.7098 7.89001V7.89001L21.7898 3.67001L21.8898 3.61001C22.2819 3.24178 22.7925 3.02549 23.3298 3.00001ZM23.3298 5.00001C23.252 5.0071 23.1785 5.0386 23.1198 5.09001L18.9998 9.27001C18.9887 9.30866 18.9885 9.3496 18.9991 9.38839C19.0096 9.42717 19.0306 9.46232 19.0598 9.49001L21.5598 11.99L22.0298 12.42L21.8098 13.05L21.4298 13.92C21.0915 14.6373 20.7074 15.3321 20.2798 16C19.6976 16.8668 19.0274 17.6711 18.2798 18.4L18.0598 18.59C17.3311 19.2479 16.5483 19.8433 15.7198 20.37C15.1017 20.7852 14.457 21.1593 13.7898 21.49L12.3798 22.15L9.37979 19.15C9.30979 19.09 9.26979 19.06 9.24979 19.06C9.22979 19.06 9.18979 19.06 9.12979 19.15L4.99979 23.34C4.99979 23.39 4.92979 23.41 4.92979 23.42C4.92979 23.43 4.92979 23.42 4.99979 23.5L8.11979 26.62C8.3237 26.8041 8.57482 26.9278 8.84504 26.9772C9.11525 27.0267 9.3939 26.9999 9.64979 26.9C13.6017 25.4092 17.201 23.1141 20.2198 20.16C22.0004 18.3648 23.5431 16.3483 24.8098 14.16C25.6816 12.6948 26.4148 11.1514 26.9998 9.55001C27.076 9.3229 27.076 9.07711 26.9998 8.85001C26.9472 8.61605 26.8252 8.40343 26.6498 8.24001L23.5498 5.09001C23.4883 5.03663 23.411 5.00499 23.3298 5.00001V5.00001Z"/>
</g>
</svg>
