<svg width="32" height="32" viewBox="0 0 32 32" xmlns="http://www.w3.org/2000/svg">
<g>
<path d="M20.4 4.18004C21.6993 4.95467 22.7853 6.04068 23.56 7.34004C24.3455 8.67648 24.7566 10.1998 24.75 11.75C24.733 12.4908 24.6084 13.2252 24.38 13.93C24.1245 14.771 23.8104 15.593 23.44 16.39C22.6334 18.1801 21.7322 19.9259 20.74 21.62C19.93 23 19 24.49 18 26L16.79 27.79C16.6985 27.9262 16.5749 28.0377 16.4302 28.1148C16.2855 28.1919 16.124 28.2323 15.96 28.2323C15.796 28.2323 15.6345 28.1919 15.4897 28.1148C15.345 28.0377 15.2214 27.9262 15.13 27.79C14.68 27.14 14.18 26.39 13.92 26C12.92 24.5 12.03 23.05 11.22 21.63C10.2278 19.9359 9.32648 18.1901 8.51996 16.4C8.14951 15.603 7.83541 14.781 7.57996 13.94C7.35157 13.2352 7.22693 12.5008 7.20996 11.76C7.21364 10.2027 7.63866 8.6754 8.43996 7.34004C9.21459 6.04068 10.3006 4.95467 11.6 4.18004C12.9374 3.4067 14.455 2.99951 16 2.99951C17.5449 2.99951 19.0625 3.4067 20.4 4.18004V4.18004ZM12.58 5.86004C11.5477 6.45715 10.6916 7.31631 10.098 8.35059C9.50451 9.38487 9.1947 10.5576 9.19996 11.75C9.22975 12.3007 9.33058 12.8452 9.49996 13.37C9.72573 14.1333 9.99961 14.8814 10.32 15.61C11.1157 17.3198 11.9968 18.9886 12.96 20.61C13.96 22.31 14.96 23.91 15.96 25.41L16.02 25.47L16.08 25.41C17.08 23.91 18.08 22.31 19.08 20.61C20.0431 18.9886 20.9242 17.3198 21.72 15.61C22.0403 14.8814 22.3142 14.1333 22.54 13.37C22.7093 12.8452 22.8102 12.3007 22.84 11.75C22.8426 10.8525 22.6673 9.96325 22.3241 9.13386C21.981 8.30447 21.4768 7.55135 20.8407 6.91806C20.2046 6.28477 19.4493 5.78387 18.6184 5.44435C17.7875 5.10483 16.8975 4.93342 16 4.94004C14.798 4.93391 13.6166 5.25171 12.58 5.86004V5.86004Z"/>
<path d="M15.9999 9.79003C16.2477 9.78167 16.4946 9.82432 16.7253 9.91534C16.9559 10.0064 17.1654 10.1438 17.3408 10.3191C17.5161 10.4945 17.6535 10.704 17.7446 10.9346C17.8356 11.1653 17.8782 11.4122 17.8699 11.66C17.8782 11.9079 17.8356 12.1548 17.7446 12.3854C17.6535 12.6161 17.5161 12.8256 17.3408 13.0009C17.1654 13.1763 16.9559 13.3137 16.7253 13.4047C16.4946 13.4957 16.2477 13.5384 15.9999 13.53C15.752 13.5384 15.5051 13.4957 15.2745 13.4047C15.0438 13.3137 14.8343 13.1763 14.659 13.0009C14.4836 12.8256 14.3462 12.6161 14.2552 12.3854C14.1642 12.1548 14.1215 11.9079 14.1299 11.66C14.1215 11.4122 14.1642 11.1653 14.2552 10.9346C14.3462 10.704 14.4836 10.4945 14.659 10.3191C14.8343 10.1438 15.0438 10.0064 15.2745 9.91534C15.5051 9.82432 15.752 9.78167 15.9999 9.79003ZM15.9999 7.79003C15.4894 7.78193 14.9825 7.87649 14.5094 8.06811C14.0362 8.25972 13.6063 8.54448 13.2453 8.90547C12.8843 9.26646 12.5996 9.69632 12.408 10.1695C12.2163 10.6427 12.1218 11.1496 12.1299 11.66C12.1232 12.1701 12.2187 12.6764 12.4108 13.1489C12.6029 13.6215 12.8877 14.0508 13.2484 14.4115C13.6091 14.7722 14.0384 15.057 14.511 15.2491C14.9835 15.4412 15.4898 15.5368 15.9999 15.53C16.51 15.5368 17.0162 15.4412 17.4888 15.2491C17.9613 15.057 18.3906 14.7722 18.7514 14.4115C19.1121 14.0508 19.3969 13.6215 19.589 13.1489C19.7811 12.6764 19.8766 12.1701 19.8699 11.66C19.878 11.1496 19.7834 10.6427 19.5918 10.1695C19.4002 9.69632 19.1154 9.26646 18.7544 8.90547C18.3934 8.54448 17.9636 8.25972 17.4904 8.06811C17.0172 7.87649 16.5103 7.78193 15.9999 7.79003V7.79003Z"/>
</g>
</svg>
