<svg width="32" height="32" viewBox="0 0 32 32" xmlns="http://www.w3.org/2000/svg">
<g>
<path d="M17.0002 5.69995V15H26.3002C26.5654 15 26.8198 15.1053 27.0073 15.2928C27.1948 15.4804 27.3002 15.7347 27.3002 16C27.3002 16.2652 27.1948 16.5195 27.0073 16.7071C26.8198 16.8946 26.5654 17 26.3002 17H17.0002V26.2999C17.0002 26.5652 16.8948 26.8195 16.7073 27.0071C16.5198 27.1946 16.2654 27.2999 16.0002 27.2999C15.735 27.2999 15.4806 27.1946 15.2931 27.0071C15.1056 26.8195 15.0002 26.5652 15.0002 26.2999V17H5.7002C5.43498 17 5.18063 16.8946 4.99309 16.7071C4.80555 16.5195 4.7002 16.2652 4.7002 16C4.7002 15.7347 4.80555 15.4804 4.99309 15.2928C5.18063 15.1053 5.43498 15 5.7002 15H15.0002V5.69995C15.0002 5.43473 15.1056 5.18038 15.2931 4.99284C15.4806 4.80531 15.735 4.69995 16.0002 4.69995V4.69995C16.2654 4.69995 16.5198 4.80531 16.7073 4.99284C16.8948 5.18038 17.0002 5.43473 17.0002 5.69995Z"/>
</g>
</svg>
