<svg width="32" height="32" viewBox="0 0 32 32" xmlns="http://www.w3.org/2000/svg">
<g>
<path d="M22.57 2.93994V10.5199H24.73C25.593 10.5225 26.4202 10.8651 27.0323 11.4735C27.6444 12.0819 27.9921 12.907 28 13.7699V23.5999C28 23.8652 27.8946 24.1195 27.7071 24.307C27.5196 24.4946 27.2652 24.5999 27 24.5999H22.57V28.9399H7.4V24.5999H3C2.73478 24.5999 2.48043 24.4946 2.29289 24.307C2.10536 24.1195 2 23.8652 2 23.5999V13.7699C1.99988 13.3399 2.08864 12.9145 2.26073 12.5205C2.43282 12.1264 2.68451 11.7721 3 11.4799C3.29067 11.1652 3.64322 10.9139 4.03557 10.7418C4.42791 10.5698 4.85158 10.4806 5.28 10.4799H7.4V2.93994H22.57ZM4.45 12.9999C4.34975 13.1028 4.27146 13.225 4.21989 13.3591C4.16832 13.4932 4.14454 13.6364 4.15 13.7799V22.4499H7.4V18.0999H22.57V22.4399H25.82V13.7699C25.8323 13.6241 25.8125 13.4774 25.762 13.3401C25.7114 13.2027 25.6314 13.0782 25.5274 12.9752C25.4235 12.8722 25.2982 12.7933 25.1604 12.744C25.0226 12.6947 24.8757 12.6762 24.73 12.6899H5.23C5.08595 12.6875 4.94285 12.7136 4.80896 12.7669C4.67508 12.8201 4.55307 12.8993 4.45 12.9999V12.9999ZM7.08 14.0999C7.18096 14.1992 7.26123 14.3174 7.31615 14.4479C7.37108 14.5783 7.39958 14.7184 7.4 14.8599C7.40054 15.0745 7.33713 15.2844 7.21787 15.4628C7.09861 15.6413 6.9289 15.7801 6.7304 15.8616C6.5319 15.9432 6.3136 15.9637 6.10336 15.9207C5.89312 15.8776 5.70048 15.7729 5.55 15.6199C5.44569 15.5233 5.3632 15.4055 5.30801 15.2745C5.25283 15.1434 5.22624 15.0021 5.23 14.8599C5.22946 14.6453 5.29287 14.4354 5.41213 14.257C5.53139 14.0786 5.7011 13.9398 5.8996 13.8582C6.0981 13.7767 6.3164 13.7561 6.52664 13.7992C6.73688 13.8422 6.92952 13.9469 7.08 14.0999V14.0999ZM9.57 10.5299H20.4V5.09994H9.57V10.5299ZM9.57 26.7799H20.4V20.2799H9.57V26.7799Z"/>
</g>
</svg>
