<svg width="32" height="32" viewBox="0 0 32 32" xmlns="http://www.w3.org/2000/svg">
<g>
<path d="M22.0702 5.64006C23.8593 6.66942 25.3484 8.14823 26.3902 9.93006C27.764 12.2245 28.3319 14.9121 28.0039 17.5661C27.6759 20.2202 26.4708 22.6887 24.5798 24.5796C22.6888 26.4706 20.2204 27.6758 17.5663 28.0038C14.9122 28.3318 12.2247 27.7638 9.93021 26.3901C8.28288 25.4171 6.88769 24.0701 5.8575 22.4579C4.82731 20.8457 4.19106 19.0137 4.00021 17.1101C3.98469 16.9698 3.99902 16.8278 4.04228 16.6935C4.08553 16.5592 4.15673 16.4355 4.25118 16.3307C4.34563 16.2259 4.46121 16.1422 4.5903 16.0852C4.7194 16.0282 4.8591 15.9992 5.00021 16.0001V16.0001C5.24437 15.998 5.48085 16.0853 5.66506 16.2456C5.84927 16.4058 5.96848 16.628 6.00021 16.8701C6.15044 18.5962 6.74658 20.2537 7.73021 21.6801C8.41237 22.6856 9.27737 23.554 10.2802 24.2401C12.1619 25.5471 14.4353 26.1684 16.7202 26.0001C17.9336 25.9188 19.1209 25.6101 20.2202 25.0901C22.3681 24.1017 24.0918 22.3779 25.0802 20.2301C25.6049 19.1318 25.917 17.9443 26.0002 16.7301C26.1675 14.4576 25.5536 12.1961 24.2602 10.3201C23.5777 9.31146 22.7088 8.44255 21.7002 7.76006C20.563 6.97612 19.2758 6.43624 17.9196 6.17447C16.5635 5.9127 15.1678 5.93471 13.8205 6.23911C12.4733 6.5435 11.2037 7.12369 10.0918 7.9431C8.97995 8.7625 8.04987 9.80336 7.36021 11.0001H10.1102C10.2266 11.0001 10.3419 11.0231 10.4493 11.068C10.5567 11.1128 10.6542 11.1786 10.736 11.2613C10.8179 11.3441 10.8825 11.4423 10.9261 11.5502C10.9697 11.6581 10.9915 11.7737 10.9902 11.8901V12.1201C10.9915 12.2365 10.9697 12.352 10.9261 12.4599C10.8825 12.5678 10.8179 12.666 10.736 12.7488C10.6542 12.8316 10.5567 12.8973 10.4493 12.9421C10.3419 12.987 10.2266 13.0101 10.1102 13.0101H4.00021V6.88006C4.0002 6.64839 4.09154 6.42606 4.25441 6.26131C4.41729 6.09657 4.63856 6.00269 4.87021 6.00006H5.10021C5.21709 5.99874 5.33308 6.02045 5.44157 6.06396C5.55005 6.10747 5.64891 6.17193 5.73248 6.25365C5.81606 6.33536 5.88271 6.43274 5.92865 6.54022C5.97459 6.6477 5.99891 6.76318 6.00021 6.88006V9.34006C7.0724 7.71361 8.5331 6.38008 10.2502 5.46006C12.0696 4.46544 14.1157 3.95922 16.1889 3.99077C18.2622 4.02231 20.2919 4.59054 22.0802 5.64006H22.0702ZM17.0002 8.00006V15.0001H22.0002V17.0001H15.0002V8.00006H17.0002Z"/>
</g>
</svg>
