<svg width="32" height="32" viewBox="0 0 32 32" xmlns="http://www.w3.org/2000/svg">
<g>
<path d="M22.02 12.49L15.24 19.27L14.55 19.94L13.85 19.27L9.97998 15.39L11.37 14L14.55 17.18L20.63 11.1L22.02 12.49Z"/>
<path d="M25.56 4.80002C25.3956 4.68524 25.2005 4.62253 25 4.62002C24.9006 4.60494 24.7994 4.60494 24.7 4.62002C23.8006 4.90272 22.8628 5.0444 21.92 5.04002C20.0229 5.00585 18.1574 4.54802 16.46 3.70002C16.323 3.63291 16.1725 3.59802 16.02 3.59802C15.8675 3.59802 15.717 3.63291 15.58 3.70002C13.8803 4.56607 12.0072 5.03777 10.1 5.08002C9.15721 5.0844 8.21942 4.94272 7.32 4.66002C7.17172 4.61515 7.01505 4.60535 6.86233 4.63138C6.70962 4.65741 6.56504 4.71857 6.44 4.81002C6.30976 4.89788 6.20205 5.0152 6.1256 5.15245C6.04916 5.2897 6.00613 5.44304 6 5.60002V17.6C6 17.86 6.62 23.06 15.47 28.19C15.622 28.2778 15.7945 28.324 15.97 28.324C16.1455 28.324 16.318 28.2778 16.47 28.19C25.37 23.03 25.92 17.8 25.94 17.58V5.60002C25.9424 5.44645 25.9093 5.2944 25.8434 5.15566C25.7775 5.01693 25.6805 4.89523 25.56 4.80002V4.80002ZM24 6.86002V17.51C23.93 17.92 23 22 16 26.24C9 22 8.08 17.92 8 17.51V6.86002C8.69892 6.9924 9.40865 7.05936 10.12 7.06002C12.1534 7.03056 14.1574 6.57045 16 5.71002C17.8395 6.56907 19.84 7.02915 21.87 7.06002C22.5847 7.05998 23.2978 6.99302 24 6.86002V6.86002Z"/>
</g>
</svg>
