<svg width="32" height="32" viewBox="0 0 32 32" xmlns="http://www.w3.org/2000/svg">
<g>
<path d="M4.9999 8.11998C5.83858 6.62899 7.06082 5.38949 8.5399 4.52998C10.056 3.64038 11.782 3.17139 13.5399 3.17139C15.2977 3.17139 17.0238 3.64038 18.5399 4.52998C20.0374 5.3824 21.2775 6.62253 22.1299 8.11998C23.035 9.63008 23.5089 11.3594 23.4999 13.12C23.5407 14.2775 23.3713 15.4329 22.9999 16.53C22.6117 17.5862 22.0544 18.5724 21.3499 19.45L28.5999 26.7C28.7862 26.8873 28.8907 27.1408 28.8907 27.405C28.8907 27.6692 28.7862 27.9226 28.5999 28.11C28.5069 28.2037 28.3963 28.2781 28.2745 28.3289C28.1526 28.3796 28.0219 28.4058 27.8899 28.4058C27.7579 28.4058 27.6272 28.3796 27.5053 28.3289C27.3835 28.2781 27.2729 28.2037 27.1799 28.11L19.9299 20.86C19.0556 21.5718 18.0687 22.1328 17.0099 22.52C15.6385 23.0153 14.1747 23.2022 12.7229 23.0674C11.271 22.9326 9.86666 22.4794 8.6099 21.74C7.10769 20.8959 5.86066 19.6627 4.9999 18.17C4.09428 16.6601 3.62041 14.9306 3.6299 13.17C3.61172 11.3925 4.08589 9.6446 4.9999 8.11998V8.11998ZM6.6999 17.12C7.40006 18.3234 8.39894 19.3257 9.5999 20.03C10.8161 20.7321 12.1956 21.1018 13.5999 21.1018C15.0042 21.1018 16.3837 20.7321 17.5999 20.03C18.8009 19.3257 19.7997 18.3234 20.4999 17.12C21.2191 15.9106 21.5926 14.527 21.5799 13.12C21.5921 11.713 21.2186 10.3296 20.4999 9.11998C19.7997 7.9166 18.8009 6.91428 17.5999 6.20998C16.3837 5.50783 15.0042 5.13818 13.5999 5.13818C12.1956 5.13818 10.8161 5.50783 9.5999 6.20998C8.39894 6.91428 7.40006 7.9166 6.6999 9.11998C5.9812 10.3296 5.60768 11.713 5.6199 13.12C5.58651 14.5324 5.94288 15.9268 6.6499 17.15L6.6999 17.12Z"/>
</g>
</svg>
