<svg width="32" height="32" viewBox="0 0 32 32" xmlns="http://www.w3.org/2000/svg">
<g>
<path d="M22.4499 14.8C22.2906 14.7988 22.1326 14.8292 21.985 14.8892C21.8374 14.9493 21.7032 15.0379 21.5899 15.15L16.5299 20.15C16.3552 20.1166 16.1778 20.0999 15.9999 20.1C15.5952 20.0946 15.197 20.2019 14.8499 20.41C14.5071 20.6158 14.2216 20.9047 14.0199 21.25C13.8167 21.5937 13.7095 21.9857 13.7095 22.385C13.7095 22.7843 13.8167 23.1763 14.0199 23.52C14.2185 23.8703 14.5045 24.1631 14.8499 24.37C15.199 24.5734 15.5959 24.6804 15.9999 24.68C16.4008 24.6805 16.7945 24.5735 17.1399 24.37C17.4882 24.1634 17.7775 23.8707 17.9799 23.52C18.1879 23.1802 18.2953 22.7884 18.2899 22.39C18.292 22.2115 18.2718 22.0335 18.2299 21.86L23.2899 16.8C23.402 16.6868 23.4906 16.5525 23.5507 16.4049C23.6108 16.2573 23.6411 16.0993 23.6399 15.94C23.6373 15.6252 23.5111 15.324 23.2885 15.1014C23.0659 14.8788 22.7647 14.7526 22.4499 14.75V14.8Z"/>
<path d="M28.6501 15.88C27.9666 14.2148 26.9683 12.6971 25.7101 11.41C24.4679 10.1333 22.9864 9.11389 21.3501 8.40997C19.6632 7.67143 17.8416 7.29016 16.0001 7.29016C14.1586 7.29016 12.337 7.67143 10.6501 8.40997C9.01383 9.11389 7.53229 10.1333 6.2901 11.41C5.02748 12.6936 4.02866 14.2122 3.3501 15.88C2.63008 17.7182 2.26366 19.6758 2.2701 21.65V23.73C2.2701 23.9952 2.37546 24.2495 2.563 24.4371C2.75053 24.6246 3.00489 24.73 3.2701 24.73H3.5501C3.81532 24.73 4.06967 24.6246 4.25721 24.4371C4.44475 24.2495 4.5501 23.9952 4.5501 23.73V21.73C4.54204 20.0516 4.84726 18.3864 5.4501 16.82C6.01936 15.4016 6.85432 14.105 7.9101 13C8.94302 11.9178 10.1802 11.0511 11.5501 10.45C12.9535 9.83651 14.4685 9.51983 16.0001 9.51983C17.5317 9.51983 19.0467 9.83651 20.4501 10.45C21.8184 11.0487 23.0528 11.9158 24.0801 13C25.1386 14.0934 25.9771 15.3801 26.5501 16.79C27.148 18.2599 27.4504 19.8332 27.4401 21.42V23.74C27.4401 24.0052 27.5455 24.2595 27.733 24.4471C27.9205 24.6346 28.1749 24.74 28.4401 24.74H28.7301C28.9953 24.74 29.2497 24.6346 29.4372 24.4471C29.6247 24.2595 29.7301 24.0052 29.7301 23.74V21.37C29.7354 19.4867 29.3684 17.6209 28.6501 15.88V15.88Z"/>
</g>
</svg>
