<svg width="20" height="20" viewBox="0 0 20 20" xmlns="http://www.w3.org/2000/svg">
<g opacity="0.8">
<path fill-rule="evenodd" clip-rule="evenodd" d="M6.17317 0.761209C8.00043 0.00433254 10.0111 -0.1937 11.9509 0.192152C13.8907 0.578004 15.6725 1.53041 17.0711 2.92894C18.4696 4.32746 19.422 6.10929 19.8079 8.0491C20.1937 9.98891 19.9957 11.9996 19.2388 13.8268C18.4819 15.6541 17.2002 17.2159 15.5557 18.3147C13.9112 19.4135 11.9778 20 10 20V17C11.3845 17 12.7378 16.5895 13.889 15.8203C15.0401 15.0511 15.9373 13.9579 16.4672 12.6788C16.997 11.3997 17.1356 9.99224 16.8655 8.63437C16.5954 7.27651 15.9287 6.02923 14.9497 5.05026C13.9708 4.07129 12.7235 3.4046 11.3656 3.13451C10.0078 2.86441 8.6003 3.00303 7.32122 3.53285C6.04213 4.06266 4.94888 4.95987 4.17971 6.11101C3.41054 7.26216 3 8.61553 3 10H0C0 8.02219 0.58649 6.08879 1.6853 4.4443L2.93251 5.27766L1.6853 4.4443C2.78412 2.79981 4.34591 1.51808 6.17317 0.761209Z"/>
</g>
</svg>
