<svg width="32" height="32" viewBox="0 0 32 32" xmlns="http://www.w3.org/2000/svg">
<g>
<path d="M16.0001 7.14003L18.0501 11.74C18.2712 12.2298 18.6163 12.6534 19.0512 12.9691C19.4861 13.2848 19.9959 13.4816 20.5301 13.54L25.5301 14.06L21.7701 17.47C21.3686 17.8253 21.0696 18.2817 20.9043 18.7917C20.7389 19.3018 20.7133 19.8468 20.8301 20.37L21.8801 25.3L17.4901 22.77C17.0377 22.5056 16.524 22.3642 16.0001 22.36C15.4597 22.3597 14.9287 22.5011 14.4601 22.77L10.1001 25.3L11.1001 20.37C11.2023 19.8414 11.1638 19.2952 10.9882 18.7862C10.8127 18.2772 10.5064 17.8233 10.1001 17.47L6.43007 14.06L11.4301 13.54C11.9801 13.4968 12.5086 13.307 12.9605 12.9905C13.4125 12.674 13.7714 12.2422 14.0001 11.74L16.0001 7.14003ZM16.0001 3.77003C15.7881 3.75516 15.5769 3.80821 15.397 3.92149C15.2172 4.03477 15.0782 4.20239 15.0001 4.40003L12.1001 10.92C12.0226 11.0918 11.9016 11.2403 11.749 11.3509C11.5963 11.4614 11.4174 11.53 11.2301 11.55L4.11007 12.29C3.90437 12.3098 3.70893 12.3892 3.54778 12.5186C3.38664 12.648 3.26682 12.8216 3.20307 13.0182C3.13932 13.2147 3.13441 13.4256 3.18896 13.625C3.2435 13.8243 3.35512 14.0033 3.51007 14.14L8.85007 19C8.98744 19.1235 9.09015 19.2808 9.14803 19.4562C9.20592 19.6316 9.21696 19.819 9.18007 20L7.71007 27C7.67963 27.1513 7.68226 27.3073 7.71778 27.4575C7.7533 27.6076 7.82087 27.7483 7.91585 27.8699C8.01084 27.9915 8.131 28.0911 8.26808 28.1619C8.40517 28.2327 8.55595 28.273 8.71007 28.28C8.8973 28.2806 9.08093 28.2287 9.24007 28.13L15.4201 24.56C15.5792 24.4614 15.7628 24.4094 15.9501 24.41C16.1357 24.4112 16.3181 24.4594 16.4801 24.55L22.6801 28.14C22.8449 28.2327 23.031 28.281 23.2201 28.28C23.3752 28.2732 23.5271 28.2327 23.665 28.1613C23.8029 28.0899 23.9237 27.9894 24.0188 27.8666C24.114 27.7439 24.1813 27.6019 24.216 27.4505C24.2508 27.2991 24.2522 27.142 24.2201 26.99L22.7301 19.99C22.6961 19.809 22.7086 19.6224 22.7663 19.4475C22.824 19.2727 22.9251 19.1153 23.0601 18.99L28.3701 14.18C28.525 14.0433 28.6366 13.8643 28.6912 13.665C28.7457 13.4656 28.7408 13.2547 28.6771 13.0582C28.6133 12.8616 28.4935 12.688 28.3324 12.5586C28.1712 12.4292 27.9758 12.3498 27.7701 12.33L20.6501 11.59C20.4627 11.57 20.2838 11.5014 20.1312 11.3909C19.9786 11.2803 19.8575 11.1318 19.7801 10.96L17.0001 4.40003C16.922 4.20239 16.7829 4.03477 16.6031 3.92149C16.4233 3.80821 16.2121 3.75516 16.0001 3.77003V3.77003Z"/>
</g>
</svg>
