<svg width="32" height="32" viewBox="0 0 32 32" xmlns="http://www.w3.org/2000/svg">
<g>
<path d="M21.5298 4.49998C23.1608 5.44737 24.5183 6.80142 25.4698 8.42998C26.4963 10.2034 27.0249 12.2211 26.9998 14.27V20C26.9998 20.7956 26.6838 21.5587 26.1212 22.1213C25.5585 22.6839 24.7955 23 23.9998 23H21.8998C21.6611 23 21.4322 22.9052 21.2634 22.7364C21.0947 22.5676 20.9998 22.3387 20.9998 22.1V14.9C20.9998 14.6613 21.0947 14.4324 21.2634 14.2636C21.4322 14.0948 21.6611 14 21.8998 14H24.9998C25.0071 12.4078 24.5857 10.8431 23.7798 9.46998C22.9889 8.12912 21.8707 7.01089 20.5298 6.21998C19.1546 5.41888 17.5914 4.99681 15.9998 4.99681C14.4082 4.99681 12.8451 5.41888 11.4698 6.21998C10.129 7.01089 9.01076 8.12912 8.21984 9.46998C7.41398 10.8431 6.99257 12.4078 6.99984 14H10.0998C10.3385 14 10.5675 14.0948 10.7362 14.2636C10.905 14.4324 10.9998 14.6613 10.9998 14.9V22.1C10.9998 22.3387 10.905 22.5676 10.7362 22.7364C10.5675 22.9052 10.3385 23 10.0998 23H8.99984C8.99984 23.4168 9.08908 23.8288 9.26157 24.2083C9.43406 24.5878 9.68579 24.9259 9.99984 25.2C10.5777 25.7223 11.331 26.0079 12.1098 26H13.3298C13.5079 25.6957 13.7631 25.4438 14.0698 25.27C14.3509 25.1003 14.6716 25.0072 14.9998 25H16.9998C17.5303 25 18.039 25.2107 18.4141 25.5858C18.7891 25.9608 18.9998 26.4695 18.9998 27C18.9998 27.5304 18.7891 28.0391 18.4141 28.4142C18.039 28.7893 17.5303 29 16.9998 29H14.9998C14.6478 29.0054 14.3013 28.9118 13.9998 28.73C13.6931 28.5561 13.4379 28.3043 13.2598 28H12.1998C11.2612 28.0158 10.3345 27.7884 9.50984 27.34C8.53329 26.7775 7.77295 25.9045 7.34984 24.86C7.10825 24.2701 6.98917 23.6373 6.99984 23V22.81C6.42061 22.6059 5.91798 22.2289 5.55984 21.73C5.18994 21.2296 4.99333 20.6222 4.99984 20V14.17C4.96728 12.055 5.5452 9.97552 6.66434 8.18063C7.78349 6.38573 9.3964 4.95158 11.3098 4.04998C12.4269 3.50564 13.6328 3.16691 14.8698 3.04998C17.1878 2.80821 19.5222 3.31645 21.5298 4.49998V4.49998ZM6.99984 20C6.99824 20.1311 7.02411 20.2612 7.07577 20.3817C7.12744 20.5023 7.20376 20.6107 7.29984 20.7C7.48447 20.8884 7.73607 20.9962 7.99984 21H8.99984V16H6.99984V20ZM22.9998 21H23.9998C24.2636 20.9962 24.5152 20.8884 24.6998 20.7C24.7959 20.6107 24.8722 20.5023 24.9239 20.3817C24.9756 20.2612 25.0014 20.1311 24.9998 20V16H22.9998V21Z"/>
</g>
</svg>
