<svg width="32" height="32" viewBox="0 0 32 32" xmlns="http://www.w3.org/2000/svg">
<g>
<path d="M23.6899 5.55003L26.6399 9.49003C26.7677 9.66039 26.8378 9.86709 26.8399 10.08V25.85C26.8399 26.1153 26.7345 26.3696 26.547 26.5571C26.3595 26.7447 26.1051 26.85 25.8399 26.85H6.1499C5.88469 26.85 5.63033 26.7447 5.4428 26.5571C5.25526 26.3696 5.1499 26.1153 5.1499 25.85V10.08C5.15205 9.86709 5.22211 9.66039 5.3499 9.49003L8.3499 5.55003C8.44306 5.42902 8.5627 5.33095 8.69964 5.26335C8.83658 5.19574 8.98718 5.1604 9.1399 5.16003H22.8999C23.0526 5.1604 23.2032 5.19574 23.3402 5.26335C23.4771 5.33095 23.5967 5.42902 23.6899 5.55003V5.55003ZM7.1299 24.87H24.8699V11.07H7.1299V24.87ZM8.1299 9.10003H14.9999V7.10003H9.5999L8.1299 9.10003ZM18.9999 13C19.1747 13.0015 19.3465 13.0461 19.4999 13.13C19.6539 13.2056 19.78 13.3282 19.8599 13.48C19.9415 13.6375 19.9828 13.8127 19.9799 13.99C19.9804 14.1671 19.9393 14.3418 19.8599 14.5C19.78 14.6519 19.6539 14.7744 19.4999 14.85C19.3483 14.9409 19.1765 14.9925 18.9999 15H12.9999C12.8705 15.0136 12.7397 15.0002 12.6158 14.9606C12.4918 14.921 12.3775 14.8561 12.2799 14.77C12.1782 14.6911 12.0944 14.5914 12.0341 14.4776C11.9737 14.3638 11.9382 14.2385 11.9299 14.11C11.9094 13.8492 11.992 13.5907 12.1599 13.39C12.2365 13.285 12.3354 13.1983 12.4495 13.136C12.5636 13.0738 12.6901 13.0376 12.8199 13.03L18.9999 13ZM16.9999 9.10003H23.8899L22.4099 7.10003H16.9999V9.10003Z"/>
</g>
</svg>
