<svg width="32" height="32" viewBox="0 0 32 32" xmlns="http://www.w3.org/2000/svg">
<g>
<path d="M28.5099 25.59C28.5979 25.7423 28.6441 25.9151 28.6439 26.091C28.6437 26.2669 28.5972 26.4396 28.5089 26.5918C28.4207 26.7439 28.2939 26.8701 28.1413 26.9575C27.9888 27.045 27.8158 27.0907 27.6399 27.09H4.35994C4.18406 27.0907 4.01112 27.045 3.85854 26.9575C3.70597 26.8701 3.57917 26.7439 3.49093 26.5918C3.40269 26.4396 3.35613 26.2669 3.35596 26.091C3.35578 25.9151 3.402 25.7423 3.48994 25.59L15.1299 5.41002C15.2172 5.25613 15.3436 5.12812 15.4965 5.03906C15.6493 4.95 15.823 4.90308 15.9999 4.90308C16.1768 4.90308 16.3506 4.95 16.5034 5.03906C16.6562 5.12812 16.7827 5.25613 16.8699 5.41002L28.5099 25.59ZM5.99994 25.14H25.9999L15.9999 7.81002L5.99994 25.14ZM16.9999 14.42V20.27H14.9999V14.42H16.9999ZM16.9999 21.24V23.24H14.9999V21.24H16.9999Z"/>
</g>
</svg>
