<svg width="32" height="32" viewBox="0 0 32 32" xmlns="http://www.w3.org/2000/svg">
<g>
<path d="M9.22002 6.29997V8.29997C9.82637 8.42824 10.401 8.67644 10.91 9.02997L12.36 7.56997C12.5449 7.39847 12.7878 7.30318 13.04 7.30318C13.2922 7.30318 13.5351 7.39847 13.72 7.56997V7.56997C13.8915 7.75488 13.9868 7.99777 13.9868 8.24997C13.9868 8.50216 13.8915 8.74505 13.72 8.92997L12.26 10.37C12.4553 10.664 12.6163 10.9794 12.74 11.31C12.9462 11.2333 13.1612 11.1829 13.38 11.16C13.6774 10.3087 14.1612 9.53472 14.7962 8.89455C15.4312 8.25438 16.2012 7.76423 17.05 7.45997C17.8354 7.2271 18.6595 7.15403 19.4737 7.24506C20.2878 7.33609 21.0754 7.58938 21.79 7.98997C22.6749 8.50146 23.4069 9.24032 23.91 10.13C24.6809 10.1668 25.4333 10.3789 26.11 10.75C26.7799 11.1169 27.3498 11.6421 27.77 12.28C28.2025 12.9098 28.4675 13.6394 28.54 14.4C29.185 14.6781 29.7641 15.089 30.2396 15.6059C30.7152 16.1228 31.0765 16.7341 31.3 17.4C31.4807 18.0392 31.5322 18.7079 31.4515 19.3673C31.3708 20.0266 31.1595 20.6632 30.83 21.24C30.4587 21.8623 29.9605 22.3994 29.3678 22.8164C28.7751 23.2333 28.1012 23.5208 27.39 23.66H25.14C25.4966 23.0754 25.6867 22.4046 25.69 21.72H27.48C28.0786 21.5025 28.5974 21.1092 28.9686 20.5917C29.3398 20.0742 29.5459 19.4566 29.56 18.82C29.5401 18.2929 29.3865 17.7796 29.1136 17.3283C28.8407 16.877 28.4575 16.5024 28 16.24L26.64 15.91V14.97C26.6415 14.5945 26.5649 14.2229 26.4151 13.8786C26.2653 13.5343 26.0457 13.2249 25.77 12.97C25.5094 12.703 25.1985 12.4905 24.8552 12.3446C24.5119 12.1987 24.143 12.1223 23.77 12.12L22.77 12.25L22.25 11C21.8766 10.4567 21.3785 10.0107 20.7974 9.69929C20.2164 9.38788 19.5692 9.2201 18.91 9.20997C18.0159 9.21526 17.151 9.52838 16.4607 10.0966C15.7704 10.6649 15.297 11.4536 15.12 12.33L14.94 13.14L13.94 13.08C13.6948 13.0802 13.4523 13.1319 13.2284 13.2318C13.0044 13.3317 12.804 13.4776 12.64 13.66C12.3006 14.023 12.1144 14.503 12.12 15V16H10.34C9.55684 16.2788 8.91507 16.855 8.55381 17.6037C8.19254 18.3525 8.14088 19.2134 8.41002 20C8.64653 20.5313 9.03238 20.9824 9.52062 21.2984C10.0089 21.6145 10.5784 21.7818 11.16 21.78H13.16C12.8075 22.3928 12.5257 23.0436 12.32 23.72H10.41C9.70677 23.5804 9.04034 23.2957 8.45322 22.8842C7.8661 22.4727 7.37118 21.9434 7.00002 21.33C6.57291 20.5951 6.3486 19.76 6.35002 18.91C6.36152 18.4659 6.43214 18.0254 6.56002 17.6C6.23263 17.4762 5.92057 17.3151 5.63002 17.12L4.14002 18.58C3.9551 18.7515 3.71222 18.8468 3.46002 18.8468C3.20782 18.8468 2.96493 18.7515 2.78002 18.58C2.60852 18.3951 2.51323 18.1522 2.51323 17.9C2.51323 17.6478 2.60852 17.4049 2.78002 17.22L4.24002 15.78C3.89317 15.2647 3.64872 14.6876 3.52002 14.08H1.52002C1.2548 14.08 1.00045 13.9746 0.812913 13.7871C0.625376 13.5995 0.52002 13.3452 0.52002 13.08C0.52002 12.8147 0.625376 12.5604 0.812913 12.3729C1.00045 12.1853 1.2548 12.08 1.52002 12.08H3.52002C3.64898 11.4755 3.89346 10.9017 4.24002 10.39L2.76002 8.99997C2.58852 8.81505 2.49323 8.57216 2.49323 8.31997C2.49323 8.06777 2.58852 7.82488 2.76002 7.63997V7.63997C2.94493 7.46847 3.18782 7.37318 3.44002 7.37318C3.69222 7.37318 3.9351 7.46847 4.12002 7.63997L5.59002 9.06997C6.09907 8.71644 6.67367 8.46824 7.28002 8.33997V6.33997C7.28002 6.07475 7.38538 5.8204 7.57291 5.63286C7.76045 5.44532 8.0148 5.33997 8.28002 5.33997V5.33997C8.52794 5.35469 8.76151 5.46113 8.93526 5.63858C9.10902 5.81603 9.21052 6.05179 9.22002 6.29997V6.29997ZM6.19002 11C5.91659 11.2661 5.70021 11.5851 5.55407 11.9375C5.40794 12.2899 5.33511 12.6685 5.34002 13.05C5.33634 13.678 5.54024 14.2897 5.92002 14.79C6.27607 15.31 6.79773 15.6942 7.40002 15.88C8.10622 14.9593 9.13554 14.341 10.28 14.15C10.4222 13.559 10.7033 13.0105 11.1 12.55C10.9816 11.8827 10.6301 11.2792 10.1081 10.847C9.58614 10.4147 8.92766 10.1819 8.25002 10.19C7.86956 10.1773 7.49052 10.2426 7.13625 10.3819C6.78198 10.5212 6.45996 10.7316 6.19002 11V11ZM16.61 21.81C16.9191 22.2897 17.1996 22.7872 17.45 23.3L17.67 23.75C17.8225 24.0632 17.9142 24.4025 17.94 24.75C17.94 25.0047 17.8898 25.257 17.7923 25.4924C17.6949 25.7277 17.552 25.9416 17.3718 26.1218C17.1917 26.3019 16.9778 26.4448 16.7424 26.5423C16.5071 26.6398 16.2548 26.69 16 26.69C15.7453 26.69 15.493 26.6398 15.2576 26.5423C15.0222 26.4448 14.8084 26.3019 14.6282 26.1218C14.4481 25.9416 14.3052 25.7277 14.2077 25.4924C14.1102 25.257 14.06 25.0047 14.06 24.75C14.0859 24.4025 14.1775 24.0632 14.33 23.75L14.55 23.3C14.69 23.01 14.85 22.71 15.03 22.39L15.39 21.81C15.6 21.49 15.8 21.17 16 20.81L16.61 21.81ZM21.81 17.94C22.13 18.4 22.46 18.94 22.81 19.48C23.3138 20.1793 23.6554 20.9821 23.81 21.83C23.7861 22.2666 23.609 22.6809 23.31 23C23.0288 23.3422 22.6419 23.5814 22.21 23.68C22.0769 23.6918 21.9431 23.6918 21.81 23.68C21.5556 23.6848 21.3028 23.6376 21.0673 23.5413C20.8317 23.445 20.6183 23.3016 20.44 23.12C20.2557 22.9417 20.1106 22.7268 20.0142 22.4892C19.9177 22.2515 19.872 21.9963 19.88 21.74C19.9455 21.2166 20.1191 20.7126 20.39 20.26C20.6532 19.692 20.9573 19.1438 21.3 18.62C21.48 18.4266 21.65 18.2 21.81 17.94V17.94Z"/>
</g>
</svg>
