<svg width="32" height="32" viewBox="0 0 32 32" xmlns="http://www.w3.org/2000/svg">
<g>
<path d="M28.48 28.71H3.47998C3.21476 28.71 2.96041 28.6047 2.77287 28.4171C2.58534 28.2296 2.47998 27.9753 2.47998 27.71V4.29004C2.47998 4.02482 2.58534 3.77047 2.77287 3.58293C2.96041 3.3954 3.21476 3.29004 3.47998 3.29004H28.48C28.7452 3.29004 28.9996 3.3954 29.1871 3.58293C29.3746 3.77047 29.48 4.02482 29.48 4.29004V27.71C29.48 27.9753 29.3746 28.2296 29.1871 28.4171C28.9996 28.6047 28.7452 28.71 28.48 28.71ZM4.47998 26.71H27.48V5.29004H4.47998V26.71Z"/>
<path d="M26.1999 11.79C26.21 11.7271 26.21 11.6629 26.1999 11.6C26.2088 11.537 26.2088 11.473 26.1999 11.41C26.1853 11.3501 26.1617 11.2928 26.1299 11.24C26.106 11.1835 26.0758 11.1298 26.0399 11.08L25.8999 10.93C25.8999 10.93 25.8999 10.93 25.8299 10.86C22.9198 8.93042 19.491 7.93284 15.9999 7.99999C12.5232 7.9271 9.10618 8.91038 6.19995 10.82C6.19995 10.82 6.19995 10.87 6.12995 10.89C6.07826 10.9351 6.03135 10.9853 5.98995 11.04C5.95085 11.0895 5.91731 11.1432 5.88995 11.2C5.86553 11.255 5.84547 11.3118 5.82995 11.37C5.82623 11.4333 5.82623 11.4967 5.82995 11.56C5.82524 11.6232 5.82524 11.6867 5.82995 11.75C5.82426 11.8132 5.82426 11.8768 5.82995 11.94C5.82545 11.9765 5.82545 12.0135 5.82995 12.05L7.73995 16.3C7.78972 16.3928 7.85385 16.4772 7.92995 16.55L8.00995 16.62C8.07686 16.6761 8.15082 16.7231 8.22995 16.76H8.30995C8.41189 16.8 8.52046 16.8203 8.62995 16.82V16.82C8.74902 16.8596 8.87517 16.8732 8.99995 16.86C9.0398 16.8648 9.08009 16.8648 9.11995 16.86V16.86C11.2802 15.879 13.6274 15.3775 15.9999 15.39C18.3737 15.3666 20.7243 15.8579 22.8899 16.83V16.83C23.0187 16.8887 23.1585 16.9193 23.2999 16.92C23.3599 16.9248 23.42 16.9248 23.4799 16.92H23.5799L23.6899 16.87C23.7394 16.8528 23.7865 16.8292 23.8299 16.8C23.8618 16.7791 23.8919 16.7557 23.9199 16.73C23.9677 16.6988 24.0113 16.6619 24.0499 16.62C24.0499 16.62 24.0499 16.55 24.1199 16.52L24.2099 16.38L26.1199 12.13C26.1244 12.0935 26.1244 12.0565 26.1199 12.02C26.1554 11.9467 26.1822 11.8695 26.1999 11.79V11.79ZM12.1999 13.79L11.2899 11.59L9.43995 12.35L10.2399 14.28C9.86995 14.4 9.51995 14.54 9.16995 14.68L7.99995 12.06C10.4431 10.6983 13.2034 10.0082 15.9999 10.06C18.7968 10.0053 21.5579 10.6956 23.9999 12.06L22.8399 14.65C20.6593 13.8044 18.3388 13.3769 15.9999 13.39C14.7375 13.3903 13.4782 13.5142 12.2399 13.76L12.1999 13.79Z"/>
<path d="M25.51 22.52H6.5V24.52H25.51V22.52Z"/>
</g>
</svg>
