<svg width="32" height="32" viewBox="0 0 32 32" xmlns="http://www.w3.org/2000/svg">
<g>
<path d="M4.62988 2.63H2.62988V29.37H4.62988V2.63Z"/>
<path d="M23.7098 15.29L20.1698 11.78C19.9839 11.6027 19.7368 11.5038 19.4798 11.5038C19.2229 11.5038 18.9758 11.6027 18.7898 11.78V11.78C18.6126 11.966 18.5137 12.213 18.5137 12.47C18.5137 12.7269 18.6126 12.974 18.7898 13.16L20.6498 15H8.58984C8.32463 15 8.07027 15.1053 7.88274 15.2929C7.6952 15.4804 7.58984 15.7348 7.58984 16C7.58984 16.2652 7.6952 16.5195 7.88274 16.7071C8.07027 16.8946 8.32463 17 8.58984 17H20.6498L18.7898 18.86C18.6126 19.046 18.5137 19.293 18.5137 19.55C18.5137 19.8069 18.6126 20.054 18.7898 20.24C18.9758 20.4173 19.2229 20.5162 19.4798 20.5162C19.7368 20.5162 19.9839 20.4173 20.1698 20.24L23.7098 16.73L24.3898 16.02L23.7098 15.29Z"/>
<path d="M29.3701 19.77H27.3701V23.32H29.3701V19.77Z"/>
<path d="M29.3701 14.23H27.3701V17.78H29.3701V14.23Z"/>
<path d="M29.3701 2.63H27.3701V6.68H29.3701V2.63Z"/>
<path d="M29.3701 25.3199H27.3701V29.3699H29.3701V25.3199Z"/>
<path d="M29.3701 8.68005H27.3701V12.2301H29.3701V8.68005Z"/>
</g>
</svg>
