<svg width="32" height="32" viewBox="0 0 32 32" xmlns="http://www.w3.org/2000/svg">
<g>
<path d="M17 3V6.56L19.28 4.28L20.72 5.72L17 9.44V14.25L21.12 11.78L22.44 6.69L24.38 7.19L23.56 10.31L26.62 8.47L27.62 10.16L24.53 12L27.75 12.81L27.25 14.75L22.12 13.44L17.91 16L22.12 18.53L27.25 17.22L27.75 19.16L24.53 20L27.66 21.87L26.66 23.56L23.6 21.72L24.42 24.84L22.48 25.34L21.16 20.25L17 17.75V22.56L20.72 26.28L19.28 27.72L17 25.44V29H15V25.44L12.72 27.72L11.28 26.28L15 22.56V17.75L10.88 20.22L9.56 25.31L7.62 24.81L8.44 21.69L5.38 23.53L4.38 21.84L7.47 20L4.25 19.19L4.75 17.25L9.88 18.56L14.09 16L9.88 13.47L4.75 14.78L4.25 12.84L7.47 12L4.34 10.16L5.34 8.47L8.4 10.31L7.62 7.19L9.56 6.69L10.88 11.78L15 14.25V9.44L11.28 5.72L12.72 4.28L15 6.56V3H17Z"/>
</g>
</svg>
