<svg width="32" height="32" viewBox="0 0 32 32" xmlns="http://www.w3.org/2000/svg">
<g>
<path d="M22.7502 4.48C24.7469 5.61698 26.4066 7.26286 27.5602 9.25C28.7461 11.3019 29.3704 13.63 29.3704 16C29.3704 18.3699 28.7461 20.6981 27.5602 22.75C26.3833 24.7704 24.6955 26.4456 22.6665 27.6076C20.6374 28.7695 18.3384 29.3774 16.0002 29.37C13.6286 29.3831 11.2971 28.7579 9.25024 27.56C7.2631 26.4064 5.61722 24.7467 4.48024 22.75C3.26932 20.7067 2.63037 18.3752 2.63037 16C2.63037 13.6248 3.26932 11.2933 4.48024 9.25C5.61117 7.25907 7.25931 5.61093 9.25024 4.48C11.2936 3.26907 13.625 2.63013 16.0002 2.63013C18.3754 2.63013 20.7069 3.26907 22.7502 4.48V4.48ZM6.11024 21.1C6.77415 22.3996 7.68437 23.5577 8.79024 24.51C9.88479 25.4649 11.1649 26.1833 12.5502 26.62L9.38024 22.72H8.10024L6.00024 20.42V18.12L4.93024 16.87C5.03526 18.345 5.43659 19.7836 6.11024 21.1V21.1ZM15.4102 4.89H15.0902L17.5702 5.06L18.1602 7.64L14.8202 8.27L13.9102 7.01L12.0002 7.47L12.6602 10.47L8.20024 12.55L5.20024 14.92L6.28024 17.11H10.4202L14.9102 20.49L13.7402 25L15.0002 27.07H15.1702C15.4586 27.1107 15.7491 27.1341 16.0402 27.14C17.7013 27.147 19.3423 26.7778 20.8402 26.06L22.6202 20.49L22.2002 19.49C22.075 19.1338 21.8999 18.7971 21.6802 18.49L19.3502 18.88L17.1902 17.1L18.2702 13.76L20.1802 12.33L22.0902 12L23.9002 13.11L24.6702 11.72L21.6702 10.72L19.2602 11.48L19.1002 9.25L20.1002 8.41L21.2902 8.93L21.0502 6.7L21.9502 6.6C20.1766 5.45739 18.11 4.85304 16.0002 4.86L15.4102 4.89ZM12.1702 5.52L13.0102 5.66L14.7502 4.93C13.8685 5.01522 13.0014 5.21352 12.1702 5.52V5.52Z"/>
</g>
</svg>
