<svg width="32" height="32" viewBox="0 0 32 32" xmlns="http://www.w3.org/2000/svg">
<g>
<path d="M13.6601 3.67002C15.3582 3.6635 17.0256 4.12357 18.4801 5.00002C19.9165 5.81818 21.1077 7.00596 21.9301 8.44002C22.6384 9.65014 23.0719 11.0013 23.1998 12.3976C23.3277 13.794 23.1468 15.2014 22.6701 16.52C22.3054 17.5359 21.7712 18.4827 21.0901 19.32L28.0901 26.32C28.2616 26.5049 28.3569 26.7478 28.3569 27C28.3569 27.2522 28.2616 27.4951 28.0901 27.68C27.9052 27.8515 27.6623 27.9468 27.4101 27.9468C27.1579 27.9468 26.915 27.8515 26.7301 27.68L19.7301 20.68C18.8907 21.3606 17.9446 21.8979 16.9301 22.27C15.6112 22.748 14.203 22.9287 12.8062 22.799C11.4093 22.6694 10.0584 22.2326 8.85008 21.52C7.41177 20.7032 6.22267 19.5107 5.41008 18.07C4.54611 16.6088 4.09033 14.9425 4.09033 13.245C4.09033 11.5475 4.54611 9.88119 5.41008 8.42002C6.22308 6.99421 7.40426 5.81303 8.83008 5.00002C10.2877 4.12228 11.9586 3.66218 13.6601 3.67002V3.67002ZM13.6601 5.59002C12.3095 5.56572 10.9781 5.91155 9.81008 6.59002C8.64441 7.27004 7.67596 8.24194 7.00008 9.41002C6.31933 10.5789 5.96067 11.9074 5.96067 13.26C5.96067 14.6127 6.31933 15.9411 7.00008 17.11C7.68007 18.2671 8.64817 19.2283 9.81008 19.9C10.981 20.5749 12.3086 20.9301 13.6601 20.9301C15.0115 20.9301 16.3392 20.5749 17.5101 19.9C18.6618 19.2253 19.6195 18.2642 20.2901 17.11C20.9708 15.9411 21.3295 14.6127 21.3295 13.26C21.3295 11.9074 20.9708 10.5789 20.2901 9.41002C19.6195 8.25586 18.6618 7.29474 17.5101 6.62002C16.3441 5.93343 15.0131 5.57735 13.6601 5.59002V5.59002ZM17.4901 12.3V14.22H9.82008V12.3H17.4901Z"/>
</g>
</svg>
