<?xml version="1.0" encoding="iso-8859-1"?>
<svg version="1.1" xmlns="http://www.w3.org/2000/svg" xmlns:xlink="http://www.w3.org/1999/xlink" x="0px" y="0px"
	 viewBox="0 0 32 32" style="enable-background:new 0 0 32 32;" xml:space="preserve">
	 
<g id="qrcode">
	<rect x="23.7" y="4.5" width="3.8" height="3.8"/>
	<path d="M19.2,0v12.8h0H32V0v0H19.2z M29.7,10.5h-8.3V2.3h8.3V10.5z"/>
	<rect x="4.5" y="4.5" width="3.8" height="3.8"/>
	<path d="M0,12.8L0,12.8h12.8V0v0H0V12.8z M10.5,10.5H2.3V2.3h8.3V10.5z"/>
	<rect x="23.7" y="23.7" width="3.8" height="3.8"/>
	<path d="M19.2,32L19.2,32H32V19.2v0H19.2V32z M29.7,29.7h-8.3v-8.3h8.3V29.7z"/>
	<rect x="14.3" y="27.3" width="3.2" height="3.2"/>
	<rect x="11.1" y="24.1" width="3.2" height="3.2"/>
	<rect x="4.7" y="24.1" transform="matrix(6.123234e-17 -1 1 6.123234e-17 -19.3245 31.984)" width="3.2" height="3.2"/>
	<rect x="11.1" y="17.7" width="3.2" height="3.2"/>
	<rect x="14.4" y="14.4" width="3.2" height="3.2"/>
	<rect x="1.5" y="14.5" transform="matrix(6.123234e-17 -1 1 6.123234e-17 -12.9254 19.1831)" width="3.2" height="3.2"/>
	<rect x="7.9" y="20.9" width="3.2" height="3.2"/>
	<rect x="1.5" y="20.9" width="3.2" height="3.2"/>
	<rect x="1.5" y="27.3" width="3.2" height="3.2"/>
	<rect x="7.9" y="14.5" width="3.2" height="3.2"/>
</g>

<g id="arrow-down">
	<polygon points="23.293,18.293 17,24.586 17,4 15,4 15,24.586 8.707,18.293 7.293,19.707 16,28.5 24.707,19.707 	"/>
</g>
<g id="arrow-left">
	<polygon points="28,15 7.414,15 13.707,8.707 12.293,7.293 3.586,16 12.293,24.707 13.707,23.293 7.414,17 28,17 	"/>
</g>
<g id="arrow-right">
	<polygon points="19.707,7.293 18.293,8.707 24.586,15 4,15 4,17 24.586,17 18.293,23.293 19.707,24.707 28.414,16 	"/>
</g>
<g id="arrow-up">
	<polygon points="24.707,12.293 16,3.586 7.293,12.293 8.707,13.707 15,7.414 15,28 17,28 17,7.414 23.293,13.707 	"/>
</g>
<g id="calendar">
	<rect x="13" y="15" width="2" height="2"/>
	<rect x="17" y="15" width="2" height="2"/>
	<rect x="21" y="15" width="2" height="2"/>
	<rect x="9" y="19" width="2" height="2"/>
	<rect x="13" y="19" width="2" height="2"/>
	<rect x="17" y="19" width="2" height="2"/>
	<rect x="21" y="19" width="2" height="2"/>
	<rect x="9" y="23" width="2" height="2"/>
	<rect x="13" y="23" width="2" height="2"/>
	<rect x="17" y="23" width="2" height="2"/>
	<rect x="21" y="23" width="2" height="2"/>
	<path d="M26,5h-3V3h-2v2h-4V3h-2v2h-4V3H9v2H6C4.346,5,3,6.346,3,8v21h26V8C29,6.346,27.654,5,26,5z M6,7h3v2h2V7h4v2h2V7h4v2h2V7
		h3c0.552,0,1,0.448,1,1v3H5V8C5,7.448,5.448,7,6,7z M5,27V13h22v14H5z"/>
</g>
<g id="cart">
	<path d="M25,21H12.721l-0.657-2H25c1.654,0,3-1.346,3-3V5H7.387L6.721,3H2v2h3.279l5.413,16.238C9.13,21.783,8,23.255,8,25
		c0,2.206,1.794,4,4,4s4-1.794,4-4c0-0.732-0.212-1.409-0.556-2h6.113C21.212,23.591,21,24.268,21,25c0,2.206,1.794,4,4,4
		s4-1.794,4-4S27.206,21,25,21z M26,7v9c0,0.552-0.449,1-1,1H11.397L8.054,7H26z M14,25c0,1.103-0.897,2-2,2s-2-0.897-2-2
		s0.897-2,2-2S14,23.897,14,25z M25,27c-1.103,0-2-0.897-2-2s0.897-2,2-2s2,0.897,2,2S26.103,27,25,27z"/>
</g>
<g id="chat">
	<path d="M28,9h-6V6c0-1.103-0.897-2-2-2H4C2.897,4,2,4.897,2,6v11c0,1.103,0.897,2,2,2h1v4h2.413l4.001-4H20c1.103,0,2-0.897,2-2
		v-6h6v11h-3v3.585L21.414,22H11v2h9.586l4.001,4H27v-4h1c1.103,0,2-0.897,2-2V11C30,9.897,29.103,9,28,9z M20,17h-9.5L7,20.585V17
		H4V6h16V17z"/>
</g>
<g id="checkmark">
	<polygon points="12,22.414 6.293,16.707 7.707,15.293 12,19.586 23.293,8.293 24.707,9.707 	"/>
</g>
<g id="close-cancel">
	<polygon points="22.906,10.507 21.492,9.093 16,14.586 10.508,9.093 9.094,10.507 14.586,16 9.094,21.493 10.508,22.907 16,17.414 
		21.492,22.907 22.906,21.493 17.414,16 	"/>
</g>
<g id="dollar">
	<path d="M16,2C8.28,2,2,8.28,2,16s6.28,14,14,14s14-6.28,14-14S23.72,2,16,2z M16,28C9.383,28,4,22.617,4,16S9.383,4,16,4
		s12,5.383,12,12S22.617,28,16,28z"/>
	<path d="M17.061,12.439C17.344,12.723,17.5,13.1,17.5,13.5h2c0-0.936-0.364-1.814-1.025-2.475
		c-0.414-0.414-0.928-0.683-1.475-0.838V8h-2v2.188c-0.546,0.155-1.06,0.424-1.474,0.838c-0.662,0.66-1.026,1.539-1.026,2.506
		c0.012,1.281,0.845,2.451,2.124,2.98l1.987,0.823c0.528,0.219,0.885,0.682,0.89,1.165c0,0.4-0.156,0.777-0.439,1.061
		c-0.567,0.566-1.553,0.566-2.122,0C14.656,19.277,14.5,18.9,14.5,18.5h-2c0,0.936,0.364,1.814,1.025,2.475
		c0.417,0.417,0.925,0.7,1.475,0.864V24h2v-2.162c0.549-0.164,1.058-0.447,1.474-0.864c0.662-0.66,1.026-1.539,1.026-2.506
		c-0.012-1.281-0.845-2.451-2.124-2.981l-1.988-0.823c-0.527-0.219-0.884-0.681-0.889-1.164c0-0.4,0.156-0.777,0.439-1.061
		C15.507,11.873,16.493,11.873,17.061,12.439z"/>
</g>
<g id="down">
	<polygon points="16,21.414 7.293,12.707 8.707,11.293 16,18.586 23.293,11.293 24.707,12.707 	"/>
</g>
<g id="download">
	<polygon points="27,23 27,27 5,27 5,23 3,23 3,29 29,29 29,23 	"/>
	<polygon points="24.707,14.707 23.293,13.293 17,19.586 17,3 15,3 15,19.586 8.707,13.293 7.293,14.707 16,23.5 	"/>
</g>
<g id="endpoint">
	<path d="M16,2C8.28,2,2,8.28,2,16s6.28,14,14,14s14-6.28,14-14S23.72,2,16,2z M17,27.949V23h-2v4.949
		C9.181,27.466,4.534,22.819,4.051,17H9v-2H4.051C4.534,9.181,9.181,4.534,15,4.051V9h2V4.051C22.819,4.534,27.466,9.181,27.949,15
		H23v2h4.949C27.466,22.819,22.819,27.466,17,27.949z"/>
</g>
<g id="euro">
	<path d="M16,2C8.28,2,2,8.28,2,16s6.28,14,14,14s14-6.28,14-14S23.72,2,16,2z M16,28C9.383,28,4,22.617,4,16S9.383,4,16,4
		s12,5.383,12,12S22.617,28,16,28z"/>
	<path d="M14.129,12.462c0.459-0.46,0.995-0.82,1.59-1.072c1.231-0.521,2.66-0.521,3.892,0l0.779-1.842
		c-1.728-0.73-3.723-0.73-5.45,0c-0.833,0.353-1.582,0.857-2.224,1.5c-0.643,0.642-1.147,1.39-1.5,2.224
		c-0.235,0.556-0.387,1.134-0.471,1.726H9v2h1.744c0.085,0.591,0.237,1.17,0.471,1.726c0.353,0.834,0.857,1.582,1.5,2.224
		c0.643,0.643,1.391,1.147,2.225,1.5c0.864,0.365,1.78,0.551,2.725,0.551s1.861-0.186,2.725-0.551l-0.779-1.842
		c-1.231,0.521-2.66,0.521-3.892,0c-0.595-0.252-1.13-0.612-1.59-1.072c-0.459-0.459-0.819-0.993-1.071-1.589
		c-0.129-0.307-0.227-0.623-0.292-0.946H19v-2h-6.235c0.066-0.323,0.163-0.64,0.292-0.946
		C13.309,13.455,13.669,12.921,14.129,12.462z"/>
</g>
<g id="file">
	<path d="M26.121,7.707l-4.828-4.828C20.727,2.312,19.973,2,19.171,2H5v28h22V9.829C27,9.027,26.688,8.273,26.121,7.707z M21,5l3,3
		h-3V5z M7,28V4h12v6h6v18H7z"/>
	<rect x="9" y="13" width="14" height="2"/>
	<rect x="9" y="17" width="14" height="2"/>
	<rect x="9" y="21" width="14" height="2"/>
</g>
<g id="files">
	<rect x="14" y="13" width="10" height="2"/>
	<rect x="14" y="17" width="10" height="2"/>
	<path d="M27.121,7.707l-4.828-4.828C21.727,2.312,20.973,2,20.171,2H10v4H4v24h18v-2H6V8h4v18h18V9.829
		C28,9.027,27.688,8.273,27.121,7.707z M22,5.5L24.586,8H22V5.5z M26,24H12V4h8v6h6V24z"/>
</g>
<g id="fleet">
	<path d="M27.949,11.595l-1.047-0.349l-0.667-4.67C26.025,5.107,24.749,4,23.266,4H18v2h5.266c0.494,0,0.92,0.369,0.989,0.859
		l0.843,5.895l2.219,0.739C27.726,13.629,28,14.01,28,14.441V18c0,0.551-0.448,1-1,1v-0.559c0-1.293-0.824-2.437-2.051-2.846
		l-1.047-0.349l-0.667-4.67C23.025,9.107,21.749,8,20.266,8H15v2h5.266c0.494,0,0.92,0.369,0.989,0.859l0.843,5.895l2.219,0.739
		C24.726,17.629,25,18.01,25,18.441V22c0,0.551-0.448,1-1,1v-0.559c0-1.303-0.875-2.45-2.177-2.853l-1.161-0.359l-0.718-4.664
		C19.72,13.103,18.378,12,16.824,12H12h-0.536H5v14H2v2h5v-2V14h3.925l-2.554,9.487C7.548,24.022,7,24.947,7,26c0,1.654,1.346,3,3,3
		c1.302,0,2.402-0.839,2.816-2h5.369c0.414,1.161,1.514,2,2.816,2c1.654,0,3-1.346,3-3c0-0.352-0.072-0.686-0.184-1H24
		c1.654,0,3-1.346,3-3v-1c1.654,0,3-1.346,3-3v-3.559C30,13.148,29.176,12.005,27.949,11.595z M12.997,14h3.827
		c0.576,0,1.067,0.374,1.144,0.87l0.699,4.54l-4.982,2.313c-0.76,0.353-1.327,0.965-1.601,1.726l-0.111,0.31
		c-0.395-0.348-0.876-0.599-1.414-0.701L12.997,14z M10,27c-0.552,0-1-0.449-1-1s0.448-1,1-1s1,0.449,1,1S10.552,27,10,27z
		 M18.184,25h-4.532l0.315-0.876c0.09-0.25,0.294-0.464,0.56-0.587l5.315-2.468l1.39,0.43C21.691,21.642,22,22.02,22,22.441v0.743
		C21.686,23.072,21.352,23,21,23C19.698,23,18.598,23.839,18.184,25z M21,27c-0.552,0-1-0.449-1-1s0.448-1,1-1s1,0.449,1,1
		S21.552,27,21,27z"/>
</g>
<g id="forklift">
	<path d="M32,19.141c0-1.676-0.833-3.231-2.227-4.16l-0.866-0.577l-1.327-7.297C27.149,4.727,24.918,3,22.5,3H5v23H0v2h7v-2.971V5
		h5.82l-2.688,16.13C8.343,21.529,7,23.122,7,25.029C7,27.234,8.794,29,11,29c1.858,0,3.411-1.251,3.858-2.971h9.284
		C24.589,27.749,26.142,29,28,29c2.206,0,4-1.766,4-3.971c0-0.01-0.003-0.019-0.003-0.029H32V19.141z M30,19.141v2.445
		c-0.591-0.345-1.268-0.556-2-0.556c-1.858,0-3.411,1.28-3.858,3h-9.284c-0.08-0.308-0.198-0.597-0.345-0.871l0.82-1.71
		c0.264-0.529,0.81-1.066,1.184-1.257s11.347-4.079,11.347-4.079l0.8,0.533C29.5,17.202,30,18.135,30,19.141z M25.613,7.463
		l1.251,6.882L23,15.735V5C24.3,5.148,25.375,6.149,25.613,7.463z M14.847,5H21v11.454l-5.237,1.883
		c-0.048,0.017-0.095,0.039-0.141,0.063c-0.9,0.491-1.619,1.236-2.085,2.168l-0.498,1.039c-0.278-0.166-0.578-0.295-0.894-0.391
		L14.847,5z M13,25.029c0,1.103-0.897,2-2,2s-2-0.897-2-2c0-0.005,0.001-0.009,0.001-0.014C9.001,25.009,9,25.005,9,25
		c0-1.105,0.895-2,2-2s2,0.895,2,2c0,0.005-0.001,0.009-0.001,0.014C12.999,25.019,13,25.024,13,25.029z M28,27.029
		c-1.103,0-2-0.897-2-2s0.897-2,2-2s2,0.897,2,2S29.103,27.029,28,27.029z"/>
</g>
<g id="help">
	<rect x="15" y="21" width="2" height="2"/>
	<path d="M13.172,10.172C12.416,10.928,12,11.932,12,13h2c0-0.534,0.208-1.036,0.586-1.414c0.756-0.756,2.072-0.756,2.828,0
		C17.792,11.964,18,12.466,18,13s-0.208,1.036-0.586,1.414S16.534,15,16,15h-1v4h2v-2.125c0.686-0.176,1.314-0.533,1.828-1.047
		C19.584,15.072,20,14.068,20,13s-0.416-2.072-1.172-2.828C17.316,8.66,14.684,8.66,13.172,10.172z"/>
	<path d="M16,2C8.28,2,2,8.28,2,16s6.28,14,14,14s14-6.28,14-14S23.72,2,16,2z M16,28C9.383,28,4,22.617,4,16S9.383,4,16,4
		s12,5.383,12,12S22.617,28,16,28z"/>
</g>
<g id="home">
	<path d="M26.535,12.122L16,1.586L5.465,12.122C4.521,13.066,4,14.322,4,15.657V30h10v-7c0-0.551,0.448-1,1-1h2c0.552,0,1,0.449,1,1
		v7h10V15.657C28,14.322,27.479,13.066,26.535,12.122z M16,4.414L24.585,13H7.415L16,4.414z M26,28h-6v-5c0-1.654-1.346-3-3-3h-2
		c-1.654,0-3,1.346-3,3v5H6V15h20V28z"/>
</g>
<g id="home_filled">
	<path d="M26.535,12.122L16,1.586L5.465,12.122C4.521,13.066,4,14.322,4,15.657V30h10v-7c0-0.551,0.448-1,1-1h2c0.552,0,1,0.449,1,1        v7h10V15.657C28,14.322,27.479,13.066,26.535,12.122z M16,4.414L24.585,13H7.415L16,4.414z M26,28h-6v-5c0-1.654-1.346-3-3-3h-2        c-1.654,0-3,1.346-3,3v5H6V15h20V28z" id="path7" />
	<path
  d="m 11.812717,8.7404609 4.186106,-4.1875051 4.156944,4.1555554 c 2.28632,2.2855558 4.156945,4.1699328 4.156945,4.1875048 0,0.01757 -3.754373,0.03195 -8.34305,0.03195 l -8.3430507,0 4.1861057,-4.1875051 z"
   /><path
  d="m 6.062712,21.490466 0,-6.4375 9.9375,0 9.9375,0 0,6.4375 0,6.4375 -2.929189,0 -2.929187,0 -0.03956,-2.90625 c -0.04299,-3.157942 -0.07514,-3.317184 -0.835081,-4.136448 -0.72096,-0.777236 -1.14199,-0.894802 -3.20448,-0.894802 -2.06249,0 -2.48352,0.117566 -3.20448,0.894802 -0.759945,0.819264 -0.792094,0.978506 -0.835082,4.136448 l -0.03956,2.90625 -2.9291886,0 -2.9291884,0 0,-6.4375 z"
  />
</g>
<g id="home_body">
	<path d="M26.535,12.122L16,1.586L5.465,12.122C4.521,13.066,4,14.322,4,15.657V30h10v-7c0-0.551,0.448-1,1-1h2c0.552,0,1,0.449,1,1        v7h10V15.657C28,14.322,27.479,13.066,26.535,12.122z M16,4.414L24.585,13H7.415L16,4.414z M26,28h-6v-5c0-1.654-1.346-3-3-3h-2        c-1.654,0-3,1.346-3,3v5H6V15h20V28z" id="path7" />
	<path
  d="m 6.062712,21.490466 0,-6.4375 9.9375,0 9.9375,0 0,6.4375 0,6.4375 -2.929189,0 -2.929187,0 -0.03956,-2.90625 c -0.04299,-3.157942 -0.07514,-3.317184 -0.835081,-4.136448 -0.72096,-0.777236 -1.14199,-0.894802 -3.20448,-0.894802 -2.06249,0 -2.48352,0.117566 -3.20448,0.894802 -0.759945,0.819264 -0.792094,0.978506 -0.835082,4.136448 l -0.03956,2.90625 -2.9291886,0 -2.9291884,0 0,-6.4375 z"
  />
</g>
<g id="home_roof">
	<path d="M26.535,12.122L16,1.586L5.465,12.122C4.521,13.066,4,14.322,4,15.657V30h10v-7c0-0.551,0.448-1,1-1h2c0.552,0,1,0.449,1,1        v7h10V15.657C28,14.322,27.479,13.066,26.535,12.122z M16,4.414L24.585,13H7.415L16,4.414z M26,28h-6v-5c0-1.654-1.346-3-3-3h-2        c-1.654,0-3,1.346-3,3v5H6V15h20V28z" id="path7" />
	<path
  d="m 11.812717,8.7404609 4.186106,-4.1875051 4.156944,4.1555554 c 2.28632,2.2855558 4.156945,4.1699328 4.156945,4.1875048 0,0.01757 -3.754373,0.03195 -8.34305,0.03195 l -8.3430507,0 4.1861057,-4.1875051 z"
   />
</g>
<g id="image">
	<path d="M2,5v22h28V5H2z M28,7v12.586l-4.879-4.879c-1.169-1.167-3.071-1.169-4.242,0L14,19.586l-0.879-0.879
		c-1.169-1.167-3.071-1.169-4.242,0L4,23.586V7H28z M5.414,25l4.879-4.878c0.391-0.391,1.023-0.39,1.414,0L14,22.414l6.293-6.292
		c0.391-0.391,1.023-0.39,1.414,0L28,22.414V25H5.414z"/>
	<circle cx="10.5" cy="11.5" r="2.5"/>
</g>
<g id="info">
	<path d="M16,2C8.28,2,2,8.28,2,16s6.28,14,14,14s14-6.28,14-14S23.72,2,16,2z M16,28C9.383,28,4,22.617,4,16S9.383,4,16,4
		s12,5.383,12,12S22.617,28,16,28z"/>
	<rect x="15" y="13" width="2" height="10"/>
	<rect x="15" y="9" width="2" height="2"/>
</g>
<g id="left">
	<polygon points="18.293,24.707 9.586,16 18.293,7.293 19.707,8.707 12.414,16 19.707,23.293 	"/>
</g>
<g id="logout">
	<polygon points="23.668,21.707 29.375,16 23.668,10.293 22.254,11.707 25.547,15 15.961,15 15.961,17 25.547,17 22.254,20.293 	"/>
	<polygon points="23,28 7,28 7,4 23,4 23,8 25,8 25,2 5,2 5,30 25,30 25,24 23,24 	"/>
</g>
<g id="mail">
	<path d="M2,6v20h28V6H2z M26.06,8l-9.45,7.27c-0.359,0.275-0.861,0.275-1.221,0L5.94,8H26.06z M4,24V9.031l10.171,7.824
		c0.538,0.415,1.184,0.622,1.829,0.622s1.291-0.207,1.829-0.622L28,9.031V24H4z"/>
</g>
<g id="maintenance">
	<path d="M25.631,10.901l2.786-2.765L30,5l-2.203-2.194l-3.165,1.571l-2.786,2.767v2.364l-4.465,4.434l-1.803-1.791
		c0.206-0.658,0.315-1.349,0.315-2.057c0-1.845-0.723-3.579-2.037-4.884c-1.545-1.533-3.75-2.247-5.931-1.928L7.601,3.33L5.848,5.07
		L9.49,8.686l-0.493,1.466l-1.478,0.489L3.878,7.026l-1.752,1.74L2.078,9.088c-0.326,2.193,0.382,4.339,1.942,5.889
		C5.333,16.282,7.08,17,8.938,17c0.815,0,1.605-0.146,2.35-0.411l0.226,0.224l-6.826,6.778c-0.563,0.558-0.872,1.301-0.872,2.09
		c0,0.79,0.31,1.533,0.871,2.089l0.171,0.17c0.562,0.558,1.31,0.866,2.105,0.866c0.795,0,1.543-0.308,2.105-0.866l6.825-6.777
		l6.825,6.777c0.58,0.576,1.342,0.864,2.105,0.864c0.763,0,1.525-0.288,2.106-0.865l0.169-0.167
		c0.563-0.558,0.873-1.301,0.873-2.091c0-0.789-0.31-1.532-0.872-2.09l-8.314-8.255l4.465-4.434H25.631z M5.423,13.584
		c-0.982-0.976-1.49-2.287-1.434-3.661l2.994,2.973l3.582-1.185l1.194-3.558L8.766,5.18c1.398-0.04,2.714,0.458,3.687,1.423
		c1.938,1.924,1.938,5.056,0,6.981c-0.938,0.932-2.187,1.445-3.515,1.445C7.61,15.029,6.362,14.516,5.423,13.584z M7.665,26.546
		c-0.375,0.372-1.03,0.369-1.403,0.001L6.09,26.376C5.903,26.19,5.8,25.944,5.8,25.681c0-0.263,0.103-0.51,0.291-0.697l6.826-6.778
		l1.574,1.563L7.665,26.546z M25.986,25.681c0,0.264-0.103,0.51-0.292,0.698l-0.169,0.168c-0.387,0.385-1.016,0.385-1.404,0
		l-6.825-6.777l0,0l-4.187-4.157c0.26-0.195,0.512-0.402,0.746-0.634c0.299-0.297,0.563-0.619,0.799-0.956l11.04,10.963
		C25.883,25.171,25.986,25.418,25.986,25.681z M23.831,7.96l1.977-1.963l1.598-0.794l0.179,0.178l-0.799,1.587L24.81,8.931h-0.978
		V7.96z"/>
</g>
<g id="menu">
	<rect x="8" y="15" width="16" height="2"/>
	<rect x="8" y="21" width="16" height="2"/>
	<rect x="8" y="9" width="16" height="2"/>
</g>
<g id="message">
	<path d="M27,4H5C3.346,4,2,5.346,2,7v14c0,1.654,1.346,3,3,3h11.586l6,6H25v-6h2c1.654,0,3-1.346,3-3V7C30,5.346,28.654,4,27,4z
		 M28,21c0,0.551-0.449,1-1,1h-4v5.586L17.414,22H5c-0.551,0-1-0.449-1-1V7c0-0.551,0.449-1,1-1h22c0.551,0,1,0.449,1,1V21z"/>
	<rect x="9" y="13" width="2" height="2"/>
	<rect x="15" y="13" width="2" height="2"/>
	<rect x="21" y="13" width="2" height="2"/>
</g>
<g id="minus">
	<rect x="8" y="15" width="16" height="2"/>
</g>
<g id="notification">
	<path d="M16,2C8.28,2,2,8.28,2,16s6.28,14,14,14s14-6.28,14-14S23.72,2,16,2z M16,28C9.383,28,4,22.617,4,16S9.383,4,16,4
		s12,5.383,12,12S22.617,28,16,28z"/>
	<rect x="15" y="9" width="2" height="10"/>
	<rect x="15" y="21" width="2" height="2"/>
</g>
<g id="pause">
	<rect x="12" y="9" width="2" height="14"/>
	<rect x="18" y="9" width="2" height="14"/>
	<path d="M16,2C8.28,2,2,8.28,2,16s6.28,14,14,14s14-6.28,14-14S23.72,2,16,2z M16,28C9.383,28,4,22.617,4,16S9.383,4,16,4
		s12,5.383,12,12S22.617,28,16,28z"/>
</g>
<g id="pdf-file">
	<path d="M26.121,7.707l-4.828-4.828C20.727,2.312,19.973,2,19.171,2H5v28h22V9.829C27,9.027,26.688,8.273,26.121,7.707z M21,5l3,3
		h-3V5z M7,28V4h12v6h6v18H7z"/>
	<path d="M11.5,19H10v5h1v-2h0.5c0.827,0,1.5-0.673,1.5-1.5S12.327,19,11.5,19z M11.5,21H11v-1h0.5c0.276,0,0.5,0.224,0.5,0.5
		S11.776,21,11.5,21z"/>
	<polygon points="19,19 19,24 20,24 20,22 22,22 22,21 20,21 20,20 22,20 22,19 	"/>
	<path d="M15.5,19H14v5h1.5c1.378,0,2.5-1.122,2.5-2.5S16.878,19,15.5,19z M15.5,23H15v-3h0.5c0.827,0,1.5,0.673,1.5,1.5
		S16.327,23,15.5,23z"/>
</g>
<g id="person">
	<path d="M16,16c3.309,0,6-2.691,6-6V9c0-3.309-2.691-6-6-6s-6,2.691-6,6v1C10,13.309,12.691,16,16,16z M12,9c0-2.206,1.794-4,4-4
		s4,1.794,4,4v1c0,2.206-1.794,4-4,4s-4-1.794-4-4V9z"/>
	<path d="M28.36,20.295c-7.912-3.06-16.809-3.06-24.721,0L3,20.542V28h26v-7.458L28.36,20.295z M27,25.998H5v-4.075
		c7.065-2.563,14.935-2.563,22,0V25.998z"/>
</g>
<g id="phone">
	<path d="M28.127,21.918l-3.151-3.155c-1.125-1.126-3.089-1.126-4.214,0l-2.507,2.511c-3.202-1.696-5.843-4.34-7.536-7.545
		l2.507-2.51c0.563-0.564,0.873-1.313,0.873-2.11c0-0.797-0.31-1.546-0.873-2.11l-3.151-3.155c-1.125-1.126-3.089-1.126-4.214,0
		L3.136,6.572L3.101,6.926C3.034,7.604,3,8.281,3,8.936C3,20,11.99,29,23.041,29c0.658,0,1.334-0.034,2.009-0.101l0.352-0.035
		l2.724-2.726C28.69,25.573,29,24.824,29,24.027S28.69,22.481,28.127,21.918z M26.722,24.73l-2.219,2.22
		c-0.493,0.04-0.983,0.06-1.462,0.06c-9.956,0-18.054-8.108-18.054-18.075c0-0.478,0.02-0.969,0.06-1.465l2.218-2.22
		c0.374-0.376,1.03-0.375,1.405,0l3.151,3.155c0.188,0.187,0.291,0.437,0.291,0.703c0,0.266-0.103,0.515-0.291,0.703L8.308,13.33
		l0.305,0.635c1.966,4.103,5.307,7.447,9.407,9.417l0.634,0.305l3.513-3.517c0.374-0.376,1.03-0.375,1.405,0l3.151,3.155
		c0.188,0.187,0.291,0.437,0.291,0.703S26.91,24.542,26.722,24.73z"/>
</g>
<g id="pin">
	<path d="M16,7c-2.481,0-4.5,2.019-4.5,4.5S13.519,16,16,16s4.5-2.019,4.5-4.5S18.481,7,16,7z M16,14c-1.378,0-2.5-1.122-2.5-2.5
		S14.622,9,16,9s2.5,1.122,2.5,2.5S17.378,14,16,14z"/>
	<path d="M25.797,9.985c-0.131-0.642-0.328-1.274-0.583-1.879c-0.252-0.594-0.562-1.166-0.922-1.698
		c-0.358-0.53-0.769-1.028-1.22-1.479c-0.452-0.453-0.95-0.863-1.479-1.221c-0.533-0.36-1.104-0.67-1.7-0.923
		c-0.604-0.255-1.236-0.451-1.878-0.583c-1.318-0.269-2.709-0.269-4.029,0c-0.642,0.131-1.274,0.328-1.879,0.583
		c-0.594,0.252-1.166,0.562-1.698,0.922C9.878,4.066,9.38,4.477,8.93,4.929C8.477,5.38,8.066,5.878,7.708,6.408
		c-0.36,0.533-0.67,1.104-0.923,1.7C6.531,8.711,6.334,9.343,6.203,9.986C6.068,10.645,6,11.323,6,12s0.068,1.355,0.203,2.015
		c0.131,0.642,0.328,1.274,0.583,1.879c0.253,0.598,0.564,1.169,0.923,1.7c1.862,2.748,7.464,10.98,7.464,10.98L16,29.789
		l0.827-1.215c0,0,5.602-8.233,7.464-10.98c0.359-0.53,0.67-1.102,0.924-1.701c0.255-0.604,0.451-1.236,0.583-1.878
		C25.932,13.355,26,12.677,26,12S25.932,10.645,25.797,9.985z M23.838,13.613c-0.105,0.513-0.262,1.018-0.466,1.5
		c-0.203,0.479-0.451,0.935-0.737,1.358c-1.418,2.093-5.006,7.368-6.635,9.762c-1.629-2.394-5.217-7.669-6.635-9.762
		c-0.286-0.423-0.534-0.879-0.736-1.357c-0.204-0.483-0.361-0.988-0.466-1.5C8.055,13.086,8,12.543,8,12s0.055-1.086,0.162-1.613
		c0.105-0.513,0.262-1.018,0.466-1.5c0.201-0.476,0.45-0.933,0.738-1.359c0.286-0.424,0.615-0.822,0.978-1.185
		c0.362-0.362,0.76-0.691,1.184-0.977c0.426-0.288,0.883-0.537,1.358-0.737c0.483-0.204,0.988-0.361,1.5-0.466
		C14.914,4.055,15.457,4,16,4s1.086,0.055,1.613,0.162c0.513,0.105,1.018,0.262,1.5,0.466c0.476,0.201,0.933,0.45,1.359,0.738
		c0.424,0.286,0.822,0.615,1.185,0.978c0.362,0.362,0.691,0.76,0.977,1.184c0.288,0.426,0.537,0.883,0.737,1.358
		c0.204,0.483,0.361,0.988,0.466,1.5C23.945,10.914,24,11.457,24,12S23.945,13.086,23.838,13.613z"/>
</g>
<g id="play">
	<path d="M16,2C8.28,2,2,8.28,2,16s6.28,14,14,14s14-6.28,14-14S23.72,2,16,2z M16,28C9.383,28,4,22.617,4,16S9.383,4,16,4
		s12,5.383,12,12S22.617,28,16,28z"/>
	<path d="M13.636,8.228C12.996,7.702,12,8.172,12,9v14c0,0.826,1.003,1.293,1.636,0.772L23,16L13.636,8.228z M14,11.119L20,16
		l-6,4.881V11.119z"/>
</g>
<g id="plus">
	<polygon points="24,15 17,15 17,8 15,8 15,15 8,15 8,17 15,17 15,24 17,24 17,17 24,17 	"/>
</g>
<g id="pound">
	<path d="M16,2C8.28,2,2,8.28,2,16s6.28,14,14,14s14-6.28,14-14S23.72,2,16,2z M16,28C9.383,28,4,22.617,4,16S9.383,4,16,4
		s12,5.383,12,12S22.617,28,16,28z"/>
	<path d="M15.236,19.272L14.918,18H18v-2h-3.583l-0.624-2.492c-0.421-2.015,2.192-3.199,3.501-1.677
		c0.256,0.324,0.459,0.747,0.459,1.169h2c0-2.341-2.243-4.149-4.512-3.858c-2.35,0.301-3.983,2.696-3.351,4.995L12.356,16H11v2
		h1.857l0.44,1.757C13.516,20.633,12.712,21,12,21h-1v2h9v-2h-5C15.422,20.438,15.382,19.857,15.236,19.272z"/>
</g>
<g id="reload">
	<path d="M19,13h9V4h-2v5.404C23.854,6.154,20.179,4,16,4C9.383,4,4,9.383,4,16s5.383,12,12,12c6.279,0,11.489-4.85,12-11h-2
		c-0.503,5.046-4.823,9-10,9c-5.514,0-10-4.486-10-10S10.486,6,16,6c3.691,0,6.913,2.016,8.645,5H19V13z"/>
</g>
<g id="right">
	<polygon points="14.707,24.707 13.293,23.293 20.586,16 13.293,8.707 14.707,7.293 23.414,16 	"/>
</g>
<g id="search">
	<path d="M27.293,22.879l-7.124-7.124C20.697,14.61,21,13.341,21,12c0-4.962-4.038-9-9-9s-9,4.038-9,9s4.038,9,9,9
		c1.341,0,2.61-0.303,3.755-0.831l7.124,7.124c0.585,0.585,1.353,0.877,2.121,0.877s1.536-0.292,2.121-0.877l0.172-0.172
		C28.463,25.952,28.463,24.048,27.293,22.879z M5,12c0-3.86,3.14-7,7-7s7,3.14,7,7s-3.14,7-7,7S5,15.86,5,12z M25.879,25.707
		l-0.172,0.172c-0.39,0.39-1.024,0.39-1.414,0l-6.78-6.78c0.593-0.461,1.125-0.993,1.586-1.586l6.78,6.78
		C26.269,24.683,26.269,25.317,25.879,25.707z"/>
</g>
<g id="service">
	<path d="M11,15c2.206,0,4-1.794,4-4v-1c0-2.206-1.794-4-4-4s-4,1.794-4,4v1C7,13.206,8.794,15,11,15z M9,10c0-1.103,0.897-2,2-2
		s2,0.897,2,2v1c0,1.103-0.897,2-2,2s-2-0.897-2-2V10z"/>
	<path d="M24,15c1.654,0,3-1.346,3-3v-1c0-1.654-1.346-3-3-3s-3,1.346-3,3v1C21,13.654,22.346,15,24,15z M23,11c0-0.552,0.448-1,1-1
		s1,0.448,1,1v1c0,0.552-0.448,1-1,1s-1-0.448-1-1V11z"/>
	<path d="M28,22v-5.047l-0.611-0.259c-2.186-0.922-4.592-0.922-6.777,0L20,16.953V22h-2v-4.508l-0.629-0.252
		c-4.115-1.646-8.627-1.646-12.742,0L4,17.492V22H2v2h2v2h2v-7.139c3.252-1.145,6.748-1.145,10,0L15.984,26H18v-2h12v-2H28z M22,22
		v-3.688c1.309-0.416,2.691-0.416,4,0V22H22z"/>
</g>
<g id="settings">
	<path d="M16,9c-3.86,0-7,3.141-7,7s3.14,7,7,7s7-3.141,7-7S19.86,9,16,9z M16,21c-2.757,0-5-2.243-5-5s2.243-5,5-5s5,2.243,5,5
		S18.757,21,16,21z"/>
	<path style="opacity:0.98;" d="M29.927,14.657c-0.104-0.974-0.883-1.729-1.851-1.797l-1.039-0.075
		c-0.234-0.804-0.556-1.578-0.962-2.314l0.684-0.789c0.639-0.739,0.661-1.814,0.052-2.556c-0.578-0.704-1.23-1.355-1.938-1.939
		c-0.715-0.585-1.847-0.561-2.555,0.055l-0.789,0.684c-0.737-0.406-1.512-0.729-2.315-0.963L19.14,3.924
		c-0.069-0.969-0.825-1.747-1.798-1.851c-0.929-0.1-1.754-0.1-2.684,0c-0.973,0.104-1.729,0.882-1.798,1.851l-0.074,1.038
		c-0.803,0.234-1.578,0.557-2.315,0.963L9.682,5.241C8.974,4.626,7.843,4.6,7.125,5.188C6.418,5.771,5.767,6.422,5.188,7.126
		C4.58,7.867,4.602,8.942,5.242,9.683l0.683,0.788c-0.406,0.736-0.728,1.511-0.962,2.314l-1.037,0.074
		c-0.97,0.068-1.75,0.824-1.853,1.798C2.024,15.125,2,15.563,2,16c0,0.436,0.024,0.874,0.073,1.342
		c0.104,0.973,0.882,1.729,1.852,1.798l1.038,0.074c0.234,0.803,0.556,1.577,0.962,2.314l-0.684,0.789
		c-0.641,0.739-0.663,1.814-0.053,2.556c0.581,0.707,1.233,1.359,1.938,1.939c0.716,0.588,1.849,0.558,2.555-0.055l0.789-0.684
		c0.737,0.406,1.512,0.729,2.315,0.963l0.074,1.038c0.069,0.969,0.825,1.747,1.798,1.851C15.129,29.976,15.568,30,16,30
		s0.871-0.024,1.342-0.074c0.973-0.104,1.729-0.882,1.798-1.851l0.074-1.038c0.803-0.234,1.578-0.557,2.315-0.963l0.787,0.683
		c0.709,0.617,1.84,0.644,2.557,0.055c0.705-0.579,1.357-1.231,1.938-1.938c0.611-0.742,0.588-1.817-0.052-2.557l-0.684-0.789
		c0.406-0.737,0.728-1.512,0.962-2.314l1.039-0.074c0.969-0.069,1.748-0.825,1.851-1.798C29.976,16.874,30,16.436,30,16
		C30,15.563,29.976,15.125,29.927,14.657z M27.933,17.146l-2.501,0.178l-0.161,0.729c-0.238,1.079-0.664,2.105-1.267,3.049
		l-0.402,0.629l1.664,1.874c-0.499,0.606-1.058,1.166-1.639,1.643l-1.897-1.644l-0.629,0.401c-0.943,0.603-1.969,1.028-3.048,1.267
		l-0.729,0.161l-0.192,2.506c-0.744,0.078-1.506,0.083-2.277-0.005l-0.179-2.501l-0.729-0.161c-1.079-0.238-2.105-0.664-3.048-1.267
		l-0.629-0.401l-1.874,1.664c-0.604-0.497-1.164-1.057-1.643-1.639l1.645-1.898l-0.402-0.629c-0.603-0.943-1.029-1.97-1.267-3.049
		l-0.161-0.729l-2.506-0.192C4.023,16.76,4,16.383,4,16c0-0.384,0.023-0.761,0.068-1.146l2.5-0.179l0.161-0.729
		c0.238-1.081,0.665-2.106,1.267-3.049l0.402-0.629L6.733,8.396c0.496-0.604,1.056-1.163,1.639-1.643l1.897,1.644l0.629-0.401
		c0.943-0.603,1.969-1.028,3.048-1.267l0.729-0.161l0.192-2.506c0.744-0.078,1.506-0.083,2.277,0.005l0.179,2.501l0.729,0.161
		c1.079,0.238,2.105,0.664,3.048,1.267l0.629,0.401l1.873-1.664c0.608,0.5,1.167,1.06,1.645,1.64l-1.645,1.897l0.402,0.629
		c0.602,0.942,1.028,1.968,1.267,3.049l0.161,0.729l2.506,0.192C27.977,15.239,28,15.616,28,16
		C28,16.383,27.977,16.76,27.933,17.146z"/>
</g>
<g id="share">
	<polygon points="28,26 4,26 4,10 12,10 12,8 2,8 2,28 30,28 30,15 28,15 	"/>
	<path d="M16,13c0-1.654,1.346-3,3-3h7.586l-3.293,3.293l1.414,1.414L30.414,9l-5.707-5.707l-1.414,1.414L26.586,8H19
		c-2.757,0-5,2.243-5,5v5h2V13z"/>
</g>
<g id="star">
	<path d="M28.401,13.021c-0.237-0.732-0.858-1.255-1.619-1.366l-6.208-0.89l-2.776-5.646C17.458,4.429,16.768,4,16,4
		c-0.768,0-1.458,0.429-1.798,1.119l-2.776,5.645l-6.208,0.89c-0.761,0.111-1.382,0.634-1.619,1.366
		c-0.237,0.732-0.043,1.52,0.508,2.056l4.492,4.384l-1.061,6.191c-0.1,0.585,0.06,1.179,0.44,1.63
		c0.593,0.705,1.646,0.92,2.47,0.485L16,24.815l5.552,2.952C21.842,27.92,22.165,28,22.486,28c0.592,0,1.152-0.262,1.536-0.718
		c0.379-0.451,0.539-1.045,0.44-1.63l-1.061-6.191l4.492-4.383C28.443,14.541,28.638,13.753,28.401,13.021z M21.246,18.761
		l1.233,7.227L16,22.577l-6.485,3.414l1.239-7.23L5.507,13.64l7.251-1.055L16,6.007l3.243,6.578l7.251,1.055L21.246,18.761z"/>
</g>
<g id="stop">
	<path d="M10,22h12V10H10V22z M12,12h8v8h-8V12z"/>
	<path d="M16,2C8.28,2,2,8.28,2,16s6.28,14,14,14s14-6.28,14-14S23.72,2,16,2z M16,28C9.383,28,4,22.617,4,16S9.383,4,16,4
		s12,5.383,12,12S22.617,28,16,28z"/>
</g>
<g id="support">
	<path d="M26.969,12.019C26.503,6.244,21.954,2,16.016,2C10.078,2,5.529,6.242,5.062,12.016C3.913,12.1,3,13.051,3,14.222v6.557
		C3,22.003,3.997,23,5.222,23h1.557C8.003,23,9,22.003,9,20.778v-6.557c0-1.128-0.848-2.053-1.939-2.193
		C7.202,10.521,7.675,9.16,8.406,8h15.219c0.731,1.159,1.204,2.519,1.345,4.025C23.865,12.152,23,13.083,23,14.222v6.557
		c0,1.149,0.88,2.086,2,2.199V24c0,1.71-1.29,3-3,3h-2v-1h-6v4h6v-1h2c2.804,0,5-2.196,5-5v-1.022c1.12-0.113,2-1.05,2-2.199v-6.557
		C29,13.062,28.104,12.118,26.969,12.019z M21.868,6H10.163c1.54-1.266,3.557-2,5.853-2S20.328,4.734,21.868,6z M7,21H5v-7h2V21z
		 M27,21h-2v-7h2V21z"/>
</g>
<g id="tasks-list">
	<rect x="8.998" y="11" width="3" height="2"/>
	<rect x="8.998" y="15" width="3" height="2"/>
	<rect x="8.998" y="19" width="3" height="2"/>
	<polygon points="25,26 5,26 5,6 25,6 25,11 23,11 23,8 7,8 7,24 23,24 23,21 25,21 	"/>
	<polygon points="19,22.414 14.293,17.707 15.707,16.293 19,19.586 27.293,11.293 28.707,12.707 	"/>
</g>
<g id="up">
	<polygon points="23.293,20.707 16,13.414 8.707,20.707 7.293,19.293 16,10.586 24.707,19.293 	"/>
</g>
<g id="upload">
	<polygon points="27,23 27,27 5,27 5,23 3,23 3,29 29,29 29,23 	"/>
	<polygon points="15,6.414 15,23 17,23 17,6.414 23.293,12.707 24.707,11.293 16,2.5 7.293,11.293 8.707,12.707 	"/>
</g>
<g id="users">
	<path d="M12,17c2.206,0,4-1.794,4-4v-1c0-2.206-1.794-4-4-4s-4,1.794-4,4v1C8,15.206,9.794,17,12,17z M10,12c0-1.103,0.897-2,2-2
		s2,0.897,2,2v1c0,1.103-0.897,2-2,2s-2-0.897-2-2V12z"/>
	<path d="M21,12c2.206,0,4-1.794,4-4V7c0-2.206-1.794-4-4-4s-4,1.794-4,4v1C17,10.206,18.794,12,21,12z M19,7c0-1.103,0.897-2,2-2
		s2,0.897,2,2v1c0,1.103-0.897,2-2,2s-2-0.897-2-2V7z"/>
	<path d="M29,16.598l-0.68-0.229c-3.644-1.232-7.523-1.607-11.32-1.169v2.005c3.343-0.419,6.764-0.148,10,0.839V23h-6v-2.402
		l-0.68-0.229c-5.375-1.816-11.265-1.816-16.64,0L3,20.598V28h18v-3h8V16.598z M19,26H5v-3.956c4.544-1.387,9.456-1.387,14,0V26z"/>
</g>
<g id="version">
	<path d="M28,2H13v2h13v16h-2V6H9v2h13v16h-2V10H4v20h16v-4h4v-4h4V2z M18,28H6V12h12V28z"/>
</g>
<g id="video">
	<path d="M2,5v22h28V5H2z M28,25H4V7h24V25z"/>
	<rect x="23" y="21" width="2" height="2"/>
	<rect x="19" y="21" width="2" height="2"/>
	<rect x="15" y="21" width="2" height="2"/>
	<rect x="11" y="21" width="2" height="2"/>
	<rect x="7" y="21" width="2" height="2"/>
	<rect x="23" y="9" width="2" height="2"/>
	<rect x="19" y="9" width="2" height="2"/>
	<rect x="15" y="9" width="2" height="2"/>
	<rect x="11" y="9" width="2" height="2"/>
	<rect x="7" y="9" width="2" height="2"/>
	<polygon points="14,19.5 19,16 14,12.5 	"/>
</g>
<g id="view">
	<path d="M29.849,14.473C29.635,14.127,24.493,6,16,6C7.507,6,2.365,14.127,2.15,14.473L2,14.715v1.57l0.15,0.242
		C2.365,16.873,7.507,25,16,25c8.494,0,13.635-8.127,13.85-8.473L30,16.285v-1.57L29.849,14.473z M28,15.699
		C27.14,16.956,22.658,23,16,23c-6.636,0-11.136-6.045-12-7.302v-0.396C4.864,14.045,9.364,8,16,8c6.636,0,11.136,6.045,12,7.302
		V15.699z"/>
	<path d="M16,10c-3.033,0-5.5,2.468-5.5,5.5S12.967,21,16,21s5.5-2.468,5.5-5.5S19.033,10,16,10z M16,19c-1.93,0-3.5-1.57-3.5-3.5
		S14.07,12,16,12s3.5,1.57,3.5,3.5S17.93,19,16,19z"/>
	<circle cx="16" cy="15.5" r="2"/>
</g>
<g id="world">
	<path d="M16,2C8.28,2,2,8.28,2,16s6.28,14,14,14s14-6.28,14-14S23.72,2,16,2z M10.024,15H4.041c0.174-2.103,0.9-4.049,2.022-5.706
		c1.284,0.534,2.796,0.94,4.409,1.225C10.221,11.961,10.071,13.477,10.024,15z M12.426,10.797C13.604,10.927,14.806,11,16,11
		c1.194,0,2.396-0.073,3.574-0.202c0.218,1.253,0.362,2.66,0.407,4.202H12.02C12.064,13.457,12.208,12.05,12.426,10.797z M10.024,17
		c0.046,1.522,0.197,3.038,0.448,4.48c-1.615,0.286-3.122,0.696-4.406,1.23C4.943,21.052,4.216,19.105,4.041,17H10.024z M12.02,17
		h7.961c-0.045,1.543-0.189,2.95-0.407,4.203C18.396,21.073,17.194,21,16,21s-2.396,0.073-3.574,0.203
		C12.208,19.95,12.064,18.543,12.02,17z M21.976,17h5.983c-0.174,2.105-0.902,4.052-2.025,5.71c-1.285-0.534-2.791-0.945-4.406-1.23
		C21.779,20.038,21.929,18.522,21.976,17z M21.976,15c-0.046-1.523-0.197-3.039-0.449-4.481c1.614-0.285,3.125-0.691,4.409-1.225
		c1.122,1.657,1.848,3.603,2.023,5.706H21.976z M24.621,7.674c-0.978,0.363-2.152,0.676-3.506,0.908
		c-0.397-1.552-0.918-2.95-1.573-4.047C21.497,5.14,23.233,6.238,24.621,7.674z M16,4c1.034,0,2.32,1.754,3.15,4.852
		C18.169,8.947,17.118,9,16,9c-1.118,0-2.168-0.054-3.15-0.15C13.68,5.753,14.966,4,16,4z M12.457,4.535
		c-0.655,1.098-1.176,2.496-1.573,4.048C9.531,8.35,8.356,8.037,7.378,7.675C8.766,6.238,10.502,5.14,12.457,4.535z M7.374,24.321
		c0.978-0.362,2.158-0.673,3.51-0.904c0.397,1.552,0.918,2.951,1.573,4.049C10.5,26.859,8.763,25.76,7.374,24.321z M16,28
		c-1.034,0-2.319-1.753-3.149-4.849C13.833,23.055,14.881,23,16,23s2.167,0.055,3.149,0.151C18.319,26.247,17.034,28,16,28z
		 M19.543,27.465c0.655-1.098,1.177-2.496,1.573-4.049c1.352,0.231,2.532,0.543,3.51,0.904C23.237,25.76,21.5,26.859,19.543,27.465z
		"/>
</g>
<g id="zip-file">
	<rect x="14" y="11" width="2" height="2"/>
	<rect x="14" y="15" width="2" height="2"/>
	<rect x="16" y="13" width="2" height="2"/>
	<path d="M14.414,7l-0.535-0.536C12.935,5.52,11.679,5,10.343,5H2v22h28V7H14.414z M28,25H4V7h6.343
		c0.802,0,1.556,0.312,2.122,0.878L13.586,9H16v2h2V9h10V25z"/>
	<path d="M14,19v2c0,1.105,0.895,2,2,2s2-0.895,2-2v-2v-2h-2v2H14z"/>
</g>
<g id="zoom-in">
	<path d="M27.293,22.879l-7.124-7.124C20.697,14.61,21,13.341,21,12c0-4.962-4.038-9-9-9s-9,4.038-9,9s4.038,9,9,9
		c1.341,0,2.61-0.303,3.755-0.831l7.124,7.124c0.585,0.585,1.353,0.877,2.121,0.877s1.536-0.292,2.121-0.877l0.172-0.172
		C28.463,25.952,28.463,24.048,27.293,22.879z M5,12c0-3.86,3.14-7,7-7s7,3.14,7,7s-3.14,7-7,7S5,15.86,5,12z M25.879,25.707
		l-0.172,0.172c-0.39,0.39-1.024,0.39-1.414,0l-6.78-6.78c0.593-0.461,1.125-0.993,1.586-1.586l6.78,6.78
		C26.269,24.683,26.269,25.317,25.879,25.707z"/>
	<polygon points="13,8 11,8 11,11 8,11 8,13 11,13 11,16 13,16 13,13 16,13 16,11 13,11 	"/>
</g>
<g id="zoom-out">
	<path d="M27.293,22.879l-7.124-7.124C20.697,14.61,21,13.341,21,12c0-4.962-4.038-9-9-9s-9,4.038-9,9s4.038,9,9,9
		c1.341,0,2.61-0.303,3.755-0.831l7.124,7.124c0.585,0.585,1.353,0.877,2.121,0.877s1.536-0.292,2.121-0.877l0.172-0.172
		C28.463,25.952,28.463,24.048,27.293,22.879z M5,12c0-3.86,3.14-7,7-7s7,3.14,7,7s-3.14,7-7,7S5,15.86,5,12z M25.879,25.707
		l-0.172,0.172c-0.39,0.39-1.024,0.39-1.414,0l-6.78-6.78c0.593-0.461,1.125-0.993,1.586-1.586l6.78,6.78
		C26.269,24.683,26.269,25.317,25.879,25.707z"/>
	<rect x="8" y="11" width="8" height="2"/>
</g>
</svg>
