<svg xmlns="http://www.w3.org/2000/svg" xmlns:xlink="http://www.w3.org/1999/xlink" width="136" height="51" viewBox="0 0 136 51">
    <defs>
        <path id="gu4wr1s7xa" d="M0 0L36.739 0 36.739 9.237 0 9.237z"/>
        <path id="g0bsjbi71c" d="M0 50.945L135.462 50.945 135.462 0 0 0z"/>
    </defs>
    <g fill="none" fill-rule="evenodd">
        <g>
            <g transform="translate(-164.000000, -30.000000) translate(164.000000, 30.000000)">
                <path fill="#00152E" d="M64.675 14.303c-6.175 0-11.2 5.01-11.2 11.17 0 6.158 5.025 11.17 11.2 11.17 6.175 0 11.2-5.012 11.2-11.17 0-6.16-5.025-11.17-11.2-11.17m0 26.497c-8.474 0-15.368-6.876-15.368-15.327 0-8.452 6.894-15.328 15.368-15.328s15.368 6.876 15.368 15.328c0 8.451-6.894 15.327-15.368 15.327"/>
                <g transform="translate(46.305770, 0.000000)">
                    <mask id="imw71nyglb" fill="#fff">
                        <use xlink:href="#gu4wr1s7xa"/>
                    </mask>
                    <path fill="#00152E" d="M18.37 0c6.823 0 13.239 2.65 18.064 7.463.406.405.406 1.063 0 1.47-.407.406-1.067.406-1.475 0-4.431-4.42-10.323-6.854-16.59-6.854-6.267 0-12.158 2.434-16.59 6.853-.407.407-1.067.407-1.474 0-.407-.406-.407-1.064 0-1.47C5.13 2.65 11.545 0 18.369 0" mask="url(#imw71nyglb)"/>
                </g>
                <path fill="#00152E" d="M64.675 50.945c6.824 0 13.24-2.65 18.064-7.462.407-.406.407-1.064 0-1.47-.407-.406-1.067-.406-1.474 0-4.431 4.42-10.323 6.853-16.59 6.853-6.267 0-12.159-2.434-16.59-6.853-.407-.406-1.067-.406-1.474 0-.407.406-.407 1.064 0 1.47 4.825 4.812 11.24 7.462 18.064 7.462M0 35.25L0 15.053 12.07 15.053 12.07 18.477 3.809 18.477 3.809 22.838 10.461 22.838 10.461 26.289 3.809 26.289 3.809 31.799 12.902 31.799 12.902 35.25zM15.343 15.026L19.608 15.026 25.67 28.455 31.491 15.026 35.755 15.026 25.589 36.401z"/>
                <mask id="1w27vqenad" fill="#fff">
                    <use xlink:href="#g0bsjbi71c"/>
                </mask>
                <path fill="#00152E" d="M39.729 35.277L43.538 35.277 43.538 15.026 39.729 15.026zM85.624 30.114c1.046.963 2.95 2.194 5.23 2.194 2.066 0 3.166-.963 3.166-2.435 0-4.28-9.013-3.611-9.013-9.79 0-3.612 3.246-5.538 6.625-5.538 3.139 0 5.365 1.926 5.767 2.354l-1.85 2.835c-1.046-1.043-2.522-1.792-3.89-1.792-1.368 0-2.682.588-2.682 1.98 0 3.558 9.093 2.755 9.093 9.898 0 3.13-2.763 5.912-7.51 5.912-2.924 0-5.821-1.739-6.921-2.89l1.985-2.728zM108.184 35.277L108.184 27.064 100.567 15.026 104.832 15.026 110.196 23.747 115.534 15.026 119.745 15.026 111.993 27.064 111.993 35.277zM123.016 30.114c1.046.963 2.95 2.194 5.23 2.194 2.066 0 3.166-.963 3.166-2.435 0-4.28-9.013-3.611-9.013-9.79 0-3.612 3.246-5.538 6.625-5.538 3.139 0 5.365 1.926 5.767 2.354l-1.85 2.835c-1.046-1.043-2.522-1.792-3.89-1.792-1.368 0-2.682.588-2.682 1.98 0 3.558 9.093 2.755 9.093 9.898 0 3.13-2.763 5.912-7.51 5.912-2.924 0-5.821-1.739-6.921-2.89l1.985-2.728z" mask="url(#1w27vqenad)"/>
            </g>
        </g>
    </g>
</svg>
