<svg id="Ebene_1" data-name="Ebene 1" xmlns="http://www.w3.org/2000/svg" width="500" height="252.12613" viewBox="0 0 500 252.12613"><path d="M281.09478,0c6.76882.84955,13.52744,1.79219,20.30815,2.53373C349.59466,7.804,396.03181,19.04024,438.54606,43.22538c18.53276,10.54278,35.15431,23.43885,47.52011,41.17425,18.8516,27.03756,18.617,58.071-.96329,84.65959-16.88818,22.93293-40.03946,37.874-65.40241,49.65773-32.50221,15.10062-66.85214,23.85-102.2975,28.74127a476.49749,476.49749,0,0,1-96.785,3.67983c-56.30182-3.72052-110.71169-14.76255-160.319-43.18012-19.074-10.92654-36.38855-24.19773-48.05187-43.20116C7.19681,156.52809,4.02506,147.15214,0,138.29732V134.491c1.0866.97059,2.779,1.74444,3.16956,2.94108,6.60205,20.23024,20.53241,34.71806,37.1529,46.94512,28.636,21.06635,61.46594,32.40191,95.729,40.19267a419.11906,419.11906,0,0,0,126.89537,8.77362c48.44145-3.86609,95.40541-13.83032,138.26381-38.0848,17.09843-9.67636,32.5064-21.54725,43.79952-37.8719,19.01572-27.48805,16.62943-57.73127-6.48374-84.15826C422.60957,55.02968,402.49917,42.6,380.57447,33.12359a343.935,343.935,0,0,0-126.861-27.97108c-21.5078-.66159-43.07837.75186-64.62219,1.132a7.37447,7.37447,0,0,1-5.49236-2.394c10.43517-.87713,20.87333-1.72161,31.30177-2.67238A18.708,18.708,0,0,0,218.77059,0Z" fill="#203259"/><path d="M85.53577,97.61808c14.6331,1.79663,27.48284.419,36.58092-11.90726,10.473-14.18907,5.9642-29.55286-11.04765-34.17407-8.07749-2.19422-17.05258-1.15758-25.6259-1.43493-1.94369-.06289-3.90757.49559-5.92728.303,13.25266-9.06028,27.55728-13.45208,43.53639-9.71047,12.22332,2.86218,22.50482,8.75835,25.07863,22.04362,2.41439,12.46242-3.7199,22.26076-13.27516,29.54951-5.42979,4.14186-11.97151,6.83318-17.67891,9.99306,15.58821,4.22187,22.46366,16.47522,17.67771,32.57042-5.8309,19.60937-20.50177,29.53732-39.33842,33.43989a96.31533,96.31533,0,0,1-29.50383,1.42641c-14.59962-1.589-22.2135-12.77622-18.08946-26.83793,4.90716-16.732,11.50839-32.976,17.547-49.36862A252.0167,252.0167,0,0,1,75.2082,69.5405a15.92873,15.92873,0,0,1,8.04957-7.31536c2.81041-1.03175,7.49325-.48167,9.67726,1.35158,1.85565,1.55763,2.45047,6.2724,1.64233,9.01543C92.09932,81.00328,88.6783,89.138,85.53577,97.61808ZM89.488,108.11363c-6.07512-1.95578-9.18715,1.56051-11.00191,8.01483-1.58558,5.63923-4.28365,10.9574-6.21215,16.51345-1.71522,4.94155-3.64117,9.92566-4.4167,15.05022-1.26368,8.35013,3.2736,13.05734,11.54983,12.26762,13.977-1.3337,22.90332-10.01144,29.14882-21.62956C117.8244,121.08845,109.93485,108.11456,89.488,108.11363Z" fill="#0e52b0"/><path d="M188.254,160.73111c-9.96454,6.732-20.07714,10.30785-31.642,8.27431-13.13894-2.31036-20.00674-12.01764-17.73873-25.16889,4.33485-25.13591,26.787-44.1538,52.25288-41.88506,9.80781.87378,19.60854-.1293,30.36225,1.19711-2.64812,6.07858-5.05316,11.59508-7.45484,17.113-2.85589,6.56149-5.846,13.06921-8.522,19.703-2.35465,5.83712-3.69606,11.89317.72169,17.40413,4.56111,5.68976,10.6361,5.08869,16.91688,3.35675-5.94217-17.20669.22346-31.44077,11.96782-43.52719,11.4732-11.80741,25.6476-17.935,42.47858-14.48047,11.83208,2.42849,17.65286,11.83083,15.47816,23.56138-4.81093,25.95056-25.77434,43.305-52.31222,43.30583-9.74262.00031-19.48815.14694-29.227-.04457C202.92271,169.37111,194.6873,167.80925,188.254,160.73111Zm-31.148-8.84137c1.21386,1.96571,2.67343,6.80223,5.92472,8.99406,4.47463,3.01652,9.53371.34353,13.06453-3.29219,9.26986-9.54528,13.89691-21.423,15.93994-34.319.72834-4.59741.78255-9.69953-4.37-12.14359-4.99645-2.37-9.51394-.30706-13.36041,3.068C163.73386,123.47233,159.25884,135.68121,157.106,151.88974Zm82.6026-.28112c1.17188,1.911,2.59774,6.8548,5.85437,8.90531,4.38548,2.76129,9.35715.20076,13.13763-3.33993,1.22257-1.145,2.65655-2.33121,3.28356-3.80024,4.1689-9.76709,8.53556-19.4813,12.00889-29.49872,1.58981-4.58515,1.1303-10.14309-3.93714-12.86707-5.10545-2.7444-9.83089-.47006-13.80434,3.20378C246.14031,123.56054,241.55422,135.46965,239.70857,151.60862Z" fill="#0e53b1"/><path d="M336.00033,158.99639c-1.3204,9.60843-2.34736,10.67066-10.54789,10.55045-4.63153-.0679-9.35446-.03543-13.86581-.91641-10.15808-1.98373-15.81072-8.8864-15.35318-19.30366a56.6219,56.6219,0,0,1,3.27685-16.606c6.8216-18.78068,14.1971-37.36053,21.23964-56.06261,1.21216-3.219,2.9484-4.70315,6.54043-4.421,3.96117.31116,7.96582.071,13.019.071a75.38914,75.38914,0,0,1-2.02631,7.57935c-7.09,18.23989-14.35186,36.41377-21.35252,54.68738a58.499,58.499,0,0,0-3.59638,13.352c-1.186,9.31806,4.31671,14.47235,13.556,13.14906C329.75651,160.66543,332.557,159.79747,336.00033,158.99639Z" fill="#0f53b1"/><path d="M383.58585,102.90725c-3.85431,10.174-7.26286,19.14883-10.65456,28.13-4.15688,11.00718-8.52422,21.94291-12.34255,33.066-1.62068,4.721-3.901,6.93846-9.07324,6.27437-3.49243-.44844-7.08962-.08551-11.58944-.08551,1.33112-3.74374,2.3177-6.66128,3.40125-9.54251,6.36-16.91144,13.01143-33.721,18.96335-50.77376,1.93642-5.548,4.513-7.99275,10.40346-7.14658C375.77441,103.27168,378.97113,102.90725,383.58585,102.90725Z" fill="#0e52b0"/><path d="M382.93133,72.3155c5.081-.116,8.6642,3.1269,8.734,7.90468.09347,6.39709-6.93032,13.48852-13.63109,13.37352-4.77328-.08192-8.05447-2.24381-8.18109-7.60274C369.69279,79.20072,376.09405,72.47166,382.93133,72.3155Z" fill="#0f53b1"/></svg>