<?xml version="1.0" encoding="iso-8859-1"?>
<!-- Generator: Adobe Illustrator 18.1.1, SVG Export Plug-In . SVG Version: 6.00 Build 0)  -->
<svg version="1.1" id="Ebene_1" xmlns="http://www.w3.org/2000/svg" xmlns:xlink="http://www.w3.org/1999/xlink" x="0px" y="0px"
	 viewBox="0 0 300 180.001" style="enable-background:new 0 0 300 180.001;" xml:space="preserve">
<g>
	<rect x="0.001" y="0.002" style="fill:#A00020;" width="300" height="180"/>
	<path style="fill:#FFFFFF;" d="M263.835,148.324c1.278-3.651,5.296-11.47,10.169-11.47c0.907,0,1.503,0.435,1.795,1.068
		c0.313,0.675,0.262,1.609-0.073,2.41C274.025,144.411,269.155,147.439,263.835,148.324 M233.737,141.533
		c-0.176,3.456-5.05,14.297-11.158,14.297c-2.668,0-2.793-2.656-2.257-4.996c0.858-3.745,6.041-12.873,10.811-12.873
		C233.092,137.961,233.828,139.747,233.737,141.533 M89.831,153.545c-4.542,2.909-9.111,4.676-13.732,4.676
		c-6.963,0-10.875-2.68-10.875-6.079c0-2.407,2.278-4.579,6.343-4.579C77.003,147.564,83.19,150.39,89.831,153.545 M263.308,150.786
		c3.97-0.636,16.567-2.641,18.34-8.942c1.46-5.184-3.416-7.719-8.393-7.719c-9.917,0-19.95,6.143-22.499,16.244
		c-0.137,0.523-0.228,1.065-0.277,1.613c-3.079,2.641-6.081,4.071-7.754,4.071c-1.834,0-2.069-1.269-1.223-2.909l15.791-30.602
		h-12.856l-8.432,16.332c-0.624-2.282-3.209-4.944-8.889-4.944c-10.802,0-17.111,8.963-19.335,15.054
		c-0.386,1.062-0.633,2.093-0.751,3.082c-3.039,2.586-5.996,3.986-7.651,3.986c-1.831,0-2.069-1.269-1.223-2.909l4.578-8.866
		c2.361-4.573,0.256-9.599-6.072-9.599c-5.494,0-10.528,2.963-16.686,7.46l3.45-6.684h-13.272l-3.909,7.579
		c-4.25,8.233-11.776,13.019-14.836,13.019c-1.831,0-2.099-1.29-1.22-2.909l9.595-17.689h-13.263l-5.342,9.843
		c-1.993,3.672-6.927,9.112-14.988,9.112c-5.448,0-11.049-1.403-16.841-3.189c9.202-5.583,18.505-13.326,27.077-23.233
		c17.026-19.679,28.297-27.145,46.954-27.145c24.09,0,33.088,9.109,33.088,16.627c0,5.781-2.744,7.628-5.004,8.662l0.335,1.953
		c10.684-0.402,16.67-5.662,16.67-11.747c0-10.594-18.203-18.675-46.92-18.675c-24.719,0-46.16,10.214-60.609,25.539
		c-7.845,8.312-15.557,17.452-23.284,24.304c-6.528-1.975-13.309-3.602-20.391-3.602c-13.762,0-22.52,3.472-22.52,9.474
		c0,5.331,9.759,8.635,21.291,8.635c6.528,0,13.92-1.609,21.647-4.825c6.087,2.656,12.436,4.825,18.842,4.825
		c8.417,0,15.472-4.299,20.09-8.282c-2.212,4.546,0.608,8.282,5.692,8.282c4.794,0,12.265-2.808,18.629-8.693l-4.085,7.911h13.275
		l1.174-2.282c2.741-5.337,9.579-17.528,16.296-17.528c1.965,0,2.403,1.813,1.445,3.672l-4.268,8.264
		c-2.461,4.765,0.28,8.656,5.503,8.656c4.368,0,10.86-2.334,16.755-7.202c0.56,4.26,3.775,7.202,8.296,7.202
		c5.241,0,11.487-4.32,13.64-6.353c-0.341,3.064,1.226,6.353,5.695,6.353c3.647,0,10.033-2.388,15.931-7.366
		c0.745,4.101,4.222,7.865,11.903,7.865c6.321,0,14.334-2.732,19.521-6.079l-0.046-2.379c-4.286,2.06-8.174,3.706-12.567,3.706
		C265,157.759,262.475,154.659,263.308,150.786 M165.382,125.301c0.514-3.353-2.066-6.067-5.771-6.067
		c-3.705,0-7.121,2.714-7.639,6.067c-0.517,3.356,2.062,6.07,5.768,6.07C161.443,131.371,164.862,128.657,165.382,125.301"/>
	<g>
		<path style="fill:#FFFFFF;" d="M18.751,33.411V18.737h1.962v13.351h4.595v1.322H18.751z"/>
		<path style="fill:#FFFFFF;" d="M28.864,19.697c-0.619,0-1.109-0.469-1.109-1.024c0-0.576,0.491-1.045,1.109-1.045
			c0.597,0,1.088,0.469,1.088,1.045C29.951,19.228,29.461,19.697,28.864,19.697z M27.925,33.411V21.915h1.877v11.496H27.925z"/>
		<path style="fill:#FFFFFF;" d="M39.432,33.411v-8.254c0-1.066-0.448-2.239-2.41-2.239c-1.066,0-1.578,0.149-2.175,0.405v10.088
			h-1.877V22.512c1.024-0.491,2.367-0.81,4.202-0.81c3.199,0,4.138,1.77,4.138,3.412v8.297H39.432z"/>
		<path style="fill:#FFFFFF;" d="M48.648,33.624c-3.285,0-5.055-2.303-5.055-5.78c0-3.818,2.026-6.036,4.991-6.036
			c0.64,0,1.194,0.085,1.813,0.256v-5.396h1.856v16.145C51.485,33.283,50.248,33.624,48.648,33.624z M50.397,23.109
			c-0.469-0.128-0.938-0.213-1.429-0.213c-2.666,0-3.519,2.303-3.519,4.799c0,2.709,0.938,4.692,3.285,4.692
			c0.768,0,1.301-0.085,1.664-0.32V23.109z"/>
		<path style="fill:#FFFFFF;" d="M56.361,28.377c0.213,2.602,1.429,3.882,3.498,3.882c1.301,0,2.239-0.32,2.837-0.661l0.491,1.237
			c-0.704,0.427-1.92,0.789-3.476,0.789c-3.007,0-5.119-1.898-5.119-5.993c0-3.903,1.92-5.929,4.628-5.929
			c2.751,0,4.415,1.792,4.372,5.631L56.361,28.377z M59.155,22.917c-1.664,0-2.901,1.344-2.858,4.458l5.503-0.832
			C61.799,23.941,60.797,22.917,59.155,22.917z"/>
		<path style="fill:#FFFFFF;" d="M82.954,33.411c-0.021-0.192-1.13-10.984-1.13-10.984c-0.085-0.917-0.107-1.727-0.107-1.727h-0.043
			c0,0-0.149,0.81-0.405,1.727c0,0-3.028,10.728-3.114,10.984h-1.301c-0.064-0.213-3.071-11.005-3.071-11.005
			c-0.235-0.874-0.405-1.706-0.405-1.706h-0.043c0,0-0.021,0.832-0.107,1.706c0,0-1.13,10.792-1.152,11.005h-1.685l1.749-14.674
			h2.069l2.943,10.6C77.43,30.318,77.537,31,77.537,31h0.043c0,0,0.107-0.682,0.384-1.642l3.028-10.621h2.069l1.749,14.674H82.954z"
			/>
		<path style="fill:#FFFFFF;" d="M91.292,33.624c-2.986,0-4.372-1.301-4.372-3.391c0-3.05,2.858-3.946,6.42-4.308v-0.704
			c0-1.77-1.066-2.282-2.538-2.282c-1.109,0-2.133,0.405-2.773,0.725l-0.448-1.109c0.661-0.363,1.941-0.853,3.519-0.853
			c2.133,0,4.01,0.917,4.01,3.732v7.379C94.235,33.304,92.892,33.624,91.292,33.624z M93.34,26.884
			c-2.901,0.363-4.628,0.981-4.628,3.306c0,1.664,1.024,2.346,2.73,2.346c0.725,0,1.429-0.128,1.898-0.384V26.884z"/>
		<path style="fill:#FFFFFF;" d="M101.607,33.517c-2.09,0-2.858-1.493-2.858-2.901v-7.529h-1.322v-1.173h1.322V19.27l1.877-0.576
			v3.221h2.005v1.173h-2.005v7.486c0,0.917,0.405,1.664,1.45,1.664c0.192,0,0.363-0.043,0.554-0.085v1.194
			C102.417,33.411,102.076,33.517,101.607,33.517z"/>
		<path style="fill:#FFFFFF;" d="M106.193,28.377c0.213,2.602,1.429,3.882,3.498,3.882c1.301,0,2.239-0.32,2.837-0.661l0.491,1.237
			c-0.704,0.427-1.92,0.789-3.476,0.789c-3.007,0-5.119-1.898-5.119-5.993c0-3.903,1.92-5.929,4.628-5.929
			c2.751,0,4.415,1.792,4.372,5.631L106.193,28.377z M108.987,22.917c-1.664,0-2.901,1.344-2.858,4.458l5.503-0.832
			C111.631,23.941,110.629,22.917,108.987,22.917z"/>
		<path style="fill:#FFFFFF;" d="M120.801,23.152c-0.938-0.277-2.005-0.192-2.623,0.213v10.045h-1.877V22.533
			c1.131-0.576,2.218-0.874,4.948-0.81L120.801,23.152z"/>
		<path style="fill:#FFFFFF;" d="M124.851,19.697c-0.619,0-1.109-0.469-1.109-1.024c0-0.576,0.491-1.045,1.109-1.045
			c0.597,0,1.088,0.469,1.088,1.045C125.939,19.228,125.448,19.697,124.851,19.697z M123.913,33.411V21.915h1.877v11.496H123.913z"
			/>
		<path style="fill:#FFFFFF;" d="M132.938,33.624c-2.986,0-4.372-1.301-4.372-3.391c0-3.05,2.858-3.946,6.42-4.308v-0.704
			c0-1.77-1.066-2.282-2.538-2.282c-1.109,0-2.133,0.405-2.773,0.725l-0.448-1.109c0.661-0.363,1.941-0.853,3.519-0.853
			c2.133,0,4.01,0.917,4.01,3.732v7.379C135.881,33.304,134.537,33.624,132.938,33.624z M134.985,26.884
			c-2.901,0.363-4.628,0.981-4.628,3.306c0,1.664,1.024,2.346,2.73,2.346c0.725,0,1.429-0.128,1.898-0.384V26.884z"/>
		<path style="fill:#FFFFFF;" d="M139.783,33.411V16.668h1.877v16.742H139.783z"/>
		<path style="fill:#FFFFFF;" d="M157.232,33.411v-6.932h-5.614v6.932h-1.962V18.737h1.962v6.441h5.614v-6.441h1.962v14.674H157.232
			z"/>
		<path style="fill:#FFFFFF;" d="M166.248,33.624c-2.986,0-4.372-1.301-4.372-3.391c0-3.05,2.858-3.946,6.42-4.308v-0.704
			c0-1.77-1.066-2.282-2.538-2.282c-1.109,0-2.133,0.405-2.773,0.725l-0.448-1.109c0.661-0.363,1.941-0.853,3.519-0.853
			c2.133,0,4.01,0.917,4.01,3.732v7.379C169.191,33.304,167.847,33.624,166.248,33.624z M168.295,26.884
			c-2.901,0.363-4.628,0.981-4.628,3.306c0,1.664,1.024,2.346,2.73,2.346c0.725,0,1.429-0.128,1.898-0.384V26.884z"/>
		<path style="fill:#FFFFFF;" d="M179.499,33.411v-8.254c0-1.066-0.448-2.239-2.41-2.239c-1.066,0-1.578,0.149-2.175,0.405v10.088
			h-1.877V22.512c1.024-0.491,2.367-0.81,4.202-0.81c3.199,0,4.138,1.77,4.138,3.412v8.297H179.499z"/>
		<path style="fill:#FFFFFF;" d="M188.688,33.624c-3.285,0-5.055-2.303-5.055-5.78c0-3.818,2.026-6.036,4.991-6.036
			c0.64,0,1.194,0.085,1.813,0.256v-5.396h1.856v16.145C191.524,33.283,190.287,33.624,188.688,33.624z M190.437,23.109
			c-0.469-0.128-0.938-0.213-1.429-0.213c-2.666,0-3.519,2.303-3.519,4.799c0,2.709,0.938,4.692,3.285,4.692
			c0.768,0,1.301-0.085,1.664-0.32V23.109z"/>
		<path style="fill:#FFFFFF;" d="M195.514,33.411V16.668h1.877v16.742H195.514z"/>
		<path style="fill:#FFFFFF;" d="M201.608,19.697c-0.619,0-1.109-0.469-1.109-1.024c0-0.576,0.491-1.045,1.109-1.045
			c0.597,0,1.088,0.469,1.088,1.045C202.695,19.228,202.205,19.697,201.608,19.697z M200.669,33.411V21.915h1.877v11.496H200.669z"
			/>
		<path style="fill:#FFFFFF;" d="M212.202,33.411v-8.254c0-1.066-0.448-2.239-2.41-2.239c-1.066,0-1.578,0.149-2.175,0.405v10.088
			h-1.877V22.512c1.024-0.491,2.367-0.81,4.202-0.81c3.199,0,4.138,1.77,4.138,3.412v8.297H212.202z"/>
		<path style="fill:#FFFFFF;" d="M220.586,38.231c-1.514,0-2.794-0.32-3.562-0.789l0.576-1.258c0.64,0.363,1.642,0.682,2.666,0.682
			c2.111,0,2.922-1.28,2.922-3.007v-0.811c-0.512,0.299-1.301,0.491-2.303,0.491c-2.751,0-4.522-2.175-4.522-5.673
			c0-3.647,1.77-6.164,5.225-6.164c1.599,0,2.751,0.384,3.412,0.81v11.133C225.001,36.546,223.338,38.231,220.586,38.231z
			 M223.188,23.152c-0.427-0.235-0.981-0.32-1.642-0.32c-2.325,0-3.327,1.941-3.327,4.969c0,2.965,0.96,4.628,3.157,4.628
			c0.725,0,1.365-0.192,1.813-0.469V23.152z"/>
	</g>
</g>
</svg>
