<svg width="6" height="9" viewBox="0 0 6 9" xmlns="http://www.w3.org/2000/svg">
<path id="@" d="M5.70996 3.98145C5.72298 3.52897 5.67578 3.11719 5.56836 2.74609C5.46094 2.375 5.30143 2.05599 5.08984 1.78906C4.875 1.52539 4.61296 1.32194 4.30371 1.17871C3.99447 1.03223 3.64779 0.958984 3.26367 0.958984C2.82096 0.958984 2.41569 1.05664 2.04785 1.25195C1.68001 1.44401 1.36263 1.70768 1.0957 2.04297C0.825521 2.38151 0.612305 2.77702 0.456055 3.22949C0.30306 3.68197 0.218424 4.16536 0.202148 4.67969C0.185872 5.19727 0.22819 5.66439 0.329102 6.08105C0.433268 6.49447 0.597656 6.84603 0.822266 7.13574C1.04688 7.42546 1.33171 7.64844 1.67676 7.80469C2.02181 7.96094 2.43197 8.03906 2.90723 8.03906C3.0179 8.03906 3.13346 8.03092 3.25391 8.01465C3.37435 8.00163 3.49479 7.97884 3.61523 7.94629C3.73568 7.91699 3.84961 7.87956 3.95703 7.83398C4.06771 7.78841 4.16536 7.7347 4.25 7.67285L4.09375 7.01367C4.01888 7.05273 3.93424 7.08854 3.83984 7.12109C3.7487 7.15365 3.65267 7.18132 3.55176 7.2041C3.44759 7.23014 3.3418 7.24967 3.23438 7.2627C3.12695 7.27572 3.02279 7.28223 2.92188 7.28223C2.60286 7.28223 2.31966 7.22852 2.07227 7.12109C1.82812 7.01367 1.6263 6.85091 1.4668 6.63281C1.30404 6.41797 1.18359 6.14779 1.10547 5.82227C1.0306 5.49674 1.0013 5.11589 1.01758 4.67969C1.0306 4.24674 1.09082 3.84961 1.19824 3.48828C1.30566 3.1237 1.45378 2.80957 1.64258 2.5459C1.82812 2.28223 2.05273 2.07715 2.31641 1.93066C2.58333 1.78092 2.88281 1.70605 3.21484 1.70605C3.50781 1.70605 3.7666 1.75163 3.99121 1.84277C4.21582 1.93392 4.40299 2.07389 4.55273 2.2627C4.70247 2.4515 4.81152 2.69238 4.87988 2.98535C4.9515 3.27507 4.98079 3.61849 4.96777 4.01562C4.96777 4.27279 4.95312 4.51042 4.92383 4.72852C4.89779 4.94336 4.85872 5.12891 4.80664 5.28516C4.75456 5.44141 4.69271 5.56348 4.62109 5.65137C4.55273 5.73926 4.47624 5.7832 4.3916 5.7832C4.35905 5.7832 4.3265 5.77995 4.29395 5.77344C4.26139 5.76693 4.23372 5.75065 4.21094 5.72461C4.1849 5.69857 4.16536 5.65951 4.15234 5.60742C4.14258 5.55534 4.14095 5.4821 4.14746 5.3877L4.35742 2.81445C4.25651 2.71354 4.12467 2.62728 3.96191 2.55566C3.79915 2.48079 3.59245 2.44336 3.3418 2.44336C3.0944 2.44336 2.87142 2.49544 2.67285 2.59961C2.47428 2.70052 2.30176 2.84538 2.15527 3.03418C2.00879 3.22624 1.88835 3.45573 1.79395 3.72266C1.7028 3.98958 1.63932 4.28906 1.60352 4.62109C1.57747 4.9043 1.58073 5.16146 1.61328 5.39258C1.64909 5.6237 1.71257 5.82064 1.80371 5.9834C1.89486 6.14941 2.01367 6.27637 2.16016 6.36426C2.30664 6.45215 2.47754 6.49609 2.67285 6.49609C2.77051 6.49609 2.86328 6.48145 2.95117 6.45215C3.03906 6.4196 3.12207 6.37565 3.2002 6.32031C3.25228 6.28125 3.30273 6.2373 3.35156 6.18848C3.40039 6.13639 3.44596 6.08105 3.48828 6.02246C3.52409 6.09082 3.56478 6.15267 3.61035 6.20801C3.65592 6.26335 3.70638 6.31055 3.76172 6.34961C3.83008 6.40169 3.90658 6.44076 3.99121 6.4668C4.07585 6.49284 4.16536 6.50586 4.25977 6.50586C4.51042 6.50586 4.72526 6.43262 4.9043 6.28613C5.08333 6.13639 5.23145 5.94108 5.34863 5.7002C5.46257 5.46257 5.54883 5.19401 5.60742 4.89453C5.66602 4.5918 5.7002 4.28743 5.70996 3.98145ZM2.44824 4.62109C2.47103 4.38997 2.50684 4.18652 2.55566 4.01074C2.60775 3.83171 2.67285 3.68197 2.75098 3.56152C2.8291 3.43783 2.92188 3.34505 3.0293 3.2832C3.13997 3.22135 3.26693 3.19043 3.41016 3.19043C3.44922 3.19043 3.48014 3.19206 3.50293 3.19531C3.52572 3.19857 3.54525 3.20182 3.56152 3.20508L3.37598 5.3877L3.37109 5.45117C3.3418 5.49674 3.3125 5.53581 3.2832 5.56836C3.25391 5.60091 3.22461 5.62858 3.19531 5.65137C3.14648 5.68717 3.09603 5.71322 3.04395 5.72949C2.99512 5.74251 2.94629 5.74902 2.89746 5.74902C2.81608 5.74902 2.74447 5.72461 2.68262 5.67578C2.62077 5.62695 2.57031 5.55208 2.53125 5.45117C2.49544 5.36003 2.4694 5.24447 2.45312 5.10449C2.4401 4.96452 2.43848 4.80339 2.44824 4.62109Z"/>
</svg>
