<svg width="32" height="32" viewBox="0 0 32 32" xmlns="http://www.w3.org/2000/svg">
<g>
<g clip-path="url(#clip0_9220_24736)">
<path d="M24.4324 3.0022H7.5364L2.31714 10.269L16.0001 28.998L29.683 10.269L24.4324 3.0022ZM20.6551 14.9552C20.3272 14.9551 20.0006 14.9125 19.6833 14.8285L15.9844 25.5625L12.3168 14.8919C12.0989 14.9245 11.8788 14.9404 11.6585 14.9394C11.4167 14.9425 11.1752 14.9213 10.9375 14.876L14.1663 24.2643L4.40171 10.9023H7.20726C7.18124 10.7188 7.17076 10.5334 7.17591 10.3481C7.1734 10.0934 7.19439 9.83901 7.23861 9.58822H4.41738L8.19469 4.33207H12.1444L11.4704 5.75693H11.6742C12.0725 5.75453 12.4689 5.81325 12.8497 5.93108L13.602 4.33207H18.3824L19.1975 6.02607C19.6223 5.85539 20.0728 5.75902 20.5297 5.7411L19.8558 4.31624H23.7898L27.5671 9.57239H25.0907L25.1377 9.87319C25.1354 9.90566 25.1408 9.93822 25.1534 9.96818C25.1534 10.0473 25.1691 10.1265 25.1691 10.2057V10.2848V10.3165C25.1691 10.5065 25.1534 10.6964 25.1377 10.8706H27.5984L17.8339 24.2643L21.0469 14.9077L20.6551 14.9552Z"/>
<path d="M24.6519 10.3164C24.6474 9.6255 24.4661 8.94749 24.1256 8.34828C23.785 7.74907 23.2968 7.24903 22.7084 6.89675C22.0047 6.44858 21.1892 6.21242 20.3573 6.21598C17.8966 6.21598 16.6741 8.25828 15.6083 10.0631C14.5425 11.8679 13.6178 13.3878 11.784 13.3878C11.1631 13.3904 10.5543 13.2147 10.0285 12.8812C9.58849 12.6155 9.22337 12.2401 8.96814 11.7911C8.71291 11.342 8.57613 10.8342 8.5709 10.3164C8.5709 8.62241 10.0129 7.24505 11.784 7.24505C12.7714 7.24505 13.5707 7.68834 14.3544 8.66991C14.4457 8.77729 14.5734 8.8465 14.7124 8.86406C14.8515 8.88162 14.992 8.84627 15.1067 8.7649C15.1632 8.72752 15.211 8.6783 15.247 8.62059C15.2829 8.56287 15.3062 8.49801 15.3151 8.43041C15.324 8.36282 15.3184 8.29408 15.2987 8.22886C15.279 8.16364 15.2456 8.10348 15.2008 8.05247C14.5582 7.26088 13.5237 6.21598 11.7683 6.21598C9.40159 6.21598 7.47375 8.05247 7.47375 10.3164C7.4782 11.0073 7.65951 11.6853 8.00006 12.2845C8.34062 12.8838 8.82883 13.3838 9.41726 13.7361C10.1209 14.1843 10.9365 14.4204 11.7683 14.4168C14.229 14.4168 15.4515 12.3745 16.5173 10.5697C17.5831 8.7649 18.5079 7.24505 20.3417 7.24505C20.9625 7.24247 21.5713 7.41817 22.0971 7.75166C22.5371 8.01733 22.9023 8.39268 23.1575 8.84177C23.4127 9.29085 23.5495 9.79862 23.5547 10.3164C23.5547 12.0104 22.1128 13.3878 20.3417 13.3878C19.3542 13.3878 18.5549 12.9445 17.7712 11.9629C17.6799 11.8555 17.5523 11.7863 17.4132 11.7688C17.2741 11.7512 17.1336 11.7866 17.0189 11.8679C16.9624 11.9053 16.9146 11.9545 16.8786 12.0122C16.8427 12.07 16.8195 12.1348 16.8105 12.2024C16.8016 12.27 16.8072 12.3388 16.8269 12.404C16.8467 12.4692 16.8801 12.5293 16.9249 12.5804C17.5675 13.3719 18.6019 14.4168 20.3573 14.4168C22.7397 14.4168 24.6519 12.5645 24.6519 10.3164Z"/>
</g>
</g>
<defs>
<clipPath>
<rect width="27.4286" height="26.1224" transform="translate(2.28577 2.93872)"/>
</clipPath>
</defs>
</svg>
