<svg width="86" height="9" viewBox="0 0 86 9" xmlns="http://www.w3.org/2000/svg">
<path d="M4.10352 6.51562L4.51855 8H5.96387L3.67871 0.890625H2.43359L0.104492 8H1.5498L1.96973 6.51562H4.10352ZM2.30664 5.34863L3.05371 2.73145L3.78125 5.34863H2.30664ZM10.0732 5.39258H11.1328C11.5202 5.39258 11.8701 5.33724 12.1826 5.22656C12.4951 5.11589 12.762 4.96126 12.9834 4.7627C13.2015 4.56738 13.3691 4.33464 13.4863 4.06445C13.6068 3.79427 13.667 3.49967 13.667 3.18066C13.667 2.83887 13.6068 2.52799 13.4863 2.24805C13.3691 1.9681 13.2015 1.72721 12.9834 1.52539C12.762 1.32682 12.4951 1.1722 12.1826 1.06152C11.8701 0.947591 11.5202 0.890625 11.1328 0.890625H8.70117V8H10.0732V5.39258ZM10.0732 4.2793V2.00391H11.1328C11.3281 2.00391 11.4974 2.03483 11.6406 2.09668C11.7839 2.15853 11.9043 2.24316 12.002 2.35059C12.0964 2.45801 12.1663 2.58333 12.2119 2.72656C12.2607 2.86979 12.2852 3.02441 12.2852 3.19043C12.2852 3.33366 12.2607 3.47201 12.2119 3.60547C12.1663 3.73568 12.0964 3.85124 12.002 3.95215C11.9043 4.05306 11.7839 4.13281 11.6406 4.19141C11.4974 4.25 11.3281 4.2793 11.1328 4.2793H10.0732ZM18.0791 5.39258H19.1387C19.526 5.39258 19.876 5.33724 20.1885 5.22656C20.501 5.11589 20.7679 4.96126 20.9893 4.7627C21.2074 4.56738 21.375 4.33464 21.4922 4.06445C21.6126 3.79427 21.6729 3.49967 21.6729 3.18066C21.6729 2.83887 21.6126 2.52799 21.4922 2.24805C21.375 1.9681 21.2074 1.72721 20.9893 1.52539C20.7679 1.32682 20.501 1.1722 20.1885 1.06152C19.876 0.947591 19.526 0.890625 19.1387 0.890625H16.707V8H18.0791V5.39258ZM18.0791 4.2793V2.00391H19.1387C19.334 2.00391 19.5033 2.03483 19.6465 2.09668C19.7897 2.15853 19.9102 2.24316 20.0078 2.35059C20.1022 2.45801 20.1722 2.58333 20.2178 2.72656C20.2666 2.86979 20.291 3.02441 20.291 3.19043C20.291 3.33366 20.2666 3.47201 20.2178 3.60547C20.1722 3.73568 20.1022 3.85124 20.0078 3.95215C19.9102 4.05306 19.7897 4.13281 19.6465 4.19141C19.5033 4.25 19.334 4.2793 19.1387 4.2793H18.0791ZM26.0947 6.8916V0.890625H24.7178V8H29.4248V6.8916H26.0947ZM32.9336 0.890625V1.99902H34.2861V6.89648H32.9336V8H37.0449V6.89648H35.6582V1.99902H37.0449V0.890625H32.9336ZM45.5732 5.77344H44.2012C44.1882 5.98828 44.1523 6.1722 44.0938 6.3252C44.0352 6.47819 43.9554 6.60352 43.8545 6.70117C43.7536 6.79883 43.6315 6.87044 43.4883 6.91602C43.3451 6.96159 43.1839 6.98438 43.0049 6.98438C42.8714 6.98438 42.7493 6.96973 42.6387 6.94043C42.5312 6.90788 42.4336 6.85905 42.3457 6.79395C42.2643 6.73535 42.1911 6.66211 42.126 6.57422C42.0641 6.48633 42.0104 6.38542 41.9648 6.27148C41.8997 6.10547 41.8509 5.91178 41.8184 5.69043C41.7891 5.46582 41.7744 5.21191 41.7744 4.92871V3.96191C41.7744 3.75358 41.7842 3.5599 41.8037 3.38086C41.8232 3.19857 41.8542 3.03255 41.8965 2.88281C41.9518 2.69076 42.0251 2.52311 42.1162 2.37988C42.2106 2.2334 42.3245 2.12109 42.458 2.04297C42.5361 1.9974 42.6208 1.96322 42.7119 1.94043C42.8063 1.91764 42.9072 1.90625 43.0146 1.90625C43.2165 1.90625 43.389 1.93392 43.5322 1.98926C43.6787 2.04134 43.8008 2.11947 43.8984 2.22363C43.9928 2.33105 44.0645 2.46452 44.1133 2.62402C44.1654 2.78353 44.1979 2.96908 44.2109 3.18066H45.5781C45.5456 2.80957 45.4674 2.47591 45.3438 2.17969C45.2201 1.88346 45.0508 1.63281 44.8359 1.42773C44.6211 1.22266 44.3607 1.06478 44.0547 0.954102C43.752 0.843424 43.4053 0.788086 43.0146 0.788086C42.751 0.788086 42.5036 0.822266 42.2725 0.890625C42.0446 0.955729 41.8346 1.05013 41.6426 1.17383C41.4277 1.32031 41.2357 1.49935 41.0664 1.71094C40.8971 1.92253 40.7604 2.16341 40.6562 2.43359C40.5651 2.65495 40.4967 2.89583 40.4512 3.15625C40.4056 3.41341 40.3828 3.68522 40.3828 3.97168V4.92871C40.3828 5.2347 40.4072 5.52441 40.4561 5.79785C40.5081 6.07129 40.5814 6.32194 40.6758 6.5498C40.7734 6.77767 40.8923 6.986 41.0322 7.1748C41.1755 7.36361 41.3382 7.52474 41.5205 7.6582C41.7191 7.80143 41.9421 7.91211 42.1895 7.99023C42.4401 8.0651 42.7119 8.10254 43.0049 8.10254C43.376 8.10254 43.7145 8.04883 44.0205 7.94141C44.3265 7.83073 44.5902 7.67448 44.8115 7.47266C45.0329 7.27083 45.2087 7.02669 45.3389 6.74023C45.4723 6.45378 45.5505 6.13151 45.5732 5.77344ZM52.1387 6.51562L52.5537 8H53.999L51.7139 0.890625H50.4688L48.1396 8H49.585L50.0049 6.51562H52.1387ZM50.3418 5.34863L51.0889 2.73145L51.8164 5.34863H50.3418ZM61.873 2.00879V0.890625H56.1406V2.00879H58.3037V8H59.6807V2.00879H61.873ZM64.957 0.890625V1.99902H66.3096V6.89648H64.957V8H69.0684V6.89648H67.6816V1.99902H69.0684V0.890625H64.957ZM77.6211 4.96777V3.93262C77.6211 3.61035 77.5902 3.30599 77.5283 3.01953C77.4697 2.73307 77.3835 2.4694 77.2695 2.22852C77.1654 2.01693 77.04 1.82324 76.8936 1.64746C76.7503 1.47168 76.5827 1.32194 76.3906 1.19824C76.1986 1.06803 75.9821 0.96875 75.7412 0.900391C75.5036 0.828776 75.248 0.792969 74.9746 0.792969C74.7044 0.792969 74.4538 0.827148 74.2227 0.895508C73.9915 0.963867 73.7832 1.06152 73.5977 1.18848C73.4089 1.31868 73.2412 1.47493 73.0947 1.65723C72.9515 1.83952 72.8294 2.04297 72.7285 2.26758C72.6243 2.50521 72.5446 2.764 72.4893 3.04395C72.4372 3.32389 72.4111 3.62012 72.4111 3.93262V4.96777C72.4111 5.26074 72.4339 5.53906 72.4795 5.80273C72.5283 6.06641 72.5983 6.31055 72.6895 6.53516C72.7904 6.7793 72.9157 6.99902 73.0654 7.19434C73.2152 7.38639 73.3844 7.55078 73.5732 7.6875C73.7653 7.81771 73.9785 7.91862 74.2129 7.99023C74.4473 8.06185 74.7028 8.09766 74.9795 8.09766C75.2399 8.09766 75.4824 8.0651 75.707 8C75.9349 7.93815 76.1432 7.85026 76.332 7.73633C76.5404 7.60612 76.7259 7.44336 76.8887 7.24805C77.0514 7.05273 77.1882 6.83789 77.2988 6.60352C77.403 6.36914 77.4827 6.11523 77.5381 5.8418C77.5934 5.5651 77.6211 5.27376 77.6211 4.96777ZM76.2295 3.92285V4.96777C76.2295 5.14355 76.2197 5.31283 76.2002 5.47559C76.1839 5.63835 76.1579 5.78809 76.1221 5.9248C76.0765 6.10059 76.0146 6.25846 75.9365 6.39844C75.8617 6.53516 75.7689 6.64909 75.6582 6.74023C75.5703 6.8151 75.4694 6.87207 75.3555 6.91113C75.2415 6.9502 75.1162 6.96973 74.9795 6.96973C74.8363 6.96973 74.7077 6.94857 74.5938 6.90625C74.4831 6.86393 74.3838 6.80371 74.2959 6.72559C74.2015 6.6377 74.1185 6.52376 74.0469 6.38379C73.9785 6.24056 73.9264 6.08268 73.8906 5.91016C73.8581 5.77344 73.8353 5.62533 73.8223 5.46582C73.8092 5.30632 73.8027 5.1403 73.8027 4.96777V3.92285C73.8027 3.74056 73.8092 3.56641 73.8223 3.40039C73.8385 3.23438 73.863 3.08138 73.8955 2.94141C73.9378 2.75911 73.9964 2.59961 74.0713 2.46289C74.1494 2.32617 74.2438 2.21224 74.3545 2.12109C74.4359 2.05924 74.527 2.01204 74.6279 1.97949C74.7321 1.94694 74.8477 1.93066 74.9746 1.93066C75.1081 1.93066 75.2285 1.94857 75.3359 1.98438C75.4466 2.02018 75.5459 2.07064 75.6338 2.13574C75.7445 2.22363 75.8405 2.33757 75.9219 2.47754C76.0033 2.61426 76.0684 2.77051 76.1172 2.94629C76.1562 3.08626 76.1839 3.23926 76.2002 3.40527C76.2197 3.56803 76.2295 3.74056 76.2295 3.92285ZM85.3535 8V0.890625H83.9766L83.9717 5.45605L82.0088 0.890625H80.627V8H82.0088V3.41504L83.9863 8H85.3535Z"/>
</svg>
