<svg width="32" height="32" viewBox="0 0 32 32" xmlns="http://www.w3.org/2000/svg">
<g>
<g>
<path d="M24.0221 23.4677V8.53065C24.0221 8.3836 23.9637 8.24257 23.8597 8.13859C23.7558 8.03461 23.6147 7.9762 23.4677 7.9762C23.3206 7.9762 23.1796 8.03461 23.0756 8.13859C22.9716 8.24257 22.9132 8.3836 22.9132 8.53065V22.1291L8.92352 8.13936C8.81954 8.03538 8.6785 7.97696 8.53144 7.97696C8.38439 7.97696 8.24335 8.03538 8.13937 8.13936C8.03538 8.24335 7.97696 8.38439 7.97696 8.53144C7.97696 8.6785 8.03538 8.81954 8.13937 8.92352L22.1291 22.9132H8.53065C8.3836 22.9132 8.24257 22.9716 8.13859 23.0756C8.03461 23.1796 7.9762 23.3206 7.9762 23.4677C7.9762 23.6147 8.03461 23.7558 8.13859 23.8597C8.24257 23.9637 8.3836 24.0221 8.53065 24.0221H24.0221V23.4693V23.4677Z"/>
</g>
</g>
</svg>
