<svg width="32" height="32" viewBox="0 0 32 32" xmlns="http://www.w3.org/2000/svg">
<g>
<g>
<path d="M26.9545 15.6072L16.3929 5.04558L16 4.6543L15.6088 5.04558L5.04558 15.6072C4.94055 15.7112 4.88112 15.8526 4.88038 16.0004C4.87964 16.1482 4.93764 16.2903 5.04162 16.3953C5.14561 16.5003 5.28706 16.5597 5.43486 16.5605C5.58266 16.5612 5.7247 16.5032 5.82974 16.3992L15.4456 6.78341V26.5616C15.4456 26.7087 15.504 26.8497 15.608 26.9537C15.712 27.0577 15.853 27.1161 16 27.1161C16.1471 27.1161 16.2881 27.0577 16.3921 26.9537C16.4961 26.8497 16.5545 26.7087 16.5545 26.5616V6.77707L26.1703 16.3929C26.2223 16.4449 26.2841 16.4862 26.352 16.5143C26.42 16.5425 26.4928 16.557 26.5664 16.557C26.6399 16.557 26.7128 16.5425 26.7807 16.5143C26.8487 16.4862 26.9104 16.4449 26.9624 16.3929C27.0144 16.3409 27.0557 16.2792 27.0838 16.2112C27.112 16.1433 27.1265 16.0704 27.1265 15.9969C27.1265 15.9233 27.112 15.8505 27.0838 15.7825C27.0557 15.7146 27.0144 15.6528 26.9624 15.6008L26.9545 15.6072Z"/>
</g>
</g>
</svg>
