<svg width="32" height="32" viewBox="0 0 32 32" xmlns="http://www.w3.org/2000/svg">
<g>
<g clip-path="url(#clip0_9220_24742)">
<path d="M7.10946 24.7318L7.15675 24.7628H9.96266L9.26906 24.4689C7.58762 23.7538 6.156 22.5718 5.1505 21.0684C4.14499 19.5651 3.60949 17.806 3.60995 16.0077C3.61189 14.216 4.14496 12.4636 5.1442 10.964C6.14343 9.46436 7.56566 8.28238 9.23753 7.56209C9.38478 7.48979 9.50182 7.36948 9.56857 7.22179C9.63088 7.0678 9.63088 6.89626 9.56857 6.74227C9.49489 6.59778 9.37229 6.48294 9.22177 6.41744C9.06484 6.3563 8.89003 6.3563 8.7331 6.41744C6.9775 7.17209 5.46141 8.37676 4.34411 9.90489C3.22681 11.433 2.54953 13.2282 2.38342 15.1019C2.21731 16.9756 2.5685 18.8586 3.40011 20.5531C4.23171 22.2476 5.51303 23.691 7.10946 24.7318Z"/>
<path d="M29.6198 25.6753C29.6057 25.6213 29.5845 25.5693 29.5568 25.5207C29.5343 25.4778 29.5019 25.4407 29.4622 25.4124L26.4829 22.4889C26.3637 22.372 26.2021 22.3063 26.0336 22.3063C25.8651 22.3063 25.7035 22.372 25.5843 22.4889C25.4652 22.6058 25.3983 22.7644 25.3983 22.9297C25.3983 23.0951 25.4652 23.2536 25.5843 23.3706L27.476 25.2268H19.074L19.0425 25.2577C18.4577 25.6308 17.8341 25.9419 17.1824 26.1858L16.3627 26.4797H27.4602L25.5686 28.3359C25.4781 28.4246 25.4165 28.5376 25.3916 28.6607C25.3666 28.7837 25.3794 28.9113 25.4284 29.0272C25.4773 29.1431 25.5602 29.2422 25.6665 29.3119C25.7729 29.3815 25.8979 29.4187 26.0257 29.4187C26.1968 29.4171 26.3607 29.3506 26.4829 29.233L29.4622 26.3095L29.5568 26.2013C29.6033 26.1363 29.6355 26.0625 29.6513 25.9847V25.9383C29.6582 25.9128 29.6634 25.887 29.6671 25.861C29.6578 25.7977 29.642 25.7355 29.6198 25.6753Z"/>
<path d="M20.3508 23.5873C21.8754 22.163 22.9367 20.328 23.4011 18.3133C23.8655 16.2985 23.7123 14.194 22.9608 12.2645C22.2093 10.3349 20.8931 8.6666 19.1777 7.46934C17.4622 6.27207 15.4243 5.59937 13.3202 5.53586L15.2118 3.67968C15.2714 3.6221 15.3187 3.55348 15.351 3.4778C15.3833 3.40211 15.4 3.32088 15.4 3.23883C15.4 3.15678 15.3833 3.07555 15.351 2.99987C15.3187 2.92418 15.2714 2.85556 15.2118 2.79799C15.1532 2.73953 15.0832 2.6931 15.0061 2.66141C14.929 2.62972 14.8462 2.6134 14.7626 2.6134C14.679 2.6134 14.5962 2.62972 14.5191 2.66141C14.4419 2.6931 14.372 2.73953 14.3133 2.79799L11.334 5.72148C11.2608 5.79321 11.2066 5.88153 11.1764 5.97864C11.1461 6.07576 11.1407 6.17868 11.1606 6.27834C11.1697 6.38726 11.2081 6.49188 11.2718 6.58154C11.3354 6.6712 11.4222 6.74271 11.5232 6.78879L14.3133 9.54214C14.4356 9.65302 14.5961 9.7146 14.7626 9.7146C14.9291 9.7146 15.0895 9.65302 15.2118 9.54214C15.2719 9.48324 15.3195 9.41331 15.352 9.33634C15.3846 9.25937 15.4013 9.17687 15.4013 9.09356C15.4013 9.01024 15.3846 8.92774 15.352 8.85077C15.3195 8.7738 15.2719 8.70387 15.2118 8.64498L13.3202 6.78879C15.145 6.85628 16.9103 7.44414 18.4 8.48049C19.8897 9.51683 21.0394 10.9567 21.7084 12.6241C22.3773 14.2914 22.5366 16.1139 22.1667 17.8687C21.7968 19.6234 20.9138 21.2344 19.6256 22.5045C18.7538 23.3589 17.719 24.0363 16.5803 24.4981C15.4416 24.96 14.2213 25.1971 12.9892 25.196H4.24042C4.07634 25.1942 3.918 25.2552 3.79904 25.3661C3.73471 25.4226 3.68321 25.4917 3.6479 25.569C3.6126 25.6463 3.59427 25.73 3.59412 25.8147C3.59412 25.9829 3.66221 26.1442 3.78341 26.2632C3.90462 26.3821 4.06901 26.4489 4.24042 26.4489H13.604C16.1297 26.3323 18.5267 25.3211 20.3508 23.6028V23.5873Z"/>
</g>
</g>
<defs>
<clipPath>
<rect width="27.4286" height="26.7755" transform="translate(2.28577 2.6123)"/>
</clipPath>
</defs>
</svg>
