<svg width="32" height="32" viewBox="0 0 32 32" xmlns="http://www.w3.org/2000/svg">
<g>
<g>
<path d="M26.5616 15.4456H6.77707L16.3929 5.82974C16.4969 5.72471 16.5549 5.58266 16.5542 5.43486C16.5534 5.28706 16.494 5.14561 16.389 5.04162C16.2839 4.93764 16.1419 4.87964 15.9941 4.88038C15.8463 4.88112 15.7048 4.94055 15.6008 5.04558L5.04558 15.6072L4.6543 16L5.04558 16.3913L15.6072 26.9529C15.6592 27.0049 15.7209 27.0462 15.7889 27.0743C15.8568 27.1025 15.9297 27.117 16.0032 27.117C16.0768 27.117 16.1496 27.1025 16.2175 27.0743C16.2855 27.0462 16.3472 27.0049 16.3992 26.9529C16.4513 26.9009 16.4925 26.8392 16.5207 26.7712C16.5488 26.7033 16.5633 26.6304 16.5633 26.5569C16.5633 26.4833 16.5488 26.4105 16.5207 26.3425C16.4925 26.2746 16.4513 26.2128 16.3992 26.1608L6.78341 16.545H26.5616C26.7087 16.545 26.8497 16.4866 26.9537 16.3826C27.0577 16.2786 27.1161 16.1376 27.1161 15.9905C27.1161 15.8435 27.0577 15.7025 26.9537 15.5985C26.8497 15.4945 26.7087 15.4361 26.5616 15.4361V15.4456Z"/>
</g>
</g>
</svg>
