<svg width="32" height="32" viewBox="0 0 32 32" xmlns="http://www.w3.org/2000/svg">
<g>
<g>
<path d="M23.8584 8.53065V7.9762H8.68308C8.53903 7.9762 8.40088 8.03461 8.29902 8.13859C8.19717 8.24257 8.13994 8.3836 8.13994 8.53065C8.13994 8.6777 8.19717 8.81873 8.29902 8.92271C8.40088 9.02669 8.53903 9.08511 8.68308 9.08511H22.004L8.29978 23.0764C8.19689 23.1804 8.13867 23.3218 8.13795 23.4696C8.13759 23.5428 8.15135 23.6154 8.17845 23.6831C8.20555 23.7509 8.24546 23.8125 8.2959 23.8645C8.34634 23.9165 8.40632 23.9579 8.47241 23.9862C8.53851 24.0146 8.60942 24.0293 8.68111 24.0297C8.8259 24.0305 8.96504 23.9725 9.06794 23.8685L22.7721 9.87877V23.4756C22.7721 23.6226 22.8294 23.7637 22.9312 23.8677C23.0331 23.9716 23.1712 24.0301 23.3153 24.0301C23.4593 24.0301 23.5975 23.9716 23.6993 23.8677C23.8012 23.7637 23.8584 23.6226 23.8584 23.4756V8.53224V8.53065Z"/>
</g>
</g>
</svg>
