<svg width="32" height="32" viewBox="0 0 32 32" xmlns="http://www.w3.org/2000/svg">
<g>
<g>
<path d="M26.9545 16.3913L27.3474 16L26.9545 15.6088L16.3929 5.04558C16.3415 4.99357 16.2802 4.95222 16.2128 4.92387C16.1453 4.89552 16.0729 4.88075 15.9997 4.88038C15.8519 4.87964 15.7099 4.93764 15.6048 5.04162C15.4998 5.14561 15.4404 5.28706 15.4396 5.43486C15.4389 5.58266 15.4969 5.72471 15.6009 5.82974L25.2167 15.4456H5.43849C5.29144 15.4456 5.15041 15.504 5.04643 15.608C4.94245 15.712 4.88403 15.853 4.88403 16C4.88403 16.1471 4.94245 16.2881 5.04643 16.3921C5.15041 16.4961 5.29144 16.5545 5.43849 16.5545H25.2246L15.6088 26.1703C15.5037 26.2754 15.4447 26.4178 15.4447 26.5664C15.4447 26.7149 15.5037 26.8574 15.6088 26.9624C15.7138 27.0675 15.8563 27.1265 16.0048 27.1265C16.1534 27.1265 16.2958 27.0675 16.4009 26.9624L26.9625 16.4008L26.9545 16.3913Z"/>
</g>
</g>
</svg>
