<svg width="32" height="32" viewBox="0 0 32 32" xmlns="http://www.w3.org/2000/svg">
<g>
<g>
<path d="M25.1294 7.87328C24.5723 7.30442 23.9108 6.85318 23.1829 6.54531C22.4549 6.23744 21.6746 6.07898 20.8867 6.07898C20.0987 6.07898 19.3185 6.23744 18.5905 6.54531C17.8625 6.85318 17.2011 7.30442 16.644 7.87328L6.41277 18.1798C5.59843 19.034 5.1462 20.1811 5.15391 21.373C5.16161 22.5649 5.62862 23.7058 6.45394 24.5489C7.27925 25.392 8.39652 25.8696 9.56409 25.8784C10.7317 25.8871 11.8557 25.4263 12.693 24.5957L23.0344 14.1751C23.5559 13.6192 23.8434 12.877 23.8353 12.1074C23.8272 11.3378 23.5241 10.602 22.991 10.0578C22.4579 9.51356 21.7371 9.20416 20.9832 9.19587C20.2293 9.18759 19.5022 9.48109 18.9578 10.0135L11.4423 17.6856C11.3394 17.7906 11.2816 17.9331 11.2816 18.0816C11.2816 18.2301 11.3394 18.3726 11.4423 18.4776C11.5451 18.5827 11.6847 18.6417 11.8302 18.6417C11.9757 18.6417 12.1153 18.5827 12.2182 18.4776L19.7244 10.7976C20.061 10.4531 20.518 10.2592 20.9947 10.2586C21.4714 10.258 21.9288 10.4508 22.2663 10.7945C22.6037 11.1381 22.7937 11.6046 22.7943 12.0912C22.7948 12.5779 22.606 13.0448 22.2694 13.3893L11.9264 23.8083C11.2937 24.4332 10.4459 24.7793 9.56559 24.7721C8.68529 24.7649 7.843 24.4049 7.22021 23.7698C6.59742 23.1346 6.24398 22.2751 6.23605 21.3765C6.22812 20.4779 6.56634 19.612 7.17783 18.9656L17.409 8.65744C18.3364 7.74228 19.5789 7.23569 20.8687 7.24684C22.1585 7.25799 23.3923 7.78599 24.3044 8.71705C25.2164 9.6481 25.7337 10.9077 25.7446 12.2243C25.7555 13.541 25.2593 14.8094 24.3628 15.7561L16.959 23.3141C16.9081 23.3656 16.8675 23.4268 16.8398 23.4943C16.812 23.5617 16.7975 23.6341 16.7972 23.7073C16.7968 23.7805 16.8106 23.853 16.8377 23.9208C16.8648 23.9885 16.9047 24.0502 16.9551 24.1022C17.057 24.2072 17.1956 24.2667 17.3403 24.2674C17.412 24.2678 17.4831 24.2537 17.5495 24.226C17.6158 24.1984 17.6762 24.1576 17.7272 24.1061L25.1309 16.5465C25.6886 15.9778 26.1311 15.3024 26.4329 14.5589C26.7348 13.8155 26.8902 13.0186 26.8902 12.2139C26.8902 11.4091 26.7348 10.6122 26.4329 9.86881C26.1311 9.12538 25.6886 8.44997 25.1309 7.8812L25.1294 7.87328Z"/>
</g>
</g>
</svg>
