<svg width="32" height="32" viewBox="0 0 32 32" xmlns="http://www.w3.org/2000/svg">
<g>
<g clip-path="url(#clip0_9220_24754)">
<path d="M22.9144 22.5121C22.8518 22.5143 22.7894 22.5037 22.731 22.4809C22.6727 22.4581 22.6198 22.4237 22.5754 22.3797C22.5311 22.3358 22.4964 22.2833 22.4734 22.2254C22.4504 22.1676 22.4397 22.1057 22.4419 22.0436V9.95629C22.4419 9.83204 22.4917 9.71287 22.5803 9.62501C22.6689 9.53715 22.7891 9.48779 22.9144 9.48779C23.0398 9.48779 23.1599 9.53715 23.2486 9.62501C23.3372 9.71287 23.387 9.83204 23.387 9.95629V22.0436C23.3892 22.1057 23.3784 22.1676 23.3555 22.2254C23.3325 22.2833 23.2978 22.3358 23.2535 22.3797C23.2091 22.4237 23.1562 22.4581 23.0978 22.4809C23.0395 22.5037 22.9771 22.5143 22.9144 22.5121Z"/>
<path d="M24.9147 19.3263C24.852 19.3285 24.7896 19.3179 24.7313 19.2951C24.673 19.2723 24.62 19.2379 24.5757 19.194C24.5314 19.15 24.4966 19.0975 24.4737 19.0397C24.4507 18.9818 24.44 18.9199 24.4422 18.8578V13.1421C24.44 13.08 24.4507 13.0181 24.4737 12.9603C24.4966 12.9025 24.5314 12.8499 24.5757 12.806C24.62 12.762 24.673 12.7276 24.7313 12.7048C24.7896 12.6821 24.852 12.6714 24.9147 12.6736C25.04 12.6736 25.1602 12.723 25.2488 12.8108C25.3374 12.8987 25.3872 13.0179 25.3872 13.1421V18.8578C25.3872 18.9821 25.3374 19.1012 25.2488 19.1891C25.1602 19.277 25.04 19.3263 24.9147 19.3263Z"/>
<path d="M26.8834 21.1536C26.8208 21.1557 26.7584 21.1451 26.7 21.1224C26.6417 21.0996 26.5887 21.0651 26.5444 21.0212C26.5001 20.9773 26.4654 20.9247 26.4424 20.8669C26.4194 20.8091 26.4087 20.7472 26.4109 20.6851V11.3151C26.4109 11.1908 26.4607 11.0716 26.5493 10.9838C26.6379 10.8959 26.7581 10.8466 26.8834 10.8466C27.0088 10.8466 27.1289 10.8959 27.2175 10.9838C27.3062 11.0716 27.3559 11.1908 27.3559 11.3151V20.6851C27.3581 20.7472 27.3474 20.8091 27.3245 20.8669C27.3015 20.9247 27.2668 20.9773 27.2224 21.0212C27.1781 21.0651 27.1251 21.0996 27.0668 21.1224C27.0085 21.1451 26.9461 21.1557 26.8834 21.1536Z"/>
<path d="M20.9457 26.6973C20.883 26.6995 20.8206 26.6889 20.7623 26.6661C20.704 26.6434 20.651 26.6089 20.6067 26.565C20.5624 26.521 20.5276 26.4685 20.5047 26.4107C20.4817 26.3529 20.471 26.291 20.4732 26.2288V5.77099C20.4732 5.64674 20.523 5.52757 20.6116 5.43971C20.7002 5.35185 20.8204 5.30249 20.9457 5.30249C21.071 5.30249 21.1912 5.35185 21.2798 5.43971C21.3684 5.52757 21.4182 5.64674 21.4182 5.77099V26.2288C21.4204 26.291 21.4097 26.3529 21.3867 26.4107C21.3638 26.4685 21.329 26.521 21.2847 26.565C21.2404 26.6089 21.1874 26.6434 21.1291 26.6661C21.0708 26.6889 21.0083 26.6995 20.9457 26.6973Z"/>
<path d="M15.0079 17.5304C14.8826 17.5304 14.7624 17.481 14.6738 17.3932C14.5852 17.3053 14.5354 17.1861 14.5354 17.0619V14.938C14.5354 14.8138 14.5852 14.6946 14.6738 14.6067C14.7624 14.5189 14.8826 14.4695 15.0079 14.4695C15.0706 14.4673 15.133 14.478 15.1913 14.5007C15.2496 14.5235 15.3026 14.5579 15.3469 14.6019C15.3912 14.6458 15.426 14.6984 15.4489 14.7562C15.4719 14.814 15.4826 14.8759 15.4804 14.938V17.0619C15.4826 17.124 15.4719 17.1859 15.4489 17.2437C15.426 17.3016 15.3912 17.3541 15.3469 17.398C15.3026 17.442 15.2496 17.4764 15.1913 17.4992C15.133 17.5219 15.0706 17.5326 15.0079 17.5304Z"/>
<path d="M16.9767 18.5143C16.8513 18.5143 16.7312 18.465 16.6425 18.3771C16.5539 18.2892 16.5042 18.1701 16.5042 18.0458V13.9543C16.5042 13.83 16.5539 13.7108 16.6425 13.623C16.7312 13.5351 16.8513 13.4858 16.9767 13.4858C17.0393 13.4836 17.1017 13.4942 17.1601 13.517C17.2184 13.5397 17.2714 13.5742 17.3157 13.6181C17.36 13.6621 17.3947 13.7146 17.4177 13.7724C17.4407 13.8302 17.4514 13.8921 17.4492 13.9543V18.0458C17.4514 18.1079 17.4407 18.1698 17.4177 18.2277C17.3947 18.2855 17.36 18.338 17.3157 18.382C17.2714 18.4259 17.2184 18.4603 17.1601 18.4831C17.1017 18.5059 17.0393 18.5165 16.9767 18.5143Z"/>
<path d="M18.961 23.699C18.8357 23.699 18.7155 23.6496 18.6269 23.5618C18.5383 23.4739 18.4885 23.3547 18.4885 23.2305V8.76944C18.4885 8.64518 18.5383 8.52602 18.6269 8.43816C18.7155 8.3503 18.8357 8.30094 18.961 8.30094C19.0237 8.29876 19.0861 8.30938 19.1444 8.33216C19.2027 8.35493 19.2557 8.38936 19.3 8.43331C19.3444 8.47725 19.3791 8.52977 19.4021 8.5876C19.425 8.64543 19.4357 8.70733 19.4335 8.76944V23.2305C19.4357 23.2926 19.425 23.3545 19.4021 23.4123C19.3791 23.4702 19.3444 23.5227 19.3 23.5666C19.2557 23.6106 19.2027 23.645 19.1444 23.6678C19.0861 23.6905 19.0237 23.7012 18.961 23.699Z"/>
<path d="M13.039 18.7328C12.9763 18.735 12.9139 18.7244 12.8556 18.7016C12.7972 18.6789 12.7443 18.6444 12.6999 18.6005C12.6556 18.5565 12.6209 18.504 12.5979 18.4462C12.575 18.3884 12.5642 18.3265 12.5664 18.2643V13.7355C12.5642 13.6734 12.575 13.6115 12.5979 13.5537C12.6209 13.4958 12.6556 13.4433 12.6999 13.3994C12.7443 13.3554 12.7972 13.321 12.8556 13.2982C12.9139 13.2754 12.9763 13.2648 13.039 13.267C13.1643 13.267 13.2845 13.3164 13.3731 13.4042C13.4617 13.4921 13.5115 13.6112 13.5115 13.7355V18.2643C13.5115 18.3886 13.4617 18.5078 13.3731 18.5956C13.2845 18.6835 13.1643 18.7328 13.039 18.7328Z"/>
<path d="M9.06996 24.1832C9.00731 24.1854 8.94489 24.1748 8.88657 24.152C8.82824 24.1292 8.77527 24.0948 8.73095 24.0508C8.68663 24.0069 8.6519 23.9544 8.62893 23.8965C8.60597 23.8387 8.59525 23.7768 8.59745 23.7147V8.28543C8.59525 8.22332 8.60597 8.16142 8.62893 8.10359C8.6519 8.04577 8.68663 7.99324 8.73095 7.9493C8.77527 7.90535 8.82824 7.87092 8.88657 7.84815C8.94489 7.82537 9.00731 7.81475 9.06996 7.81693C9.1326 7.81475 9.19503 7.82537 9.25335 7.84815C9.31167 7.87092 9.36464 7.90535 9.40896 7.9493C9.45329 7.99324 9.48801 8.04577 9.51098 8.10359C9.53395 8.16142 9.54466 8.22332 9.54246 8.28543V23.7147C9.54466 23.7768 9.53395 23.8387 9.51098 23.8965C9.48801 23.9544 9.45329 24.0069 9.40896 24.0508C9.36464 24.0948 9.31167 24.1292 9.25335 24.152C9.19503 24.1748 9.1326 24.1854 9.06996 24.1832Z"/>
<path d="M11.0387 21.5907C10.9761 21.5929 10.9136 21.5823 10.8553 21.5595C10.797 21.5367 10.744 21.5023 10.6997 21.4584C10.6554 21.4144 10.6207 21.3619 10.5977 21.3041C10.5747 21.2462 10.564 21.1843 10.5662 21.1222V10.8777C10.5662 10.7534 10.616 10.6343 10.7046 10.5464C10.7932 10.4585 10.9134 10.4092 11.0387 10.4092C11.164 10.4092 11.2842 10.4585 11.3728 10.5464C11.4614 10.6343 11.5112 10.7534 11.5112 10.8777V21.1222C11.5134 21.1843 11.5027 21.2462 11.4797 21.3041C11.4568 21.3619 11.422 21.4144 11.3777 21.4584C11.3334 21.5023 11.2804 21.5367 11.2221 21.5595C11.1638 21.5823 11.1014 21.5929 11.0387 21.5907Z"/>
<path d="M28.868 18.3893C28.7427 18.3893 28.6225 18.34 28.5339 18.2521C28.4453 18.1643 28.3955 18.0451 28.3955 17.9208V14.0791C28.3955 13.9549 28.4453 13.8357 28.5339 13.7479C28.6225 13.66 28.7427 13.6106 28.868 13.6106C28.9307 13.6084 28.9931 13.6191 29.0514 13.6418C29.1097 13.6646 29.1627 13.6991 29.207 13.743C29.2514 13.7869 29.2861 13.8395 29.309 13.8973C29.332 13.9551 29.3427 14.017 29.3405 14.0791V17.9208C29.3427 17.9829 29.332 18.0448 29.309 18.1027C29.2861 18.1605 29.2514 18.213 29.207 18.257C29.1627 18.3009 29.1097 18.3353 29.0514 18.3581C28.9931 18.3809 28.9307 18.3915 28.868 18.3893Z"/>
<path d="M3.11635 17.5304C3.0537 17.5326 2.99128 17.5219 2.93295 17.4992C2.87463 17.4764 2.82166 17.442 2.77734 17.398C2.73301 17.3541 2.69829 17.3016 2.67532 17.2437C2.65235 17.1859 2.64164 17.124 2.64384 17.0619V14.938C2.64164 14.8759 2.65235 14.814 2.67532 14.7562C2.69829 14.6984 2.73301 14.6458 2.77734 14.6019C2.82166 14.5579 2.87463 14.5235 2.93295 14.5007C2.99128 14.478 3.0537 14.4673 3.11635 14.4695C3.17899 14.4673 3.24141 14.478 3.29974 14.5007C3.35806 14.5235 3.41103 14.5579 3.45535 14.6019C3.49968 14.6458 3.5344 14.6984 3.55737 14.7562C3.58034 14.814 3.59105 14.8759 3.58885 14.938V17.0619C3.59105 17.124 3.58034 17.1859 3.55737 17.2437C3.5344 17.3016 3.49968 17.3541 3.45535 17.398C3.41103 17.442 3.35806 17.4764 3.29974 17.4992C3.24141 17.5219 3.17899 17.5326 3.11635 17.5304Z"/>
<path d="M5.11659 18.7328C5.05395 18.735 4.99152 18.7244 4.9332 18.7016C4.87487 18.6789 4.8219 18.6444 4.77758 18.6005C4.73326 18.5565 4.69853 18.504 4.67556 18.4462C4.6526 18.3884 4.64188 18.3265 4.64408 18.2643V13.7355C4.64188 13.6734 4.6526 13.6115 4.67556 13.5537C4.69853 13.4958 4.73326 13.4433 4.77758 13.3994C4.8219 13.3554 4.87487 13.321 4.9332 13.2982C4.99152 13.2754 5.05395 13.2648 5.11659 13.267C5.24191 13.267 5.36209 13.3164 5.4507 13.4042C5.53932 13.4921 5.5891 13.6112 5.5891 13.7355V18.2643C5.5891 18.3886 5.53932 18.5078 5.4507 18.5956C5.36209 18.6835 5.24191 18.7328 5.11659 18.7328Z"/>
<path d="M7.10121 21.5907C7.03857 21.5929 6.97614 21.5823 6.91782 21.5595C6.85949 21.5367 6.80652 21.5023 6.7622 21.4584C6.71788 21.4144 6.68315 21.3619 6.66018 21.3041C6.63722 21.2462 6.6265 21.1843 6.6287 21.1222V10.8777C6.6287 10.7534 6.67848 10.6343 6.76709 10.5464C6.85571 10.4585 6.97589 10.4092 7.10121 10.4092C7.22653 10.4092 7.34671 10.4585 7.43532 10.5464C7.52394 10.6343 7.57372 10.7534 7.57372 10.8777V21.1222C7.57372 21.2465 7.52394 21.3656 7.43532 21.4535C7.34671 21.5414 7.22653 21.5907 7.10121 21.5907Z"/>
</g>
</g>
<defs>
<clipPath>
<rect width="26.7755" height="21.551" transform="translate(2.6123 5.22449)"/>
</clipPath>
</defs>
</svg>
