<svg width="32" height="32" viewBox="0 0 32 32" xmlns="http://www.w3.org/2000/svg">
<g>
<g>
<path d="M9.64751 24.4419H6.65345C6.35246 24.4419 6.099 24.1936 6.099 23.8988V19.1036C6.099 18.8088 6.35246 18.5605 6.65345 18.5605H9.64751C9.9485 18.5605 10.202 18.8088 10.202 19.1036V23.8988C10.202 24.2092 9.96435 24.4419 9.64751 24.4419ZM7.20791 23.3557H9.09306V19.6468H7.20791V23.3557ZM15.2079 24.4419H12.2139C11.9129 24.4419 11.6594 24.1936 11.6594 23.8988V12.8653C11.6594 12.5704 11.9129 12.3222 12.2139 12.3222H15.2079C15.5089 12.3222 15.7624 12.5704 15.7624 12.8653V23.8988C15.7624 24.2092 15.5247 24.4419 15.2079 24.4419ZM12.7683 23.3557H14.6535V13.4084H12.7683V23.3557ZM20.7683 24.4419H17.7742C17.4733 24.4419 17.2198 24.1936 17.2198 23.8988V14.9913C17.2198 14.6965 17.4733 14.4482 17.7742 14.4482H20.7683C21.0693 14.4482 21.3228 14.6965 21.3228 14.9913V23.8988C21.3228 24.2092 21.0851 24.4419 20.7683 24.4419ZM18.3287 23.3557H20.2139V15.5344H18.3287V23.3557ZM26.3287 24.4575H23.3346C23.0337 24.4575 22.7802 24.2092 22.7802 23.9143V8.65984C22.7802 8.36499 23.0337 8.1167 23.3346 8.1167H26.3287C26.6297 8.1167 26.8832 8.36499 26.8832 8.65984V23.9143C26.8832 24.2092 26.6455 24.4575 26.3287 24.4575ZM23.8891 23.3712H25.7742V9.20298H23.8891V23.3712Z"/>
<path d="M27.9921 27.0335H4.0713C3.77031 27.0335 3.51685 26.7852 3.51685 26.4904V6.02178C3.51685 5.72693 3.77031 5.47864 4.0713 5.47864C4.37229 5.47864 4.62576 5.72693 4.62576 6.02178V25.9473H27.9921C28.2931 25.9473 28.5465 26.1956 28.5465 26.4904C28.5465 26.7852 28.2931 27.0335 27.9921 27.0335Z"/>
</g>
</g>
</svg>
