<svg width="32" height="32" viewBox="0 0 32 32" xmlns="http://www.w3.org/2000/svg">
<g>
<g>
<g>
<path d="M9.53834 12.5487C9.39129 12.5487 9.25026 12.6059 9.14628 12.7078C9.0423 12.8096 8.98389 12.9478 8.98389 13.0918V19.1564C8.98389 19.3004 9.0423 19.4386 9.14628 19.5404C9.25026 19.6423 9.39129 19.6995 9.53834 19.6995C9.68539 19.6995 9.82642 19.6423 9.9304 19.5404C10.0344 19.4386 10.0928 19.3004 10.0928 19.1564V13.0918C10.0928 12.9478 10.0344 12.8096 9.9304 12.7078C9.82642 12.6059 9.68539 12.5487 9.53834 12.5487Z"/>
<path d="M26.4413 13.5807L24.4753 13.5667V10.0612H4.88403V21.9389H24.4753V18.4193H26.4381C26.5851 18.4193 26.7262 18.3621 26.8302 18.2602C26.9341 18.1584 26.9925 18.0202 26.9925 17.8762V14.1238C26.9926 13.9803 26.9346 13.8426 26.8313 13.7409C26.728 13.6391 26.5878 13.5815 26.4413 13.5807ZM5.99294 20.8526V11.1474H23.3664V14.0711C23.3656 14.083 23.3656 14.0949 23.3664 14.1068V17.8762C23.3672 17.9069 23.3704 17.9375 23.3759 17.9677V20.8526H5.99294ZM25.8836 17.333H24.4753V14.6546H25.8836V17.333Z"/>
<path d="M14.6599 12.5487C14.5129 12.5487 14.3718 12.6059 14.2679 12.7078C14.1639 12.8096 14.1055 12.9478 14.1055 13.0918V19.1564C14.1055 19.3004 14.1639 19.4386 14.2679 19.5404C14.3718 19.6423 14.5129 19.6995 14.6599 19.6995C14.807 19.6995 14.948 19.6423 15.052 19.5404C15.156 19.4386 15.2144 19.3004 15.2144 19.1564V13.0918C15.2144 12.9478 15.156 12.8096 15.052 12.7078C14.948 12.6059 14.807 12.5487 14.6599 12.5487Z"/>
</g>
</g>
</g>
</svg>
