<svg width="32" height="32" viewBox="0 0 32 32" xmlns="http://www.w3.org/2000/svg">
<g>
<g>
<g>
<path d="M9.67009 12.5487C9.52604 12.5487 9.38789 12.6059 9.28604 12.7078C9.18418 12.8096 9.12695 12.9478 9.12695 13.0918V19.1564C9.12695 19.3004 9.18418 19.4386 9.28604 19.5405C9.38789 19.6423 9.52604 19.6995 9.67009 19.6995C9.81414 19.6995 9.95229 19.6423 10.0542 19.5405C10.156 19.4386 10.2132 19.3004 10.2132 19.1564V13.0918C10.2134 13.0205 10.1995 12.9497 10.1723 12.8838C10.1451 12.8178 10.1051 12.7578 10.0546 12.7073C10.0041 12.6569 9.94418 12.6169 9.87819 12.5896C9.8122 12.5624 9.74148 12.5485 9.67009 12.5487Z"/>
<path d="M26.2281 13.5807L24.3023 13.5667V10.0612H5.11084V21.9389H24.3023V18.4193H26.225C26.3691 18.4193 26.5072 18.3621 26.6091 18.2602C26.7109 18.1584 26.7682 18.0202 26.7682 17.8762V14.1238C26.7682 13.9803 26.7114 13.8426 26.6102 13.7409C26.509 13.6391 26.3716 13.5815 26.2281 13.5807ZM6.19712 20.8526V11.1474H23.216V14.0711C23.2153 14.083 23.2153 14.0949 23.216 14.1068V17.8762C23.2168 17.9069 23.2199 17.9375 23.2253 17.9677V20.8526H6.19712ZM25.6819 17.333H24.3023V14.6546H25.6819V17.333Z"/>
</g>
</g>
</g>
</svg>
