<svg width="32" height="32" viewBox="0 0 32 32" xmlns="http://www.w3.org/2000/svg">
<g>
<g>
<path d="M26.4413 13.5807L24.4753 13.5667V10.0612H4.88403V21.9389H24.4753V18.4193H26.4381C26.5851 18.4193 26.7262 18.3621 26.8302 18.2602C26.9341 18.1584 26.9926 18.0202 26.9926 17.8762V14.1238C26.9926 13.9803 26.9346 13.8426 26.8313 13.7409C26.728 13.6391 26.5878 13.5815 26.4413 13.5807ZM5.99294 20.8526V11.1474H23.3664V14.0711C23.3656 14.083 23.3656 14.0949 23.3664 14.1068V17.8762C23.3671 17.9069 23.3703 17.9375 23.3759 17.9677V20.8526H5.99294ZM25.8836 17.333H24.4753V14.6546H25.8836V17.333Z"/>
</g>
</g>
</svg>
