<svg width="32" height="32" viewBox="0 0 32 32" xmlns="http://www.w3.org/2000/svg">
<g>
<g clip-path="url(#clip0_9220_24764)">
<path d="M26.2059 13.6337H24.2971V10.153H5.25525V21.847H24.2971V18.3663H26.2059C26.3488 18.3663 26.4859 18.31 26.5869 18.2098C26.6879 18.1096 26.7447 17.9736 26.7447 17.8319V14.168C26.7447 14.0263 26.6879 13.8904 26.5869 13.7902C26.4859 13.69 26.3488 13.6337 26.2059 13.6337ZM6.3328 20.7783V11.2216H23.2196V17.8472C23.2171 17.8885 23.2223 17.9299 23.235 17.9693V20.7783H6.3328ZM25.6671 17.2976H24.2971V14.6871H25.6671V17.2976Z"/>
<path d="M20.1563 14.7177L15.0148 12.901H14.984C14.8158 12.8572 14.6378 12.8679 14.476 12.9315L14.3529 12.9621C14.2574 13.0149 14.1782 13.0926 14.124 13.1867C14.0697 13.2809 14.0424 13.388 14.045 13.4964V15.1146L8.50333 14.6261L8.45715 14.7635L15.923 19.0992H15.9538C16.045 19.1424 16.1453 19.1634 16.2463 19.1602C16.3979 19.1552 16.5459 19.1133 16.6773 19.0381C16.7707 18.9829 16.8481 18.9047 16.9021 18.811C16.956 18.7174 16.9846 18.6116 16.9852 18.5038V17.313L19.6791 18.1832C19.8441 18.2368 20.0221 18.2368 20.1871 18.1832L20.3102 18.1374C20.4069 18.0859 20.487 18.0085 20.5415 17.914C20.5959 17.8196 20.6225 17.7118 20.6181 17.6031V15.3436C20.6097 15.2064 20.5617 15.0744 20.4798 14.9635C20.3979 14.8525 20.2856 14.7672 20.1563 14.7177ZM19.9254 15.3436V17.6031L16.2925 16.4428V18.5343H16.2617L11.0279 15.4963L14.7377 15.8169V13.5117H14.7685L19.8946 15.3436H19.9254Z"/>
</g>
</g>
<defs>
<clipPath>
<rect width="21.551" height="11.7551" transform="translate(5.22449 10.1224)"/>
</clipPath>
</defs>
</svg>
