<svg width="32" height="32" viewBox="0 0 32 32" xmlns="http://www.w3.org/2000/svg">
<g>
<g>
<path d="M22.145 10.6392L15.4456 5.33862V14.6614L11.0797 10.297C10.9746 10.192 10.8322 10.133 10.6836 10.133C10.5351 10.133 10.3926 10.192 10.2876 10.297C10.1825 10.4021 10.1235 10.5445 10.1235 10.6931C10.1235 10.8416 10.1825 10.9841 10.2876 11.0891L15.2159 16L10.2971 20.9204C10.1931 21.0254 10.1351 21.1675 10.1358 21.3153C10.1366 21.4631 10.196 21.6045 10.301 21.7085C10.4061 21.8125 10.5481 21.8705 10.6959 21.8698C10.8437 21.869 10.9852 21.8096 11.0892 21.7046L15.4456 17.3386V26.6614L22.145 21.3608L16.7921 16L22.145 10.6392ZM16.5545 7.62932L20.4801 10.7343L16.5545 14.6614V7.62932ZM20.4801 21.2626L16.5545 24.3675V17.3386L20.4801 21.2626Z"/>
</g>
</g>
</svg>
