<svg width="32" height="32" viewBox="0 0 32 32" xmlns="http://www.w3.org/2000/svg">
<g>
<g>
<g>
<path d="M10.9969 15.9082H14.7586C14.882 15.9082 15.0004 15.8581 15.0877 15.769C15.1751 15.6799 15.2241 15.559 15.2241 15.4329C15.2241 15.3069 15.1751 15.186 15.0877 15.0969C15.0004 15.0078 14.882 14.9577 14.7586 14.9577H10.9969C10.8734 14.9577 10.755 15.0078 10.6677 15.0969C10.5804 15.186 10.5314 15.3069 10.5314 15.4329C10.5314 15.559 10.5804 15.6799 10.6677 15.769C10.755 15.8581 10.8734 15.9082 10.9969 15.9082ZM17.5674 21.6761H21.3337C21.4571 21.6761 21.5755 21.626 21.6628 21.5369C21.7502 21.4478 21.7992 21.3269 21.7992 21.2009C21.7992 21.0748 21.7502 20.9539 21.6628 20.8648C21.5755 20.7757 21.4571 20.7256 21.3337 20.7256H17.5674C17.4439 20.7256 17.3255 20.7757 17.2382 20.8648C17.1509 20.9539 17.1018 21.0748 17.1018 21.2009C17.1018 21.3269 17.1509 21.4478 17.2382 21.5369C17.3255 21.626 17.4439 21.6761 17.5674 21.6761ZM17.5674 23.8923H21.3337C21.4571 23.8923 21.5755 23.8423 21.6628 23.7531C21.7502 23.664 21.7992 23.5431 21.7992 23.4171C21.7992 23.291 21.7502 23.1702 21.6628 23.081C21.5755 22.9919 21.4571 22.9418 21.3337 22.9418H17.5674C17.4439 22.9418 17.3255 22.9919 17.2382 23.081C17.1509 23.1702 17.1018 23.291 17.1018 23.4171C17.1018 23.5431 17.1509 23.664 17.2382 23.7531C17.3255 23.8423 17.4439 23.8923 17.5674 23.8923ZM14.7477 21.6682H13.3371V20.2282C13.3371 20.1021 13.288 19.9813 13.2007 19.8921C13.1134 19.803 12.995 19.7529 12.8715 19.7529C12.7481 19.7529 12.6296 19.803 12.5423 19.8921C12.455 19.9813 12.406 20.1021 12.406 20.2282V21.6682H10.9969C10.8734 21.6682 10.755 21.7183 10.6677 21.8074C10.5804 21.8965 10.5314 22.0174 10.5314 22.1434C10.5314 22.2695 10.5804 22.3904 10.6677 22.4795C10.755 22.5686 10.8734 22.6187 10.9969 22.6187H12.406V24.0571C12.406 24.1831 12.455 24.304 12.5423 24.3931C12.6296 24.4823 12.7481 24.5323 12.8715 24.5323C12.995 24.5323 13.1134 24.4823 13.2007 24.3931C13.288 24.304 13.3371 24.1831 13.3371 24.0571V22.6187H14.7477C14.8712 22.6187 14.9896 22.5686 15.0769 22.4795C15.1642 22.3904 15.2132 22.2695 15.2132 22.1434C15.2132 22.0174 15.1642 21.8965 15.0769 21.8074C14.9896 21.7183 14.8712 21.6682 14.7477 21.6682ZM17.8824 17.2975C17.9256 17.3418 17.977 17.3769 18.0336 17.4009C18.0902 17.4249 18.1509 17.4373 18.2121 17.4373C18.2734 17.4373 18.3341 17.4249 18.3907 17.4009C18.4473 17.3769 18.4987 17.3418 18.5419 17.2975L19.5382 16.2789L20.5345 17.2975C20.5777 17.3418 20.6291 17.3769 20.6857 17.4009C20.7423 17.4249 20.803 17.4373 20.8642 17.4373C20.9255 17.4373 20.9862 17.4249 21.0428 17.4009C21.0993 17.3769 21.1507 17.3418 21.194 17.2975C21.2812 17.2084 21.3301 17.0876 21.3301 16.9616C21.3301 16.8357 21.2812 16.7149 21.194 16.6258L20.19 15.6072L21.1878 14.5902C21.275 14.5009 21.324 14.3799 21.3238 14.2538C21.3237 14.1276 21.2745 14.0068 21.187 13.9177C21.0995 13.8286 20.981 13.7787 20.8575 13.7788C20.7339 13.779 20.6155 13.8292 20.5283 13.9185L19.532 14.9355L18.5357 13.9185C18.4925 13.8743 18.4412 13.8392 18.3847 13.8152C18.3282 13.7913 18.2677 13.7789 18.2065 13.7788C18.1453 13.7787 18.0847 13.791 18.0282 13.8148C17.9717 13.8386 17.9203 13.8736 17.877 13.9177C17.8337 13.9618 17.7993 14.0142 17.7758 14.0718C17.7523 14.1295 17.7402 14.1913 17.7401 14.2538C17.7401 14.3162 17.752 14.3781 17.7754 14.4358C17.7987 14.4935 17.833 14.546 17.8762 14.5902L18.874 15.6072L17.8824 16.6337C17.7976 16.7225 17.7501 16.8416 17.7501 16.9656C17.7501 17.0896 17.7976 17.2087 17.8824 17.2975Z"/>
<path d="M7.86841 4.76038V27.333H24.1626V4.76038H7.86841ZM8.95469 5.86929H23.0763V10.674H8.95469V5.86929ZM23.0763 26.2241H8.95469V11.7829H23.0763V26.2241Z"/>
</g>
</g>
</g>
</svg>
