<svg width="32" height="32" viewBox="0 0 32 32" xmlns="http://www.w3.org/2000/svg">
<g>
<g>
<g>
<path d="M23.9113 7.00352H23.9003V5.43837C23.9003 5.29132 23.8418 5.15029 23.7379 5.04631C23.6339 4.94233 23.4928 4.88391 23.3458 4.88391C23.1987 4.88391 23.0577 4.94233 22.9537 5.04631C22.8498 5.15029 22.7913 5.29132 22.7913 5.43837V7.00352H9.24837V5.43837C9.24837 5.29132 9.18996 5.15029 9.08597 5.04631C8.98199 4.94233 8.84097 4.88391 8.69392 4.88391C8.54687 4.88391 8.40584 4.94233 8.30186 5.04631C8.19788 5.15029 8.13946 5.29132 8.13946 5.43837V7.00985C6.67411 7.08589 5.505 8.25183 5.505 9.67599V24.5053C5.505 25.9786 6.75491 27.1778 8.29154 27.1778H23.9113C25.448 27.1778 26.6979 25.9786 26.6979 24.5053V9.67599C26.6979 8.20114 25.448 7.00352 23.9113 7.00352ZM8.13946 8.11243V9.66965C8.13946 9.8167 8.19788 9.95773 8.30186 10.0617C8.40584 10.1657 8.54687 10.2241 8.69392 10.2241C8.84097 10.2241 8.98199 10.1657 9.08597 10.0617C9.18996 9.95773 9.24837 9.8167 9.24837 9.66965V8.11243H22.7913V9.67599C22.7913 9.82304 22.8498 9.96407 22.9537 10.068C23.0577 10.172 23.1987 10.2304 23.3458 10.2304C23.4928 10.2304 23.6339 10.172 23.7379 10.068C23.8418 9.96407 23.9003 9.82304 23.9003 9.67599V8.11243H23.9113C24.8365 8.11243 25.589 8.81262 25.589 9.67599V12.2613C25.551 12.253 25.5122 12.2488 25.4733 12.2487H6.62184V9.67599C6.61392 8.86173 7.28718 8.19163 8.13946 8.11876V8.11243ZM23.9113 26.0625H8.29154C7.36639 26.0625 6.61392 25.3607 6.61392 24.499V13.3576H25.4733C25.5122 13.3575 25.551 13.3532 25.589 13.3449V24.5053C25.589 25.3671 24.8365 26.0689 23.9113 26.0689V26.0625Z"/>
<path d="M14.7326 17.0597H9.30372C9.15667 17.0597 9.01564 17.1181 8.91166 17.2221C8.80768 17.3261 8.74927 17.4671 8.74927 17.6141C8.74927 17.7612 8.80768 17.9022 8.91166 18.0062C9.01564 18.1102 9.15667 18.1686 9.30372 18.1686H14.7326C14.8797 18.1686 15.0207 18.1102 15.1247 18.0062C15.2287 17.9022 15.2871 17.7612 15.2871 17.6141C15.2871 17.4671 15.2287 17.3261 15.1247 17.2221C15.0207 17.1181 14.8797 17.0597 14.7326 17.0597ZM22.7944 17.0597H17.3703C17.2232 17.0597 17.0822 17.1181 16.9782 17.2221C16.8742 17.3261 16.8158 17.4671 16.8158 17.6141C16.8158 17.7612 16.8742 17.9022 16.9782 18.0062C17.0822 18.1102 17.2232 18.1686 17.3703 18.1686H22.7944C22.9415 18.1686 23.0825 18.1102 23.1865 18.0062C23.2905 17.9022 23.3489 17.7612 23.3489 17.6141C23.3489 17.4671 23.2905 17.3261 23.1865 17.2221C23.0825 17.1181 22.9415 17.0597 22.7944 17.0597ZM14.7326 21.2957H9.30372C9.15667 21.2957 9.01564 21.3541 8.91166 21.4581C8.80768 21.5621 8.74927 21.7031 8.74927 21.8502C8.74927 21.9972 8.80768 22.1383 8.91166 22.2422C9.01564 22.3462 9.15667 22.4046 9.30372 22.4046H14.7326C14.8797 22.4046 15.0207 22.3462 15.1247 22.2422C15.2287 22.1383 15.2871 21.9972 15.2871 21.8502C15.2871 21.7031 15.2287 21.5621 15.1247 21.4581C15.0207 21.3541 14.8797 21.2957 14.7326 21.2957ZM22.7944 21.2957H17.3703C17.2232 21.2957 17.0822 21.3541 16.9782 21.4581C16.8742 21.5621 16.8158 21.7031 16.8158 21.8502C16.8158 21.9972 16.8742 22.1383 16.9782 22.2422C17.0822 22.3462 17.2232 22.4046 17.3703 22.4046H22.7944C22.9415 22.4046 23.0825 22.3462 23.1865 22.2422C23.2905 22.1383 23.3489 21.9972 23.3489 21.8502C23.3489 21.7031 23.2905 21.5621 23.1865 21.4581C23.0825 21.3541 22.9415 21.2957 22.7944 21.2957Z"/>
</g>
</g>
</g>
</svg>
