<svg width="32" height="32" viewBox="0 0 32 32" xmlns="http://www.w3.org/2000/svg">
<g>
<g>
<g>
<path d="M29.0503 11.9922C29.0503 6.92286 23.9525 2.78979 17.6871 2.78979C11.4218 2.78979 6.32397 6.91811 6.32397 11.9922C6.32397 12.1392 6.38239 12.2802 6.48637 12.3842C6.59035 12.4882 6.73138 12.5466 6.87843 12.5466C7.02548 12.5466 7.16651 12.4882 7.27049 12.3842C7.37447 12.2802 7.43289 12.1392 7.43289 11.9922C7.43289 7.5296 12.0269 3.89871 17.6871 3.89871C23.3473 3.89871 27.9414 7.5296 27.9414 11.9922C27.9414 14.0104 26.9909 15.9526 25.2642 17.4385L24.998 17.6698L26.1703 21.8171L21.3434 19.6864C21.2763 19.6534 21.2032 19.6343 21.1285 19.6303C21.0538 19.6262 20.9791 19.6373 20.9088 19.6629C20.8386 19.6885 20.7742 19.728 20.7196 19.7792C20.665 19.8303 20.6213 19.8919 20.5912 19.9603C20.561 20.0288 20.545 20.1026 20.5441 20.1774C20.5433 20.2522 20.5575 20.3264 20.5861 20.3955C20.6146 20.4646 20.6568 20.5272 20.7102 20.5796C20.7636 20.632 20.827 20.6731 20.8967 20.7003L27.8812 23.7831L26.259 18.0405C28.0602 16.3644 29.0503 14.229 29.0503 11.9922Z"/>
<path d="M11.238 13.6333C7.39483 13.6333 4.2677 16.1838 4.2677 19.3188C4.2677 20.6686 4.84433 21.9549 5.8978 22.9783L4.84117 26.7169L9.2483 24.7715C9.89947 24.9275 10.5668 25.0056 11.2364 25.0044C15.0796 25.0044 18.2067 22.4539 18.2067 19.3188C18.2067 16.1838 15.0812 13.6333 11.238 13.6333ZM11.238 23.8955C10.5995 23.8967 9.96356 23.8142 9.34651 23.6499L9.15641 23.604L6.55047 24.7541L7.15562 22.6155L6.8879 22.3842C5.91523 21.5446 5.38612 20.4499 5.38612 19.3268C5.38612 16.8032 8.01424 14.7501 11.2475 14.7501C14.4808 14.7501 17.1089 16.8095 17.1089 19.3268C17.1089 21.844 14.4697 23.8955 11.238 23.8955Z"/>
</g>
</g>
</g>
</svg>
