<svg width="94" height="9" viewBox="0 0 94 9" xmlns="http://www.w3.org/2000/svg">
<path d="M5.54102 5.77344H4.16895C4.15592 5.98828 4.12012 6.1722 4.06152 6.3252C4.00293 6.47819 3.92318 6.60352 3.82227 6.70117C3.72135 6.79883 3.59928 6.87044 3.45605 6.91602C3.31283 6.96159 3.15169 6.98438 2.97266 6.98438C2.83919 6.98438 2.71712 6.96973 2.60645 6.94043C2.49902 6.90788 2.40137 6.85905 2.31348 6.79395C2.2321 6.73535 2.15885 6.66211 2.09375 6.57422C2.0319 6.48633 1.97819 6.38542 1.93262 6.27148C1.86751 6.10547 1.81868 5.91178 1.78613 5.69043C1.75684 5.46582 1.74219 5.21191 1.74219 4.92871V3.96191C1.74219 3.75358 1.75195 3.5599 1.77148 3.38086C1.79102 3.19857 1.82194 3.03255 1.86426 2.88281C1.9196 2.69076 1.99284 2.52311 2.08398 2.37988C2.17839 2.2334 2.29232 2.12109 2.42578 2.04297C2.50391 1.9974 2.58854 1.96322 2.67969 1.94043C2.77409 1.91764 2.875 1.90625 2.98242 1.90625C3.18424 1.90625 3.35677 1.93392 3.5 1.98926C3.64648 2.04134 3.76855 2.11947 3.86621 2.22363C3.96061 2.33105 4.03223 2.46452 4.08105 2.62402C4.13314 2.78353 4.16569 2.96908 4.17871 3.18066H5.5459C5.51335 2.80957 5.43522 2.47591 5.31152 2.17969C5.18783 1.88346 5.01855 1.63281 4.80371 1.42773C4.58887 1.22266 4.32845 1.06478 4.02246 0.954102C3.71973 0.843424 3.37305 0.788086 2.98242 0.788086C2.71875 0.788086 2.47135 0.822266 2.24023 0.890625C2.01237 0.955729 1.80241 1.05013 1.61035 1.17383C1.39551 1.32031 1.20345 1.49935 1.03418 1.71094C0.864909 1.92253 0.72819 2.16341 0.624023 2.43359C0.532878 2.65495 0.464518 2.89583 0.418945 3.15625C0.373372 3.41341 0.350586 3.68522 0.350586 3.97168V4.92871C0.350586 5.2347 0.375 5.52441 0.423828 5.79785C0.475911 6.07129 0.549154 6.32194 0.643555 6.5498C0.741211 6.77767 0.860026 6.986 1 7.1748C1.14323 7.36361 1.30599 7.52474 1.48828 7.6582C1.68685 7.80143 1.90983 7.91211 2.15723 7.99023C2.40788 8.0651 2.67969 8.10254 2.97266 8.10254C3.34375 8.10254 3.68229 8.04883 3.98828 7.94141C4.29427 7.83073 4.55794 7.67448 4.7793 7.47266C5.00065 7.27083 5.17643 7.02669 5.30664 6.74023C5.4401 6.45378 5.51823 6.13151 5.54102 5.77344ZM13.3027 8V0.890625H11.9453V3.80566H9.93359V0.890625H8.57129V8H9.93359V4.91895H11.9453V8H13.3027ZM20.9912 4.88477V3.80078H18.0713V2.00879H21.4697V0.890625H16.6943V8H21.4844V6.8916H18.0713V4.88477H20.9912ZM29.5586 5.77344H28.1865C28.1735 5.98828 28.1377 6.1722 28.0791 6.3252C28.0205 6.47819 27.9408 6.60352 27.8398 6.70117C27.7389 6.79883 27.6169 6.87044 27.4736 6.91602C27.3304 6.96159 27.1693 6.98438 26.9902 6.98438C26.8568 6.98438 26.7347 6.96973 26.624 6.94043C26.5166 6.90788 26.4189 6.85905 26.3311 6.79395C26.2497 6.73535 26.1764 6.66211 26.1113 6.57422C26.0495 6.48633 25.9958 6.38542 25.9502 6.27148C25.8851 6.10547 25.8363 5.91178 25.8037 5.69043C25.7744 5.46582 25.7598 5.21191 25.7598 4.92871V3.96191C25.7598 3.75358 25.7695 3.5599 25.7891 3.38086C25.8086 3.19857 25.8395 3.03255 25.8818 2.88281C25.9372 2.69076 26.0104 2.52311 26.1016 2.37988C26.196 2.2334 26.3099 2.12109 26.4434 2.04297C26.5215 1.9974 26.6061 1.96322 26.6973 1.94043C26.7917 1.91764 26.8926 1.90625 27 1.90625C27.2018 1.90625 27.3743 1.93392 27.5176 1.98926C27.6641 2.04134 27.7861 2.11947 27.8838 2.22363C27.9782 2.33105 28.0498 2.46452 28.0986 2.62402C28.1507 2.78353 28.1833 2.96908 28.1963 3.18066H29.5635C29.5309 2.80957 29.4528 2.47591 29.3291 2.17969C29.2054 1.88346 29.0361 1.63281 28.8213 1.42773C28.6064 1.22266 28.346 1.06478 28.04 0.954102C27.7373 0.843424 27.3906 0.788086 27 0.788086C26.7363 0.788086 26.4889 0.822266 26.2578 0.890625C26.0299 0.955729 25.82 1.05013 25.6279 1.17383C25.4131 1.32031 25.221 1.49935 25.0518 1.71094C24.8825 1.92253 24.7458 2.16341 24.6416 2.43359C24.5505 2.65495 24.4821 2.89583 24.4365 3.15625C24.391 3.41341 24.3682 3.68522 24.3682 3.97168V4.92871C24.3682 5.2347 24.3926 5.52441 24.4414 5.79785C24.4935 6.07129 24.5667 6.32194 24.6611 6.5498C24.7588 6.77767 24.8776 6.986 25.0176 7.1748C25.1608 7.36361 25.3236 7.52474 25.5059 7.6582C25.7044 7.80143 25.9274 7.91211 26.1748 7.99023C26.4255 8.0651 26.6973 8.10254 26.9902 8.10254C27.3613 8.10254 27.6999 8.04883 28.0059 7.94141C28.3118 7.83073 28.5755 7.67448 28.7969 7.47266C29.0182 7.27083 29.194 7.02669 29.3242 6.74023C29.4577 6.45378 29.5358 6.13151 29.5586 5.77344ZM34.7471 5.08008L36.5049 8H38.1357L35.6553 4.03516L38.0479 0.890625H36.3682L34.6396 3.27832L33.9951 4.14746V0.890625H32.6182V8H33.9951V5.90527L34.7471 5.08008ZM45.4385 5.41211V4.31348H41.3711V5.41211H45.4385ZM52.3311 6.14453C52.3311 6.27148 52.305 6.38867 52.2529 6.49609C52.2008 6.60026 52.126 6.68978 52.0283 6.76465C51.9307 6.83952 51.8102 6.89811 51.667 6.94043C51.527 6.98275 51.3659 7.00391 51.1836 7.00391C50.9785 7.00391 50.7897 6.98112 50.6172 6.93555C50.4479 6.88997 50.3031 6.81836 50.1826 6.7207C50.0589 6.62305 49.9629 6.49772 49.8945 6.34473C49.8262 6.19173 49.7887 6.00781 49.7822 5.79297H48.4346C48.4346 6.16081 48.5046 6.48145 48.6445 6.75488C48.7878 7.02832 48.9814 7.26595 49.2256 7.46777C49.4827 7.67285 49.7839 7.8291 50.1289 7.93652C50.4772 8.04069 50.8288 8.09277 51.1836 8.09277C51.5449 8.09277 51.8786 8.05046 52.1846 7.96582C52.4906 7.87793 52.7542 7.74935 52.9756 7.58008C53.1969 7.41406 53.3695 7.21061 53.4932 6.96973C53.6201 6.72559 53.6836 6.44727 53.6836 6.13477C53.6836 5.77344 53.6006 5.45443 53.4346 5.17773C53.2686 4.90104 53.0456 4.65853 52.7656 4.4502C52.5801 4.32324 52.3766 4.21094 52.1553 4.11328C51.9339 4.01562 51.7012 3.93262 51.457 3.86426C51.2292 3.80241 51.0241 3.73568 50.8418 3.66406C50.6628 3.59245 50.5098 3.5127 50.3828 3.4248C50.2559 3.34017 50.1582 3.24414 50.0898 3.13672C50.0247 3.0293 49.9922 2.90885 49.9922 2.77539C49.9922 2.64844 50.0166 2.53125 50.0654 2.42383C50.1175 2.31315 50.1924 2.21712 50.29 2.13574C50.3877 2.05762 50.5065 1.9974 50.6465 1.95508C50.7897 1.90951 50.9525 1.88672 51.1348 1.88672C51.3333 1.88672 51.5059 1.91439 51.6523 1.96973C51.8021 2.02181 51.9274 2.09505 52.0283 2.18945C52.126 2.28711 52.1992 2.40267 52.248 2.53613C52.3001 2.6696 52.3294 2.81608 52.3359 2.97559H53.6738C53.6738 2.65658 53.612 2.36361 53.4883 2.09668C53.3646 1.82975 53.1921 1.59863 52.9707 1.40332C52.7493 1.21126 52.484 1.06152 52.1748 0.954102C51.8688 0.84668 51.5303 0.792969 51.1592 0.792969C50.8011 0.792969 50.4691 0.840169 50.1631 0.93457C49.8571 1.02572 49.5918 1.15755 49.3672 1.33008C49.1426 1.5026 48.9668 1.71094 48.8398 1.95508C48.7129 2.19922 48.6494 2.47103 48.6494 2.77051C48.6494 3.03092 48.6966 3.27181 48.791 3.49316C48.8887 3.71452 49.0319 3.91634 49.2207 4.09863C49.4095 4.28092 49.652 4.44857 49.9482 4.60156C50.2477 4.75456 50.5944 4.88477 50.9883 4.99219C51.2422 5.06055 51.4538 5.13542 51.623 5.2168C51.7956 5.29492 51.9355 5.38118 52.043 5.47559C52.1471 5.57324 52.2204 5.67741 52.2627 5.78809C52.3083 5.89876 52.3311 6.01758 52.3311 6.14453ZM61.8701 2.00879V0.890625H56.1377V2.00879H58.3008V8H59.6777V2.00879H61.8701ZM67.0635 5.34375L68.4014 8H69.8711V7.93652L68.3428 5.00195C68.5381 4.91406 68.7139 4.8099 68.8701 4.68945C69.0296 4.56901 69.1663 4.42741 69.2803 4.26465C69.391 4.10514 69.4756 3.92448 69.5342 3.72266C69.596 3.51758 69.627 3.28809 69.627 3.03418C69.627 2.68262 69.5651 2.37337 69.4414 2.10645C69.321 1.83952 69.1484 1.61654 68.9238 1.4375C68.696 1.25846 68.4225 1.12337 68.1035 1.03223C67.7845 0.937826 67.4281 0.890625 67.0342 0.890625H64.6514V8H66.0234V5.34375H67.0635ZM66.0234 4.23047V2.00391H67.0342C67.223 2.00391 67.3906 2.02669 67.5371 2.07227C67.6836 2.11784 67.8073 2.18294 67.9082 2.26758C68.0221 2.36198 68.1068 2.48242 68.1621 2.62891C68.2207 2.77214 68.25 2.93815 68.25 3.12695C68.25 3.2832 68.2272 3.4248 68.1816 3.55176C68.1393 3.67871 68.0758 3.78776 67.9912 3.87891C67.8903 3.99284 67.7585 4.08073 67.5957 4.14258C67.4362 4.20117 67.2507 4.23047 67.0391 4.23047H66.0234ZM77.6182 4.96777V3.93262C77.6182 3.61035 77.5872 3.30599 77.5254 3.01953C77.4668 2.73307 77.3805 2.4694 77.2666 2.22852C77.1624 2.01693 77.0371 1.82324 76.8906 1.64746C76.7474 1.47168 76.5798 1.32194 76.3877 1.19824C76.1956 1.06803 75.9792 0.96875 75.7383 0.900391C75.5007 0.828776 75.2451 0.792969 74.9717 0.792969C74.7015 0.792969 74.4508 0.827148 74.2197 0.895508C73.9886 0.963867 73.7803 1.06152 73.5947 1.18848C73.4059 1.31868 73.2383 1.47493 73.0918 1.65723C72.9486 1.83952 72.8265 2.04297 72.7256 2.26758C72.6214 2.50521 72.5417 2.764 72.4863 3.04395C72.4342 3.32389 72.4082 3.62012 72.4082 3.93262V4.96777C72.4082 5.26074 72.431 5.53906 72.4766 5.80273C72.5254 6.06641 72.5954 6.31055 72.6865 6.53516C72.7874 6.7793 72.9128 6.99902 73.0625 7.19434C73.2122 7.38639 73.3815 7.55078 73.5703 7.6875C73.7624 7.81771 73.9756 7.91862 74.21 7.99023C74.4443 8.06185 74.6999 8.09766 74.9766 8.09766C75.237 8.09766 75.4795 8.0651 75.7041 8C75.932 7.93815 76.1403 7.85026 76.3291 7.73633C76.5374 7.60612 76.723 7.44336 76.8857 7.24805C77.0485 7.05273 77.1852 6.83789 77.2959 6.60352C77.4001 6.36914 77.4798 6.11523 77.5352 5.8418C77.5905 5.5651 77.6182 5.27376 77.6182 4.96777ZM76.2266 3.92285V4.96777C76.2266 5.14355 76.2168 5.31283 76.1973 5.47559C76.181 5.63835 76.1549 5.78809 76.1191 5.9248C76.0736 6.10059 76.0117 6.25846 75.9336 6.39844C75.8587 6.53516 75.766 6.64909 75.6553 6.74023C75.5674 6.8151 75.4665 6.87207 75.3525 6.91113C75.2386 6.9502 75.1133 6.96973 74.9766 6.96973C74.8333 6.96973 74.7048 6.94857 74.5908 6.90625C74.4801 6.86393 74.3809 6.80371 74.293 6.72559C74.1986 6.6377 74.1156 6.52376 74.0439 6.38379C73.9756 6.24056 73.9235 6.08268 73.8877 5.91016C73.8551 5.77344 73.8324 5.62533 73.8193 5.46582C73.8063 5.30632 73.7998 5.1403 73.7998 4.96777V3.92285C73.7998 3.74056 73.8063 3.56641 73.8193 3.40039C73.8356 3.23438 73.86 3.08138 73.8926 2.94141C73.9349 2.75911 73.9935 2.59961 74.0684 2.46289C74.1465 2.32617 74.2409 2.21224 74.3516 2.12109C74.4329 2.05924 74.5241 2.01204 74.625 1.97949C74.7292 1.94694 74.8447 1.93066 74.9717 1.93066C75.1051 1.93066 75.2256 1.94857 75.333 1.98438C75.4437 2.02018 75.543 2.07064 75.6309 2.13574C75.7415 2.22363 75.8376 2.33757 75.9189 2.47754C76.0003 2.61426 76.0654 2.77051 76.1143 2.94629C76.1533 3.08626 76.181 3.23926 76.1973 3.40527C76.2168 3.56803 76.2266 3.74056 76.2266 3.92285ZM85.3506 8V0.890625H83.9736L83.9688 5.45605L82.0059 0.890625H80.624V8H82.0059V3.41504L83.9834 8H85.3506ZM93.5566 7.16992L93.5518 4.36719H91.0078V5.39258H92.1846L92.1797 6.68164C92.1439 6.72396 92.0902 6.76465 92.0186 6.80371C91.9502 6.83952 91.8704 6.87207 91.7793 6.90137C91.6882 6.93066 91.5905 6.95345 91.4863 6.96973C91.3822 6.986 91.2764 6.99414 91.1689 6.99414C90.9932 6.99089 90.8353 6.96322 90.6953 6.91113C90.5586 6.85579 90.4382 6.77604 90.334 6.67188C90.2721 6.61003 90.2152 6.54004 90.1631 6.46191C90.1143 6.38053 90.0703 6.29264 90.0312 6.19824C89.9694 6.03548 89.9206 5.84831 89.8848 5.63672C89.8522 5.42513 89.8359 5.19076 89.8359 4.93359V3.95703C89.8359 3.75195 89.8473 3.56152 89.8701 3.38574C89.8962 3.20996 89.932 3.05046 89.9775 2.90723C90.0361 2.72168 90.1094 2.56055 90.1973 2.42383C90.2884 2.28711 90.3893 2.17643 90.5 2.0918C90.5846 2.02995 90.6758 1.98275 90.7734 1.9502C90.8711 1.91764 90.972 1.90137 91.0762 1.90137C91.2682 1.90137 91.4326 1.92741 91.5693 1.97949C91.7093 2.02832 91.8249 2.10319 91.916 2.2041C91.9974 2.29525 92.0609 2.40755 92.1064 2.54102C92.1553 2.67448 92.1911 2.82747 92.2139 3H93.5518C93.516 2.6582 93.4395 2.35059 93.3223 2.07715C93.2083 1.80371 93.0488 1.57096 92.8438 1.37891C92.6387 1.1901 92.3864 1.04525 92.0869 0.944336C91.7907 0.843424 91.4424 0.792969 91.042 0.792969C90.7816 0.792969 90.5342 0.828776 90.2998 0.900391C90.0654 0.972005 89.849 1.0778 89.6504 1.21777C89.4811 1.34147 89.3249 1.48796 89.1816 1.65723C89.0417 1.8265 88.918 2.01693 88.8105 2.22852C88.6966 2.46615 88.6087 2.73145 88.5469 3.02441C88.485 3.31413 88.4541 3.62826 88.4541 3.9668V4.93359C88.4541 5.28841 88.485 5.61719 88.5469 5.91992C88.612 6.22266 88.7064 6.49447 88.8301 6.73535C88.9375 6.95345 89.0677 7.14714 89.2207 7.31641C89.377 7.48568 89.5495 7.62891 89.7383 7.74609C89.9303 7.86003 90.1403 7.94629 90.3682 8.00488C90.5993 8.06673 90.8451 8.09766 91.1055 8.09766C91.4049 8.09766 91.6849 8.06999 91.9453 8.01465C92.2057 7.95931 92.4417 7.88607 92.6533 7.79492C92.8617 7.70703 93.0423 7.60775 93.1953 7.49707C93.3483 7.38639 93.4688 7.27734 93.5566 7.16992Z"/>
</svg>
