<svg width="32" height="32" viewBox="0 0 32 32" xmlns="http://www.w3.org/2000/svg">
<g>
<g>
<path d="M21.1613 27.116C21.0176 27.117 20.8793 27.06 20.7765 26.9576L10.0471 16L20.7765 5.04712C20.8794 4.94313 21.0185 4.88513 21.1633 4.88587C21.3081 4.88661 21.4466 4.94604 21.5485 5.05108C21.6504 5.15611 21.7072 5.29815 21.7065 5.44596C21.7057 5.59376 21.6475 5.73521 21.5446 5.8392L11.5834 16L21.5446 26.1687C21.6211 26.2463 21.6733 26.3453 21.6947 26.4532C21.716 26.5611 21.7055 26.673 21.6644 26.7748C21.6234 26.8766 21.5536 26.9637 21.4641 27.025C21.3745 27.0863 21.2691 27.1191 21.1613 27.1192V27.116Z"/>
</g>
</g>
</svg>
