<svg width="32" height="32" viewBox="0 0 32 32" xmlns="http://www.w3.org/2000/svg">
<g>
<g>
<path d="M26.3492 21.8345C26.2783 21.8352 26.2079 21.8216 26.1421 21.7944C26.0763 21.7672 26.0164 21.727 25.9659 21.6761L16.0001 11.5042L6.04199 21.6729C5.99155 21.7244 5.93168 21.7653 5.86578 21.7931C5.79988 21.821 5.72924 21.8353 5.65791 21.8353C5.58658 21.8353 5.51595 21.821 5.45005 21.7931C5.38415 21.7653 5.32427 21.7244 5.27384 21.6729C5.2234 21.6215 5.18339 21.5603 5.15609 21.4931C5.1288 21.4258 5.11475 21.3537 5.11475 21.2809C5.11475 21.2081 5.1288 21.1359 5.15609 21.0687C5.18339 21.0014 5.2234 20.9403 5.27384 20.8888L16.0001 9.93591L26.731 20.8888C26.8083 20.9662 26.8613 21.0654 26.883 21.1737C26.9047 21.282 26.8942 21.3945 26.8528 21.4966C26.8115 21.5988 26.7411 21.686 26.6508 21.7471C26.5605 21.8081 26.4544 21.8402 26.3461 21.8393L26.3492 21.8345Z"/>
</g>
</g>
</svg>
