<svg width="32" height="32" viewBox="0 0 32 32" xmlns="http://www.w3.org/2000/svg">
<g>
<g>
<path d="M10.7073 27.116C10.5971 27.1162 10.4893 27.0836 10.3976 27.0224C10.306 26.9613 10.2345 26.8742 10.1924 26.7724C10.1503 26.6705 10.1395 26.5584 10.1612 26.4504C10.1829 26.3423 10.2362 26.2432 10.3144 26.1655L20.4847 16L10.3144 5.83125C10.2094 5.72621 10.1504 5.58375 10.1504 5.43521C10.1504 5.28666 10.2094 5.1442 10.3144 5.03917C10.4194 4.93413 10.5619 4.87512 10.7104 4.87512C10.859 4.87512 11.0015 4.93413 11.1065 5.03917L22.053 16L11.0986 26.9528C10.9949 27.0569 10.8542 27.1156 10.7073 27.116Z"/>
</g>
</g>
</svg>
