<svg width="32" height="32" viewBox="0 0 32 32" xmlns="http://www.w3.org/2000/svg">
<g>
<g>
<path d="M16 22.0594L5.0471 11.1065C4.99509 11.0545 4.95384 10.9928 4.92569 10.9248C4.89754 10.8569 4.88306 10.784 4.88306 10.7105C4.88306 10.6369 4.89754 10.5641 4.92569 10.4961C4.95384 10.4282 4.99509 10.3664 5.0471 10.3144C5.09911 10.2624 5.16085 10.2212 5.22881 10.193C5.29676 10.1649 5.36959 10.1504 5.44314 10.1504C5.51669 10.1504 5.58952 10.1649 5.65748 10.193C5.72543 10.2212 5.78717 10.2624 5.83918 10.3144L16 20.4911L26.1687 10.3224C26.2737 10.2184 26.4158 10.1604 26.5636 10.1611C26.7114 10.1619 26.8528 10.2213 26.9568 10.3263C27.0608 10.4314 27.1188 10.5734 27.118 10.7212C27.1173 10.869 27.0579 11.0105 26.9528 11.1144L16 22.0594Z"/>
</g>
</g>
</svg>
