<svg width="32" height="32" viewBox="0 0 32 32" xmlns="http://www.w3.org/2000/svg">
<g>
<g clip-path="url(#clip0_9220_24798)">
<path d="M6.86778 21.2269L11.106 18.139L15.3283 21.2269L13.7129 16.2091L17.9672 13.1372H12.7373L11.106 8.11938L9.49068 13.1212C9.49068 13.1212 4.4048 13.089 4.27686 13.1212L8.4831 16.2091L6.86778 21.2269Z"/>
<path d="M24.9883 18.8948H23.277L24.6684 19.892L24.1246 21.5164L25.5 20.5031L26.8915 21.5164L26.3637 19.892L27.7231 18.8948H26.0438L25.5 17.2544L24.9883 18.8948Z"/>
<path d="M24.8443 12.9121L25.0842 14.6008L25.8839 13.089L27.5632 13.3945L26.3637 12.1401L27.1634 10.6283L25.644 11.4003L24.4445 10.178L24.6844 11.8667L23.165 12.6065L24.8443 12.9121Z"/>
<path d="M21.5657 5.24048L20.4462 6.54319L18.8788 5.86771L19.7584 7.34733L18.6389 8.61788L20.2862 8.24797L21.1659 9.71151L21.3258 8.00673L22.9571 7.60466L21.4058 6.96134L21.5657 5.24048Z"/>
<path d="M20.3982 23.6072L18.8308 23.0443L19.7584 24.4435L18.7189 25.8106L20.3662 25.3281L21.3098 26.7434L21.3578 25.0547L23.0051 24.5722L21.4058 23.9932L21.4697 22.2723L20.3982 23.6072Z"/>
</g>
</g>
<defs>
<clipPath>
<rect width="23.5102" height="21.551" transform="translate(4.24487 5.22449)"/>
</clipPath>
</defs>
</svg>
