<svg width="32" height="32" viewBox="0 0 32 32" xmlns="http://www.w3.org/2000/svg">
<g>
<g clip-path="url(#clip0_9220_24802)">
<path d="M20.9913 16.0786H20.8319C20.6397 16.0723 20.4486 16.11 20.2737 16.1888C20.1389 15.8904 19.9197 15.6368 19.6426 15.4582C19.3654 15.2796 19.042 15.1836 18.7109 15.1816C18.4454 15.1774 18.1827 15.2368 17.9455 15.3547C17.8661 15.1405 17.7438 14.9442 17.5859 14.7776C17.428 14.611 17.2377 14.4774 17.0264 14.3849C16.8151 14.2924 16.5871 14.2428 16.356 14.2391C16.1248 14.2354 15.8953 14.2777 15.681 14.3633V10.6968C15.68 10.2926 15.533 9.90207 15.2664 9.59521C16.0068 9.28865 16.616 8.73759 16.9899 8.03644C17.3637 7.33529 17.4788 6.52769 17.3156 5.75197C17.1523 4.97625 16.7207 4.28069 16.0949 3.78445C15.469 3.2882 14.6878 3.02215 13.8849 3.03187C13.0821 3.04159 12.3077 3.32648 11.6944 3.83773C11.0811 4.34898 10.6669 5.05477 10.523 5.83421C10.3791 6.61365 10.5143 7.41822 10.9054 8.11011C11.2966 8.802 11.9194 9.33814 12.6671 9.62669C12.4144 9.92809 12.2738 10.3056 12.2684 10.6968V18.6751C12.1077 18.4721 11.8999 18.3101 11.6624 18.203C11.4608 18.1037 11.2404 18.0468 11.0153 18.036C10.7902 18.0252 10.5653 18.0606 10.3548 18.1401C10.1385 18.214 9.93954 18.3302 9.76968 18.4815C9.59982 18.6329 9.46257 18.8165 9.36609 19.0213C9.26505 19.223 9.20723 19.4431 9.19626 19.6678C9.18528 19.8926 9.22138 20.1171 9.3023 20.3274C9.47772 20.8153 10.9927 25.0956 11.1043 25.3788C11.4666 26.195 12.0077 26.9218 12.6888 27.5069C13.3699 28.0919 14.174 28.5206 15.0432 28.7622C15.5777 28.9105 16.1305 28.9846 16.6857 28.9825C17.0386 28.9802 17.3907 28.9486 17.7382 28.8881C18.6151 28.7375 19.4479 28.3991 20.178 27.8967L20.2259 27.8652L20.2897 27.8337C21.0772 27.2756 21.7192 26.5408 22.1628 25.69C22.6064 24.8392 22.8389 23.8965 22.8412 22.9397V19.2731C22.7933 16.7553 21.8206 16.1416 20.9913 16.0786ZM11.4232 6.4322C11.4232 5.94044 11.571 5.45973 11.8479 5.05085C12.1247 4.64197 12.5182 4.32329 12.9786 4.1351C13.439 3.94692 13.9456 3.89768 14.4344 3.99362C14.9231 4.08955 15.3721 4.32635 15.7245 4.67408C16.0768 5.0218 16.3168 5.46483 16.414 5.94713C16.5112 6.42944 16.4613 6.92936 16.2706 7.38368C16.0799 7.838 15.757 8.22632 15.3426 8.49952C14.9283 8.77273 14.4412 8.91855 13.9428 8.91855C13.2746 8.91855 12.6337 8.65659 12.1612 8.19031C11.6887 7.72403 11.4232 7.09162 11.4232 6.4322ZM21.693 22.924C21.6938 23.7009 21.5077 24.4669 21.1501 25.159C20.7925 25.8511 20.2735 26.4496 19.6359 26.9053L19.5721 26.9367L19.5242 26.9682C18.928 27.3808 18.2477 27.66 17.5309 27.7865C17.2411 27.8354 16.9478 27.8617 16.6538 27.8652C16.1955 27.8611 15.7398 27.7976 15.2983 27.6764C14.5882 27.4814 13.9308 27.1333 13.3737 26.657C12.8166 26.1808 12.3737 25.5883 12.0771 24.9225C11.9973 24.7179 10.9767 21.8381 10.291 19.934C10.2648 19.8598 10.2542 19.7811 10.2596 19.7026C10.2651 19.6242 10.2866 19.5477 10.3229 19.4777C10.357 19.4019 10.4075 19.3345 10.4709 19.2801C10.5342 19.2257 10.6089 19.1857 10.6897 19.163L10.881 19.1315C10.9753 19.1295 11.0686 19.1512 11.1521 19.1944C11.2272 19.2264 11.2945 19.2738 11.3495 19.3335C11.4045 19.3932 11.446 19.4638 11.4711 19.5406L12.2684 21.7752C12.3118 21.8985 12.3982 22.0025 12.5121 22.0688C12.626 22.1351 12.76 22.1593 12.8903 22.1371C13.0212 22.1147 13.1397 22.0469 13.2245 21.9459C13.3093 21.845 13.3548 21.7175 13.3528 21.5864V10.681C13.3528 10.5266 13.415 10.3785 13.5256 10.2693C13.6363 10.1601 13.7863 10.0988 13.9428 10.0988C14.0993 10.0988 14.2494 10.1601 14.3601 10.2693C14.4707 10.3785 14.5329 10.5266 14.5329 10.681V18.4863C14.5329 18.6324 14.5917 18.7725 14.6963 18.8757C14.801 18.979 14.943 19.0371 15.091 19.0371C15.239 19.0371 15.381 18.979 15.4857 18.8757C15.5903 18.7725 15.6491 18.6324 15.6491 18.4863V15.8583C15.6846 15.7083 15.7697 15.5743 15.891 15.4774C16.0123 15.3805 16.1629 15.3262 16.3189 15.3233C16.397 15.3211 16.4747 15.3347 16.5473 15.3632C16.6199 15.3917 16.6858 15.4345 16.741 15.489C16.7963 15.5435 16.8396 15.6085 16.8685 15.6802C16.8974 15.7518 16.9111 15.8285 16.9089 15.9055V18.8482C16.9089 18.9943 16.9678 19.1344 17.0724 19.2377C17.1771 19.341 17.3191 19.399 17.4671 19.399C17.6151 19.399 17.7571 19.341 17.8618 19.2377C17.9664 19.1344 18.0252 18.9943 18.0252 18.8482V16.8497C18.0252 16.5507 18.3442 16.2832 18.695 16.2832C18.7723 16.2788 18.8497 16.2903 18.9222 16.317C18.9948 16.3437 19.0609 16.385 19.1164 16.4383C19.1719 16.4916 19.2155 16.5557 19.2445 16.6265C19.2736 16.6973 19.2874 16.7733 19.285 16.8497V19.2102C19.3076 19.3422 19.3768 19.4622 19.4804 19.5486C19.5841 19.6351 19.7154 19.6826 19.8511 19.6826C19.9869 19.6826 20.1182 19.6351 20.2218 19.5486C20.3255 19.4622 20.3947 19.3422 20.4173 19.2102V17.7309C20.4173 17.5578 20.4651 17.1644 20.8319 17.1644H20.9116C21.5814 17.2431 21.6611 18.6437 21.693 19.2416V22.924Z"/>
<path d="M13.9427 7.7226C14.6737 7.7226 15.2663 7.13783 15.2663 6.41647C15.2663 5.69512 14.6737 5.11035 13.9427 5.11035C13.2117 5.11035 12.6191 5.69512 12.6191 6.41647C12.6191 7.13783 13.2117 7.7226 13.9427 7.7226Z"/>
</g>
</g>
<defs>
<clipPath>
<rect width="13.7143" height="26.1224" transform="translate(9.14282 2.93872)"/>
</clipPath>
</defs>
</svg>
