<svg width="32" height="32" viewBox="0 0 32 32" xmlns="http://www.w3.org/2000/svg">
<g>
<g>
<path d="M16.7835 15.9842L24.4076 8.20124C24.5105 8.09621 24.5683 7.95375 24.5683 7.8052C24.5683 7.65666 24.5105 7.5142 24.4076 7.40916C24.3047 7.30413 24.1652 7.24512 24.0197 7.24512C23.8741 7.24512 23.7346 7.30413 23.6317 7.40916L16.0153 15.208L8.39584 7.41708C8.29295 7.3131 8.1538 7.2551 8.00902 7.25584C7.86423 7.25658 7.72567 7.31601 7.62381 7.42104C7.52194 7.52608 7.46512 7.66812 7.46585 7.81592C7.46658 7.96372 7.52479 8.10518 7.62768 8.20916L15.2472 15.9842L7.61993 23.7624C7.56898 23.8144 7.52856 23.8762 7.50099 23.9441C7.47342 24.0121 7.45923 24.0849 7.45923 24.1585C7.45923 24.232 7.47342 24.3049 7.50099 24.3728C7.52856 24.4408 7.56898 24.5025 7.61993 24.5545C7.67087 24.6065 7.73136 24.6478 7.79792 24.6759C7.86449 24.7041 7.93583 24.7186 8.00788 24.7186C8.07993 24.7186 8.15128 24.7041 8.21784 24.6759C8.28441 24.6478 8.34489 24.6065 8.39584 24.5545L16.02 16.7715L23.6395 24.5545C23.7413 24.6595 23.8799 24.719 24.0247 24.7197C24.1695 24.7205 24.3086 24.6625 24.4115 24.5585C24.5144 24.4545 24.5726 24.313 24.5733 24.1652C24.5741 24.0174 24.5172 23.8754 24.4154 23.7704L16.7835 15.9842Z"/>
</g>
</g>
</svg>
