<svg width="32" height="32" viewBox="0 0 32 32" xmlns="http://www.w3.org/2000/svg">
<g>
<g>
<g>
<path d="M19.8732 11.7877H12.0998C11.9527 11.7877 11.8117 11.8461 11.7077 11.9501C11.6037 12.0541 11.5453 12.1951 11.5453 12.3421C11.5453 12.4892 11.6037 12.6302 11.7077 12.7342C11.8117 12.8382 11.9527 12.8966 12.0998 12.8966H19.8732C20.0203 12.8966 20.1613 12.8382 20.2653 12.7342C20.3693 12.6302 20.4277 12.4892 20.4277 12.3421C20.4277 12.1951 20.3693 12.0541 20.2653 11.9501C20.1613 11.8461 20.0203 11.7877 19.8732 11.7877ZM16.0887 10.6629C16.6597 10.6632 17.2179 10.4942 17.6928 10.1772C18.1677 9.86012 18.5379 9.40936 18.7566 8.88188C18.9752 8.35441 19.0325 7.77393 18.9212 7.21389C18.8099 6.65385 18.535 6.13941 18.1312 5.73565C17.7274 5.33189 17.213 5.05696 16.653 4.94564C16.0929 4.83432 15.5124 4.89162 14.985 5.11027C14.4575 5.32893 14.0067 5.69912 13.6897 6.17402C13.3727 6.64892 13.2036 7.20718 13.2039 7.77818C13.2048 8.54301 13.509 9.27627 14.0498 9.81708C14.5906 10.3579 15.3238 10.6621 16.0887 10.6629ZM16.0887 6.00075C16.4403 6.00044 16.7841 6.10442 17.0766 6.29953C17.3691 6.49465 17.5972 6.77214 17.7319 7.09689C17.8667 7.42165 17.9021 7.77908 17.8337 8.12397C17.7653 8.46886 17.5962 8.78571 17.3476 9.03445C17.0991 9.28319 16.7824 9.45263 16.4376 9.52134C16.0928 9.59005 15.7353 9.55494 15.4104 9.42046C15.0856 9.28598 14.8079 9.05816 14.6125 8.76583C14.4171 8.4735 14.3128 8.12979 14.3128 7.77818C14.3132 7.30718 14.5004 6.85557 14.8333 6.52237C15.1662 6.18918 15.6177 6.00159 16.0887 6.00075ZM29.1944 18.8229H21.4209C21.2739 18.8229 21.1329 18.8813 21.0289 18.9853C20.9249 19.0893 20.8665 19.2303 20.8665 19.3774C20.8665 19.5244 20.9249 19.6655 21.0289 19.7694C21.1329 19.8734 21.2739 19.9318 21.4209 19.9318H29.1944C29.3415 19.9318 29.4825 19.8734 29.5865 19.7694C29.6905 19.6655 29.7489 19.5244 29.7489 19.3774C29.7489 19.2303 29.6905 19.0893 29.5865 18.9853C29.4825 18.8813 29.3415 18.8229 29.1944 18.8229ZM25.4114 17.6966C25.9819 17.6963 26.5395 17.5268 27.0137 17.2097C27.4879 16.8925 27.8574 16.4418 28.0755 15.9147C28.2936 15.3875 28.3505 14.8076 28.239 14.2481C28.1275 13.6886 27.8526 13.1747 27.4491 12.7715C27.0456 12.3682 26.5316 12.0936 25.9721 11.9824C25.4125 11.8712 24.8326 11.9284 24.3055 12.1468C23.7785 12.3652 23.3281 12.735 23.0112 13.2093C22.6943 13.6837 22.5251 14.2414 22.5251 14.8118C22.5259 15.5769 22.8304 16.3104 23.3715 16.8513C23.9127 17.3922 24.6463 17.6962 25.4114 17.6966ZM25.4114 13.036C25.7626 13.0363 26.1058 13.1407 26.3976 13.3361C26.6894 13.5314 26.9168 13.8088 27.051 14.1334C27.1851 14.4579 27.2201 14.8149 27.1514 15.1593C27.0827 15.5036 26.9134 15.8199 26.665 16.0681C26.4166 16.3163 26.1002 16.4853 25.7557 16.5537C25.4113 16.6221 25.0543 16.5868 24.7299 16.4524C24.4055 16.3179 24.1283 16.0903 23.9332 15.7983C23.7381 15.5063 23.634 15.163 23.634 14.8118C23.6344 14.3407 23.8219 13.889 24.1552 13.556C24.4885 13.223 24.9403 13.036 25.4114 13.036ZM10.5505 18.8229H2.77699C2.62994 18.8229 2.48891 18.8813 2.38493 18.9853C2.28095 19.0893 2.22253 19.2303 2.22253 19.3774C2.22253 19.5244 2.28095 19.6655 2.38493 19.7694C2.48891 19.8734 2.62994 19.9318 2.77699 19.9318H10.5505C10.6975 19.9318 10.8385 19.8734 10.9425 19.7694C11.0465 19.6655 11.1049 19.5244 11.1049 19.3774C11.1049 19.2303 11.0465 19.0893 10.9425 18.9853C10.8385 18.8813 10.6975 18.8229 10.5505 18.8229ZM6.7659 17.6966C7.33645 17.6966 7.89419 17.5274 8.36858 17.2104C8.84298 16.8934 9.21272 16.4429 9.43106 15.9158C9.6494 15.3887 9.70653 14.8086 9.59522 14.2491C9.48391 13.6895 9.20917 13.1755 8.80573 12.772C8.40229 12.3686 7.88828 12.0938 7.32869 11.9825C6.7691 11.8712 6.18907 11.9283 5.66195 12.1467C5.13483 12.365 4.6843 12.7348 4.36732 13.2092C4.05034 13.6836 3.88115 14.2413 3.88115 14.8118C3.88199 15.5767 4.18618 16.3099 4.727 16.8507C5.26781 17.3916 6.00107 17.6958 6.7659 17.6966ZM6.7659 13.036C7.11713 13.036 7.46047 13.1402 7.75251 13.3353C8.04454 13.5304 8.27215 13.8078 8.40656 14.1323C8.54097 14.4568 8.57614 14.8138 8.50762 15.1583C8.4391 15.5028 8.26997 15.8192 8.02161 16.0676C7.77325 16.3159 7.45683 16.485 7.11235 16.5536C6.76787 16.6221 6.41081 16.5869 6.08632 16.4525C5.76182 16.3181 5.48447 16.0905 5.28934 15.7984C5.09421 15.5064 4.99006 15.1631 4.99006 14.8118C4.99048 14.341 5.17771 13.8895 5.51065 13.5566C5.8436 13.2237 6.29505 13.0364 6.7659 13.036ZM19.8732 25.9802H12.0998C11.9527 25.9802 11.8117 26.0386 11.7077 26.1426C11.6037 26.2465 11.5453 26.3876 11.5453 26.5346C11.5453 26.6817 11.6037 26.8227 11.7077 26.9267C11.8117 27.0307 11.9527 27.0891 12.0998 27.0891H19.8732C20.0203 27.0891 20.1613 27.0307 20.2653 26.9267C20.3693 26.8227 20.4277 26.6817 20.4277 26.5346C20.4277 26.3876 20.3693 26.2465 20.2653 26.1426C20.1613 26.0386 20.0203 25.9802 19.8732 25.9802ZM18.9734 21.9643C18.9734 21.3938 18.8042 20.836 18.4873 20.3616C18.1703 19.8872 17.7197 19.5175 17.1926 19.2992C16.6655 19.0808 16.0855 19.0237 15.5259 19.135C14.9663 19.2463 14.4523 19.5211 14.0488 19.9245C13.6454 20.3279 13.3707 20.8419 13.2593 21.4015C13.148 21.9611 13.2052 22.5411 13.4235 23.0683C13.6418 23.5954 14.0116 24.0459 14.486 24.3629C14.9604 24.6799 15.5181 24.8491 16.0887 24.8491C16.8535 24.8482 17.5868 24.544 18.1276 24.0032C18.6684 23.4624 18.9726 22.7291 18.9734 21.9643ZM14.3128 21.9643C14.3128 21.6131 14.417 21.2698 14.6121 20.9777C14.8072 20.6857 15.0846 20.4581 15.4091 20.3237C15.7336 20.1892 16.0906 20.1541 16.4351 20.2226C16.7796 20.2911 17.096 20.4603 17.3444 20.7086C17.5927 20.957 17.7619 21.2734 17.8304 21.6179C17.8989 21.9624 17.8637 22.3194 17.7293 22.6439C17.5949 22.9684 17.3673 23.2457 17.0753 23.4409C16.7832 23.636 16.4399 23.7402 16.0887 23.7402C15.6178 23.7397 15.1664 23.5525 14.8334 23.2196C14.5005 22.8866 14.3133 22.4352 14.3128 21.9643Z"/>
</g>
</g>
</g>
</svg>
