<svg width="32" height="32" viewBox="0 0 32 32" xmlns="http://www.w3.org/2000/svg">
<g>
<g>
<path d="M24.5832 17.4494H7.46495C6.96135 17.4479 6.47191 17.616 6.07549 17.9266C5.67907 18.2372 5.39874 18.6722 5.27966 19.1615C5.16058 19.6508 5.20968 20.166 5.41905 20.624C5.62842 21.082 5.98588 21.4563 6.43383 21.6864C6.88179 21.9165 7.39416 21.9891 7.88842 21.8925C8.38268 21.796 8.83005 21.5358 9.15846 21.1541C9.48687 20.7723 9.6772 20.291 9.69879 19.7879C9.72038 19.2848 9.57198 18.789 9.27748 18.3805H11.3538C11.1123 18.7143 10.9677 19.1083 10.936 19.5191C10.9043 19.9299 10.9867 20.3415 11.1742 20.7084C11.3616 21.0754 11.6467 21.3834 11.9981 21.5985C12.3496 21.8136 12.7536 21.9274 13.1656 21.9274C13.5776 21.9274 13.9816 21.8136 14.333 21.5985C14.6844 21.3834 14.9696 21.0754 15.157 20.7084C15.3444 20.3415 15.4269 19.9299 15.3951 19.5191C15.3634 19.1083 15.2189 18.7143 14.9774 18.3805H17.063C16.7877 18.7588 16.6394 19.2146 16.6394 19.6825C16.6386 20.035 16.7212 20.3827 16.8805 20.6972C17.0398 21.0117 17.2712 21.284 17.5558 21.4919C17.8405 21.6999 18.1703 21.8375 18.5184 21.8936C18.8664 21.9497 19.2227 21.9227 19.5583 21.8147C19.8939 21.7068 20.1992 21.521 20.4492 21.2725C20.6993 21.024 20.887 20.7198 20.997 20.3849C21.107 20.05 21.1362 19.6938 21.0823 19.3454C21.0283 18.9971 20.8927 18.6664 20.6865 18.3805H22.7706C22.4789 18.7874 22.3324 19.2805 22.3548 19.7807C22.3772 20.2809 22.5672 20.759 22.8941 21.1382C23.2211 21.5174 23.6661 21.7756 24.1576 21.8713C24.649 21.967 25.1584 21.8946 25.6038 21.6659C26.0491 21.4371 26.4046 21.0652 26.613 20.6099C26.8215 20.1547 26.8708 19.6426 26.753 19.1559C26.6352 18.6693 26.3572 18.2364 25.9636 17.9269C25.5701 17.6174 25.0839 17.4492 24.5832 17.4494ZM8.75452 19.684C8.75482 19.9414 8.67889 20.1932 8.53632 20.4075C8.39374 20.6218 8.19091 20.7891 7.95338 20.8883C7.71585 20.9876 7.45426 21.0142 7.2016 20.965C6.94893 20.9157 6.71651 20.7928 6.53363 20.6116C6.35074 20.4305 6.22559 20.1992 6.17395 19.947C6.12231 19.6948 6.14648 19.433 6.24344 19.1946C6.34039 18.9561 6.50577 18.7517 6.71874 18.6071C6.9317 18.4625 7.18271 18.3842 7.44012 18.382H7.4665C7.81033 18.3845 8.13927 18.5227 8.38168 18.7665C8.62409 19.0104 8.76032 19.3402 8.76073 19.684H8.75452ZM14.4637 19.684C14.464 19.9412 14.3882 20.1928 14.2458 20.407C14.1034 20.6212 13.9009 20.7885 13.6636 20.8879C13.4263 20.9872 13.165 21.0141 12.9125 20.9653C12.6599 20.9164 12.4275 20.7939 12.2444 20.6132C12.0614 20.4325 11.9359 20.2017 11.8837 19.9498C11.8315 19.6979 11.8551 19.4363 11.9513 19.1977C12.0475 18.9592 12.2122 18.7545 12.4246 18.6093C12.6369 18.4642 12.8874 18.3851 13.1446 18.382H13.1741C13.5182 18.3841 13.8476 18.5221 14.0903 18.766C14.333 19.0099 14.4695 19.3399 14.4699 19.684H14.4637ZM20.1713 19.684C20.1716 19.9413 20.0958 20.1929 19.9533 20.4072C19.8109 20.6214 19.6082 20.7887 19.3709 20.888C19.1335 20.9873 18.8721 21.0142 18.6195 20.9652C18.367 20.9162 18.1345 20.7935 17.9515 20.6127C17.7685 20.4318 17.6431 20.2009 17.5911 19.9489C17.5392 19.6969 17.5629 19.4352 17.6594 19.1967C17.7558 18.9582 17.9207 18.7535 18.1333 18.6086C18.3459 18.4636 18.5966 18.3848 18.8538 18.382H18.8833C19.2271 18.3845 19.5561 18.5227 19.7985 18.7665C20.0409 19.0104 20.1771 19.3402 20.1775 19.684H20.1713ZM24.577 20.9875C24.3192 20.9875 24.0671 20.9111 23.8528 20.7679C23.6384 20.6246 23.4713 20.421 23.3727 20.1829C23.274 19.9447 23.2482 19.6826 23.2985 19.4297C23.3488 19.1768 23.4729 18.9446 23.6552 18.7623C23.8375 18.58 24.0698 18.4558 24.3227 18.4055C24.5755 18.3552 24.8376 18.381 25.0758 18.4797C25.314 18.5784 25.5176 18.7454 25.6608 18.9598C25.8041 19.1742 25.8805 19.4262 25.8805 19.684C25.8801 20.0285 25.7435 20.3589 25.5005 20.6031C25.2574 20.8473 24.9277 20.9855 24.5832 20.9875H24.577ZM9.56768 10.0766C9.52506 10.0309 9.47366 9.99421 9.41655 9.96877C9.35945 9.94332 9.2978 9.92964 9.23529 9.92854C9.17278 9.92744 9.11069 9.93894 9.05272 9.96235C8.99475 9.98576 8.94209 10.0206 8.89788 10.0648C8.85368 10.109 8.81882 10.1617 8.79541 10.2197C8.772 10.2776 8.7605 10.3397 8.7616 10.4022C8.7627 10.4647 8.77638 10.5264 8.80183 10.5835C8.82727 10.6406 8.86396 10.692 8.9097 10.7346L10.7579 12.5859H5.70673C5.58325 12.5859 5.46484 12.635 5.37753 12.7223C5.29023 12.8096 5.24118 12.928 5.24118 13.0515C5.24118 13.175 5.29023 13.2934 5.37753 13.3807C5.46484 13.468 5.58325 13.517 5.70673 13.517H10.7579L8.9097 15.3637C8.82224 15.451 8.77303 15.5694 8.77288 15.6929C8.77274 15.8165 8.82167 15.935 8.90893 16.0225C8.99618 16.1099 9.1146 16.1591 9.23814 16.1593C9.36168 16.1594 9.48022 16.1105 9.56768 16.0232L12.541 13.0515L9.56768 10.0766ZM14.0944 15.9301H19.8796V10.1418H14.0944V15.9301ZM15.0255 11.0729H18.9485V14.999H15.0255V11.0729ZM21.0574 10.1418V15.9301H26.8457V10.1418H21.0574ZM25.9146 14.999H21.9885V11.0729H25.9146V14.999Z"/>
</g>
</g>
</svg>
