<svg width="32" height="32" viewBox="0 0 32 32" xmlns="http://www.w3.org/2000/svg">
<g>
<g>
<g>
<path d="M24.9603 9.10059H20.5174V7.64808C20.5166 6.97541 20.249 6.33053 19.7734 5.85489C19.2977 5.37924 18.6528 5.11166 17.9802 5.11084H13.992C13.3193 5.11166 12.6744 5.37924 12.1988 5.85489C11.7231 6.33053 11.4555 6.97541 11.4547 7.64808V9.10059H7.01184V10.1869H8.4628V25.5981C8.4628 25.7421 8.52002 25.8803 8.62188 25.9821C8.72374 26.084 8.86189 26.1412 9.00594 26.1412H22.9724C23.1164 26.1412 23.2546 26.084 23.3565 25.9821C23.4583 25.8803 23.5155 25.7421 23.5155 25.5981V10.1869H24.9665L24.9603 9.10059ZM12.5457 7.64808C12.5461 7.26339 12.6991 6.89457 12.9711 6.62255C13.2431 6.35053 13.6119 6.19753 13.9966 6.19712H17.9848C18.3695 6.19753 18.7383 6.35053 19.0104 6.62255C19.2824 6.89457 19.4354 7.26339 19.4358 7.64808V9.10059H12.541L12.5457 7.64808ZM22.4277 25.0549H9.54753V10.1869H22.4277V25.0549Z"/>
<path d="M12.1731 21.1847C12.3172 21.1847 12.4553 21.1275 12.5572 21.0256C12.6591 20.9238 12.7163 20.7856 12.7163 20.6416V14.5755C12.7163 14.4314 12.6591 14.2933 12.5572 14.1914C12.4553 14.0896 12.3172 14.0323 12.1731 14.0323C12.0291 14.0323 11.8909 14.0896 11.7891 14.1914C11.6872 14.2933 11.63 14.4314 11.63 14.5755V20.6416C11.63 20.7856 11.6872 20.9238 11.7891 21.0256C11.8909 21.1275 12.0291 21.1847 12.1731 21.1847ZM16.0434 21.1847C16.1875 21.1847 16.3256 21.1275 16.4275 21.0256C16.5293 20.9238 16.5865 20.7856 16.5865 20.6416V14.5755C16.5865 14.4314 16.5293 14.2933 16.4275 14.1914C16.3256 14.0896 16.1875 14.0323 16.0434 14.0323C15.8994 14.0323 15.7612 14.0896 15.6593 14.1914C15.5575 14.2933 15.5003 14.4314 15.5003 14.5755V20.6416C15.5003 20.7856 15.5575 20.9238 15.6593 21.0256C15.7612 21.1275 15.8994 21.1847 16.0434 21.1847ZM19.684 21.1847C19.828 21.1847 19.9662 21.1275 20.0681 21.0256C20.1699 20.9238 20.2271 20.7856 20.2271 20.6416V14.5755C20.2271 14.4314 20.1699 14.2933 20.0681 14.1914C19.9662 14.0896 19.828 14.0323 19.684 14.0323C19.5399 14.0323 19.4018 14.0896 19.2999 14.1914C19.1981 14.2933 19.1409 14.4314 19.1409 14.5755V20.6416C19.1409 20.7856 19.1981 20.9238 19.2999 21.0256C19.4018 21.1275 19.5399 21.1847 19.684 21.1847Z"/>
</g>
</g>
</g>
</svg>
