<svg width="32" height="32" viewBox="0 0 32 32" xmlns="http://www.w3.org/2000/svg">
<g>
<g>
<path d="M28.8476 18.3277V18.2346C28.8476 18.0329 28.7842 17.8467 28.6575 17.676L26.9466 14.712L26.9149 14.6809C26.7248 14.4637 26.4713 14.3395 26.1862 14.3395H22.7327L23.5406 11.0807V11.0186C23.5406 10.2427 22.9387 9.60645 22.1783 9.60645H10.107C9.37826 9.60645 8.79213 10.2117 8.7446 10.9565L8.28519 13.1291H4.99014C4.68915 13.1291 4.43569 13.3774 4.43569 13.6722C4.43569 13.9671 4.68915 14.2154 4.99014 14.2154H8.04757L7.74658 15.5965H5.75054C5.44955 15.5965 5.19609 15.8448 5.19609 16.1396C5.19609 16.4345 5.44955 16.6828 5.75054 16.6828H7.5248L7.16044 18.3743H3.24757C2.94658 18.3743 2.69312 18.6226 2.69312 18.9174C2.69312 19.2123 2.94658 19.4606 3.24757 19.4606H6.92282L6.36836 22.0831V22.1452C6.36836 22.9211 6.97034 23.5574 7.7149 23.5574H8.11094C8.12678 24.8144 9.15648 25.8386 10.4238 25.8386C11.6911 25.8386 12.7208 24.8144 12.7367 23.5574H20.9585C20.9743 24.8144 22.004 25.8386 23.2713 25.8386C24.5387 25.8386 25.5684 24.8144 25.5842 23.5574H27.0733L28.8476 18.3277ZM10.4397 24.7523C9.7743 24.7523 9.23569 24.2092 9.23569 23.5263C9.23569 22.8435 9.7743 22.3004 10.4397 22.3004C11.105 22.3004 11.6436 22.8435 11.6436 23.5263C11.6436 24.2092 11.105 24.7523 10.4397 24.7523ZM19.406 22.4711H12.4991C12.1189 21.7262 11.3426 21.2141 10.4397 21.2141C9.53668 21.2141 8.76044 21.7262 8.38024 22.4711H7.73074C7.60401 22.4711 7.50896 22.347 7.49311 22.1918L8.07925 19.4606H11.8179C12.1189 19.4606 12.3723 19.2123 12.3723 18.9174C12.3723 18.6226 12.1189 18.3743 11.8179 18.3743H8.28519L8.64955 16.6828H11.2476C11.5486 16.6828 11.802 16.4345 11.802 16.1396C11.802 15.8448 11.5486 15.5965 11.2476 15.5965H8.88717L9.18816 14.2154H12.8C13.101 14.2154 13.3545 13.9671 13.3545 13.6722C13.3545 13.3774 13.101 13.1291 12.8 13.1291H9.40995L9.85351 11.0807V11.0186C9.85351 10.8324 9.9644 10.6927 10.107 10.6927H22.1941C22.305 10.6927 22.4159 10.8169 22.4317 10.9721L20.0238 20.6089L19.4852 22.4401C19.4535 22.4711 19.4377 22.4711 19.406 22.4711ZM23.303 24.7523C22.6377 24.7523 22.0991 24.2092 22.0991 23.5263C22.0991 22.8435 22.6377 22.3004 23.303 22.3004C23.9684 22.3004 24.507 22.8435 24.507 23.5263C24.507 24.2092 23.9684 24.7523 23.303 24.7523ZM25.3624 22.4711C24.9822 21.7262 24.206 21.2141 23.303 21.2141C22.4 21.2141 21.6238 21.7262 21.2436 22.4711H20.7367C20.7525 22.3935 20.7684 22.3004 20.7684 22.2073L21.101 20.8882L22.701 15.4258H26.0911L27.707 18.2346L26.2971 22.4556H25.3624V22.4711Z"/>
</g>
</g>
</svg>
