<svg width="32" height="32" viewBox="0 0 32 32" xmlns="http://www.w3.org/2000/svg">
<g>
<g clip-path="url(#clip0_9220_24830)">
<path d="M11.7983 19.206C12.2891 19.0388 12.7328 18.7515 13.0912 18.3689C13.4539 17.9836 13.7274 17.5194 13.8915 17.0107C14.0862 16.3939 14.1798 15.7481 14.1685 15.0998C14.1879 14.4716 14.094 13.8452 13.8915 13.252C13.7299 12.7633 13.4674 12.3162 13.1219 11.9412C12.7798 11.5723 12.3581 11.2911 11.8907 11.12C11.3759 10.9377 10.8346 10.8469 10.2901 10.8515H7.9353V19.4745H10.09C10.6697 19.4788 11.2464 19.3882 11.7983 19.206ZM12.9373 15.0998C12.9065 16.2211 12.6602 17.0265 12.1831 17.5793C11.706 18.132 10.9826 18.3847 9.98225 18.3847H9.16655V11.9254H10.2131C10.6107 11.9189 11.0065 11.983 11.3828 12.1149C11.7055 12.2317 11.9959 12.4268 12.2293 12.6835C12.4604 12.9744 12.6377 13.3063 12.7526 13.6626C12.8835 14.1296 12.9458 14.614 12.9373 15.0998Z"/>
<path d="M23.8338 17.4371H23.6799C23.4199 17.4371 23.1625 17.4899 22.9224 17.5925C22.6824 17.6951 22.4646 17.8454 22.2814 18.0348C22.0983 18.2242 21.9535 18.4489 21.8554 18.696C21.7573 18.9431 21.7079 19.2076 21.7099 19.4744V19.5534H23.8338V17.4371Z"/>
<path d="M22.3254 20.0272V20.1061C22.3254 20.6465 22.5346 21.1647 22.9069 21.5467C23.2793 21.9288 23.7843 22.1434 24.3108 22.1434C24.8374 22.1434 25.3424 21.9288 25.7147 21.5467C26.087 21.1647 26.2962 20.6465 26.2962 20.1061C26.3005 19.578 26.1032 19.0692 25.7465 18.6885C25.3899 18.3077 24.9022 18.0853 24.3878 18.0688H24.2954V20.0272H22.3254Z"/>
<path d="M27.8508 15.1788C27.7489 15.0704 27.627 14.9839 27.4923 14.9243C27.3575 14.8646 27.2126 14.833 27.0659 14.8313H26.0039V7.14015C26 6.80064 25.8679 6.47593 25.6354 6.23438C25.4028 5.99283 25.088 5.85328 24.7573 5.84512H18.1393V4.31321C18.1388 4.24362 18.1234 4.17499 18.0941 4.11221C18.0649 4.04943 18.0225 3.99404 17.97 3.94997C17.9193 3.90624 17.8603 3.87382 17.7967 3.85479C17.7331 3.83576 17.6663 3.83052 17.6006 3.83942L4.91876 5.75037C4.62375 5.80216 4.35583 5.9586 4.16174 6.19239C3.96766 6.42619 3.85974 6.72249 3.85681 7.0296V24.9704C3.85974 25.2775 3.96766 25.5738 4.16174 25.8076C4.35583 26.0414 4.62375 26.1979 4.91876 26.2497L17.6006 28.1606H17.6314C17.7474 28.1575 17.86 28.119 17.9546 28.0501C18.0049 28.0041 18.0458 27.9483 18.0748 27.8859C18.1039 27.8235 18.1206 27.7559 18.1239 27.6868V26.1549H19.7553V26.3602C19.7553 26.6534 19.8688 26.9346 20.0709 27.1419C20.2729 27.3492 20.5469 27.4657 20.8327 27.4657H27.0505C27.3362 27.4657 27.6102 27.3492 27.8123 27.1419C28.0143 26.9346 28.1278 26.6534 28.1278 26.3602V15.9368C28.1341 15.7978 28.1128 15.6589 28.0652 15.5286C28.0176 15.3983 27.9446 15.2793 27.8508 15.1788ZM24.2955 13.2362C24.2956 13.1258 24.254 13.0197 24.1793 12.9402C24.1047 12.8606 24.0029 12.8139 23.8954 12.8098H18.1393V11.3253H23.8954C24.0056 11.3253 24.1113 11.2804 24.1892 11.2004C24.2672 11.1204 24.3109 11.012 24.3109 10.8989C24.3109 10.7858 24.2672 10.6773 24.1892 10.5974C24.1113 10.5174 24.0056 10.4725 23.8954 10.4725H18.1393V9.06689H23.8954C24.0056 9.06689 24.1113 9.02197 24.1892 8.942C24.2672 8.86203 24.3109 8.75357 24.3109 8.64048C24.3109 8.52739 24.2672 8.41893 24.1892 8.33897C24.1113 8.259 24.0056 8.21407 23.8954 8.21407H18.1393V6.82429H24.7111C24.7548 6.82215 24.7985 6.82915 24.8395 6.84485C24.8805 6.86056 24.918 6.88465 24.9496 6.91566C24.9813 6.94668 25.0065 6.98396 25.0237 7.02527C25.0409 7.06657 25.0497 7.11103 25.0497 7.15594V14.8471H20.8634C20.722 14.8402 20.5806 14.8633 20.4482 14.9149C20.3158 14.9666 20.1952 15.0456 20.0939 15.1472C19.9943 15.2514 19.9159 15.3749 19.863 15.5104C19.8102 15.646 19.7841 15.7909 19.7861 15.9368V25.1915H18.1393V13.6627H23.8954C24.0029 13.6586 24.1047 13.6118 24.1793 13.5323C24.254 13.4528 24.2956 13.3466 24.2955 13.2362ZM20.6018 15.9368C20.6057 15.8684 20.635 15.8041 20.6837 15.7571C20.7323 15.7101 20.7966 15.684 20.8634 15.6842H27.0659C27.1285 15.6882 27.1872 15.7166 27.2301 15.7635C27.273 15.8105 27.2968 15.8725 27.2967 15.9368V26.3602C27.2968 26.4246 27.273 26.4866 27.2301 26.5335C27.1872 26.5805 27.1285 26.6089 27.0659 26.6129H20.8634C20.7966 26.613 20.7323 26.5869 20.6837 26.5399C20.635 26.4929 20.6057 26.4286 20.6018 26.3602V15.9368ZM17.2005 4.88175V27.1183L5.05728 25.2863C4.98355 25.2725 4.91635 25.234 4.86622 25.1769C4.81609 25.1197 4.78585 25.0471 4.78025 24.9704V7.0296C4.78308 6.952 4.81236 6.87788 4.86299 6.82016C4.91361 6.76244 4.98237 6.72478 5.05728 6.71374L17.2005 4.88175Z"/>
</g>
</g>
<defs>
<clipPath>
<rect width="24.1633" height="24.1633" transform="translate(3.91833 3.91833)"/>
</clipPath>
</defs>
</svg>
