<svg width="32" height="32" viewBox="0 0 32 32" xmlns="http://www.w3.org/2000/svg">
<g>
<g>
<g>
<path d="M19.1398 20.1757L16.5212 22.7943V16.1123C16.5212 15.9653 16.4628 15.8242 16.3588 15.7203C16.2548 15.6163 16.1138 15.5579 15.9667 15.5579C15.8197 15.5579 15.6786 15.6163 15.5747 15.7203C15.4707 15.8242 15.4123 15.9653 15.4123 16.1123V22.7943L12.7936 20.1757C12.6886 20.0706 12.5462 20.0116 12.3976 20.0116C12.2491 20.0116 12.1066 20.0706 12.0016 20.1757C11.8965 20.2807 11.8375 20.4232 11.8375 20.5717C11.8375 20.7203 11.8965 20.8627 12.0016 20.9678L15.5675 24.5337L15.9588 24.925L19.9192 20.9646C20.0242 20.8596 20.0832 20.7171 20.0832 20.5686C20.0832 20.42 20.0242 20.2776 19.9192 20.1725C19.8142 20.0675 19.6717 20.0085 19.5232 20.0085C19.3746 20.0085 19.2322 20.0675 19.1271 20.1725L19.1398 20.1757Z"/>
<path d="M25.4163 15.013C24.9537 14.3557 24.34 13.8192 23.6268 13.4486C22.9136 13.0781 22.1218 12.8844 21.318 12.8839H20.6099C20.2637 11.7933 19.6784 10.7937 18.8965 9.95822C18.1147 9.12273 17.1562 8.47237 16.0909 8.05462C15.0257 7.63688 13.8806 7.46229 12.7392 7.5436C11.5979 7.62491 10.4891 7.96007 9.49384 8.52462C8.49857 9.08916 7.64192 9.86884 6.98645 10.8067C6.33097 11.7446 5.89321 12.817 5.70512 13.9457C5.51703 15.0744 5.58336 16.2308 5.89927 17.3306C6.21518 18.4303 6.77269 19.4457 7.53111 20.3025C7.57809 20.3609 7.63644 20.4092 7.70263 20.4444C7.76881 20.4797 7.84145 20.5011 7.91616 20.5075C7.99087 20.5138 8.06609 20.505 8.13728 20.4814C8.20846 20.4579 8.27413 20.4202 8.33032 20.3705C8.38651 20.3209 8.43204 20.2603 8.46417 20.1926C8.4963 20.1249 8.51435 20.0513 8.51724 19.9764C8.52013 19.9015 8.50779 19.8267 8.48097 19.7567C8.45415 19.6867 8.41341 19.6228 8.36121 19.569C7.70192 18.8242 7.22019 17.9395 6.9523 16.9815C6.68441 16.0236 6.63734 15.0173 6.81463 14.0385C6.99192 13.0597 7.38896 12.1339 7.97584 11.3308C8.56272 10.5277 9.32415 9.86814 10.2028 9.40188C11.0815 8.93562 12.0545 8.67477 13.0485 8.63897C14.0426 8.60317 15.0318 8.79336 15.9418 9.19521C16.8517 9.59707 17.6586 10.2001 18.3017 10.959C18.9448 11.7178 19.4074 12.6126 19.6547 13.5761C19.6853 13.6953 19.7546 13.801 19.8519 13.8764C19.9491 13.9518 20.0686 13.9928 20.1917 13.9928H21.318C22.1473 13.9926 22.9551 14.2566 23.6242 14.7465C24.2932 15.2364 24.7888 15.9268 25.039 16.7174C25.2892 17.5081 25.281 18.3578 25.0155 19.1435C24.7501 19.9291 24.2412 20.6098 23.5628 21.0866C23.4668 21.1544 23.3947 21.2509 23.3571 21.3622C23.3195 21.4735 23.3182 21.5939 23.3535 21.706C23.3887 21.8181 23.4587 21.9161 23.5533 21.9859C23.6478 22.0557 23.7621 22.0936 23.8796 22.0942C23.9933 22.0946 24.1042 22.0592 24.1965 21.9928C25.2827 21.2281 26.0211 20.0637 26.2498 18.7551C26.4785 17.4466 26.1787 16.1007 25.4163 15.013Z"/>
</g>
</g>
</g>
</svg>
