<svg width="38" height="9" viewBox="0 0 38 9" xmlns="http://www.w3.org/2000/svg">
<path d="M5 4.88477V3.80078H2.08008V2.00879H5.47852V0.890625H0.703125V8H5.49316V6.8916H2.08008V4.88477H5ZM11.043 5.34375L12.3809 8H13.8506V7.93652L12.3223 5.00195C12.5176 4.91406 12.6934 4.8099 12.8496 4.68945C13.0091 4.56901 13.1458 4.42741 13.2598 4.26465C13.3704 4.10514 13.4551 3.92448 13.5137 3.72266C13.5755 3.51758 13.6064 3.28809 13.6064 3.03418C13.6064 2.68262 13.5446 2.37337 13.4209 2.10645C13.3005 1.83952 13.1279 1.61654 12.9033 1.4375C12.6755 1.25846 12.402 1.12337 12.083 1.03223C11.764 0.937826 11.4076 0.890625 11.0137 0.890625H8.63086V8H10.0029V5.34375H11.043ZM10.0029 4.23047V2.00391H11.0137C11.2025 2.00391 11.3701 2.02669 11.5166 2.07227C11.6631 2.11784 11.7868 2.18294 11.8877 2.26758C12.0016 2.36198 12.0863 2.48242 12.1416 2.62891C12.2002 2.77214 12.2295 2.93815 12.2295 3.12695C12.2295 3.2832 12.2067 3.4248 12.1611 3.55176C12.1188 3.67871 12.0553 3.78776 11.9707 3.87891C11.8698 3.99284 11.738 4.08073 11.5752 4.14258C11.4157 4.20117 11.2301 4.23047 11.0186 4.23047H10.0029ZM19.0488 5.34375L20.3867 8H21.8564V7.93652L20.3281 5.00195C20.5234 4.91406 20.6992 4.8099 20.8555 4.68945C21.015 4.56901 21.1517 4.42741 21.2656 4.26465C21.3763 4.10514 21.4609 3.92448 21.5195 3.72266C21.5814 3.51758 21.6123 3.28809 21.6123 3.03418C21.6123 2.68262 21.5505 2.37337 21.4268 2.10645C21.3063 1.83952 21.1338 1.61654 20.9092 1.4375C20.6813 1.25846 20.4079 1.12337 20.0889 1.03223C19.7699 0.937826 19.4134 0.890625 19.0195 0.890625H16.6367V8H18.0088V5.34375H19.0488ZM18.0088 4.23047V2.00391H19.0195C19.2083 2.00391 19.376 2.02669 19.5225 2.07227C19.6689 2.11784 19.7926 2.18294 19.8936 2.26758C20.0075 2.36198 20.0921 2.48242 20.1475 2.62891C20.2061 2.77214 20.2354 2.93815 20.2354 3.12695C20.2354 3.2832 20.2126 3.4248 20.167 3.55176C20.1247 3.67871 20.0612 3.78776 19.9766 3.87891C19.8757 3.99284 19.7438 4.08073 19.5811 4.14258C19.4215 4.20117 19.236 4.23047 19.0244 4.23047H18.0088ZM29.6035 4.96777V3.93262C29.6035 3.61035 29.5726 3.30599 29.5107 3.01953C29.4521 2.73307 29.3659 2.4694 29.252 2.22852C29.1478 2.01693 29.0225 1.82324 28.876 1.64746C28.7327 1.47168 28.5651 1.32194 28.373 1.19824C28.181 1.06803 27.9645 0.96875 27.7236 0.900391C27.486 0.828776 27.2305 0.792969 26.957 0.792969C26.6868 0.792969 26.4362 0.827148 26.2051 0.895508C25.974 0.963867 25.7656 1.06152 25.5801 1.18848C25.3913 1.31868 25.2236 1.47493 25.0771 1.65723C24.9339 1.83952 24.8118 2.04297 24.7109 2.26758C24.6068 2.50521 24.527 2.764 24.4717 3.04395C24.4196 3.32389 24.3936 3.62012 24.3936 3.93262V4.96777C24.3936 5.26074 24.4163 5.53906 24.4619 5.80273C24.5107 6.06641 24.5807 6.31055 24.6719 6.53516C24.7728 6.7793 24.8981 6.99902 25.0479 7.19434C25.1976 7.38639 25.3669 7.55078 25.5557 7.6875C25.7477 7.81771 25.9609 7.91862 26.1953 7.99023C26.4297 8.06185 26.6852 8.09766 26.9619 8.09766C27.2223 8.09766 27.4648 8.0651 27.6895 8C27.9173 7.93815 28.1257 7.85026 28.3145 7.73633C28.5228 7.60612 28.7083 7.44336 28.8711 7.24805C29.0339 7.05273 29.1706 6.83789 29.2812 6.60352C29.3854 6.36914 29.4652 6.11523 29.5205 5.8418C29.5758 5.5651 29.6035 5.27376 29.6035 4.96777ZM28.2119 3.92285V4.96777C28.2119 5.14355 28.2021 5.31283 28.1826 5.47559C28.1663 5.63835 28.1403 5.78809 28.1045 5.9248C28.0589 6.10059 27.9971 6.25846 27.9189 6.39844C27.8441 6.53516 27.7513 6.64909 27.6406 6.74023C27.5527 6.8151 27.4518 6.87207 27.3379 6.91113C27.224 6.9502 27.0986 6.96973 26.9619 6.96973C26.8187 6.96973 26.6901 6.94857 26.5762 6.90625C26.4655 6.86393 26.3662 6.80371 26.2783 6.72559C26.1839 6.6377 26.1009 6.52376 26.0293 6.38379C25.9609 6.24056 25.9089 6.08268 25.873 5.91016C25.8405 5.77344 25.8177 5.62533 25.8047 5.46582C25.7917 5.30632 25.7852 5.1403 25.7852 4.96777V3.92285C25.7852 3.74056 25.7917 3.56641 25.8047 3.40039C25.821 3.23438 25.8454 3.08138 25.8779 2.94141C25.9202 2.75911 25.9788 2.59961 26.0537 2.46289C26.1318 2.32617 26.2262 2.21224 26.3369 2.12109C26.4183 2.05924 26.5094 2.01204 26.6104 1.97949C26.7145 1.94694 26.8301 1.93066 26.957 1.93066C27.0905 1.93066 27.2109 1.94857 27.3184 1.98438C27.429 2.02018 27.5283 2.07064 27.6162 2.13574C27.7269 2.22363 27.8229 2.33757 27.9043 2.47754C27.9857 2.61426 28.0508 2.77051 28.0996 2.94629C28.1387 3.08626 28.1663 3.23926 28.1826 3.40527C28.2021 3.56803 28.2119 3.74056 28.2119 3.92285ZM35.0605 5.34375L36.3984 8H37.8682V7.93652L36.3398 5.00195C36.5352 4.91406 36.7109 4.8099 36.8672 4.68945C37.0267 4.56901 37.1634 4.42741 37.2773 4.26465C37.388 4.10514 37.4727 3.92448 37.5312 3.72266C37.5931 3.51758 37.624 3.28809 37.624 3.03418C37.624 2.68262 37.5622 2.37337 37.4385 2.10645C37.318 1.83952 37.1455 1.61654 36.9209 1.4375C36.693 1.25846 36.4196 1.12337 36.1006 1.03223C35.7816 0.937826 35.4251 0.890625 35.0312 0.890625H32.6484V8H34.0205V5.34375H35.0605ZM34.0205 4.23047V2.00391H35.0312C35.2201 2.00391 35.3877 2.02669 35.5342 2.07227C35.6807 2.11784 35.8044 2.18294 35.9053 2.26758C36.0192 2.36198 36.1038 2.48242 36.1592 2.62891C36.2178 2.77214 36.2471 2.93815 36.2471 3.12695C36.2471 3.2832 36.2243 3.4248 36.1787 3.55176C36.1364 3.67871 36.0729 3.78776 35.9883 3.87891C35.8874 3.99284 35.7555 4.08073 35.5928 4.14258C35.4333 4.20117 35.2477 4.23047 35.0361 4.23047H34.0205Z"/>
</svg>
