<svg width="32" height="32" viewBox="0 0 32 32" xmlns="http://www.w3.org/2000/svg">
<g>
<g clip-path="url(#clip0_9220_24842)">
<path d="M26.0979 5.69169H19.2407V4.06909C19.2366 3.94838 19.186 3.83415 19.0998 3.75093C19.0551 3.71174 19.0025 3.68291 18.9458 3.66643C18.889 3.64994 18.8294 3.64621 18.7711 3.65548L5.7143 5.61215C5.42665 5.65766 5.16446 5.80609 4.97501 6.03068C4.78556 6.25528 4.6813 6.54125 4.68103 6.83706V25.163C4.6813 25.4588 4.78556 25.7447 4.97501 25.9693C5.16446 26.1939 5.42665 26.3424 5.7143 26.3879L18.7711 28.3445H18.8337C18.9331 28.3431 19.0282 28.3033 19.0998 28.2332C19.1844 28.1424 19.2344 28.024 19.2407 27.8991V26.2606H26.0979C26.419 26.2606 26.7273 26.1321 26.9558 25.9028C27.1844 25.6736 27.3149 25.362 27.319 25.0357V6.93251C27.319 6.60342 27.1903 6.28782 26.9613 6.05512C26.7323 5.82242 26.4217 5.69169 26.0979 5.69169ZM18.4423 6.12121V27.4219L5.83954 25.5607C5.74001 25.545 5.64971 25.4925 5.5861 25.4132C5.52248 25.3338 5.49007 25.2333 5.49512 25.1311V6.82115C5.49396 6.72164 5.52814 6.62504 5.5914 6.54907C5.65467 6.4731 5.74277 6.42285 5.83954 6.40755L18.4423 4.53042V6.12121ZM19.2407 9.39823H21.2603V10.2254H19.2407V9.39823ZM19.2407 13.5184H21.2603V14.3456H19.2407V13.5184ZM19.2407 17.6385H21.2603V18.4498H19.2407V17.6385ZM19.2407 21.7269H21.2603V22.5541H19.2407V21.7269ZM26.5206 25.0357C26.5165 25.1468 26.4702 25.252 26.3914 25.3292C26.3125 25.4063 26.2073 25.4494 26.0979 25.4493H19.2407V23.3813H24.0939C24.3057 23.3813 24.5088 23.2958 24.6585 23.1437C24.8083 22.9915 24.8924 22.7851 24.8924 22.57V21.7428C24.8924 21.5261 24.8088 21.3181 24.6595 21.1634C24.5102 21.0087 24.3071 20.9197 24.0939 20.9156H19.2407V19.2611H24.0939C24.2001 19.2612 24.3053 19.2397 24.4032 19.1979C24.5011 19.1561 24.5898 19.0949 24.6641 19.0179C24.7385 18.9409 24.797 18.8496 24.8362 18.7493C24.8754 18.649 24.8945 18.5418 24.8924 18.4339V17.6226C24.8945 17.5147 24.8754 17.4075 24.8362 17.3073C24.797 17.207 24.7385 17.1157 24.6641 17.0386C24.5898 16.9616 24.5011 16.9004 24.4032 16.8586C24.3053 16.8169 24.2001 16.7954 24.0939 16.7954H19.2407V15.141H24.0939C24.2001 15.141 24.3053 15.1195 24.4032 15.0777C24.5011 15.036 24.5898 14.9748 24.6641 14.8978C24.7385 14.8207 24.797 14.7294 24.8362 14.6291C24.8754 14.5289 24.8945 14.4216 24.8924 14.3138V13.4866C24.8924 13.2699 24.8088 13.0619 24.6595 12.9072C24.5102 12.7525 24.3071 12.6635 24.0939 12.6594H19.2407V11.0527H24.0939C24.2001 11.0527 24.3053 11.0312 24.4032 10.9894C24.5011 10.9476 24.5898 10.8865 24.6641 10.8094C24.7385 10.7324 24.797 10.6411 24.8362 10.5408C24.8754 10.4405 24.8945 10.3333 24.8924 10.2254V9.39823C24.8924 9.18157 24.8088 8.97354 24.6595 8.81886C24.5102 8.66418 24.3071 8.57519 24.0939 8.57102H19.2407V6.53481H26.0979C26.2073 6.53473 26.3125 6.5778 26.3914 6.65494C26.4702 6.73208 26.5165 6.83728 26.5206 6.94842V25.0357ZM22.0744 22.57V21.7428H24.0939V22.57H22.0744ZM22.0744 18.4498V17.6385H24.0939V18.4498H22.0744ZM22.0744 14.3297V13.5025H24.0939V14.3297H22.0744ZM22.0744 10.2254V9.39823H24.0939V10.2254H22.0744Z"/>
<path d="M8.87667 19.5792C8.95839 19.647 9.06282 19.6799 9.16796 19.671C9.2731 19.6621 9.37074 19.6121 9.44028 19.5315L11.7886 16.6362L14.4814 19.9451C14.5194 19.9916 14.5674 20.0286 14.6217 20.0534C14.6759 20.0782 14.735 20.0901 14.7945 20.0882C14.8869 20.0903 14.9766 20.0561 15.045 19.9928C15.1267 19.9244 15.1789 19.8263 15.1906 19.7194C15.2023 19.6124 15.1725 19.5051 15.1076 19.4201L12.3209 15.984L15.0919 12.5479C15.1309 12.5106 15.1607 12.4645 15.1791 12.4135C15.1975 12.3624 15.2039 12.3076 15.1978 12.2536C15.1917 12.1995 15.1733 12.1477 15.1441 12.1021C15.1148 12.0566 15.0755 12.0186 15.0293 11.9911C14.9898 11.9541 14.9429 11.9262 14.8918 11.9091C14.8407 11.8921 14.7867 11.8864 14.7332 11.8925C14.6798 11.8985 14.6283 11.9161 14.5821 11.9441C14.536 11.9721 14.4963 12.0098 14.4657 12.0548L11.7886 15.3318L9.44028 12.4365C9.36844 12.3721 9.27655 12.3355 9.18076 12.3331C9.08497 12.3308 8.99144 12.3628 8.91662 12.4237C8.8418 12.4845 8.7905 12.5702 8.77174 12.6656C8.75297 12.7611 8.76796 12.8602 8.81405 12.9456L11.272 15.9681L8.81405 18.9906C8.74819 19.0781 8.71797 19.1881 8.72962 19.2976C8.74128 19.4072 8.79393 19.508 8.87667 19.5792Z"/>
</g>
</g>
<defs>
<clipPath>
<rect width="22.8571" height="24.8163" transform="translate(4.57141 3.5918)"/>
</clipPath>
</defs>
</svg>
