<svg width="32" height="32" viewBox="0 0 32 32" xmlns="http://www.w3.org/2000/svg">
<g>
<g>
<path d="M12.8966 5.901L13.4574 20.1584H18.1449L18.7057 5.901H12.8966ZM17.0788 19.0495H14.5235L14.0483 7.00991H17.5524L17.0788 19.0495ZM15.8004 21.703C15.3392 21.703 14.8883 21.8397 14.5048 22.096C14.1214 22.3522 13.8225 22.7164 13.646 23.1425C13.4695 23.5686 13.4233 24.0374 13.5133 24.4898C13.6033 24.9421 13.8254 25.3576 14.1515 25.6838C14.4776 26.0099 14.8931 26.232 15.3454 26.3219C15.7978 26.4119 16.2666 26.3657 16.6927 26.1892C17.1188 26.0127 17.483 25.7139 17.7393 25.3304C17.9955 24.9469 18.1322 24.4961 18.1322 24.0349C18.1314 23.4167 17.8855 22.824 17.4483 22.3869C17.0112 21.9498 16.4186 21.7038 15.8004 21.703ZM15.8004 25.2578C15.5585 25.2578 15.322 25.1861 15.1209 25.0517C14.9198 24.9173 14.7631 24.7263 14.6705 24.5029C14.5779 24.2794 14.5537 24.0335 14.6009 23.7963C14.6481 23.559 14.7646 23.3411 14.9356 23.1701C15.1066 22.9991 15.3245 22.8826 15.5618 22.8354C15.799 22.7882 16.0449 22.8124 16.2684 22.905C16.4918 22.9975 16.6828 23.1543 16.8172 23.3554C16.9516 23.5565 17.0233 23.793 17.0233 24.0349C17.0204 24.3576 16.8904 24.6661 16.6614 24.8936C16.4325 25.1211 16.1231 25.2491 15.8004 25.2499V25.2578Z"/>
</g>
</g>
</svg>
