<svg width="32" height="32" viewBox="0 0 32 32" xmlns="http://www.w3.org/2000/svg">
<g>
<g>
<g>
<path d="M19.4 4.9679C19.2559 4.9679 19.1178 5.02631 19.0159 5.13029C18.914 5.23427 18.8568 5.3753 18.8568 5.52235C18.8568 5.6694 18.914 5.81043 19.0159 5.91441C19.1178 6.01839 19.2559 6.07681 19.4 6.07681H24.9617L18.3633 12.8126C18.2604 12.9177 18.2026 13.0601 18.2026 13.2087C18.2026 13.3572 18.2604 13.4997 18.3633 13.6047C18.4662 13.7098 18.6058 13.7688 18.7513 13.7688C18.8968 13.7688 19.0364 13.7098 19.1392 13.6047L25.7299 6.86255V12.5386C25.7299 12.6856 25.7871 12.8267 25.8889 12.9306C25.9908 13.0346 26.129 13.093 26.273 13.093C26.4171 13.093 26.5552 13.0346 26.6571 12.9306C26.7589 12.8267 26.8161 12.6856 26.8161 12.5386V4.9679H19.4Z"/>
<path d="M23.7667 15.4549C23.6226 15.4549 23.4845 15.5134 23.3826 15.6173C23.2808 15.7213 23.2235 15.8624 23.2235 16.0094V25.9595H6.24344V8.62564H15.9393C16.0833 8.62564 16.2215 8.56722 16.3233 8.46324C16.4252 8.35926 16.4824 8.21823 16.4824 8.07118C16.4824 7.92413 16.4252 7.7831 16.3233 7.67912C16.2215 7.57514 16.0833 7.51673 15.9393 7.51673H5.69719C5.62581 7.51652 5.55509 7.53072 5.4891 7.55851C5.42311 7.5863 5.36316 7.62713 5.31268 7.67866C5.2622 7.73018 5.2222 7.79139 5.19498 7.85875C5.16776 7.92612 5.15385 7.99831 5.15405 8.07118V26.514C5.15385 26.5868 5.16776 26.659 5.19498 26.7264C5.2222 26.7938 5.2622 26.855 5.31268 26.9065C5.36316 26.958 5.42311 26.9988 5.4891 27.0266C5.55509 27.0544 5.62581 27.0686 5.69719 27.0684H23.7667C23.8381 27.0686 23.9088 27.0544 23.9748 27.0266C24.0408 26.9988 24.1007 26.958 24.1512 26.9065C24.2017 26.855 24.2417 26.7938 24.2689 26.7264C24.2961 26.659 24.31 26.5868 24.3098 26.514V16.0094C24.3098 15.8624 24.2526 15.7213 24.1507 15.6173C24.0489 15.5134 23.9107 15.4549 23.7667 15.4549Z"/>
</g>
</g>
</g>
</svg>
