<svg width="32" height="32" viewBox="0 0 32 32" xmlns="http://www.w3.org/2000/svg">
<g>
<g>
<path d="M18.0976 10.3271H21.0694C21.2165 10.3271 21.3575 10.2687 21.4615 10.1647C21.5655 10.0607 21.6239 9.91971 21.6239 9.77266V5.81227C21.6239 5.66522 21.5655 5.52419 21.4615 5.42021C21.3575 5.31623 21.2165 5.25781 21.0694 5.25781H18.0976C16.6381 5.25949 15.2388 5.84001 14.2068 6.87203C13.1748 7.90404 12.5943 9.30327 12.5926 10.7628V13.1786H10.1768C10.0297 13.1786 9.88869 13.237 9.78471 13.341C9.68073 13.445 9.62231 13.586 9.62231 13.7331V17.6935C9.62231 17.8405 9.68073 17.9815 9.78471 18.0855C9.88869 18.1895 10.0297 18.2479 10.1768 18.2479H12.5926V25.6142C12.5926 25.7613 12.651 25.9023 12.755 26.0063C12.859 26.1103 13 26.1687 13.1471 26.1687H17.1075C17.2545 26.1687 17.3955 26.1103 17.4995 26.0063C17.6035 25.9023 17.6619 25.7613 17.6619 25.6142V18.2479H20.0778C20.2015 18.2481 20.3218 18.2068 20.4194 18.1308C20.517 18.0547 20.5863 17.9482 20.6164 17.8281L21.6065 13.8677C21.6264 13.786 21.6277 13.7008 21.6101 13.6185C21.5926 13.5362 21.5567 13.459 21.5051 13.3925C21.4535 13.326 21.3875 13.2722 21.312 13.2352C21.2365 13.1981 21.1535 13.1788 21.0694 13.1786H17.6635V10.7628C17.6635 10.6475 17.7092 10.5369 17.7905 10.4553C17.8719 10.3736 17.9823 10.3275 18.0976 10.3271ZM17.1075 14.2875H20.3582L19.6453 17.139H17.1091C16.962 17.139 16.821 17.1974 16.717 17.3014C16.613 17.4054 16.5546 17.5464 16.5546 17.6935V25.0598H13.7031V17.6935C13.7031 17.5464 13.6447 17.4054 13.5407 17.3014C13.4367 17.1974 13.2957 17.139 13.1487 17.139H10.7312V14.2875H13.1487C13.2957 14.2875 13.4367 14.2291 13.5407 14.1251C13.6447 14.0211 13.7031 13.8801 13.7031 13.7331V10.7628C13.7044 9.59725 14.1679 8.47983 14.9921 7.65568C15.8162 6.83154 16.9336 6.36798 18.0991 6.36672H20.515V9.21821H18.0976C17.6881 9.21863 17.2954 9.38149 17.0059 9.67106C16.7163 9.96063 16.5534 10.3533 16.553 10.7628V13.7331C16.553 13.806 16.5674 13.8782 16.5954 13.9456C16.6233 14.013 16.6643 14.0742 16.716 14.1257C16.7676 14.1772 16.8289 14.218 16.8964 14.2458C16.9638 14.2735 17.0361 14.2877 17.1091 14.2875H17.1075Z"/>
</g>
</g>
</svg>
