<svg width="32" height="32" viewBox="0 0 32 32" xmlns="http://www.w3.org/2000/svg">
<g>
<g clip-path="url(#clip0_9220_24854)">
<path d="M21.2541 21.8609C21.1706 21.8609 21.0906 21.894 21.0316 21.9529C20.9726 22.0118 20.9395 22.0918 20.9395 22.1751V25.7891H5.88521V11.569H10.5572C10.6407 11.569 10.7207 11.5359 10.7797 11.477C10.8387 11.418 10.8718 11.3381 10.8718 11.2548V6.21097H20.9395V11.5376C20.9395 11.6209 20.9726 11.7009 21.0316 11.7598C21.0906 11.8187 21.1706 11.8518 21.2541 11.8518C21.3375 11.8518 21.4175 11.8187 21.4765 11.7598C21.5355 11.7009 21.5687 11.6209 21.5687 11.5376V5.89671C21.5687 5.81337 21.5355 5.73344 21.4765 5.6745C21.4175 5.61557 21.3375 5.58246 21.2541 5.58246H10.3685L10.337 5.61388L5.33463 11.0348H5.30317C5.30317 11.0505 5.28744 11.0505 5.28744 11.0662C5.28744 11.0819 5.27171 11.0819 5.27171 11.0976C5.27171 11.1133 5.27171 11.1133 5.25598 11.1291V26.0719C5.25598 26.1552 5.28913 26.2352 5.34813 26.2941C5.40713 26.353 5.48715 26.3861 5.57059 26.3861H21.2541C21.3375 26.3861 21.4175 26.353 21.4765 26.2941C21.5355 26.2352 21.5687 26.1552 21.5687 26.0719V22.1437C21.5609 22.0659 21.5243 21.9938 21.4661 21.9415C21.4079 21.8892 21.3323 21.8605 21.2541 21.8609ZM6.29421 10.9405L10.2426 6.69806V10.9405H6.29421Z"/>
<path d="M7.70988 22.8351H15.2134C15.2968 22.8351 15.3769 22.8019 15.4359 22.743C15.4949 22.6841 15.528 22.6041 15.528 22.5208C15.528 22.4375 15.4949 22.3575 15.4359 22.2986C15.3769 22.2397 15.2968 22.2065 15.2134 22.2065H7.70988C7.62644 22.2065 7.54641 22.2397 7.48741 22.2986C7.42841 22.3575 7.39526 22.4375 7.39526 22.5208C7.39526 22.6041 7.42841 22.6841 7.48741 22.743C7.54641 22.8019 7.62644 22.8351 7.70988 22.8351Z"/>
<path d="M7.70988 20.1167H14.3797C14.4631 20.1167 14.5431 20.0836 14.6021 20.0247C14.6611 19.9658 14.6943 19.8858 14.6943 19.8025C14.6943 19.7191 14.6611 19.6392 14.6021 19.5803C14.5431 19.5213 14.4631 19.4882 14.3797 19.4882H7.70988C7.62644 19.4882 7.54641 19.5213 7.48741 19.5803C7.42841 19.6392 7.39526 19.7191 7.39526 19.8025C7.39526 19.8858 7.42841 19.9658 7.48741 20.0247C7.54641 20.0836 7.62644 20.1167 7.70988 20.1167Z"/>
<path d="M16.3617 17.2728C16.3617 17.1894 16.3286 17.1095 16.2696 17.0505C16.2106 16.9916 16.1306 16.9585 16.0471 16.9585H7.70988C7.62644 16.9585 7.54641 16.9916 7.48741 17.0505C7.42841 17.1095 7.39526 17.1894 7.39526 17.2728C7.39526 17.3561 7.42841 17.436 7.48741 17.495C7.54641 17.5539 7.62644 17.587 7.70988 17.587H16.0471C16.1306 17.587 16.2106 17.5539 16.2696 17.495C16.3286 17.436 16.3617 17.3561 16.3617 17.2728Z"/>
<path d="M18.8629 14.7272C18.8629 14.6439 18.8298 14.5639 18.7708 14.505C18.7118 14.4461 18.6318 14.413 18.5483 14.413H7.70988C7.62644 14.413 7.54641 14.4461 7.48741 14.505C7.42841 14.5639 7.39526 14.6439 7.39526 14.7272C7.39526 14.8106 7.42841 14.8905 7.48741 14.9494C7.54641 15.0084 7.62644 15.0415 7.70988 15.0415H18.5483C18.6318 15.0415 18.7118 15.0084 18.7708 14.9494C18.8298 14.8905 18.8629 14.8106 18.8629 14.7272Z"/>
<path d="M26.7283 11.5376C26.6922 11.3147 26.5744 11.1131 26.398 10.972L25.0923 9.99779C25.0065 9.93056 24.9077 9.88187 24.8021 9.85482C24.6965 9.82777 24.5864 9.82295 24.4788 9.84066C24.373 9.85408 24.271 9.88885 24.1791 9.94288C24.0871 9.9969 24.0071 10.069 23.944 10.1549L22.9687 11.4748L22.9215 11.5219C22.9052 11.5395 22.8943 11.5613 22.89 11.5848L16.409 20.3211H16.3933C16.3289 20.4247 16.2961 20.5448 16.2989 20.6667L16.3618 22.4423C16.3618 22.5798 16.4165 22.7117 16.5138 22.8089C16.6112 22.9062 16.7432 22.9608 16.8809 22.9608H17.0068L18.7214 22.5209C18.7863 22.5083 18.8479 22.4822 18.9021 22.4443C18.9563 22.4064 19.0019 22.3575 19.036 22.3009L25.5485 13.5017L26.571 12.1347C26.6354 12.0505 26.6825 11.9544 26.7095 11.8519C26.7365 11.7494 26.7429 11.6426 26.7283 11.5376ZM18.5484 21.9238L16.991 22.3323L16.9281 20.6667L23.2361 12.1504L24.8564 13.376L18.5484 21.9238ZM26.0676 11.7576L25.2339 12.8889L23.6136 11.6633L24.4474 10.532C24.4603 10.5145 24.4768 10.4998 24.4958 10.489C24.5148 10.4782 24.5358 10.4714 24.5575 10.4692C24.6047 10.4692 24.6676 10.4692 24.6991 10.5163L26.0047 11.4905C26.0275 11.5068 26.0464 11.5279 26.06 11.5524C26.0736 11.5768 26.0816 11.604 26.0834 11.6319C26.1148 11.6476 26.1148 11.6948 26.0676 11.7576Z"/>
</g>
</g>
<defs>
<clipPath>
<rect width="21.551" height="20.898" transform="translate(5.22449 5.55103)"/>
</clipPath>
</defs>
</svg>
