<svg width="46" height="8" viewBox="0 0 46 8" xmlns="http://www.w3.org/2000/svg">
<path d="M5.13379 5.05566V3.94238H2.08691V2.00879H5.51465V0.890625H0.709961V8H2.08691V5.05566H5.13379ZM8.93066 0.890625V1.99902H10.2832V6.89648H8.93066V8H13.042V6.89648H11.6553V1.99902H13.042V0.890625H8.93066ZM18.1035 6.8916V0.890625H16.7266V8H21.4336V6.8916H18.1035ZM29.8643 2.00879V0.890625H24.1318V2.00879H26.2949V8H27.6719V2.00879H29.8643ZM37.0205 4.88477V3.80078H34.1006V2.00879H37.499V0.890625H32.7236V8H37.5137V6.8916H34.1006V4.88477H37.0205ZM43.0635 5.34375L44.4014 8H45.8711V7.93652L44.3428 5.00195C44.5381 4.91406 44.7139 4.8099 44.8701 4.68945C45.0296 4.56901 45.1663 4.42741 45.2803 4.26465C45.391 4.10514 45.4756 3.92448 45.5342 3.72266C45.596 3.51758 45.627 3.28809 45.627 3.03418C45.627 2.68262 45.5651 2.37337 45.4414 2.10645C45.321 1.83952 45.1484 1.61654 44.9238 1.4375C44.696 1.25846 44.4225 1.12337 44.1035 1.03223C43.7845 0.937826 43.4281 0.890625 43.0342 0.890625H40.6514V8H42.0234V5.34375H43.0635ZM42.0234 4.23047V2.00391H43.0342C43.223 2.00391 43.3906 2.02669 43.5371 2.07227C43.6836 2.11784 43.8073 2.18294 43.9082 2.26758C44.0221 2.36198 44.1068 2.48242 44.1621 2.62891C44.2207 2.77214 44.25 2.93815 44.25 3.12695C44.25 3.2832 44.2272 3.4248 44.1816 3.55176C44.1393 3.67871 44.0758 3.78776 43.9912 3.87891C43.8903 3.99284 43.7585 4.08073 43.5957 4.14258C43.4362 4.20117 43.2507 4.23047 43.0391 4.23047H42.0234Z"/>
</svg>
