<svg width="32" height="32" viewBox="0 0 32 32" xmlns="http://www.w3.org/2000/svg">
<g>
<g clip-path="url(#clip0_9220_24858)">
<path d="M13.8057 23.6156H11.9719C11.7905 23.6187 11.6138 23.5569 11.4732 23.4412C11.3326 23.3256 11.2372 23.1634 11.2039 22.9836L10.9531 21.5616L9.5582 20.9296L8.50808 21.7196C8.35963 21.8231 8.18031 21.8717 8.00041 21.8573C7.82051 21.8429 7.65105 21.7664 7.52065 21.6406L6.23542 20.3924C6.10708 20.2746 6.02413 20.1149 6.00119 19.9415C5.97825 19.768 6.01679 19.592 6.11003 19.4444L6.90938 18.0698L6.37648 16.9006L4.93452 16.6004C4.75742 16.5703 4.59687 16.4772 4.48189 16.3382C4.3669 16.1991 4.30508 16.0231 4.30759 15.842V14.0725C4.30497 13.9009 4.35896 13.7333 4.4611 13.596C4.56323 13.4588 4.70771 13.3596 4.87183 13.3141L6.29812 12.9191L6.78399 11.5761L6.09436 10.5175C5.99611 10.371 5.95173 10.1945 5.96891 10.0185C5.98608 9.8425 6.06372 9.67809 6.1884 9.5537L7.53632 8.14751C7.66229 8.00946 7.83454 7.92336 8.01981 7.90585C8.20507 7.88834 8.39019 7.94067 8.53942 8.05271L9.65224 8.8585L10.8748 8.24231L11.2196 6.85192C11.2638 6.67904 11.3627 6.52539 11.5012 6.41421C11.6398 6.30303 11.8105 6.24037 11.9876 6.23573H13.8057C13.9894 6.23324 14.1679 6.29724 14.3088 6.41609C14.4498 6.53495 14.5437 6.70079 14.5737 6.88352L14.8245 8.28971L16.1724 8.8427L17.2068 8.08431C17.2831 8.02281 17.3714 7.97833 17.466 7.95382C17.5606 7.9293 17.6592 7.92531 17.7554 7.94211C17.9277 7.96883 18.084 8.05888 18.1943 8.19491L19.5422 9.3799H19.5579C19.685 9.50943 19.7639 9.67928 19.781 9.86069C19.7981 10.0421 19.7525 10.2239 19.6519 10.3753L18.8526 11.5761L19.3855 12.9349L20.7647 13.2351C20.9376 13.2714 21.0927 13.3666 21.204 13.5048C21.3154 13.6429 21.3761 13.8155 21.376 13.9935V15.7156C21.376 15.8978 21.3136 16.0743 21.1994 16.2154C21.0852 16.3565 20.9261 16.4534 20.7491 16.4898L19.4168 16.7742L18.8682 18.0698L19.6362 19.1916C19.7427 19.334 19.7936 19.5108 19.7791 19.6886C19.7647 19.8663 19.6859 20.0324 19.5579 20.1554L18.2883 21.53C18.1626 21.6674 17.9917 21.7543 17.8073 21.7747C17.6229 21.795 17.4375 21.7474 17.2852 21.6406L16.1254 20.8348L14.7931 21.451L14.5737 22.9362C14.5506 23.1247 14.4597 23.298 14.318 23.4233C14.1764 23.5486 13.9941 23.617 13.8057 23.6156ZM11.9876 22.8256H13.8057L14.0095 21.3404C14.0244 21.2102 14.0748 21.0867 14.155 20.9835C14.2352 20.8803 14.3421 20.8015 14.464 20.7558L15.7806 20.1396C15.9014 20.0758 16.0377 20.0479 16.1736 20.0591C16.3096 20.0703 16.4396 20.1201 16.5486 20.2028L17.7084 20.9928L18.978 19.6182L18.1943 18.4964C18.1156 18.3851 18.0682 18.2543 18.0571 18.118C18.0461 17.9817 18.0718 17.845 18.1316 17.7222L18.6802 16.4424C18.7252 16.3297 18.7976 16.2301 18.8907 16.1528C18.9838 16.0755 19.0946 16.023 19.2131 16H19.2287L20.5766 15.7156V14.0093L19.1974 13.6933C19.0721 13.6655 18.9559 13.606 18.8599 13.5202C18.7639 13.4345 18.6912 13.3255 18.6488 13.2035L18.1002 11.8447C18.0537 11.7254 18.0379 11.5962 18.0544 11.4691C18.0708 11.342 18.119 11.2211 18.1943 11.1179L18.978 9.9487L17.63 8.76371H17.6144L16.6269 9.4747C16.5215 9.55067 16.399 9.5991 16.2705 9.61565C16.1419 9.63219 16.0113 9.61633 15.8903 9.5695L14.5267 9.0165C14.4078 8.9728 14.3021 8.89897 14.2197 8.80211C14.1374 8.70525 14.0811 8.58863 14.0565 8.46351V8.43191L13.79 7.02572H11.9876L11.6428 8.41611C11.6169 8.52812 11.5651 8.63236 11.4915 8.72025C11.418 8.80815 11.3248 8.87719 11.2196 8.9217L9.99706 9.5537C9.87335 9.61703 9.73468 9.64465 9.59638 9.6335C9.45807 9.62235 9.32552 9.57285 9.21338 9.4905L8.10057 8.70051L6.75265 10.0909L7.45795 11.1653C7.52168 11.2681 7.56055 11.3846 7.57144 11.5054C7.58233 11.6261 7.56493 11.7477 7.52065 11.8605L7.05044 13.1877H7.03477C6.99241 13.2999 6.92522 13.4009 6.83831 13.4831C6.7514 13.5652 6.64706 13.6263 6.53322 13.6617L5.09126 14.0725V15.842L6.51755 16.158C6.64216 16.1744 6.76018 16.2241 6.85938 16.3018C6.95858 16.3796 7.03537 16.4827 7.08179 16.6004L7.61469 17.7854C7.66381 17.8984 7.68654 18.0213 7.6811 18.1446C7.67567 18.2679 7.64222 18.3882 7.58334 18.4964L6.78399 19.871L8.05354 21.0876L9.13501 20.2976C9.24548 20.2183 9.37518 20.1705 9.51038 20.1594C9.64558 20.1482 9.78124 20.1742 9.90301 20.2344L11.298 20.8664C11.415 20.9172 11.517 20.9978 11.5939 21.1003C11.6709 21.2028 11.7201 21.3236 11.7368 21.451L11.9876 22.8256Z"/>
<path d="M23.0844 25.7643C22.9941 25.7692 22.9051 25.7412 22.8336 25.6853C22.7767 25.6494 22.7288 25.6008 22.6935 25.5433C22.6581 25.4858 22.6364 25.4208 22.6298 25.3535L22.5358 24.7531L22.0029 24.5161L21.5484 24.8479H21.5327C21.4383 24.9072 21.327 24.9332 21.2163 24.9217C21.1057 24.9103 21.0019 24.8621 20.9214 24.7847L20.3102 24.2001C20.2284 24.1224 20.176 24.0185 20.1617 23.9061C20.1474 23.7938 20.1722 23.6799 20.2318 23.5839L20.5766 22.9993L20.3885 22.5885L19.7616 22.4463C19.651 22.4213 19.552 22.3593 19.4809 22.2704C19.4097 22.1814 19.3706 22.0708 19.3698 21.9565V21.1349C19.3619 21.0785 19.3663 21.0211 19.3825 20.9666C19.3987 20.912 19.4265 20.8617 19.4638 20.8189C19.5269 20.7284 19.6224 20.666 19.7303 20.6451L20.3572 20.4713L20.5453 19.9499L20.2632 19.4918C20.2023 19.3983 20.1739 19.2871 20.1824 19.1756C20.1909 19.0641 20.2358 18.9586 20.3102 18.8756L20.9528 18.212C21.0344 18.1308 21.1411 18.0802 21.2552 18.0687C21.3693 18.0572 21.4838 18.0855 21.5797 18.1488H21.5954L22.0656 18.4806L22.5201 18.2436L22.6769 17.659C22.6959 17.5446 22.7559 17.4413 22.8454 17.3685C22.9349 17.2957 23.0478 17.2585 23.1627 17.264H24.0091C24.1148 17.25 24.2217 17.2784 24.3069 17.343C24.3623 17.3805 24.4091 17.4295 24.4442 17.4868C24.4794 17.544 24.502 17.6081 24.5107 17.6748L24.6047 18.291L25.1063 18.4964L25.5294 18.1804C25.6549 18.0982 25.8034 18.0594 25.9526 18.0698C25.9916 18.0685 26.0302 18.0765 26.0656 18.0929C26.101 18.1094 26.132 18.1339 26.1564 18.1646L26.8147 18.7334H26.8303C26.9071 18.8145 26.9549 18.9191 26.9663 19.0306C26.9776 19.1422 26.9518 19.2544 26.893 19.3496L26.5482 19.8867L26.7206 20.4239L27.3005 20.5503C27.4111 20.5753 27.5101 20.6374 27.5813 20.7263C27.6524 20.8153 27.6916 20.9259 27.6924 21.0401V21.8459C27.6945 21.961 27.6564 22.0731 27.5848 22.1626C27.5132 22.2522 27.4125 22.3135 27.3005 22.3357L26.7363 22.4779L26.5169 22.9519L26.846 23.4259C26.9169 23.5185 26.9514 23.6343 26.9427 23.751C26.934 23.8677 26.8828 23.977 26.799 24.0579L26.2034 24.7057C26.1257 24.7919 26.0209 24.8483 25.9067 24.8656C25.7924 24.8829 25.6758 24.8599 25.5765 24.8005L25.0592 24.4687L24.5577 24.6899L24.4636 25.3061C24.4556 25.429 24.4003 25.544 24.3096 25.6266C24.2189 25.7091 24.0999 25.7529 23.9778 25.7485H23.0844V25.7643ZM23.2254 25.1323H23.8524L23.9464 24.5319V24.5003C23.958 24.4263 23.9887 24.3566 24.0355 24.2984C24.0823 24.2402 24.1435 24.1954 24.2129 24.1685L24.8555 23.8683C24.9306 23.8281 25.0163 23.8125 25.1006 23.8238C25.185 23.8352 25.2637 23.8728 25.3257 23.9315L25.7959 24.2475L26.2504 23.7419L25.9369 23.2995C25.887 23.2263 25.8565 23.1414 25.8482 23.0529C25.84 22.9644 25.8544 22.8753 25.8899 22.7939L26.1407 22.2093C26.1735 22.1373 26.2212 22.0732 26.2807 22.0214C26.3402 21.9696 26.4101 21.9313 26.4855 21.9091L27.0341 21.7827V21.1823L26.4855 21.0401C26.4029 21.0247 26.3259 20.9873 26.2625 20.9317C26.1991 20.8762 26.1516 20.8045 26.125 20.7241L25.8743 20.0921C25.8743 20.088 25.8726 20.0839 25.8697 20.081C25.8667 20.078 25.8627 20.0763 25.8586 20.0763C25.8348 20.0053 25.8281 19.9296 25.839 19.8554C25.8499 19.7813 25.8781 19.7108 25.9213 19.6498L26.2347 19.1758L25.7802 18.7808L25.3414 19.1126C25.2687 19.1629 25.1845 19.1937 25.0967 19.202C25.0089 19.2103 24.9205 19.1958 24.8398 19.16L24.2285 18.9072C24.1488 18.8803 24.0777 18.8325 24.0226 18.7686C23.9675 18.7047 23.9303 18.627 23.9151 18.5438V18.5122L23.821 17.9592H23.1784L23.0374 18.528C23.0186 18.5952 22.9848 18.6571 22.9386 18.7092C22.8924 18.7612 22.8351 18.8019 22.7709 18.8282L22.2067 19.1284C22.1301 19.1666 22.0448 19.1839 21.9595 19.1783C21.8742 19.1728 21.7919 19.1446 21.7208 19.0968L21.2663 18.7808L20.7804 19.2706L21.0468 19.6972C21.0852 19.7604 21.1093 19.8314 21.1175 19.9052C21.1256 19.9789 21.1175 20.0535 21.0938 20.1237L20.8587 20.7873C20.8288 20.8629 20.7822 20.9306 20.7224 20.9853C20.6627 21.0401 20.5914 21.0804 20.5139 21.1033L19.934 21.2613V21.8933L20.5139 22.0355C20.5916 22.0519 20.6646 22.086 20.7271 22.1353C20.7896 22.1847 20.84 22.2478 20.8744 22.3199L21.1095 22.8571C21.1461 22.9319 21.1625 23.0151 21.157 23.0984C21.1515 23.1816 21.1243 23.2619 21.0782 23.3311L20.7647 23.8841L21.2192 24.3265L21.6424 24.0105C21.7151 23.9602 21.7993 23.9294 21.8871 23.9211C21.9749 23.9128 22.0633 23.9273 22.144 23.9631L22.7866 24.2633C22.8535 24.2922 22.9135 24.3354 22.9622 24.39C23.0109 24.4445 23.0473 24.5091 23.0687 24.5793C23.0687 24.5951 23.0844 24.6109 23.0844 24.6267L23.2254 25.1323Z"/>
<path d="M23.5232 23.663C23.1141 23.663 22.7141 23.5407 22.3738 23.3115C22.0336 23.0823 21.7684 22.7566 21.6118 22.3755C21.4552 21.9944 21.4143 21.5751 21.4941 21.1705C21.5739 20.766 21.771 20.3943 22.0603 20.1027C22.3497 19.811 22.7183 19.6124 23.1196 19.5319C23.5209 19.4514 23.9369 19.4927 24.315 19.6506C24.693 19.8084 25.0161 20.0757 25.2435 20.4187C25.4708 20.7617 25.5921 21.1649 25.5921 21.5774C25.5921 22.1305 25.3742 22.661 24.9862 23.0521C24.5982 23.4433 24.0719 23.663 23.5232 23.663ZM23.5232 20.1238C23.2374 20.1238 22.958 20.2095 22.7205 20.3699C22.4831 20.5304 22.2983 20.7583 22.1896 21.0249C22.081 21.2914 22.0533 21.5845 22.1102 21.8668C22.1672 22.1492 22.3061 22.4082 22.5093 22.6108C22.7125 22.8135 22.9709 22.9507 23.2517 23.005C23.5324 23.0593 23.8228 23.0282 24.086 22.9158C24.3492 22.8033 24.5733 22.6145 24.7298 22.3734C24.8864 22.1323 24.9683 21.8497 24.9652 21.5616C24.9611 21.1788 24.8073 20.8132 24.5374 20.544C24.2674 20.2748 23.903 20.1238 23.5232 20.1238Z"/>
<path d="M16.1254 17.6116C16.0607 17.5303 15.9668 17.4779 15.864 17.4661C15.7612 17.4543 15.658 17.4839 15.5768 17.5484C15.2302 17.8163 14.8339 18.0117 14.4113 18.1229C13.9887 18.2342 13.5484 18.2591 13.1161 18.1962C12.6861 18.142 12.2714 18.0007 11.897 17.7808C11.5226 17.5609 11.1962 17.2668 10.9374 16.9165C10.7861 16.7226 10.6597 16.5103 10.5613 16.2845H13.4295C13.4823 16.2845 13.5346 16.2738 13.5832 16.253C13.6318 16.2321 13.6757 16.2016 13.7123 16.1632C13.7489 16.1249 13.7774 16.0794 13.7962 16.0297C13.8149 15.9799 13.8235 15.9268 13.8214 15.8737C13.8214 15.8225 13.8112 15.7719 13.7913 15.7248C13.7714 15.6777 13.7423 15.6352 13.7057 15.5998C13.6691 15.5644 13.6258 15.5368 13.5783 15.5187C13.5308 15.5006 13.4802 15.4923 13.4295 15.4945H10.3105C10.2448 15.1508 10.2342 14.7987 10.2792 14.4517C10.2792 14.4359 10.2948 14.4043 10.2948 14.3885H14.1662C14.219 14.3885 14.2713 14.3778 14.3198 14.357C14.3684 14.3361 14.4123 14.3056 14.4489 14.2673C14.4855 14.2289 14.5141 14.1835 14.5328 14.1337C14.5516 14.0839 14.5601 14.0309 14.558 13.9777C14.5581 13.9265 14.5478 13.8759 14.528 13.8288C14.5081 13.7818 14.479 13.7392 14.4424 13.7038C14.4058 13.6684 14.3624 13.6408 14.315 13.6227C14.2675 13.6046 14.2169 13.5964 14.1662 13.5985H10.5143C10.6843 13.1861 10.9353 12.8127 11.2519 12.5004C11.5686 12.1882 11.9446 11.9436 12.3573 11.7813C12.77 11.619 13.211 11.5424 13.6538 11.556C14.0965 11.5696 14.5321 11.6732 14.9342 11.8605C15.0278 11.9038 15.1346 11.9081 15.2314 11.8726C15.3282 11.8372 15.4072 11.7647 15.4514 11.6709C15.4943 11.5765 15.4987 11.4689 15.4635 11.3713C15.4283 11.2737 15.3564 11.194 15.2633 11.1495C14.5871 10.8338 13.838 10.711 13.0974 10.7946C12.3568 10.8782 11.6531 11.1649 11.0628 11.6235C10.407 12.1211 9.91978 12.8109 9.6679 13.5985H8.02218C7.91826 13.5985 7.8186 13.6401 7.74511 13.7142C7.67163 13.7883 7.63035 13.8887 7.63035 13.9935C7.62813 14.0459 7.63675 14.0983 7.65565 14.1472C7.67456 14.1962 7.70334 14.2406 7.74018 14.2778C7.77702 14.3149 7.82111 14.3439 7.86965 14.363C7.91819 14.382 7.97013 14.3907 8.02218 14.3885H9.49549C9.44567 14.7558 9.45095 15.1287 9.51116 15.4945H8.02218C7.91826 15.4945 7.8186 15.5361 7.74511 15.6102C7.67163 15.6842 7.63035 15.7847 7.63035 15.8895C7.62813 15.9419 7.63675 15.9943 7.65565 16.0432C7.67456 16.0922 7.70334 16.1366 7.74018 16.1737C7.77702 16.2109 7.82111 16.2399 7.86965 16.2589C7.91819 16.278 7.97013 16.2867 8.02218 16.2845H9.71492C9.85578 16.6899 10.0623 17.0689 10.3262 17.4062C10.6488 17.837 11.0534 18.1986 11.5163 18.4699C11.9792 18.7412 12.4911 18.9167 13.022 18.9862C13.2022 19.0249 13.3865 19.0408 13.5706 19.0336C14.4653 19.0234 15.3332 18.7244 16.047 18.1804C16.128 18.1125 16.1808 18.0165 16.1953 17.9113C16.2098 17.8061 16.1849 17.6993 16.1254 17.6116Z"/>
</g>
</g>
<defs>
<clipPath>
<rect width="23.5102" height="19.5918" transform="translate(4.24487 6.2041)"/>
</clipPath>
</defs>
</svg>
