<svg width="32" height="32" viewBox="0 0 32 32" xmlns="http://www.w3.org/2000/svg">
<g>
<g>
<path d="M22.8063 12.4404L22.7893 12.4167C22.669 12.248 22.5115 12.1108 22.3295 12.0161C22.1474 11.9214 21.9461 11.8719 21.7418 11.8717H18.8383L20.8014 6.21309C20.899 5.90984 20.8863 5.58084 20.7657 5.28635L20.6555 5.06932C20.5435 4.89162 20.3883 4.74666 20.2049 4.64863C20.0216 4.5506 19.8164 4.50287 19.6096 4.51012H14.6437C14.3788 4.5085 14.1202 4.59233 13.9048 4.74965C13.6894 4.90697 13.5282 5.12974 13.4441 5.38616L9.48233 15.8416V15.867C9.3842 16.17 9.39632 16.499 9.51647 16.7937L9.63441 17.0075C9.74642 17.1847 9.90152 17.3292 10.0846 17.4269C10.2676 17.5247 10.4723 17.5723 10.6788 17.5652H14.4109L13.3883 28.941L22.9134 13.7822L22.932 13.7331C23.0147 13.5232 23.0464 13.2961 23.0245 13.071C23.0026 12.8459 22.9278 12.6296 22.8063 12.4404ZM21.9358 13.2768L14.8765 24.5149L15.6012 16.4547H10.6726C10.6308 16.458 10.5891 16.448 10.5531 16.4262L10.5081 16.3485C10.4957 16.3083 10.4957 16.2652 10.5081 16.225L14.4699 5.76952L14.487 5.71725C14.5039 5.6906 14.5268 5.66849 14.5538 5.65278C14.5808 5.63706 14.6111 5.6282 14.6422 5.62695H19.608C19.6498 5.62334 19.6916 5.63332 19.7275 5.65546L19.7725 5.73309C19.7844 5.77338 19.7844 5.81636 19.7725 5.85665L17.3004 12.9854H21.7418C21.7737 12.987 21.8049 12.9957 21.8333 13.0107C21.8617 13.0257 21.8865 13.0468 21.9063 13.0725C21.9391 13.135 21.9496 13.2073 21.9358 13.2768Z"/>
</g>
</g>
</svg>
