<svg width="32" height="32" viewBox="0 0 32 32" xmlns="http://www.w3.org/2000/svg">
<g>
<g>
<g>
<path d="M19.9604 20.7842L16.5038 8.0048H6.97031L7.0416 16.3897H4.56239C4.41562 16.3902 4.275 16.4488 4.17136 16.5527C4.06772 16.6566 4.00952 16.7974 4.00952 16.9442V24.8856C4.00952 25.0326 4.06794 25.1737 4.17192 25.2777C4.2759 25.3816 4.41693 25.44 4.56398 25.44H5.29427C5.33358 26.078 5.61473 26.677 6.0804 27.1149C6.54608 27.5527 7.16121 27.7965 7.80041 27.7965C8.43961 27.7965 9.05475 27.5527 9.52042 27.1149C9.9861 26.677 10.2672 26.078 10.3066 25.44H14.2844C14.5186 25.9834 14.8759 26.465 15.328 26.8467C15.7801 27.2284 16.3148 27.4999 16.8898 27.6396C17.4648 27.7794 18.0644 27.7836 18.6413 27.652C19.2182 27.5204 19.7566 27.2566 20.2141 26.8813C20.6716 26.5061 21.0357 26.0296 21.2776 25.4896C21.5195 24.9496 21.6326 24.3607 21.608 23.7695C21.5834 23.1783 21.4217 22.6009 21.1358 22.0828C20.8499 21.5647 20.4475 21.1202 19.9604 20.7842ZM8.07923 9.11371H15.6515L18.6456 20.2028C17.903 20.0308 17.1259 20.086 16.4151 20.3612L14.5743 16.6812C14.5281 16.5893 14.4573 16.512 14.3697 16.458C14.2822 16.404 14.1813 16.3754 14.0784 16.3755L8.15368 16.3882L8.07923 9.11371ZM7.79091 26.6979C7.513 26.6979 7.24132 26.6155 7.01025 26.4611C6.77917 26.3067 6.59907 26.0872 6.49272 25.8304C6.38637 25.5737 6.35854 25.2912 6.41276 25.0186C6.46698 24.746 6.6008 24.4956 6.79732 24.2991C6.99383 24.1026 7.24421 23.9688 7.51678 23.9146C7.78935 23.8604 8.07188 23.8882 8.32864 23.9945C8.58539 24.1009 8.80485 24.281 8.95925 24.5121C9.11365 24.7431 9.19606 25.0148 9.19606 25.2927C9.19606 25.665 9.0485 26.0221 8.78572 26.2858C8.52293 26.5494 8.16634 26.6982 7.79408 26.6995L7.79091 26.6979ZM10.1149 24.3359C9.92555 23.8751 9.60354 23.481 9.18975 23.2037C8.77595 22.9263 8.28905 22.7783 7.79091 22.7783C7.29277 22.7783 6.80587 22.9263 6.39207 23.2037C5.97828 23.481 5.65626 23.8751 5.46695 24.3359H5.1121V17.5034L13.7299 17.4844L15.4519 20.9109C14.9357 21.3087 14.5304 21.8324 14.2749 22.4319C14.0194 23.0314 13.9223 23.6865 13.9929 24.3343L10.1149 24.3359ZM17.7885 26.6408C17.252 26.6412 16.7274 26.4823 16.2812 26.1844C15.8349 25.8865 15.4871 25.463 15.2816 24.9674C15.0762 24.4717 15.0223 23.9263 15.1269 23.4C15.2315 22.8738 15.4898 22.3904 15.8692 22.011C16.2486 21.6316 16.732 21.3733 17.2582 21.2687C17.7845 21.1641 18.3299 21.218 18.8255 21.4234C19.3212 21.6289 19.7447 21.9768 20.0426 22.423C20.3405 22.8692 20.4993 23.3938 20.499 23.9303C20.4982 24.6486 20.2128 25.3372 19.7054 25.8455C19.198 26.3538 18.5099 26.6403 17.7917 26.6424L17.7885 26.6408ZM28.1727 20.7367C28.153 20.6666 28.1196 20.601 28.0745 20.5438C28.0294 20.4866 27.9735 20.4388 27.91 20.4032C27.8464 20.3676 27.7765 20.3449 27.7041 20.3363C27.6318 20.3277 27.5584 20.3335 27.4883 20.3533L23.1192 21.5921L18.2907 4.59411C18.2699 4.5241 18.2355 4.45888 18.1895 4.40217C18.1435 4.34545 18.0868 4.29836 18.0226 4.26357C17.9584 4.22878 17.8879 4.20698 17.8153 4.19941C17.7426 4.19184 17.6692 4.19865 17.5992 4.21945C17.5292 4.24026 17.464 4.27464 17.4073 4.32065C17.3506 4.36666 17.3035 4.42339 17.2687 4.4876C17.2339 4.55181 17.2121 4.62225 17.2045 4.69488C17.197 4.76752 17.2038 4.84093 17.2246 4.91094L22.3557 22.9703L27.7909 21.4305C27.8619 21.4107 27.9283 21.3769 27.9861 21.3311C28.0439 21.2853 28.092 21.2284 28.1276 21.1638C28.1631 21.0992 28.1854 21.0281 28.1932 20.9548C28.2009 20.8814 28.194 20.8073 28.1727 20.7367Z"/>
</g>
</g>
</g>
</svg>
