<svg width="32" height="32" viewBox="0 0 32 32" xmlns="http://www.w3.org/2000/svg">
<g>
<g clip-path="url(#clip0_9220_24866)">
<path d="M25.3575 19.8746H20.6787C20.5655 19.8746 20.457 19.9201 20.377 20.0012C20.2969 20.0823 20.252 20.1922 20.252 20.3069V22.036C20.252 22.1507 20.2969 22.2606 20.377 22.3417C20.457 22.4227 20.5655 22.4683 20.6787 22.4683H25.3575C25.4707 22.4683 25.5792 22.4227 25.6593 22.3417C25.7393 22.2606 25.7843 22.1507 25.7843 22.036V20.3069C25.7865 20.2495 25.777 20.1923 25.7563 20.1388C25.7356 20.0854 25.7043 20.0368 25.6642 19.9962C25.6241 19.9556 25.5762 19.9238 25.5234 19.9029C25.4706 19.882 25.4141 19.8723 25.3575 19.8746ZM24.9307 21.6037H21.1055V20.7392H24.9307V21.6037Z"/>
<path d="M13.4235 11.2449H8.74477C8.63158 11.2449 8.52303 11.2904 8.44299 11.3715C8.36296 11.4526 8.31799 11.5625 8.31799 11.6772V20.3068C8.31799 20.4215 8.36296 20.5314 8.44299 20.6125C8.52303 20.6936 8.63158 20.7391 8.74477 20.7391C8.85796 20.7391 8.96651 20.6936 9.04655 20.6125C9.12658 20.5314 9.17155 20.4215 9.17155 20.3068V17.2808H12.159C12.2722 17.2808 12.3807 17.2353 12.4608 17.1542C12.5408 17.0732 12.5858 16.9632 12.5858 16.8486C12.5858 16.7339 12.5408 16.624 12.4608 16.5429C12.3807 16.4618 12.2722 16.4163 12.159 16.4163H9.17155V12.1094H13.4235C13.5367 12.1094 13.6453 12.0639 13.7253 11.9828C13.8053 11.9018 13.8503 11.7918 13.8503 11.6772C13.8503 11.5625 13.8053 11.4526 13.7253 11.3715C13.6453 11.2904 13.5367 11.2449 13.4235 11.2449Z"/>
<path d="M25.8001 9.94806C25.6872 9.94884 25.5792 9.99489 25.4997 10.0761L23.2394 12.3656L22.6862 11.8053C22.6043 11.7372 22.5003 11.7024 22.3945 11.7077C22.2887 11.7129 22.1886 11.7579 22.1136 11.8338C22.0387 11.9096 21.9944 12.011 21.9892 12.1182C21.984 12.2254 22.0183 12.3307 22.0855 12.4137L22.9391 13.2782C23.019 13.3584 23.1269 13.4034 23.2394 13.4034C23.3519 13.4034 23.4598 13.3584 23.5397 13.2782L26.0846 10.6845C26.128 10.647 26.1628 10.6003 26.1867 10.5478C26.2106 10.4953 26.2229 10.4382 26.2229 10.3803C26.2229 10.3225 26.2106 10.2654 26.1867 10.2129C26.1628 10.1604 26.128 10.1137 26.0846 10.0761C26.0482 10.0364 26.0042 10.0045 25.9553 9.98252C25.9064 9.9605 25.8536 9.94878 25.8001 9.94806Z"/>
<path d="M27.0645 6.93804H18.9716V4.95274C18.9713 4.76342 18.9302 4.57645 18.851 4.40496C18.7718 4.23347 18.6565 4.08162 18.5132 3.96008C18.3086 3.77325 18.0455 3.66552 17.7703 3.65588H17.4699L5.04597 5.89736C4.65102 5.96562 4.29282 6.17369 4.03518 6.4845C3.77755 6.7953 3.63722 7.18865 3.63918 7.59448V24.4055C3.63722 24.8114 3.77755 25.2047 4.03518 25.5155C4.29282 25.8263 4.65102 26.0344 5.04597 26.1027L17.4699 28.3281H17.6912C18.0308 28.3281 18.3565 28.1915 18.5966 27.9483C18.8367 27.7051 18.9716 27.3752 18.9716 27.0313V25.062H27.0645C27.4056 25.062 27.7329 24.9259 27.9755 24.6831C28.2181 24.4404 28.3565 24.1105 28.3607 23.7651V8.2349C28.3565 7.88949 28.2181 7.55965 27.9755 7.31689C27.7329 7.07414 27.4056 6.93802 27.0645 6.93804ZM18.1338 27.0473C18.135 27.1119 18.1214 27.1759 18.094 27.2343C18.0665 27.2926 18.0261 27.3437 17.9757 27.3835C17.9282 27.4242 17.8725 27.4539 17.8124 27.4705C17.7523 27.4871 17.6894 27.4902 17.628 27.4796L5.18823 25.2541C4.98999 25.2202 4.80994 25.1164 4.67982 24.9612C4.54969 24.806 4.47784 24.6092 4.47693 24.4055V7.59448C4.47784 7.39083 4.54969 7.19405 4.67982 7.03882C4.80994 6.88358 4.98999 6.77986 5.18823 6.74592L17.628 4.52045H17.7545C17.8389 4.53663 17.9194 4.56926 17.9916 4.61652C18.0419 4.65628 18.0823 4.70737 18.1098 4.76572C18.1372 4.82408 18.1509 4.88811 18.1496 4.95274L18.1338 27.0473ZM27.4913 23.7651C27.4913 23.8798 27.4463 23.9897 27.3663 24.0708C27.2863 24.1519 27.1777 24.1974 27.0645 24.1974H18.9716V7.80261H27.0645C27.1777 7.80261 27.2863 7.84816 27.3663 7.92922C27.4463 8.01029 27.4913 8.12025 27.4913 8.2349V23.7651Z"/>
<path d="M25.3575 16.4323H20.6787C20.5655 16.4323 20.457 16.4778 20.377 16.5589C20.2969 16.6399 20.252 16.7499 20.252 16.8646V18.5937C20.252 18.7083 20.2969 18.8183 20.377 18.8994C20.457 18.9804 20.5655 19.026 20.6787 19.026H25.3575C25.4707 19.026 25.5792 18.9804 25.6593 18.8994C25.7393 18.8183 25.7843 18.7083 25.7843 18.5937V16.8646C25.7865 16.8072 25.777 16.75 25.7563 16.6965C25.7356 16.643 25.7043 16.5945 25.6642 16.5539C25.6241 16.5133 25.5762 16.4815 25.5234 16.4606C25.4706 16.4397 25.4141 16.43 25.3575 16.4323ZM24.9307 18.1614H21.1055V17.2968H24.9307V18.1614Z"/>
<path d="M25.3574 12.9741C25.2442 12.9741 25.1357 13.0196 25.0556 13.1007C24.9756 13.1817 24.9306 13.2917 24.9306 13.4063V14.7032H21.1054V10.8126H23.2393C23.3525 10.8126 23.4611 10.7671 23.5411 10.686C23.6212 10.6049 23.6661 10.495 23.6661 10.3803C23.6661 10.2657 23.6212 10.1557 23.5411 10.0747C23.4611 9.9936 23.3525 9.94806 23.2393 9.94806H20.6945C20.6384 9.94806 20.5829 9.95924 20.5312 9.98096C20.4794 10.0027 20.4323 10.0345 20.3927 10.0747C20.3531 10.1148 20.3216 10.1625 20.3002 10.2149C20.2787 10.2674 20.2677 10.3236 20.2677 10.3803V15.1195C20.2677 15.2341 20.3127 15.3441 20.3927 15.4251C20.4727 15.5062 20.5813 15.5517 20.6945 15.5517H25.3732C25.4864 15.5517 25.595 15.5062 25.675 15.4251C25.755 15.3441 25.8 15.2341 25.8 15.1195V13.4063C25.7959 13.2902 25.7475 13.1803 25.6649 13.0996C25.5824 13.019 25.4721 12.974 25.3574 12.9741Z"/>
</g>
</g>
<defs>
<clipPath>
<rect width="24.8163" height="24.8163" transform="translate(3.5918 3.59186)"/>
</clipPath>
</defs>
</svg>
