<svg width="32" height="32" viewBox="0 0 32 32" xmlns="http://www.w3.org/2000/svg">
<g>
<g>
<path d="M24.7368 11.8495H18.4984C20.7175 10.9624 22.8436 9.98019 22.797 7.87325C22.766 7.11286 22.4246 6.3683 21.8814 5.86137C21.3848 5.40197 20.7796 5.10098 20.0968 5.00593C17.9087 4.75246 16.9776 7.39801 16.0931 9.9485C15.9845 10.2337 15.8914 10.5346 15.7827 10.8198C15.6586 10.4713 15.5344 10.1069 15.4103 9.7584C14.5258 7.20791 13.6102 4.5782 11.4066 4.83167H11.3911C10.7238 4.92672 10.1186 5.21187 9.62197 5.67127C9.07883 6.1782 8.73743 6.90692 8.69088 7.699C8.64432 9.93266 11.0652 10.899 13.424 11.8337H6.75109C6.20795 11.8337 5.77344 12.2772 5.77344 12.8317V15.1287C5.77344 15.6832 6.20795 16.1267 6.75109 16.1267H7.30975V26.6772C7.30975 26.9782 7.55804 27.2317 7.85289 27.2317H23.6505C23.9454 27.2317 24.1936 26.9782 24.1936 26.6772V16.1267H24.7213C25.2644 16.1267 25.6989 15.6832 25.6989 15.1287V12.8475C25.6989 12.2931 25.2644 11.8495 24.7368 11.8495ZM17.1173 10.3129C17.9708 7.85741 18.6847 6.099 19.833 6.099H19.9727C20.4072 6.16236 20.8107 6.35246 21.1521 6.66929C21.4935 6.98612 21.6952 7.44553 21.7262 7.90494C21.7573 9.37821 19.6623 10.202 17.6294 11.0099C17.3501 11.1208 17.0552 11.2317 16.7604 11.3584C16.869 11.0099 16.9932 10.6614 17.1173 10.3129ZM9.79267 7.74652C9.82371 7.27127 10.0254 6.81187 10.3669 6.49504C10.6927 6.1782 11.0962 5.98811 11.5307 5.94058C12.7722 5.79801 13.5015 7.60395 14.3861 10.1386C14.5102 10.4871 14.6344 10.8356 14.7585 11.1683C14.4792 11.0574 14.1843 10.9307 13.905 10.8198C11.8566 10.0277 9.76164 9.20395 9.79267 7.74652ZM6.87524 12.9584H15.2086V15.0495H6.87524V12.9584ZM8.39603 16.1584H15.2086V26.1386H8.39603V16.1584ZM23.1074 26.1386H16.2948V16.1584H23.1074V26.1386ZM24.6126 15.0337H16.2948V12.9584H24.6126V15.0337Z"/>
</g>
</g>
</svg>
