<svg width="32" height="32" viewBox="0 0 32 32" xmlns="http://www.w3.org/2000/svg">
<g>
<g>
<path d="M24.1695 7.46292C24.1165 7.40201 24.051 7.35322 23.9775 7.31987C23.9039 7.28652 23.8241 7.26939 23.7433 7.26966L8.1267 7.3948C8.04756 7.39532 7.96946 7.41281 7.89767 7.4461C7.82589 7.47939 7.76208 7.5277 7.71057 7.58777C7.65906 7.64785 7.62104 7.71828 7.59909 7.7943C7.57714 7.87033 7.57176 7.95018 7.58333 8.02847L10.4554 26.6138C10.4748 26.7455 10.5407 26.8659 10.6413 26.9531C10.7419 27.0403 10.8704 27.0886 11.0035 27.0891H20.6241C20.7553 27.0893 20.8823 27.0429 20.9824 26.9582C21.0825 26.8735 21.1492 26.7559 21.1707 26.6265L24.2946 7.92075C24.3088 7.83993 24.305 7.75697 24.2833 7.67781C24.2617 7.59866 24.2228 7.52527 24.1695 7.46292ZM20.1552 25.9801H11.4788L10.0182 16.5354H21.7314L20.1552 25.9801ZM21.9168 15.4265H9.84709L8.7762 8.49738L23.0922 8.38332L21.9168 15.4265Z"/>
</g>
</g>
</svg>
