<svg width="32" height="32" viewBox="0 0 32 32" xmlns="http://www.w3.org/2000/svg">
<g>
<g clip-path="url(#clip0_9220_24874)">
<path d="M8.85401 16.5131H5.47648C5.33133 16.5131 5.19213 16.4558 5.08949 16.3537C4.98686 16.2517 4.9292 16.1132 4.9292 15.9689C4.9292 15.8246 4.98686 15.6861 5.08949 15.5841C5.19213 15.482 5.33133 15.4247 5.47648 15.4247H8.85401C8.99915 15.4247 9.13836 15.482 9.24099 15.5841C9.34363 15.6861 9.40129 15.8246 9.40129 15.9689C9.40129 16.1132 9.34363 16.2517 9.24099 16.3537C9.13836 16.4558 8.99915 16.5131 8.85401 16.5131Z"/>
<path d="M9.11977 20.7891L11.2933 17.6482H10.1987L9.40123 18.7833C9.10413 19.2031 8.82267 19.6229 8.54121 20.0583L7.69683 18.7988L6.915 17.6482H5.78916L7.97829 20.8047L5.66406 24.1166H6.75863L7.63428 22.8727C7.94702 22.4218 8.24411 22.0019 8.54121 21.551C8.83831 22.0175 9.13541 22.4373 9.44814 22.8727L10.2925 24.1166H11.4184L9.11977 20.7891Z"/>
<path d="M18.0485 17.6637L17.2042 19.001C16.8601 19.5452 16.5161 20.1049 16.2034 20.6647L15.187 19.0165L14.327 17.6482H13.2168L15.6874 21.5355V24.1166H16.6569V21.551L19.1275 17.6637H18.0485Z"/>
<path d="M24.3187 23.2615H22.4423C22.8332 22.795 23.2242 22.3285 23.5994 21.8465L26.289 18.4879V17.6638H21.3634V18.5346H25.0537C24.6627 19.001 24.2718 19.4831 23.8965 19.9651L21.207 23.3081V24.1322H26.3359V23.2615H24.3187Z"/>
<path d="M7.61865 11.8173L7.75938 11.4752C8.00956 10.7911 8.43176 9.7182 8.76013 8.8008C9.0885 9.7182 9.51069 10.7911 9.77651 11.4752L9.91724 11.8173H7.61865ZM10.8711 14.3363H11.9031L9.32305 7.86786H8.1972L5.66406 14.3363H6.68045L7.30591 12.657H10.23L10.8711 14.3363Z"/>
<path d="M16.8757 13.5122H14.968V11.4441H16.8757C17.6575 11.4441 18.111 11.7551 18.111 12.5015C18.111 13.2478 17.7044 13.5122 16.8757 13.5122ZM16.7349 8.72306C17.5011 8.72306 17.8764 9.11179 17.8764 9.64045C17.8764 10.1691 17.5011 10.6511 16.7349 10.6511H14.968V8.72306H16.7349ZM17.9859 10.9621C18.2473 10.8332 18.4667 10.6334 18.6189 10.3858C18.7711 10.1382 18.8498 9.85286 18.8459 9.56271C18.8459 8.64531 18.2361 7.86786 16.8131 7.86786H14.0142V14.3363H16.9539C18.4081 14.3363 19.1274 13.6055 19.1274 12.5015C19.1117 11.864 18.7677 11.2576 17.9859 10.9621Z"/>
<path d="M23.9435 14.6472C25.3508 14.6472 26.6486 13.792 26.8362 12.1127H25.8511C25.6948 13.2633 24.8347 13.7765 23.9435 13.7765C22.7082 13.7765 21.895 12.8435 21.895 11.2575C21.895 9.67151 22.7082 8.73856 23.9435 8.73856C24.7878 8.73856 25.5384 9.14284 25.8042 10.1691H26.7893C26.4766 8.58307 25.2882 7.88336 23.9435 7.88336C22.1452 7.88336 20.8787 9.17394 20.8787 11.2575C20.8787 13.3411 22.1452 14.6472 23.9435 14.6472Z"/>
<path d="M14.749 16.5131H11.3715C11.2264 16.5131 11.0871 16.4558 10.9845 16.3537C10.8819 16.2517 10.8242 16.1132 10.8242 15.9689C10.8242 15.8246 10.8819 15.6861 10.9845 15.5841C11.0871 15.482 11.2264 15.4247 11.3715 15.4247H14.749C14.8942 15.4247 15.0334 15.482 15.136 15.5841C15.2386 15.6861 15.2963 15.8246 15.2963 15.9689C15.2963 16.1132 15.2386 16.2517 15.136 16.3537C15.0334 16.4558 14.8942 16.5131 14.749 16.5131Z"/>
<path d="M20.6284 16.5131H17.2665C17.1214 16.5131 16.9822 16.4558 16.8795 16.3537C16.7769 16.2517 16.7192 16.1132 16.7192 15.9689C16.7192 15.8246 16.7769 15.6861 16.8795 15.5841C16.9822 15.482 17.1214 15.4247 17.2665 15.4247H20.6284C20.7736 15.4247 20.9128 15.482 21.0154 15.5841C21.118 15.6861 21.1757 15.8246 21.1757 15.9689C21.1757 16.1132 21.118 16.2517 21.0154 16.3537C20.9128 16.4558 20.7736 16.5131 20.6284 16.5131Z"/>
<path d="M26.5234 16.5131H23.1615C23.0164 16.5131 22.8772 16.4558 22.7746 16.3537C22.6719 16.2517 22.6143 16.1132 22.6143 15.9689C22.6143 15.8246 22.6719 15.6861 22.7746 15.5841C22.8772 15.482 23.0164 15.4247 23.1615 15.4247H26.5234C26.6686 15.4247 26.8078 15.482 26.9104 15.5841C27.0131 15.6861 27.0707 15.8246 27.0707 15.9689C27.0707 16.1132 27.0131 16.2517 26.9104 16.3537C26.8078 16.4558 26.6686 16.5131 26.5234 16.5131Z"/>
</g>
</g>
<defs>
<clipPath>
<rect width="22.2041" height="16.3265" transform="translate(4.89795 7.83673)"/>
</clipPath>
</defs>
</svg>
