<svg width="32" height="32" viewBox="0 0 32 32" xmlns="http://www.w3.org/2000/svg">
<g>
<g>
<path d="M21.8296 8.92366C21.5287 8.90815 21.2752 9.15644 21.2593 9.45129C21.2435 9.74613 21.497 9.99443 21.798 10.0099L25.2831 10.1186L17.489 18.4829L13.196 13.9826C13.0851 13.874 12.9425 13.8119 12.7999 13.8119C12.6415 13.8119 12.499 13.874 12.4039 13.9826L4.91083 21.7107C4.70489 21.928 4.70489 22.2694 4.92667 22.4711C5.03756 22.5642 5.1643 22.6263 5.30687 22.6263C5.44944 22.6263 5.60786 22.5642 5.70291 22.4556L12.7841 15.1465L17.093 19.6623C17.2039 19.7709 17.3465 19.833 17.5049 19.833C17.6633 19.833 17.8059 19.7709 17.9168 19.6623L25.9168 11.0807L25.8059 14.6034C25.8059 14.8982 26.0435 15.1465 26.3445 15.162H26.3603C26.6613 15.162 26.9148 14.9292 26.9148 14.6344L27.0574 9.07885L21.8296 8.92366Z"/>
</g>
</g>
</svg>
