<svg width="32" height="32" viewBox="0 0 32 32" xmlns="http://www.w3.org/2000/svg">
<g>
<g>
<g>
<path d="M12.1377 8.2967C12.6736 8.2967 13.1974 8.14102 13.6429 7.84937C14.0884 7.55772 14.4356 7.14319 14.6406 6.65821C14.8456 6.17323 14.8991 5.6396 14.7945 5.1248C14.6898 4.61001 14.4317 4.13718 14.0527 3.76612C13.6737 3.39507 13.1908 3.14246 12.6652 3.04024C12.1397 2.93803 11.5949 2.9908 11.1 3.19188C10.605 3.39297 10.1821 3.73333 9.88459 4.16992C9.58712 4.60651 9.42851 5.11972 9.42883 5.64462C9.43009 6.34789 9.71594 7.02197 10.2237 7.51911C10.7315 8.01625 11.4198 8.29588 12.1377 8.2967ZM12.1377 4.07727C12.4542 4.07727 12.7635 4.1692 13.0267 4.34142C13.2898 4.51364 13.4948 4.75843 13.6159 5.04482C13.737 5.33122 13.7687 5.64636 13.707 5.9504C13.6453 6.25443 13.4929 6.5337 13.2691 6.7529C13.0453 6.9721 12.7603 7.12137 12.4499 7.18185C12.1395 7.24233 11.8178 7.21129 11.5254 7.09266C11.2331 6.97403 10.9832 6.77314 10.8074 6.51539C10.6316 6.25764 10.5377 5.95461 10.5377 5.64462C10.5382 5.22906 10.7069 4.83064 11.0068 4.53679C11.3068 4.24295 11.7135 4.07768 12.1377 4.07727ZM21.3464 22.544C21.225 22.4631 21.0757 22.4326 20.9313 22.4594C20.787 22.4861 20.6594 22.5679 20.5765 22.6868C19.9035 23.6586 18.9978 24.4541 17.9385 25.0038C16.8791 25.5535 15.6985 25.8406 14.4997 25.8401C12.8939 25.8398 11.3325 25.3239 10.0546 24.3713C8.77669 23.4187 7.85282 22.082 7.42448 20.566C6.99615 19.05 7.08696 17.4382 7.68302 15.9775C8.27909 14.5169 9.34752 13.2879 10.7247 12.4789C10.7871 12.4421 10.8415 12.3936 10.8848 12.3362C10.9281 12.2789 10.9594 12.2137 10.977 12.1445C10.9945 12.0752 10.998 12.0033 10.9872 11.9327C10.9764 11.8621 10.9515 11.7944 10.914 11.7332C10.8764 11.6721 10.827 11.6188 10.7684 11.5764C10.7098 11.534 10.6433 11.5033 10.5726 11.4861C10.5019 11.4688 10.4285 11.4654 10.3564 11.476C10.2844 11.4866 10.2152 11.511 10.1528 11.5478C8.56789 12.4791 7.33833 13.8937 6.65242 15.5748C5.96651 17.256 5.86207 19.1111 6.35509 20.8559C6.84811 22.6008 7.91141 24.1392 9.38215 25.2356C10.8529 26.332 12.65 26.9259 14.4981 26.9264C15.8783 26.9263 17.2376 26.5952 18.457 25.962C19.6765 25.3287 20.7191 24.4126 21.4938 23.2936C21.5752 23.1749 21.6054 23.0295 21.5778 22.8891C21.5502 22.7486 21.467 22.6246 21.3464 22.544Z"/>
<path d="M25.066 22.2073L19.5753 16.8085C19.472 16.7095 19.3333 16.6538 19.1888 16.6533L13.9959 16.6036L13.0153 9.46522C13.0057 9.39451 12.9819 9.32635 12.9453 9.26464C12.9087 9.20294 12.8601 9.14889 12.8022 9.10559C12.6853 9.01814 12.5378 8.97976 12.392 8.9989C12.2462 9.01803 12.1141 9.09312 12.0248 9.20764C11.9356 9.32216 11.8964 9.46673 11.9159 9.60954L12.9615 17.2042C12.9804 17.3326 13.0456 17.4501 13.1452 17.5355C13.2449 17.6208 13.3724 17.6685 13.5048 17.6697L18.9496 17.7225L24.2803 22.963C24.3841 23.0659 24.5253 23.1242 24.673 23.1251C24.8206 23.126 24.9626 23.0693 25.0676 22.9677C25.1726 22.866 25.2322 22.7277 25.233 22.583C25.2339 22.4384 25.1761 22.2993 25.0724 22.1964L25.066 22.2073Z"/>
</g>
</g>
</g>
</svg>
