<svg width="32" height="32" viewBox="0 0 32 32" xmlns="http://www.w3.org/2000/svg">
<g>
<g>
<path d="M26.9782 15.8293H23.699C23.5248 15.8293 23.3664 15.9068 23.2713 16.0465L21.8139 18.0639L19.8337 6.14585C19.802 5.91307 19.5802 5.74237 19.3267 5.74237C19.0733 5.74237 18.8673 5.91307 18.8198 6.16136L16.0792 23.0608L14.3842 11.1893C14.3525 10.972 14.1782 10.8013 13.9406 10.7703C13.7188 10.7393 13.497 10.8634 13.402 11.0807L10.6297 17.9087L9.99606 16.1396C9.93269 15.9379 9.72675 15.8137 9.52081 15.8137H5.14853C4.86338 15.8137 4.6416 16.031 4.6416 16.2948C4.6416 16.5586 4.86338 16.7759 5.14853 16.7759H9.15645L10.1228 19.4761C10.1862 19.6623 10.3763 19.8019 10.598 19.8019C10.804 19.8019 11.0099 19.6778 11.0891 19.4916L13.6555 13.1756L15.5723 26.4593C15.604 26.7076 15.8099 26.8783 16.0792 26.8783C16.3327 26.8783 16.5386 26.7076 16.5862 26.4593L19.3584 9.32709L21.0376 19.3829C21.0693 19.5847 21.2277 19.7399 21.4337 19.7864C21.6396 19.833 21.8456 19.7554 21.9565 19.5847L23.9842 16.7604H26.9941C27.2792 16.7604 27.501 16.5431 27.501 16.2793C27.501 16.0465 27.2634 15.8293 26.9782 15.8293Z"/>
</g>
</g>
</svg>
