<svg width="32" height="32" viewBox="0 0 32 32" xmlns="http://www.w3.org/2000/svg">
<g>
<g>
<path d="M18.6846 11.9078V10.2427L24.0959 7.59219C24.1885 7.54627 24.2661 7.47496 24.3196 7.38658C24.3732 7.2982 24.4005 7.19641 24.3984 7.09309C24.3963 6.98977 24.3648 6.88918 24.3077 6.80307C24.2505 6.71696 24.1701 6.64888 24.0757 6.60678L18.3619 4.08661C18.2792 4.05024 18.1888 4.03504 18.0989 4.04239C18.0089 4.04974 17.9221 4.0794 17.8465 4.1287C17.7709 4.17799 17.7087 4.24536 17.6657 4.32472C17.6226 4.40408 17.6 4.49291 17.5999 4.5832V11.8923C17.6006 11.922 17.6038 11.9516 17.6092 11.9808L13.5419 18.4829L11.6797 15.5717L5.62756 25.0611H26.9093L18.6846 11.9078ZM18.6846 9.03229V5.41653L22.5642 7.12354L18.6846 9.03229ZM7.6077 23.9795L11.6828 17.5953L12.9041 19.5087L10.103 23.9795H7.6077ZM18.1725 13.1338L24.9525 23.9795H11.3911L18.1725 13.1338Z"/>
</g>
</g>
</svg>
