<svg width="32" height="32" viewBox="0 0 32 32" xmlns="http://www.w3.org/2000/svg">
<g>
<g>
<path d="M28.3185 16.3169L16.0555 4.7525L3.55175 16.5672C3.45031 16.6693 3.39255 16.8068 3.39067 16.9507C3.3888 17.0946 3.44295 17.2336 3.5417 17.3383C3.64044 17.4431 3.77603 17.5053 3.91981 17.5118C4.06359 17.5184 4.20428 17.4688 4.31215 17.3735L5.92007 15.8543V26.6408H13.0409V19.2048H18.9735V26.6408H26.191V15.8305L27.5581 17.1184C27.6105 17.1712 27.6729 17.2128 27.7417 17.2409C27.8106 17.269 27.8843 17.283 27.9586 17.2821C28.033 17.2811 28.1063 17.2652 28.1744 17.2353C28.2425 17.2054 28.3038 17.1621 28.3548 17.1081C28.4058 17.054 28.4454 16.9902 28.4713 16.9205C28.4971 16.8508 28.5087 16.7766 28.5053 16.7024C28.5019 16.6281 28.4836 16.5553 28.4515 16.4883C28.4194 16.4212 28.3742 16.3613 28.3185 16.3121V16.3169ZM25.0821 25.5367H20.0824V18.6503C20.0824 18.5033 20.024 18.3622 19.9201 18.2583C19.8161 18.1543 19.675 18.0959 19.528 18.0959H12.4864C12.3394 18.0959 12.1983 18.1543 12.0943 18.2583C11.9904 18.3622 11.932 18.5033 11.932 18.6503V25.5319H7.02898V14.8056L16.0587 6.27963L25.0884 14.785L25.0821 25.5367Z"/>
</g>
</g>
</svg>
