<svg width="32" height="32" viewBox="0 0 32 32" xmlns="http://www.w3.org/2000/svg">
<g>
<g clip-path="url(#clip0_9220_24896)">
<path d="M8.62467 8.38493C9.1588 8.38493 9.68093 8.22615 10.125 7.92868C10.5692 7.63121 10.9153 7.20839 11.1197 6.71371C11.3241 6.21903 11.3776 5.67469 11.2734 5.14954C11.1692 4.62439 10.912 4.142 10.5343 3.76339C10.1566 3.38478 9.6754 3.12694 9.15153 3.02248C8.62767 2.91802 8.08467 2.97163 7.5912 3.17654C7.09773 3.38144 6.67595 3.72843 6.37921 4.17364C6.08246 4.61884 5.92407 5.14225 5.92407 5.6777C5.92822 6.39442 6.21407 7.0806 6.71964 7.58741C7.22521 8.09422 7.90971 8.38078 8.62467 8.38493ZM8.62467 4.07869C8.94015 4.07869 9.24855 4.17247 9.51086 4.34817C9.77317 4.52387 9.97762 4.7736 10.0983 5.06578C10.2191 5.35796 10.2507 5.67947 10.1891 5.98965C10.1276 6.29982 9.97565 6.58474 9.75257 6.80837C9.5295 7.03199 9.24528 7.18428 8.93586 7.24598C8.62644 7.30768 8.30572 7.27601 8.01426 7.15499C7.72279 7.03396 7.47367 6.82901 7.2984 6.56606C7.12313 6.3031 7.02958 5.99395 7.02958 5.6777C7.02958 5.25361 7.19764 4.8469 7.49677 4.54702C7.79591 4.24715 8.20163 4.07869 8.62467 4.07869Z"/>
<path d="M18.6218 9.4931L18.7955 11.6621H13.2048L13.3785 9.4931H3.93433L4.4397 17.5198L5.81369 18.6439L6.6981 26.8764H10.2515L11.2781 18.4856L11.7834 18.1689L11.9098 19.7363L13.3785 20.6703L14.4051 29.0454H17.9585L18.8429 20.8128L20.2169 19.6888L20.3117 18.2322L20.7223 18.5014L21.7488 26.8764H25.3022L26.1866 18.6439L27.5606 17.5198L28.066 9.4931H18.6218ZM11.6729 16.9182L10.2357 17.8523L9.27236 25.784H7.69306L6.85603 18.0898L5.49783 16.9815L5.08721 10.6013H12.1625L12.0835 11.6621H11.2623L11.6729 16.8865V16.9182ZM17.769 20.2271L16.932 27.9213H15.3527L14.3893 19.9896L12.9521 19.0713L12.4625 12.7703H19.5378L19.143 19.1347L17.769 20.2271ZM26.4867 16.9657L25.1285 18.0739L24.2915 25.7682H22.7122L21.7488 17.8365L20.3748 16.9657L20.7065 11.6621H19.8852L19.8063 10.6013H26.8815L26.4867 16.9657Z"/>
<path d="M23.3439 8.38493C23.878 8.38493 24.4002 8.22615 24.8443 7.92868C25.2884 7.63121 25.6345 7.20839 25.8389 6.71371C26.0433 6.21903 26.0968 5.67469 25.9926 5.14954C25.8884 4.62439 25.6312 4.142 25.2535 3.76339C24.8758 3.38478 24.3946 3.12694 23.8708 3.02248C23.3469 2.91802 22.8039 2.97163 22.3104 3.17654C21.817 3.38144 21.3952 3.72843 21.0984 4.17364C20.8017 4.61884 20.6433 5.14225 20.6433 5.6777C20.6475 6.39442 20.9333 7.0806 21.4389 7.58741C21.9444 8.09422 22.6289 8.38078 23.3439 8.38493ZM23.3439 4.07869C23.6594 4.07869 23.9678 4.17247 24.2301 4.34817C24.4924 4.52387 24.6969 4.7736 24.8176 5.06578C24.9383 5.35796 24.9699 5.67947 24.9084 5.98965C24.8468 6.29982 24.6949 6.58474 24.4718 6.80837C24.2487 7.03199 23.9645 7.18428 23.6551 7.24598C23.3457 7.30768 23.025 7.27601 22.7335 7.15499C22.442 7.03396 22.1929 6.82901 22.0176 6.56606C21.8424 6.3031 21.7488 5.99395 21.7488 5.6777C21.7488 5.25361 21.9169 4.8469 22.216 4.54702C22.5151 4.24715 22.9209 4.07869 23.3439 4.07869Z"/>
<path d="M15.9843 9.92058C16.5184 9.92058 17.0406 9.7618 17.4847 9.46433C17.9288 9.16685 18.2749 8.74404 18.4793 8.24936C18.6837 7.75467 18.7372 7.21034 18.633 6.68519C18.5288 6.16003 18.2716 5.67765 17.8939 5.29904C17.5162 4.92042 17.035 4.66258 16.5112 4.55812C15.9873 4.45366 15.4443 4.50728 14.9508 4.71218C14.4573 4.91709 14.0356 5.26408 13.7388 5.70928C13.4421 6.15448 13.2837 6.6779 13.2837 7.21334C13.2878 7.93006 13.5737 8.61625 14.0793 9.12306C14.5848 9.62986 15.2693 9.91642 15.9843 9.92058ZM15.9843 5.61433C16.2998 5.61433 16.6082 5.70811 16.8705 5.88381C17.1328 6.05951 17.3372 6.30925 17.458 6.60143C17.5787 6.89361 17.6103 7.21512 17.5487 7.52529C17.4872 7.83547 17.3353 8.12039 17.1122 8.34401C16.8891 8.56764 16.6049 8.71993 16.2955 8.78163C15.9861 8.84333 15.6653 8.81166 15.3739 8.69064C15.0824 8.56961 14.8333 8.36466 14.658 8.1017C14.4828 7.83875 14.3892 7.5296 14.3892 7.21334C14.3892 6.78926 14.5573 6.38254 14.8564 6.08267C15.1555 5.7828 15.5612 5.61433 15.9843 5.61433Z"/>
</g>
</g>
<defs>
<clipPath>
<rect width="24.1633" height="26.1224" transform="translate(3.91846 2.93878)"/>
</clipPath>
</defs>
</svg>
