<svg width="32" height="32" viewBox="0 0 32 32" xmlns="http://www.w3.org/2000/svg">
<g>
<g>
<path d="M13.4067 26.2813H18.5371V12.7859H13.4067V26.2813ZM14.493 13.8948H17.4508V25.1724H14.493V13.8948ZM15.9719 10.7978C16.4796 10.7981 16.976 10.6447 17.3983 10.357C17.8206 10.0692 18.1499 9.66013 18.3444 9.18138C18.5389 8.70263 18.5899 8.17574 18.4911 7.66737C18.3922 7.159 18.1479 6.69197 17.789 6.32537C17.4301 5.95877 16.9727 5.70907 16.4748 5.60784C15.9768 5.50661 15.4607 5.5584 14.9916 5.75667C14.5225 5.95494 14.1215 6.29078 13.8394 6.7217C13.5573 7.15263 13.4067 7.65928 13.4067 8.17757C13.4071 8.87209 13.6775 9.53806 14.1584 10.0293C14.6393 10.5206 15.2916 10.7969 15.9719 10.7978ZM15.9719 6.66787C16.2648 6.66756 16.5513 6.75596 16.795 6.92191C17.0387 7.08785 17.2287 7.32386 17.3409 7.60008C17.4532 7.8763 17.4826 8.1803 17.4255 8.4736C17.3685 8.76691 17.2274 9.03634 17.0203 9.2478C16.8132 9.45925 16.5492 9.60322 16.2619 9.66148C15.9746 9.71974 15.6768 9.68968 15.4062 9.5751C15.1356 9.46052 14.9044 9.26657 14.7419 9.01779C14.5793 8.76902 14.4927 8.47661 14.493 8.17757C14.4934 7.7773 14.6494 7.39355 14.9266 7.11051C15.2039 6.82748 15.5798 6.66829 15.9719 6.66787Z"/>
</g>
</g>
</svg>
