<svg width="44" height="32" viewBox="0 0 44 32" xmlns="http://www.w3.org/2000/svg">
<g>
<g clip-path="url(#clip0_9220_24904)">
<path d="M29.5394 6.81753H29.5869C30.3947 6.96002 33.1507 7.60912 34.1961 9.8889C34.6871 10.9813 35.3524 11.6146 36.1443 11.7729C37.4431 12.0262 38.6311 10.9338 38.6786 10.8863L38.742 10.8388L37.95 9.98389L37.8866 10.0314C37.8866 10.0314 37.158 10.6963 36.4136 10.538C35.9543 10.443 35.5583 10.0631 35.2573 9.39812C33.7843 6.26342 29.777 5.67765 29.7295 5.66181C23.4888 4.63275 18.8479 8.5432 15.1257 11.6779L14.999 11.7887C13.3518 13.1661 11.9262 14.3535 10.7225 14.8284C6.8577 16.3324 1.58325 11.4721 1.53574 11.4088L1.47238 11.3454L0.68042 12.2003L0.727937 12.2478C0.775455 12.2953 5.02035 16.2533 9.1227 16.2533C9.7999 16.2597 10.472 16.1361 11.1026 15.8891C12.4806 15.3667 13.9536 14.1477 15.6326 12.7545L15.8385 12.5803C19.3865 9.60393 23.7739 5.86763 29.5394 6.81753Z"/>
<path d="M43.272 12.6278L43.2087 12.327L42.9711 12.2004C41.6089 11.4563 41.5931 10.9338 41.5931 10.918V10.6014L40.2943 9.85726C40.0409 7.92579 38.3144 7.27668 38.2985 7.26085L38.2193 7.22919L37.7917 8.33741H37.8867C38.2502 8.50111 38.5611 8.76241 38.7848 9.09223C39.0085 9.42206 39.1363 9.80747 39.1539 10.2056V10.5222L40.5002 11.298C40.6269 11.6621 41.007 12.327 42.0999 13.0078C42.0931 13.0465 42.0783 13.0833 42.0565 13.116C42.0346 13.1487 42.0063 13.1765 41.9732 13.1978C41.9095 13.2291 41.8399 13.2467 41.769 13.2494C41.6981 13.2521 41.6273 13.2399 41.5614 13.2136L40.9278 12.9128L40.6586 12.8495H40.6427C39.8825 12.9128 39.1855 12.8653 39.138 12.7545L38.7104 11.8837L38.1402 12.6912C38.1243 12.707 36.4929 15.0184 33.5943 15.0343L33.23 15.1451H33.1983C33.1508 15.1767 32.0896 16.0792 31.8362 17.0924C31.7333 17.5244 31.5388 17.9293 31.266 18.2798C31.0442 18.5489 30.87 18.6914 30.6799 18.7231H30.6007L30.8383 19.8788H30.9175C31.4274 19.7427 31.8715 19.4281 32.1688 18.9922C32.5349 18.4985 32.8036 17.9398 32.9607 17.3457C33.0558 16.9024 33.5151 16.4116 33.7844 16.1741C36.3662 16.0633 38.061 14.496 38.6945 13.7677C39.2964 14.0052 40.0884 14.0052 40.5477 13.9894L41.0704 14.2268L41.1496 14.2585C41.894 14.496 42.4484 14.4643 42.7969 14.1635C43.1453 13.8627 43.2879 12.8178 43.272 12.6278Z"/>
<path d="M35.1623 24.9608L35.1148 24.9291C30.2997 21.8261 29.9354 19.6413 29.9354 19.0556C29.9354 15.9367 27.5753 11.5988 27.5278 11.5671V11.5038L26.4666 12.0579L26.5141 12.1212C26.625 12.2954 28.7633 16.2692 28.7633 19.0556C28.7633 21.557 32.0103 24.1692 33.6259 25.3249C33.2594 25.2634 32.9059 25.1403 32.5805 24.9608C31.2025 24.2009 29.9354 23.0135 29.4444 22.5227C29.014 21.3909 28.484 20.2995 27.8605 19.2614C26.7042 17.3299 25.4054 15.9525 24.0274 15.1926C20.9546 13.4986 20.8279 11.8363 20.8279 11.8204V11.7413L19.6558 11.8204V11.8996C19.6558 11.9154 19.7666 14.1477 23.4572 16.2058C25.0886 17.1082 26.3399 18.8814 27.1002 20.2271C27.607 21.1197 28.0414 22.0515 28.399 23.0135L28.5257 23.2668H28.5415L28.5891 23.3143C30.0621 24.7708 31.2817 25.5782 32.042 25.9899C32.8023 26.4015 33.3091 26.5123 33.7843 26.5123C34.8297 26.5123 35.3365 25.8632 35.3365 25.8474L35.7167 25.3408L35.1781 24.9608H35.1623Z"/>
</g>
</g>
<defs>
<clipPath>
<rect width="42.449" height="20.898" transform="translate(0.775513 5.55103)"/>
</clipPath>
</defs>
</svg>
