<svg width="32" height="32" viewBox="0 0 32 32" xmlns="http://www.w3.org/2000/svg">
<g>
<g clip-path="url(#clip0_9220_24910)">
<path d="M16.1388 18.989C15.6014 18.989 15.0761 18.8236 14.6295 18.5137C14.1829 18.2039 13.8351 17.7636 13.6301 17.2486C13.4252 16.7337 13.3724 16.1672 13.4783 15.6211C13.5843 15.0749 13.8443 14.5737 14.2254 14.1809C14.6065 13.7881 15.0915 13.5215 15.6189 13.4147C16.1464 13.308 16.6925 13.366 17.1881 13.5814C17.6837 13.7967 18.1065 14.1598 18.4028 14.6245C18.6992 15.0893 18.8557 15.6347 18.8527 16.1918C18.8486 16.9351 18.5609 17.6466 18.0524 18.1707C17.5439 18.6948 16.8559 18.989 16.1388 18.989ZM16.1388 14.1618C15.7552 14.1618 15.3802 14.2796 15.0611 14.5002C14.7419 14.7208 14.4929 15.0344 14.3454 15.4014C14.1979 15.7685 14.1585 16.1726 14.2323 16.5629C14.306 16.9531 14.4895 17.312 14.7597 17.5943C15.0298 17.8765 15.3746 18.0696 15.7504 18.1491C16.1263 18.2286 16.5164 18.191 16.8717 18.041C17.227 17.891 17.5315 17.6354 17.7468 17.3063C17.9621 16.9772 18.0787 16.5894 18.0817 16.1918C18.0817 15.6562 17.8775 15.1422 17.5136 14.762C17.1497 14.3818 16.6555 14.166 16.1388 14.1618Z"/>
<path d="M22.1524 18.3816C22.1431 18.3383 22.1253 18.2975 22.1 18.2618C22.0747 18.2261 22.0425 18.1962 22.0054 18.1741C21.9684 18.152 21.9273 18.1381 21.8848 18.1333C21.8423 18.1285 21.7993 18.1329 21.7586 18.1462C21.7178 18.1596 21.6801 18.1816 21.648 18.2108C21.6159 18.24 21.59 18.2759 21.5719 18.316C21.5538 18.3562 21.544 18.3998 21.5431 18.4441C21.5422 18.4884 21.5501 18.5324 21.5665 18.5734L21.7824 19.3086L19.4694 17.95C19.3988 17.9187 19.3195 17.9159 19.2469 17.9421C19.1744 17.9682 19.1139 18.0215 19.0773 18.0915C19.0406 18.1614 19.0305 18.2431 19.0488 18.3204C19.0672 18.3977 19.1127 18.4651 19.1765 18.5094L21.4894 19.8681L20.7647 20.0439C20.7252 20.0533 20.6879 20.0707 20.6549 20.0951C20.6218 20.1195 20.5938 20.1504 20.5723 20.186C20.5508 20.2216 20.5363 20.2613 20.5297 20.3028C20.523 20.3442 20.5242 20.3866 20.5334 20.4275C20.5477 20.4966 20.5848 20.5583 20.6383 20.602C20.6917 20.6458 20.7582 20.6689 20.8264 20.6673H20.9035L22.7075 20.2197L22.1524 18.3816Z"/>
<path d="M19.2689 21.5624C19.1933 21.5308 19.1086 21.5315 19.0335 21.5645C18.9583 21.5975 18.8988 21.6599 18.868 21.7383L18.5905 22.4575L17.6653 19.8521C17.6367 19.7716 17.5784 19.7061 17.5032 19.6702C17.428 19.6342 17.3421 19.6307 17.2644 19.6603C17.1867 19.69 17.1236 19.7505 17.0889 19.8284C17.0542 19.9063 17.0507 19.9954 17.0794 20.0759L18.0045 22.6813L17.3569 22.3297C17.3205 22.3108 17.2808 22.2995 17.2401 22.2965C17.1995 22.2935 17.1587 22.2989 17.12 22.3122C17.0814 22.3256 17.0456 22.3467 17.0148 22.3744C16.984 22.402 16.9588 22.4357 16.9406 22.4735C16.9224 22.5113 16.9115 22.5524 16.9086 22.5946C16.9057 22.6367 16.9109 22.679 16.9238 22.7191C16.9366 22.7592 16.957 22.7962 16.9837 22.8281C17.0104 22.8601 17.0429 22.8862 17.0794 22.9051L18.7293 23.7842L19.4386 21.994C19.4697 21.9133 19.4694 21.8232 19.4378 21.7427C19.4061 21.6622 19.3456 21.5976 19.2689 21.5624Z"/>
<path d="M15.2753 22.4096C15.2573 22.3716 15.2321 22.3378 15.2014 22.3099C15.1706 22.2821 15.1349 22.2609 15.0961 22.2475C15.0574 22.2341 15.0165 22.2289 14.9758 22.232C14.9351 22.2351 14.8954 22.2466 14.859 22.2658L14.1959 22.6174L15.0748 20.1079C15.0998 20.0294 15.0945 19.944 15.06 19.8695C15.0255 19.795 14.9645 19.7372 14.8898 19.7083C14.8526 19.6903 14.8122 19.6806 14.7712 19.6798C14.7301 19.679 14.6894 19.6872 14.6516 19.7037C14.6138 19.7203 14.5798 19.745 14.5518 19.776C14.5237 19.8071 14.5023 19.8439 14.4889 19.8841L13.61 22.3936L13.317 21.6903C13.302 21.6515 13.2795 21.6163 13.2508 21.587C13.2221 21.5576 13.1878 21.5348 13.1502 21.5197C13.1126 21.5047 13.0724 21.498 13.0321 21.4998C12.9918 21.5016 12.9523 21.5121 12.9161 21.5305C12.8406 21.5624 12.7803 21.6241 12.7485 21.702C12.7167 21.7799 12.716 21.8676 12.7465 21.9461L13.4712 23.7203L15.1211 22.8412C15.1591 22.824 15.1933 22.799 15.2217 22.7677C15.2502 22.7365 15.2722 22.6996 15.2866 22.6593C15.301 22.6191 15.3074 22.5762 15.3055 22.5333C15.3035 22.4904 15.2933 22.4483 15.2753 22.4096Z"/>
<path d="M21.9673 13.8581C21.9328 13.835 21.8944 13.8192 21.854 13.8115C21.8137 13.8039 21.7723 13.8045 21.7322 13.8134C21.6921 13.8223 21.6541 13.8393 21.6204 13.8634C21.5866 13.8876 21.5578 13.9184 21.5355 13.954C21.5133 13.9897 21.498 14.0296 21.4906 14.0714C21.4832 14.1132 21.4838 14.1561 21.4924 14.1977C21.501 14.2392 21.5174 14.2786 21.5406 14.3136C21.5639 14.3486 21.5936 14.3785 21.628 14.4016L22.2448 14.8172L19.6698 15.2807C19.5904 15.2963 19.5201 15.3435 19.4739 15.4123C19.4278 15.481 19.4095 15.5658 19.4231 15.6483C19.4342 15.7246 19.4716 15.7941 19.5282 15.844C19.5849 15.8939 19.6571 15.9209 19.7314 15.9201H19.7777L22.3528 15.4565L21.9056 16.0799C21.8565 16.1477 21.8354 16.233 21.847 16.3169C21.8586 16.4009 21.9018 16.4766 21.9673 16.5275C21.9918 16.5515 22.021 16.5696 22.053 16.5806C22.0849 16.5917 22.1188 16.5954 22.1523 16.5914C22.2 16.5902 22.2468 16.5782 22.2895 16.5561C22.3321 16.534 22.3695 16.5024 22.399 16.4635L23.5092 14.9291L21.9673 13.8581Z"/>
<path d="M20.9034 10.3576L19.0685 10.5974C19 10.6203 18.9414 10.6673 18.9029 10.7303C18.8643 10.7933 18.8482 10.8682 18.8574 10.9422C18.8665 11.0162 18.9003 11.0846 18.953 11.1354C19.0056 11.1863 19.0738 11.2165 19.1456 11.2207L19.8857 11.1248L18.2204 13.1708C18.1679 13.2346 18.1416 13.3174 18.1474 13.4011C18.1532 13.4849 18.1905 13.5629 18.2513 13.6183C18.3074 13.6678 18.3781 13.696 18.4517 13.6983C18.4961 13.7002 18.5403 13.691 18.5805 13.6715C18.6208 13.652 18.6559 13.6228 18.683 13.5864L20.3329 11.5404L20.3638 12.2917C20.3677 12.3737 20.4019 12.4509 20.4594 12.5075C20.5168 12.564 20.593 12.5955 20.6721 12.5954H20.6876C20.7274 12.5954 20.7668 12.5871 20.8034 12.5708C20.8399 12.5546 20.873 12.5308 20.9004 12.5008C20.9278 12.4709 20.949 12.4355 20.9628 12.3968C20.9766 12.3581 20.9826 12.3169 20.9805 12.2757L20.9034 10.3576Z"/>
<path d="M17.3261 9.89407L16.0617 8.4715L14.7819 9.87809C14.7391 9.94126 14.7197 10.0184 14.7275 10.0951C14.7353 10.1719 14.7696 10.2432 14.8241 10.2958C14.8786 10.3484 14.9496 10.3788 15.0241 10.3813C15.0985 10.3839 15.1713 10.3584 15.229 10.3097L15.7379 9.75022V12.4995C15.7379 12.5843 15.7704 12.6656 15.8282 12.7255C15.886 12.7855 15.9645 12.8191 16.0463 12.8191C16.1281 12.8191 16.2065 12.7855 16.2643 12.7255C16.3222 12.6656 16.3547 12.5843 16.3547 12.4995V9.75022L16.8481 10.3097C16.8781 10.3414 16.9141 10.3664 16.954 10.3829C16.9938 10.3994 17.0365 10.4071 17.0794 10.4056C17.1577 10.4033 17.2333 10.3753 17.2952 10.3256C17.3268 10.301 17.3529 10.2696 17.3719 10.2337C17.3908 10.1977 17.4021 10.158 17.405 10.1171C17.4079 10.0762 17.4024 10.0352 17.3888 9.99675C17.3752 9.95829 17.3538 9.92328 17.3261 9.89407Z"/>
<path d="M13.9647 13.1708L12.2531 11.0449L12.9779 11.1408C13.0497 11.1366 13.1178 11.1064 13.1705 11.0555C13.2231 11.0047 13.257 10.9363 13.2661 10.8623C13.2753 10.7883 13.2592 10.7134 13.2206 10.6504C13.182 10.5874 13.1234 10.5404 13.055 10.5175L11.22 10.2457L11.1121 12.1638C11.1078 12.2063 11.1121 12.2492 11.1249 12.2899C11.1377 12.3305 11.1585 12.3679 11.1862 12.3995C11.2138 12.4312 11.2476 12.4565 11.2853 12.4737C11.3231 12.4909 11.3639 12.4997 11.4051 12.4995H11.4205C11.4986 12.496 11.5729 12.4633 11.6295 12.4075C11.6862 12.3517 11.7215 12.2765 11.7289 12.1958L11.7751 11.4126L13.5021 13.5864C13.53 13.6219 13.5653 13.6504 13.6054 13.6698C13.6455 13.6892 13.6892 13.6989 13.7334 13.6983C13.8071 13.6961 13.8778 13.6679 13.9339 13.6184C13.9947 13.5629 14.032 13.4849 14.0378 13.4011C14.0435 13.3174 14.0173 13.2347 13.9647 13.1708Z"/>
<path d="M13.0703 18.0619C13.0312 17.988 12.9655 17.9331 12.8875 17.9092C12.8095 17.8852 12.7256 17.8942 12.6539 17.9341L10.3719 19.2607L10.6032 18.5415C10.6199 18.4634 10.6079 18.3816 10.5693 18.3123C10.5308 18.243 10.4686 18.1912 10.395 18.1671C10.3214 18.143 10.2418 18.1484 10.1719 18.1822C10.1019 18.216 10.0467 18.2757 10.0172 18.3496L9.43127 20.1878L11.2354 20.6513H11.3125C11.3833 20.6442 11.4495 20.6118 11.5 20.5598C11.5504 20.5077 11.5819 20.4392 11.5892 20.3658C11.5965 20.2924 11.579 20.2187 11.5398 20.1571C11.5006 20.0955 11.4421 20.0499 11.3741 20.028L10.6494 19.8362L12.9469 18.4935C13.0182 18.453 13.0712 18.3849 13.0943 18.304C13.1174 18.2232 13.1088 18.1362 13.0703 18.0619Z"/>
<path d="M24.4498 22.8731C24.154 22.8731 23.8648 22.7822 23.6188 22.6118C23.3729 22.4415 23.1812 22.1993 23.068 21.916C22.9547 21.6327 22.9251 21.3209 22.9828 21.0202C23.0406 20.7194 23.183 20.4432 23.3922 20.2263C23.6014 20.0095 23.8679 19.8618 24.158 19.802C24.4481 19.7422 24.7489 19.7729 25.0222 19.8902C25.2955 20.0076 25.5291 20.2063 25.6934 20.4613C25.8578 20.7163 25.9455 21.016 25.9455 21.3227C25.9415 21.7326 25.7826 22.1245 25.503 22.4144C25.2233 22.7043 24.8452 22.869 24.4498 22.8731ZM24.4498 20.4116C24.276 20.4116 24.106 20.465 23.9615 20.5651C23.817 20.6652 23.7043 20.8075 23.6378 20.974C23.5713 21.1405 23.5539 21.3237 23.5878 21.5004C23.6217 21.6771 23.7054 21.8395 23.8283 21.9669C23.9512 22.0943 24.1078 22.1811 24.2783 22.2162C24.4488 22.2514 24.6255 22.2334 24.7861 22.1644C24.9467 22.0954 25.084 21.9787 25.1806 21.8288C25.2772 21.679 25.3287 21.5029 25.3287 21.3227C25.3247 21.0823 25.2309 20.853 25.0669 20.683C24.9029 20.513 24.6817 20.4157 24.4498 20.4116Z"/>
<path d="M25.6063 16.1118C25.3105 16.1118 25.0213 16.0209 24.7753 15.8505C24.5294 15.6802 24.3377 15.438 24.2244 15.1547C24.1112 14.8714 24.0816 14.5597 24.1393 14.2589C24.197 13.9581 24.3395 13.6819 24.5487 13.465C24.7579 13.2482 25.0244 13.1005 25.3145 13.0407C25.6046 12.9809 25.9054 13.0116 26.1787 13.1289C26.452 13.2463 26.6856 13.445 26.8499 13.7C27.0143 13.955 27.102 14.2547 27.102 14.5614C27.098 14.9713 26.9391 15.3632 26.6595 15.6531C26.3798 15.943 26.0017 16.1077 25.6063 16.1118ZM25.6063 13.6503C25.3744 13.6544 25.1532 13.7517 24.9892 13.9217C24.8252 14.0917 24.7313 14.321 24.7274 14.5614C24.7274 14.803 24.82 15.0348 24.9848 15.2056C25.1496 15.3765 25.3732 15.4725 25.6063 15.4725C25.8394 15.4725 26.0629 15.3765 26.2278 15.2056C26.3926 15.0348 26.4852 14.803 26.4852 14.5614C26.4812 14.321 26.3874 14.0917 26.2234 13.9217C26.0594 13.7517 25.8382 13.6544 25.6063 13.6503Z"/>
<path d="M22.3836 10.07C22.0878 10.07 21.7986 9.97902 21.5527 9.80866C21.3067 9.63829 21.115 9.39614 21.0018 9.11284C20.8886 8.82953 20.859 8.51779 20.9167 8.21703C20.9744 7.91627 21.1168 7.64001 21.326 7.42317C21.5352 7.20634 21.8017 7.05867 22.0918 6.99885C22.382 6.93902 22.6827 6.96973 22.956 7.08708C23.2293 7.20443 23.4629 7.40315 23.6273 7.65812C23.7916 7.91309 23.8793 8.21286 23.8793 8.51951C23.8753 8.92942 23.7164 9.32137 23.4368 9.61124C23.1572 9.90111 22.7791 10.0658 22.3836 10.07ZM22.3836 7.60842C22.2098 7.60842 22.0399 7.66185 21.8953 7.76196C21.7508 7.86207 21.6381 8.00437 21.5716 8.17085C21.5051 8.33733 21.4877 8.52052 21.5216 8.69725C21.5555 8.87398 21.6392 9.03632 21.7621 9.16374C21.8851 9.29116 22.0417 9.37793 22.2122 9.41309C22.3827 9.44824 22.5594 9.4302 22.72 9.36124C22.8806 9.29228 23.0178 9.17551 23.1144 9.02568C23.211 8.87585 23.2625 8.6997 23.2625 8.51951C23.2586 8.27915 23.1647 8.04979 23.0007 7.87981C22.8368 7.70983 22.6155 7.61253 22.3836 7.60842Z"/>
<path d="M16.0462 7.73621C15.6508 7.73205 15.2727 7.56737 14.9931 7.2775C14.7134 6.98763 14.5546 6.59568 14.5505 6.18576C14.5505 5.77456 14.7081 5.3802 14.9886 5.08943C15.2691 4.79867 15.6495 4.63531 16.0462 4.63531C16.4429 4.63531 16.8233 4.79867 17.1038 5.08943C17.3843 5.3802 17.5419 5.77456 17.5419 6.18576C17.5379 6.59568 17.379 6.98763 17.0994 7.2775C16.8198 7.56737 16.4417 7.73205 16.0462 7.73621ZM16.0462 5.27468C15.8144 5.27879 15.5931 5.37609 15.4291 5.54607C15.2652 5.71605 15.1713 5.94541 15.1673 6.18576C15.1673 6.4274 15.2599 6.65914 15.4247 6.83C15.5896 7.00086 15.8131 7.09685 16.0462 7.09685C16.2793 7.09685 16.5029 7.00086 16.6677 6.83C16.8325 6.65914 16.9251 6.4274 16.9251 6.18576C16.9212 5.94541 16.8273 5.71605 16.6633 5.54607C16.4994 5.37609 16.2781 5.27879 16.0462 5.27468Z"/>
<path d="M9.70883 10.3256C9.41301 10.3256 9.12383 10.2347 8.87787 10.0643C8.6319 9.89397 8.44019 9.65182 8.32699 9.36851C8.21378 9.0852 8.18416 8.77346 8.24187 8.4727C8.29959 8.17195 8.44204 7.89568 8.65121 7.67885C8.86039 7.46201 9.1269 7.31435 9.41703 7.25452C9.70717 7.1947 10.0079 7.2254 10.2812 7.34275C10.5545 7.4601 10.7881 7.65883 10.9524 7.9138C11.1168 8.16877 11.2045 8.46853 11.2045 8.77518C11.2005 9.1851 11.0416 9.57704 10.762 9.86691C10.4824 10.1568 10.1043 10.3215 9.70883 10.3256ZM9.70883 7.86409C9.535 7.86409 9.36507 7.91753 9.22053 8.01764C9.07599 8.11775 8.96334 8.26004 8.89682 8.42652C8.8303 8.593 8.81289 8.77619 8.8468 8.95293C8.88072 9.12966 8.96442 9.292 9.08734 9.41942C9.21026 9.54684 9.36687 9.63361 9.53736 9.66876C9.70785 9.70392 9.88457 9.68588 10.0452 9.61692C10.2058 9.54796 10.343 9.43118 10.4396 9.28135C10.5362 9.13153 10.5877 8.95538 10.5877 8.77518C10.5838 8.53483 10.4899 8.30547 10.3259 8.13549C10.1619 7.96551 9.94069 7.8682 9.70883 7.86409Z"/>
<path d="M6.39364 16.1118C5.99696 16.1118 5.61652 15.9485 5.33603 15.6577C5.05553 15.3669 4.89795 14.9726 4.89795 14.5614C4.89795 14.1502 5.05553 13.7558 5.33603 13.465C5.61652 13.1743 5.99696 13.0109 6.39364 13.0109C6.79032 13.0109 7.17076 13.1743 7.45125 13.465C7.73175 13.7558 7.88933 14.1502 7.88933 14.5614C7.88933 14.9726 7.73175 15.3669 7.45125 15.6577C7.17076 15.9485 6.79032 16.1118 6.39364 16.1118ZM6.39364 13.6503C6.27822 13.6503 6.16393 13.6739 6.0573 13.7196C5.95066 13.7654 5.85377 13.8325 5.77216 13.9171C5.69054 14.0017 5.6258 14.1022 5.58163 14.2127C5.53746 14.3233 5.51473 14.4417 5.51473 14.5614C5.51473 14.681 5.53746 14.7995 5.58163 14.91C5.6258 15.0206 5.69054 15.121 5.77216 15.2056C5.85377 15.2902 5.95066 15.3573 6.0573 15.4031C6.16393 15.4489 6.27822 15.4725 6.39364 15.4725C6.62674 15.4725 6.8503 15.3765 7.01513 15.2056C7.17995 15.0347 7.27255 14.803 7.27255 14.5614C7.27255 14.3197 7.17995 14.088 7.01513 13.9171C6.8503 13.7463 6.62674 13.6503 6.39364 13.6503Z"/>
<path d="M7.6117 22.8251C7.31523 22.8251 7.02545 22.7338 6.77916 22.5627C6.53287 22.3916 6.34119 22.1485 6.22845 21.8643C6.11571 21.58 6.08701 21.2675 6.14598 20.9663C6.20495 20.6651 6.34894 20.3889 6.55966 20.1727C6.77038 19.9565 7.03833 19.8101 7.32947 19.7521C7.62062 19.6941 7.92182 19.7271 8.19484 19.8469C8.46786 19.9667 8.70037 20.1679 8.86285 20.425C9.02533 20.682 9.11045 20.9834 9.10739 21.2907C9.0994 21.6978 8.93877 22.0857 8.65956 22.3721C8.38035 22.6586 8.00451 22.8211 7.6117 22.8251ZM7.6117 20.3636C7.43787 20.3636 7.26794 20.417 7.1234 20.5172C6.97887 20.6173 6.86622 20.7596 6.79969 20.926C6.73317 21.0925 6.71577 21.2757 6.74968 21.4524C6.78359 21.6292 6.8673 21.7915 6.99022 21.9189C7.11314 22.0463 7.26974 22.1331 7.44023 22.1683C7.61073 22.2034 7.78745 22.1854 7.94805 22.1164C8.10865 22.0475 8.24591 21.9307 8.34249 21.7809C8.43907 21.631 8.49061 21.4549 8.49061 21.2747C8.48665 21.0343 8.39278 20.805 8.2288 20.635C8.06482 20.465 7.84357 20.3677 7.6117 20.3636Z"/>
<path d="M12.8236 27.3646C12.5278 27.3646 12.2386 27.2737 11.9926 27.1033C11.7466 26.933 11.5549 26.6908 11.4417 26.4075C11.3285 26.1242 11.2989 25.8125 11.3566 25.5117C11.4143 25.2109 11.5568 24.9347 11.766 24.7178C11.9751 24.501 12.2416 24.3533 12.5318 24.2935C12.8219 24.2337 13.1226 24.2644 13.396 24.3818C13.6693 24.4991 13.9028 24.6978 14.0672 24.9528C14.2315 25.2078 14.3193 25.5075 14.3193 25.8142C14.3152 26.2241 14.1564 26.616 13.8767 26.9059C13.5971 27.1958 13.219 27.3605 12.8236 27.3646ZM12.8236 24.8871C12.5917 24.8912 12.3705 24.9885 12.2065 25.1585C12.0425 25.3285 11.9486 25.5578 11.9447 25.7982C11.9447 26.0398 12.0373 26.2716 12.2021 26.4424C12.3669 26.6133 12.5905 26.7093 12.8236 26.7093C13.0567 26.7093 13.2802 26.6133 13.4451 26.4424C13.6099 26.2716 13.7025 26.0398 13.7025 25.7982C13.6985 25.5578 13.6046 25.3285 13.4407 25.1585C13.2767 24.9885 13.0554 24.8912 12.8236 24.8871Z"/>
<path d="M19.0068 27.3646C18.711 27.3646 18.4218 27.2737 18.1758 27.1033C17.9299 26.933 17.7382 26.6908 17.625 26.4075C17.5118 26.1242 17.4821 25.8125 17.5398 25.5117C17.5976 25.2109 17.74 24.9347 17.9492 24.7178C18.1584 24.501 18.4249 24.3533 18.715 24.2935C19.0051 24.2337 19.3059 24.2644 19.5792 24.3818C19.8525 24.4991 20.0861 24.6978 20.2504 24.9528C20.4148 25.2078 20.5025 25.5075 20.5025 25.8142C20.4985 26.2241 20.3396 26.616 20.06 26.9059C19.7803 27.1958 19.4022 27.3605 19.0068 27.3646ZM19.0068 24.8871C18.7749 24.8912 18.5537 24.9885 18.3897 25.1585C18.2257 25.3285 18.1319 25.5578 18.1279 25.7982C18.1279 26.0398 18.2205 26.2716 18.3853 26.4424C18.5501 26.6133 18.7737 26.7093 19.0068 26.7093C19.2399 26.7093 19.4635 26.6133 19.6283 26.4424C19.7931 26.2716 19.8857 26.0398 19.8857 25.7982C19.8817 25.5578 19.7879 25.3285 19.6239 25.1585C19.4599 24.9885 19.2387 24.8912 19.0068 24.8871Z"/>
<path d="M12.6694 15.4565L10.0326 14.929L10.6648 14.5294C10.7343 14.4828 10.7832 14.4094 10.8005 14.3255C10.8179 14.2416 10.8023 14.1539 10.7573 14.0818C10.7124 14.0098 10.6416 13.9592 10.5606 13.9412C10.4797 13.9232 10.3951 13.9393 10.3256 13.9859L8.75281 14.9929L9.84759 16.5754C9.87073 16.6102 9.9003 16.6399 9.93459 16.6628C9.96888 16.6857 10.0072 16.7013 10.0474 16.7087C10.0875 16.7162 10.1287 16.7153 10.1685 16.7061C10.2083 16.6969 10.246 16.6797 10.2793 16.6553H10.2948C10.3559 16.6048 10.3962 16.5322 10.4077 16.4521C10.4191 16.372 10.4008 16.2904 10.3564 16.2237L9.90927 15.5843L12.546 16.1118C12.6331 16.1245 12.7216 16.1016 12.7927 16.0479C12.8462 15.9964 12.8837 15.9296 12.9007 15.8561C12.9147 15.8141 12.9197 15.7694 12.9153 15.7252C12.9109 15.681 12.8972 15.6383 12.8751 15.6002C12.853 15.5621 12.8232 15.5295 12.7876 15.5047C12.7521 15.4798 12.7117 15.4634 12.6694 15.4565Z"/>
</g>
</g>
<defs>
<clipPath>
<rect width="22.2041" height="22.8571" transform="translate(4.89795 4.57141)"/>
</clipPath>
</defs>
</svg>
