<svg width="32" height="32" viewBox="0 0 32 32" xmlns="http://www.w3.org/2000/svg">
<g>
<g>
<g>
<path d="M27.4455 24.7525L26.1132 18.9117V9.326C26.1124 8.6672 25.8502 8.03564 25.3842 7.56994C24.9182 7.10425 24.2865 6.84246 23.6277 6.84204H8.35637C7.69784 6.84288 7.06653 7.10485 6.60087 7.5705C6.13522 8.03615 5.87325 8.66747 5.87241 9.326V18.9117L4.54014 24.7525C4.53071 24.793 4.52593 24.8345 4.52588 24.8761C4.52588 26.6139 5.96113 26.6139 7.00984 26.6139H24.9758C26.0245 26.6139 27.4597 26.6139 27.4597 24.8793C27.4599 24.8366 27.4552 24.7941 27.4455 24.7525ZM6.98132 9.326C6.98174 8.96144 7.12675 8.61194 7.38453 8.35416C7.64231 8.09638 7.99182 7.95137 8.35637 7.95095H23.6277C23.9925 7.95095 24.3424 8.09577 24.6005 8.3536C24.8587 8.61142 25.0039 8.96117 25.0043 9.326V18.4191H6.98132V9.326ZM24.9758 25.505H7.00984C5.74251 25.505 5.64113 25.4052 5.63479 24.9411L6.87043 19.5312H25.1152L26.3508 24.9411C26.3445 25.402 26.251 25.505 24.9758 25.505Z"/>
<path d="M17.8329 23.2729H14.1592C14.0121 23.2729 13.8711 23.3314 13.7671 23.4353C13.6632 23.5393 13.6047 23.6804 13.6047 23.8274C13.6047 23.9745 13.6632 24.1155 13.7671 24.2195C13.8711 24.3234 14.0121 24.3819 14.1592 24.3819H17.8329C17.9799 24.3819 18.1209 24.3234 18.2249 24.2195C18.3289 24.1155 18.3873 23.9745 18.3873 23.8274C18.3873 23.6804 18.3289 23.5393 18.2249 23.4353C18.1209 23.3314 17.9799 23.2729 17.8329 23.2729Z"/>
</g>
</g>
</g>
</svg>
