<svg width="32" height="32" viewBox="0 0 32 32" xmlns="http://www.w3.org/2000/svg">
<g>
<g>
<path d="M22.9228 10.7153C22.7757 10.7153 22.6347 10.7737 22.5307 10.8777C22.4267 10.9816 22.3683 11.1227 22.3683 11.2697V20.141L21.3655 19.0654V14.8721H15.4962V5.54457C15.4962 5.39752 15.4378 5.25649 15.3338 5.15251C15.2299 5.04853 15.0888 4.99011 14.9418 4.99011C14.7947 4.99011 14.6537 5.04853 14.5497 5.15251C14.4457 5.25649 14.3873 5.39752 14.3873 5.54457V24.9806H9.04078C8.89373 24.9806 8.75271 25.039 8.64872 25.143C8.54474 25.247 8.48633 25.388 8.48633 25.5351C8.48633 25.6821 8.54474 25.8231 8.64872 25.9271C8.75271 26.0311 8.89373 26.0895 9.04078 26.0895H23.4772V11.2697C23.4772 11.1227 23.4188 10.9816 23.3148 10.8777C23.2108 10.7737 23.0698 10.7153 22.9228 10.7153ZM20.2566 15.981V19.4994L22.3683 21.7632V24.9806H15.4962V15.981H20.2566Z"/>
</g>
</g>
</svg>
