<svg width="32" height="32" viewBox="0 0 32 32" xmlns="http://www.w3.org/2000/svg">
<g>
<g>
<g>
<path d="M22.4385 12.9711V9.96916C22.4516 9.11448 22.2981 8.26567 21.9868 7.47216C21.6754 6.67864 21.2126 5.95628 20.6252 5.34714C20.0377 4.73799 19.3375 4.25423 18.5651 3.92403C17.7928 3.59382 16.9638 3.42377 16.1264 3.42377C15.2891 3.42377 14.4601 3.59382 13.6878 3.92403C12.9154 4.25423 12.2152 4.73799 11.6277 5.34714C11.0403 5.95628 10.5775 6.67864 10.2661 7.47216C9.95482 8.26567 9.80126 9.11448 9.81438 9.96916V12.9711H5.91309V26.8404H26.1458V12.9711H22.4385ZM10.9007 9.96916C10.8887 9.26087 11.015 8.55723 11.2723 7.89931C11.5295 7.24139 11.9126 6.64235 12.399 6.13714C12.8855 5.63193 13.4656 5.23067 14.1055 4.95676C14.7455 4.68285 15.4325 4.54178 16.1264 4.54178C16.8204 4.54178 17.5074 4.68285 18.1473 4.95676C18.7873 5.23067 19.3674 5.63193 19.8539 6.13714C20.3403 6.64235 20.7234 7.24139 20.9806 7.89931C21.2379 8.55723 21.3642 9.26087 21.3522 9.96916V12.9711H10.9007V9.96916ZM25.2147 25.8899H6.84418V13.9216H25.2147V25.8899Z"/>
<path d="M16.1552 22.5299C16.2993 22.5299 16.4374 22.4715 16.5393 22.3675C16.6411 22.2636 16.6983 22.1225 16.6983 21.9755V18.6488C16.6983 18.5017 16.6411 18.3607 16.5393 18.2567C16.4374 18.1527 16.2993 18.0943 16.1552 18.0943C16.0112 18.0943 15.873 18.1527 15.7711 18.2567C15.6693 18.3607 15.6121 18.5017 15.6121 18.6488V21.9755C15.6121 22.1225 15.6693 22.2636 15.7711 22.3675C15.873 22.4715 16.0112 22.5299 16.1552 22.5299Z"/>
</g>
</g>
</g>
</svg>
