<svg width="32" height="32" viewBox="0 0 32 32" xmlns="http://www.w3.org/2000/svg">
<g>
<g>
<path d="M25.9318 9.30064L25.6074 8.57034L21.0916 13.1834C20.9964 13.2772 20.8693 13.3296 20.737 13.3296C20.6047 13.3296 20.4776 13.2772 20.3824 13.1834L18.7018 11.4725C18.6093 11.375 18.5577 11.2446 18.5577 11.109C18.5577 10.9733 18.6093 10.8429 18.7018 10.7454L23.2207 6.13074L22.5053 5.80123C21.2648 5.22797 19.8852 5.0447 18.5423 5.27478C17.1993 5.50487 15.9539 6.13788 14.9647 7.09316C13.9755 8.04844 13.2872 9.28274 12.9877 10.6388C12.6882 11.9948 12.7909 13.4112 13.2828 14.7074L6.26698 21.8694C6.00719 22.1321 5.80081 22.4446 5.65968 22.789C5.51854 23.1333 5.44545 23.5028 5.44459 23.8761C5.44373 24.2494 5.51512 24.6192 5.65466 24.9642C5.7942 25.3093 5.99914 25.6228 6.25772 25.8867C6.51629 26.1507 6.8234 26.3599 7.16141 26.5024C7.49942 26.6448 7.86166 26.7177 8.22734 26.7168C8.59302 26.7159 8.95492 26.6413 9.29227 26.4972C9.62962 26.3532 9.93576 26.1425 10.1931 25.8773L17.2089 18.7153C18.4786 19.217 19.8658 19.3215 21.1939 19.0155C22.522 18.7095 23.7308 18.0069 24.6663 16.9972C25.6018 15.9874 26.2218 14.7163 26.4471 13.3456C26.6725 11.975 26.4931 10.5668 25.9318 9.30064ZM22.063 17.5557C21.3153 17.9011 20.504 18.0797 19.6833 18.0797C18.8626 18.0797 18.0513 17.9011 17.3036 17.5557H17.2943L17.2338 17.5351L17.1903 17.5224C17.1717 17.5209 17.153 17.5209 17.1344 17.5224H16.9824C16.9634 17.5262 16.9447 17.5315 16.9265 17.5383C16.9116 17.541 16.8971 17.5453 16.883 17.5509C16.866 17.5509 16.8505 17.5668 16.8334 17.5747C16.8163 17.5826 16.8023 17.5905 16.7884 17.6C16.7753 17.6087 16.7629 17.6182 16.7511 17.6286C16.7341 17.6405 16.7181 17.6537 16.703 17.6682L9.42496 25.0931C9.26862 25.256 9.08221 25.3856 8.8765 25.4744C8.67079 25.5633 8.44987 25.6096 8.22651 25.6108C8.00315 25.6119 7.78178 25.5679 7.57521 25.4811C7.36863 25.3944 7.18095 25.2667 7.02301 25.1055C6.86507 24.9443 6.74 24.7527 6.65505 24.5418C6.57009 24.3309 6.52693 24.1049 6.52806 23.8769C6.52919 23.6489 6.57458 23.4234 6.66162 23.2134C6.74866 23.0034 6.87561 22.8131 7.03514 22.6535L14.3086 15.2286C14.3225 15.2127 14.3349 15.1953 14.3489 15.1779C14.3629 15.1604 14.3675 15.1541 14.3753 15.1414C14.3845 15.1256 14.3928 15.1092 14.4001 15.0923C14.4001 15.0765 14.4172 15.0606 14.4234 15.0448C14.429 15.0287 14.4336 15.0123 14.4374 14.9957C14.4435 14.9787 14.4481 14.9612 14.4513 14.9434V14.7296C14.4513 14.7105 14.442 14.701 14.4374 14.6868C14.4328 14.665 14.426 14.6438 14.4172 14.6234C13.9635 13.5964 13.8078 12.4582 13.9683 11.3435C14.1289 10.2289 14.5991 9.18467 15.3232 8.33447C16.0473 7.48427 16.9949 6.86376 18.0539 6.54647C19.1128 6.22917 20.2386 6.22839 21.298 6.54421L17.9305 9.98183C17.6395 10.2878 17.4767 10.6975 17.4767 11.124C17.4767 11.5505 17.6395 11.9602 17.9305 12.2662L19.6189 13.9882C19.9187 14.2853 20.32 14.4515 20.7378 14.4515C21.1556 14.4515 21.5569 14.2853 21.8567 13.9882L25.2272 10.5474C25.6121 11.9084 25.5045 13.3653 24.9241 14.652C24.3438 15.9387 23.3293 16.9693 22.0662 17.5557H22.063Z"/>
</g>
</g>
</svg>
