<svg width="32" height="32" viewBox="0 0 32 32" xmlns="http://www.w3.org/2000/svg">
<g>
<g>
<path d="M9.01393 11.691H10.4238V13.1168C10.4238 13.4178 10.6773 13.6712 10.9783 13.6712C11.2793 13.6712 11.5327 13.4178 11.5327 13.1168V11.691H12.9585C13.2595 11.691 13.5129 11.4376 13.5129 11.1366C13.5129 10.8356 13.2595 10.5821 12.9585 10.5821H11.5327V9.15638C11.5327 8.85539 11.2793 8.60193 10.9783 8.60193C10.6773 8.60193 10.4238 8.85539 10.4238 9.15638V10.5821H9.01393C8.71294 10.5821 8.45947 10.8356 8.45947 11.1366C8.45947 11.4376 8.71294 11.691 9.01393 11.691ZM11.7228 21.3069L12.9268 20.1029C13.1486 19.8811 13.1486 19.5326 12.9268 19.3108C12.705 19.0891 12.3565 19.0891 12.1506 19.3108L10.9624 20.5148L9.77432 19.3108C9.55254 19.0891 9.20403 19.0891 8.99809 19.3108C8.79215 19.5326 8.7763 19.8811 8.99809 20.1029L10.202 21.3069L8.99809 22.5108C8.7763 22.7326 8.7763 23.0811 8.99809 23.3029C9.10898 23.4138 9.25155 23.4613 9.39413 23.4613C9.5367 23.4613 9.67927 23.4138 9.79017 23.3029L10.9783 22.099L12.1664 23.3029C12.2773 23.4138 12.4199 23.4613 12.5624 23.4613C12.705 23.4613 12.8476 23.4138 12.9585 23.3029C13.1803 23.0811 13.1803 22.7326 12.9585 22.5108L11.7228 21.3069ZM19.01 11.691H23.4931C23.7941 11.691 24.0476 11.4376 24.0476 11.1366C24.0476 10.8356 23.7941 10.5821 23.4931 10.5821H19.01C18.709 10.5821 18.4555 10.8356 18.4555 11.1366C18.4555 11.4376 18.709 11.691 19.01 11.691ZM23.4615 19.1524H18.9783C18.6773 19.1524 18.4238 19.4059 18.4238 19.7069C18.4238 20.0079 18.6773 20.2613 18.9783 20.2613H23.4615C23.7624 20.2613 24.0159 20.0079 24.0159 19.7069C24.0159 19.4059 23.7783 19.1524 23.4615 19.1524ZM23.4615 21.9405H18.9783C18.6773 21.9405 18.4238 22.194 18.4238 22.495C18.4238 22.796 18.6773 23.0495 18.9783 23.0495H23.4615C23.7624 23.0495 24.0159 22.796 24.0159 22.495C24.0159 22.194 23.7783 21.9405 23.4615 21.9405Z"/>
<path d="M26.8831 16.1109V8.17428C26.8831 6.55844 25.5683 5.24359 23.9683 5.24359H8.15838C6.54254 5.24359 5.24353 6.55844 5.24353 8.17428V24.0792C5.24353 25.6951 6.55838 27.0099 8.15838 27.0099H23.9524C25.5683 27.0099 26.8673 25.6951 26.8673 24.0792V16.1584C26.8831 16.1426 26.8831 16.1268 26.8831 16.1109ZM25.7742 8.17428V15.5723H16.6336V6.3525H23.9683C24.9663 6.3525 25.7742 7.16042 25.7742 8.17428ZM8.15838 6.3525H15.5247V15.5723H6.35244V8.17428C6.35244 7.16042 7.1762 6.3525 8.15838 6.3525ZM6.35244 24.0634V16.6654H15.5247V25.8852H8.15838C7.1762 25.8852 6.35244 25.0773 6.35244 24.0634ZM23.9683 25.8852H16.6336V16.6654H25.7901V24.0634C25.7742 25.0773 24.9663 25.8852 23.9683 25.8852Z"/>
</g>
</g>
</svg>
