<svg width="32" height="32" viewBox="0 0 32 32" xmlns="http://www.w3.org/2000/svg">
<g>
<g>
<path d="M19.3124 5.12634C19.1654 5.12634 19.0244 5.18476 18.9204 5.28874C18.8164 5.39272 18.758 5.53375 18.758 5.6808C18.758 5.82785 18.8164 5.96888 18.9204 6.07286C19.0244 6.17684 19.1654 6.23525 19.3124 6.23525H24.9901L18.2542 12.9711C18.1492 13.0761 18.0902 13.2186 18.0902 13.3671C18.0902 13.5157 18.1492 13.6581 18.2542 13.7632C18.3593 13.8682 18.5017 13.9272 18.6503 13.9272C18.7988 13.9272 18.9413 13.8682 19.0463 13.7632L25.7742 7.01941V12.697C25.7742 12.8441 25.8326 12.9851 25.9366 13.0891C26.0406 13.1931 26.1816 13.2515 26.3287 13.2515C26.4757 13.2515 26.6168 13.1931 26.7207 13.0891C26.8247 12.9851 26.8831 12.8441 26.8831 12.697V5.12634H19.3124ZM12.9457 18.2796L6.21145 25.0139V19.3378C6.21145 19.1908 6.15303 19.0498 6.04905 18.9458C5.94507 18.8418 5.80405 18.7834 5.65699 18.7834C5.50994 18.7834 5.36892 18.8418 5.26494 18.9458C5.16095 19.0498 5.10254 19.1908 5.10254 19.3378V26.9069H12.6732C12.8203 26.9069 12.9613 26.8485 13.0653 26.7445C13.1693 26.6406 13.2277 26.4995 13.2277 26.3525C13.2277 26.2054 13.1693 26.0644 13.0653 25.9604C12.9613 25.8564 12.8203 25.798 12.6732 25.798H6.99561L13.7299 19.0638C13.8349 18.9587 13.8939 18.8163 13.8939 18.6677C13.8939 18.5192 13.8349 18.3767 13.7299 18.2717C13.6248 18.1667 13.4824 18.1076 13.3338 18.1076C13.1853 18.1076 13.0428 18.1667 12.9378 18.2717L12.9457 18.2796Z"/>
</g>
</g>
</svg>
