<svg width="32" height="32" viewBox="0 0 32 32" xmlns="http://www.w3.org/2000/svg">
<g>
<g>
<path d="M26.0714 6.5494C25.9007 6.34766 25.668 6.22351 25.4042 6.20799C25.1403 6.19248 24.892 6.27007 24.6903 6.44077C21.2763 9.38924 17.6916 10.46 15.6742 10.491C13.4861 10.5221 11.8877 10.5066 11.1118 10.5066V10.491H10.5687L10.0255 10.4755V10.491H6.87531C6.08388 10.491 5.44763 11.1273 5.44763 11.9187V17.5053C5.44763 18.2967 6.08388 18.933 6.87531 18.933H8.11678L8.52025 24.5506C8.53577 25.3265 9.17202 25.9628 9.94794 25.9628H12.0584C12.8499 25.9628 13.4861 25.3265 13.4861 24.5351L13.0826 18.9485C13.9051 18.964 14.8207 18.9795 15.8138 19.0106C19.4296 19.1192 23.2471 21.8659 24.7213 23.0453C24.892 23.185 25.1093 23.2471 25.3266 23.2471C25.5904 23.2471 25.8387 23.1384 26.0249 22.9522C26.2111 22.766 26.3042 22.5177 26.3042 22.2539V7.17013C26.3042 6.93735 26.2266 6.7201 26.0714 6.5494ZM6.54943 17.5053V11.9187C6.54943 11.7325 6.70461 11.5773 6.89083 11.5773H10.0255V17.8622H6.87531C6.70461 17.8622 6.54943 17.707 6.54943 17.5053ZM12.0584 24.892H9.94794C9.76172 24.892 9.60653 24.7368 9.60653 24.5506L9.20306 18.964H11.9808L12.3843 24.5661C12.3843 24.7368 12.2291 24.892 12.0584 24.892ZM25.2179 22.0522C20.6245 18.4519 17.1484 17.9553 15.8449 17.9243C14.7896 17.8933 13.843 17.8777 13.005 17.8622H11.1118V11.5773C11.9032 11.5928 13.5016 11.5928 15.6897 11.5618C19.1192 11.5152 22.9212 9.32717 25.2179 7.38738V22.0522Z"/>
</g>
</g>
</svg>
