<svg width="32" height="32" viewBox="0 0 32 32" xmlns="http://www.w3.org/2000/svg">
<g>
<g>
<path d="M24.7129 15.4455H7.28712C7.14007 15.4455 6.99904 15.5039 6.89506 15.6079C6.79108 15.7119 6.73267 15.8529 6.73267 16C6.73267 16.147 6.79108 16.2881 6.89506 16.392C6.99904 16.496 7.14007 16.5544 7.28712 16.5544H24.7129C24.8599 16.5544 25.0009 16.496 25.1049 16.392C25.2089 16.2881 25.2673 16.147 25.2673 16C25.2673 15.8529 25.2089 15.7119 25.1049 15.6079C25.0009 15.5039 24.8599 15.4455 24.7129 15.4455ZM24.7129 22.4855H7.28712C7.14007 22.4855 6.99904 22.5439 6.89506 22.6479C6.79108 22.7519 6.73267 22.8929 6.73267 23.04C6.73267 23.187 6.79108 23.328 6.89506 23.432C6.99904 23.536 7.14007 23.5944 7.28712 23.5944H24.7129C24.8599 23.5944 25.0009 23.536 25.1049 23.432C25.2089 23.328 25.2673 23.187 25.2673 23.04C25.2673 22.8929 25.2089 22.7519 25.1049 22.6479C25.0009 22.5439 24.8599 22.4855 24.7129 22.4855ZM7.28712 9.51443H24.7129C24.8599 9.51443 25.0009 9.45601 25.1049 9.35203C25.2089 9.24805 25.2673 9.10702 25.2673 8.95997C25.2673 8.81292 25.2089 8.67189 25.1049 8.56791C25.0009 8.46393 24.8599 8.40552 24.7129 8.40552H7.28712C7.14007 8.40552 6.99904 8.46393 6.89506 8.56791C6.79108 8.67189 6.73267 8.81292 6.73267 8.95997C6.73267 9.10702 6.79108 9.24805 6.89506 9.35203C6.99904 9.45601 7.14007 9.51443 7.28712 9.51443Z"/>
</g>
</g>
</svg>
