<svg width="32" height="32" viewBox="0 0 32 32" xmlns="http://www.w3.org/2000/svg">
<g>
<g>
<path d="M22.4866 14.1534C22.1917 14.1534 21.9434 14.4017 21.9434 14.6965V16.1087C21.9434 19.4296 19.2432 22.1298 15.9223 22.1298C12.6014 22.1298 9.90122 19.4296 9.90122 16.1087V14.6965C9.90122 14.4017 9.65293 14.1534 9.35808 14.1534C9.06323 14.1534 8.81494 14.4017 8.81494 14.6965V16.1087C8.81494 19.802 11.6548 22.8591 15.2705 23.185V26.3508H13.5946C13.2997 26.3508 13.0514 26.599 13.0514 26.8939C13.0514 27.1887 13.2997 27.437 13.5946 27.437H18.0794C18.3742 27.437 18.6225 27.1887 18.6225 26.8939C18.6225 26.599 18.3742 26.3508 18.0794 26.3508H16.3568V23.2005C20.0812 22.9833 23.0297 19.8796 23.0297 16.1087V14.6965C23.0297 14.3862 22.7969 14.1534 22.4866 14.1534Z"/>
<path d="M15.674 20.3607H15.9534C18.3121 20.3607 20.2209 18.4519 20.2209 16.0931V9.20301C20.2209 6.84423 18.3121 4.93549 15.9534 4.93549H15.674C13.3152 4.93549 11.4065 6.84423 11.4065 9.20301V16.0931C11.4065 18.4519 13.3152 20.3607 15.674 20.3607ZM12.4928 9.20301C12.4928 7.44945 13.9205 6.02177 15.674 6.02177H15.9534C17.7069 6.02177 19.1346 7.44945 19.1346 9.20301V16.0931C19.1346 17.8467 17.7069 19.2744 15.9534 19.2744H15.674C13.9205 19.2744 12.4928 17.8467 12.4928 16.0931V9.20301Z"/>
</g>
</g>
</svg>
