<svg width="32" height="32" viewBox="0 0 32 32" xmlns="http://www.w3.org/2000/svg">
<g>
<g>
<path d="M24.6336 17.288C24.4752 14.5878 22.5267 12.3532 19.8653 11.4997L23.303 6.30104C23.4138 6.14586 23.4455 5.95964 23.4138 5.77342C23.3346 5.36994 22.9386 5.10613 22.5267 5.1682L20.2138 5.49409C18.0435 5.80445 15.8574 5.80445 13.703 5.47857L11.596 5.1682C11.4376 5.13717 11.2792 5.1682 11.1208 5.2458C10.9307 5.33891 10.7881 5.50961 10.7247 5.69583C10.6614 5.88205 10.6931 6.0993 10.7881 6.27L13.9089 11.5617C11.1841 12.4928 9.20394 14.8051 9.02969 17.5828L8.49107 26.3196C8.47523 26.4748 8.5386 26.6145 8.63365 26.7231C8.74454 26.8317 8.88711 26.8938 9.02969 26.8938H24.5861C24.7445 26.8938 24.8871 26.8317 24.9822 26.7231C25.0772 26.6145 25.1406 26.4748 25.1247 26.3196L24.6336 17.288ZM12.1346 6.33208L13.5445 6.54933C15.8099 6.89073 18.1228 6.89073 20.3881 6.56485L21.9723 6.33208L18.7406 11.2203C18.6138 11.2048 18.4871 11.1738 18.3445 11.1738L18.8198 9.12537C18.8832 8.83052 18.6931 8.53567 18.4079 8.4736C18.1069 8.41153 17.8059 8.59775 17.7426 8.87707L17.2356 11.1117H16.697L15.699 8.16323C15.6039 7.8839 15.2871 7.72872 15.002 7.82183C14.7168 7.91494 14.5584 8.22531 14.6534 8.50464L15.5247 11.1893C15.3663 11.2048 15.1921 11.2359 15.0336 11.2669L12.1346 6.33208ZM9.64751 25.8075L10.1544 17.6449C10.3445 14.5878 13.1643 12.198 16.5861 12.198H17.4257C20.6733 12.198 23.3346 14.4637 23.5247 17.3501L24.0317 25.8075H9.64751Z"/>
<path d="M17.5841 18.4209V16.0466C18.1386 16.2017 18.6138 16.5742 18.8514 17.1173C18.9782 17.3966 19.295 17.5208 19.5801 17.3966C19.8653 17.2725 19.992 16.9621 19.8653 16.6828C19.4534 15.7362 18.5821 15.0844 17.5841 14.9292V14.1378C17.5841 13.843 17.3306 13.5947 17.0297 13.5947C16.7287 13.5947 16.4752 13.8274 16.4752 14.1378V14.9292C14.8752 15.131 14.3524 16.2173 14.3049 16.8535C14.2732 17.0397 14.2257 17.7691 14.7643 18.4364C15.1445 18.9174 15.7306 19.2278 16.491 19.3675V21.9901C15.4455 21.7107 15.0811 20.5624 15.0653 20.5003C14.9861 20.2055 14.6693 20.0503 14.3841 20.1279C14.0831 20.2055 13.9247 20.5158 14.0039 20.7952C14.2257 21.54 15.0178 22.8436 16.5069 23.0919V24.085C16.5069 24.3799 16.7603 24.6282 17.0613 24.6282C17.3623 24.6282 17.6158 24.3799 17.6158 24.085V23.0763C19.1841 22.8125 19.8178 21.6487 19.9445 21.0124C19.9762 20.8727 20.1029 20.1123 19.5801 19.414C19.1366 18.8864 18.4712 18.5605 17.5841 18.4209ZM15.6356 17.7846C15.3346 17.4277 15.398 17.0087 15.398 16.9932V16.9311C15.398 16.9311 15.4297 16.7138 15.5881 16.4966C15.7782 16.2483 16.0633 16.0931 16.4594 16.031V18.2657C16.095 18.157 15.8098 18.0019 15.6356 17.7846ZM18.8198 20.7952V20.8262C18.8198 20.8727 18.6455 21.7107 17.5841 21.9745V19.5227C18.0752 19.6158 18.4396 19.802 18.6297 20.0658C18.899 20.3917 18.8198 20.7952 18.8198 20.7952Z"/>
</g>
</g>
</svg>
