<svg width="32" height="32" viewBox="0 0 32 32" xmlns="http://www.w3.org/2000/svg">
<g>
<g>
<path d="M25.4733 6.58038H6.65353C5.86145 6.58038 5.22778 7.21663 5.22778 8.00807V21.2917C5.22778 22.0832 5.87729 22.7194 6.65353 22.7194H13.2595C13.3862 23.6971 12.8951 24.6592 12.0238 25.1247H9.75848C9.45749 25.1247 9.20402 25.373 9.20402 25.6679C9.20402 25.9627 9.45749 26.211 9.75848 26.211H22.3525C22.6535 26.211 22.907 25.9627 22.907 25.6679C22.907 25.373 22.6535 25.1247 22.3525 25.1247H20.4674C19.5961 24.6592 19.1209 23.6815 19.2317 22.7194H25.4575C26.2496 22.7194 26.8832 22.0832 26.8832 21.2917V8.00807C26.8991 7.21663 26.2654 6.58038 25.4733 6.58038ZM6.65353 7.66666H25.4733C25.6476 7.66666 25.7902 7.82185 25.7902 8.00807V18.7622H6.33669V8.00807C6.33669 7.82185 6.47927 7.66666 6.65353 7.66666ZM18.8357 25.1247H13.6872C14.21 24.4419 14.4634 23.5884 14.3842 22.7194H18.1387C18.0595 23.5884 18.3129 24.4419 18.8357 25.1247ZM25.4733 21.6331H6.65353C6.47927 21.6331 6.33669 21.4779 6.33669 21.2917V19.864H25.7902V21.2917C25.7902 21.4779 25.6476 21.6331 25.4733 21.6331Z"/>
<path d="M14.6851 16.6052C14.7168 16.6052 14.7643 16.6207 14.796 16.6207C14.9227 16.6207 15.0653 16.5742 15.1762 16.5121L19.1524 13.9671C19.2474 13.905 19.3108 13.843 19.3742 13.7499C19.5643 13.4395 19.4692 13.036 19.1682 12.8498L15.1603 10.2893C15.0494 10.2272 14.9385 10.1962 14.8118 10.1962C14.6375 10.1962 14.4633 10.2582 14.3366 10.3824C14.2098 10.5065 14.1306 10.6772 14.1306 10.8479V15.9535C14.1306 16.0931 14.1623 16.2173 14.2415 16.3414C14.3524 16.4656 14.5108 16.5742 14.6851 16.6052ZM15.2395 11.6394L17.996 13.4085L15.2395 15.162V11.6394Z"/>
</g>
</g>
</svg>
