<svg width="30" height="9" viewBox="0 0 30 9" xmlns="http://www.w3.org/2000/svg">
<path d="M2.3125 0.890625H0.608398V8H1.86816V5.89551L1.80957 2.70215L2.64453 5.65625H3.32324L4.25586 2.57031L4.19727 5.89551V8H5.45703V0.890625H3.75293L2.98633 3.56152L2.3125 0.890625ZM13.5947 4.96777V3.93262C13.5947 3.61035 13.5638 3.30599 13.502 3.01953C13.4434 2.73307 13.3571 2.4694 13.2432 2.22852C13.139 2.01693 13.0137 1.82324 12.8672 1.64746C12.724 1.47168 12.5563 1.32194 12.3643 1.19824C12.1722 1.06803 11.9557 0.96875 11.7148 0.900391C11.4772 0.828776 11.2217 0.792969 10.9482 0.792969C10.6781 0.792969 10.4274 0.827148 10.1963 0.895508C9.96517 0.963867 9.75684 1.06152 9.57129 1.18848C9.38249 1.31868 9.21484 1.47493 9.06836 1.65723C8.92513 1.83952 8.80306 2.04297 8.70215 2.26758C8.59798 2.50521 8.51823 2.764 8.46289 3.04395C8.41081 3.32389 8.38477 3.62012 8.38477 3.93262V4.96777C8.38477 5.26074 8.40755 5.53906 8.45312 5.80273C8.50195 6.06641 8.57194 6.31055 8.66309 6.53516C8.764 6.7793 8.88932 6.99902 9.03906 7.19434C9.1888 7.38639 9.35807 7.55078 9.54688 7.6875C9.73893 7.81771 9.95215 7.91862 10.1865 7.99023C10.4209 8.06185 10.6764 8.09766 10.9531 8.09766C11.2135 8.09766 11.4561 8.0651 11.6807 8C11.9085 7.93815 12.1169 7.85026 12.3057 7.73633C12.514 7.60612 12.6995 7.44336 12.8623 7.24805C13.0251 7.05273 13.1618 6.83789 13.2725 6.60352C13.3766 6.36914 13.4564 6.11523 13.5117 5.8418C13.5671 5.5651 13.5947 5.27376 13.5947 4.96777ZM12.2031 3.92285V4.96777C12.2031 5.14355 12.1934 5.31283 12.1738 5.47559C12.1576 5.63835 12.1315 5.78809 12.0957 5.9248C12.0501 6.10059 11.9883 6.25846 11.9102 6.39844C11.8353 6.53516 11.7425 6.64909 11.6318 6.74023C11.5439 6.8151 11.443 6.87207 11.3291 6.91113C11.2152 6.9502 11.0898 6.96973 10.9531 6.96973C10.8099 6.96973 10.6813 6.94857 10.5674 6.90625C10.4567 6.86393 10.3574 6.80371 10.2695 6.72559C10.1751 6.6377 10.0921 6.52376 10.0205 6.38379C9.95215 6.24056 9.90007 6.08268 9.86426 5.91016C9.83171 5.77344 9.80892 5.62533 9.7959 5.46582C9.78288 5.30632 9.77637 5.1403 9.77637 4.96777V3.92285C9.77637 3.74056 9.78288 3.56641 9.7959 3.40039C9.81217 3.23438 9.83659 3.08138 9.86914 2.94141C9.91146 2.75911 9.97005 2.59961 10.0449 2.46289C10.123 2.32617 10.2174 2.21224 10.3281 2.12109C10.4095 2.05924 10.5007 2.01204 10.6016 1.97949C10.7057 1.94694 10.8213 1.93066 10.9482 1.93066C11.0817 1.93066 11.2021 1.94857 11.3096 1.98438C11.4202 2.02018 11.5195 2.07064 11.6074 2.13574C11.7181 2.22363 11.8141 2.33757 11.8955 2.47754C11.9769 2.61426 12.042 2.77051 12.0908 2.94629C12.1299 3.08626 12.1576 3.23926 12.1738 3.40527C12.1934 3.56803 12.2031 3.74056 12.2031 3.92285ZM19.0518 5.34375L20.3896 8H21.8594V7.93652L20.3311 5.00195C20.5264 4.91406 20.7021 4.8099 20.8584 4.68945C21.0179 4.56901 21.1546 4.42741 21.2686 4.26465C21.3792 4.10514 21.4639 3.92448 21.5225 3.72266C21.5843 3.51758 21.6152 3.28809 21.6152 3.03418C21.6152 2.68262 21.5534 2.37337 21.4297 2.10645C21.3092 1.83952 21.1367 1.61654 20.9121 1.4375C20.6842 1.25846 20.4108 1.12337 20.0918 1.03223C19.7728 0.937826 19.4163 0.890625 19.0225 0.890625H16.6396V8H18.0117V5.34375H19.0518ZM18.0117 4.23047V2.00391H19.0225C19.2113 2.00391 19.3789 2.02669 19.5254 2.07227C19.6719 2.11784 19.7956 2.18294 19.8965 2.26758C20.0104 2.36198 20.0951 2.48242 20.1504 2.62891C20.209 2.77214 20.2383 2.93815 20.2383 3.12695C20.2383 3.2832 20.2155 3.4248 20.1699 3.55176C20.1276 3.67871 20.0641 3.78776 19.9795 3.87891C19.8786 3.99284 19.7467 4.08073 19.584 4.14258C19.4245 4.20117 19.2389 4.23047 19.0273 4.23047H18.0117ZM29.0205 4.88477V3.80078H26.1006V2.00879H29.499V0.890625H24.7236V8H29.5137V6.8916H26.1006V4.88477H29.0205Z"/>
</svg>
