<svg width="32" height="32" viewBox="0 0 32 32" xmlns="http://www.w3.org/2000/svg">
<g>
<g clip-path="url(#clip0_9220_24956)">
<path d="M14.5782 20.8249C14.414 20.821 14.2572 20.7527 14.1397 20.6337C14.0221 20.5147 13.9524 20.3539 13.9446 20.1837V15.3267C13.9446 15.2786 13.96 15.2305 13.96 15.1985V15.1344L14.0064 15.0382C14.0796 14.8886 14.2053 14.7736 14.3576 14.717C14.5099 14.6604 14.6773 14.6663 14.8255 14.7336L14.8718 14.7657L18.689 17.1381C18.7822 17.1873 18.8579 17.2658 18.9054 17.3625C18.994 17.4929 19.0326 17.653 19.0135 17.8113C18.9788 17.9964 18.8799 18.1618 18.7354 18.2762H18.7199L14.9491 20.6806C14.842 20.7658 14.7129 20.8161 14.5782 20.8249ZM14.7946 15.7595V19.7509L17.9627 17.7312L14.7946 15.7595Z"/>
<path d="M24.8865 7.21572H7.14517C6.97348 7.21478 6.80353 7.25141 6.64642 7.32323C6.48931 7.39504 6.34856 7.50042 6.23338 7.63249C6.11765 7.74783 6.02734 7.88777 5.96865 8.04272C5.90997 8.19766 5.88429 8.36394 5.89339 8.53015V23.4858C5.89339 23.826 6.02365 24.1521 6.2555 24.3926C6.48736 24.6331 6.80183 24.7682 7.12972 24.7682H24.8711C25.2004 24.7682 25.5165 24.6337 25.7508 24.3936C25.9851 24.1536 26.1188 23.8274 26.1228 23.4858V8.49809C26.1188 8.15928 25.9873 7.83551 25.7563 7.59591C25.5253 7.35632 25.2132 7.21987 24.8865 7.21572ZM25.2729 8.49809V10.8064H25.072L22.9393 8.11338H24.8711C24.9725 8.11307 25.0703 8.15255 25.1448 8.2239C25.2193 8.29526 25.2651 8.3932 25.2729 8.49809ZM10.1587 10.8064L8.02606 8.11338H9.77238L11.8896 10.8064H10.1587ZM13.0023 10.8064L10.8696 8.11338H12.6468L14.7641 10.8064H13.0023ZM15.8768 10.8064L13.7441 8.11338H15.6913L17.824 10.8064H15.8768ZM18.9367 10.8064L16.804 8.11338H18.7358L20.8839 10.8064H18.9367ZM21.9811 10.8064L19.8485 8.11338H21.8575L23.9747 10.8064H21.9811ZM6.85155 8.24162C6.88245 8.1775 6.92882 8.1775 6.95973 8.12941L9.04603 10.8224H6.72791V8.53015C6.73664 8.42228 6.7802 8.32062 6.85155 8.24162ZM24.8865 23.8866H7.14517C7.04271 23.8866 6.94444 23.8444 6.87198 23.7692C6.79953 23.6941 6.75882 23.5921 6.75882 23.4858V11.688H25.2883V23.4858C25.2776 23.591 25.2314 23.6889 25.1579 23.7623C25.0844 23.8356 24.9883 23.8796 24.8865 23.8866Z"/>
</g>
</g>
<defs>
<clipPath>
<rect width="20.2449" height="17.6327" transform="translate(5.87756 7.18365)"/>
</clipPath>
</defs>
</svg>
