<svg width="32" height="32" viewBox="0 0 32 32" xmlns="http://www.w3.org/2000/svg">
<g>
<g>
<path d="M16.8 15.9842L21.9976 10.7866C22.1026 10.6815 22.1616 10.5391 22.1616 10.3905C22.1616 10.242 22.1026 10.0995 21.9976 9.99449C21.8926 9.88945 21.7501 9.83044 21.6015 9.83044C21.453 9.83044 21.3105 9.88945 21.2055 9.99449L16.0158 15.208L10.8182 10.0024C10.7662 9.9504 10.7044 9.90915 10.6365 9.881C10.5685 9.85285 10.4957 9.83837 10.4221 9.83837C10.3486 9.83837 10.2758 9.85285 10.2078 9.881C10.1399 9.90915 10.0781 9.9504 10.0261 10.0024C9.9741 10.0544 9.93284 10.1162 9.90469 10.1841C9.87655 10.2521 9.86206 10.3249 9.86206 10.3984C9.86206 10.472 9.87655 10.5448 9.90469 10.6128C9.93284 10.6807 9.9741 10.7425 10.0261 10.7945L15.2316 15.9842L10.034 21.1818C9.98234 21.2332 9.94133 21.2943 9.91334 21.3616C9.88536 21.4289 9.87095 21.501 9.87095 21.5739C9.87095 21.6468 9.88536 21.7189 9.91334 21.7862C9.94133 21.8535 9.98234 21.9146 10.034 21.966C10.0855 22.0189 10.1471 22.0609 10.2151 22.0896C10.2832 22.1183 10.3562 22.1331 10.4301 22.1331C10.5039 22.1331 10.577 22.1183 10.645 22.0896C10.713 22.0609 10.7746 22.0189 10.8261 21.966L16.0237 16.7684L21.2214 21.966C21.2729 22.0189 21.3344 22.0609 21.4025 22.0896C21.4705 22.1183 21.5436 22.1331 21.6174 22.1331C21.6912 22.1331 21.7643 22.1183 21.8323 22.0896C21.9003 22.0609 21.9619 22.0189 22.0134 21.966C22.0651 21.9146 22.1061 21.8535 22.1341 21.7862C22.1621 21.7189 22.1765 21.6468 22.1765 21.5739C22.1765 21.501 22.1621 21.4289 22.1341 21.3616C22.1061 21.2943 22.0651 21.2332 22.0134 21.1818L16.8 15.9842Z"/>
</g>
</g>
</svg>
