<svg width="32" height="32" viewBox="0 0 32 32" xmlns="http://www.w3.org/2000/svg">
<g>
<g>
<g>
<path d="M9.05656 7.99207V11.5216H4.79834V21.3228C4.79834 22.183 5.0328 22.8515 5.49379 23.3125C5.95478 23.7735 6.62329 24.0079 7.4819 24.0079H23.4534C24.6653 24.0079 25.6031 23.6911 26.2399 23.0463C26.8768 22.4016 27.2015 21.4701 27.2015 20.2582V7.99207H9.05656ZM9.05656 21.3228C9.05656 21.8772 8.93299 22.2828 8.68745 22.5283C8.4419 22.7738 8.03636 22.899 7.4819 22.899C6.92745 22.899 6.53141 22.7738 6.27794 22.5283C6.02448 22.2828 5.90725 21.8772 5.90725 21.3228V12.6305H9.05656V21.3228ZM26.0926 20.2582C26.0926 21.1659 25.8787 21.8424 25.4589 22.2622C25.0391 22.682 24.3627 22.8958 23.4566 22.8958H9.79319C10.0579 22.411 10.1865 21.8636 10.1655 21.3117V9.10098H26.0926V20.2582Z"/>
<path d="M12.936 12.6384H19.2267C19.3738 12.6384 19.5148 12.58 19.6188 12.476C19.7228 12.372 19.7812 12.231 19.7812 12.0839C19.7812 11.9369 19.7228 11.7959 19.6188 11.6919C19.5148 11.5879 19.3738 11.5295 19.2267 11.5295H12.936C12.789 11.5295 12.648 11.5879 12.544 11.6919C12.44 11.7959 12.3816 11.9369 12.3816 12.0839C12.3816 12.231 12.44 12.372 12.544 12.476C12.648 12.58 12.789 12.6384 12.936 12.6384ZM12.936 16.4562H23.6624C23.8094 16.4562 23.9505 16.3978 24.0544 16.2938C24.1584 16.1898 24.2168 16.0488 24.2168 15.9018C24.2168 15.7547 24.1584 15.6137 24.0544 15.5097C23.9505 15.4057 23.8094 15.3473 23.6624 15.3473H12.936C12.789 15.3473 12.648 15.4057 12.544 15.5097C12.44 15.6137 12.3816 15.7547 12.3816 15.9018C12.3816 16.0488 12.44 16.1898 12.544 16.2938C12.648 16.3978 12.789 16.4562 12.936 16.4562ZM12.936 20.2772H23.6624C23.8094 20.2772 23.9505 20.2188 24.0544 20.1148C24.1584 20.0108 24.2168 19.8698 24.2168 19.7227C24.2168 19.5757 24.1584 19.4347 24.0544 19.3307C23.9505 19.2267 23.8094 19.1683 23.6624 19.1683H12.936C12.789 19.1683 12.648 19.2267 12.544 19.3307C12.44 19.4347 12.3816 19.5757 12.3816 19.7227C12.3816 19.8698 12.44 20.0108 12.544 20.1148C12.648 20.2188 12.789 20.2772 12.936 20.2772Z"/>
</g>
</g>
</g>
</svg>
