<svg width="32" height="32" viewBox="0 0 32 32" xmlns="http://www.w3.org/2000/svg">
<g>
<g>
<g>
<path d="M22.4427 6.86415L21.6395 6.30811C21.5187 6.22408 21.3695 6.19147 21.2247 6.21747C21.0798 6.24346 20.9513 6.32593 20.8672 6.44672C20.7832 6.56751 20.7506 6.71674 20.7766 6.86157C20.8026 7.0064 20.8851 7.13497 21.0059 7.219L21.809 7.77504C23.5934 9.01134 24.9303 10.7914 25.6202 12.8496C26.3102 14.9079 26.3163 17.134 25.6376 19.196C24.9589 21.258 23.6317 23.0453 21.8541 24.2913C20.0765 25.5374 17.9437 26.1753 15.7739 26.1101C13.6041 26.0448 11.5135 25.2799 9.81397 23.9293C8.11446 22.5787 6.89711 20.7149 6.34352 18.6158C5.78993 16.5168 5.92976 14.295 6.74215 12.2819C7.55455 10.2689 8.99597 8.57239 10.8514 7.44553C10.9774 7.36907 11.0679 7.24566 11.103 7.10246C11.1381 6.95927 11.1148 6.80801 11.0383 6.68197C10.9619 6.55592 10.8385 6.46542 10.6953 6.43036C10.5521 6.39531 10.4008 6.41857 10.2748 6.49504C8.19336 7.7607 6.58246 9.67175 5.68727 11.9373C4.79208 14.2029 4.66162 16.6989 5.31574 19.0454C5.96986 21.392 7.37274 23.4606 9.31086 24.9363C11.249 26.4121 13.6162 27.2142 16.0522 27.2206C16.728 27.2203 17.4024 27.1594 18.0672 27.0384C20.2412 26.6443 22.2495 25.6145 23.8383 24.0792C25.4271 22.5438 26.5251 20.5719 26.9934 18.4127C27.4617 16.2535 27.2793 14.0039 26.4693 11.9483C25.6593 9.89277 24.2581 8.12348 22.4427 6.86415Z"/>
<path d="M16 12.594C16.1471 12.594 16.2881 12.5356 16.3921 12.4317C16.4961 12.3277 16.5545 12.1866 16.5545 12.0396V5.49543C16.5545 5.34838 16.4961 5.20736 16.3921 5.10338C16.2881 4.99939 16.1471 4.94098 16 4.94098C15.853 4.94098 15.7119 4.99939 15.608 5.10338C15.504 5.20736 15.4456 5.34838 15.4456 5.49543V12.0396C15.4456 12.1866 15.504 12.3277 15.608 12.4317C15.7119 12.5356 15.853 12.594 16 12.594Z"/>
</g>
</g>
</g>
</svg>
