<svg width="32" height="32" viewBox="0 0 32 32" xmlns="http://www.w3.org/2000/svg">
<g>
<g clip-path="url(#clip0_9220_24978)">
<path d="M25.1178 17.3874L25.0234 17.3555V17.1322C24.9802 16.6103 24.8185 16.1055 24.5508 15.6574C24.283 15.2092 23.9166 14.8298 23.4801 14.5488C23.0831 14.2908 22.6384 14.1172 22.173 14.0385C22.1111 13.5916 22.0002 13.153 21.8423 12.7309C21.1022 10.594 19.181 9.17476 17.0393 9.17476C16.3057 9.15304 15.5789 9.32331 14.9292 9.66911C14.378 9.95615 13.6379 10.5143 13.2757 11.0565C13.1778 11.1899 13.0726 11.3176 12.9607 11.4392C12.0631 11.0884 10.9923 11.0405 10.2049 11.3276C8.63012 11.8379 7.51205 13.3847 7.44906 15.091C7.45282 15.1711 7.44754 15.2514 7.43331 15.3302H7.40181C6.93356 15.4453 6.49547 15.6617 6.11762 15.9645C5.73978 16.2673 5.43113 16.6494 5.2129 17.0844C4.92944 17.499 4.92944 17.7701 4.92944 18.4877C4.92944 19.2053 4.92944 19.4605 5.2129 19.9548C5.62234 20.8319 6.5042 21.5974 7.40181 21.8206C7.81125 21.9163 9.59073 21.9322 10.6773 21.9322C11.0722 22.3463 11.5743 22.6392 12.1261 22.7774H12.1733C12.5198 22.8253 13.8898 22.8253 18.9448 22.8253H25.2438L25.4643 22.7774L25.7162 22.6498H25.7477C26.4879 22.2671 26.9603 21.4698 27.0548 20.4332V20.4013C27.1178 18.8704 26.4564 17.8498 25.1178 17.3874ZM7.65377 20.8797H7.62228C7.28278 20.7785 6.96763 20.6072 6.69663 20.3767C6.42563 20.1461 6.20463 19.8614 6.04752 19.5402C6.04752 19.5243 6.03177 19.5243 6.03177 19.5083C5.8743 19.2213 5.8743 19.2213 5.8743 18.5037C5.8743 17.7861 5.8743 17.7861 6.03177 17.5947C6.02942 17.5722 6.035 17.5496 6.04752 17.5309C6.20763 17.2145 6.43452 16.9376 6.71211 16.7199C6.9897 16.5022 7.31118 16.3489 7.65377 16.2711C7.85882 16.2163 8.04786 16.1124 8.20494 15.9681C8.28567 15.8806 8.33551 15.7684 8.34667 15.6492V15.6013C8.36816 15.4321 8.37868 15.2617 8.37816 15.091C8.4018 14.4526 8.61616 13.8364 8.99292 13.3239C9.36968 12.8114 9.89112 12.4267 10.4883 12.2206C11.0867 11.9973 11.9529 12.0452 12.6458 12.3322C13.3386 12.6193 13.4804 12.3163 14.0315 11.6146C14.3909 11.1616 14.842 10.7918 15.3543 10.5302H15.3701C15.8744 10.2439 16.4456 10.1006 17.0236 10.1156C17.8939 10.1269 18.7392 10.4124 19.4419 10.9325C20.1447 11.4527 20.6699 12.1816 20.9447 13.0179C21.0713 13.325 21.1611 13.6462 21.2124 13.9748C20.8784 14.0033 20.5498 14.0784 20.2361 14.198L20.1416 14.2299L19.8424 13.9588C18.9133 12.9701 18.1889 12.6512 16.8661 12.6512C15.9842 12.6512 15.5433 12.7469 14.7559 13.1455C13.9686 13.5442 13.2914 14.4532 12.8977 15.5854C12.8174 15.79 12.7644 16.0045 12.7402 16.2233L12.4253 16.3189C11.2442 16.59 10.3466 17.2758 10.0002 18.1688C9.84659 18.5476 9.77671 18.9558 9.79544 19.3648C9.78753 19.8995 9.88385 20.4306 10.0789 20.9276C8.92933 20.9435 7.827 20.9276 7.65377 20.8797ZM26.1257 20.3535C26.0627 21.0392 25.7792 21.5495 25.3383 21.7887L25.1808 21.8684H18.9448C14.4567 21.8684 12.693 21.8684 12.3308 21.8366C11.008 21.4538 10.7246 20.3057 10.7246 19.3967C10.6996 19.1057 10.7541 18.8133 10.882 18.5515C11.1182 17.9455 11.7796 17.4671 12.6458 17.2758H12.693C13.1182 17.1482 13.7008 16.9887 13.7008 16.3189C13.7078 16.1966 13.74 16.0771 13.7953 15.9681V15.9362C14.1103 15.0432 14.6614 14.3096 15.1969 14.0226C15.7323 13.7356 16.0945 13.6239 16.8819 13.6239C17.9527 13.6239 18.4409 13.8472 19.181 14.6445H19.1967L19.6849 15.1229C19.7463 15.1831 19.8227 15.2252 19.9059 15.2448C19.9891 15.2645 20.076 15.2609 20.1574 15.2346L20.551 15.107H20.5668C20.9585 14.955 21.3794 14.896 21.7971 14.9347C22.2149 14.9734 22.6182 15.1088 22.9762 15.3302C23.2924 15.5309 23.5572 15.8047 23.7488 16.129C23.9404 16.4533 24.0534 16.819 24.0785 17.196L24.1257 17.7382C24.134 17.8327 24.1699 17.9226 24.2288 17.9965C24.2877 18.0703 24.3669 18.1247 24.4564 18.1528L24.8501 18.2804C25.7477 18.6153 26.1414 19.2532 26.1257 20.3535Z"/>
</g>
</g>
<defs>
<clipPath>
<rect width="22.2041" height="13.7143" transform="translate(4.89795 9.14285)"/>
</clipPath>
</defs>
</svg>
