<svg width="32" height="32" viewBox="0 0 32 32" xmlns="http://www.w3.org/2000/svg">
<g>
<g clip-path="url(#clip0_9220_24980)">
<path d="M25.3492 13.1155H26.5715V15.5972H25.3492C25.2398 15.5972 25.1348 15.6413 25.0574 15.7199C24.98 15.7984 24.9365 15.905 24.9365 16.0161V25.1047C24.9326 25.2146 24.8879 25.3188 24.8113 25.3965C24.7347 25.4743 24.632 25.5197 24.5238 25.5237H18.4127V23.8639H22.8889C22.9984 23.8639 23.1034 23.8197 23.1808 23.7412C23.2581 23.6626 23.3016 23.556 23.3016 23.4449C23.3039 23.3893 23.2947 23.3338 23.2748 23.2819C23.2548 23.2301 23.2245 23.183 23.1857 23.1436C23.147 23.1042 23.1006 23.0734 23.0495 23.0532C22.9984 23.0329 22.9437 23.0237 22.8889 23.0259H18.4127V21.3661H22.8889C22.9984 21.3661 23.1034 21.322 23.1808 21.2434C23.2581 21.1649 23.3016 21.0583 23.3016 20.9472C23.3016 20.836 23.2581 20.7295 23.1808 20.6509C23.1034 20.5723 22.9984 20.5282 22.8889 20.5282H18.4127V18.8684H22.8889C22.9984 18.8684 23.1034 18.8243 23.1808 18.7457C23.2581 18.6671 23.3016 18.5605 23.3016 18.4494C23.3039 18.3938 23.2947 18.3383 23.2748 18.2864C23.2548 18.2346 23.2245 18.1875 23.1857 18.1481C23.147 18.1087 23.1006 18.078 23.0495 18.0577C22.9984 18.0374 22.9437 18.0282 22.8889 18.0304H18.4127V6.50858H24.5238C24.6333 6.50858 24.7383 6.55272 24.8157 6.63129C24.8931 6.70987 24.9365 6.81643 24.9365 6.92755V7.74939C24.9365 7.86051 24.98 7.96708 25.0574 8.04565C25.1348 8.12423 25.2398 8.16837 25.3492 8.16837H26.5715V10.65H25.3492C25.2958 10.6478 25.2425 10.6566 25.1925 10.6759C25.1425 10.6952 25.0969 10.7245 25.0583 10.7621C25.0198 10.7998 24.9891 10.8449 24.9682 10.8949C24.9473 10.9448 24.9365 10.9986 24.9365 11.0529V12.7127C24.9443 12.8196 24.9907 12.92 25.0669 12.9943C25.1431 13.0687 25.2436 13.1118 25.3492 13.1155ZM17.6191 6.0896V27.4897L5.74607 25.6204C5.65063 25.6053 5.56341 25.5568 5.4996 25.4831C5.43579 25.4095 5.39944 25.3155 5.39687 25.2175V6.79864C5.39616 6.69966 5.43137 6.60389 5.49578 6.52959C5.56019 6.45528 5.64928 6.40765 5.74607 6.39578L17.6191 4.51038V6.0896ZM26.5715 11.4557C26.6778 11.4557 26.783 11.4345 26.8813 11.3932C26.9795 11.3519 27.0687 11.2913 27.1439 11.215C27.2191 11.1387 27.2787 11.0481 27.3194 10.9484C27.3601 10.8487 27.381 10.7418 27.381 10.6339V8.15226C27.381 7.93429 27.2957 7.72525 27.1439 7.57113C26.9921 7.417 26.7862 7.33042 26.5715 7.33042H25.7619V6.91144C25.7578 6.58365 25.6277 6.27047 25.3994 6.03867C25.1711 5.80687 24.8626 5.6748 24.5397 5.67062H18.4286V4.02694C18.4305 3.96806 18.4185 3.90956 18.3937 3.85632C18.3688 3.80307 18.3318 3.7566 18.2858 3.72077C18.2404 3.68107 18.1871 3.65187 18.1296 3.63517C18.072 3.61847 18.0116 3.61469 17.9524 3.62408L5.63496 5.57394C5.34615 5.61681 5.08244 5.76454 4.89272 5.98974C4.703 6.21493 4.60015 6.50233 4.60322 6.79864V25.2175C4.60015 25.5138 4.703 25.8012 4.89272 26.0264C5.08244 26.2516 5.34615 26.3993 5.63496 26.4422L17.9683 28.3921H18.0318C18.13 28.3922 18.2252 28.358 18.3016 28.2954C18.3459 28.2579 18.3816 28.2112 18.4063 28.1583C18.431 28.1054 18.444 28.0477 18.4445 27.9892V26.3294H24.5556C24.8785 26.3252 25.187 26.1932 25.4153 25.9614C25.6436 25.7296 25.7737 25.4164 25.7778 25.0886V16.419H26.5873C26.802 16.419 27.0079 16.3324 27.1598 16.1783C27.3116 16.0242 27.3969 15.8151 27.3969 15.5972V13.1155C27.3969 13.0076 27.3759 12.9007 27.3352 12.801C27.2946 12.7013 27.2349 12.6107 27.1598 12.5344C27.0846 12.4581 26.9953 12.3975 26.8971 12.3562C26.7989 12.3149 26.6936 12.2937 26.5873 12.2937H25.7778V11.4718H26.5715V11.4557Z"/>
<path d="M9.07941 19.7225C9.18886 19.7225 9.29383 19.6783 9.37123 19.5997C9.44862 19.5212 9.4921 19.4146 9.4921 19.3035V13.9857L13.635 19.9481C13.6727 20.0023 13.7226 20.0467 13.7806 20.0775C13.8385 20.1083 13.9029 20.1247 13.9683 20.1253H14.0953C14.1777 20.1009 14.2501 20.05 14.3016 19.9803C14.3531 19.9106 14.381 19.8257 14.381 19.7386V12.2776C14.381 12.1664 14.3375 12.0599 14.2601 11.9813C14.1827 11.9027 14.0777 11.8586 13.9683 11.8586C13.8588 11.8586 13.7539 11.9027 13.6765 11.9813C13.5991 12.0599 13.5556 12.1664 13.5556 12.2776V18.4172L9.41274 12.4548C9.36118 12.3837 9.28953 12.3302 9.20731 12.3014C9.12509 12.2727 9.03619 12.2699 8.95242 12.2937C8.86999 12.3181 8.79759 12.369 8.74607 12.4387C8.69456 12.5084 8.66671 12.5933 8.66671 12.6804V19.2874C8.66215 19.3443 8.66958 19.4016 8.68849 19.4554C8.7074 19.5092 8.73736 19.5583 8.77639 19.5994C8.81542 19.6406 8.86262 19.6728 8.91486 19.694C8.9671 19.7152 9.02319 19.7249 9.07941 19.7225Z"/>
</g>
</g>
<defs>
<clipPath>
<rect width="22.8571" height="24.8163" transform="translate(4.57141 3.59183)"/>
</clipPath>
</defs>
</svg>
