<svg width="32" height="32" viewBox="0 0 32 32" xmlns="http://www.w3.org/2000/svg">
<g>
<g clip-path="url(#clip0_9220_24990)">
<path d="M27.0187 8.95534C27.0187 8.95109 27.017 8.94702 27.0141 8.94402C27.0111 8.94101 27.0071 8.93933 27.0029 8.93933C26.8908 8.82659 26.7579 8.73744 26.6119 8.677C26.4658 8.61655 26.3094 8.586 26.1517 8.5871H17.6236V4.02409C17.6224 3.96217 17.6077 3.90129 17.5804 3.8459C17.5531 3.7905 17.514 3.74198 17.466 3.70388C17.4239 3.66478 17.3737 3.63584 17.3191 3.6192C17.2646 3.60257 17.207 3.59868 17.1507 3.60782L5.6433 5.5611C5.35498 5.60337 5.09125 5.74954 4.90024 5.97293C4.70923 6.19633 4.6037 6.48204 4.60291 6.7779V25.222C4.6037 25.5179 4.70923 25.8036 4.90024 26.027C5.09125 26.2504 5.35498 26.3966 5.6433 26.4388L17.1665 28.3921H17.2295C17.327 28.3922 17.4216 28.3583 17.4975 28.2961C17.5453 28.2663 17.584 28.2236 17.6091 28.1726C17.6342 28.1217 17.6447 28.0646 17.6394 28.0079V23.4609H26.1832C26.4935 23.4599 26.7919 23.3398 27.0187 23.1247C27.0502 23.1247 27.0502 23.1087 27.0502 23.0926C27.2662 22.8573 27.3896 22.5497 27.397 22.2281V9.81991C27.3949 9.65729 27.3602 9.4968 27.2952 9.34818C27.2302 9.19957 27.1361 9.06591 27.0187 8.95534ZM16.8354 27.5276L5.76941 25.6543C5.67329 25.6425 5.5848 25.5952 5.52084 25.5214C5.45688 25.4476 5.42191 25.3524 5.42261 25.2541V6.79392C5.42191 6.69558 5.45688 6.60042 5.52084 6.5266C5.5848 6.45278 5.67329 6.40545 5.76941 6.39365L16.8354 4.52042V27.5276ZM17.6394 9.40363H25.9468L17.7812 17.0086L17.6394 17.1207V9.40363ZM17.6394 22.6443V17.9853C17.8952 17.9178 18.1324 17.7919 18.333 17.617L19.2945 16.7204L25.931 22.6443H17.6394ZM26.6088 22.132L19.8935 16.1601L26.6088 9.91597V22.132Z"/>
<path d="M10.9084 20.3389H11.1449C12.0034 20.3346 12.8253 19.9853 13.4309 19.3672C14.0365 18.7491 14.3764 17.9127 14.3764 17.0407V14.9913C14.3764 14.1166 14.0343 13.2777 13.4253 12.6592C12.8163 12.0407 11.9904 11.6932 11.1291 11.6932C10.2679 11.6932 9.44194 12.0407 8.83295 12.6592C8.22397 13.2777 7.88184 14.1166 7.88184 14.9913V17.0407C7.87994 17.8779 8.19161 18.6846 8.75364 19.2971C9.31568 19.9095 10.086 20.282 10.9084 20.3389ZM8.68579 14.9913C8.69153 14.3648 8.92748 13.7629 9.3474 13.3039C9.76731 12.8448 10.3409 12.5616 10.9557 12.5097H11.1291C11.7759 12.5139 12.395 12.7767 12.8523 13.2412C13.3096 13.7057 13.5684 14.3345 13.5725 14.9913V17.0407C13.5725 17.6989 13.3151 18.3301 12.8568 18.7955C12.3986 19.2609 11.7772 19.5223 11.1291 19.5223C10.4811 19.5223 9.85964 19.2609 9.40143 18.7955C8.94321 18.3301 8.68579 17.6989 8.68579 17.0407V14.9913Z"/>
</g>
</g>
<defs>
<clipPath>
<rect width="22.8571" height="24.8163" transform="translate(4.57141 3.59183)"/>
</clipPath>
</defs>
</svg>
