<svg width="32" height="32" viewBox="0 0 32 32" xmlns="http://www.w3.org/2000/svg">
<g>
<g>
<path d="M4.37378 21.3988H9.52229V18.2952H13.7995V21.3988H18.2352V18.2952H22.5124V21.3988H27.6609V15.1139H4.37378V21.3988ZM5.48269 16.2002H26.552V20.3125H23.6213V17.2089H17.1263V20.3125H14.9084V17.2089H8.41338V20.3125H5.48269V16.2002ZM4.92823 13.843H9.86447C10.0115 13.843 10.1526 13.7857 10.2565 13.6839C10.3605 13.582 10.4189 13.4439 10.4189 13.2998C10.4189 13.1558 10.3605 13.0176 10.2565 12.9158C10.1526 12.8139 10.0115 12.7567 9.86447 12.7567H4.92823C4.78118 12.7567 4.64016 12.8139 4.53618 12.9158C4.43219 13.0176 4.37378 13.1558 4.37378 13.2998C4.37378 13.4439 4.43219 13.582 4.53618 13.6839C4.64016 13.7857 4.78118 13.843 4.92823 13.843ZM13.5603 13.843H18.4966C18.6436 13.843 18.7846 13.7857 18.8886 13.6839C18.9926 13.582 19.051 13.4439 19.051 13.2998C19.051 13.1558 18.9926 13.0176 18.8886 12.9158C18.7846 12.8139 18.6436 12.7567 18.4966 12.7567H13.5603C13.4133 12.7567 13.2722 12.8139 13.1683 12.9158C13.0643 13.0176 13.0059 13.1558 13.0059 13.2998C13.0059 13.4439 13.0643 13.582 13.1683 13.6839C13.2722 13.7857 13.4133 13.843 13.5603 13.843ZM27.2886 12.7567H22.3524C22.2053 12.7567 22.0643 12.8139 21.9603 12.9158C21.8564 13.0176 21.7979 13.1558 21.7979 13.2998C21.7979 13.4439 21.8564 13.582 21.9603 13.6839C22.0643 13.7857 22.2053 13.843 22.3524 13.843H27.2886C27.4357 13.843 27.5767 13.7857 27.6807 13.6839C27.7847 13.582 27.8431 13.4439 27.8431 13.2998C27.8431 13.1558 27.7847 13.0176 27.6807 12.9158C27.5767 12.8139 27.4357 12.7567 27.2886 12.7567Z"/>
</g>
</g>
</svg>
