<svg width="32" height="32" viewBox="0 0 32 32" xmlns="http://www.w3.org/2000/svg">
<g>
<g clip-path="url(#clip0_9594_11434)">
<path d="M8.62217 20.6134H23.3623V23.6409H21.3137V21.3503H16.77V23.6409H15.2144V21.3503H10.6707V23.6409H8.62217V20.6134ZM7.85205 19.8125V24.4418H11.4562V22.1512H14.4443V24.4418H17.5402V22.1512H20.5282V24.4418H24.1324V19.8125H7.85205Z"/>
<path d="M8.11401 7.55835V19.5882H15.8152V7.55835H8.11401ZM15.1991 18.9475H8.73011V13.9177H15.1991V18.9475ZM8.73011 8.19909H15.1991V13.2289H8.73011V8.19909Z"/>
<path d="M16.1848 7.55835V19.5882H23.886V7.55835H16.1848ZM23.2699 18.9475H16.8009V13.9177H23.2699V18.9475ZM16.8009 8.19909H23.2699V13.2289H16.8009V8.19909Z"/>
<path d="M12.4265 8.71167H14.3364V9.89704H12.4265V8.71167Z"/>
<path d="M20.7593 8.71167H22.6692V9.89704H20.7593V8.71167Z"/>
<path d="M12.4265 14.3982H14.3364V15.5836H12.4265V14.3982Z"/>
<path d="M20.7593 14.3982H22.6692V15.5836H20.7593V14.3982Z"/>
</g>
</g>
<defs>
<clipPath>
<rect width="16.3265" height="16.9796" transform="translate(7.83667 7.51025)"/>
</clipPath>
</defs>
</svg>
