<svg width="32" height="32" viewBox="0 0 32 32" xmlns="http://www.w3.org/2000/svg">
<g>
<g>
<g>
<path d="M19.268 11.6285L16.4188 10.5143C15.2751 10.0643 15.3434 9.59716 15.3775 9.3737C15.5001 8.55899 16.5011 8.61796 16.9294 8.68158C17.6153 8.784 18.0156 9.18592 18.4052 9.57543L18.7295 9.89977L21.6299 7.83428L21.2078 7.38115C20.4567 6.5773 19.3626 5.61982 17.547 5.34825C14.1376 4.83925 11.678 6.2809 11.2683 9.01678C11.1138 9.92554 11.2685 10.8599 11.7075 11.6704C10.3108 12.361 9.51162 13.4597 9.27885 15.013C8.91106 17.4804 10.1743 19.4109 12.8356 20.4444L15.6895 21.568C16.8347 22.0164 16.7649 22.4835 16.7307 22.7086C16.6081 23.5233 15.6072 23.4627 15.1789 23.3991C14.5473 23.306 14.1857 22.9848 13.7419 22.541L13.4098 22.2073L10.4613 24.3907L10.8788 24.8454C11.8483 25.8844 13.1491 26.5538 14.5582 26.7387C14.9916 26.8053 15.4294 26.8396 15.8679 26.8411C18.5821 26.8411 20.4784 25.4444 20.8338 23.067C20.988 22.1583 20.8334 21.224 20.3946 20.4134C21.7912 19.7244 22.5904 18.6257 22.8232 17.0723C23.1925 14.6034 21.9294 12.6667 19.268 11.6285ZM21.7509 16.9047C21.5445 18.2858 20.8198 19.1347 19.3937 19.6561L18.6767 19.9184L19.1593 20.5096C19.6978 21.1691 19.9011 21.9745 19.763 22.901C19.4526 25.0192 17.5144 26.076 14.7211 25.6586C13.7625 25.5366 12.8594 25.1405 12.1202 24.518L13.3136 23.6334C13.7812 24.0846 14.378 24.3786 15.0206 24.4745C16.5336 24.7011 17.6261 24.0695 17.8046 22.8684C17.9598 21.8426 17.3794 21.0636 16.0852 20.5562L13.236 19.442C11.034 18.5822 10.0594 17.1468 10.3543 15.1775C10.5684 13.7949 11.2869 12.946 12.7115 12.4308L13.4284 12.1685L12.9458 11.5773C12.4073 10.9162 12.204 10.1124 12.3437 9.18593C12.6541 7.06613 14.5908 6.01088 17.384 6.42833C18.3557 6.56775 19.2596 7.00721 19.9694 7.68531L18.8397 8.49071C18.3608 8.02177 17.748 7.71322 17.0861 7.60771C15.5746 7.38115 14.4821 8.01119 14.3021 9.21231C14.1469 10.2396 14.7273 11.0171 16.0215 11.5261L18.8707 12.6403C21.0759 13.5 22.052 14.9355 21.7493 16.9047H21.7509Z"/>
<path d="M17.8341 14.0742L14.9337 12.9414L14.7785 12.9662C12.8155 13.2998 12.3499 14.4932 12.2475 15.1745C12.1404 15.8945 12.2599 17.2182 14.2649 18.0081L17.1653 19.1409L17.3204 19.1146C19.2897 18.7825 19.7553 17.5891 19.8577 16.9063C19.9632 16.1878 19.8437 14.8625 17.8341 14.0742ZM18.7807 16.7465C18.6829 17.406 18.1786 17.8327 17.2801 18.0174L14.6668 16.9963C13.1631 16.4066 13.2826 15.5997 13.3229 15.3358C13.4207 14.6763 13.925 14.2496 14.8235 14.0649L17.4368 15.086C18.9483 15.6757 18.8211 16.4811 18.7807 16.7465Z"/>
</g>
</g>
</g>
</svg>
