<svg width="32" height="32" viewBox="0 0 32 32" xmlns="http://www.w3.org/2000/svg">
<g>
<g>
<path d="M13.3639 26.6192H8.18849C8.04144 26.6192 7.90041 26.5619 7.79643 26.4601C7.69245 26.3582 7.63403 26.2201 7.63403 26.076V5.79982C7.63403 5.65577 7.69245 5.51762 7.79643 5.41577C7.90041 5.31391 8.04144 5.25668 8.18849 5.25668H13.3639C13.511 5.25668 13.652 5.31391 13.756 5.41577C13.86 5.51762 13.9184 5.65577 13.9184 5.79982V26.076C13.9184 26.2201 13.86 26.3582 13.756 26.4601C13.652 26.5619 13.511 26.6192 13.3639 26.6192ZM8.74294 25.5329H12.8095V6.34296H8.74294V25.5329ZM23.7132 26.6192H18.5346C18.3876 26.6192 18.2465 26.5619 18.1426 26.4601C18.0386 26.3582 17.9802 26.2201 17.9802 26.076V5.79982C17.9802 5.65577 18.0386 5.51762 18.1426 5.41577C18.2465 5.31391 18.3876 5.25668 18.5346 5.25668H23.7101C23.8571 5.25668 23.9982 5.31391 24.1021 5.41577C24.2061 5.51762 24.2645 5.65577 24.2645 5.79982V26.076C24.2645 26.2195 24.2066 26.3572 24.1033 26.459C24 26.5608 23.8597 26.6183 23.7132 26.6192ZM19.0923 25.5329H23.1588V6.34296H19.0923V25.5329Z"/>
</g>
</g>
</svg>
