<svg width="32" height="32" viewBox="0 0 32 32" xmlns="http://www.w3.org/2000/svg">
<g>
<g>
<g>
<path d="M13.0281 19.8641H11.6261V23.3201H12.3564V22.1158H12.96C13.8075 22.1158 14.2542 21.6798 14.2542 20.9752C14.2542 20.2707 13.7916 19.8641 13.0281 19.8641ZM12.8982 21.5106H12.3564V20.4709H12.9695C13.3069 20.4709 13.5445 20.6463 13.5445 20.9861C13.5445 21.326 13.3307 21.5106 12.8982 21.5106ZM16.274 19.8641H14.975V23.3201H16.3722C17.4479 23.3201 17.9564 22.6512 17.9564 21.5929C17.9485 20.5097 17.4479 19.8641 16.274 19.8641ZM16.274 22.7133H15.7037V20.4461H16.179C16.9821 20.4461 17.215 20.7968 17.215 21.5929C17.215 22.389 16.9821 22.7133 16.2788 22.7133H16.274ZM18.7516 23.3201H19.4851V21.8877H21.0202V21.2484H19.4851V20.505H21.2435V19.8641H18.7516V23.3201Z"/>
<path d="M25.3117 11.6952C25.3063 11.6721 25.2994 11.6493 25.2911 11.627C25.2881 11.6159 25.2844 11.605 25.28 11.5944C25.2694 11.5703 25.2573 11.547 25.2436 11.5245C25.2394 11.5164 25.2346 11.5087 25.2293 11.5013C25.2098 11.4719 25.1869 11.4449 25.1612 11.4206L18.8134 5.20239C18.7883 5.17905 18.7613 5.15778 18.7327 5.13876C18.7226 5.13216 18.712 5.12645 18.701 5.12169C18.6807 5.10881 18.6596 5.0974 18.6376 5.08755L18.5964 5.07514C18.5758 5.07514 18.5552 5.06117 18.5331 5.05652C18.497 5.04976 18.4604 5.04612 18.4237 5.04565H9.95959C9.25162 5.04565 8.57259 5.32083 8.07154 5.81078C7.57049 6.30073 7.28837 6.96542 7.28711 7.65893V24.2387C7.28795 24.9319 7.56945 25.5965 8.06986 26.0867C8.57027 26.5769 9.24873 26.8527 9.95642 26.8535H22.6535C23.3611 26.8527 24.0396 26.5769 24.54 26.0867C25.0404 25.5965 25.3219 24.9319 25.3228 24.2387V11.8101C25.3235 11.7715 25.3198 11.733 25.3117 11.6952ZM18.975 6.89699L23.4297 11.2607H18.9766L18.975 6.89699ZM22.6535 25.7672H9.95959C9.75446 25.7674 9.55131 25.7281 9.36172 25.6513C9.17213 25.5746 8.99982 25.4621 8.85463 25.3202C8.70944 25.1782 8.59421 25.0097 8.51552 24.8241C8.43684 24.6385 8.39623 24.4396 8.39602 24.2387V7.65893C8.39602 7.25339 8.56037 6.86444 8.85295 6.57754C9.14554 6.29063 9.54243 6.12924 9.95642 6.12883H17.8645V12.347H24.2107V24.2387C24.2103 24.6434 24.0462 25.0315 23.7543 25.318C23.4625 25.6045 23.0666 25.766 22.6535 25.7672Z"/>
</g>
</g>
</g>
</svg>
