<svg width="32" height="32" viewBox="0 0 32 32" xmlns="http://www.w3.org/2000/svg">
<g>
<g>
<path d="M22.7818 18.3354L18.8705 20.598C15.7592 19.0943 13.3672 16.5508 11.7577 13.0313L13.8598 9.27739L9.40835 4.91675L9.05984 5.07193C8.35885 5.39404 7.69008 5.77953 7.06222 6.22339C5.65073 7.22432 4.93469 8.25628 4.93469 9.29135C4.93469 9.61568 4.97271 17.2879 10.2527 22.4819C13.3133 25.4878 17.4986 27.0132 22.6947 27.0132C25.082 27.0132 26.8135 23.3866 26.9973 22.9785L27.1557 22.6371L22.7818 18.3354ZM22.6947 25.913C17.8091 25.913 13.8884 24.4977 11.0448 21.706C6.08954 16.8457 6.0436 9.36118 6.0436 9.29135C6.0436 8.46268 6.94499 7.64797 7.69905 7.11879C8.16723 6.78478 8.66022 6.48548 9.1739 6.22339L12.4864 9.46826L10.5236 12.9769L10.6313 13.2206C12.3961 17.215 15.0987 20.0704 18.6614 21.706L18.9276 21.827L22.606 19.6995L25.8218 22.8481C25.2689 23.9049 23.9604 25.913 22.6947 25.913Z"/>
</g>
</g>
</svg>
