<svg width="32" height="32" viewBox="0 0 32 32" xmlns="http://www.w3.org/2000/svg">
<g>
<g clip-path="url(#clip0_9220_25008)">
<path d="M25.2159 5.31818H20.9684C20.8256 5.31812 20.6884 5.37356 20.586 5.47271C20.4835 5.57186 20.4239 5.70691 20.4198 5.84915V8.73824C20.4069 8.77856 20.4016 8.82092 20.4042 8.86317C20.4016 8.90542 20.4069 8.94778 20.4198 8.9881V16.7652C20.407 16.8109 20.4017 16.8584 20.4042 16.9058C20.4042 18.0696 19.9401 19.1858 19.1142 20.0087C18.2882 20.8317 17.168 21.294 15.9999 21.294C14.8318 21.294 13.7116 20.8317 12.8857 20.0087C12.0597 19.1858 11.5957 18.0696 11.5957 16.9058V5.81792C11.5957 5.67295 11.5379 5.53393 11.435 5.43142C11.3321 5.32892 11.1926 5.27133 11.0471 5.27133H6.78392C6.63843 5.27133 6.4989 5.32892 6.39602 5.43142C6.29315 5.53393 6.23535 5.67295 6.23535 5.81792V16.9995C6.23535 19.5798 7.26412 22.0545 9.09533 23.879C10.9265 25.7036 13.4102 26.7287 15.9999 26.7287C18.5896 26.7287 21.0733 25.7036 22.9045 23.879C24.7357 22.0545 25.7645 19.5798 25.7645 16.9995V5.84915C25.7604 5.70691 25.7008 5.57186 25.5984 5.47271C25.4959 5.37356 25.3587 5.31812 25.2159 5.31818ZM24.6674 6.41135V8.3322H21.517V6.41135H24.6674ZM10.4985 6.3645V8.3322H7.33249V6.3645H10.4985ZM15.9999 25.6511C13.6997 25.647 11.4952 24.7336 9.87017 23.1116C8.24516 21.4895 7.33249 19.2913 7.33249 16.9995V9.42537H10.4985V16.9058C10.4903 17.6256 10.6244 18.34 10.8933 19.0082C11.1622 19.6764 11.5605 20.2852 12.0655 20.8C13.0855 21.8397 14.4782 22.4331 15.9372 22.4497C17.3963 22.4662 18.8022 21.9046 19.8457 20.8884C20.8891 19.8721 21.4847 18.4845 21.5013 17.0307C21.5142 16.985 21.5194 16.9375 21.517 16.8901V9.42537H24.6674V16.9995C24.6674 19.2913 23.7547 21.4895 22.1297 23.1116C20.5047 24.7336 18.3001 25.647 15.9999 25.6511Z"/>
<path d="M14.4014 12.0958H16.6427L14.6051 14.454C14.5573 14.5076 14.5208 14.5703 14.498 14.6384C14.4752 14.7064 14.4664 14.7784 14.4723 14.8499C14.4781 14.9215 14.4985 14.991 14.5321 15.0545C14.5657 15.118 14.6119 15.174 14.6678 15.2192C14.7669 15.3081 14.895 15.3581 15.0283 15.3597C15.1062 15.3622 15.1836 15.3465 15.2543 15.314C15.325 15.2815 15.3872 15.233 15.4358 15.1723L18.2727 11.9084C18.3409 11.8303 18.3847 11.7339 18.3986 11.6312C18.4126 11.5285 18.396 11.4241 18.3511 11.3306C18.3047 11.2374 18.2332 11.1589 18.1447 11.1037C18.0561 11.0486 17.954 11.019 17.8495 11.0183H15.7023L17.6301 9.01936C17.6919 8.97106 17.7425 8.9101 17.7786 8.84062C17.8147 8.77113 17.8354 8.69473 17.8393 8.61658C17.8433 8.53844 17.8303 8.46037 17.8013 8.38765C17.7723 8.31493 17.728 8.24926 17.6714 8.19507C17.6147 8.14089 17.547 8.09945 17.4729 8.07356C17.3988 8.04768 17.32 8.03795 17.2418 8.04503C17.1636 8.05211 17.0878 8.07584 17.0196 8.11461C16.9514 8.15338 16.8924 8.20629 16.8464 8.26976L14.0095 11.1588C13.9383 11.2379 13.8911 11.3354 13.8732 11.4402C13.8553 11.5449 13.8676 11.6525 13.9086 11.7506C13.9496 11.8486 14.0177 11.9331 14.1049 11.9942C14.1921 12.0553 14.2949 12.0906 14.4014 12.0958Z"/>
</g>
</g>
<defs>
<clipPath>
<rect width="19.5918" height="21.551" transform="translate(6.2041 5.22449)"/>
</clipPath>
</defs>
</svg>
