<svg width="32" height="32" viewBox="0 0 32 32" xmlns="http://www.w3.org/2000/svg">
<g>
<g>
<g>
<path d="M16.011 4.88403C13.992 4.88697 12.0566 5.69042 10.6291 7.11823C9.20157 8.54604 8.39851 10.4817 8.396 12.5007C8.396 17.0947 10.8229 21.9803 15.6103 27.0068L16.0126 27.4298L16.4134 27.0068C21.2007 21.9803 23.6293 17.0995 23.6293 12.5007C23.6267 10.4811 22.8233 8.54501 21.3951 7.11711C19.9669 5.68922 18.0306 4.88613 16.011 4.88403ZM16.011 25.8155C11.691 21.1549 9.50491 16.6781 9.50491 12.5007C9.50491 10.7747 10.1905 9.11945 11.411 7.89901C12.6314 6.67858 14.2867 5.99294 16.0126 5.99294C17.7386 5.99294 19.3939 6.67858 20.6143 7.89901C21.8347 9.11945 22.5204 10.7747 22.5204 12.5007C22.5188 16.6781 20.3295 21.1549 16.011 25.8219V25.8155Z"/>
<path d="M15.9857 9.69189C15.4662 9.69189 14.9584 9.84594 14.5264 10.1345C14.0945 10.4232 13.7579 10.8334 13.5591 11.3133C13.3603 11.7932 13.3083 12.3213 13.4096 12.8308C13.5109 13.3403 13.7611 13.8083 14.1284 14.1757C14.4958 14.543 14.9638 14.7932 15.4733 14.8945C15.9828 14.9958 16.5109 14.9438 16.9908 14.745C17.4707 14.5462 17.8809 14.2096 18.1695 13.7777C18.4582 13.3457 18.6122 12.8379 18.6122 12.3184C18.6114 11.6221 18.3344 10.9545 17.842 10.4621C17.3496 9.96973 16.682 9.69273 15.9857 9.69189ZM15.9857 13.8345C15.6854 13.8345 15.392 13.7454 15.1424 13.5786C14.8927 13.4118 14.6982 13.1747 14.5834 12.8973C14.4686 12.6198 14.4386 12.3146 14.4973 12.0202C14.556 11.7258 14.7007 11.4553 14.9131 11.2432C15.1255 11.031 15.3961 10.8866 15.6906 10.8282C15.9851 10.7698 16.2903 10.8001 16.5675 10.9152C16.8448 11.0303 17.0817 11.2251 17.2483 11.4749C17.4149 11.7246 17.5036 12.0182 17.5033 12.3184C17.5025 12.7205 17.3422 13.1059 17.0578 13.3901C16.7733 13.6742 16.3878 13.8341 15.9857 13.8345Z"/>
</g>
</g>
</g>
</svg>
