<svg width="32" height="32" viewBox="0 0 32 32" xmlns="http://www.w3.org/2000/svg">
<g>
<g>
<path d="M24.8412 6.93068C24.3646 6.4557 23.7192 6.189 23.0464 6.189C22.3735 6.189 21.7281 6.4557 21.2515 6.93068L18.5965 9.58415L9.46537 7.61187C9.37467 7.59215 9.28048 7.59544 9.19138 7.62145C9.10228 7.64746 9.02111 7.69536 8.95527 7.76078L7.41547 9.30217C7.3562 9.36148 7.31116 9.43346 7.28373 9.5127C7.2563 9.59194 7.2472 9.67636 7.25711 9.75962C7.26702 9.84289 7.29569 9.92282 7.34095 9.9934C7.38622 10.064 7.4469 10.1234 7.51844 10.1671L14.0341 14.1481L10.7913 17.3909H7.55805C7.41186 17.3902 7.27129 17.4471 7.16676 17.5493L5.55567 19.1683C5.49509 19.2289 5.44939 19.3028 5.42216 19.384C5.39493 19.4653 5.38691 19.5518 5.39873 19.6367C5.41055 19.7216 5.44189 19.8025 5.49028 19.8733C5.53868 19.944 5.60281 20.0026 5.67765 20.0443L9.56201 22.2067L11.7228 26.0942C11.7642 26.1694 11.8225 26.234 11.8932 26.2826C11.9639 26.3313 12.0449 26.3628 12.1299 26.3746H12.206C12.3527 26.3759 12.494 26.3189 12.5988 26.2162L14.2099 24.6036C14.2609 24.552 14.3011 24.4909 14.3283 24.4238C14.3555 24.3566 14.3691 24.2847 14.3683 24.2123V20.9806L17.6238 17.7426L21.6048 24.2582C21.6489 24.3297 21.7086 24.3903 21.7793 24.4355C21.8501 24.4808 21.9301 24.5095 22.0135 24.5196C22.0966 24.5298 22.1809 24.5208 22.26 24.4933C22.3391 24.4659 22.4108 24.4207 22.4697 24.3612L24.0111 22.8214C24.0769 22.7558 24.1251 22.6746 24.1511 22.5855C24.1771 22.4963 24.1802 22.402 24.16 22.3113L22.1877 13.1754L24.8412 10.522C25.0776 10.2865 25.2651 10.0066 25.3931 9.6985C25.5211 9.39036 25.587 9.05999 25.587 8.72633C25.587 8.39267 25.5211 8.06229 25.3931 7.75415C25.2651 7.44601 25.0776 7.16617 24.8412 6.93068ZM24.0571 9.73781L21.1897 12.6051C21.1244 12.6707 21.0766 12.7516 21.0506 12.8405C21.0246 12.9293 21.0212 13.0232 21.0408 13.1137L23.0131 22.2479L22.1782 23.0764L18.1973 16.5608C18.1533 16.4892 18.0938 16.4285 18.0231 16.3833C17.9524 16.338 17.8723 16.3093 17.7889 16.2994C17.7055 16.2895 17.621 16.2986 17.5416 16.326C17.4623 16.3535 17.3902 16.3985 17.3307 16.4578L13.4353 20.3596C13.3331 20.4641 13.2762 20.6047 13.2769 20.7509V23.9826L12.347 24.914L10.4555 21.5335C10.4052 21.4433 10.3305 21.3692 10.24 21.3196L6.85943 19.4376L7.78933 18.5077H11.0226C11.0948 18.5083 11.1664 18.4946 11.2333 18.4674C11.3001 18.4402 11.361 18.4001 11.4123 18.3493L15.3157 14.4348C15.375 14.3755 15.4201 14.3035 15.4475 14.2241C15.475 14.1448 15.484 14.0603 15.4741 13.977C15.464 13.8933 15.4348 13.8129 15.3886 13.7423C15.3425 13.6717 15.2806 13.6127 15.2079 13.5699L8.69706 9.5889L9.52557 8.7588L18.6582 10.7327C18.7497 10.7509 18.8443 10.746 18.9334 10.7183C19.0225 10.6906 19.1033 10.6411 19.1683 10.5742L22.0341 7.70692C22.1669 7.57409 22.3246 7.46872 22.4982 7.39684C22.6717 7.32495 22.8577 7.28795 23.0456 7.28795C23.2334 7.28795 23.4194 7.32495 23.593 7.39684C23.7665 7.46872 23.9242 7.57409 24.0571 7.70692C24.1899 7.83975 24.2952 7.99744 24.3671 8.17099C24.439 8.34455 24.476 8.53056 24.476 8.71841C24.476 8.90626 24.439 9.09227 24.3671 9.26582C24.2952 9.43937 24.1899 9.59706 24.0571 9.72989V9.73781Z"/>
</g>
</g>
</svg>
