<svg width="32" height="32" viewBox="0 0 32 32" xmlns="http://www.w3.org/2000/svg">
<g>
<g>
<path d="M25.1073 15.9794L24.3818 15.5137L8.22337 5.12001C8.19261 5.10048 8.16029 5.08352 8.12674 5.06931H8.10139C8.07391 5.05973 8.04587 5.05179 8.01743 5.04555H8.00793C7.97765 5.03977 7.94687 5.03712 7.91605 5.03763H7.88912C7.86254 5.03913 7.83609 5.04231 7.80991 5.04713H7.79407C7.76382 5.0537 7.73415 5.06271 7.70535 5.07407L7.68159 5.08515C7.6705 5.08515 7.65941 5.09466 7.64991 5.101C7.63881 5.10639 7.62821 5.11275 7.61823 5.12001L7.59446 5.13426C7.56967 5.15307 7.54587 5.17317 7.52318 5.19446L7.50892 5.2103C7.4898 5.2307 7.47281 5.25299 7.45823 5.27684L7.44872 5.28793C7.43145 5.31508 7.4166 5.34371 7.40437 5.37347V5.39723C7.39583 5.42102 7.38895 5.44537 7.38377 5.4701V5.49387C7.38135 5.52286 7.38135 5.552 7.38377 5.581V26.3731C7.38143 26.4015 7.38143 26.4302 7.38377 26.4586V26.484C7.38918 26.5086 7.39605 26.533 7.40437 26.5568V26.579C7.41692 26.6091 7.43175 26.6383 7.44872 26.6661C7.47223 26.7015 7.49988 26.734 7.5311 26.7628C7.53455 26.7673 7.53885 26.771 7.54377 26.7739C7.57437 26.8012 7.60783 26.8251 7.64357 26.8452C7.67596 26.8621 7.70991 26.8759 7.74496 26.8863C7.75446 26.8863 7.76238 26.8943 7.77189 26.8958C7.81971 26.9142 7.86981 26.9259 7.9208 26.9307C8.02708 26.9307 8.13108 26.8999 8.22021 26.842L24.3865 16.4499L25.1073 15.9794ZM8.47367 25.3576V6.60278L23.0606 15.9794L8.47367 25.3576Z"/>
</g>
</g>
</svg>
