<svg width="32" height="32" viewBox="0 0 32 32" xmlns="http://www.w3.org/2000/svg">
<g>
<g clip-path="url(#clip0_9220_25024)">
<path d="M21.9013 23.3371H12.727C13.8915 21.8883 15.6539 19.1623 15.1504 16.4673H19.6038C19.7499 16.4673 19.8899 16.4099 19.9932 16.3076C20.0965 16.2054 20.1546 16.0667 20.1546 15.9221C20.1546 15.7775 20.0965 15.6388 19.9932 15.5366C19.8899 15.4343 19.7499 15.3769 19.6038 15.3769H14.8356C14.159 13.383 14.159 10.688 15.4966 9.41068C16.5352 8.42929 18.2819 8.38255 20.5794 9.31721C20.7068 9.35559 20.8439 9.34699 20.9654 9.29301C21.0868 9.23903 21.1844 9.14332 21.2401 9.0236C21.2958 8.90387 21.3058 8.76824 21.2682 8.64179C21.2306 8.51534 21.1481 8.40665 21.0358 8.33582H21.0043C17.558 6.93384 15.6854 7.72829 14.7255 8.64737C13.7656 9.56645 13.4036 10.6257 13.3092 12.1056C13.245 13.2094 13.3728 14.3159 13.6869 15.3769H10.0832C9.93717 15.3769 9.79708 15.4343 9.69379 15.5366C9.5905 15.6388 9.53247 15.7775 9.53247 15.9221C9.53247 16.0667 9.5905 16.2054 9.69379 16.3076C9.79708 16.4099 9.93717 16.4673 10.0832 16.4673H14.0331C14.3163 17.6668 14.0646 19.0221 13.2777 20.5487C12.7338 21.5631 12.0623 22.5053 11.2792 23.3526C11.215 23.4095 11.1636 23.4791 11.1283 23.5569C11.0931 23.6348 11.0748 23.7191 11.0746 23.8044C11.0746 23.9696 11.141 24.1281 11.259 24.245C11.377 24.3618 11.5372 24.4275 11.7041 24.4275H21.917C22.0631 24.4275 22.2032 24.37 22.3065 24.2678C22.4098 24.1655 22.4678 24.0269 22.4678 23.8823C22.4637 23.7363 22.4022 23.5976 22.2964 23.4958C22.1906 23.3939 22.0489 23.337 21.9013 23.3371Z"/>
</g>
</g>
<defs>
<clipPath>
<rect width="13.0612" height="16.9796" transform="translate(9.46948 7.51019)"/>
</clipPath>
</defs>
</svg>
