<svg width="32" height="32" viewBox="0 0 32 32" xmlns="http://www.w3.org/2000/svg">
<g>
<g>
<g>
<path d="M15.2205 22.5109L6.21303 22.522L4.89659 26.3525C4.85253 26.4906 4.86432 26.6405 4.92944 26.77C4.99456 26.8996 5.10783 26.9984 5.24497 27.0455C5.38212 27.0925 5.53223 27.0839 5.66314 27.0216C5.79404 26.9593 5.89533 26.8482 5.9453 26.7121L7.0051 23.6309L14.4348 23.6214L15.5247 26.7152C15.563 26.8234 15.6337 26.9171 15.7273 26.9835C15.8209 27.0498 15.9327 27.0856 16.0475 27.0859C16.1101 27.0864 16.1724 27.0756 16.2312 27.0543C16.3001 27.0304 16.3636 26.9932 16.4181 26.9447C16.4725 26.8963 16.5169 26.8375 16.5485 26.7718C16.5802 26.7062 16.5985 26.6349 16.6025 26.5621C16.6065 26.4893 16.5961 26.4165 16.5718 26.3477L15.2205 22.5109ZM10.6914 21.4527C11.3144 21.453 11.9236 21.2685 12.4417 20.9226C12.9598 20.5766 13.3637 20.0848 13.6023 19.5093C13.8409 18.9338 13.9034 18.3004 13.7819 17.6893C13.6604 17.0783 13.3605 16.517 12.9199 16.0765C12.4794 15.6359 11.9181 15.336 11.307 15.2145C10.696 15.093 10.0626 15.1555 9.48711 15.3941C8.91158 15.6326 8.41974 16.0365 8.07381 16.5547C7.72788 17.0728 7.54341 17.6819 7.54372 18.3049C7.54498 19.1394 7.87701 19.9393 8.46705 20.5293C9.05709 21.1194 9.857 21.4514 10.6914 21.4527ZM10.6914 16.2645C11.0951 16.2642 11.4897 16.3836 11.8255 16.6076C12.1612 16.8317 12.423 17.1502 12.5777 17.523C12.7323 17.8958 12.773 18.3061 12.6944 18.702C12.6159 19.0979 12.4217 19.4616 12.1364 19.7472C11.8511 20.0327 11.4875 20.2272 11.0917 20.306C10.6958 20.3849 10.2855 20.3446 9.91257 20.1902C9.53964 20.0358 9.22088 19.7743 8.99661 19.4387C8.77234 19.1031 8.65263 18.7086 8.65263 18.3049C8.65347 17.7643 8.86849 17.2461 9.25061 16.8636C9.63274 16.4812 10.1508 16.2658 10.6914 16.2645ZM22.4015 10.4554C22.5486 10.4554 22.6896 10.397 22.7936 10.293C22.8976 10.1891 22.956 10.048 22.956 9.90098C22.956 9.75393 22.8976 9.6129 22.7936 9.50892C22.6896 9.40494 22.5486 9.34653 22.4015 9.34653H17.1738C17.0268 9.34653 16.8857 9.40494 16.7818 9.50892C16.6778 9.6129 16.6194 9.75393 16.6194 9.90098C16.6194 10.048 16.6778 10.1891 16.7818 10.293C16.8857 10.397 17.0268 10.4554 17.1738 10.4554H22.4015ZM15.0716 12.2788C15.0716 12.4259 15.1301 12.5669 15.234 12.6709C15.338 12.7748 15.479 12.8333 15.6261 12.8333H23.9477C24.0947 12.8333 24.2358 12.7748 24.3397 12.6709C24.4437 12.5669 24.5021 12.4259 24.5021 12.2788C24.5021 12.1318 24.4437 11.9907 24.3397 11.8867C24.2358 11.7828 24.0947 11.7243 23.9477 11.7243H15.6261C15.479 11.7243 15.338 11.7828 15.234 11.8867C15.1301 11.9907 15.0716 12.1318 15.0716 12.2788ZM17.1706 14.099C17.0236 14.099 16.8826 14.1574 16.7786 14.2614C16.6746 14.3654 16.6162 14.5064 16.6162 14.6535C16.6162 14.8005 16.6746 14.9415 16.7786 15.0455C16.8826 15.1495 17.0236 15.2079 17.1706 15.2079H22.3984C22.5454 15.2079 22.6864 15.1495 22.7904 15.0455C22.8944 14.9415 22.9528 14.8005 22.9528 14.6535C22.9528 14.5064 22.8944 14.3654 22.7904 14.2614C22.6864 14.1574 22.5454 14.099 22.3984 14.099H17.1706Z"/>
<path d="M27.7718 6.47446H11.8019V12.1172C11.8019 12.2643 11.8603 12.4053 11.9643 12.5093C12.0683 12.6133 12.2093 12.6717 12.3563 12.6717C12.5034 12.6717 12.6444 12.6133 12.7484 12.5093C12.8524 12.4053 12.9108 12.2643 12.9108 12.1172V7.58337H26.6629V16.8776H23.1191C23.0765 16.8721 23.0334 16.8721 22.9908 16.8776H16.0205C15.8734 16.8776 15.7324 16.936 15.6284 17.04C15.5245 17.144 15.466 17.285 15.466 17.4321C15.466 17.5791 15.5245 17.7202 15.6284 17.8241C15.7324 17.9281 15.8734 17.9865 16.0205 17.9865H19.2316V20.5212C19.2316 20.6682 19.29 20.8093 19.394 20.9132C19.498 21.0172 19.639 21.0756 19.786 21.0756C19.9331 21.0756 20.0741 21.0172 20.1781 20.9132C20.2821 20.8093 20.3405 20.6682 20.3405 20.5212V17.9865H22.8197L24.9076 20.2851C24.9556 20.3424 25.0146 20.3894 25.0811 20.4233C25.1476 20.4572 25.2203 20.4773 25.2948 20.4824C25.3693 20.4875 25.4441 20.4775 25.5146 20.453C25.5852 20.4285 25.65 20.39 25.7053 20.3398C25.7606 20.2897 25.8052 20.2288 25.8364 20.161C25.8676 20.0932 25.8848 20.0197 25.887 19.9451C25.8891 19.8705 25.8762 19.7962 25.8489 19.7266C25.8216 19.6571 25.7806 19.5939 25.7282 19.5406L24.3167 17.9865H27.7718V6.47446Z"/>
</g>
</g>
</g>
</svg>
