<svg width="32" height="32" viewBox="0 0 32 32" xmlns="http://www.w3.org/2000/svg">
<g>
<g>
<path d="M24.2325 12.2947H22.7179V4.94104H9.2822V12.2947H7.77537C7.43328 12.2941 7.09443 12.3623 6.77816 12.4954C6.4619 12.6285 6.17443 12.8239 5.93218 13.0705C5.68992 13.317 5.49763 13.6099 5.3663 13.9324C5.23496 14.2548 5.16716 14.6005 5.16675 14.9498V20.2012C5.16695 20.5506 5.23461 20.8965 5.36585 21.2191C5.4971 21.5417 5.68935 21.8348 5.93163 22.0815C6.1739 22.3283 6.46144 22.5238 6.77781 22.657C7.09417 22.7903 7.43315 22.8585 7.77537 22.8579H9.28996V27.0591H22.7257V22.8579H24.2403C24.9301 22.857 25.5914 22.5768 26.079 22.0787C26.5666 21.5807 26.8407 20.9054 26.8411 20.2012V14.9498C26.8407 14.6005 26.7729 14.2548 26.6416 13.9324C26.5103 13.6099 26.318 13.317 26.0757 13.0705C25.8335 12.8239 25.546 12.6285 25.2297 12.4954C24.9135 12.3623 24.5746 12.2941 24.2325 12.2947ZM10.3685 6.04995H21.6316V12.2947H10.3685V6.04995ZM21.6316 25.9501H10.3685V18.663H21.6316V25.9501ZM25.7471 20.2012C25.7467 20.6113 25.587 21.0045 25.3031 21.2946C25.0192 21.5847 24.6342 21.7481 24.2325 21.749H22.7179V17.5462H9.2822V21.749H7.77537C7.37366 21.7481 6.98866 21.5847 6.70476 21.2946C6.42085 21.0045 6.2612 20.6113 6.26079 20.2012V14.9498C6.2612 14.5398 6.4209 14.1468 6.70485 13.8569C6.9888 13.5671 7.37381 13.404 7.77537 13.4036H24.2403C24.6418 13.404 25.0268 13.5671 25.3108 13.8569C25.5947 14.1468 25.7544 14.5398 25.7549 14.9498L25.7471 20.2012Z"/>
</g>
</g>
</svg>
