<svg width="32" height="32" viewBox="0 0 32 32" xmlns="http://www.w3.org/2000/svg">
<g>
<g clip-path="url(#clip0_9220_25032)">
<path d="M18.4971 11.5644C18.375 11.5696 18.2554 11.5305 18.1609 11.4547L16.4482 10.1695C16.3303 10.082 16.2512 9.95351 16.2274 9.81054C16.2035 9.66758 16.2368 9.52111 16.3202 9.40147C16.4146 9.28734 16.5497 9.21255 16.6983 9.19218C16.8468 9.17182 16.9977 9.20741 17.1205 9.29176L18.385 10.2322L21.1061 6.48621C21.1931 6.36774 21.3247 6.28797 21.4717 6.26446C21.6188 6.24094 21.7694 6.2756 21.8904 6.36082C22.0114 6.44604 22.0929 6.57482 22.1169 6.71885C22.1409 6.86288 22.1055 7.01035 22.0185 7.12882L18.9773 11.3293C18.9367 11.3906 18.8825 11.4422 18.8188 11.4802C18.755 11.5182 18.6834 11.5416 18.6091 11.5487L18.4971 11.5644Z"/>
<path d="M23.6031 19.9027H8.39706C8.26971 19.9027 8.14757 19.8532 8.05752 19.765C7.96746 19.6768 7.91687 19.5572 7.91687 19.4325C7.91687 19.3078 7.96746 19.1882 8.05752 19.1C8.14757 19.0118 8.26971 18.9623 8.39706 18.9623H23.6031C23.6668 18.9601 23.7302 18.9708 23.7895 18.9936C23.8488 19.0165 23.9026 19.051 23.9477 19.0951C23.9927 19.1392 24.028 19.192 24.0513 19.25C24.0747 19.308 24.0856 19.3702 24.0833 19.4325C24.0856 19.4948 24.0747 19.5569 24.0513 19.615C24.028 19.673 23.9927 19.7257 23.9477 19.7698C23.9026 19.814 23.8488 19.8485 23.7895 19.8714C23.7302 19.8942 23.6668 19.9049 23.6031 19.9027Z"/>
<path d="M9.46943 8.79019H8.62109V8.39836H8.66911C8.88419 8.4157 9.09885 8.36039 9.27736 8.24162C9.42193 8.11685 9.51334 7.94342 9.53346 7.75575V7.70872H10.0457V11.0785H9.46943V8.79019Z"/>
<path d="M11.2141 10.4046H11.9824V11.0942H11.2141V10.4046Z"/>
<path d="M9.75752 15.7962L10.2217 15.5141C10.5738 15.3104 10.7339 15.1223 10.7339 14.8402C10.7339 14.558 10.5098 14.2759 10.0937 14.2759C9.67749 14.2759 9.43739 14.4954 9.43739 14.9029V14.9499H8.86116V14.9029C8.86116 14.1819 9.34135 13.7587 10.1097 13.7587C10.878 13.7587 11.3261 14.1349 11.3261 14.7931C11.3261 15.4514 11.07 15.6082 10.4458 15.953L10.1257 16.1411C9.74151 16.3605 9.61346 16.4859 9.59745 16.6583H11.3902V17.1912H8.78113C8.78113 16.5956 9.06924 16.2038 9.75752 15.7962Z"/>
<path d="M12.2385 16.5172H12.9908V17.2069H12.2385V16.5172Z"/>
<path d="M8.78113 24.0091L9.37336 23.9621C9.42138 24.401 9.66148 24.6204 10.1097 24.6204C10.5578 24.6204 10.7979 24.3853 10.7979 24.0405C10.7979 23.6957 10.5578 23.4762 10.1257 23.4762H9.80554V23.0374H10.1097C10.4938 23.0374 10.7179 22.8493 10.7179 22.5515C10.7179 22.2537 10.4778 22.0656 10.0937 22.0656C9.7095 22.0656 9.4534 22.2694 9.40538 22.6299L8.82915 22.5672C8.92519 21.9402 9.35736 21.5798 10.0937 21.5798C10.8299 21.5798 11.2781 21.9089 11.2781 22.4731C11.2868 22.6365 11.2373 22.7977 11.1381 22.9292C11.0388 23.0607 10.8959 23.1544 10.7339 23.1941C10.9306 23.2251 11.1078 23.3282 11.2297 23.4825C11.3516 23.6367 11.409 23.8306 11.3902 24.0248C11.3902 24.6988 10.862 25.0749 10.0937 25.0749C9.32535 25.0749 8.84515 24.7145 8.78113 24.0091Z"/>
<path d="M12.1906 24.354H12.9589V25.0436H12.1906V24.354Z"/>
<path d="M18.4971 17.3636C18.375 17.3688 18.2554 17.3297 18.1609 17.2539L16.4482 15.9687C16.3303 15.8812 16.2512 15.7527 16.2274 15.6097C16.2035 15.4668 16.2368 15.3203 16.3202 15.2007C16.4146 15.0865 16.5497 15.0117 16.6983 14.9914C16.8468 14.971 16.9977 15.0066 17.1205 15.091L18.385 16.0314L21.1061 12.2697C21.1492 12.2111 21.2037 12.1613 21.2664 12.1232C21.3291 12.0852 21.3989 12.0596 21.4717 12.048C21.5446 12.0363 21.619 12.0389 21.6909 12.0554C21.7627 12.0719 21.8305 12.1021 21.8904 12.1443C21.9503 12.1865 22.0012 12.2399 22.04 12.3013C22.0789 12.3627 22.105 12.4311 22.1169 12.5024C22.1288 12.5737 22.1262 12.6466 22.1093 12.7169C22.0924 12.7873 22.0616 12.8537 22.0185 12.9123L18.9773 17.1285C18.9367 17.1898 18.8825 17.2414 18.8188 17.2794C18.755 17.3174 18.6834 17.3408 18.6091 17.3479L18.4971 17.3636Z"/>
<path d="M20.738 22.7709H19.1534V21.2349C19.1534 21.1102 19.1028 20.9906 19.0127 20.9025C18.9227 20.8143 18.8005 20.7647 18.6732 20.7647C18.5458 20.7647 18.4237 20.8143 18.3336 20.9025C18.2436 20.9906 18.193 21.1102 18.193 21.2349V22.7709H16.6084C16.481 22.7709 16.3589 22.8205 16.2688 22.9087C16.1788 22.9968 16.1282 23.1164 16.1282 23.2411C16.1282 23.3659 16.1788 23.4855 16.2688 23.5736C16.3589 23.6618 16.481 23.7114 16.6084 23.7114H18.193V25.263C18.193 25.3877 18.2436 25.5073 18.3336 25.5955C18.4237 25.6837 18.5458 25.7332 18.6732 25.7332C18.8005 25.7332 18.9227 25.6837 19.0127 25.5955C19.1028 25.5073 19.1534 25.3877 19.1534 25.263V23.7114H20.738C20.8017 23.7135 20.8651 23.7029 20.9244 23.68C20.9837 23.6572 21.0375 23.6226 21.0825 23.5785C21.1276 23.5344 21.1629 23.4817 21.1862 23.4236C21.2096 23.3656 21.2204 23.3035 21.2182 23.2411C21.2204 23.1788 21.2096 23.1167 21.1862 23.0587C21.1629 23.0006 21.1276 22.9479 21.0825 22.9038C21.0375 22.8597 20.9837 22.8251 20.9244 22.8023C20.8651 22.7794 20.8017 22.7688 20.738 22.7709Z"/>
</g>
</g>
<defs>
<clipPath>
<rect width="16.3265" height="19.5918" transform="translate(7.83679 6.20409)"/>
</clipPath>
</defs>
</svg>
