<svg width="32" height="32" viewBox="0 0 32 32" xmlns="http://www.w3.org/2000/svg">
<g>
<g clip-path="url(#clip0_9220_25040)">
<path d="M27.4534 6.08939H21.5157C21.1801 6.08939 20.8581 6.22515 20.6208 6.46679C20.3834 6.70844 20.2501 7.03619 20.2501 7.37793V10.4004H18.5469V4.92811C18.5467 4.74001 18.506 4.55423 18.4277 4.38384C18.3494 4.21346 18.2354 4.06258 18.0938 3.94182C17.8861 3.75507 17.6207 3.64814 17.3437 3.63957H17.0625L4.68718 5.88259C4.2926 5.95048 3.93456 6.15893 3.67697 6.47071C3.41938 6.78249 3.27901 7.17733 3.2809 7.58473V24.3994C3.27581 24.8077 3.41504 25.2042 3.67319 25.5166C3.93134 25.8291 4.29122 26.0367 4.68718 26.1015L17.0625 28.3286C17.1324 28.3547 17.2069 28.3656 17.2812 28.3605C17.5785 28.36 17.8662 28.253 18.0938 28.0582C18.238 27.9397 18.3538 27.7893 18.4323 27.6184C18.5108 27.4475 18.55 27.2606 18.5469 27.0719V25.0834H24.0627C24.3983 25.0834 24.7203 24.9477 24.9576 24.706C25.195 24.4644 25.3283 24.1366 25.3283 23.7949V20.7724H27.4534C27.789 20.7724 28.111 20.6366 28.3483 20.395C28.5857 20.1533 28.719 19.8256 28.719 19.4838V7.39384C28.7191 7.05061 28.5862 6.72121 28.3493 6.47703C28.1124 6.23285 27.7905 6.09357 27.4534 6.08939ZM17.7188 27.056C17.72 27.1202 17.7065 27.1838 17.6794 27.2418C17.6522 27.2998 17.6122 27.3506 17.5625 27.3901C17.5155 27.4305 17.4604 27.4601 17.401 27.4766C17.3416 27.493 17.2794 27.4961 17.2187 27.4855L4.84344 25.2584C4.64747 25.2247 4.46949 25.1216 4.34085 24.9674C4.21222 24.8131 4.14119 24.6176 4.14029 24.4153V7.58473C4.14119 7.3824 4.21222 7.18688 4.34085 7.03264C4.46949 6.8784 4.64747 6.77533 4.84344 6.74161L17.2187 4.51451H17.3281C17.4123 4.52783 17.4925 4.56047 17.5625 4.60995C17.6122 4.64946 17.6522 4.70022 17.6794 4.75821C17.7065 4.81619 17.72 4.87981 17.7188 4.94402V27.056ZM21.1095 7.56882L23.5627 10.3845H21.1095V7.56882ZM18.5625 13.8365H21.1095V15.5705H18.5625V13.8365ZM24.5002 23.7631C24.5002 23.877 24.4557 23.9862 24.3766 24.0668C24.2975 24.1473 24.1902 24.1926 24.0783 24.1926H18.5625V22.4586H21.5314C21.6432 22.4586 21.7506 22.4134 21.8297 22.3328C21.9088 22.2523 21.9532 22.143 21.9532 22.0291C21.9533 21.9734 21.9423 21.9183 21.9209 21.8671C21.8995 21.8158 21.8682 21.7695 21.8288 21.7309C21.7894 21.6922 21.7427 21.6621 21.6916 21.6423C21.6405 21.6225 21.586 21.6134 21.5314 21.6155H18.5625V20.7406H21.5314C21.586 20.7427 21.6405 20.7336 21.6916 20.7138C21.7427 20.6939 21.7894 20.6638 21.8288 20.6252C21.8682 20.5866 21.8995 20.5402 21.9209 20.489C21.9423 20.4378 21.9533 20.3826 21.9532 20.327C21.9532 20.213 21.9088 20.1038 21.8297 20.0232C21.7506 19.9427 21.6432 19.8974 21.5314 19.8974H18.5625V19.0384H21.5314C21.6432 19.0384 21.7506 18.9932 21.8297 18.9126C21.9088 18.8321 21.9532 18.7228 21.9532 18.6089C21.9532 18.495 21.9088 18.3857 21.8297 18.3052C21.7506 18.2246 21.6432 18.1794 21.5314 18.1794H18.5625V16.4454H21.1095C21.3347 16.4413 21.5493 16.3472 21.7071 16.1836C21.8649 16.02 21.9533 15.7998 21.9532 15.5705V13.8365C21.9532 13.6087 21.8643 13.3902 21.7061 13.2291C21.5479 13.068 21.3332 12.9775 21.1095 12.9775H18.5625V11.2435H24.0783C24.1902 11.2435 24.2975 11.2888 24.3766 11.3694C24.4557 11.4499 24.5002 11.5591 24.5002 11.6731V23.7631ZM27.8909 19.4679C27.8909 19.5236 27.8799 19.5787 27.8585 19.63C27.8372 19.6812 27.8058 19.7275 27.7664 19.7662C27.727 19.8048 27.6804 19.8349 27.6293 19.8547C27.5782 19.8746 27.5237 19.8837 27.469 19.8815H25.3439V11.6731C25.3422 11.4914 25.3022 11.3122 25.2267 11.1476C25.1513 10.9829 25.0421 10.8367 24.9064 10.7186C24.8944 10.6515 24.8615 10.5902 24.8127 10.5436L21.672 6.94842H27.469C27.5809 6.94842 27.6882 6.99367 27.7673 7.07422C27.8464 7.15477 27.8909 7.26401 27.8909 7.37793V19.4679Z"/>
<path d="M11.3592 11.2276H8.81227C8.70038 11.2276 8.59307 11.2729 8.51395 11.3534C8.43483 11.434 8.39038 11.5432 8.39038 11.6571V20.311C8.39038 20.425 8.43483 20.5342 8.51395 20.6148C8.59307 20.6953 8.70038 20.7406 8.81227 20.7406C8.92416 20.7406 9.03147 20.6953 9.11058 20.6148C9.1897 20.5342 9.23415 20.425 9.23415 20.311V17.2885H11.3592C11.9201 17.2886 12.4583 17.0628 12.8563 16.6605C13.2544 16.2582 13.4801 15.712 13.4843 15.141V13.3911C13.4843 13.107 13.4293 12.8257 13.3225 12.5632C13.2157 12.3007 13.0592 12.0622 12.8618 11.8613C12.6645 11.6604 12.4302 11.501 12.1724 11.3923C11.9146 11.2836 11.6383 11.2276 11.3592 11.2276ZM12.6249 15.1251C12.6249 15.4668 12.4915 15.7946 12.2542 16.0362C12.0168 16.2779 11.6949 16.4136 11.3592 16.4136H9.23415V12.1026H11.3592C11.6963 12.1068 12.0182 12.246 12.2551 12.4902C12.492 12.7344 12.6249 13.0638 12.6249 13.407V15.1251Z"/>
</g>
</g>
<defs>
<clipPath>
<rect width="25.4694" height="24.8163" transform="translate(3.26526 3.59184)"/>
</clipPath>
</defs>
</svg>
