<svg width="32" height="32" viewBox="0 0 32 32" xmlns="http://www.w3.org/2000/svg">
<g>
<g>
<path d="M20.2773 2.45227C20.242 2.38861 20.1944 2.33254 20.1374 2.28726C20.0804 2.24198 20.015 2.20838 19.9449 2.18837C19.8749 2.16837 19.8016 2.16235 19.7293 2.17066C19.6569 2.17898 19.5869 2.20146 19.5233 2.23682C19.4596 2.27219 19.4036 2.31975 19.3583 2.37678C19.313 2.43382 19.2794 2.49921 19.2594 2.56923C19.2394 2.63925 19.2334 2.71253 19.2417 2.78488C19.25 2.85722 19.2725 2.92722 19.3078 2.99088L20.8714 5.80435C18.1461 4.58081 15.0518 4.46462 12.2424 5.48031C9.43297 6.49601 7.1284 8.56405 5.81556 11.2475C5.78343 11.3129 5.76453 11.384 5.75996 11.4567C5.75539 11.5294 5.76524 11.6023 5.78894 11.6712C5.81265 11.7401 5.84973 11.8037 5.89807 11.8582C5.94641 11.9127 6.00505 11.9571 6.07061 11.9889C6.14578 12.0268 6.22883 12.0463 6.31299 12.0459C6.41758 12.0456 6.51994 12.0156 6.60824 11.9596C6.69653 11.9035 6.76717 11.8236 6.812 11.7291C8.02047 9.26124 10.1559 7.37141 12.7523 6.4719C15.3488 5.57238 18.1956 5.73616 20.6718 6.92752L17.7142 8.57504C17.6066 8.63475 17.522 8.72852 17.4736 8.84159C17.4252 8.95467 17.4158 9.08063 17.4468 9.19965C17.4778 9.31868 17.5475 9.42401 17.645 9.49906C17.7424 9.57412 17.8621 9.61464 17.9851 9.61425C18.0792 9.61347 18.1717 9.58953 18.2544 9.54455L22.812 7.00989L20.2773 2.45227ZM27.01 18.3398C27.3223 16.8626 27.3391 15.3382 27.0593 13.8544C26.7796 12.3707 26.2088 10.9571 25.3799 9.69504C25.343 9.62869 25.2928 9.57064 25.2325 9.52449C25.1721 9.47834 25.103 9.44508 25.0293 9.42675C24.9556 9.40843 24.8789 9.40545 24.804 9.41798C24.7291 9.43052 24.6576 9.4583 24.5939 9.49963C24.5301 9.54095 24.4756 9.59492 24.4336 9.65819C24.3916 9.72146 24.363 9.79269 24.3497 9.86745C24.3364 9.94222 24.3385 10.0189 24.356 10.0928C24.3736 10.1667 24.4061 10.2362 24.4516 10.297C25.9533 12.5981 26.4843 15.3996 25.9288 18.0906C25.3732 20.7817 23.7763 23.1439 21.4861 24.6622L21.5859 21.2816C21.588 21.2088 21.5759 21.1362 21.55 21.0681C21.5242 21 21.4852 20.9377 21.4352 20.8846C21.3853 20.8316 21.3254 20.7889 21.259 20.7591C21.1925 20.7292 21.1209 20.7127 21.048 20.7105C20.9752 20.7083 20.9027 20.7205 20.8346 20.7463C20.7665 20.7722 20.7041 20.8112 20.6511 20.8611C20.5981 20.9111 20.5554 20.971 20.5255 21.0374C20.4956 21.1038 20.4791 21.1755 20.4769 21.2483L20.3185 26.4618L25.532 26.6202H25.5494C25.6965 26.6223 25.8383 26.5659 25.9438 26.4634C26.0493 26.3609 26.1097 26.2207 26.1118 26.0737C26.1139 25.9266 26.0575 25.7847 25.955 25.6793C25.8525 25.5738 25.7123 25.5134 25.5653 25.5113L22.3478 25.4162C24.7506 23.7414 26.4193 21.2085 27.01 18.3398ZM16.6876 26.2226C13.9401 26.3173 11.2668 25.3208 9.25166 23.4508C7.23651 21.5808 6.04333 18.9893 5.93279 16.2424L8.77319 18.0784C8.83435 18.1179 8.9027 18.145 8.97433 18.1581C9.04596 18.1713 9.11948 18.1701 9.19068 18.1548C9.26187 18.1395 9.32936 18.1104 9.38928 18.069C9.44921 18.0276 9.50039 17.9748 9.53992 17.9137C9.57945 17.8525 9.60654 17.7841 9.61965 17.7125C9.63276 17.6409 9.63164 17.5674 9.61634 17.4962C9.60104 17.425 9.57187 17.3575 9.53049 17.2976C9.48911 17.2376 9.43633 17.1864 9.37517 17.1469L4.99497 14.3224L2.16408 18.701C2.12404 18.7617 2.09637 18.8297 2.08266 18.9011C2.06896 18.9726 2.06947 19.046 2.08419 19.1172C2.09891 19.1884 2.12753 19.2561 2.16842 19.3162C2.20931 19.3764 2.26167 19.4278 2.32249 19.4677C2.41137 19.5263 2.51543 19.5577 2.6219 19.558C2.71474 19.558 2.80611 19.5348 2.88771 19.4906C2.96932 19.4463 3.03859 19.3824 3.08923 19.3045L4.8318 16.6004C5.02895 19.5125 6.32457 22.241 8.45666 24.2343C10.5888 26.2276 13.3982 27.3369 16.3169 27.3378H16.7209C16.868 27.3328 17.007 27.2695 17.1074 27.162C17.2078 27.0544 17.2614 26.9114 17.2564 26.7643C17.2513 26.6173 17.1881 26.4783 17.0805 26.3779C16.973 26.2774 16.8299 26.2239 16.6829 26.2289L16.6876 26.2226Z"/>
</g>
</g>
</svg>
