<svg width="32" height="32" viewBox="0 0 32 32" xmlns="http://www.w3.org/2000/svg">
<g>
<g>
<path d="M15.9364 5.7695C13.7045 5.76033 11.536 6.52671 9.7874 7.94263C8.03882 9.35854 6.81425 11.3397 6.31504 13.5604C6.28252 13.7037 6.30709 13.8542 6.38334 13.979C6.45959 14.1038 6.58127 14.1925 6.72162 14.2257C6.86196 14.2589 7.00948 14.2338 7.13171 14.156C7.25394 14.0782 7.34087 13.954 7.37339 13.8107C7.85839 11.695 9.07894 9.83092 10.8084 8.56443C12.5379 7.29794 14.6589 6.71512 16.7775 6.92419C18.896 7.13326 20.8683 8.12001 22.3282 9.70123C23.788 11.2825 24.6362 13.3507 24.7152 15.522C24.7943 17.6933 24.0988 19.8202 22.758 21.5076C21.4171 23.1951 19.522 24.3286 17.4244 24.6976C15.3269 25.0666 13.1694 24.6461 11.3526 23.5141C9.53584 22.3821 8.18312 20.6156 7.54564 18.5426L10.879 19.9113C11.0119 19.9633 11.1596 19.9599 11.2901 19.9019C11.4206 19.8439 11.5236 19.7359 11.5769 19.6011C11.6302 19.4663 11.6296 19.3156 11.5751 19.1813C11.5206 19.047 11.4166 18.94 11.2855 18.8832L6.29642 16.8333L4.28835 21.9232C4.23474 22.0595 4.23634 22.212 4.29279 22.3471C4.34923 22.4823 4.45592 22.589 4.58941 22.644C4.65379 22.6714 4.72291 22.6854 4.79269 22.6851C4.90051 22.6844 5.00565 22.6509 5.09467 22.5888C5.18369 22.5267 5.25253 22.4389 5.29238 22.3366L6.57575 19.0843C7.15796 20.8413 8.20352 22.4002 9.59745 23.5898C10.9914 24.7794 12.6797 25.5536 14.4766 25.8271C16.2736 26.1007 18.1097 25.8631 19.783 25.1404C21.4563 24.4177 22.9019 23.238 23.9609 21.7309C25.0199 20.2238 25.6513 18.4478 25.7856 16.5982C25.9199 14.7486 25.552 12.8969 24.7222 11.2469C23.8925 9.59695 22.633 8.21251 21.0824 7.24587C19.5318 6.27923 17.7501 5.76783 15.9333 5.76791L15.9364 5.7695Z"/>
</g>
</g>
</svg>
