<svg width="32" height="32" viewBox="0 0 32 32" xmlns="http://www.w3.org/2000/svg">
<g>
<g>
<path d="M25.8929 22.1282C25.6891 21.6637 25.3571 21.2669 24.936 20.9843C24.5148 20.7016 24.0218 20.5449 23.5147 20.5323C23.0076 20.5198 22.5075 20.652 22.0728 20.9135C21.6382 21.1749 21.287 21.5548 21.0605 22.0087L19.8346 21.6331L20.2846 20.1636L13.3231 18.0329L18.2641 7.43856H25.311C25.455 7.43856 25.5932 7.38134 25.695 7.27948C25.7969 7.17762 25.8541 7.03947 25.8541 6.89542C25.8541 6.75137 25.7969 6.61322 25.695 6.51136C25.5932 6.4095 25.455 6.35228 25.311 6.35228H6.68902C6.54497 6.35228 6.40682 6.4095 6.30496 6.51136C6.20311 6.61322 6.14588 6.75137 6.14588 6.89542C6.14588 7.03947 6.20311 7.17762 6.30496 7.27948C6.40682 7.38134 6.54497 7.43856 6.68902 7.43856H12.1499L8.55122 15.1527C7.93148 15.2835 7.35125 15.5583 6.85746 15.955C6.36368 16.3517 5.97022 16.8591 5.70893 17.436C5.44764 18.013 5.32586 18.6434 5.35344 19.2762C5.38102 19.909 5.55718 20.5264 5.86768 21.0784C6.17818 21.6305 6.61429 22.1017 7.14072 22.4539C7.66714 22.8061 8.26909 23.0294 8.89785 23.1058C9.52661 23.1822 10.1645 23.1095 10.76 22.8935C11.3554 22.6776 11.8916 22.3245 12.3253 21.8628L19.1254 23.9454L19.5149 22.6729L20.7827 23.0608C20.7528 23.6209 20.9004 24.1762 21.2043 24.6476C21.5083 25.1191 21.9532 25.4826 22.4758 25.6865C22.7859 25.8077 23.1158 25.8703 23.4488 25.8712C23.8159 25.8705 24.1788 25.7939 24.5149 25.6462L24.563 25.6229L24.1114 24.6344L24.0726 24.6545C23.7859 24.778 23.4691 24.8138 23.1621 24.7577C22.855 24.7015 22.5714 24.5559 22.347 24.339C22.1225 24.1221 21.9671 23.8437 21.9005 23.5387C21.8338 23.2338 21.8588 22.916 21.9722 22.6252C22.0857 22.3344 22.2826 22.0837 22.5382 21.9045C22.7938 21.7253 23.0967 21.6257 23.4087 21.6182C23.7208 21.6107 24.0281 21.6956 24.292 21.8623C24.5559 22.029 24.7646 22.2699 24.892 22.5549C24.8965 22.5681 24.9016 22.5811 24.9075 22.5937L25.9131 22.1856C25.9077 22.166 25.901 22.1468 25.8929 22.1282ZM9.39386 22.0521C8.81071 22.0521 8.24065 21.8792 7.75577 21.5552C7.2709 21.2312 6.89299 20.7707 6.66982 20.232C6.44666 19.6932 6.38827 19.1004 6.50204 18.5284C6.61581 17.9565 6.89662 17.4311 7.30897 17.0188C7.72133 16.6064 8.24669 16.3256 8.81864 16.2118C9.39059 16.0981 9.98343 16.1565 10.5222 16.3796C11.061 16.6028 11.5214 16.9807 11.8454 17.4656C12.1694 17.9504 12.3423 18.5205 12.3423 19.1037C12.3423 19.8856 12.0317 20.6356 11.4787 21.1885C10.9258 21.7415 10.1758 22.0521 9.39386 22.0521ZM12.7024 16.7992C12.3683 16.3204 11.9343 15.9198 11.4303 15.6251C10.9264 15.3304 10.3644 15.1486 9.78337 15.0922L13.3169 7.50529H17.0413L12.7024 16.7992ZM12.9863 20.9364C13.261 20.4 13.4112 19.8085 13.4255 19.2061L18.9283 20.8914L18.4069 22.5984L12.9863 20.9364Z"/>
</g>
</g>
</svg>
