<svg width="32" height="32" viewBox="0 0 32 32" xmlns="http://www.w3.org/2000/svg">
<g>
<g>
<path d="M26.4555 9.22137L26.0896 8.91722L26.0674 8.94573C25.8329 9.21782 25.5231 9.41438 25.1771 9.51063C24.8311 9.60689 24.4643 9.59852 24.123 9.48658C23.7817 9.37465 23.4812 9.16416 23.2594 8.88166C23.0376 8.59917 22.9044 8.25731 22.8766 7.89921C22.8488 7.54112 22.9277 7.18281 23.1033 6.86948C23.2788 6.55615 23.5433 6.30183 23.8632 6.13859C24.1832 5.97536 24.5443 5.91051 24.901 5.95224C25.2578 5.99397 25.5942 6.14039 25.8678 6.37306L25.8995 6.40474L26.5331 5.69821L26.4919 5.6586C26.1868 5.39555 25.8277 5.2025 25.44 5.09303C25.0522 4.98356 24.6452 4.96032 24.2476 5.02494C23.8499 5.08956 23.4712 5.24047 23.138 5.46707C22.8049 5.69368 22.5254 5.99048 22.3193 6.33662H22.2939L8.21551 7.25702C8.12046 7.24751 8.02382 7.24276 7.92719 7.24276C7.21184 7.2456 6.52534 7.52516 6.01152 8.02289C5.49771 8.52061 5.19644 9.19786 5.17084 9.91276C5.14524 10.6277 5.3973 11.3247 5.87421 11.8579C6.35111 12.3911 7.01586 12.7191 7.72917 12.7731L15.2856 19.7719L12.2979 26.9006H24.4531V19.5849C24.454 19.5749 24.454 19.5649 24.4531 19.5548C24.4626 19.4344 24.469 19.314 24.469 19.1921C24.4682 18.3144 24.2169 17.4553 23.7446 16.7155C23.2723 15.9758 22.5986 15.3863 21.8028 15.0162L14.4492 10.739L22.4951 9.45425C22.7536 9.78849 23.0851 10.0592 23.4643 10.2456C23.8435 10.432 24.2603 10.5293 24.6828 10.5299H24.8951C25.2575 10.5043 25.6113 10.4071 25.936 10.2439C26.2606 10.0808 26.5497 9.85492 26.7866 9.57939L26.8246 9.53028L26.4555 9.22137ZM6.10224 10.0135C6.10193 9.65332 6.20845 9.30118 6.40834 9.00161C6.60822 8.70204 6.89248 8.46849 7.22515 8.33053C7.55781 8.19257 7.92392 8.15639 8.27715 8.22657C8.63038 8.29675 8.95486 8.47014 9.20951 8.7248C9.46417 8.97945 9.63756 9.30392 9.70774 9.65716C9.77792 10.0104 9.74174 10.3765 9.60378 10.7092C9.46582 11.0418 9.23227 11.3261 8.9327 11.526C8.63313 11.7259 8.28099 11.8324 7.92085 11.8321C7.43934 11.83 6.97823 11.6373 6.63834 11.2962C6.29844 10.9552 6.10741 10.4934 6.10699 10.0119L6.10224 10.0135ZM23.5026 25.9469H13.7284L15.7165 21.1944C16.0568 21.9018 16.5726 22.5102 17.2149 22.9615C17.8571 23.4129 18.6042 23.6921 19.385 23.7727C20.1659 23.8532 20.9543 23.7324 21.6751 23.4216C22.3959 23.1109 23.0251 22.6206 23.5026 21.9976V25.9469ZM23.5153 19.1921C23.5153 19.9153 23.3008 20.6222 22.899 21.2235C22.4972 21.8248 21.9261 22.2935 21.2579 22.5701C20.5897 22.8468 19.8545 22.9191 19.1452 22.7779C18.4359 22.6367 17.7844 22.2883 17.2732 21.7769C16.7619 21.2654 16.4138 20.6137 16.2729 19.9044C16.132 19.195 16.2046 18.4598 16.4816 17.7918C16.7586 17.1237 17.2275 16.5528 17.8289 16.1512C18.4304 15.7497 19.1375 15.5355 19.8607 15.5358C20.8297 15.5375 21.7585 15.9233 22.4436 16.6087C23.1287 17.294 23.5141 18.223 23.5153 19.1921ZM19.2381 14.6281C18.253 14.7632 17.3379 15.2126 16.6289 15.9097C15.9199 16.6067 15.4549 17.514 15.303 18.4966L8.93155 12.5909C9.45078 12.3881 9.89687 12.0336 10.2117 11.5735C10.5265 11.1135 10.6953 10.5693 10.6963 10.0119C10.6953 9.88943 10.6863 9.76719 10.6694 9.64593L19.2381 14.6281ZM13.3767 9.9485C13.3124 9.9591 13.2509 9.98283 13.1961 10.0182L9.95333 8.12989L9.92323 8.09821L21.9628 7.30613C21.8949 7.72466 21.923 8.15316 22.0452 8.5592L13.3767 9.9485Z"/>
</g>
</g>
</svg>
