<svg width="32" height="32" viewBox="0 0 32 32" xmlns="http://www.w3.org/2000/svg">
<g>
<g>
<path d="M8.30291 14.549C8.15886 14.549 8.02071 14.6063 7.91885 14.7081C7.81699 14.81 7.75977 14.9481 7.75977 15.0922C7.75977 15.2362 7.81699 15.3744 7.91885 15.4762C8.02071 15.5781 8.15886 15.6353 8.30291 15.6353C10.4639 15.6382 12.5355 16.498 14.0633 18.0262C15.5912 19.5544 16.4506 21.6261 16.4531 23.7871C16.4531 23.9311 16.5103 24.0693 16.6122 24.1711C16.714 24.273 16.8522 24.3302 16.9962 24.3302C17.1403 24.3302 17.2784 24.273 17.3803 24.1711C17.4822 24.0693 17.5394 23.9311 17.5394 23.7871C17.5365 21.3381 16.5625 18.9903 14.831 17.2585C13.0995 15.5267 10.7518 14.5523 8.30291 14.549ZM8.30291 7.78772C8.15886 7.78772 8.02071 7.84494 7.91885 7.9468C7.81699 8.04866 7.75977 8.18681 7.75977 8.33086C7.75977 8.47491 7.81699 8.61306 7.91885 8.71492C8.02071 8.81678 8.15886 8.874 8.30291 8.874C12.2567 8.87852 16.0473 10.4512 18.843 13.2469C21.6388 16.0427 23.2115 19.8333 23.216 23.7871C23.216 23.9311 23.2732 24.0693 23.3751 24.1711C23.4769 24.273 23.6151 24.3302 23.7591 24.3302C23.9032 24.3302 24.0413 24.273 24.1432 24.1711C24.245 24.0693 24.3023 23.9311 24.3023 23.7871C24.2973 19.5453 22.6101 15.4787 19.6107 12.4793C16.6113 9.47987 12.5447 7.79265 8.30291 7.78772ZM9.05554 21.8209H9.03847C8.89582 21.8219 8.75476 21.851 8.62336 21.9066C8.49196 21.9621 8.37278 22.043 8.27263 22.1446C8.17248 22.2462 8.09332 22.3665 8.03967 22.4987C7.98602 22.6308 7.95893 22.7723 7.95995 22.9149C7.96097 23.0576 7.99008 23.1987 8.04561 23.3301C8.10114 23.4615 8.18201 23.5806 8.2836 23.6808C8.38519 23.7809 8.50551 23.8601 8.6377 23.9138C8.76988 23.9674 8.91134 23.9945 9.05399 23.9935H9.08503C9.37313 23.9896 9.64787 23.8714 9.84882 23.6649C10.0498 23.4584 10.1605 23.1805 10.1566 22.8924C10.1527 22.6043 10.0345 22.3296 9.82798 22.1286C9.62149 21.9277 9.34364 21.817 9.05554 21.8209Z"/>
</g>
</g>
</svg>
