<svg width="32" height="32" viewBox="0 0 32 32" xmlns="http://www.w3.org/2000/svg">
<g>
<g>
<path d="M24.4593 6.83179H7.3821C6.71629 6.83262 6.07795 7.09197 5.607 7.55302C5.13605 8.01407 4.87089 8.63921 4.86963 9.29144V18.8755C4.87089 19.5278 5.13605 20.1529 5.607 20.614C6.07795 21.075 6.71629 21.3344 7.3821 21.3352H13.4114V25.3203H10.232C10.085 25.3203 9.94393 25.3775 9.83995 25.4794C9.73597 25.5812 9.67755 25.7194 9.67755 25.8634C9.67755 26.0075 9.73597 26.1456 9.83995 26.2475C9.94393 26.3493 10.085 26.4066 10.232 26.4066H21.7678C21.9149 26.4066 22.0559 26.3493 22.1599 26.2475C22.2639 26.1456 22.3223 26.0075 22.3223 25.8634C22.3223 25.7194 22.2639 25.5812 22.1599 25.4794C22.0559 25.3775 21.9149 25.3203 21.7678 25.3203H18.8356V21.3352H24.4593C25.1251 21.3344 25.7635 21.075 26.2344 20.614C26.7054 20.1529 26.9705 19.5278 26.9718 18.8755V9.29144C26.9705 8.63921 26.7054 8.01407 26.2344 7.55302C25.7635 7.09197 25.1251 6.83262 24.4593 6.83179ZM17.7282 25.3234H14.5203V21.3352H17.7282V25.3234ZM25.8629 18.8755C25.8621 19.2398 25.7139 19.5889 25.4508 19.8463C25.1877 20.1037 24.8312 20.2485 24.4593 20.2489H7.3821C7.01026 20.2485 6.65374 20.1037 6.39066 19.8463C6.12757 19.5889 5.97938 19.2398 5.97854 18.8755V9.29144C5.97938 8.92719 6.12757 8.57811 6.39066 8.32068C6.65374 8.06326 7.01026 7.91848 7.3821 7.91807H24.4593C24.8312 7.91848 25.1877 8.06326 25.4508 8.32068C25.7139 8.57811 25.8621 8.92719 25.8629 9.29144V18.8755Z"/>
</g>
</g>
</svg>
