<svg width="32" height="32" viewBox="0 0 32 32" xmlns="http://www.w3.org/2000/svg">
<g>
<g>
<g>
<path d="M16 12.6083C15.3172 12.608 14.6496 12.8102 14.0818 13.1893C13.5139 13.5684 13.0712 14.1074 12.8097 14.7381C12.5482 15.3688 12.4796 16.063 12.6126 16.7327C12.7457 17.4024 13.0743 18.0176 13.557 18.5005C14.0397 18.9834 14.6547 19.3123 15.3244 19.4456C15.994 19.579 16.6882 19.5107 17.319 19.2495C17.9498 18.9883 18.489 18.5458 18.8684 17.9781C19.2478 17.4104 19.4503 16.743 19.4503 16.0602C19.4494 15.1452 19.0857 14.268 18.4389 13.6208C17.792 12.9737 16.9149 12.6096 16 12.6083ZM16 18.4016C15.5364 18.4019 15.0832 18.2647 14.6977 18.0074C14.3122 17.7501 14.0116 17.3841 13.8341 16.956C13.6565 16.5278 13.61 16.0566 13.7004 15.6019C13.7907 15.1473 14.0139 14.7296 14.3417 14.4019C14.6694 14.0741 15.087 13.8509 15.5417 13.7606C15.9963 13.6702 16.4676 13.7168 16.8957 13.8943C17.3239 14.0718 17.6898 14.3724 17.9472 14.7579C18.2045 15.1435 18.3417 15.5967 18.3414 16.0602C18.3405 16.6809 18.0936 17.276 17.6547 17.7149C17.2157 18.1538 16.6207 18.4007 16 18.4016Z"/>
<path d="M24.6891 13.5747H24.5307C24.3454 13.5737 24.1637 13.5232 24.0044 13.4286C23.8451 13.3339 23.714 13.1984 23.6245 13.036V12.9695L23.5786 12.8618C23.494 12.6738 23.4678 12.4647 23.5034 12.2616C23.539 12.0585 23.6347 11.8708 23.7782 11.7228L23.8527 11.6483C24.3089 11.1831 24.5645 10.5574 24.5645 9.90575C24.5645 9.25409 24.3089 8.62843 23.8527 8.16317L23.8289 8.13941C23.3616 7.67747 22.7307 7.41906 22.0736 7.42054C21.4165 7.42202 20.7867 7.68329 20.3216 8.14733L20.2677 8.20119C20.1199 8.34319 19.9339 8.43893 19.7325 8.47664C19.531 8.51436 19.323 8.49241 19.1338 8.41349C18.9447 8.33457 18.7827 8.20212 18.6678 8.03242C18.5529 7.86271 18.4901 7.66314 18.4871 7.45822V7.37109C18.4871 6.71188 18.2252 6.07968 17.7591 5.61355C17.293 5.14742 16.6608 4.88555 16.0016 4.88555C15.3424 4.88555 14.7102 5.14742 14.244 5.61355C13.7779 6.07968 13.516 6.71188 13.516 7.37109V7.52951C13.5153 7.71446 13.4651 7.89585 13.3706 8.05489C13.2762 8.21392 13.141 8.34483 12.979 8.43406H12.9109L12.8047 8.48159C12.6158 8.56583 12.4059 8.59139 12.2022 8.55495C11.9986 8.51852 11.8106 8.42176 11.6626 8.27723L11.5929 8.20436L11.5739 8.1901C11.1119 7.7402 10.4919 7.48938 9.84712 7.49149C9.19353 7.49205 8.56684 7.75184 8.10454 8.21386L8.09662 8.22179C7.63122 8.68833 7.36986 9.32042 7.36986 9.97941C7.36986 10.6384 7.63122 11.2705 8.09662 11.737L8.15049 11.7909C8.29665 11.9385 8.39481 12.1269 8.43213 12.3312C8.46944 12.5356 8.44416 12.7465 8.35959 12.9362L8.34534 12.9679C8.27587 13.1623 8.14932 13.3312 7.98227 13.4524C7.81522 13.5737 7.61544 13.6417 7.4091 13.6475H7.32197C6.99556 13.6475 6.67235 13.7118 6.37079 13.8367C6.06923 13.9616 5.79523 14.1447 5.56443 14.3755C5.33362 14.6063 5.15054 14.8803 5.02563 15.1819C4.90072 15.4835 4.83643 15.8067 4.83643 16.1331C4.83643 16.4595 4.90072 16.7827 5.02563 17.0843C5.15054 17.3858 5.33362 17.6598 5.56443 17.8906C5.79523 18.1214 6.06923 18.3045 6.37079 18.4294C6.67235 18.5543 6.99556 18.6186 7.32197 18.6186H7.48039C7.6849 18.6213 7.88419 18.6835 8.05388 18.7977C8.22358 18.9119 8.3563 19.073 8.43581 19.2615C8.51532 19.4499 8.53817 19.6575 8.50156 19.8587C8.46496 20.0599 8.37048 20.2461 8.22969 20.3945L8.16949 20.4547C7.7037 20.921 7.44207 21.5532 7.44207 22.2123C7.44207 22.8714 7.7037 23.5036 8.16949 23.9699L8.18058 23.981C8.64437 24.4398 9.27077 24.6966 9.92316 24.6954C10.2496 24.6961 10.573 24.6321 10.8745 24.507C11.1761 24.3819 11.4499 24.1983 11.68 23.9667L11.7339 23.9129C11.8819 23.7674 12.0703 23.6697 12.2746 23.6327C12.4788 23.5957 12.6895 23.621 12.8792 23.7054L12.9125 23.718C13.1067 23.7882 13.2754 23.9151 13.3966 24.0823C13.5178 24.2496 13.5859 24.4494 13.5921 24.6558V24.743C13.5921 25.4022 13.8539 26.0344 14.3201 26.5005C14.7862 26.9667 15.4184 27.2285 16.0776 27.2285C16.7368 27.2285 17.369 26.9667 17.8352 26.5005C18.3013 26.0344 18.5632 25.4022 18.5632 24.743V24.5846C18.5646 24.3816 18.6253 24.1835 18.7379 24.0146C18.8505 23.8457 19.01 23.7135 19.1968 23.6341C19.3855 23.5497 19.5952 23.5241 19.7986 23.5606C20.002 23.597 20.1898 23.6938 20.3374 23.8384L20.4103 23.9113C20.8772 24.3692 21.5056 24.6249 22.1596 24.6231C22.8135 24.6213 23.4405 24.3622 23.9049 23.9018L23.9287 23.878C24.3875 23.4105 24.6432 22.7808 24.6402 22.1259C24.6372 21.4709 24.3758 20.8435 23.9129 20.3802L23.859 20.3263C23.7129 20.1783 23.6148 19.9897 23.5775 19.7851C23.5402 19.5805 23.5654 19.3695 23.6499 19.1794C23.7288 18.9922 23.8609 18.8324 24.0299 18.7197C24.1989 18.6071 24.3973 18.5466 24.6004 18.5457H24.6875C25.0139 18.5457 25.3371 18.4815 25.6387 18.3565C25.9402 18.2316 26.2143 18.0486 26.4451 17.8177C26.6759 17.5869 26.8589 17.3129 26.9839 17.0114C27.1088 16.7098 27.1731 16.3866 27.1731 16.0602C27.1731 15.7338 27.1088 15.4106 26.9839 15.109C26.8589 14.8075 26.6759 14.5335 26.4451 14.3027C26.2143 14.0719 25.9402 13.8888 25.6387 13.7639C25.3371 13.6389 25.0139 13.5747 24.6875 13.5747H24.6891ZM24.6891 17.4368H24.6004C24.1767 17.4398 23.7632 17.5673 23.4114 17.8036C23.0596 18.0398 22.7852 18.3744 22.6222 18.7655C22.4592 19.1567 22.4149 19.5871 22.4949 20.0033C22.5748 20.4194 22.7754 20.8028 23.0717 21.1057L23.1287 21.1644C23.386 21.4212 23.5313 21.7694 23.5328 22.133C23.5342 22.4966 23.3918 22.846 23.1366 23.105L23.1144 23.1255C22.855 23.3773 22.507 23.5171 22.1455 23.5148C21.784 23.5124 21.4379 23.3681 21.1818 23.1129L21.1184 23.0495C20.8149 22.7545 20.4313 22.5551 20.0154 22.4763C19.5994 22.3975 19.1695 22.4427 18.7791 22.6063C18.3887 22.7699 18.0549 23.0446 17.8194 23.3963C17.5838 23.748 17.4568 24.1613 17.4542 24.5846V24.743C17.4542 25.1081 17.3092 25.4582 17.051 25.7164C16.7929 25.9746 16.4427 26.1196 16.0776 26.1196C15.7125 26.1196 15.3624 25.9746 15.1042 25.7164C14.846 25.4582 14.701 25.1081 14.701 24.743V24.6432C14.6803 24.2187 14.5385 23.8089 14.2924 23.4624C14.0463 23.1159 13.7061 22.8472 13.312 22.6879C12.918 22.5286 12.4865 22.4855 12.0688 22.5636C11.651 22.6417 11.2643 22.8378 10.9544 23.1287L10.8958 23.1873C10.7685 23.3156 10.6169 23.4174 10.45 23.4867C10.283 23.5561 10.1039 23.5916 9.92316 23.5913C9.74467 23.5923 9.56773 23.5582 9.40245 23.4908C9.23718 23.4233 9.08683 23.324 8.95999 23.1984L8.93781 23.1747C8.68474 22.9158 8.54383 22.5676 8.54561 22.2056C8.54739 21.8435 8.69171 21.4968 8.94732 21.2404L9.01227 21.177C9.30645 20.8729 9.50495 20.4892 9.58317 20.0733C9.66139 19.6575 9.61589 19.2279 9.45231 18.8376C9.28874 18.4474 9.01427 18.1137 8.66291 17.878C8.31155 17.6422 7.89874 17.5147 7.47563 17.5113H7.31722C6.95211 17.5113 6.60196 17.3663 6.34379 17.1081C6.08562 16.8499 5.94058 16.4998 5.94058 16.1347C5.94058 15.7696 6.08562 15.4194 6.34379 15.1612C6.60196 14.9031 6.95211 14.758 7.31722 14.758H7.41702C7.84307 14.7409 8.25516 14.6014 8.60392 14.3561C8.95269 14.1108 9.22336 13.7701 9.3835 13.375C9.54365 12.9798 9.58648 12.5468 9.50687 12.1279C9.42726 11.709 9.22859 11.322 8.93464 11.0131L8.87128 10.956C8.61502 10.6981 8.47119 10.3493 8.47119 9.98575C8.47119 9.62217 8.61502 9.27336 8.87128 9.01545C8.99864 8.88715 9.15019 8.78538 9.31715 8.71604C9.48411 8.6467 9.66316 8.61117 9.84395 8.61149C10.2072 8.61095 10.5559 8.75451 10.8135 9.0107L10.88 9.07723C11.1706 9.36371 11.5374 9.56077 11.9367 9.64501C12.336 9.72925 12.7511 9.69714 13.1327 9.55248H13.215L13.3196 9.50812C13.7051 9.34319 14.0338 9.06897 14.2653 8.71932C14.4967 8.36966 14.6206 7.95989 14.6218 7.5406V7.38218C14.6218 7.01708 14.7668 6.66692 15.025 6.40875C15.2831 6.15059 15.6333 6.00555 15.9984 6.00555C16.3635 6.00555 16.7137 6.15059 16.9718 6.40875C17.23 6.66692 17.375 7.01708 17.375 7.38218V7.47248C17.3787 7.89588 17.5067 8.30888 17.7431 8.66016C17.9794 9.01145 18.3138 9.28555 18.7047 9.4484C19.0955 9.61125 19.5256 9.65568 19.9415 9.57618C20.3574 9.49667 20.7407 9.29673 21.0439 9.00119L21.1026 8.94258C21.3585 8.68719 21.7045 8.54257 22.066 8.53991C22.4275 8.53724 22.7756 8.67673 23.0352 8.92832L23.0558 8.94891C23.3072 9.20301 23.45 9.54493 23.4538 9.90237C23.4577 10.2598 23.3223 10.6047 23.0764 10.8642L22.9877 10.9529C22.7019 11.2443 22.5054 11.6113 22.4212 12.0107C22.337 12.41 22.3687 12.8252 22.5125 13.2071V13.2895L22.5584 13.3941C22.7237 13.7793 22.998 14.1078 23.3476 14.3392C23.6971 14.5706 24.1067 14.6947 24.5259 14.6962H24.6843C25.0495 14.6962 25.3996 14.8413 25.6578 15.0994C25.9159 15.3576 26.061 15.7078 26.061 16.0729C26.061 16.438 25.9159 16.7881 25.6578 17.0463C25.3996 17.3045 25.0495 17.4495 24.6843 17.4495L24.6891 17.4368Z"/>
</g>
</g>
</g>
</svg>
