<svg width="32" height="32" viewBox="0 0 32 32" xmlns="http://www.w3.org/2000/svg">
<g>
<g>
<path d="M19.01 19.2618C18.4718 19.2615 17.9406 19.3842 17.4571 19.6206C16.9736 19.857 16.5506 20.2008 16.2202 20.6257L11.7133 17.855C12.0906 17.2965 12.3 16.6416 12.3165 15.9677C12.3331 15.2939 12.1562 14.6295 11.8068 14.0531L16.3296 11.2713C16.9094 11.9415 17.7205 12.3687 18.6012 12.4675C19.482 12.5663 20.3676 12.3296 21.0815 11.8045C21.7955 11.2794 22.2853 10.5045 22.4533 9.63432C22.6214 8.76414 22.4553 7.8626 21.9882 7.10942C21.5211 6.35625 20.7873 5.80678 19.9331 5.57057C19.0789 5.33435 18.1671 5.42874 17.3794 5.83491C16.5917 6.24108 15.986 6.9292 15.6831 7.76208C15.3802 8.59496 15.4023 9.51141 15.745 10.3287L11.0797 13.1945C10.5719 12.7591 9.95111 12.4767 9.28934 12.3799C8.62756 12.2831 7.95189 12.3759 7.34071 12.6475C6.72952 12.9191 6.20786 13.3584 5.83623 13.9145C5.4646 14.4705 5.25822 15.1206 5.24104 15.7892C5.22385 16.4578 5.39657 17.1176 5.73915 17.692C6.08173 18.2664 6.58013 18.7319 7.17656 19.0346C7.77298 19.3372 8.44299 19.4646 9.10887 19.4019C9.77475 19.3392 10.4092 19.089 10.9387 18.6804L15.6832 21.5968C15.4276 22.304 15.404 23.0743 15.6159 23.7958C15.8277 24.5173 16.264 25.1525 16.8613 25.6093C17.4587 26.066 18.1861 26.3206 18.9379 26.3359C19.6897 26.3512 20.4268 26.1266 21.0423 25.6946C21.6578 25.2626 22.1196 24.6457 22.3607 23.9334C22.6018 23.2211 22.6097 22.4506 22.3831 21.7335C22.1566 21.0165 21.7074 20.3903 21.1009 19.9458C20.4943 19.5014 19.7619 19.2618 19.01 19.2618ZM19.01 6.53307C19.4903 6.53307 19.9598 6.6755 20.3592 6.94235C20.7585 7.2092 21.0698 7.58848 21.2536 8.03223C21.4374 8.47598 21.4855 8.96428 21.3918 9.43536C21.2981 9.90645 21.0668 10.3392 20.7272 10.6788C20.3875 11.0184 19.9548 11.2497 19.4837 11.3434C19.0126 11.4371 18.5244 11.389 18.0806 11.2052C17.6368 11.0214 17.2576 10.7102 16.9907 10.3108C16.7239 9.91143 16.5814 9.4419 16.5814 8.96158C16.5823 8.31776 16.8384 7.70054 17.2937 7.24529C17.7489 6.79004 18.3661 6.53391 19.01 6.53307ZM8.78104 18.3081C8.30073 18.3081 7.8312 18.1657 7.43183 17.8988C7.03247 17.632 6.7212 17.2527 6.53739 16.809C6.35358 16.3652 6.30549 15.8769 6.39919 15.4058C6.4929 14.9347 6.72419 14.502 7.06382 14.1624C7.40346 13.8228 7.83618 13.5915 8.30726 13.4978C8.77835 13.404 9.26664 13.4521 9.7104 13.6359C10.1541 13.8198 10.5334 14.131 10.8003 14.5304C11.0671 14.9298 11.2096 15.3993 11.2096 15.8796C11.2087 16.5234 10.9526 17.1406 10.4973 17.5959C10.0421 18.0512 9.42487 18.3073 8.78104 18.3081ZM19.01 25.2261C18.5296 25.2261 18.0601 25.0837 17.6607 24.8169C17.2614 24.55 16.9501 24.1707 16.7663 23.727C16.5825 23.2832 16.5344 22.7949 16.6281 22.3238C16.7218 21.8528 16.9531 21.42 17.2927 21.0804C17.6324 20.7408 18.0651 20.5095 18.5362 20.4158C19.0073 20.3221 19.4956 20.3702 19.9393 20.554C20.3831 20.7378 20.7623 21.049 21.0292 21.4484C21.296 21.8478 21.4385 22.3173 21.4385 22.7976C21.438 23.4416 21.1821 24.059 20.7267 24.5144C20.2714 24.9697 19.6539 25.2257 19.01 25.2261Z"/>
</g>
</g>
</svg>
