<svg width="32" height="32" viewBox="0 0 32 32" xmlns="http://www.w3.org/2000/svg">
<g>
<g>
<g>
<path d="M25.6602 17.196C25.7737 16.5764 25.8318 15.9476 25.834 15.3172C25.8358 13.9822 25.5718 12.6606 25.0581 11.4329C24.5756 10.2395 23.867 9.15522 22.9731 8.24209C22.0791 7.32895 21.0173 6.60497 19.8486 6.11168C18.6463 5.58782 17.3524 5.31836 16.0451 5.3196C15.4276 5.32185 14.8116 5.38123 14.2046 5.49702C13.2704 4.81615 12.1495 4.45359 11.0017 4.46098C10.2661 4.45134 9.53627 4.59501 8.85692 4.88319C8.17758 5.17138 7.56298 5.59802 7.05071 6.13702C6.5238 6.66015 6.10698 7.28751 5.82574 7.98073C5.54451 8.67396 5.40477 9.41846 5.41508 10.1687C5.40664 11.3404 5.76132 12.4849 6.42843 13.4384C6.315 14.058 6.25682 14.6869 6.25462 15.3172C6.25363 16.6522 6.51757 17.9736 7.03054 19.2016C7.5124 20.3953 8.22074 21.48 9.11479 22.3932C10.0088 23.3064 11.071 24.0302 12.24 24.5228C13.4424 25.0466 14.7363 25.3161 16.0436 25.3148C16.6611 25.3134 17.2772 25.254 17.884 25.1374C18.9585 25.9091 20.2654 26.2687 21.5742 26.1527C22.883 26.0368 24.1097 25.4528 25.038 24.5038C25.9678 23.5566 26.54 22.3046 26.6536 20.9687C26.7671 19.6328 26.4148 18.2989 25.6587 17.2024L25.6602 17.196ZM24.2636 23.7133C23.8527 24.1496 23.3578 24.4944 22.8101 24.7262C22.2623 24.9579 21.6736 25.0715 21.0808 25.0598C20.0863 25.0701 19.1183 24.7318 18.3387 24.1014L18.1416 23.943L17.898 23.9952C17.2856 24.1274 16.6617 24.1953 16.0358 24.198C14.875 24.2007 13.7257 23.963 12.6575 23.4994C11.6159 23.0626 10.6697 22.4191 9.87348 21.6063C9.07728 20.7935 8.44697 19.8276 8.01905 18.7644C7.56737 17.6738 7.33669 16.5012 7.3409 15.3172C7.34338 14.6783 7.40993 14.0413 7.53954 13.4162L7.59075 13.1659L7.43556 12.9647C6.82079 12.1678 6.49216 11.1798 6.50447 10.1655C6.49276 9.56074 6.60377 8.96 6.83051 8.40112C7.05724 7.84223 7.39481 7.33728 7.82197 6.91801C8.23289 6.4817 8.72776 6.13685 9.27549 5.90512C9.82322 5.6734 10.412 5.5598 11.0048 5.57148C11.9993 5.56117 12.9672 5.89947 13.7469 6.5299L13.9439 6.68831L14.1876 6.63603C14.7999 6.50392 15.4239 6.43598 16.0498 6.43326C17.2088 6.42956 18.3566 6.66615 19.4234 7.12871C20.4669 7.56457 21.4151 8.20795 22.2128 9.02139C23.0104 9.83484 23.6416 10.8021 24.0696 11.8669C24.5242 12.9579 24.7576 14.1316 24.7555 15.3172C24.753 15.9561 24.6865 16.5931 24.5569 17.2182L24.5057 17.4669L24.6609 17.6697C25.2756 18.4666 25.6043 19.4546 25.592 20.4689C25.6026 21.0735 25.4907 21.6739 25.2632 22.2322C25.0356 22.7905 24.6974 23.2948 24.2698 23.7133H24.2636Z"/>
<path d="M19.6779 14.6645C19.5744 14.5663 19.4644 14.4753 19.3489 14.3921C19.4817 14.3032 19.6023 14.1967 19.7074 14.0752C20.0245 13.7107 20.1967 13.2384 20.19 12.7509C20.19 12.3152 20.0441 11.6784 19.3458 11.1113C18.8739 10.7417 18.3324 10.4753 17.7552 10.3287C17.1524 10.1674 16.5317 10.087 15.9085 10.0895C15.4431 10.0861 14.9789 10.1393 14.5258 10.2479C14.0742 10.3605 13.6401 10.537 13.2363 10.7723C12.7572 11.0475 12.36 11.4499 12.0868 11.9368C11.8136 12.4238 11.6746 12.9771 11.6844 13.5382C11.6769 13.9915 11.7581 14.4418 11.9234 14.8626C12.0671 15.2203 12.2858 15.5415 12.5643 15.8036C12.3997 15.8994 12.2527 16.0238 12.1298 16.1711C11.8337 16.5327 11.6751 16.991 11.6829 17.4622C11.6829 18.0958 11.9545 19.0083 13.2502 19.7164C14.1793 20.2023 15.2125 20.4441 16.2561 20.4198C16.7567 20.4208 17.2552 20.3532 17.7381 20.2186C18.2068 20.0883 18.6544 19.8887 19.0665 19.6261C19.5338 19.3252 19.9177 18.9069 20.1816 18.4113C20.4454 17.9157 20.5802 17.3593 20.5733 16.7952C20.5762 16.3714 20.4872 15.9521 20.3126 15.5675C20.1594 15.2279 19.944 14.9214 19.6779 14.6645ZM19.352 17.9913C19.1666 18.3336 18.8997 18.6229 18.5761 18.8325C18.2388 19.0445 17.8728 19.2046 17.4898 19.3077C17.0853 19.4204 16.6677 19.4763 16.2484 19.4741C15.3586 19.4984 14.477 19.2959 13.6832 18.8847C12.9652 18.4919 12.6062 18.0193 12.6062 17.4669C12.6008 17.2203 12.6841 16.9801 12.8406 16.7921C12.9245 16.6988 13.0279 16.6259 13.1431 16.579C13.2584 16.5321 13.3825 16.5124 13.5063 16.5212C13.6754 16.5213 13.8408 16.5714 13.9827 16.6653C14.1315 16.7631 14.2676 16.8797 14.3877 17.0123C14.5119 17.1469 14.6453 17.2816 14.7897 17.4178C14.9583 17.5676 15.1524 17.6847 15.3623 17.7632C15.6199 17.863 15.8937 17.9119 16.1692 17.9073C16.4946 17.9235 16.8176 17.8444 17.1003 17.6792C17.2042 17.6228 17.2916 17.5393 17.3535 17.4371C17.4154 17.335 17.4496 17.2179 17.4526 17.0978C17.4578 16.9901 17.4343 16.883 17.3846 16.7878C17.3348 16.6927 17.2607 16.6131 17.1702 16.5576C16.8551 16.4112 16.5236 16.3048 16.1832 16.2408L14.8952 15.924C14.5828 15.849 14.2774 15.7462 13.9827 15.6166C13.7294 15.5051 13.4923 15.3585 13.2782 15.181C13.0598 15.0006 12.8895 14.7668 12.7831 14.5014C12.6661 14.1963 12.6097 13.8705 12.6171 13.543C12.6084 13.1493 12.7049 12.7606 12.8963 12.4187C13.0876 12.0768 13.3667 11.7946 13.7034 11.6024C14.0339 11.4125 14.3884 11.2702 14.7571 11.1794C15.1383 11.0865 15.529 11.0397 15.9209 11.04C16.4598 11.0379 16.9966 11.1076 17.5178 11.2475C17.9715 11.3602 18.3977 11.5667 18.7701 11.8543C19.1037 12.122 19.2589 12.4198 19.2589 12.7509C19.2643 13.0059 19.1744 13.2534 19.0075 13.4432C18.9242 13.5383 18.8213 13.6135 18.7062 13.6633C18.5912 13.7132 18.4667 13.7364 18.3418 13.7315C18.196 13.7317 18.0525 13.6947 17.9243 13.6238C17.7962 13.552 17.6774 13.4642 17.5705 13.3624C17.465 13.261 17.3533 13.1596 17.2369 13.0614C17.094 12.9481 16.9327 12.8613 16.7605 12.8047C16.5417 12.7288 16.3118 12.6919 16.0808 12.6954C15.2355 12.6954 14.8124 12.9267 14.8114 13.3893C14.8093 13.4836 14.8323 13.5767 14.8781 13.6586C14.9158 13.7295 14.9646 13.7937 15.0224 13.8487C15.1025 13.9109 15.1922 13.9591 15.2878 13.9913C15.3889 14.0329 15.4926 14.0679 15.5982 14.0958L15.9861 14.1909L16.9032 14.4063C17.1898 14.4708 17.4485 14.5399 17.6792 14.6139C17.9291 14.695 18.1721 14.7973 18.4054 14.9196C18.6378 15.0368 18.8525 15.1872 19.0432 15.3663C19.2234 15.5417 19.3689 15.751 19.4715 15.9826C19.5881 16.2407 19.6469 16.5221 19.6438 16.8063C19.6483 17.2184 19.5477 17.6245 19.352 17.9849V17.9913Z"/>
</g>
</g>
</g>
</svg>
