<svg width="32" height="32" viewBox="0 0 32 32" xmlns="http://www.w3.org/2000/svg">
<g>
<g>
<path d="M18.2178 5.41781C18.1227 5.32276 17.996 5.24355 17.8693 5.21187C17.6633 5.16434 17.4574 5.19603 17.2673 5.30692L9.33066 10.4713H5.3069C5.00591 10.4713 4.75244 10.7247 4.75244 11.0257V19.7544C4.75244 19.9445 4.86333 20.1188 5.00591 20.2139C5.10096 20.3247 5.25937 20.4039 5.41779 20.4039H9.90095L17.3623 25.9168C17.3782 25.9327 17.394 25.9485 17.4257 25.9485C17.5208 25.996 17.6316 26.0277 17.7425 26.0436H17.8059C17.996 26.0436 18.1703 25.9802 18.3128 25.8535C18.4712 25.7109 18.5663 25.5208 18.5821 25.3148V6.06731C18.5821 5.94058 18.5505 5.79801 18.4712 5.68712C18.4079 5.57623 18.3128 5.49702 18.2178 5.41781ZM9.90095 11.5802L17.3465 6.7485V24.5069L10.297 19.295C10.2019 19.2317 10.0911 19.1841 9.96432 19.1841H5.97224V11.6752H9.59996C9.71086 11.6752 9.80591 11.6436 9.90095 11.5802ZM23.4613 16.2535C23.7465 15.2238 23.6198 14.1624 23.097 13.2277C22.5742 12.3089 21.7188 11.6436 20.7049 11.3584C20.4039 11.2792 20.1029 11.4535 20.0237 11.7386C19.9445 12.0396 20.1188 12.3406 20.4039 12.4198C21.1485 12.6257 21.7505 13.101 22.1307 13.7663C22.5109 14.4317 22.6059 15.2079 22.4 15.9525C22.1307 16.903 21.4178 17.6475 20.4673 17.9327C20.1663 18.0277 20.0079 18.3287 20.1029 18.6297C20.1821 18.8673 20.3881 19.0257 20.6415 19.0257C20.6891 19.0257 20.7524 19.0257 20.8 19.0099C22.0831 18.598 23.097 17.5683 23.4613 16.2535Z"/>
<path d="M21.8139 9.06138C21.5287 8.96633 21.2119 9.14059 21.1168 9.44158C21.0218 9.74257 21.196 10.0436 21.497 10.1386C24.2851 10.9782 25.8851 13.9247 25.0455 16.7129C24.5386 18.3762 23.2554 19.6911 21.5921 20.2297C21.3069 20.3247 21.1327 20.6416 21.2277 20.9267C21.3069 21.1643 21.5287 21.3069 21.7505 21.3069C21.8139 21.3069 21.8614 21.2911 21.9247 21.2752C23.9366 20.6257 25.4891 19.0416 26.0911 17.0139C27.1208 13.6396 25.2039 10.0752 21.8139 9.06138Z"/>
</g>
</g>
</svg>
