<svg width="32" height="32" viewBox="0 0 32 32" xmlns="http://www.w3.org/2000/svg">
<g>
<g>
<path d="M16 5.55882C9.996 5.55882 5.11084 9.59842 5.11084 14.5616C5.11084 16.7493 6.05746 18.8388 7.78464 20.4753L6.2235 26.1069L12.7583 23.1604C13.8183 23.4317 14.9072 23.5679 16 23.5659C22.004 23.5659 26.8892 19.5263 26.8892 14.5616C26.8892 9.59683 22.004 5.55882 16 5.55882ZM16 22.457C14.9382 22.4586 13.8807 22.3186 12.8545 22.0404L12.6698 21.9897L7.89948 24.1394L9.01679 20.1061L8.75609 19.8749C7.10804 18.4174 6.19867 16.5307 6.19867 14.5616C6.19867 10.2083 10.5966 6.66773 16.0016 6.66773C21.4066 6.66773 25.8045 10.2083 25.8045 14.5616C25.8045 18.9149 21.405 22.457 16 22.457Z"/>
</g>
</g>
</svg>
