<svg width="32" height="32" viewBox="0 0 32 32" xmlns="http://www.w3.org/2000/svg">
<g>
<g>
<g>
<path d="M15.9161 5.72514C9.78698 5.72514 4.80005 9.76475 4.80005 14.7327C4.80005 16.9204 5.76639 19.0099 7.52955 20.6463L5.9454 26.2764L12.6147 23.3315C13.6965 23.6012 14.8075 23.7369 15.9224 23.7354C22.0515 23.7354 27.0369 19.6958 27.0369 14.7327C27.0369 9.7695 22.0452 5.72514 15.9161 5.72514ZM15.9161 22.6234C14.8321 22.6258 13.7525 22.4857 12.705 22.2067L12.5149 22.156L7.64678 24.3073L8.78579 20.2772L8.51965 20.0459C6.83569 18.5838 5.90896 16.697 5.90896 14.7327C5.90896 10.3794 10.3985 6.83722 15.9161 6.83722C21.4337 6.83722 25.9216 10.3762 25.9216 14.7327C25.9216 19.0891 21.4337 22.6234 15.9161 22.6234Z"/>
<path d="M12.5149 12.2107H19.4852C19.6322 12.2107 19.7732 12.1523 19.8772 12.0483C19.9812 11.9443 20.0396 11.8033 20.0396 11.6562C20.0396 11.5092 19.9812 11.3682 19.8772 11.2642C19.7732 11.1602 19.6322 11.1018 19.4852 11.1018H12.5149C12.3678 11.1018 12.2268 11.1602 12.1228 11.2642C12.0188 11.3682 11.9604 11.5092 11.9604 11.6562C11.9604 11.8033 12.0188 11.9443 12.1228 12.0483C12.2268 12.1523 12.3678 12.2107 12.5149 12.2107ZM21.5446 14.2701H10.4555C10.3084 14.2701 10.1674 14.3285 10.0634 14.4325C9.95942 14.5365 9.901 14.6775 9.901 14.8245C9.901 14.9716 9.95942 15.1126 10.0634 15.2166C10.1674 15.3206 10.3084 15.379 10.4555 15.379H21.5446C21.6916 15.379 21.8326 15.3206 21.9366 15.2166C22.0406 15.1126 22.099 14.9716 22.099 14.8245C22.099 14.6775 22.0406 14.5365 21.9366 14.4325C21.8326 14.3285 21.6916 14.2701 21.5446 14.2701ZM19.4852 17.4384H12.5149C12.3678 17.4384 12.2268 17.4968 12.1228 17.6008C12.0188 17.7048 11.9604 17.8458 11.9604 17.9929C11.9604 18.1399 12.0188 18.2809 12.1228 18.3849C12.2268 18.4889 12.3678 18.5473 12.5149 18.5473H19.4852C19.6322 18.5473 19.7732 18.4889 19.8772 18.3849C19.9812 18.2809 20.0396 18.1399 20.0396 17.9929C20.0396 17.8458 19.9812 17.7048 19.8772 17.6008C19.7732 17.4968 19.6322 17.4384 19.4852 17.4384Z"/>
</g>
</g>
</g>
</svg>
