<svg width="54" height="9" viewBox="0 0 54 9" xmlns="http://www.w3.org/2000/svg">
<path d="M4.31055 6.14453C4.31055 6.27148 4.28451 6.38867 4.23242 6.49609C4.18034 6.60026 4.10547 6.68978 4.00781 6.76465C3.91016 6.83952 3.78971 6.89811 3.64648 6.94043C3.50651 6.98275 3.34538 7.00391 3.16309 7.00391C2.95801 7.00391 2.76921 6.98112 2.59668 6.93555C2.42741 6.88997 2.28255 6.81836 2.16211 6.7207C2.03841 6.62305 1.94238 6.49772 1.87402 6.34473C1.80566 6.19173 1.76823 6.00781 1.76172 5.79297H0.414062C0.414062 6.16081 0.484049 6.48145 0.624023 6.75488C0.767253 7.02832 0.960938 7.26595 1.20508 7.46777C1.46224 7.67285 1.76335 7.8291 2.1084 7.93652C2.45671 8.04069 2.80827 8.09277 3.16309 8.09277C3.52441 8.09277 3.85807 8.05046 4.16406 7.96582C4.47005 7.87793 4.73372 7.74935 4.95508 7.58008C5.17643 7.41406 5.34896 7.21061 5.47266 6.96973C5.59961 6.72559 5.66309 6.44727 5.66309 6.13477C5.66309 5.77344 5.58008 5.45443 5.41406 5.17773C5.24805 4.90104 5.02507 4.65853 4.74512 4.4502C4.55957 4.32324 4.35612 4.21094 4.13477 4.11328C3.91341 4.01562 3.68066 3.93262 3.43652 3.86426C3.20866 3.80241 3.00358 3.73568 2.82129 3.66406C2.64225 3.59245 2.48926 3.5127 2.3623 3.4248C2.23535 3.34017 2.1377 3.24414 2.06934 3.13672C2.00423 3.0293 1.97168 2.90885 1.97168 2.77539C1.97168 2.64844 1.99609 2.53125 2.04492 2.42383C2.09701 2.31315 2.17188 2.21712 2.26953 2.13574C2.36719 2.05762 2.486 1.9974 2.62598 1.95508C2.76921 1.90951 2.93197 1.88672 3.11426 1.88672C3.31283 1.88672 3.48535 1.91439 3.63184 1.96973C3.78158 2.02181 3.9069 2.09505 4.00781 2.18945C4.10547 2.28711 4.17871 2.40267 4.22754 2.53613C4.27962 2.6696 4.30892 2.81608 4.31543 2.97559H5.65332C5.65332 2.65658 5.59147 2.36361 5.46777 2.09668C5.34408 1.82975 5.17155 1.59863 4.9502 1.40332C4.72884 1.21126 4.46354 1.06152 4.1543 0.954102C3.84831 0.84668 3.50977 0.792969 3.13867 0.792969C2.7806 0.792969 2.44857 0.840169 2.14258 0.93457C1.83659 1.02572 1.57129 1.15755 1.34668 1.33008C1.12207 1.5026 0.946289 1.71094 0.819336 1.95508C0.692383 2.19922 0.628906 2.47103 0.628906 2.77051C0.628906 3.03092 0.676107 3.27181 0.770508 3.49316C0.868164 3.71452 1.01139 3.91634 1.2002 4.09863C1.389 4.28092 1.63151 4.44857 1.92773 4.60156C2.22721 4.75456 2.57389 4.88477 2.96777 4.99219C3.22168 5.06055 3.43327 5.13542 3.60254 5.2168C3.77507 5.29492 3.91504 5.38118 4.02246 5.47559C4.12663 5.57324 4.19987 5.67741 4.24219 5.78809C4.28776 5.89876 4.31055 6.01758 4.31055 6.14453ZM10.085 5.39258H11.1445C11.5319 5.39258 11.8818 5.33724 12.1943 5.22656C12.5068 5.11589 12.7738 4.96126 12.9951 4.7627C13.2132 4.56738 13.3809 4.33464 13.498 4.06445C13.6185 3.79427 13.6787 3.49967 13.6787 3.18066C13.6787 2.83887 13.6185 2.52799 13.498 2.24805C13.3809 1.9681 13.2132 1.72721 12.9951 1.52539C12.7738 1.32682 12.5068 1.1722 12.1943 1.06152C11.8818 0.947591 11.5319 0.890625 11.1445 0.890625H8.71289V8H10.085V5.39258ZM10.085 4.2793V2.00391H11.1445C11.3398 2.00391 11.5091 2.03483 11.6523 2.09668C11.7956 2.15853 11.916 2.24316 12.0137 2.35059C12.1081 2.45801 12.1781 2.58333 12.2236 2.72656C12.2725 2.86979 12.2969 3.02441 12.2969 3.19043C12.2969 3.33366 12.2725 3.47201 12.2236 3.60547C12.1781 3.73568 12.1081 3.85124 12.0137 3.95215C11.916 4.05306 11.7956 4.13281 11.6523 4.19141C11.5091 4.25 11.3398 4.2793 11.1445 4.2793H10.085ZM16.9336 0.890625V1.99902H18.2861V6.89648H16.9336V8H21.0449V6.89648H19.6582V1.99902H21.0449V0.890625H16.9336ZM29.3242 8V0.890625H27.9473L27.9424 5.45605L25.9795 0.890625H24.5977V8H25.9795V3.41504L27.957 8H29.3242ZM37.3301 8V0.890625H35.9531L35.9482 5.45605L33.9854 0.890625H32.6035V8H33.9854V3.41504L35.9629 8H37.3301ZM45.0234 4.88477V3.80078H42.1035V2.00879H45.502V0.890625H40.7266V8H45.5166V6.8916H42.1035V4.88477H45.0234ZM51.0664 5.34375L52.4043 8H53.874V7.93652L52.3457 5.00195C52.541 4.91406 52.7168 4.8099 52.873 4.68945C53.0326 4.56901 53.1693 4.42741 53.2832 4.26465C53.3939 4.10514 53.4785 3.92448 53.5371 3.72266C53.599 3.51758 53.6299 3.28809 53.6299 3.03418C53.6299 2.68262 53.568 2.37337 53.4443 2.10645C53.3239 1.83952 53.1514 1.61654 52.9268 1.4375C52.6989 1.25846 52.4255 1.12337 52.1064 1.03223C51.7874 0.937826 51.431 0.890625 51.0371 0.890625H48.6543V8H50.0264V5.34375H51.0664ZM50.0264 4.23047V2.00391H51.0371C51.2259 2.00391 51.3936 2.02669 51.54 2.07227C51.6865 2.11784 51.8102 2.18294 51.9111 2.26758C52.0251 2.36198 52.1097 2.48242 52.165 2.62891C52.2236 2.77214 52.2529 2.93815 52.2529 3.12695C52.2529 3.2832 52.2301 3.4248 52.1846 3.55176C52.1423 3.67871 52.0788 3.78776 51.9941 3.87891C51.8932 3.99284 51.7614 4.08073 51.5986 4.14258C51.4391 4.20117 51.2536 4.23047 51.042 4.23047H50.0264Z"/>
</svg>
