<svg width="32" height="32" viewBox="0 0 32 32" xmlns="http://www.w3.org/2000/svg">
<g>
<g clip-path="url(#clip0_9220_25108)">
<path d="M15.8092 15.921C15.6911 15.9216 15.5752 15.8887 15.4753 15.8262L7.41365 11.7024C7.29625 11.6393 7.19756 11.5467 7.12744 11.4338L7.09564 11.3864C7.04817 11.2999 7.02069 11.204 7.01519 11.1056C7.00969 11.0072 7.02631 10.9088 7.06384 10.8176C7.13125 10.6539 7.25531 10.5194 7.41365 10.4384L15.4117 6.37787C15.5937 6.28499 15.7954 6.23655 16 6.23655C16.2046 6.23655 16.4063 6.28499 16.5883 6.37787L24.5863 10.4384C24.7161 10.5048 24.8217 10.6097 24.8884 10.7386C24.8884 10.7544 24.9043 10.7544 24.9043 10.7702C24.9826 10.9364 24.9932 11.1261 24.9339 11.2999C24.8746 11.4736 24.7501 11.6178 24.5863 11.7024L16.1431 15.8262C16.0431 15.8887 15.9273 15.9216 15.8092 15.921ZM8.43129 11.0704L15.8092 14.8466L23.5528 11.0546L16.1272 7.29426C16.0454 7.26253 15.9546 7.26253 15.8728 7.29426L8.43129 11.0704Z"/>
<path d="M15.9046 20.8348H15.7297C15.6458 20.8364 15.5631 20.8145 15.4912 20.7716L7.1911 16.5056C7.11985 16.4812 7.05472 16.4419 7.00014 16.3903C6.94555 16.3387 6.9028 16.276 6.87478 16.2065C6.84676 16.1369 6.83414 16.0623 6.83777 15.9875C6.8414 15.9127 6.86119 15.8395 6.89581 15.773C6.93043 15.7065 6.97906 15.6482 7.03839 15.6021C7.09772 15.5559 7.16636 15.523 7.23963 15.5055C7.31291 15.4881 7.38911 15.4865 7.46305 15.501C7.53699 15.5154 7.60693 15.5455 7.66812 15.5892L15.8092 19.792L24.3479 15.605C24.4101 15.5675 24.4796 15.5432 24.5518 15.5338C24.624 15.5244 24.6973 15.53 24.7672 15.5503C24.8371 15.5706 24.902 15.6051 24.9577 15.6517C25.0135 15.6983 25.0588 15.7558 25.0909 15.8208C25.1231 15.8857 25.1412 15.9566 25.1443 16.0289C25.1474 16.1012 25.1352 16.1733 25.1087 16.2407C25.0822 16.3081 25.0419 16.3692 24.9903 16.4203C24.9387 16.4713 24.8769 16.5111 24.809 16.5372L16.1273 20.7874C16.0571 20.8182 15.9813 20.8344 15.9046 20.8348Z"/>
<path d="M15.9047 25.7643H15.7298C15.6459 25.766 15.5632 25.7441 15.4913 25.7011L7.19114 21.4351C7.08886 21.3621 7.01644 21.2549 6.9871 21.1332C6.95775 21.0115 6.97345 20.8834 7.03131 20.7722C7.08918 20.6611 7.18535 20.5743 7.30227 20.5277C7.41919 20.4812 7.54906 20.478 7.66815 20.5188L15.8093 24.7215L24.3479 20.5346C24.4702 20.4876 24.6058 20.4879 24.728 20.5354C24.8501 20.5828 24.9499 20.674 25.0078 20.791C25.0656 20.9079 25.0773 21.0421 25.0405 21.1672C25.0037 21.2923 24.9211 21.3992 24.809 21.4667L16.1273 25.7327L15.9047 25.7643Z"/>
</g>
</g>
<defs>
<clipPath>
<rect width="18.2857" height="19.5918" transform="translate(6.85718 6.20408)"/>
</clipPath>
</defs>
</svg>
