<svg width="30" height="9" viewBox="0 0 30 9" xmlns="http://www.w3.org/2000/svg">
<path d="M4.31934 6.14453C4.31934 6.27148 4.29329 6.38867 4.24121 6.49609C4.18913 6.60026 4.11426 6.68978 4.0166 6.76465C3.91895 6.83952 3.7985 6.89811 3.65527 6.94043C3.5153 6.98275 3.35417 7.00391 3.17188 7.00391C2.9668 7.00391 2.77799 6.98112 2.60547 6.93555C2.4362 6.88997 2.29134 6.81836 2.1709 6.7207C2.0472 6.62305 1.95117 6.49772 1.88281 6.34473C1.81445 6.19173 1.77702 6.00781 1.77051 5.79297H0.422852C0.422852 6.16081 0.492839 6.48145 0.632812 6.75488C0.776042 7.02832 0.969727 7.26595 1.21387 7.46777C1.47103 7.67285 1.77214 7.8291 2.11719 7.93652C2.46549 8.04069 2.81706 8.09277 3.17188 8.09277C3.5332 8.09277 3.86686 8.05046 4.17285 7.96582C4.47884 7.87793 4.74251 7.74935 4.96387 7.58008C5.18522 7.41406 5.35775 7.21061 5.48145 6.96973C5.6084 6.72559 5.67188 6.44727 5.67188 6.13477C5.67188 5.77344 5.58887 5.45443 5.42285 5.17773C5.25684 4.90104 5.03385 4.65853 4.75391 4.4502C4.56836 4.32324 4.36491 4.21094 4.14355 4.11328C3.9222 4.01562 3.68945 3.93262 3.44531 3.86426C3.21745 3.80241 3.01237 3.73568 2.83008 3.66406C2.65104 3.59245 2.49805 3.5127 2.37109 3.4248C2.24414 3.34017 2.14648 3.24414 2.07812 3.13672C2.01302 3.0293 1.98047 2.90885 1.98047 2.77539C1.98047 2.64844 2.00488 2.53125 2.05371 2.42383C2.10579 2.31315 2.18066 2.21712 2.27832 2.13574C2.37598 2.05762 2.49479 1.9974 2.63477 1.95508C2.77799 1.90951 2.94076 1.88672 3.12305 1.88672C3.32161 1.88672 3.49414 1.91439 3.64062 1.96973C3.79036 2.02181 3.91569 2.09505 4.0166 2.18945C4.11426 2.28711 4.1875 2.40267 4.23633 2.53613C4.28841 2.6696 4.31771 2.81608 4.32422 2.97559H5.66211C5.66211 2.65658 5.60026 2.36361 5.47656 2.09668C5.35286 1.82975 5.18034 1.59863 4.95898 1.40332C4.73763 1.21126 4.47233 1.06152 4.16309 0.954102C3.8571 0.84668 3.51855 0.792969 3.14746 0.792969C2.78939 0.792969 2.45736 0.840169 2.15137 0.93457C1.84538 1.02572 1.58008 1.15755 1.35547 1.33008C1.13086 1.5026 0.955078 1.71094 0.828125 1.95508C0.701172 2.19922 0.637695 2.47103 0.637695 2.77051C0.637695 3.03092 0.684896 3.27181 0.779297 3.49316C0.876953 3.71452 1.02018 3.91634 1.20898 4.09863C1.39779 4.28092 1.6403 4.44857 1.93652 4.60156C2.236 4.75456 2.58268 4.88477 2.97656 4.99219C3.23047 5.06055 3.44206 5.13542 3.61133 5.2168C3.78385 5.29492 3.92383 5.38118 4.03125 5.47559C4.13542 5.57324 4.20866 5.67741 4.25098 5.78809C4.29655 5.89876 4.31934 6.01758 4.31934 6.14453ZM13.8584 2.00879V0.890625H8.12598V2.00879H10.2891V8H11.666V2.00879H13.8584ZM20.1357 6.51562L20.5508 8H21.9961L19.7109 0.890625H18.4658L16.1367 8H17.582L18.002 6.51562H20.1357ZM18.3389 5.34863L19.0859 2.73145L19.8135 5.34863H18.3389ZM27.0576 5.34375L28.3955 8H29.8652V7.93652L28.3369 5.00195C28.5322 4.91406 28.708 4.8099 28.8643 4.68945C29.0238 4.56901 29.1605 4.42741 29.2744 4.26465C29.3851 4.10514 29.4697 3.92448 29.5283 3.72266C29.5902 3.51758 29.6211 3.28809 29.6211 3.03418C29.6211 2.68262 29.5592 2.37337 29.4355 2.10645C29.3151 1.83952 29.1426 1.61654 28.918 1.4375C28.6901 1.25846 28.4167 1.12337 28.0977 1.03223C27.7786 0.937826 27.4222 0.890625 27.0283 0.890625H24.6455V8H26.0176V5.34375H27.0576ZM26.0176 4.23047V2.00391H27.0283C27.2171 2.00391 27.3848 2.02669 27.5312 2.07227C27.6777 2.11784 27.8014 2.18294 27.9023 2.26758C28.0163 2.36198 28.1009 2.48242 28.1562 2.62891C28.2148 2.77214 28.2441 2.93815 28.2441 3.12695C28.2441 3.2832 28.2214 3.4248 28.1758 3.55176C28.1335 3.67871 28.07 3.78776 27.9854 3.87891C27.8844 3.99284 27.7526 4.08073 27.5898 4.14258C27.4303 4.20117 27.2448 4.23047 27.0332 4.23047H26.0176Z"/>
</svg>
