<svg width="78" height="9" viewBox="0 0 78 9" xmlns="http://www.w3.org/2000/svg">
<path d="M4.30176 6.14453C4.30176 6.27148 4.27572 6.38867 4.22363 6.49609C4.17155 6.60026 4.09668 6.68978 3.99902 6.76465C3.90137 6.83952 3.78092 6.89811 3.6377 6.94043C3.49772 6.98275 3.33659 7.00391 3.1543 7.00391C2.94922 7.00391 2.76042 6.98112 2.58789 6.93555C2.41862 6.88997 2.27376 6.81836 2.15332 6.7207C2.02962 6.62305 1.93359 6.49772 1.86523 6.34473C1.79688 6.19173 1.75944 6.00781 1.75293 5.79297H0.405273C0.405273 6.16081 0.47526 6.48145 0.615234 6.75488C0.758464 7.02832 0.952148 7.26595 1.19629 7.46777C1.45345 7.67285 1.75456 7.8291 2.09961 7.93652C2.44792 8.04069 2.79948 8.09277 3.1543 8.09277C3.51562 8.09277 3.84928 8.05046 4.15527 7.96582C4.46126 7.87793 4.72493 7.74935 4.94629 7.58008C5.16764 7.41406 5.34017 7.21061 5.46387 6.96973C5.59082 6.72559 5.6543 6.44727 5.6543 6.13477C5.6543 5.77344 5.57129 5.45443 5.40527 5.17773C5.23926 4.90104 5.01628 4.65853 4.73633 4.4502C4.55078 4.32324 4.34733 4.21094 4.12598 4.11328C3.90462 4.01562 3.67188 3.93262 3.42773 3.86426C3.19987 3.80241 2.99479 3.73568 2.8125 3.66406C2.63346 3.59245 2.48047 3.5127 2.35352 3.4248C2.22656 3.34017 2.12891 3.24414 2.06055 3.13672C1.99544 3.0293 1.96289 2.90885 1.96289 2.77539C1.96289 2.64844 1.9873 2.53125 2.03613 2.42383C2.08822 2.31315 2.16309 2.21712 2.26074 2.13574C2.3584 2.05762 2.47721 1.9974 2.61719 1.95508C2.76042 1.90951 2.92318 1.88672 3.10547 1.88672C3.30404 1.88672 3.47656 1.91439 3.62305 1.96973C3.77279 2.02181 3.89811 2.09505 3.99902 2.18945C4.09668 2.28711 4.16992 2.40267 4.21875 2.53613C4.27083 2.6696 4.30013 2.81608 4.30664 2.97559H5.64453C5.64453 2.65658 5.58268 2.36361 5.45898 2.09668C5.33529 1.82975 5.16276 1.59863 4.94141 1.40332C4.72005 1.21126 4.45475 1.06152 4.14551 0.954102C3.83952 0.84668 3.50098 0.792969 3.12988 0.792969C2.77181 0.792969 2.43978 0.840169 2.13379 0.93457C1.8278 1.02572 1.5625 1.15755 1.33789 1.33008C1.11328 1.5026 0.9375 1.71094 0.810547 1.95508C0.683594 2.19922 0.620117 2.47103 0.620117 2.77051C0.620117 3.03092 0.667318 3.27181 0.761719 3.49316C0.859375 3.71452 1.0026 3.91634 1.19141 4.09863C1.38021 4.28092 1.62272 4.44857 1.91895 4.60156C2.21842 4.75456 2.5651 4.88477 2.95898 4.99219C3.21289 5.06055 3.42448 5.13542 3.59375 5.2168C3.76628 5.29492 3.90625 5.38118 4.01367 5.47559C4.11784 5.57324 4.19108 5.67741 4.2334 5.78809C4.27897 5.89876 4.30176 6.01758 4.30176 6.14453ZM13.8408 2.00879V0.890625H8.1084V2.00879H10.2715V8H11.6484V2.00879H13.8408ZM20.1182 6.51562L20.5332 8H21.9785L19.6934 0.890625H18.4482L16.1191 8H17.5645L17.9844 6.51562H20.1182ZM18.3213 5.34863L19.0684 2.73145L19.7959 5.34863H18.3213ZM27.04 5.34375L28.3779 8H29.8477V7.93652L28.3193 5.00195C28.5146 4.91406 28.6904 4.8099 28.8467 4.68945C29.0062 4.56901 29.1429 4.42741 29.2568 4.26465C29.3675 4.10514 29.4521 3.92448 29.5107 3.72266C29.5726 3.51758 29.6035 3.28809 29.6035 3.03418C29.6035 2.68262 29.5417 2.37337 29.418 2.10645C29.2975 1.83952 29.125 1.61654 28.9004 1.4375C28.6725 1.25846 28.3991 1.12337 28.0801 1.03223C27.7611 0.937826 27.4046 0.890625 27.0107 0.890625H24.6279V8H26V5.34375H27.04ZM26 4.23047V2.00391H27.0107C27.1995 2.00391 27.3672 2.02669 27.5137 2.07227C27.6602 2.11784 27.7839 2.18294 27.8848 2.26758C27.9987 2.36198 28.0833 2.48242 28.1387 2.62891C28.1973 2.77214 28.2266 2.93815 28.2266 3.12695C28.2266 3.2832 28.2038 3.4248 28.1582 3.55176C28.1159 3.67871 28.0524 3.78776 27.9678 3.87891C27.8669 3.99284 27.735 4.08073 27.5723 4.14258C27.4128 4.20117 27.2272 4.23047 27.0156 4.23047H26ZM37.8584 2.00879V0.890625H32.126V2.00879H34.2891V8H35.666V2.00879H37.8584ZM45.4443 5.41211V4.31348H41.377V5.41211H45.4443ZM48.6162 8H50.5254C50.8411 8 51.1374 7.96094 51.4141 7.88281C51.694 7.80469 51.9495 7.69238 52.1807 7.5459C52.3792 7.4222 52.5615 7.26921 52.7275 7.08691C52.8936 6.90137 53.0384 6.69954 53.1621 6.48145C53.2923 6.2373 53.3932 5.96875 53.4648 5.67578C53.5365 5.38281 53.5723 5.07194 53.5723 4.74316V4.15723C53.5723 3.81543 53.5332 3.49316 53.4551 3.19043C53.3802 2.8877 53.2728 2.611 53.1328 2.36035C53.0124 2.15527 52.8708 1.96647 52.708 1.79395C52.5485 1.61816 52.3662 1.47005 52.1611 1.34961C51.9268 1.20312 51.6663 1.09082 51.3799 1.0127C51.0934 0.931315 50.7858 0.890625 50.457 0.890625H48.6162V8ZM49.998 2.00391H50.457C50.623 2.00391 50.776 2.02344 50.916 2.0625C51.0592 2.09831 51.1895 2.15039 51.3066 2.21875C51.4596 2.3099 51.5931 2.42708 51.707 2.57031C51.8242 2.71354 51.9186 2.8763 51.9902 3.05859C52.0488 3.21159 52.0928 3.38086 52.1221 3.56641C52.1546 3.7487 52.1709 3.94238 52.1709 4.14746V4.74316C52.1709 4.96126 52.1546 5.16471 52.1221 5.35352C52.0928 5.53906 52.0488 5.70833 51.9902 5.86133C51.9186 6.03711 51.8324 6.19173 51.7314 6.3252C51.6338 6.4554 51.5231 6.56283 51.3994 6.64746C51.279 6.72884 51.1455 6.79069 50.999 6.83301C50.8525 6.87533 50.6947 6.89648 50.5254 6.89648H49.998V2.00391ZM60.1475 6.51562L60.5625 8H62.0078L59.7227 0.890625H58.4775L56.1484 8H57.5938L58.0137 6.51562H60.1475ZM58.3506 5.34863L59.0977 2.73145L59.8252 5.34863H58.3506ZM69.8818 2.00879V0.890625H64.1494V2.00879H66.3125V8H67.6895V2.00879H69.8818ZM77.0381 4.88477V3.80078H74.1182V2.00879H77.5166V0.890625H72.7412V8H77.5312V6.8916H74.1182V4.88477H77.0381Z"/>
</svg>
