<svg width="32" height="32" viewBox="0 0 32 32" xmlns="http://www.w3.org/2000/svg">
<g>
<g>
<path d="M26.2765 26.5074H5.84083C5.69378 26.5074 5.55275 26.4502 5.44877 26.3483C5.34479 26.2465 5.28638 26.1083 5.28638 25.9643V5.94569C5.28638 5.80164 5.34479 5.66349 5.44877 5.56163C5.55275 5.45977 5.69378 5.40255 5.84083 5.40255H26.2765C26.4235 5.40255 26.5646 5.45977 26.6685 5.56163C26.7725 5.66349 26.8309 5.80164 26.8309 5.94569V25.9643C26.8309 26.1083 26.7725 26.2465 26.6685 26.3483C26.5646 26.4502 26.4235 26.5074 26.2765 26.5074ZM6.39846 25.4211H25.7252V6.48883H6.39846V25.4211Z"/>
</g>
</g>
</svg>
