<svg width="130" height="19" viewBox="0 0 130 19" xmlns="http://www.w3.org/2000/svg">
<path id="Style Name" d="M9.39453 13.5469C9.39453 13.8516 9.33203 14.1328 9.20703 14.3906C9.08203 14.6406 8.90234 14.8555 8.66797 15.0352C8.43359 15.2148 8.14453 15.3555 7.80078 15.457C7.46484 15.5586 7.07812 15.6094 6.64062 15.6094C6.14844 15.6094 5.69531 15.5547 5.28125 15.4453C4.875 15.3359 4.52734 15.1641 4.23828 14.9297C3.94141 14.6953 3.71094 14.3945 3.54688 14.0273C3.38281 13.6602 3.29297 13.2188 3.27734 12.7031H0.0429688C0.0429688 13.5859 0.210938 14.3555 0.546875 15.0117C0.890625 15.668 1.35547 16.2383 1.94141 16.7227C2.55859 17.2148 3.28125 17.5898 4.10938 17.8477C4.94531 18.0977 5.78906 18.2227 6.64062 18.2227C7.50781 18.2227 8.30859 18.1211 9.04297 17.918C9.77734 17.707 10.4102 17.3984 10.9414 16.9922C11.4727 16.5938 11.8867 16.1055 12.1836 15.5273C12.4883 14.9414 12.6406 14.2734 12.6406 13.5234C12.6406 12.6562 12.4414 11.8906 12.043 11.2266C11.6445 10.5625 11.1094 9.98047 10.4375 9.48047C9.99219 9.17578 9.50391 8.90625 8.97266 8.67188C8.44141 8.4375 7.88281 8.23828 7.29688 8.07422C6.75 7.92578 6.25781 7.76562 5.82031 7.59375C5.39062 7.42188 5.02344 7.23047 4.71875 7.01953C4.41406 6.81641 4.17969 6.58594 4.01562 6.32812C3.85938 6.07031 3.78125 5.78125 3.78125 5.46094C3.78125 5.15625 3.83984 4.875 3.95703 4.61719C4.08203 4.35156 4.26172 4.12109 4.49609 3.92578C4.73047 3.73828 5.01562 3.59375 5.35156 3.49219C5.69531 3.38281 6.08594 3.32812 6.52344 3.32812C7 3.32812 7.41406 3.39453 7.76562 3.52734C8.125 3.65234 8.42578 3.82812 8.66797 4.05469C8.90234 4.28906 9.07812 4.56641 9.19531 4.88672C9.32031 5.20703 9.39062 5.55859 9.40625 5.94141H12.6172C12.6172 5.17578 12.4688 4.47266 12.1719 3.83203C11.875 3.19141 11.4609 2.63672 10.9297 2.16797C10.3984 1.70703 9.76172 1.34766 9.01953 1.08984C8.28516 0.832031 7.47266 0.703125 6.58203 0.703125C5.72266 0.703125 4.92578 0.816406 4.19141 1.04297C3.45703 1.26172 2.82031 1.57812 2.28125 1.99219C1.74219 2.40625 1.32031 2.90625 1.01562 3.49219C0.710938 4.07812 0.558594 4.73047 0.558594 5.44922C0.558594 6.07422 0.671875 6.65234 0.898438 7.18359C1.13281 7.71484 1.47656 8.19922 1.92969 8.63672C2.38281 9.07422 2.96484 9.47656 3.67578 9.84375C4.39453 10.2109 5.22656 10.5234 6.17188 10.7812C6.78125 10.9453 7.28906 11.125 7.69531 11.3203C8.10938 11.5078 8.44531 11.7148 8.70312 11.9414C8.95312 12.1758 9.12891 12.4258 9.23047 12.6914C9.33984 12.957 9.39453 13.2422 9.39453 13.5469ZM23.4531 11.7422H25.9961C26.9258 11.7422 27.7656 11.6094 28.5156 11.3438C29.2656 11.0781 29.9062 10.707 30.4375 10.2305C30.9609 9.76172 31.3633 9.20312 31.6445 8.55469C31.9336 7.90625 32.0781 7.19922 32.0781 6.43359C32.0781 5.61328 31.9336 4.86719 31.6445 4.19531C31.3633 3.52344 30.9609 2.94531 30.4375 2.46094C29.9062 1.98438 29.2656 1.61328 28.5156 1.34766C27.7656 1.07422 26.9258 0.9375 25.9961 0.9375H20.1602V18H23.4531V11.7422ZM23.4531 9.07031V3.60938H25.9961C26.4648 3.60938 26.8711 3.68359 27.2148 3.83203C27.5586 3.98047 27.8477 4.18359 28.082 4.44141C28.3086 4.69922 28.4766 5 28.5859 5.34375C28.7031 5.6875 28.7617 6.05859 28.7617 6.45703C28.7617 6.80078 28.7031 7.13281 28.5859 7.45312C28.4766 7.76562 28.3086 8.04297 28.082 8.28516C27.8477 8.52734 27.5586 8.71875 27.2148 8.85938C26.8711 9 26.4648 9.07031 25.9961 9.07031H23.4531ZM40.0898 0.9375V3.59766H43.3359V15.3516H40.0898V18H49.957V15.3516H46.6289V3.59766H49.957V0.9375H40.0898ZM70.0273 18V0.9375H66.7227L66.7109 11.8945L62 0.9375H58.6836V18H62V6.99609L66.7461 18H70.0273ZM89.4414 18V0.9375H86.1367L86.125 11.8945L81.4141 0.9375H78.0977V18H81.4141V6.99609L86.1602 18H89.4414ZM108.105 10.5234V7.92188H101.098V3.62109H109.254V0.9375H97.793V18H109.289V15.3398H101.098V10.5234H108.105ZM122.809 11.625L126.02 18H129.547V17.8477L125.879 10.8047C126.348 10.5938 126.77 10.3438 127.145 10.0547C127.527 9.76562 127.855 9.42578 128.129 9.03516C128.395 8.65234 128.598 8.21875 128.738 7.73438C128.887 7.24219 128.961 6.69141 128.961 6.08203C128.961 5.23828 128.812 4.49609 128.516 3.85547C128.227 3.21484 127.812 2.67969 127.273 2.25C126.727 1.82031 126.07 1.49609 125.305 1.27734C124.539 1.05078 123.684 0.9375 122.738 0.9375H117.02V18H120.312V11.625H122.809ZM120.312 8.95312V3.60938H122.738C123.191 3.60938 123.594 3.66406 123.945 3.77344C124.297 3.88281 124.594 4.03906 124.836 4.24219C125.109 4.46875 125.312 4.75781 125.445 5.10938C125.586 5.45312 125.656 5.85156 125.656 6.30469C125.656 6.67969 125.602 7.01953 125.492 7.32422C125.391 7.62891 125.238 7.89062 125.035 8.10938C124.793 8.38281 124.477 8.59375 124.086 8.74219C123.703 8.88281 123.258 8.95312 122.75 8.95312H120.312Z"/>
</svg>
