<svg width="32" height="32" viewBox="0 0 32 32" xmlns="http://www.w3.org/2000/svg">
<g>
<g>
<path d="M25.8914 15.4817V14.203C25.8905 13.7124 25.6952 13.2421 25.3481 12.8954C25.0011 12.5486 24.5306 12.3536 24.04 12.3532C24.0214 12.3517 24.0028 12.3517 23.9842 12.3532C23.9661 12.3517 23.9479 12.3517 23.9298 12.3532H18.6164V8.75762C18.6152 7.79081 18.2305 6.86395 17.5469 6.18031C16.8633 5.49667 15.9364 5.11206 14.9696 5.11082H14.6173L10.4786 14.4218H7.72876C7.0358 14.4222 6.37134 14.6977 5.88134 15.1877C5.39135 15.6777 5.11589 16.3421 5.11548 17.0351V24.2759C5.1163 24.9687 5.39189 25.633 5.8818 26.1229C6.3717 26.6128 7.03593 26.8884 7.72876 26.8892H23.7281C23.762 26.8887 23.7958 26.8851 23.829 26.8783C23.8622 26.8852 23.896 26.8888 23.9298 26.8892C24.3009 26.8888 24.6567 26.7418 24.9197 26.4801C25.1828 26.2185 25.3318 25.8635 25.3343 25.4925V24.6499C25.3338 24.3898 25.2607 24.1351 25.1232 23.9143C25.301 23.76 25.4435 23.5693 25.5412 23.3551C25.6389 23.1409 25.6895 22.9083 25.6896 22.6729V21.5866C25.6898 21.1918 25.547 20.8104 25.2877 20.5127C25.4572 20.3473 25.5919 20.1496 25.6838 19.9314C25.7758 19.7131 25.8231 19.4786 25.8231 19.2418V18.0298C25.8229 17.5738 25.6473 17.1354 25.3327 16.8054C25.5095 16.6332 25.65 16.4274 25.7459 16.2001C25.8419 15.9727 25.8913 15.7285 25.8914 15.4817ZM10.2893 25.8029H7.72876C7.3239 25.8025 6.93574 25.6415 6.64946 25.3552C6.36318 25.0689 6.20217 24.6808 6.20176 24.2759V17.0351C6.20217 16.6302 6.36318 16.2421 6.64946 15.9558C6.93574 15.6695 7.3239 15.5085 7.72876 15.5081H10.2893V25.8029ZM11.3756 15.0813L15.3125 6.22349C15.9263 6.30711 16.4891 6.61015 16.8968 7.07657C17.3044 7.543 17.5294 8.14126 17.5301 8.76073V13.4395H23.9298C23.9479 13.441 23.9661 13.441 23.9842 13.4395C24.0028 13.441 24.0214 13.441 24.04 13.4395C24.2427 13.4395 24.437 13.5199 24.5805 13.663C24.7239 13.8062 24.8047 14.0004 24.8051 14.203V15.4817C24.8047 15.6843 24.7239 15.8785 24.5805 16.0217C24.437 16.1648 24.2427 16.2452 24.04 16.2452H22.3144C22.1703 16.2452 22.0322 16.3024 21.9303 16.4043C21.8285 16.5061 21.7713 16.6443 21.7713 16.7883C21.7713 16.9324 21.8285 17.0705 21.9303 17.1724C22.0322 17.2743 22.1703 17.3315 22.3144 17.3315H24.04C24.2247 17.3319 24.4017 17.4054 24.5323 17.536C24.6628 17.6666 24.7364 17.8436 24.7368 18.0282V19.2402C24.7364 19.4249 24.6628 19.6019 24.5323 19.7325C24.4017 19.863 24.2247 19.9366 24.04 19.937H22.1483C22.0043 19.937 21.8661 19.9942 21.7643 20.0961C21.6624 20.1979 21.6052 20.3361 21.6052 20.4801C21.6052 20.6242 21.6624 20.7623 21.7643 20.8642C21.8661 20.9661 22.0043 21.0233 22.1483 21.0233H24.04C24.1892 21.0233 24.3322 21.0824 24.4378 21.1877C24.5434 21.293 24.6029 21.4359 24.6033 21.585V22.6713C24.6029 22.8204 24.5434 22.9633 24.4378 23.0686C24.3322 23.1739 24.1892 23.2331 24.04 23.2331C24.0078 23.2338 23.9756 23.2369 23.9438 23.2424H22.2368C22.0928 23.2424 21.9546 23.2996 21.8527 23.4015C21.7509 23.5033 21.6937 23.6415 21.6937 23.7855C21.6937 23.9296 21.7509 24.0677 21.8527 24.1696C21.9546 24.2714 22.0928 24.3287 22.2368 24.3287H23.9298C24.0138 24.3299 24.0941 24.3638 24.1535 24.4232C24.2129 24.4826 24.2468 24.5628 24.248 24.6468V25.4894C24.2448 25.5721 24.21 25.6503 24.1508 25.7081C24.0916 25.7658 24.0125 25.7987 23.9298 25.7998C23.896 25.7997 23.8622 25.8028 23.829 25.8091C23.7957 25.8029 23.762 25.7997 23.7281 25.7998H11.3756V15.0813Z"/>
</g>
</g>
</svg>
