<svg width="32" height="32" viewBox="0 0 32 32" xmlns="http://www.w3.org/2000/svg">
<g>
<g clip-path="url(#clip0_9220_25128)">
<path d="M14.5934 16.3783H16.7992V17.4029H14.5934V16.3783Z"/>
<path d="M21.2267 16.3626H19.0209V17.3872H21.2267V16.3626Z"/>
<path d="M14.5934 18.8847H16.7992V19.9094H14.5934V18.8847Z"/>
<path d="M21.2267 18.8847H19.0209V19.9094H21.2267V18.8847Z"/>
<path d="M14.5934 21.3754H16.7992V22.4H14.5934V21.3754Z"/>
<path d="M9.39856 11.5547H11.6044V12.5793H9.39856V11.5547Z"/>
<path d="M9.39856 14.0611H11.6044V15.0857H9.39856V14.0611Z"/>
<path d="M9.39856 16.5517H11.6044V17.5764H9.39856V16.5517Z"/>
<path d="M9.39856 19.0581H11.6044V20.0828H9.39856V19.0581Z"/>
<path d="M9.39856 21.5488H11.6044V22.5734H9.39856V21.5488Z"/>
<path d="M6.31372 19.0581H8.51952V20.0828H6.31372V19.0581Z"/>
<path d="M6.31372 21.5488H8.51952V22.5734H6.31372V21.5488Z"/>
<path d="M21.2267 21.3596H19.0209V22.3842H21.2267V21.3596Z"/>
<path d="M26.9011 20.2404H23.3686V14.5655C23.3686 14.4317 23.3147 14.3034 23.2188 14.2088C23.1229 14.1142 22.9928 14.0611 22.8571 14.0611H12.979C12.9118 14.0611 12.8453 14.0741 12.7833 14.0995C12.7212 14.1248 12.6648 14.162 12.6173 14.2088C12.5698 14.2557 12.5322 14.3113 12.5065 14.3725C12.4808 14.4337 12.4675 14.4993 12.4675 14.5655V26.4197H5.61038V17.4975H8.0879C8.22356 17.4975 8.35366 17.4444 8.44958 17.3498C8.5455 17.2552 8.59939 17.1269 8.59939 16.9931V10.467L12.4515 8.92216V12.8473H13.4905V8.16551C13.4919 8.08183 13.4722 7.99911 13.4332 7.92481C13.3941 7.85051 13.3369 7.78696 13.2667 7.7399C13.1922 7.69794 13.1095 7.67204 13.0241 7.66389C12.9387 7.65574 12.8525 7.66552 12.7712 7.69261L7.88011 9.64729C7.78605 9.68704 7.70575 9.75291 7.64899 9.83688C7.59223 9.92084 7.56146 10.0193 7.56043 10.1202V16.4571H5.09889C5.03172 16.4571 4.96521 16.4702 4.90315 16.4955C4.8411 16.5209 4.78471 16.558 4.73721 16.6049C4.64129 16.6995 4.5874 16.8278 4.5874 16.9616V26.9084C4.5874 27.0422 4.64129 27.1705 4.73721 27.2651C4.78471 27.3119 4.8411 27.3491 4.90315 27.3744C4.96521 27.3998 5.03172 27.4128 5.09889 27.4128H26.9011C27.0367 27.4128 27.1668 27.3597 27.2628 27.2651C27.3587 27.1705 27.4126 27.0422 27.4126 26.9084V20.7291C27.4126 20.6635 27.3993 20.5987 27.3734 20.5383C27.3475 20.478 27.3096 20.4234 27.2618 20.3778C27.2141 20.3322 27.1576 20.2966 27.0956 20.273C27.0336 20.2494 26.9675 20.2383 26.9011 20.2404ZM26.3896 21.265V26.4197H23.3686V21.265H26.3896ZM22.3456 20.7448V26.4197H13.4905V15.0857H22.3456V20.7448Z"/>
<path d="M21.035 13.0365H22.074V10.3567C22.074 10.2229 22.0201 10.0946 21.9241 9.99996C21.8282 9.90536 21.6981 9.85222 21.5625 9.85222H13.8901V10.8768H21.035V13.0365Z"/>
<path d="M21.4665 6.11655L25.5264 9.11162V19.4525H26.5654V8.85941C26.566 8.77976 26.5475 8.7011 26.5114 8.62987C26.4753 8.55863 26.4226 8.49684 26.3576 8.44955L21.2587 4.69783C21.1844 4.63585 21.0932 4.59682 20.9966 4.58561C20.8999 4.57439 20.8021 4.59149 20.7152 4.63477C20.6284 4.67643 20.5553 4.74146 20.5044 4.82236C20.4535 4.90325 20.4268 4.99671 20.4275 5.09192V8.93822H21.4665V6.11655Z"/>
<path d="M14.5934 23.7084H16.7992V24.733H14.5934V23.7084Z"/>
<path d="M9.39856 23.8818H11.6044V24.9064H9.39856V23.8818Z"/>
<path d="M6.31372 23.8818H8.51952V24.9064H6.31372V23.8818Z"/>
<path d="M21.2267 23.6926H19.0209V24.7172H21.2267V23.6926Z"/>
<path d="M23.7682 21.9744H25.974V22.999H23.7682V21.9744Z"/>
<path d="M18.0139 11.5547H20.2197V12.5793H18.0139V11.5547Z"/>
</g>
</g>
<defs>
<clipPath>
<rect width="22.8571" height="22.8571" transform="translate(4.57141 4.57143)"/>
</clipPath>
</defs>
</svg>
