<svg width="32" height="32" viewBox="0 0 32 32" xmlns="http://www.w3.org/2000/svg">
<g>
<g>
<path d="M20.9869 20.2139H15.4424C15.2008 20.2164 14.968 20.1232 14.7949 19.9546C14.6218 19.7859 14.5226 19.5557 14.5188 19.3141V16.621H20.9853C21.3454 16.6297 21.7036 16.5663 22.0389 16.4345C22.3741 16.3028 22.6796 16.1053 22.9374 15.8537C23.1951 15.6021 23.4 15.3015 23.5398 14.9695C23.6797 14.6376 23.7517 14.281 23.7517 13.9208C23.7517 13.5606 23.6797 13.204 23.5398 12.8721C23.4 12.5401 23.1951 12.2395 22.9374 11.9879C22.6796 11.7363 22.3741 11.5388 22.0389 11.407C21.7036 11.2753 21.3454 11.2119 20.9853 11.2206H14.5204V8.51169C14.5204 7.77643 14.2283 7.07129 13.7084 6.55139C13.1885 6.03149 12.4834 5.73941 11.7481 5.73941C11.0129 5.73941 10.3077 6.03149 9.78781 6.55139C9.26791 7.07129 8.97583 7.77643 8.97583 8.51169V19.3141C8.97583 22.7881 11.8764 25.6143 15.4408 25.6143H20.9853C21.3454 25.623 21.7036 25.5596 22.0389 25.4278C22.3741 25.296 22.6796 25.0985 22.9374 24.8469C23.1951 24.5953 23.4 24.2947 23.5398 23.9628C23.6797 23.6308 23.7517 23.2743 23.7517 22.9141C23.7517 22.5539 23.6797 22.1973 23.5398 21.8653C23.4 21.5334 23.1951 21.2328 22.9374 20.9812C22.6796 20.7296 22.3741 20.5321 22.0389 20.4003C21.7036 20.2685 21.3454 20.2051 20.9853 20.2139H20.9869ZM20.9869 24.5053H15.4424C12.4895 24.5053 10.0863 22.1766 10.0863 19.3141V8.51169C10.0863 8.07053 10.2616 7.64745 10.5735 7.33551C10.8855 7.02357 11.3085 6.84832 11.7497 6.84832C12.1908 6.84832 12.6139 7.02357 12.9259 7.33551C13.2378 7.64745 13.4131 8.07053 13.4131 8.51169V11.2127C13.4131 11.5068 13.5299 11.7888 13.7379 11.9968C13.9458 12.2048 14.2279 12.3216 14.522 12.3216H20.9885C21.2017 12.3149 21.4141 12.351 21.613 12.428C21.812 12.5049 21.9934 12.6211 22.1466 12.7695C22.2998 12.9179 22.4216 13.0956 22.5048 13.292C22.5879 13.4884 22.6308 13.6996 22.6308 13.9129C22.6308 14.1262 22.5879 14.3373 22.5048 14.5337C22.4216 14.7301 22.2998 14.9078 22.1466 15.0563C21.9934 15.2047 21.812 15.3208 21.613 15.3978C21.4141 15.4747 21.2017 15.5109 20.9885 15.5042H14.5204C14.2263 15.5042 13.9442 15.621 13.7363 15.829C13.5283 16.0369 13.4115 16.319 13.4115 16.6131V19.3061C13.4123 19.5721 13.4656 19.8352 13.5682 20.0806C13.6708 20.3259 13.8208 20.5486 14.0096 20.7359C14.1984 20.9232 14.4222 21.0714 14.6683 21.1721C14.9145 21.2728 15.178 21.324 15.4439 21.3228H20.9885C21.2017 21.316 21.4141 21.3522 21.613 21.4292C21.812 21.5061 21.9934 21.6222 22.1466 21.7707C22.2998 21.9191 22.4216 22.0968 22.5048 22.2932C22.5879 22.4896 22.6308 22.7008 22.6308 22.9141C22.6308 23.1274 22.5879 23.3385 22.5048 23.5349C22.4216 23.7313 22.2998 23.909 22.1466 24.0574C21.9934 24.2059 21.812 24.322 21.613 24.3989C21.4141 24.4759 21.2017 24.5121 20.9885 24.5053H20.9869Z"/>
</g>
</g>
</svg>
