<svg width="32" height="32" viewBox="0 0 32 32" xmlns="http://www.w3.org/2000/svg">
<g>
<g clip-path="url(#clip0_9220_25138)">
<path d="M25.5871 12.9475H15.1761V10.8439C15.213 10.1734 15.1125 9.50236 14.8806 8.87196C14.6487 8.24156 14.2904 7.66503 13.8275 7.17767C13.3646 6.69031 12.8069 6.30238 12.1886 6.03763C11.5703 5.77288 10.9043 5.63688 10.2315 5.63796C9.55872 5.63904 8.8932 5.77717 8.27573 6.0439C7.65827 6.31063 7.10184 6.70035 6.64052 7.18919C6.17921 7.67802 5.82271 8.2557 5.59286 8.88684C5.36301 9.51798 5.26464 10.1893 5.30378 10.8597V12.2199C5.30375 12.2856 5.31696 12.3507 5.34263 12.4113C5.3683 12.4718 5.40591 12.5266 5.45322 12.5723C5.50053 12.6181 5.55657 12.6538 5.61801 12.6775C5.67945 12.7012 5.74503 12.7123 5.81087 12.7102C5.87878 12.7123 5.94642 12.7008 6.00979 12.6763C6.07315 12.6518 6.13094 12.6149 6.17972 12.5677C6.22849 12.5205 6.26727 12.464 6.29374 12.4015C6.32021 12.339 6.33383 12.2719 6.33379 12.2041V10.8439C6.33379 9.80779 6.74617 8.81412 7.48019 8.08148C8.21422 7.34885 9.20977 6.93726 10.2478 6.93726C11.2859 6.93726 12.2815 7.34885 13.0155 8.08148C13.7495 8.81412 14.1619 9.80779 14.1619 10.8439V12.9475H11.3412C11.1963 12.9474 11.0528 12.9762 10.9191 13.032C10.7854 13.0879 10.6642 13.1697 10.5624 13.2727C10.4607 13.3757 10.3805 13.4979 10.3265 13.6321C10.2725 13.7663 10.2457 13.91 10.2478 14.0546V24.9837C10.2457 25.1283 10.2725 25.2719 10.3265 25.4062C10.3805 25.5404 10.4607 25.6626 10.5624 25.7656C10.6642 25.8686 10.7854 25.9504 10.9191 26.0063C11.0528 26.0621 11.1963 26.0908 11.3412 26.0908H25.6029C25.7472 26.0909 25.8899 26.0621 26.0228 26.006C26.1556 25.95 26.2758 25.868 26.3763 25.7647C26.4768 25.6615 26.5555 25.5391 26.6077 25.405C26.66 25.2708 26.6847 25.1276 26.6805 24.9837V14.0546C26.6826 13.91 26.6559 13.7663 26.6019 13.6321C26.5478 13.4979 26.4676 13.3757 26.3659 13.2727C26.2642 13.1697 26.1429 13.0879 26.0092 13.032C25.8755 12.9762 25.732 12.9474 25.5871 12.9475ZM25.6505 24.9837C25.6505 25.047 25.6188 25.0628 25.5871 25.0628H11.3412C11.2937 25.0628 11.2779 25.0153 11.2779 24.9837V14.0546C11.2779 13.9755 11.2937 13.9755 11.3412 13.9755H25.5871C25.6346 13.9755 25.6505 14.023 25.6505 14.0546V24.9837Z"/>
<path d="M20.453 20.2388C20.4586 19.8652 20.3588 19.4976 20.165 19.1779C19.9713 18.8582 19.6914 18.5993 19.3573 18.4307C19.0233 18.2622 18.6484 18.1908 18.2756 18.2246C17.9028 18.2585 17.5471 18.3963 17.249 18.6222C16.9509 18.8482 16.7224 19.1533 16.5897 19.5027C16.457 19.852 16.4253 20.2316 16.4983 20.598C16.5713 20.9645 16.7461 21.303 17.0027 21.5751C17.2592 21.8472 17.5872 22.0418 17.9493 22.1367V23.7816H18.9793V22.1684C19.4035 22.0535 19.7778 21.8021 20.0443 21.4532C20.3107 21.1043 20.4544 20.6775 20.453 20.2388ZM18.4722 21.1878C18.2201 21.1878 17.9782 21.0878 17.7999 20.9098C17.6216 20.7318 17.5214 20.4905 17.5214 20.2388C17.5214 19.9871 17.6216 19.7457 17.7999 19.5677C17.9782 19.3898 18.2201 19.2898 18.4722 19.2898C18.7244 19.2898 18.9662 19.3898 19.1445 19.5677C19.3228 19.7457 19.423 19.9871 19.423 20.2388C19.423 20.4905 19.3228 20.7318 19.1445 20.9098C18.9662 21.0878 18.7244 21.1878 18.4722 21.1878Z"/>
</g>
</g>
<defs>
<clipPath>
<rect width="21.551" height="20.2449" transform="translate(5.22461 5.87755)"/>
</clipPath>
</defs>
</svg>
