<svg width="32" height="32" viewBox="0 0 32 32" xmlns="http://www.w3.org/2000/svg">
<g>
<g clip-path="url(#clip0_9220_25144)">
<path d="M13.7339 21.3798H18.2662V23.1517H13.7339V21.3798Z"/>
<path d="M6.88843 8.84825H11.9834V11.4344H6.88843V8.84825Z"/>
<path d="M20.0322 8.84825H25.1272V11.4344H20.0322V8.84825Z"/>
<path d="M8.98267 12.2485H13.1399V14.8347H8.98267V12.2485Z"/>
<path d="M18.8601 12.2485H23.0174V14.8347H18.8601V12.2485Z"/>
<path d="M10.3579 15.6488H14.2964V17.8039H10.3579V15.6488Z"/>
<path d="M17.7192 15.6488H21.6577V17.8039H17.7192V15.6488Z"/>
<path d="M11.7178 18.618H15.4374V20.5656H11.7178V18.618Z"/>
<path d="M16.5784 18.618H20.298V20.5656H16.5784V18.618Z"/>
</g>
</g>
<defs>
<clipPath>
<rect width="18.2857" height="14.3673" transform="translate(6.85718 8.81633)"/>
</clipPath>
</defs>
</svg>
