<svg width="30" height="8" viewBox="0 0 30 8" xmlns="http://www.w3.org/2000/svg">
<path d="M1.0918 8H2.33203L2.92773 4.16211L2.98145 3.80078L3.03516 4.16211L3.65527 8H4.89551L5.88184 0.890625H4.62207L4.13867 4.875L4.10449 5.17285L4.06055 4.87988L3.46484 0.890625H2.4834L1.92188 4.85059L1.87793 5.14355L1.84375 4.86523L1.37012 0.890625H0.115234L1.0918 8ZM12.1299 6.51562L12.5449 8H13.9902L11.7051 0.890625H10.46L8.13086 8H9.57617L9.99609 6.51562H12.1299ZM10.333 5.34863L11.0801 2.73145L11.8076 5.34863H10.333ZM19.0518 5.34375L20.3896 8H21.8594V7.93652L20.3311 5.00195C20.5264 4.91406 20.7021 4.8099 20.8584 4.68945C21.0179 4.56901 21.1546 4.42741 21.2686 4.26465C21.3792 4.10514 21.4639 3.92448 21.5225 3.72266C21.5843 3.51758 21.6152 3.28809 21.6152 3.03418C21.6152 2.68262 21.5534 2.37337 21.4297 2.10645C21.3092 1.83952 21.1367 1.61654 20.9121 1.4375C20.6842 1.25846 20.4108 1.12337 20.0918 1.03223C19.7728 0.937826 19.4163 0.890625 19.0225 0.890625H16.6396V8H18.0117V5.34375H19.0518ZM18.0117 4.23047V2.00391H19.0225C19.2113 2.00391 19.3789 2.02669 19.5254 2.07227C19.6719 2.11784 19.7956 2.18294 19.8965 2.26758C20.0104 2.36198 20.0951 2.48242 20.1504 2.62891C20.209 2.77214 20.2383 2.93815 20.2383 3.12695C20.2383 3.2832 20.2155 3.4248 20.1699 3.55176C20.1276 3.67871 20.0641 3.78776 19.9795 3.87891C19.8786 3.99284 19.7467 4.08073 19.584 4.14258C19.4245 4.20117 19.2389 4.23047 19.0273 4.23047H18.0117ZM29.0205 4.88477V3.80078H26.1006V2.00879H29.499V0.890625H24.7236V8H29.5137V6.8916H26.1006V4.88477H29.0205Z"/>
</svg>
