<svg width="54" height="9" viewBox="0 0 54 9" xmlns="http://www.w3.org/2000/svg">
<path d="M1.08301 8H2.32324L2.91895 4.16211L2.97266 3.80078L3.02637 4.16211L3.64648 8H4.88672L5.87305 0.890625H4.61328L4.12988 4.875L4.0957 5.17285L4.05176 4.87988L3.45605 0.890625H2.47461L1.91309 4.85059L1.86914 5.14355L1.83496 4.86523L1.36133 0.890625H0.106445L1.08301 8ZM12.1211 6.51562L12.5361 8H13.9814L11.6963 0.890625H10.4512L8.12207 8H9.56738L9.9873 6.51562H12.1211ZM10.3242 5.34863L11.0713 2.73145L11.7988 5.34863H10.3242ZM19.043 5.34375L20.3809 8H21.8506V7.93652L20.3223 5.00195C20.5176 4.91406 20.6934 4.8099 20.8496 4.68945C21.0091 4.56901 21.1458 4.42741 21.2598 4.26465C21.3704 4.10514 21.4551 3.92448 21.5137 3.72266C21.5755 3.51758 21.6064 3.28809 21.6064 3.03418C21.6064 2.68262 21.5446 2.37337 21.4209 2.10645C21.3005 1.83952 21.1279 1.61654 20.9033 1.4375C20.6755 1.25846 20.402 1.12337 20.083 1.03223C19.764 0.937826 19.4076 0.890625 19.0137 0.890625H16.6309V8H18.0029V5.34375H19.043ZM18.0029 4.23047V2.00391H19.0137C19.2025 2.00391 19.3701 2.02669 19.5166 2.07227C19.6631 2.11784 19.7868 2.18294 19.8877 2.26758C20.0016 2.36198 20.0863 2.48242 20.1416 2.62891C20.2002 2.77214 20.2295 2.93815 20.2295 3.12695C20.2295 3.2832 20.2067 3.4248 20.1611 3.55176C20.1188 3.67871 20.0553 3.78776 19.9707 3.87891C19.8698 3.99284 19.738 4.08073 19.5752 4.14258C19.4157 4.20117 19.2301 4.23047 19.0186 4.23047H18.0029ZM29.3242 8V0.890625H27.9473L27.9424 5.45605L25.9795 0.890625H24.5977V8H25.9795V3.41504L27.957 8H29.3242ZM32.9453 0.890625V1.99902H34.2979V6.89648H32.9453V8H37.0566V6.89648H35.6699V1.99902H37.0566V0.890625H32.9453ZM45.3359 8V0.890625H43.959L43.9541 5.45605L41.9912 0.890625H40.6094V8H41.9912V3.41504L43.9688 8H45.3359ZM53.542 7.16992L53.5371 4.36719H50.9932V5.39258H52.1699L52.165 6.68164C52.1292 6.72396 52.0755 6.76465 52.0039 6.80371C51.9355 6.83952 51.8558 6.87207 51.7646 6.90137C51.6735 6.93066 51.5758 6.95345 51.4717 6.96973C51.3675 6.986 51.2617 6.99414 51.1543 6.99414C50.9785 6.99089 50.8206 6.96322 50.6807 6.91113C50.5439 6.85579 50.4235 6.77604 50.3193 6.67188C50.2575 6.61003 50.2005 6.54004 50.1484 6.46191C50.0996 6.38053 50.0557 6.29264 50.0166 6.19824C49.9548 6.03548 49.9059 5.84831 49.8701 5.63672C49.8376 5.42513 49.8213 5.19076 49.8213 4.93359V3.95703C49.8213 3.75195 49.8327 3.56152 49.8555 3.38574C49.8815 3.20996 49.9173 3.05046 49.9629 2.90723C50.0215 2.72168 50.0947 2.56055 50.1826 2.42383C50.2738 2.28711 50.3747 2.17643 50.4854 2.0918C50.57 2.02995 50.6611 1.98275 50.7588 1.9502C50.8564 1.91764 50.9574 1.90137 51.0615 1.90137C51.2536 1.90137 51.418 1.92741 51.5547 1.97949C51.6947 2.02832 51.8102 2.10319 51.9014 2.2041C51.9827 2.29525 52.0462 2.40755 52.0918 2.54102C52.1406 2.67448 52.1764 2.82747 52.1992 3H53.5371C53.5013 2.6582 53.4248 2.35059 53.3076 2.07715C53.1937 1.80371 53.0342 1.57096 52.8291 1.37891C52.624 1.1901 52.3717 1.04525 52.0723 0.944336C51.776 0.843424 51.4277 0.792969 51.0273 0.792969C50.7669 0.792969 50.5195 0.828776 50.2852 0.900391C50.0508 0.972005 49.8343 1.0778 49.6357 1.21777C49.4665 1.34147 49.3102 1.48796 49.167 1.65723C49.027 1.8265 48.9033 2.01693 48.7959 2.22852C48.682 2.46615 48.5941 2.73145 48.5322 3.02441C48.4704 3.31413 48.4395 3.62826 48.4395 3.9668V4.93359C48.4395 5.28841 48.4704 5.61719 48.5322 5.91992C48.5973 6.22266 48.6917 6.49447 48.8154 6.73535C48.9229 6.95345 49.0531 7.14714 49.2061 7.31641C49.3623 7.48568 49.5348 7.62891 49.7236 7.74609C49.9157 7.86003 50.1257 7.94629 50.3535 8.00488C50.5846 8.06673 50.8304 8.09766 51.0908 8.09766C51.3903 8.09766 51.6702 8.06999 51.9307 8.01465C52.1911 7.95931 52.4271 7.88607 52.6387 7.79492C52.847 7.70703 53.0277 7.60775 53.1807 7.49707C53.3337 7.38639 53.4541 7.27734 53.542 7.16992Z"/>
</svg>
