<svg width="32" height="32" viewBox="0 0 32 32" xmlns="http://www.w3.org/2000/svg">
<g>
<g clip-path="url(#clip0_9220_25154)">
<path d="M13.934 15.9204H7.03148C6.96923 15.9226 6.90719 15.9118 6.84924 15.8886C6.79128 15.8654 6.73864 15.8303 6.69459 15.7855C6.65055 15.7407 6.61604 15.6872 6.59321 15.6282C6.57039 15.5693 6.55974 15.5062 6.56193 15.4429V9.71356C6.5641 9.59814 6.60602 9.48715 6.68038 9.39991C6.75473 9.31267 6.85682 9.25471 6.96887 9.23611L13.8714 8.20164C13.9382 8.19165 14.0063 8.19644 14.0711 8.21566C14.136 8.23489 14.1959 8.2681 14.247 8.31305C14.2984 8.35826 14.3391 8.41462 14.3662 8.47797C14.3933 8.54133 14.406 8.61006 14.4035 8.67909V15.4429C14.4057 15.5062 14.3951 15.5693 14.3722 15.6282C14.3494 15.6872 14.3149 15.7407 14.2709 15.7855C14.2268 15.8303 14.1742 15.8654 14.1162 15.8886C14.0582 15.9118 13.9962 15.9226 13.934 15.9204ZM7.50104 14.9655H13.4644V9.23611L7.50104 10.1273V14.9655Z"/>
<path d="M13.934 23.9574H13.887L7.00021 23.1617C6.88531 23.1465 6.77954 23.0901 6.70203 23.0025C6.62451 22.9149 6.58038 22.802 6.57761 22.6843V16.9549C6.57563 16.8921 6.58722 16.8296 6.61156 16.7719C6.6359 16.7141 6.6724 16.6625 6.71848 16.6207C6.76378 16.5749 6.81752 16.5387 6.87661 16.5141C6.9357 16.4896 6.99898 16.4771 7.06282 16.4774L13.9653 16.6047C14.0858 16.6126 14.1991 16.6659 14.2831 16.7542C14.367 16.8425 14.4156 16.9594 14.4192 17.0822V23.48C14.4194 23.5464 14.4055 23.612 14.3785 23.6724C14.3515 23.7329 14.312 23.7866 14.2627 23.8301C14.1705 23.9092 14.0546 23.9541 13.934 23.9574ZM7.50107 22.2545L13.4644 22.9389V17.5437L7.50107 17.4482V22.2545Z"/>
<path d="M24.9685 25.4375H24.8903L15.2957 24.1643C15.1837 24.1486 15.0815 24.0909 15.0091 24.0026C14.9368 23.9143 14.8994 23.8017 14.9044 23.6869V17.0822C14.9024 17.0194 14.914 16.9569 14.9383 16.8992C14.9627 16.8414 14.9992 16.7898 15.0452 16.748C15.1345 16.662 15.2511 16.6112 15.3739 16.6047L24.9685 16.7161C25.0918 16.7201 25.209 16.7717 25.2962 16.8604C25.3834 16.9491 25.4342 17.0682 25.4381 17.1936V24.9601C25.4294 25.0969 25.3741 25.2264 25.2816 25.3261C25.189 25.3912 25.0808 25.4297 24.9685 25.4375ZM15.8435 23.2731L24.499 24.419V17.671L15.8435 17.5755V23.2731Z"/>
<path d="M24.9685 15.9841H15.3739C15.3116 15.9863 15.2496 15.9754 15.1916 15.9522C15.1337 15.929 15.081 15.8939 15.037 15.8492C14.993 15.8044 14.9584 15.7508 14.9356 15.6919C14.9128 15.633 14.9021 15.5699 14.9043 15.5066V8.48812C14.9028 8.37414 14.9414 8.26336 15.0131 8.17579C15.0849 8.08823 15.1851 8.02966 15.2956 8.01067L24.8902 6.56241C24.9595 6.55311 25.0299 6.55819 25.0971 6.57734C25.1644 6.59649 25.2271 6.62931 25.2815 6.67381C25.379 6.77013 25.4353 6.90165 25.438 7.03986V15.5066C25.438 15.6332 25.3886 15.7547 25.3005 15.8442C25.2125 15.9338 25.093 15.9841 24.9685 15.9841ZM15.8434 15.0292H24.4989V7.59688L15.8434 8.90191V15.0292Z"/>
</g>
</g>
<defs>
<clipPath>
<rect width="18.9388" height="18.9388" transform="translate(6.53064 6.53061)"/>
</clipPath>
</defs>
</svg>
