<svg width="32" height="32" viewBox="0 0 32 32" xmlns="http://www.w3.org/2000/svg">
<g>
<g clip-path="url(#clip0_9220_25158)">
<path d="M25.7921 5.68923H18.9392V4.13621C18.9439 4.06487 18.9302 3.99352 18.8995 3.92902C18.8687 3.86452 18.8219 3.80905 18.7635 3.76797C18.709 3.72146 18.645 3.68736 18.5761 3.66801C18.5071 3.64866 18.4348 3.64453 18.3641 3.65589L6.00012 5.59317C5.69115 5.63954 5.40935 5.79639 5.20676 6.03475C5.00416 6.27312 4.89446 6.57691 4.89791 6.89002V25.11C4.89446 25.4231 5.00416 25.7269 5.20676 25.9653C5.40935 26.2036 5.69115 26.3605 6.00012 26.4069L18.3801 28.3441H18.444C18.5591 28.3388 18.6702 28.2998 18.7635 28.2321C18.8184 28.1842 18.8624 28.1252 18.8927 28.0589C18.923 27.9927 18.9389 27.9207 18.9392 27.8478V26.2948H25.7921C26.1395 26.2948 26.4727 26.1565 26.7183 25.9103C26.964 25.664 27.102 25.3301 27.102 24.9819V7.00209C27.102 6.6539 26.964 6.31997 26.7183 6.07376C26.4727 5.82755 26.1395 5.68923 25.7921 5.68923ZM23.8433 22.116C23.8433 21.9844 23.7911 21.8582 23.6982 21.7651C23.6054 21.672 23.4794 21.6197 23.3481 21.6197H18.9392V20.1467H23.3481C23.4131 20.1467 23.4775 20.1339 23.5376 20.109C23.5976 20.084 23.6522 20.0475 23.6982 20.0014C23.7442 19.9553 23.7807 19.9006 23.8056 19.8404C23.8305 19.7801 23.8433 19.7156 23.8433 19.6504C23.8433 19.5852 23.8305 19.5207 23.8056 19.4605C23.7807 19.4003 23.7442 19.3455 23.6982 19.2995C23.6522 19.2534 23.5976 19.2168 23.5376 19.1919C23.4775 19.1669 23.4131 19.1541 23.3481 19.1541H18.9392V17.6811H23.3481C23.4794 17.6811 23.6054 17.6288 23.6982 17.5357C23.7911 17.4427 23.8433 17.3164 23.8433 17.1848C23.8433 17.0532 23.7911 16.9269 23.6982 16.8338C23.6054 16.7408 23.4794 16.6885 23.3481 16.6885H18.9392V15.2155H23.3481C23.4794 15.2155 23.6054 15.1632 23.6982 15.0701C23.7911 14.977 23.8433 14.8508 23.8433 14.7192C23.8433 14.5875 23.7911 14.4613 23.6982 14.3682C23.6054 14.2751 23.4794 14.2228 23.3481 14.2228H18.9392V12.7499H23.3481C23.4794 12.7499 23.6054 12.6976 23.6982 12.6045C23.7911 12.5114 23.8433 12.3852 23.8433 12.2535C23.8433 12.1219 23.7911 11.9957 23.6982 11.9026C23.6054 11.8095 23.4794 11.7572 23.3481 11.7572H18.9392V10.3483H23.3481C23.4794 10.3483 23.6054 10.296 23.6982 10.2029C23.7911 10.1098 23.8433 9.9836 23.8433 9.85197C23.8433 9.72033 23.7911 9.59409 23.6982 9.50101C23.6054 9.40793 23.4794 9.35564 23.3481 9.35564H18.9392V6.66587H25.7921C25.8362 6.66587 25.8798 6.67457 25.9205 6.69147C25.9612 6.70836 25.9982 6.73313 26.0293 6.76435C26.0605 6.79557 26.0852 6.83263 26.102 6.87343C26.1189 6.91422 26.1276 6.95794 26.1276 7.00209V24.9819C26.1276 25.0711 26.0922 25.1566 26.0293 25.2197C25.9664 25.2827 25.8811 25.3181 25.7921 25.3181H18.9392V22.6124H23.3481C23.4794 22.6124 23.6054 22.5601 23.6982 22.467C23.7911 22.3739 23.8433 22.2477 23.8433 22.116ZM17.9648 4.71259V27.2874L6.17584 25.4462C6.09809 25.435 6.02673 25.3969 5.97418 25.3383C5.92164 25.2798 5.89125 25.2047 5.8883 25.126V6.87401C5.88791 6.79435 5.91715 6.7174 5.97031 6.65819C6.02348 6.59898 6.09676 6.56176 6.17584 6.5538L17.9648 4.71259Z"/>
<path d="M8.98732 19.7625C9.00624 19.8643 9.05645 19.9576 9.13093 20.0294C9.2054 20.1012 9.30042 20.1478 9.40265 20.1627C9.50383 20.1814 9.60833 20.1645 9.69853 20.1149C9.78874 20.0653 9.85913 19.9861 9.89785 19.8906L11.8786 15.8879L13.9074 20.2748C13.9469 20.3605 14.0099 20.4331 14.0891 20.4842C14.1684 20.5352 14.2605 20.5626 14.3546 20.563H14.4026C14.5057 20.5504 14.602 20.5046 14.6769 20.4324C14.7519 20.3602 14.8013 20.2656 14.8179 20.1627L16.0479 12.7979C16.0584 12.7348 16.0564 12.6703 16.042 12.608C16.0276 12.5457 16.0011 12.4868 15.964 12.4348C15.9269 12.3828 15.88 12.3386 15.8259 12.3047C15.7717 12.2709 15.7115 12.248 15.6486 12.2375C15.5856 12.227 15.5212 12.229 15.4591 12.2434C15.3969 12.2579 15.3382 12.2844 15.2863 12.3216C15.1814 12.3967 15.1106 12.5104 15.0895 12.6378L14.131 18.4336L12.3738 14.5751C12.3371 14.4906 12.2769 14.4186 12.2004 14.3675C12.124 14.3164 12.0344 14.2884 11.9425 14.2869C11.8489 14.2794 11.7553 14.3017 11.6751 14.3506C11.5948 14.3994 11.5319 14.4724 11.4953 14.559L9.69019 18.1774L8.73174 13.0701C8.7084 12.9406 8.63472 12.8257 8.52688 12.7506C8.41904 12.6756 8.28588 12.6465 8.15667 12.6698C8.09458 12.6819 8.03562 12.7066 7.98342 12.7424C7.93123 12.7782 7.88689 12.8243 7.85316 12.8779C7.8157 12.9306 7.79051 12.9911 7.77945 13.0548C7.76839 13.1185 7.77174 13.1839 7.78926 13.2462L8.98732 19.7625Z"/>
</g>
</g>
<defs>
<clipPath>
<rect width="22.2041" height="24.8163" transform="translate(4.89795 3.59183)"/>
</clipPath>
</defs>
</svg>
