<svg width="32" height="32" viewBox="0 0 32 32" xmlns="http://www.w3.org/2000/svg">
<g>
<g>
<g>
<path d="M11.8623 19.8021C13.5155 20.4491 15.3419 20.5027 17.0303 19.954C18.7186 19.4053 20.1645 18.2882 21.1216 16.793C22.0787 15.2978 22.4877 13.5169 22.279 11.754C22.0703 9.99097 21.2567 8.35489 19.977 7.12447C18.6973 5.89404 17.0305 5.1454 15.2607 5.00609C13.4909 4.86679 11.7275 5.34544 10.271 6.36049C8.81451 7.37554 7.75503 8.86419 7.27307 10.5728C6.7911 12.2814 6.91647 14.1043 7.62782 15.7309C8.03012 16.6553 8.61139 17.491 9.33814 18.1897C10.0649 18.8885 10.9228 19.4365 11.8623 19.8021ZM12.2615 12.2267L16.6971 13.9582C15.7957 15.8718 14.3478 17.3831 12.3835 18.4619C11.669 16.3376 11.6294 14.2465 12.2615 12.2267ZM17.0425 13.0726L12.6068 11.3412C13.5098 9.42749 14.9561 7.92096 16.9205 6.83898C17.6349 8.96175 17.6745 11.0544 17.0425 13.0726ZM13.0488 19.1685C15.0366 18.0674 16.6244 16.3648 17.5842 14.3051L20.7225 15.5249C20.057 16.9216 18.9306 18.0465 17.533 18.7101C16.1354 19.3737 14.5518 19.5356 13.0488 19.1685ZM20.8112 9.94551C21.4659 11.4282 21.5577 13.0986 21.0694 14.6441L17.9312 13.4196C18.6222 11.2536 18.6094 8.92439 17.8947 6.76611C19.1919 7.47557 20.2162 8.5963 20.8064 9.95185L20.8112 9.94551ZM14.6599 5.92967C15.1975 5.93048 15.7331 5.9959 16.2551 6.12452C14.2675 7.22848 12.6808 8.93385 11.7229 10.9958L8.58148 9.76967C9.12836 8.62072 9.98957 7.65022 11.0653 6.97061C12.1411 6.291 13.3874 5.93008 14.6599 5.92967ZM8.23772 10.6552L11.3744 11.8814C10.6818 14.0468 10.6929 16.376 11.406 18.5348C10.0509 17.7876 8.99538 16.5953 8.41807 15.1595C7.84075 13.7237 7.77704 12.1326 8.23772 10.6552Z"/>
<path d="M18.0802 21.8187C19.9241 21.1385 21.5239 19.9252 22.6763 18.3331C23.8287 16.7411 24.4816 14.8423 24.5519 12.8783C24.6222 10.9142 24.1068 8.97357 23.0712 7.30323C22.0355 5.63289 20.5265 4.30831 18.7361 3.49793C18.6022 3.43829 18.4501 3.43409 18.3131 3.48625C18.1761 3.53841 18.0654 3.64269 18.0051 3.77629C17.9448 3.90988 17.9398 4.06192 17.9913 4.19915C18.0428 4.33639 18.1465 4.44766 18.2798 4.50862C19.8696 5.22847 21.2094 6.40484 22.1289 7.88815C23.0483 9.37146 23.5059 11.0947 23.4434 12.8387C23.3809 14.5828 22.8012 16.2689 21.7779 17.6826C20.7546 19.0963 19.3341 20.1737 17.6968 20.7779C16.5571 21.1969 15.3432 21.3761 14.131 21.3044C12.9188 21.2327 11.7345 20.9117 10.6521 20.3613C10.522 20.3012 10.3737 20.2938 10.2383 20.3406C10.1028 20.3874 9.9908 20.4849 9.92565 20.6125C9.8605 20.7402 9.8473 20.8881 9.88881 21.0252C9.93033 21.1624 10.0233 21.2781 10.1483 21.3482C11.5448 22.0592 13.0898 22.4294 14.6568 22.4286C14.9087 22.4286 15.1606 22.4175 15.4125 22.3985V25.5051H8.81447C8.66741 25.5051 8.52639 25.5635 8.42241 25.6675C8.31843 25.7714 8.26001 25.9125 8.26001 26.0595C8.26001 26.2066 8.31843 26.3476 8.42241 26.4516C8.52639 26.5556 8.66741 26.614 8.81447 26.614H22.5966C22.7437 26.614 22.8847 26.5556 22.9887 26.4516C23.0927 26.3476 23.1511 26.2066 23.1511 26.0595C23.1511 25.9125 23.0927 25.7714 22.9887 25.6675C22.8847 25.5635 22.7437 25.5051 22.5966 25.5051H16.5214V22.2496C17.052 22.1491 17.5734 22.005 18.0802 21.8187Z"/>
</g>
</g>
</g>
</svg>
