<svg width="32" height="32" viewBox="0 0 32 32" xmlns="http://www.w3.org/2000/svg">
<g id="Yen Note">
<g id="Yen Note_2" clip-path="url(#clip0_9220_25164)">
<path d="M29.1752 22.5702H2.80888V9.39744H29.191V22.5702H29.1752ZM29.6667 22.4572V9.52659C29.6667 9.34248 29.5949 9.16592 29.467 9.03575C29.3391 8.90557 29.1657 8.83243 28.9849 8.83243H3.01499C2.92413 8.83028 2.83377 8.84665 2.74922 8.88057C2.66467 8.91449 2.58763 8.96527 2.52264 9.02995C2.45764 9.09462 2.406 9.17187 2.37075 9.25716C2.3355 9.34245 2.31736 9.43405 2.31738 9.52659V22.4572C2.31738 22.6456 2.39088 22.8262 2.52171 22.9595C2.65253 23.0927 2.82997 23.1675 3.01499 23.1675H29.0166C29.192 23.1516 29.3553 23.0703 29.4753 22.9392C29.5953 22.808 29.6635 22.6364 29.6667 22.4572Z"/>
<path d="M19.7734 21.2788H28.1764V21.9245H19.7734V21.2788Z"/>
<path d="M3.52222 21.2788H11.9252V21.9245H3.52222V21.2788Z"/>
<path d="M5.06015 10.5114C5.19813 10.5114 5.333 10.553 5.44772 10.6311C5.56244 10.7091 5.65186 10.82 5.70466 10.9498C5.75746 11.0796 5.77127 11.2224 5.74436 11.3602C5.71744 11.498 5.651 11.6246 5.55344 11.7239C5.45587 11.8232 5.33157 11.8909 5.19625 11.9183C5.06093 11.9457 4.92066 11.9316 4.79319 11.8779C4.66572 11.8241 4.55677 11.7331 4.48012 11.6163C4.40346 11.4995 4.36255 11.3621 4.36255 11.2216C4.36255 11.0333 4.43605 10.8526 4.56687 10.7194C4.6977 10.5862 4.87514 10.5114 5.06015 10.5114Z"/>
<path d="M9.46787 10.5114C9.60584 10.5114 9.74072 10.553 9.85544 10.6311C9.97016 10.7091 10.0596 10.82 10.1124 10.9498C10.1652 11.0796 10.179 11.2224 10.1521 11.3602C10.1252 11.498 10.0587 11.6246 9.96115 11.7239C9.86359 11.8232 9.73929 11.8909 9.60397 11.9183C9.46864 11.9457 9.32838 11.9316 9.20091 11.8779C9.07344 11.8241 8.96449 11.7331 8.88783 11.6163C8.81118 11.4995 8.77026 11.3621 8.77026 11.2216C8.7743 11.0346 8.8491 10.8563 8.97906 10.7239C9.10902 10.5916 9.28412 10.5155 9.46787 10.5114Z"/>
<path d="M22.7699 10.5114C22.9078 10.5114 23.0427 10.553 23.1574 10.6311C23.2722 10.7091 23.3616 10.82 23.4144 10.9498C23.4672 11.0796 23.481 11.2224 23.4541 11.3602C23.4272 11.498 23.3607 11.6246 23.2632 11.7239C23.1656 11.8232 23.0413 11.8909 22.906 11.9183C22.7706 11.9457 22.6304 11.9316 22.5029 11.8779C22.3754 11.8241 22.2665 11.7331 22.1898 11.6163C22.1132 11.4995 22.0723 11.3621 22.0723 11.2216C22.0723 11.0333 22.1458 10.8526 22.2766 10.7194C22.4074 10.5862 22.5849 10.5114 22.7699 10.5114Z"/>
<path d="M7.27988 10.5114C7.41785 10.5114 7.55273 10.553 7.66745 10.6311C7.78217 10.7091 7.87158 10.82 7.92438 10.9498C7.97718 11.0796 7.991 11.2224 7.96408 11.3602C7.93716 11.498 7.87072 11.6246 7.77316 11.7239C7.6756 11.8232 7.5513 11.8909 7.41598 11.9183C7.28065 11.9457 7.14039 11.9316 7.01292 11.8779C6.88545 11.8241 6.7765 11.7331 6.69984 11.6163C6.62319 11.4995 6.58228 11.3621 6.58228 11.2216C6.58228 11.0333 6.65577 10.8526 6.7866 10.7194C6.91743 10.5862 7.09486 10.5114 7.27988 10.5114Z"/>
<path d="M24.9896 10.5113C25.1282 10.5081 25.2646 10.547 25.3814 10.6231C25.4982 10.6992 25.5901 10.809 25.6453 10.9384C25.7006 11.0679 25.7166 11.2112 25.6915 11.35C25.6664 11.4889 25.6013 11.6169 25.5044 11.7179C25.4075 11.8188 25.2832 11.8881 25.1475 11.9169C25.0118 11.9456 24.8707 11.9325 24.7423 11.8792C24.6139 11.826 24.504 11.735 24.4266 11.6179C24.3492 11.5007 24.3079 11.3628 24.3079 11.2216C24.3078 11.036 24.3791 10.8577 24.5066 10.725C24.634 10.5922 24.8074 10.5155 24.9896 10.5113Z"/>
<path d="M27.2091 10.5113C27.3477 10.5081 27.4841 10.547 27.6009 10.6231C27.7177 10.6992 27.8096 10.809 27.8648 10.9384C27.92 11.0679 27.9361 11.2112 27.911 11.35C27.8859 11.4889 27.8208 11.6169 27.7239 11.7179C27.627 11.8188 27.5027 11.8881 27.367 11.9169C27.2312 11.9456 27.0902 11.9325 26.9618 11.8792C26.8334 11.826 26.7235 11.735 26.6461 11.6179C26.5687 11.5007 26.5274 11.3628 26.5273 11.2216C26.5273 11.036 26.5986 10.8577 26.726 10.725C26.8535 10.5922 27.0268 10.5155 27.2091 10.5113Z"/>
<path d="M19.0757 17.8242H16.206V16.1937H18.9965C19.0679 16.1937 19.1365 16.1648 19.187 16.1133C19.2376 16.0619 19.266 15.9921 19.266 15.9193C19.266 15.8465 19.2376 15.7767 19.187 15.7252C19.1365 15.6738 19.0679 15.6448 18.9965 15.6448H16.428L19.2977 11.0925C19.3179 11.0633 19.3318 11.0301 19.3388 10.9951C19.3457 10.9601 19.3455 10.924 19.338 10.8892C19.3306 10.8543 19.3161 10.8213 19.2955 10.7924C19.2749 10.7635 19.2487 10.7393 19.2184 10.7212C19.1897 10.7007 19.1572 10.6864 19.1228 10.6794C19.0884 10.6723 19.053 10.6726 19.0187 10.6802C18.9845 10.6877 18.9521 10.7025 18.9237 10.7234C18.8953 10.7444 18.8715 10.7711 18.8538 10.8019L15.9524 15.4188L13.0351 10.8019C13.0208 10.7638 12.9983 10.7295 12.9693 10.7014C12.9402 10.6733 12.9054 10.6521 12.8674 10.6394C12.8293 10.6267 12.7889 10.6228 12.7492 10.628C12.7095 10.6331 12.6714 10.6473 12.6377 10.6693C12.604 10.6914 12.5756 10.7208 12.5544 10.7554C12.5333 10.7901 12.52 10.8291 12.5156 10.8696C12.5111 10.9102 12.5156 10.9512 12.5287 10.9898C12.5418 11.0283 12.5631 11.0634 12.5912 11.0925L15.4609 15.6448H12.8766C12.8051 15.6448 12.7365 15.6738 12.686 15.7252C12.6354 15.7767 12.607 15.8465 12.607 15.9193C12.6069 15.9936 12.6348 16.0652 12.6849 16.1192C12.7351 16.1733 12.8037 16.2057 12.8766 16.2099H15.667V17.8403H12.8131C12.7444 17.8444 12.6799 17.8751 12.6327 17.9262C12.5856 17.9772 12.5594 18.0447 12.5595 18.1147C12.5594 18.1848 12.5856 18.2523 12.6327 18.3033C12.6799 18.3543 12.7444 18.385 12.8131 18.3892H15.6828V20.8429C15.6869 20.9129 15.7171 20.9786 15.7672 21.0266C15.8173 21.0746 15.8835 21.1013 15.9524 21.1012C16.0212 21.1013 16.0874 21.0746 16.1376 21.0266C16.1877 20.9786 16.2178 20.9129 16.2219 20.8429V18.3569H19.0916C19.1618 18.353 19.2282 18.3229 19.278 18.2722C19.3277 18.2215 19.3573 18.154 19.3611 18.0824C19.3591 18.0464 19.3501 18.0111 19.3347 17.9786C19.3192 17.9461 19.2976 17.917 19.2711 17.893C19.2446 17.869 19.2137 17.8506 19.1802 17.8387C19.1466 17.8269 19.1111 17.822 19.0757 17.8242Z"/>
</g>
</g>
<defs>
<clipPath>
<rect width="27.4286" height="14.3673" transform="translate(2.28564 8.81631)"/>
</clipPath>
</defs>
</svg>
