<svg width="32" height="32" viewBox="0 0 32 32" xmlns="http://www.w3.org/2000/svg">
<g>
<g clip-path="url(#clip0_9220_25170)">
<path d="M26.1354 5.25623H5.8649C5.69923 5.25623 5.54034 5.32301 5.4232 5.44188C5.30605 5.56075 5.24023 5.72197 5.24023 5.89008V26.11C5.2442 26.2769 5.31128 26.4357 5.42758 26.5538C5.54388 26.6718 5.70048 26.7398 5.8649 26.7439C6.02933 26.7398 6.18592 26.6718 6.30222 26.5538C6.41852 26.4357 6.48561 26.2769 6.48957 26.11V18.6781H25.5107V26.11C25.5107 26.2781 25.5765 26.4393 25.6936 26.5582C25.8108 26.6771 25.9697 26.7439 26.1354 26.7439C26.301 26.7439 26.4599 26.6771 26.5771 26.5582C26.6942 26.4393 26.76 26.2781 26.76 26.11V5.89008C26.76 5.72197 26.6942 5.56075 26.5771 5.44188C26.4599 5.32301 26.301 5.25623 26.1354 5.25623ZM25.5107 6.52393V12.7515H6.48957V6.52393H25.5107ZM23.6367 17.7273V15.7148H21.4504V17.7273H19.2484V15.7148H17.0621V17.7273H14.8601V15.7148H12.6738V17.7273H10.4874V15.7148H8.3011V17.7273H6.48957V15.7148H8.28549V13.7023H10.4874V15.7148H12.6738V13.7023H14.8757V15.7148H17.0621V13.7023H19.264V15.7148H21.4504V13.7023H23.6523V15.7148H25.5107V17.7273H23.6367Z"/>
<path d="M20.4197 11.4363H19.5139V7.85506H20.4509C21.466 7.85506 21.9658 8.40968 21.9658 9.66154C21.9658 10.9134 21.4816 11.4363 20.4197 11.4363ZM20.5759 7.31628H18.9205V11.9593H20.4353C21.8877 11.9593 22.5748 11.056 22.5748 9.6457C22.5748 8.23537 21.9189 7.31628 20.5759 7.31628ZM17.2651 7.31628V11.1194L14.8602 7.31628H14.2043V11.9593H14.7665V8.21953L17.1558 11.9751H17.843V7.31628H17.2651ZM10.5344 11.4363V9.83585H12.9706V9.32877H10.5344V7.87091H13.1736V7.31628H9.94092V11.9593H13.236V11.4363H10.5344Z"/>
</g>
</g>
<defs>
<clipPath>
<rect width="21.551" height="21.551" transform="translate(5.22461 5.22449)"/>
</clipPath>
</defs>
</svg>
