<svg width="32" height="32" viewBox="0 0 32 32" xmlns="http://www.w3.org/2000/svg">
<g>
<g>
<g>
<path d="M12.4261 20.4755H14.2494L12.3025 22.7613V23.32H15.2205V22.7085H13.2736L15.2205 20.4227V19.864H12.4261V20.4755ZM16.0934 19.864H16.8268V23.32H16.0934V19.864ZM19.1952 19.864H17.7932V23.32H18.5346V22.1157H19.1381C19.9857 22.1157 20.4324 21.6797 20.4324 20.9752C20.4324 20.2706 19.9603 19.864 19.1952 19.864ZM19.0668 21.5105H18.5346V20.4708H19.1492C19.4851 20.4708 19.7227 20.6462 19.7227 20.986C19.7227 21.3259 19.4977 21.5105 19.0668 21.5105Z"/>
<path d="M25.3117 11.6952C25.3063 11.672 25.2994 11.6492 25.2911 11.6269C25.2881 11.6158 25.2844 11.605 25.28 11.5943C25.2694 11.5703 25.2573 11.547 25.2436 11.5245L25.2293 11.5012C25.2098 11.4719 25.1869 11.4448 25.1612 11.4205L18.8134 5.20236C18.7883 5.17902 18.7613 5.15774 18.7327 5.13873C18.7226 5.13213 18.712 5.12642 18.701 5.12166C18.6807 5.10878 18.6596 5.09737 18.6376 5.08752L18.5964 5.07511C18.5758 5.07511 18.5552 5.06114 18.5331 5.05649C18.497 5.04973 18.4604 5.04609 18.4237 5.04562H9.95959C9.25162 5.04562 8.57259 5.3208 8.07154 5.81075C7.57049 6.3007 7.28837 6.96539 7.28711 7.6589V24.2386C7.28795 24.9319 7.56945 25.5965 8.06986 26.0867C8.57027 26.5769 9.24873 26.8526 9.95642 26.8535H22.6535C23.3611 26.8526 24.0396 26.5769 24.54 26.0867C25.0404 25.5965 25.3219 24.9319 25.3228 24.2386V11.81C25.3235 11.7715 25.3198 11.7329 25.3117 11.6952ZM18.975 6.89696L23.4297 11.2607H18.9766L18.975 6.89696ZM22.6535 25.7672H9.95959C9.75446 25.7674 9.55131 25.728 9.36172 25.6513C9.17213 25.5746 8.99982 25.4621 8.85463 25.3201C8.70944 25.1782 8.59421 25.0096 8.51552 24.8241C8.43684 24.6385 8.39623 24.4396 8.39602 24.2386V7.6589C8.39602 7.25336 8.56037 6.86441 8.85295 6.57751C9.14554 6.2906 9.54243 6.12921 9.95642 6.1288H17.8645V12.347H24.2107V24.2386C24.2103 24.6434 24.0462 25.0315 23.7543 25.3179C23.4625 25.6044 23.0666 25.766 22.6535 25.7672Z"/>
</g>
</g>
</g>
</svg>
