<svg width="62" height="9" viewBox="0 0 62 9" xmlns="http://www.w3.org/2000/svg">
<path d="M2.08105 6.8916L5.52344 1.70605L5.51855 0.890625H0.420898V2.00879H3.8584L0.411133 7.16016V8H5.60645V6.8916H2.08105ZM13.583 4.96777V3.93262C13.583 3.61035 13.5521 3.30599 13.4902 3.01953C13.4316 2.73307 13.3454 2.4694 13.2314 2.22852C13.1273 2.01693 13.002 1.82324 12.8555 1.64746C12.7122 1.47168 12.5446 1.32194 12.3525 1.19824C12.1605 1.06803 11.944 0.96875 11.7031 0.900391C11.4655 0.828776 11.21 0.792969 10.9365 0.792969C10.6663 0.792969 10.4157 0.827148 10.1846 0.895508C9.95345 0.963867 9.74512 1.06152 9.55957 1.18848C9.37077 1.31868 9.20312 1.47493 9.05664 1.65723C8.91341 1.83952 8.79134 2.04297 8.69043 2.26758C8.58626 2.50521 8.50651 2.764 8.45117 3.04395C8.39909 3.32389 8.37305 3.62012 8.37305 3.93262V4.96777C8.37305 5.26074 8.39583 5.53906 8.44141 5.80273C8.49023 6.06641 8.56022 6.31055 8.65137 6.53516C8.75228 6.7793 8.8776 6.99902 9.02734 7.19434C9.17708 7.38639 9.34635 7.55078 9.53516 7.6875C9.72721 7.81771 9.94043 7.91862 10.1748 7.99023C10.4092 8.06185 10.6647 8.09766 10.9414 8.09766C11.2018 8.09766 11.4443 8.0651 11.6689 8C11.8968 7.93815 12.1051 7.85026 12.2939 7.73633C12.5023 7.60612 12.6878 7.44336 12.8506 7.24805C13.0133 7.05273 13.1501 6.83789 13.2607 6.60352C13.3649 6.36914 13.4447 6.11523 13.5 5.8418C13.5553 5.5651 13.583 5.27376 13.583 4.96777ZM12.1914 3.92285V4.96777C12.1914 5.14355 12.1816 5.31283 12.1621 5.47559C12.1458 5.63835 12.1198 5.78809 12.084 5.9248C12.0384 6.10059 11.9766 6.25846 11.8984 6.39844C11.8236 6.53516 11.7308 6.64909 11.6201 6.74023C11.5322 6.8151 11.4313 6.87207 11.3174 6.91113C11.2035 6.9502 11.0781 6.96973 10.9414 6.96973C10.7982 6.96973 10.6696 6.94857 10.5557 6.90625C10.445 6.86393 10.3457 6.80371 10.2578 6.72559C10.1634 6.6377 10.0804 6.52376 10.0088 6.38379C9.94043 6.24056 9.88835 6.08268 9.85254 5.91016C9.81999 5.77344 9.7972 5.62533 9.78418 5.46582C9.77116 5.30632 9.76465 5.1403 9.76465 4.96777V3.92285C9.76465 3.74056 9.77116 3.56641 9.78418 3.40039C9.80046 3.23438 9.82487 3.08138 9.85742 2.94141C9.89974 2.75911 9.95833 2.59961 10.0332 2.46289C10.1113 2.32617 10.2057 2.21224 10.3164 2.12109C10.3978 2.05924 10.4889 2.01204 10.5898 1.97949C10.694 1.94694 10.8096 1.93066 10.9365 1.93066C11.07 1.93066 11.1904 1.94857 11.2979 1.98438C11.4085 2.02018 11.5078 2.07064 11.5957 2.13574C11.7064 2.22363 11.8024 2.33757 11.8838 2.47754C11.9652 2.61426 12.0303 2.77051 12.0791 2.94629C12.1182 3.08626 12.1458 3.23926 12.1621 3.40527C12.1816 3.56803 12.1914 3.74056 12.1914 3.92285ZM21.5889 4.96777V3.93262C21.5889 3.61035 21.5579 3.30599 21.4961 3.01953C21.4375 2.73307 21.3512 2.4694 21.2373 2.22852C21.1331 2.01693 21.0078 1.82324 20.8613 1.64746C20.7181 1.47168 20.5505 1.32194 20.3584 1.19824C20.1663 1.06803 19.9499 0.96875 19.709 0.900391C19.4714 0.828776 19.2158 0.792969 18.9424 0.792969C18.6722 0.792969 18.4215 0.827148 18.1904 0.895508C17.9593 0.963867 17.751 1.06152 17.5654 1.18848C17.3766 1.31868 17.209 1.47493 17.0625 1.65723C16.9193 1.83952 16.7972 2.04297 16.6963 2.26758C16.5921 2.50521 16.5124 2.764 16.457 3.04395C16.4049 3.32389 16.3789 3.62012 16.3789 3.93262V4.96777C16.3789 5.26074 16.4017 5.53906 16.4473 5.80273C16.4961 6.06641 16.5661 6.31055 16.6572 6.53516C16.7581 6.7793 16.8835 6.99902 17.0332 7.19434C17.1829 7.38639 17.3522 7.55078 17.541 7.6875C17.7331 7.81771 17.9463 7.91862 18.1807 7.99023C18.415 8.06185 18.6706 8.09766 18.9473 8.09766C19.2077 8.09766 19.4502 8.0651 19.6748 8C19.9027 7.93815 20.111 7.85026 20.2998 7.73633C20.5081 7.60612 20.6937 7.44336 20.8564 7.24805C21.0192 7.05273 21.1559 6.83789 21.2666 6.60352C21.3708 6.36914 21.4505 6.11523 21.5059 5.8418C21.5612 5.5651 21.5889 5.27376 21.5889 4.96777ZM20.1973 3.92285V4.96777C20.1973 5.14355 20.1875 5.31283 20.168 5.47559C20.1517 5.63835 20.1257 5.78809 20.0898 5.9248C20.0443 6.10059 19.9824 6.25846 19.9043 6.39844C19.8294 6.53516 19.7367 6.64909 19.626 6.74023C19.5381 6.8151 19.4372 6.87207 19.3232 6.91113C19.2093 6.9502 19.084 6.96973 18.9473 6.96973C18.804 6.96973 18.6755 6.94857 18.5615 6.90625C18.4508 6.86393 18.3516 6.80371 18.2637 6.72559C18.1693 6.6377 18.0863 6.52376 18.0146 6.38379C17.9463 6.24056 17.8942 6.08268 17.8584 5.91016C17.8258 5.77344 17.8031 5.62533 17.79 5.46582C17.777 5.30632 17.7705 5.1403 17.7705 4.96777V3.92285C17.7705 3.74056 17.777 3.56641 17.79 3.40039C17.8063 3.23438 17.8307 3.08138 17.8633 2.94141C17.9056 2.75911 17.9642 2.59961 18.0391 2.46289C18.1172 2.32617 18.2116 2.21224 18.3223 2.12109C18.4036 2.05924 18.4948 2.01204 18.5957 1.97949C18.6999 1.94694 18.8154 1.93066 18.9424 1.93066C19.0758 1.93066 19.1963 1.94857 19.3037 1.98438C19.4144 2.02018 19.5137 2.07064 19.6016 2.13574C19.7122 2.22363 19.8083 2.33757 19.8896 2.47754C19.971 2.61426 20.0361 2.77051 20.085 2.94629C20.124 3.08626 20.1517 3.23926 20.168 3.40527C20.1875 3.56803 20.1973 3.74056 20.1973 3.92285ZM26.3184 0.890625H24.6143V8H25.874V5.89551L25.8154 2.70215L26.6504 5.65625H27.3291L28.2617 2.57031L28.2031 5.89551V8H29.4629V0.890625H27.7588L26.9922 3.56152L26.3184 0.890625ZM37.4443 5.41211V4.31348H33.377V5.41211H37.4443ZM45.6064 4.96777V3.93262C45.6064 3.61035 45.5755 3.30599 45.5137 3.01953C45.4551 2.73307 45.3688 2.4694 45.2549 2.22852C45.1507 2.01693 45.0254 1.82324 44.8789 1.64746C44.7357 1.47168 44.568 1.32194 44.376 1.19824C44.1839 1.06803 43.9674 0.96875 43.7266 0.900391C43.4889 0.828776 43.2334 0.792969 42.96 0.792969C42.6898 0.792969 42.4391 0.827148 42.208 0.895508C41.9769 0.963867 41.7686 1.06152 41.583 1.18848C41.3942 1.31868 41.2266 1.47493 41.0801 1.65723C40.9368 1.83952 40.8148 2.04297 40.7139 2.26758C40.6097 2.50521 40.5299 2.764 40.4746 3.04395C40.4225 3.32389 40.3965 3.62012 40.3965 3.93262V4.96777C40.3965 5.26074 40.4193 5.53906 40.4648 5.80273C40.5137 6.06641 40.5837 6.31055 40.6748 6.53516C40.7757 6.7793 40.901 6.99902 41.0508 7.19434C41.2005 7.38639 41.3698 7.55078 41.5586 7.6875C41.7507 7.81771 41.9639 7.91862 42.1982 7.99023C42.4326 8.06185 42.6882 8.09766 42.9648 8.09766C43.2253 8.09766 43.4678 8.0651 43.6924 8C43.9202 7.93815 44.1286 7.85026 44.3174 7.73633C44.5257 7.60612 44.7113 7.44336 44.874 7.24805C45.0368 7.05273 45.1735 6.83789 45.2842 6.60352C45.3883 6.36914 45.4681 6.11523 45.5234 5.8418C45.5788 5.5651 45.6064 5.27376 45.6064 4.96777ZM44.2148 3.92285V4.96777C44.2148 5.14355 44.2051 5.31283 44.1855 5.47559C44.1693 5.63835 44.1432 5.78809 44.1074 5.9248C44.0618 6.10059 44 6.25846 43.9219 6.39844C43.847 6.53516 43.7542 6.64909 43.6436 6.74023C43.5557 6.8151 43.4548 6.87207 43.3408 6.91113C43.2269 6.9502 43.1016 6.96973 42.9648 6.96973C42.8216 6.96973 42.693 6.94857 42.5791 6.90625C42.4684 6.86393 42.3691 6.80371 42.2812 6.72559C42.1868 6.6377 42.1038 6.52376 42.0322 6.38379C41.9639 6.24056 41.9118 6.08268 41.876 5.91016C41.8434 5.77344 41.8206 5.62533 41.8076 5.46582C41.7946 5.30632 41.7881 5.1403 41.7881 4.96777V3.92285C41.7881 3.74056 41.7946 3.56641 41.8076 3.40039C41.8239 3.23438 41.8483 3.08138 41.8809 2.94141C41.9232 2.75911 41.9818 2.59961 42.0566 2.46289C42.1348 2.32617 42.2292 2.21224 42.3398 2.12109C42.4212 2.05924 42.5124 2.01204 42.6133 1.97949C42.7174 1.94694 42.833 1.93066 42.96 1.93066C43.0934 1.93066 43.2139 1.94857 43.3213 1.98438C43.432 2.02018 43.5312 2.07064 43.6191 2.13574C43.7298 2.22363 43.8258 2.33757 43.9072 2.47754C43.9886 2.61426 44.0537 2.77051 44.1025 2.94629C44.1416 3.08626 44.1693 3.23926 44.1855 3.40527C44.2051 3.56803 44.2148 3.74056 44.2148 3.92285ZM53.3877 0.890625H52.0254L52.0205 5.60254C52.0173 5.83366 51.9928 6.03711 51.9473 6.21289C51.9017 6.38867 51.8333 6.53516 51.7422 6.65234C51.6576 6.76628 51.5501 6.85254 51.4199 6.91113C51.293 6.96647 51.1465 6.99414 50.9805 6.99414C50.8275 6.99414 50.6924 6.9681 50.5752 6.91602C50.458 6.86068 50.3587 6.7793 50.2773 6.67188C50.1895 6.55469 50.1227 6.40658 50.0771 6.22754C50.0348 6.0485 50.012 5.84017 50.0088 5.60254L50.0039 0.890625H48.6318L48.627 5.60254C48.627 5.99967 48.6823 6.35449 48.793 6.66699C48.9069 6.97624 49.0664 7.23665 49.2715 7.44824C49.4766 7.65983 49.7223 7.82096 50.0088 7.93164C50.2985 8.04232 50.6224 8.09766 50.9805 8.09766C51.3613 8.09766 51.6999 8.04232 51.9961 7.93164C52.2956 7.82096 52.5495 7.6582 52.7578 7.44336C52.9629 7.23177 53.1191 6.97135 53.2266 6.66211C53.3372 6.35286 53.3926 5.99967 53.3926 5.60254L53.3877 0.890625ZM61.8818 2.00879V0.890625H56.1494V2.00879H58.3125V8H59.6895V2.00879H61.8818Z"/>
</svg>
