<svg width="54" height="9" viewBox="0 0 54 9" xmlns="http://www.w3.org/2000/svg">
<path d="M2.08398 6.8916L5.52637 1.70605L5.52148 0.890625H0.423828V2.00879H3.86133L0.414062 7.16016V8H5.60938V6.8916H2.08398ZM13.5859 4.96777V3.93262C13.5859 3.61035 13.555 3.30599 13.4932 3.01953C13.4346 2.73307 13.3483 2.4694 13.2344 2.22852C13.1302 2.01693 13.0049 1.82324 12.8584 1.64746C12.7152 1.47168 12.5475 1.32194 12.3555 1.19824C12.1634 1.06803 11.9469 0.96875 11.7061 0.900391C11.4684 0.828776 11.2129 0.792969 10.9395 0.792969C10.6693 0.792969 10.4186 0.827148 10.1875 0.895508C9.95638 0.963867 9.74805 1.06152 9.5625 1.18848C9.3737 1.31868 9.20605 1.47493 9.05957 1.65723C8.91634 1.83952 8.79427 2.04297 8.69336 2.26758C8.58919 2.50521 8.50944 2.764 8.4541 3.04395C8.40202 3.32389 8.37598 3.62012 8.37598 3.93262V4.96777C8.37598 5.26074 8.39876 5.53906 8.44434 5.80273C8.49316 6.06641 8.56315 6.31055 8.6543 6.53516C8.75521 6.7793 8.88053 6.99902 9.03027 7.19434C9.18001 7.38639 9.34928 7.55078 9.53809 7.6875C9.73014 7.81771 9.94336 7.91862 10.1777 7.99023C10.4121 8.06185 10.6676 8.09766 10.9443 8.09766C11.2048 8.09766 11.4473 8.0651 11.6719 8C11.8997 7.93815 12.1081 7.85026 12.2969 7.73633C12.5052 7.60612 12.6908 7.44336 12.8535 7.24805C13.0163 7.05273 13.153 6.83789 13.2637 6.60352C13.3678 6.36914 13.4476 6.11523 13.5029 5.8418C13.5583 5.5651 13.5859 5.27376 13.5859 4.96777ZM12.1943 3.92285V4.96777C12.1943 5.14355 12.1846 5.31283 12.165 5.47559C12.1488 5.63835 12.1227 5.78809 12.0869 5.9248C12.0413 6.10059 11.9795 6.25846 11.9014 6.39844C11.8265 6.53516 11.7337 6.64909 11.623 6.74023C11.5352 6.8151 11.4342 6.87207 11.3203 6.91113C11.2064 6.9502 11.0811 6.96973 10.9443 6.96973C10.8011 6.96973 10.6725 6.94857 10.5586 6.90625C10.4479 6.86393 10.3486 6.80371 10.2607 6.72559C10.1663 6.6377 10.0833 6.52376 10.0117 6.38379C9.94336 6.24056 9.89128 6.08268 9.85547 5.91016C9.82292 5.77344 9.80013 5.62533 9.78711 5.46582C9.77409 5.30632 9.76758 5.1403 9.76758 4.96777V3.92285C9.76758 3.74056 9.77409 3.56641 9.78711 3.40039C9.80339 3.23438 9.8278 3.08138 9.86035 2.94141C9.90267 2.75911 9.96126 2.59961 10.0361 2.46289C10.1143 2.32617 10.2087 2.21224 10.3193 2.12109C10.4007 2.05924 10.4919 2.01204 10.5928 1.97949C10.6969 1.94694 10.8125 1.93066 10.9395 1.93066C11.0729 1.93066 11.1934 1.94857 11.3008 1.98438C11.4115 2.02018 11.5107 2.07064 11.5986 2.13574C11.7093 2.22363 11.8053 2.33757 11.8867 2.47754C11.9681 2.61426 12.0332 2.77051 12.082 2.94629C12.1211 3.08626 12.1488 3.23926 12.165 3.40527C12.1846 3.56803 12.1943 3.74056 12.1943 3.92285ZM21.5918 4.96777V3.93262C21.5918 3.61035 21.5609 3.30599 21.499 3.01953C21.4404 2.73307 21.3542 2.4694 21.2402 2.22852C21.1361 2.01693 21.0107 1.82324 20.8643 1.64746C20.721 1.47168 20.5534 1.32194 20.3613 1.19824C20.1693 1.06803 19.9528 0.96875 19.7119 0.900391C19.4743 0.828776 19.2188 0.792969 18.9453 0.792969C18.6751 0.792969 18.4245 0.827148 18.1934 0.895508C17.9622 0.963867 17.7539 1.06152 17.5684 1.18848C17.3796 1.31868 17.2119 1.47493 17.0654 1.65723C16.9222 1.83952 16.8001 2.04297 16.6992 2.26758C16.5951 2.50521 16.5153 2.764 16.46 3.04395C16.4079 3.32389 16.3818 3.62012 16.3818 3.93262V4.96777C16.3818 5.26074 16.4046 5.53906 16.4502 5.80273C16.499 6.06641 16.569 6.31055 16.6602 6.53516C16.7611 6.7793 16.8864 6.99902 17.0361 7.19434C17.1859 7.38639 17.3551 7.55078 17.5439 7.6875C17.736 7.81771 17.9492 7.91862 18.1836 7.99023C18.418 8.06185 18.6735 8.09766 18.9502 8.09766C19.2106 8.09766 19.4531 8.0651 19.6777 8C19.9056 7.93815 20.1139 7.85026 20.3027 7.73633C20.5111 7.60612 20.6966 7.44336 20.8594 7.24805C21.0221 7.05273 21.1589 6.83789 21.2695 6.60352C21.3737 6.36914 21.4535 6.11523 21.5088 5.8418C21.5641 5.5651 21.5918 5.27376 21.5918 4.96777ZM20.2002 3.92285V4.96777C20.2002 5.14355 20.1904 5.31283 20.1709 5.47559C20.1546 5.63835 20.1286 5.78809 20.0928 5.9248C20.0472 6.10059 19.9854 6.25846 19.9072 6.39844C19.8324 6.53516 19.7396 6.64909 19.6289 6.74023C19.541 6.8151 19.4401 6.87207 19.3262 6.91113C19.2122 6.9502 19.0869 6.96973 18.9502 6.96973C18.807 6.96973 18.6784 6.94857 18.5645 6.90625C18.4538 6.86393 18.3545 6.80371 18.2666 6.72559C18.1722 6.6377 18.0892 6.52376 18.0176 6.38379C17.9492 6.24056 17.8971 6.08268 17.8613 5.91016C17.8288 5.77344 17.806 5.62533 17.793 5.46582C17.7799 5.30632 17.7734 5.1403 17.7734 4.96777V3.92285C17.7734 3.74056 17.7799 3.56641 17.793 3.40039C17.8092 3.23438 17.8337 3.08138 17.8662 2.94141C17.9085 2.75911 17.9671 2.59961 18.042 2.46289C18.1201 2.32617 18.2145 2.21224 18.3252 2.12109C18.4066 2.05924 18.4977 2.01204 18.5986 1.97949C18.7028 1.94694 18.8184 1.93066 18.9453 1.93066C19.0788 1.93066 19.1992 1.94857 19.3066 1.98438C19.4173 2.02018 19.5166 2.07064 19.6045 2.13574C19.7152 2.22363 19.8112 2.33757 19.8926 2.47754C19.974 2.61426 20.0391 2.77051 20.0879 2.94629C20.127 3.08626 20.1546 3.23926 20.1709 3.40527C20.1904 3.56803 20.2002 3.74056 20.2002 3.92285ZM26.3213 0.890625H24.6172V8H25.877V5.89551L25.8184 2.70215L26.6533 5.65625H27.332L28.2646 2.57031L28.2061 5.89551V8H29.4658V0.890625H27.7617L26.9951 3.56152L26.3213 0.890625ZM37.4473 5.41211V4.31348H33.3799V5.41211H37.4473ZM40.9512 0.890625V1.99902H42.3037V6.89648H40.9512V8H45.0625V6.89648H43.6758V1.99902H45.0625V0.890625H40.9512ZM53.3418 8V0.890625H51.9648L51.96 5.45605L49.9971 0.890625H48.6152V8H49.9971V3.41504L51.9746 8H53.3418Z"/>
</svg>
