<svg width="32" height="32" viewBox="0 0 32 32" xmlns="http://www.w3.org/2000/svg">
<g>
<g clip-path="url(#clip0_9594_11177)">
<path d="M17.7149 25.6819L16.5783 26.8185C16.097 27.2998 15.3187 27.2998 14.8426 26.8185L4.88928 16.8704C4.408 16.3891 4.408 15.6108 4.88928 15.1347L14.8426 5.18139C15.3239 4.70011 16.1021 4.70011 16.5783 5.18139L17.7149 6.31803C18.2013 6.80443 18.1911 7.59803 17.6944 8.07419L11.5248 13.952H26.2397C26.9207 13.952 27.4685 14.4998 27.4685 15.1808V16.8192C27.4685 17.5001 26.9207 18.048 26.2397 18.048H11.5248L17.6944 23.9257C18.1962 24.4019 18.2064 25.1955 17.7149 25.6819Z"/>
</g>
</g>
<defs>
<clipPath>
<rect width="22.9376" height="26.2144" transform="translate(4.53125 2.89282)"/>
</clipPath>
</defs>
</svg>
