<svg width="32" height="32" viewBox="0 0 32 32" xmlns="http://www.w3.org/2000/svg">
<g>
<g clip-path="url(#clip0_9594_11175)">
<path d="M14.2848 6.31803L15.4215 5.18139C15.9028 4.70011 16.681 4.70011 17.1572 5.18139L27.1104 15.1296C27.5917 15.6108 27.5917 16.3891 27.1104 16.8652L17.1572 26.8185C16.6759 27.2998 15.8976 27.2998 15.4215 26.8185L14.2848 25.6819C13.7984 25.1955 13.8087 24.4019 14.3053 23.9257L20.4749 18.048H5.76005C5.07909 18.048 4.53125 17.5001 4.53125 16.8192V15.1808C4.53125 14.4998 5.07909 13.952 5.76005 13.952H20.4749L14.3053 8.07419C13.8036 7.59803 13.7933 6.80443 14.2848 6.31803Z"/>
</g>
</g>
<defs>
<clipPath>
<rect width="22.9376" height="26.2144" transform="translate(4.53125 2.89282)"/>
</clipPath>
</defs>
</svg>
