<svg width="32" height="32" viewBox="0 0 32 32" xmlns="http://www.w3.org/2000/svg">
<g>
<g clip-path="url(#clip0_9594_11179)">
<path d="M5.14565 12.7232H26.8544C27.1924 12.7232 27.4688 12.9997 27.4688 13.3376V26.6496C27.4688 28.0064 26.368 29.1072 25.0112 29.1072H6.98885C5.63205 29.1072 4.53125 28.0064 4.53125 26.6496V13.3376C4.53125 12.9997 4.80773 12.7232 5.14565 12.7232ZM27.4688 10.4704V8.62722C27.4688 7.27042 26.368 6.16962 25.0112 6.16962H22.5536V3.50722C22.5536 3.1693 22.2772 2.89282 21.9392 2.89282H19.8912C19.5533 2.89282 19.2768 3.1693 19.2768 3.50722V6.16962H12.7232V3.50722C12.7232 3.1693 12.4468 2.89282 12.1088 2.89282H10.0608C9.72293 2.89282 9.44645 3.1693 9.44645 3.50722V6.16962H6.98885C5.63205 6.16962 4.53125 7.27042 4.53125 8.62722V10.4704C4.53125 10.8083 4.80773 11.0848 5.14565 11.0848H26.8544C27.1924 11.0848 27.4688 10.8083 27.4688 10.4704Z"/>
</g>
</g>
<defs>
<clipPath>
<rect width="22.9376" height="26.2144" transform="translate(4.53125 2.89282)"/>
</clipPath>
</defs>
</svg>
