<svg width="32" height="32" viewBox="0 0 32 32" xmlns="http://www.w3.org/2000/svg">
<g>
<path d="M28.2941 18.3204L30.7145 7.67076C30.8893 6.90183 30.3048 6.16962 29.5163 6.16962H9.40584L8.93654 3.87535C8.8196 3.3035 8.31641 2.89282 7.73268 2.89282H2.48319C1.80454 2.89282 1.25439 3.44297 1.25439 4.12162V4.94082C1.25439 5.61948 1.80454 6.16962 2.48319 6.16962H6.0612L9.6579 23.7535C8.79743 24.2483 8.21759 25.1762 8.21759 26.24C8.21759 27.8235 9.50128 29.1072 11.0848 29.1072C12.6683 29.1072 13.952 27.8235 13.952 26.24C13.952 25.4375 13.6219 24.7125 13.0906 24.192H23.8245C23.2933 24.7125 22.9632 25.4375 22.9632 26.24C22.9632 27.8235 24.2469 29.1072 25.8304 29.1072C27.4139 29.1072 28.6976 27.8235 28.6976 26.24C28.6976 25.1048 28.0377 24.1238 27.0807 23.6593L27.3632 22.4164C27.538 21.6474 26.9535 20.9152 26.165 20.9152H12.422L12.0869 19.2768H27.0959C27.6697 19.2768 28.167 18.8798 28.2941 18.3204Z"/>
</g>
</svg>
