<svg width="32" height="32" viewBox="0 0 32 32" xmlns="http://www.w3.org/2000/svg">
<g>
<g clip-path="url(#clip0_9594_11207)">
<path d="M22.5536 12.7232C22.5536 8.19717 17.7869 4.53125 11.904 4.53125C6.02111 4.53125 1.25439 8.19717 1.25439 12.7232C1.25439 14.4794 1.97631 16.0973 3.19999 17.4336C2.51391 18.9799 1.38239 20.2087 1.36703 20.224C1.25439 20.3418 1.22367 20.5159 1.29023 20.6695C1.35679 20.8231 1.50015 20.9152 1.66399 20.9152C3.53791 20.9152 5.08927 20.2855 6.20543 19.6352C7.85407 20.4391 9.80479 20.9152 11.904 20.9152C17.7869 20.9152 22.5536 17.2493 22.5536 12.7232ZM28.8 23.9872C30.0237 22.656 30.7456 21.033 30.7456 19.2768C30.7456 15.8516 28.0064 12.9178 24.1254 11.6941C24.1715 12.032 24.192 12.3751 24.192 12.7232C24.192 18.1453 18.6778 22.5536 11.904 22.5536C11.351 22.5536 10.8134 22.5127 10.281 22.4564C11.8938 25.4004 15.6826 27.4688 20.096 27.4688C22.1952 27.4688 24.1459 26.9978 25.7946 26.1888C26.9107 26.8391 28.4621 27.4688 30.336 27.4688C30.4998 27.4688 30.6483 27.3716 30.7098 27.2231C30.7763 27.0746 30.7456 26.9005 30.633 26.7776C30.6176 26.7623 29.4861 25.5386 28.8 23.9872Z"/>
</g>
</g>
<defs>
<clipPath>
<rect width="29.4912" height="26.2144" transform="translate(1.25439 2.89282)"/>
</clipPath>
</defs>
</svg>
