<svg width="38" height="9" viewBox="0 0 38 9" xmlns="http://www.w3.org/2000/svg">
<path d="M5.56152 5.77344H4.18945C4.17643 5.98828 4.14062 6.1722 4.08203 6.3252C4.02344 6.47819 3.94368 6.60352 3.84277 6.70117C3.74186 6.79883 3.61979 6.87044 3.47656 6.91602C3.33333 6.96159 3.1722 6.98438 2.99316 6.98438C2.8597 6.98438 2.73763 6.96973 2.62695 6.94043C2.51953 6.90788 2.42188 6.85905 2.33398 6.79395C2.2526 6.73535 2.17936 6.66211 2.11426 6.57422C2.05241 6.48633 1.9987 6.38542 1.95312 6.27148C1.88802 6.10547 1.83919 5.91178 1.80664 5.69043C1.77734 5.46582 1.7627 5.21191 1.7627 4.92871V3.96191C1.7627 3.75358 1.77246 3.5599 1.79199 3.38086C1.81152 3.19857 1.84245 3.03255 1.88477 2.88281C1.9401 2.69076 2.01335 2.52311 2.10449 2.37988C2.19889 2.2334 2.31283 2.12109 2.44629 2.04297C2.52441 1.9974 2.60905 1.96322 2.7002 1.94043C2.7946 1.91764 2.89551 1.90625 3.00293 1.90625C3.20475 1.90625 3.37728 1.93392 3.52051 1.98926C3.66699 2.04134 3.78906 2.11947 3.88672 2.22363C3.98112 2.33105 4.05273 2.46452 4.10156 2.62402C4.15365 2.78353 4.1862 2.96908 4.19922 3.18066H5.56641C5.53385 2.80957 5.45573 2.47591 5.33203 2.17969C5.20833 1.88346 5.03906 1.63281 4.82422 1.42773C4.60938 1.22266 4.34896 1.06478 4.04297 0.954102C3.74023 0.843424 3.39355 0.788086 3.00293 0.788086C2.73926 0.788086 2.49186 0.822266 2.26074 0.890625C2.03288 0.955729 1.82292 1.05013 1.63086 1.17383C1.41602 1.32031 1.22396 1.49935 1.05469 1.71094C0.885417 1.92253 0.748698 2.16341 0.644531 2.43359C0.553385 2.65495 0.485026 2.89583 0.439453 3.15625C0.39388 3.41341 0.371094 3.68522 0.371094 3.97168V4.92871C0.371094 5.2347 0.395508 5.52441 0.444336 5.79785C0.496419 6.07129 0.569661 6.32194 0.664062 6.5498C0.761719 6.77767 0.880534 6.986 1.02051 7.1748C1.16374 7.36361 1.3265 7.52474 1.50879 7.6582C1.70736 7.80143 1.93034 7.91211 2.17773 7.99023C2.42839 8.0651 2.7002 8.10254 2.99316 8.10254C3.36426 8.10254 3.7028 8.04883 4.00879 7.94141C4.31478 7.83073 4.57845 7.67448 4.7998 7.47266C5.02116 7.27083 5.19694 7.02669 5.32715 6.74023C5.46061 6.45378 5.53874 6.13151 5.56152 5.77344ZM10.1006 6.8916V0.890625H8.72363V8H13.4307V6.8916H10.1006ZM21.5977 4.96777V3.93262C21.5977 3.61035 21.5667 3.30599 21.5049 3.01953C21.4463 2.73307 21.36 2.4694 21.2461 2.22852C21.1419 2.01693 21.0166 1.82324 20.8701 1.64746C20.7269 1.47168 20.5592 1.32194 20.3672 1.19824C20.1751 1.06803 19.9587 0.96875 19.7178 0.900391C19.4801 0.828776 19.2246 0.792969 18.9512 0.792969C18.681 0.792969 18.4303 0.827148 18.1992 0.895508C17.9681 0.963867 17.7598 1.06152 17.5742 1.18848C17.3854 1.31868 17.2178 1.47493 17.0713 1.65723C16.9281 1.83952 16.806 2.04297 16.7051 2.26758C16.6009 2.50521 16.5212 2.764 16.4658 3.04395C16.4137 3.32389 16.3877 3.62012 16.3877 3.93262V4.96777C16.3877 5.26074 16.4105 5.53906 16.4561 5.80273C16.5049 6.06641 16.5749 6.31055 16.666 6.53516C16.7669 6.7793 16.8923 6.99902 17.042 7.19434C17.1917 7.38639 17.361 7.55078 17.5498 7.6875C17.7419 7.81771 17.9551 7.91862 18.1895 7.99023C18.4238 8.06185 18.6794 8.09766 18.9561 8.09766C19.2165 8.09766 19.459 8.0651 19.6836 8C19.9115 7.93815 20.1198 7.85026 20.3086 7.73633C20.5169 7.60612 20.7025 7.44336 20.8652 7.24805C21.028 7.05273 21.1647 6.83789 21.2754 6.60352C21.3796 6.36914 21.4593 6.11523 21.5146 5.8418C21.57 5.5651 21.5977 5.27376 21.5977 4.96777ZM20.2061 3.92285V4.96777C20.2061 5.14355 20.1963 5.31283 20.1768 5.47559C20.1605 5.63835 20.1344 5.78809 20.0986 5.9248C20.0531 6.10059 19.9912 6.25846 19.9131 6.39844C19.8382 6.53516 19.7454 6.64909 19.6348 6.74023C19.5469 6.8151 19.446 6.87207 19.332 6.91113C19.2181 6.9502 19.0928 6.96973 18.9561 6.96973C18.8128 6.96973 18.6842 6.94857 18.5703 6.90625C18.4596 6.86393 18.3604 6.80371 18.2725 6.72559C18.1781 6.6377 18.0951 6.52376 18.0234 6.38379C17.9551 6.24056 17.903 6.08268 17.8672 5.91016C17.8346 5.77344 17.8118 5.62533 17.7988 5.46582C17.7858 5.30632 17.7793 5.1403 17.7793 4.96777V3.92285C17.7793 3.74056 17.7858 3.56641 17.7988 3.40039C17.8151 3.23438 17.8395 3.08138 17.8721 2.94141C17.9144 2.75911 17.973 2.59961 18.0479 2.46289C18.126 2.32617 18.2204 2.21224 18.3311 2.12109C18.4124 2.05924 18.5036 2.01204 18.6045 1.97949C18.7087 1.94694 18.8242 1.93066 18.9512 1.93066C19.0846 1.93066 19.2051 1.94857 19.3125 1.98438C19.4232 2.02018 19.5225 2.07064 19.6104 2.13574C19.721 2.22363 19.8171 2.33757 19.8984 2.47754C19.9798 2.61426 20.0449 2.77051 20.0938 2.94629C20.1328 3.08626 20.1605 3.23926 20.1768 3.40527C20.1963 3.56803 20.2061 3.74056 20.2061 3.92285ZM28.334 6.14453C28.334 6.27148 28.3079 6.38867 28.2559 6.49609C28.2038 6.60026 28.1289 6.68978 28.0312 6.76465C27.9336 6.83952 27.8132 6.89811 27.6699 6.94043C27.5299 6.98275 27.3688 7.00391 27.1865 7.00391C26.9814 7.00391 26.7926 6.98112 26.6201 6.93555C26.4508 6.88997 26.306 6.81836 26.1855 6.7207C26.0618 6.62305 25.9658 6.49772 25.8975 6.34473C25.8291 6.19173 25.7917 6.00781 25.7852 5.79297H24.4375C24.4375 6.16081 24.5075 6.48145 24.6475 6.75488C24.7907 7.02832 24.9844 7.26595 25.2285 7.46777C25.4857 7.67285 25.7868 7.8291 26.1318 7.93652C26.4801 8.04069 26.8317 8.09277 27.1865 8.09277C27.5479 8.09277 27.8815 8.05046 28.1875 7.96582C28.4935 7.87793 28.7572 7.74935 28.9785 7.58008C29.1999 7.41406 29.3724 7.21061 29.4961 6.96973C29.623 6.72559 29.6865 6.44727 29.6865 6.13477C29.6865 5.77344 29.6035 5.45443 29.4375 5.17773C29.2715 4.90104 29.0485 4.65853 28.7686 4.4502C28.583 4.32324 28.3796 4.21094 28.1582 4.11328C27.9368 4.01562 27.7041 3.93262 27.46 3.86426C27.2321 3.80241 27.027 3.73568 26.8447 3.66406C26.6657 3.59245 26.5127 3.5127 26.3857 3.4248C26.2588 3.34017 26.1611 3.24414 26.0928 3.13672C26.0277 3.0293 25.9951 2.90885 25.9951 2.77539C25.9951 2.64844 26.0195 2.53125 26.0684 2.42383C26.1204 2.31315 26.1953 2.21712 26.293 2.13574C26.3906 2.05762 26.5094 1.9974 26.6494 1.95508C26.7926 1.90951 26.9554 1.88672 27.1377 1.88672C27.3363 1.88672 27.5088 1.91439 27.6553 1.96973C27.805 2.02181 27.9303 2.09505 28.0312 2.18945C28.1289 2.28711 28.2021 2.40267 28.251 2.53613C28.3031 2.6696 28.3324 2.81608 28.3389 2.97559H29.6768C29.6768 2.65658 29.6149 2.36361 29.4912 2.09668C29.3675 1.82975 29.195 1.59863 28.9736 1.40332C28.7523 1.21126 28.487 1.06152 28.1777 0.954102C27.8717 0.84668 27.5332 0.792969 27.1621 0.792969C26.804 0.792969 26.472 0.840169 26.166 0.93457C25.86 1.02572 25.5947 1.15755 25.3701 1.33008C25.1455 1.5026 24.9697 1.71094 24.8428 1.95508C24.7158 2.19922 24.6523 2.47103 24.6523 2.77051C24.6523 3.03092 24.6995 3.27181 24.7939 3.49316C24.8916 3.71452 25.0348 3.91634 25.2236 4.09863C25.4124 4.28092 25.6549 4.44857 25.9512 4.60156C26.2507 4.75456 26.5973 4.88477 26.9912 4.99219C27.2451 5.06055 27.4567 5.13542 27.626 5.2168C27.7985 5.29492 27.9385 5.38118 28.0459 5.47559C28.1501 5.57324 28.2233 5.67741 28.2656 5.78809C28.3112 5.89876 28.334 6.01758 28.334 6.14453ZM37.0234 4.88477V3.80078H34.1035V2.00879H37.502V0.890625H32.7266V8H37.5166V6.8916H34.1035V4.88477H37.0234Z"/>
</svg>
