<svg width="32" height="32" viewBox="0 0 32 32" xmlns="http://www.w3.org/2000/svg">
<g>
<g clip-path="url(#clip0_9594_11215)">
<path d="M19.416 16L24.5396 10.8764C25.1684 10.2476 25.1684 9.22826 24.5396 8.59901L23.4009 7.46032C22.7722 6.83159 21.7528 6.83159 21.1236 7.46032L16 12.5839L10.8764 7.46032C10.2476 6.83159 9.22826 6.83159 8.59901 7.46032L7.46032 8.59901C6.83159 9.22775 6.83159 10.2471 7.46032 10.8764L12.5839 16L7.46032 21.1236C6.83159 21.7523 6.83159 22.7717 7.46032 23.4009L8.59901 24.5396C9.22775 25.1684 10.2476 25.1684 10.8764 24.5396L16 19.416L21.1236 24.5396C21.7523 25.1684 22.7722 25.1684 23.4009 24.5396L24.5396 23.4009C25.1684 22.7722 25.1684 21.7528 24.5396 21.1236L19.416 16Z"/>
</g>
</g>
<defs>
<clipPath>
<rect width="18.0224" height="26.2144" transform="translate(6.98877 2.89282)"/>
</clipPath>
</defs>
</svg>
