<svg width="32" height="32" viewBox="0 0 32 32" xmlns="http://www.w3.org/2000/svg">
<g>
<g clip-path="url(#clip0_9594_11171)">
<path d="M26.6496 4.53111H20.5056L20.0244 3.57367C19.9224 3.36898 19.7654 3.1968 19.5709 3.0765C19.3764 2.95619 19.1522 2.89255 18.9236 2.89271H13.0714C12.8433 2.89183 12.6195 2.95524 12.4257 3.07568C12.2319 3.19611 12.076 3.3687 11.9757 3.57367L11.4944 4.53111H5.35045C5.13318 4.53111 4.92482 4.61742 4.77119 4.77105C4.61756 4.92468 4.53125 5.13304 4.53125 5.35031V6.98871C4.53125 7.20597 4.61756 7.41434 4.77119 7.56797C4.92482 7.7216 5.13318 7.80791 5.35045 7.80791H26.6496C26.8669 7.80791 27.0753 7.7216 27.2289 7.56797C27.3825 7.41434 27.4688 7.20597 27.4688 6.98871V5.35031C27.4688 5.13304 27.3825 4.92468 27.2289 4.77105C27.0753 4.61742 26.8669 4.53111 26.6496 4.53111V4.53111ZM7.25509 26.8031C7.29416 27.427 7.56954 28.0126 8.02517 28.4407C8.48079 28.8687 9.08242 29.107 9.70757 29.1071H22.2925C22.9177 29.107 23.5193 28.8687 23.9749 28.4407C24.4306 28.0126 24.7059 27.427 24.745 26.8031L25.8304 9.44631H6.16965L7.25509 26.8031Z"/>
</g>
</g>
<defs>
<clipPath>
<rect width="22.9376" height="26.2144" transform="translate(4.53125 2.89282)"/>
</clipPath>
</defs>
</svg>
