<svg width="32" height="32" viewBox="0 0 32 32" xmlns="http://www.w3.org/2000/svg">
<g>
<g clip-path="url(#clip0_9594_11165)">
<path d="M13.9518 2.89282H18.0478C18.7287 2.89282 19.2766 3.44066 19.2766 4.12162V12.7232H23.7668C24.6782 12.7232 25.1339 13.824 24.4887 14.4691L16.7012 22.2618C16.3172 22.6458 15.6875 22.6458 15.3035 22.2618L7.5057 14.4691C6.86058 13.824 7.31626 12.7232 8.22762 12.7232H12.723V4.12162C12.723 3.44066 13.2708 2.89282 13.9518 2.89282ZM29.107 22.144V27.8784C29.107 28.5594 28.5591 29.1072 27.8782 29.1072H4.12138C3.44042 29.1072 2.89258 28.5594 2.89258 27.8784V22.144C2.89258 21.4631 3.44042 20.9152 4.12138 20.9152H11.6324L14.1412 23.424C15.1703 24.4531 16.8292 24.4531 17.8583 23.424L20.3671 20.9152H27.8782C28.5591 20.9152 29.107 21.4631 29.107 22.144ZM22.7582 26.6496C22.7582 26.0864 22.2974 25.6256 21.7342 25.6256C21.171 25.6256 20.7102 26.0864 20.7102 26.6496C20.7102 27.2128 21.171 27.6736 21.7342 27.6736C22.2974 27.6736 22.7582 27.2128 22.7582 26.6496ZM26.035 26.6496C26.035 26.0864 25.5742 25.6256 25.011 25.6256C24.4478 25.6256 23.987 26.0864 23.987 26.6496C23.987 27.2128 24.4478 27.6736 25.011 27.6736C25.5742 27.6736 26.035 27.2128 26.035 26.6496Z"/>
</g>
</g>
<defs>
<clipPath>
<rect width="26.2144" height="26.2144" transform="translate(2.89258 2.89282)"/>
</clipPath>
</defs>
</svg>
