<svg width="32" height="32" viewBox="0 0 32 32" xmlns="http://www.w3.org/2000/svg">
<g>
<g clip-path="url(#clip0_9594_11173)">
<path d="M21.8675 7.15254L26.4858 11.7708C26.6803 11.9653 26.6803 12.2828 26.4858 12.4773L15.3037 23.6594L10.5523 24.1868C9.91743 24.2584 9.37983 23.7208 9.45151 23.086L9.97887 18.3346L21.161 7.15254C21.3555 6.95798 21.673 6.95798 21.8675 7.15254ZM30.1619 5.98006L27.6634 3.48151C26.8851 2.70327 25.6205 2.70327 24.8371 3.48151L23.0246 5.29398C22.8301 5.48854 22.8301 5.80598 23.0246 6.00054L27.6429 10.6188C27.8374 10.8133 28.1549 10.8133 28.3494 10.6188L30.1619 8.8063C30.9402 8.02294 30.9402 6.7583 30.1619 5.98006V5.98006ZM20.9152 20.6181V25.8303H4.53119V9.4463H16.297C16.4608 9.4463 16.6144 9.37974 16.7322 9.2671L18.7802 7.2191C19.1693 6.82998 18.8928 6.1695 18.345 6.1695H3.71199C2.35519 6.1695 1.25439 7.2703 1.25439 8.6271V26.6495C1.25439 28.0063 2.35519 29.1071 3.71199 29.1071H21.7344C23.0912 29.1071 24.192 28.0063 24.192 26.6495V18.5701C24.192 18.0223 23.5315 17.7509 23.1424 18.1349L21.0944 20.1829C20.9818 20.3007 20.9152 20.4543 20.9152 20.6181Z"/>
</g>
</g>
<defs>
<clipPath>
<rect width="29.4912" height="26.2144" transform="translate(1.25439 2.89282)"/>
</clipPath>
</defs>
</svg>
