<svg width="62" height="8" viewBox="0 0 62 8" xmlns="http://www.w3.org/2000/svg">
<path d="M4.99121 4.88477V3.80078H2.07129V2.00879H5.46973V0.890625H0.694336V8H5.48438V6.8916H2.07129V4.88477H4.99121ZM13.3096 8V0.890625H11.9326L11.9277 5.45605L9.96484 0.890625H8.58301V8H9.96484V3.41504L11.9424 8H13.3096ZM16.5986 8H18.5078C18.8236 8 19.1198 7.96094 19.3965 7.88281C19.6764 7.80469 19.932 7.69238 20.1631 7.5459C20.3617 7.4222 20.5439 7.26921 20.71 7.08691C20.876 6.90137 21.0208 6.69954 21.1445 6.48145C21.2747 6.2373 21.3757 5.96875 21.4473 5.67578C21.5189 5.38281 21.5547 5.07194 21.5547 4.74316V4.15723C21.5547 3.81543 21.5156 3.49316 21.4375 3.19043C21.3626 2.8877 21.2552 2.611 21.1152 2.36035C20.9948 2.15527 20.8532 1.96647 20.6904 1.79395C20.5309 1.61816 20.3486 1.47005 20.1436 1.34961C19.9092 1.20312 19.6488 1.09082 19.3623 1.0127C19.0758 0.931315 18.7682 0.890625 18.4395 0.890625H16.5986V8ZM17.9805 2.00391H18.4395C18.6055 2.00391 18.7585 2.02344 18.8984 2.0625C19.0417 2.09831 19.1719 2.15039 19.2891 2.21875C19.4421 2.3099 19.5755 2.42708 19.6895 2.57031C19.8066 2.71354 19.901 2.8763 19.9727 3.05859C20.0312 3.21159 20.0752 3.38086 20.1045 3.56641C20.137 3.7487 20.1533 3.94238 20.1533 4.14746V4.74316C20.1533 4.96126 20.137 5.16471 20.1045 5.35352C20.0752 5.53906 20.0312 5.70833 19.9727 5.86133C19.901 6.03711 19.8148 6.19173 19.7139 6.3252C19.6162 6.4554 19.5055 6.56283 19.3818 6.64746C19.2614 6.72884 19.1279 6.79069 18.9814 6.83301C18.835 6.87533 18.6771 6.89648 18.5078 6.89648H17.9805V2.00391ZM29.4385 5.41211V4.31348H25.3711V5.41211H29.4385ZM32.6104 8H34.5195C34.8353 8 35.1315 7.96094 35.4082 7.88281C35.6882 7.80469 35.9437 7.69238 36.1748 7.5459C36.3734 7.4222 36.5557 7.26921 36.7217 7.08691C36.8877 6.90137 37.0326 6.69954 37.1562 6.48145C37.2865 6.2373 37.3874 5.96875 37.459 5.67578C37.5306 5.38281 37.5664 5.07194 37.5664 4.74316V4.15723C37.5664 3.81543 37.5273 3.49316 37.4492 3.19043C37.3743 2.8877 37.2669 2.611 37.127 2.36035C37.0065 2.15527 36.8649 1.96647 36.7021 1.79395C36.5426 1.61816 36.3604 1.47005 36.1553 1.34961C35.9209 1.20312 35.6605 1.09082 35.374 1.0127C35.0876 0.931315 34.7799 0.890625 34.4512 0.890625H32.6104V8ZM33.9922 2.00391H34.4512C34.6172 2.00391 34.7702 2.02344 34.9102 2.0625C35.0534 2.09831 35.1836 2.15039 35.3008 2.21875C35.4538 2.3099 35.5872 2.42708 35.7012 2.57031C35.8184 2.71354 35.9128 2.8763 35.9844 3.05859C36.043 3.21159 36.0869 3.38086 36.1162 3.56641C36.1488 3.7487 36.165 3.94238 36.165 4.14746V4.74316C36.165 4.96126 36.1488 5.16471 36.1162 5.35352C36.0869 5.53906 36.043 5.70833 35.9844 5.86133C35.9128 6.03711 35.8265 6.19173 35.7256 6.3252C35.6279 6.4554 35.5173 6.56283 35.3936 6.64746C35.2731 6.72884 35.1396 6.79069 34.9932 6.83301C34.8467 6.87533 34.6888 6.89648 34.5195 6.89648H33.9922V2.00391ZM44.1416 6.51562L44.5566 8H46.002L43.7168 0.890625H42.4717L40.1426 8H41.5879L42.0078 6.51562H44.1416ZM42.3447 5.34863L43.0918 2.73145L43.8193 5.34863H42.3447ZM53.876 2.00879V0.890625H48.1436V2.00879H50.3066V8H51.6836V2.00879H53.876ZM61.0322 4.88477V3.80078H58.1123V2.00879H61.5107V0.890625H56.7354V8H61.5254V6.8916H58.1123V4.88477H61.0322Z"/>
</svg>
