<svg width="32" height="32" viewBox="0 0 32 32" xmlns="http://www.w3.org/2000/svg">
<g>
<g>
<path d="M28.6974 16C28.6974 23.0142 23.012 28.6976 15.9998 28.6976C8.98765 28.6976 3.30225 23.0142 3.30225 16C3.30225 8.98982 8.98765 3.30237 15.9998 3.30237C23.012 3.30237 28.6974 8.98982 28.6974 16ZM15.9998 18.56C14.6991 18.56 13.6446 19.6144 13.6446 20.9152C13.6446 22.2159 14.6991 23.2704 15.9998 23.2704C17.3006 23.2704 18.355 22.2159 18.355 20.9152C18.355 19.6144 17.3006 18.56 15.9998 18.56ZM13.7638 10.0943L14.1436 17.0575C14.1614 17.3833 14.4308 17.6384 14.7571 17.6384H17.2426C17.5689 17.6384 17.8383 17.3833 17.8561 17.0575L18.2359 10.0943C18.2551 9.74231 17.9749 9.44637 17.6224 9.44637H14.3772C14.0248 9.44637 13.7446 9.74231 13.7638 10.0943V10.0943Z"/>
</g>
</g>
</svg>
