<svg width="46" height="9" viewBox="0 0 46 9" xmlns="http://www.w3.org/2000/svg">
<path id="FA Pro" d="M5.13379 5.05566V3.94238H2.08691V2.00879H5.51465V0.890625H0.709961V8H2.08691V5.05566H5.13379ZM12.124 6.51562L12.5391 8H13.9844L11.6992 0.890625H10.4541L8.125 8H9.57031L9.99023 6.51562H12.124ZM10.3271 5.34863L11.0742 2.73145L11.8018 5.34863H10.3271ZM26.0996 5.39258H27.1592C27.5465 5.39258 27.8965 5.33724 28.209 5.22656C28.5215 5.11589 28.7884 4.96126 29.0098 4.7627C29.2279 4.56738 29.3955 4.33464 29.5127 4.06445C29.6331 3.79427 29.6934 3.49967 29.6934 3.18066C29.6934 2.83887 29.6331 2.52799 29.5127 2.24805C29.3955 1.9681 29.2279 1.72721 29.0098 1.52539C28.7884 1.32682 28.5215 1.1722 28.209 1.06152C27.8965 0.947591 27.5465 0.890625 27.1592 0.890625H24.7275V8H26.0996V5.39258ZM26.0996 4.2793V2.00391H27.1592C27.3545 2.00391 27.5238 2.03483 27.667 2.09668C27.8102 2.15853 27.9307 2.24316 28.0283 2.35059C28.1227 2.45801 28.1927 2.58333 28.2383 2.72656C28.2871 2.86979 28.3115 3.02441 28.3115 3.19043C28.3115 3.33366 28.2871 3.47201 28.2383 3.60547C28.1927 3.73568 28.1227 3.85124 28.0283 3.95215C27.9307 4.05306 27.8102 4.13281 27.667 4.19141C27.5238 4.25 27.3545 4.2793 27.1592 4.2793H26.0996ZM35.0576 5.34375L36.3955 8H37.8652V7.93652L36.3369 5.00195C36.5322 4.91406 36.708 4.8099 36.8643 4.68945C37.0238 4.56901 37.1605 4.42741 37.2744 4.26465C37.3851 4.10514 37.4697 3.92448 37.5283 3.72266C37.5902 3.51758 37.6211 3.28809 37.6211 3.03418C37.6211 2.68262 37.5592 2.37337 37.4355 2.10645C37.3151 1.83952 37.1426 1.61654 36.918 1.4375C36.6901 1.25846 36.4167 1.12337 36.0977 1.03223C35.7786 0.937826 35.4222 0.890625 35.0283 0.890625H32.6455V8H34.0176V5.34375H35.0576ZM34.0176 4.23047V2.00391H35.0283C35.2171 2.00391 35.3848 2.02669 35.5312 2.07227C35.6777 2.11784 35.8014 2.18294 35.9023 2.26758C36.0163 2.36198 36.1009 2.48242 36.1562 2.62891C36.2148 2.77214 36.2441 2.93815 36.2441 3.12695C36.2441 3.2832 36.2214 3.4248 36.1758 3.55176C36.1335 3.67871 36.07 3.78776 35.9854 3.87891C35.8844 3.99284 35.7526 4.08073 35.5898 4.14258C35.4303 4.20117 35.2448 4.23047 35.0332 4.23047H34.0176ZM45.6123 4.96777V3.93262C45.6123 3.61035 45.5814 3.30599 45.5195 3.01953C45.4609 2.73307 45.3747 2.4694 45.2607 2.22852C45.1566 2.01693 45.0312 1.82324 44.8848 1.64746C44.7415 1.47168 44.5739 1.32194 44.3818 1.19824C44.1898 1.06803 43.9733 0.96875 43.7324 0.900391C43.4948 0.828776 43.2393 0.792969 42.9658 0.792969C42.6956 0.792969 42.445 0.827148 42.2139 0.895508C41.9827 0.963867 41.7744 1.06152 41.5889 1.18848C41.4001 1.31868 41.2324 1.47493 41.0859 1.65723C40.9427 1.83952 40.8206 2.04297 40.7197 2.26758C40.6156 2.50521 40.5358 2.764 40.4805 3.04395C40.4284 3.32389 40.4023 3.62012 40.4023 3.93262V4.96777C40.4023 5.26074 40.4251 5.53906 40.4707 5.80273C40.5195 6.06641 40.5895 6.31055 40.6807 6.53516C40.7816 6.7793 40.9069 6.99902 41.0566 7.19434C41.2064 7.38639 41.3757 7.55078 41.5645 7.6875C41.7565 7.81771 41.9697 7.91862 42.2041 7.99023C42.4385 8.06185 42.694 8.09766 42.9707 8.09766C43.2311 8.09766 43.4736 8.0651 43.6982 8C43.9261 7.93815 44.1344 7.85026 44.3232 7.73633C44.5316 7.60612 44.7171 7.44336 44.8799 7.24805C45.0426 7.05273 45.1794 6.83789 45.29 6.60352C45.3942 6.36914 45.474 6.11523 45.5293 5.8418C45.5846 5.5651 45.6123 5.27376 45.6123 4.96777ZM44.2207 3.92285V4.96777C44.2207 5.14355 44.2109 5.31283 44.1914 5.47559C44.1751 5.63835 44.1491 5.78809 44.1133 5.9248C44.0677 6.10059 44.0059 6.25846 43.9277 6.39844C43.8529 6.53516 43.7601 6.64909 43.6494 6.74023C43.5615 6.8151 43.4606 6.87207 43.3467 6.91113C43.2327 6.9502 43.1074 6.96973 42.9707 6.96973C42.8275 6.96973 42.6989 6.94857 42.585 6.90625C42.4743 6.86393 42.375 6.80371 42.2871 6.72559C42.1927 6.6377 42.1097 6.52376 42.0381 6.38379C41.9697 6.24056 41.9176 6.08268 41.8818 5.91016C41.8493 5.77344 41.8265 5.62533 41.8135 5.46582C41.8005 5.30632 41.7939 5.1403 41.7939 4.96777V3.92285C41.7939 3.74056 41.8005 3.56641 41.8135 3.40039C41.8298 3.23438 41.8542 3.08138 41.8867 2.94141C41.929 2.75911 41.9876 2.59961 42.0625 2.46289C42.1406 2.32617 42.235 2.21224 42.3457 2.12109C42.4271 2.05924 42.5182 2.01204 42.6191 1.97949C42.7233 1.94694 42.8389 1.93066 42.9658 1.93066C43.0993 1.93066 43.2197 1.94857 43.3271 1.98438C43.4378 2.02018 43.5371 2.07064 43.625 2.13574C43.7357 2.22363 43.8317 2.33757 43.9131 2.47754C43.9945 2.61426 44.0596 2.77051 44.1084 2.94629C44.1475 3.08626 44.1751 3.23926 44.1914 3.40527C44.2109 3.56803 44.2207 3.74056 44.2207 3.92285Z"/>
</svg>
