<svg width="32" height="32" viewBox="0 0 32 32" xmlns="http://www.w3.org/2000/svg">
<g>
<g>
<path d="M28.6974 16.0001C28.6974 23.0143 23.012 28.6977 15.9998 28.6977C8.98765 28.6977 3.30225 23.0143 3.30225 16.0001C3.30225 8.98994 8.98765 3.30249 15.9998 3.30249C23.012 3.30249 28.6974 8.98994 28.6974 16.0001ZM16.3406 7.50089C13.5503 7.50089 11.7707 8.67629 10.3733 10.7653C10.1922 11.0359 10.2528 11.4009 10.5123 11.5977L12.2889 12.9448C12.5554 13.1469 12.9351 13.0988 13.1421 12.8361C14.0568 11.676 14.6839 11.0033 16.076 11.0033C17.122 11.0033 18.4158 11.6765 18.4158 12.6908C18.4158 13.4576 17.7828 13.8513 16.75 14.4304C15.5456 15.1055 13.9518 15.9459 13.9518 18.0481V18.2529C13.9518 18.5922 14.2269 18.8673 14.5662 18.8673H17.4334C17.7728 18.8673 18.0478 18.5922 18.0478 18.2529V18.1846C18.0478 16.7274 22.307 16.6667 22.307 12.7233C22.307 9.75359 19.2265 7.50089 16.3406 7.50089V7.50089ZM15.9998 20.1985C14.7012 20.1985 13.6446 21.255 13.6446 22.5537C13.6446 23.8523 14.7012 24.9089 15.9998 24.9089C17.2985 24.9089 18.355 23.8523 18.355 22.5537C18.355 21.255 17.2985 20.1985 15.9998 20.1985Z"/>
</g>
</g>
</svg>
