<svg width="32" height="32" viewBox="0 0 32 32" xmlns="http://www.w3.org/2000/svg">
<g>
<g>
<path d="M15.9998 3.30249C8.98765 3.30249 3.30225 8.98994 3.30225 16.0001C3.30225 23.0143 8.98765 28.6977 15.9998 28.6977C23.012 28.6977 28.6974 23.0143 28.6974 16.0001C28.6974 8.98994 23.012 3.30249 15.9998 3.30249ZM15.9998 8.93449C17.1875 8.93449 18.1502 9.89726 18.1502 11.0849C18.1502 12.2725 17.1875 13.2353 15.9998 13.2353C14.8122 13.2353 13.8494 12.2725 13.8494 11.0849C13.8494 9.89726 14.8122 8.93449 15.9998 8.93449ZM18.867 21.9393C18.867 22.2786 18.592 22.5537 18.2526 22.5537H13.747C13.4077 22.5537 13.1326 22.2786 13.1326 21.9393V20.7105C13.1326 20.3712 13.4077 20.0961 13.747 20.0961H14.3614V16.8193H13.747C13.4077 16.8193 13.1326 16.5442 13.1326 16.2049V14.9761C13.1326 14.6368 13.4077 14.3617 13.747 14.3617H17.0238C17.3632 14.3617 17.6382 14.6368 17.6382 14.9761V20.0961H18.2526C18.592 20.0961 18.867 20.3712 18.867 20.7105V21.9393Z"/>
</g>
</g>
</svg>
