<svg width="32" height="32" viewBox="0 0 32 32" xmlns="http://www.w3.org/2000/svg">
<g>
<g clip-path="url(#clip0_9594_11217)">
<path d="M28.6103 12.6618C28.81 12.5031 29.107 12.6516 29.107 12.9025V23.3729C29.107 24.7297 28.0062 25.8305 26.6494 25.8305H5.35018C3.99338 25.8305 2.89258 24.7297 2.89258 23.3729V12.9076C2.89258 12.6516 3.18442 12.5082 3.38922 12.667C4.5361 13.5578 6.05674 14.6894 11.2791 18.4833C12.3595 19.2718 14.1822 20.9306 15.9998 20.9204C17.8276 20.9358 19.6862 19.241 20.7255 18.4833C25.9479 14.6894 27.4635 13.5527 28.6103 12.6618ZM15.9998 19.2769C17.1876 19.2974 18.8977 17.7818 19.7579 17.1572C26.5521 12.2266 27.0692 11.7966 28.6359 10.5678C28.9329 10.3374 29.107 9.97896 29.107 9.60008V8.62728C29.107 7.27048 28.0062 6.16968 26.6494 6.16968H5.35018C3.99338 6.16968 2.89258 7.27048 2.89258 8.62728V9.60008C2.89258 9.97896 3.06666 10.3322 3.36362 10.5678C4.93034 11.7914 5.44746 12.2266 12.2417 17.1572C13.1019 17.7818 14.8119 19.2974 15.9998 19.2769Z"/>
</g>
</g>
<defs>
<clipPath>
<rect width="26.2144" height="26.2144" transform="translate(2.89258 2.89282)"/>
</clipPath>
</defs>
</svg>
