<svg width="32" height="32" viewBox="0 0 32 32" xmlns="http://www.w3.org/2000/svg">
<g>
<g clip-path="url(#clip0_9594_11151)">
<path d="M28.5485 23.1527L22.553 17.1571C21.3703 15.9744 19.6039 15.744 18.1805 16.4455L12.7226 10.9875V7.80802L6.16901 2.89282L2.89221 6.16962L7.80741 12.7232H10.9869L16.4448 18.1811C15.7485 19.6045 15.9738 21.3709 17.1565 22.5536L23.152 28.5491C23.8996 29.2967 25.1079 29.2967 25.8503 28.5491L28.5485 25.8509C29.2909 25.1034 29.2909 23.8951 28.5485 23.1527V23.1527ZM19.8752 14.4128C21.3242 14.4128 22.6861 14.976 23.7101 16L24.7034 16.9933C25.5124 16.64 26.2804 16.1485 26.946 15.4829C28.8455 13.5834 29.4906 10.9107 28.8864 8.48386C28.7738 8.02306 28.1952 7.86434 27.8573 8.20226L24.048 12.0115L20.5716 11.433L19.993 7.9565L23.8023 4.14722C24.1402 3.8093 23.9764 3.23074 23.5104 3.11298C21.0836 2.51394 18.4109 3.15906 16.5165 5.05346C15.0573 6.51266 14.3712 8.43778 14.4071 10.3578L18.6106 14.5613C19.0253 14.464 19.4554 14.4128 19.8752 14.4128ZM14.5556 18.6112L11.6525 15.7082L3.84965 23.5162C2.56965 24.7962 2.56965 26.8698 3.84965 28.1498C5.12965 29.4298 7.20325 29.4298 8.48325 28.1498L14.8116 21.8215C14.4224 20.8026 14.3047 19.6915 14.5556 18.6112V18.6112ZM6.16901 27.0592C5.49317 27.0592 4.94021 26.5063 4.94021 25.8304C4.94021 25.1495 5.48805 24.6016 6.16901 24.6016C6.84997 24.6016 7.39781 25.1495 7.39781 25.8304C7.39781 26.5063 6.84997 27.0592 6.16901 27.0592Z"/>
</g>
</g>
<defs>
<clipPath>
<rect width="26.2144" height="26.2144" transform="translate(2.89258 2.89282)"/>
</clipPath>
</defs>
</svg>
