<svg width="32" height="32" viewBox="0 0 32 32" xmlns="http://www.w3.org/2000/svg">
<g>
<g clip-path="url(#clip0_9594_11213)">
<path d="M5.35045 9.65124H26.6496C27.1021 9.65124 27.4688 9.2845 27.4688 8.83204V6.78404C27.4688 6.33159 27.1021 5.96484 26.6496 5.96484H5.35045C4.898 5.96484 4.53125 6.33159 4.53125 6.78404V8.83204C4.53125 9.2845 4.898 9.65124 5.35045 9.65124ZM5.35045 17.8432H26.6496C27.1021 17.8432 27.4688 17.4765 27.4688 17.024V14.976C27.4688 14.5236 27.1021 14.1568 26.6496 14.1568H5.35045C4.898 14.1568 4.53125 14.5236 4.53125 14.976V17.024C4.53125 17.4765 4.898 17.8432 5.35045 17.8432ZM5.35045 26.0352H26.6496C27.1021 26.0352 27.4688 25.6685 27.4688 25.216V23.168C27.4688 22.7156 27.1021 22.3488 26.6496 22.3488H5.35045C4.898 22.3488 4.53125 22.7156 4.53125 23.168V25.216C4.53125 25.6685 4.898 26.0352 5.35045 26.0352Z"/>
</g>
</g>
<defs>
<clipPath>
<rect width="22.9376" height="26.2144" transform="translate(4.53125 2.89282)"/>
</clipPath>
</defs>
</svg>
