<svg width="32" height="32" viewBox="0 0 32 32" xmlns="http://www.w3.org/2000/svg">
<g>
<g>
<path d="M16.0004 12.3137C18.0381 12.3137 19.6868 13.9623 19.6868 16.0001C19.6868 18.0379 18.0381 19.6865 16.0004 19.6865C13.9626 19.6865 12.314 18.0379 12.314 16.0001C12.314 13.9623 13.9626 12.3137 16.0004 12.3137ZM12.314 6.98889C12.314 9.02665 13.9626 10.6753 16.0004 10.6753C18.0381 10.6753 19.6868 9.02665 19.6868 6.98889C19.6868 4.95113 18.0381 3.30249 16.0004 3.30249C13.9626 3.30249 12.314 4.95113 12.314 6.98889ZM12.314 25.0113C12.314 27.0491 13.9626 28.6977 16.0004 28.6977C18.0381 28.6977 19.6868 27.0491 19.6868 25.0113C19.6868 22.9735 18.0381 21.3249 16.0004 21.3249C13.9626 21.3249 12.314 22.9735 12.314 25.0113Z"/>
</g>
</g>
</svg>
