<svg width="102" height="9" viewBox="0 0 102 9" xmlns="http://www.w3.org/2000/svg">
<path id="not available" d="M5.28906 8V0.890625H3.91211L3.90723 5.45605L1.94434 0.890625H0.5625V8H1.94434V3.41504L3.92188 8H5.28906ZM13.5684 4.96777V3.93262C13.5684 3.61035 13.5374 3.30599 13.4756 3.01953C13.417 2.73307 13.3307 2.4694 13.2168 2.22852C13.1126 2.01693 12.9873 1.82324 12.8408 1.64746C12.6976 1.47168 12.5299 1.32194 12.3379 1.19824C12.1458 1.06803 11.9294 0.96875 11.6885 0.900391C11.4508 0.828776 11.1953 0.792969 10.9219 0.792969C10.6517 0.792969 10.401 0.827148 10.1699 0.895508C9.9388 0.963867 9.73047 1.06152 9.54492 1.18848C9.35612 1.31868 9.18848 1.47493 9.04199 1.65723C8.89876 1.83952 8.77669 2.04297 8.67578 2.26758C8.57161 2.50521 8.49186 2.764 8.43652 3.04395C8.38444 3.32389 8.3584 3.62012 8.3584 3.93262V4.96777C8.3584 5.26074 8.38118 5.53906 8.42676 5.80273C8.47559 6.06641 8.54557 6.31055 8.63672 6.53516C8.73763 6.7793 8.86296 6.99902 9.0127 7.19434C9.16243 7.38639 9.33171 7.55078 9.52051 7.6875C9.71257 7.81771 9.92578 7.91862 10.1602 7.99023C10.3945 8.06185 10.6501 8.09766 10.9268 8.09766C11.1872 8.09766 11.4297 8.0651 11.6543 8C11.8822 7.93815 12.0905 7.85026 12.2793 7.73633C12.4876 7.60612 12.6732 7.44336 12.8359 7.24805C12.9987 7.05273 13.1354 6.83789 13.2461 6.60352C13.3503 6.36914 13.43 6.11523 13.4854 5.8418C13.5407 5.5651 13.5684 5.27376 13.5684 4.96777ZM12.1768 3.92285V4.96777C12.1768 5.14355 12.167 5.31283 12.1475 5.47559C12.1312 5.63835 12.1051 5.78809 12.0693 5.9248C12.0238 6.10059 11.9619 6.25846 11.8838 6.39844C11.8089 6.53516 11.7161 6.64909 11.6055 6.74023C11.5176 6.8151 11.4167 6.87207 11.3027 6.91113C11.1888 6.9502 11.0635 6.96973 10.9268 6.96973C10.7835 6.96973 10.6549 6.94857 10.541 6.90625C10.4303 6.86393 10.3311 6.80371 10.2432 6.72559C10.1488 6.6377 10.0658 6.52376 9.99414 6.38379C9.92578 6.24056 9.8737 6.08268 9.83789 5.91016C9.80534 5.77344 9.78255 5.62533 9.76953 5.46582C9.75651 5.30632 9.75 5.1403 9.75 4.96777V3.92285C9.75 3.74056 9.75651 3.56641 9.76953 3.40039C9.78581 3.23438 9.81022 3.08138 9.84277 2.94141C9.88509 2.75911 9.94368 2.59961 10.0186 2.46289C10.0967 2.32617 10.1911 2.21224 10.3018 2.12109C10.3831 2.05924 10.4743 2.01204 10.5752 1.97949C10.6794 1.94694 10.7949 1.93066 10.9219 1.93066C11.0553 1.93066 11.1758 1.94857 11.2832 1.98438C11.3939 2.02018 11.4932 2.07064 11.5811 2.13574C11.6917 2.22363 11.7878 2.33757 11.8691 2.47754C11.9505 2.61426 12.0156 2.77051 12.0645 2.94629C12.1035 3.08626 12.1312 3.23926 12.1475 3.40527C12.167 3.56803 12.1768 3.74056 12.1768 3.92285ZM21.8379 2.00879V0.890625H16.1055V2.00879H18.2686V8H19.6455V2.00879H21.8379ZM36.1211 6.51562L36.5361 8H37.9814L35.6963 0.890625H34.4512L32.1221 8H33.5674L33.9873 6.51562H36.1211ZM34.3242 5.34863L35.0713 2.73145L35.7988 5.34863H34.3242ZM42.291 8H43.6875L45.8408 0.890625H44.3271L43.1162 5.5293L42.9844 6.0127L42.8623 5.53418L41.6562 0.890625H40.1426L42.291 8ZM52.1328 6.51562L52.5479 8H53.9932L51.708 0.890625H50.4629L48.1338 8H49.5791L49.999 6.51562H52.1328ZM50.3359 5.34863L51.083 2.73145L51.8105 5.34863H50.3359ZM56.9453 0.890625V1.99902H58.2979V6.89648H56.9453V8H61.0566V6.89648H59.6699V1.99902H61.0566V0.890625H56.9453ZM66.1182 6.8916V0.890625H64.7412V8H69.4482V6.8916H66.1182ZM76.1504 6.51562L76.5654 8H78.0107L75.7256 0.890625H74.4805L72.1514 8H73.5967L74.0166 6.51562H76.1504ZM74.3535 5.34863L75.1006 2.73145L75.8281 5.34863H74.3535ZM80.6504 8H83.2432C83.6338 8 83.9854 7.95605 84.2979 7.86816C84.6104 7.78027 84.8757 7.64844 85.0938 7.47266C85.3118 7.29688 85.4795 7.07878 85.5967 6.81836C85.7139 6.55794 85.7725 6.25684 85.7725 5.91504C85.7725 5.736 85.748 5.56348 85.6992 5.39746C85.6536 5.22819 85.582 5.07194 85.4844 4.92871C85.39 4.79525 85.2728 4.67806 85.1328 4.57715C84.9961 4.47624 84.8105 4.39323 84.5762 4.32812V4.32324C84.6966 4.27767 84.8057 4.22233 84.9033 4.15723C85.0042 4.09212 85.0938 4.02051 85.1719 3.94238C85.3151 3.79915 85.4225 3.63314 85.4941 3.44434C85.569 3.25228 85.6081 3.04883 85.6113 2.83398C85.6113 2.50195 85.5495 2.21387 85.4258 1.96973C85.3053 1.72559 85.1328 1.52376 84.9082 1.36426C84.6836 1.20475 84.4118 1.08594 84.0928 1.00781C83.777 0.929688 83.4255 0.890625 83.0381 0.890625H80.6504V8ZM82.0273 4.86523H83.3066C83.4987 4.86849 83.6647 4.89453 83.8047 4.94336C83.9447 4.99219 84.0586 5.06217 84.1465 5.15332C84.2344 5.24121 84.2979 5.34863 84.3369 5.47559C84.3792 5.60254 84.4004 5.74577 84.4004 5.90527C84.4004 6.05827 84.3727 6.19661 84.3174 6.32031C84.2653 6.44401 84.1872 6.5498 84.083 6.6377C83.9886 6.71582 83.8698 6.77767 83.7266 6.82324C83.5866 6.86882 83.4271 6.8916 83.248 6.8916H82.0273V4.86523ZM82.0273 3.87402V2.00879H83.043C83.2643 2.01204 83.4564 2.03646 83.6191 2.08203C83.7852 2.1276 83.917 2.20085 84.0146 2.30176C84.0895 2.37337 84.1449 2.46289 84.1807 2.57031C84.2197 2.67773 84.2393 2.80306 84.2393 2.94629C84.2393 3.08301 84.2165 3.20508 84.1709 3.3125C84.1286 3.41992 84.0667 3.51107 83.9854 3.58594C83.8877 3.68034 83.7591 3.75195 83.5996 3.80078C83.4401 3.84635 83.2562 3.87077 83.0479 3.87402H82.0273ZM90.1357 6.8916V0.890625H88.7588V8H93.4658V6.8916H90.1357ZM101.047 4.88477V3.80078H98.127V2.00879H101.525V0.890625H96.75V8H101.54V6.8916H98.127V4.88477H101.047Z"/>
</svg>
