<svg width="32" height="32" viewBox="0 0 32 32" xmlns="http://www.w3.org/2000/svg">
<g>
<g clip-path="url(#clip0_9594_11161)">
<path d="M15.9996 29.1072C17.808 29.1072 19.2748 27.6403 19.2748 25.8304H12.7243C12.7243 27.6403 14.1912 29.1072 15.9996 29.1072ZM27.0275 21.4421C26.0384 20.3792 24.1875 18.7802 24.1875 13.5424C24.1875 9.56418 21.3981 6.37954 17.637 5.59823V4.53122C17.637 3.62652 16.9038 2.89282 15.9996 2.89282C15.0954 2.89282 14.3622 3.62652 14.3622 4.53122V5.59823C10.6011 6.37954 7.81169 9.56418 7.81169 13.5424C7.81169 18.7802 5.96081 20.3792 4.97163 21.4421C4.66443 21.7723 4.52824 22.1671 4.5308 22.5536C4.53643 23.3933 5.19537 24.192 6.17431 24.192H25.8249C26.8038 24.192 27.4632 23.3933 27.4684 22.5536C27.4709 22.1671 27.3347 21.7718 27.0275 21.4421V21.4421Z"/>
</g>
</g>
<defs>
<clipPath>
<rect width="22.9376" height="26.2144" transform="translate(4.53125 2.89282)"/>
</clipPath>
</defs>
</svg>
