<svg width="46" height="9" viewBox="0 0 46 9" xmlns="http://www.w3.org/2000/svg">
<path d="M5.58301 4.96777V3.93262C5.58301 3.61035 5.55208 3.30599 5.49023 3.01953C5.43164 2.73307 5.34538 2.4694 5.23145 2.22852C5.12728 2.01693 5.00195 1.82324 4.85547 1.64746C4.71224 1.47168 4.5446 1.32194 4.35254 1.19824C4.16048 1.06803 3.94401 0.96875 3.70312 0.900391C3.46549 0.828776 3.20996 0.792969 2.93652 0.792969C2.66634 0.792969 2.41569 0.827148 2.18457 0.895508C1.95345 0.963867 1.74512 1.06152 1.55957 1.18848C1.37077 1.31868 1.20312 1.47493 1.05664 1.65723C0.913411 1.83952 0.791341 2.04297 0.69043 2.26758C0.586263 2.50521 0.50651 2.764 0.451172 3.04395C0.399089 3.32389 0.373047 3.62012 0.373047 3.93262V4.96777C0.373047 5.26074 0.395833 5.53906 0.441406 5.80273C0.490234 6.06641 0.560221 6.31055 0.651367 6.53516C0.752279 6.7793 0.877604 6.99902 1.02734 7.19434C1.17708 7.38639 1.34635 7.55078 1.53516 7.6875C1.72721 7.81771 1.94043 7.91862 2.1748 7.99023C2.40918 8.06185 2.66471 8.09766 2.94141 8.09766C3.20182 8.09766 3.44434 8.0651 3.66895 8C3.89681 7.93815 4.10514 7.85026 4.29395 7.73633C4.50228 7.60612 4.68783 7.44336 4.85059 7.24805C5.01335 7.05273 5.15007 6.83789 5.26074 6.60352C5.36491 6.36914 5.44466 6.11523 5.5 5.8418C5.55534 5.5651 5.58301 5.27376 5.58301 4.96777ZM4.19141 3.92285V4.96777C4.19141 5.14355 4.18164 5.31283 4.16211 5.47559C4.14583 5.63835 4.11979 5.78809 4.08398 5.9248C4.03841 6.10059 3.97656 6.25846 3.89844 6.39844C3.82357 6.53516 3.73079 6.64909 3.62012 6.74023C3.53223 6.8151 3.43132 6.87207 3.31738 6.91113C3.20345 6.9502 3.07812 6.96973 2.94141 6.96973C2.79818 6.96973 2.6696 6.94857 2.55566 6.90625C2.44499 6.86393 2.3457 6.80371 2.25781 6.72559C2.16341 6.6377 2.0804 6.52376 2.00879 6.38379C1.94043 6.24056 1.88835 6.08268 1.85254 5.91016C1.81999 5.77344 1.7972 5.62533 1.78418 5.46582C1.77116 5.30632 1.76465 5.1403 1.76465 4.96777V3.92285C1.76465 3.74056 1.77116 3.56641 1.78418 3.40039C1.80046 3.23438 1.82487 3.08138 1.85742 2.94141C1.89974 2.75911 1.95833 2.59961 2.0332 2.46289C2.11133 2.32617 2.20573 2.21224 2.31641 2.12109C2.39779 2.05924 2.48893 2.01204 2.58984 1.97949C2.69401 1.94694 2.80957 1.93066 2.93652 1.93066C3.06999 1.93066 3.19043 1.94857 3.29785 1.98438C3.40853 2.02018 3.50781 2.07064 3.5957 2.13574C3.70638 2.22363 3.80241 2.33757 3.88379 2.47754C3.96517 2.61426 4.03027 2.77051 4.0791 2.94629C4.11816 3.08626 4.14583 3.23926 4.16211 3.40527C4.18164 3.56803 4.19141 3.74056 4.19141 3.92285ZM11.04 5.34375L12.3779 8H13.8477V7.93652L12.3193 5.00195C12.5146 4.91406 12.6904 4.8099 12.8467 4.68945C13.0062 4.56901 13.1429 4.42741 13.2568 4.26465C13.3675 4.10514 13.4521 3.92448 13.5107 3.72266C13.5726 3.51758 13.6035 3.28809 13.6035 3.03418C13.6035 2.68262 13.5417 2.37337 13.418 2.10645C13.2975 1.83952 13.125 1.61654 12.9004 1.4375C12.6725 1.25846 12.3991 1.12337 12.0801 1.03223C11.7611 0.937826 11.4046 0.890625 11.0107 0.890625H8.62793V8H10V5.34375H11.04ZM10 4.23047V2.00391H11.0107C11.1995 2.00391 11.3672 2.02669 11.5137 2.07227C11.6602 2.11784 11.7839 2.18294 11.8848 2.26758C11.9987 2.36198 12.0833 2.48242 12.1387 2.62891C12.1973 2.77214 12.2266 2.93815 12.2266 3.12695C12.2266 3.2832 12.2038 3.4248 12.1582 3.55176C12.1159 3.67871 12.0524 3.78776 11.9678 3.87891C11.8669 3.99284 11.735 4.08073 11.5723 4.14258C11.4128 4.20117 11.2272 4.23047 11.0156 4.23047H10ZM16.6045 8H18.5137C18.8294 8 19.1257 7.96094 19.4023 7.88281C19.6823 7.80469 19.9378 7.69238 20.1689 7.5459C20.3675 7.4222 20.5498 7.26921 20.7158 7.08691C20.8818 6.90137 21.0267 6.69954 21.1504 6.48145C21.2806 6.2373 21.3815 5.96875 21.4531 5.67578C21.5247 5.38281 21.5605 5.07194 21.5605 4.74316V4.15723C21.5605 3.81543 21.5215 3.49316 21.4434 3.19043C21.3685 2.8877 21.2611 2.611 21.1211 2.36035C21.0007 2.15527 20.859 1.96647 20.6963 1.79395C20.5368 1.61816 20.3545 1.47005 20.1494 1.34961C19.915 1.20312 19.6546 1.09082 19.3682 1.0127C19.0817 0.931315 18.7741 0.890625 18.4453 0.890625H16.6045V8ZM17.9863 2.00391H18.4453C18.6113 2.00391 18.7643 2.02344 18.9043 2.0625C19.0475 2.09831 19.1777 2.15039 19.2949 2.21875C19.4479 2.3099 19.5814 2.42708 19.6953 2.57031C19.8125 2.71354 19.9069 2.8763 19.9785 3.05859C20.0371 3.21159 20.0811 3.38086 20.1104 3.56641C20.1429 3.7487 20.1592 3.94238 20.1592 4.14746V4.74316C20.1592 4.96126 20.1429 5.16471 20.1104 5.35352C20.0811 5.53906 20.0371 5.70833 19.9785 5.86133C19.9069 6.03711 19.8206 6.19173 19.7197 6.3252C19.6221 6.4554 19.5114 6.56283 19.3877 6.64746C19.2673 6.72884 19.1338 6.79069 18.9873 6.83301C18.8408 6.87533 18.6829 6.89648 18.5137 6.89648H17.9863V2.00391ZM29.0146 4.88477V3.80078H26.0947V2.00879H29.4932V0.890625H24.7178V8H29.5078V6.8916H26.0947V4.88477H29.0146ZM35.0576 5.34375L36.3955 8H37.8652V7.93652L36.3369 5.00195C36.5322 4.91406 36.708 4.8099 36.8643 4.68945C37.0238 4.56901 37.1605 4.42741 37.2744 4.26465C37.3851 4.10514 37.4697 3.92448 37.5283 3.72266C37.5902 3.51758 37.6211 3.28809 37.6211 3.03418C37.6211 2.68262 37.5592 2.37337 37.4355 2.10645C37.3151 1.83952 37.1426 1.61654 36.918 1.4375C36.6901 1.25846 36.4167 1.12337 36.0977 1.03223C35.7786 0.937826 35.4222 0.890625 35.0283 0.890625H32.6455V8H34.0176V5.34375H35.0576ZM34.0176 4.23047V2.00391H35.0283C35.2171 2.00391 35.3848 2.02669 35.5312 2.07227C35.6777 2.11784 35.8014 2.18294 35.9023 2.26758C36.0163 2.36198 36.1009 2.48242 36.1562 2.62891C36.2148 2.77214 36.2441 2.93815 36.2441 3.12695C36.2441 3.2832 36.2214 3.4248 36.1758 3.55176C36.1335 3.67871 36.07 3.78776 35.9854 3.87891C35.8844 3.99284 35.7526 4.08073 35.5898 4.14258C35.4303 4.20117 35.2448 4.23047 35.0332 4.23047H34.0176ZM44.3428 6.14453C44.3428 6.27148 44.3167 6.38867 44.2646 6.49609C44.2126 6.60026 44.1377 6.68978 44.04 6.76465C43.9424 6.83952 43.8219 6.89811 43.6787 6.94043C43.5387 6.98275 43.3776 7.00391 43.1953 7.00391C42.9902 7.00391 42.8014 6.98112 42.6289 6.93555C42.4596 6.88997 42.3148 6.81836 42.1943 6.7207C42.0706 6.62305 41.9746 6.49772 41.9062 6.34473C41.8379 6.19173 41.8005 6.00781 41.7939 5.79297H40.4463C40.4463 6.16081 40.5163 6.48145 40.6562 6.75488C40.7995 7.02832 40.9932 7.26595 41.2373 7.46777C41.4945 7.67285 41.7956 7.8291 42.1406 7.93652C42.4889 8.04069 42.8405 8.09277 43.1953 8.09277C43.5566 8.09277 43.8903 8.05046 44.1963 7.96582C44.5023 7.87793 44.766 7.74935 44.9873 7.58008C45.2087 7.41406 45.3812 7.21061 45.5049 6.96973C45.6318 6.72559 45.6953 6.44727 45.6953 6.13477C45.6953 5.77344 45.6123 5.45443 45.4463 5.17773C45.2803 4.90104 45.0573 4.65853 44.7773 4.4502C44.5918 4.32324 44.3883 4.21094 44.167 4.11328C43.9456 4.01562 43.7129 3.93262 43.4688 3.86426C43.2409 3.80241 43.0358 3.73568 42.8535 3.66406C42.6745 3.59245 42.5215 3.5127 42.3945 3.4248C42.2676 3.34017 42.1699 3.24414 42.1016 3.13672C42.0365 3.0293 42.0039 2.90885 42.0039 2.77539C42.0039 2.64844 42.0283 2.53125 42.0771 2.42383C42.1292 2.31315 42.2041 2.21712 42.3018 2.13574C42.3994 2.05762 42.5182 1.9974 42.6582 1.95508C42.8014 1.90951 42.9642 1.88672 43.1465 1.88672C43.3451 1.88672 43.5176 1.91439 43.6641 1.96973C43.8138 2.02181 43.9391 2.09505 44.04 2.18945C44.1377 2.28711 44.2109 2.40267 44.2598 2.53613C44.3118 2.6696 44.3411 2.81608 44.3477 2.97559H45.6855C45.6855 2.65658 45.6237 2.36361 45.5 2.09668C45.3763 1.82975 45.2038 1.59863 44.9824 1.40332C44.7611 1.21126 44.4958 1.06152 44.1865 0.954102C43.8805 0.84668 43.542 0.792969 43.1709 0.792969C42.8128 0.792969 42.4808 0.840169 42.1748 0.93457C41.8688 1.02572 41.6035 1.15755 41.3789 1.33008C41.1543 1.5026 40.9785 1.71094 40.8516 1.95508C40.7246 2.19922 40.6611 2.47103 40.6611 2.77051C40.6611 3.03092 40.7083 3.27181 40.8027 3.49316C40.9004 3.71452 41.0436 3.91634 41.2324 4.09863C41.4212 4.28092 41.6637 4.44857 41.96 4.60156C42.2594 4.75456 42.6061 4.88477 43 4.99219C43.2539 5.06055 43.4655 5.13542 43.6348 5.2168C43.8073 5.29492 43.9473 5.38118 44.0547 5.47559C44.1589 5.57324 44.2321 5.67741 44.2744 5.78809C44.32 5.89876 44.3428 6.01758 44.3428 6.14453Z"/>
</svg>
