<svg width="32" height="32" viewBox="0 0 32 32" xmlns="http://www.w3.org/2000/svg">
<g>
<path d="M15.4827 16.0051C15.2267 15.1859 15.2318 13.6039 15.3803 13.6039C15.8104 13.6039 15.7694 15.4931 15.4827 16.0051ZM15.3957 18.4218C15.0014 19.456 14.5099 20.6387 13.9416 21.632C14.8786 21.2736 15.9384 20.7514 17.1621 20.5107C16.5118 20.0192 15.8872 19.3127 15.3957 18.4218ZM10.5778 24.8115C10.5778 24.8525 11.2536 24.5351 12.3646 22.7533C12.0216 23.0759 10.8747 24.0077 10.5778 24.8115ZM18.867 11.0848H25.8302V27.8784C25.8302 28.5594 25.2824 29.1072 24.6014 29.1072H7.39823C6.71727 29.1072 6.16943 28.5594 6.16943 27.8784V4.12162C6.16943 3.44066 6.71727 2.89282 7.39823 2.89282H17.6382V9.85602C17.6382 10.5319 18.1912 11.0848 18.867 11.0848ZM18.4574 19.881C17.4334 19.2563 16.7525 18.3962 16.2712 17.1264C16.5016 16.1792 16.8651 14.7405 16.5886 13.8394C16.348 12.3341 14.4178 12.4826 14.1413 13.4912C13.8853 14.4282 14.1208 15.7491 14.556 17.4336C13.9621 18.8467 13.0866 20.7411 12.467 21.8266C12.4619 21.8266 12.4619 21.8317 12.4568 21.8317C11.0693 22.5434 8.68847 24.1101 9.66639 25.3133C9.95311 25.6666 10.4856 25.8253 10.7672 25.8253C11.6837 25.8253 12.595 24.9037 13.8955 22.6611C15.2165 22.2259 16.6654 21.6832 17.9403 21.4733C19.0514 22.0775 20.3518 22.4717 21.2171 22.4717C22.7122 22.4717 22.8146 20.8333 22.2258 20.2496C21.5141 19.5533 19.4456 19.753 18.4574 19.881V19.881ZM25.4718 8.26882L20.4542 3.25122C20.2238 3.02082 19.9115 2.89282 19.5838 2.89282H19.2766V9.44642H25.8302V9.1341C25.8302 8.81154 25.7022 8.49922 25.4718 8.26882ZM21.6779 21.3402C21.8878 21.2019 21.5499 20.7309 19.4866 20.8794C21.3861 21.6883 21.6779 21.3402 21.6779 21.3402Z"/>
</g>
</svg>
