<svg width="32" height="32" viewBox="0 0 32 32" xmlns="http://www.w3.org/2000/svg">
<g>
<g clip-path="url(#clip0_9594_11221)">
<path d="M16 16C19.6199 16 22.5536 13.0663 22.5536 9.44642C22.5536 5.82658 19.6199 2.89282 16 2.89282C12.3802 2.89282 9.44645 5.82658 9.44645 9.44642C9.44645 13.0663 12.3802 16 16 16ZM20.5876 17.6384H19.7325C18.5959 18.1607 17.3312 18.4576 16 18.4576C14.6688 18.4576 13.4093 18.1607 12.2676 17.6384H11.4125C7.61349 17.6384 4.53125 20.7207 4.53125 24.5197V26.6496C4.53125 28.0064 5.63205 29.1072 6.98885 29.1072H25.0112C26.368 29.1072 27.4688 28.0064 27.4688 26.6496V24.5197C27.4688 20.7207 24.3866 17.6384 20.5876 17.6384Z"/>
</g>
</g>
<defs>
<clipPath>
<rect width="22.9376" height="26.2144" transform="translate(4.53125 2.89282)"/>
</clipPath>
</defs>
</svg>
