<svg width="32" height="32" viewBox="0 0 32 32" xmlns="http://www.w3.org/2000/svg">
<g>
<g clip-path="url(#clip0_9594_11219)">
<path d="M28.1547 4.15241L22.8299 2.92361C22.2513 2.79049 21.6574 3.09257 21.4219 3.63529L18.9643 9.36969C18.7493 9.87145 18.8926 10.4602 19.3176 10.8033L22.4203 13.3428C20.5771 17.2698 17.3566 20.5364 13.3477 22.4154L10.8081 19.3127C10.46 18.8878 9.8763 18.7444 9.37454 18.9594L3.64014 21.417C3.0923 21.6577 2.79022 22.2516 2.92334 22.8302L4.15214 28.155C4.28014 28.7079 4.77166 29.1073 5.35022 29.1073C18.4625 29.1073 29.107 18.4833 29.107 5.35049C29.107 4.77705 28.7128 4.28041 28.1547 4.15241Z"/>
</g>
</g>
<defs>
<clipPath>
<rect width="26.2144" height="26.2144" transform="translate(2.89258 2.89282)"/>
</clipPath>
</defs>
</svg>
