<svg width="32" height="32" viewBox="0 0 32 32" xmlns="http://www.w3.org/2000/svg">
<g>
<g clip-path="url(#clip0_9594_11209)">
<path d="M14.9896 28.5783C7.5503 17.7936 6.16943 16.6868 6.16943 12.7232C6.16943 7.29403 10.5706 2.89282 15.9998 2.89282C21.429 2.89282 25.8302 7.29403 25.8302 12.7232C25.8302 16.6868 24.4494 17.7936 17.0101 28.5783C16.5219 29.2836 15.4777 29.2835 14.9896 28.5783ZM15.9998 16.8192C18.262 16.8192 20.0958 14.9854 20.0958 12.7232C20.0958 10.4611 18.262 8.62722 15.9998 8.62722C13.7377 8.62722 11.9038 10.4611 11.9038 12.7232C11.9038 14.9854 13.7377 16.8192 15.9998 16.8192Z"/>
</g>
</g>
<defs>
<clipPath>
<rect width="19.6608" height="26.2144" transform="translate(6.16943 2.89282)"/>
</clipPath>
</defs>
</svg>
