<svg width="32" height="32" viewBox="0 0 32 32" xmlns="http://www.w3.org/2000/svg">
<g>
<g clip-path="url(#clip0_9594_11169)">
<path d="M25.8304 13.5424H18.4576V6.16965C18.4576 5.26495 17.724 4.53125 16.8192 4.53125H15.1808C14.2761 4.53125 13.5424 5.26495 13.5424 6.16965V13.5424H6.16965C5.26495 13.5424 4.53125 14.2761 4.53125 15.1808V16.8192C4.53125 17.724 5.26495 18.4576 6.16965 18.4576H13.5424V25.8304C13.5424 26.7352 14.2761 27.4688 15.1808 27.4688H16.8192C17.724 27.4688 18.4576 26.7352 18.4576 25.8304V18.4576H25.8304C26.7352 18.4576 27.4688 17.724 27.4688 16.8192V15.1808C27.4688 14.2761 26.7352 13.5424 25.8304 13.5424Z"/>
</g>
</g>
<defs>
<clipPath>
<rect width="22.9376" height="26.2144" transform="translate(4.53125 2.89282)"/>
</clipPath>
</defs>
</svg>
