<svg width="32" height="32" viewBox="0 0 32 32" xmlns="http://www.w3.org/2000/svg">
<g>
<g clip-path="url(#clip0_9594_11183)">
<path d="M25.8302 12.7232V6.84802C25.8302 6.41333 25.6576 5.99708 25.3504 5.68937L23.0331 3.37257C22.7259 3.06537 22.3092 2.89282 21.8745 2.89282H7.80778C6.90307 2.89282 6.16938 3.62652 6.16938 4.53122V12.7232C4.35946 12.7232 2.89258 14.1901 2.89258 16V21.7344C2.89258 22.187 3.25917 22.5536 3.71178 22.5536H6.16938V27.4688C6.16938 28.3735 6.90307 29.1072 7.80778 29.1072H24.1918C25.0965 29.1072 25.8302 28.3735 25.8302 27.4688V22.5536H28.2878C28.7404 22.5536 29.107 22.187 29.107 21.7344V16C29.107 14.1901 27.6401 12.7232 25.8302 12.7232ZM22.5534 25.8304H9.44618V20.9152H22.5534V25.8304ZM22.5534 14.3616H9.44618V6.16962H19.2766V8.62722C19.2766 9.07983 19.6432 9.44642 20.0958 9.44642H22.5534V14.3616ZM25.011 18.048C24.3326 18.048 23.7822 17.4976 23.7822 16.8192C23.7822 16.1403 24.3326 15.5904 25.011 15.5904C25.6894 15.5904 26.2398 16.1403 26.2398 16.8192C26.2398 17.4976 25.6894 18.048 25.011 18.048Z"/>
</g>
</g>
<defs>
<clipPath>
<rect width="26.2144" height="26.2144" transform="translate(2.89258 2.89282)"/>
</clipPath>
</defs>
</svg>
