<svg width="46" height="9" viewBox="0 0 46 9" xmlns="http://www.w3.org/2000/svg">
<path d="M4.31348 6.14453C4.31348 6.27148 4.28743 6.38867 4.23535 6.49609C4.18327 6.60026 4.1084 6.68978 4.01074 6.76465C3.91309 6.83952 3.79264 6.89811 3.64941 6.94043C3.50944 6.98275 3.34831 7.00391 3.16602 7.00391C2.96094 7.00391 2.77214 6.98112 2.59961 6.93555C2.43034 6.88997 2.28548 6.81836 2.16504 6.7207C2.04134 6.62305 1.94531 6.49772 1.87695 6.34473C1.80859 6.19173 1.77116 6.00781 1.76465 5.79297H0.416992C0.416992 6.16081 0.486979 6.48145 0.626953 6.75488C0.770182 7.02832 0.963867 7.26595 1.20801 7.46777C1.46517 7.67285 1.76628 7.8291 2.11133 7.93652C2.45964 8.04069 2.8112 8.09277 3.16602 8.09277C3.52734 8.09277 3.861 8.05046 4.16699 7.96582C4.47298 7.87793 4.73665 7.74935 4.95801 7.58008C5.17936 7.41406 5.35189 7.21061 5.47559 6.96973C5.60254 6.72559 5.66602 6.44727 5.66602 6.13477C5.66602 5.77344 5.58301 5.45443 5.41699 5.17773C5.25098 4.90104 5.02799 4.65853 4.74805 4.4502C4.5625 4.32324 4.35905 4.21094 4.1377 4.11328C3.91634 4.01562 3.68359 3.93262 3.43945 3.86426C3.21159 3.80241 3.00651 3.73568 2.82422 3.66406C2.64518 3.59245 2.49219 3.5127 2.36523 3.4248C2.23828 3.34017 2.14062 3.24414 2.07227 3.13672C2.00716 3.0293 1.97461 2.90885 1.97461 2.77539C1.97461 2.64844 1.99902 2.53125 2.04785 2.42383C2.09993 2.31315 2.1748 2.21712 2.27246 2.13574C2.37012 2.05762 2.48893 1.9974 2.62891 1.95508C2.77214 1.90951 2.9349 1.88672 3.11719 1.88672C3.31576 1.88672 3.48828 1.91439 3.63477 1.96973C3.78451 2.02181 3.90983 2.09505 4.01074 2.18945C4.1084 2.28711 4.18164 2.40267 4.23047 2.53613C4.28255 2.6696 4.31185 2.81608 4.31836 2.97559H5.65625C5.65625 2.65658 5.5944 2.36361 5.4707 2.09668C5.34701 1.82975 5.17448 1.59863 4.95312 1.40332C4.73177 1.21126 4.46647 1.06152 4.15723 0.954102C3.85124 0.84668 3.5127 0.792969 3.1416 0.792969C2.78353 0.792969 2.4515 0.840169 2.14551 0.93457C1.83952 1.02572 1.57422 1.15755 1.34961 1.33008C1.125 1.5026 0.949219 1.71094 0.822266 1.95508C0.695312 2.19922 0.631836 2.47103 0.631836 2.77051C0.631836 3.03092 0.679036 3.27181 0.773438 3.49316C0.871094 3.71452 1.01432 3.91634 1.20312 4.09863C1.39193 4.28092 1.63444 4.44857 1.93066 4.60156C2.23014 4.75456 2.57682 4.88477 2.9707 4.99219C3.22461 5.06055 3.4362 5.13542 3.60547 5.2168C3.77799 5.29492 3.91797 5.38118 4.02539 5.47559C4.12956 5.57324 4.2028 5.67741 4.24512 5.78809C4.29069 5.89876 4.31348 6.01758 4.31348 6.14453ZM12.124 6.51562L12.5391 8H13.9844L11.6992 0.890625H10.4541L8.125 8H9.57031L9.99023 6.51562H12.124ZM10.3271 5.34863L11.0742 2.73145L11.8018 5.34863H10.3271ZM21.1455 5.05566V3.94238H18.0986V2.00879H21.5264V0.890625H16.7217V8H18.0986V5.05566H21.1455ZM29.0146 4.88477V3.80078H26.0947V2.00879H29.4932V0.890625H24.7178V8H29.5078V6.8916H26.0947V4.88477H29.0146ZM37.8701 2.00879V0.890625H32.1377V2.00879H34.3008V8H35.6777V2.00879H37.8701ZM43.0781 4.16699L41.6768 0.890625H40.1729L42.375 5.48047L42.3799 8H43.7471L43.752 5.53906L45.9883 0.890625H44.4795L43.0781 4.16699Z"/>
</svg>
