<svg width="32" height="32" viewBox="0 0 32 32" xmlns="http://www.w3.org/2000/svg">
<g>
<g clip-path="url(#clip0_9594_11147)">
<path d="M28.7486 25.5591L23.6439 20.4544C23.4135 20.224 23.1012 20.096 22.7735 20.096H21.939C23.3521 18.2887 24.1918 16.0154 24.1918 13.5424C24.1918 7.65954 19.4251 2.89282 13.5422 2.89282C7.6593 2.89282 2.89258 7.65954 2.89258 13.5424C2.89258 19.4253 7.6593 24.192 13.5422 24.192C16.0151 24.192 18.2884 23.3523 20.0958 21.9392V22.7738C20.0958 23.1015 20.2238 23.4138 20.4542 23.6442L25.5588 28.7488C26.0401 29.2301 26.8183 29.2301 27.2945 28.7488L28.7435 27.2999C29.2247 26.8186 29.2247 26.0403 28.7486 25.5591ZM13.5422 20.096C9.92234 20.096 6.98858 17.1674 6.98858 13.5424C6.98858 9.92258 9.91722 6.98882 13.5422 6.98882C17.162 6.98882 20.0958 9.91746 20.0958 13.5424C20.0958 17.1623 17.1671 20.096 13.5422 20.096Z"/>
</g>
</g>
<defs>
<clipPath>
<rect width="26.2144" height="26.2144" transform="translate(2.89258 2.89282)"/>
</clipPath>
</defs>
</svg>
