<svg width="32" height="32" viewBox="0 0 32 32" xmlns="http://www.w3.org/2000/svg">
<g>
<g clip-path="url(#clip0_9594_11181)">
<path d="M4.53125 26.6496C4.53125 28.0064 5.63205 29.1072 6.98885 29.1072H25.0112C26.368 29.1072 27.4688 28.0064 27.4688 26.6496V12.7232H4.53125V26.6496ZM7.80805 16.8192C7.80805 16.3687 8.17669 16 8.62725 16H13.5424C13.993 16 14.3616 16.3687 14.3616 16.8192V21.7344C14.3616 22.185 13.993 22.5536 13.5424 22.5536H8.62725C8.17669 22.5536 7.80805 22.185 7.80805 21.7344V16.8192ZM25.0112 6.16962H22.5536V3.71202C22.5536 3.26146 22.185 2.89282 21.7344 2.89282H20.096C19.6455 2.89282 19.2768 3.26146 19.2768 3.71202V6.16962H12.7232V3.71202C12.7232 3.26146 12.3546 2.89282 11.904 2.89282H10.2656C9.81509 2.89282 9.44645 3.26146 9.44645 3.71202V6.16962H6.98885C5.63205 6.16962 4.53125 7.27042 4.53125 8.62722V11.0848H27.4688V8.62722C27.4688 7.27042 26.368 6.16962 25.0112 6.16962Z"/>
</g>
</g>
<defs>
<clipPath>
<rect width="22.9376" height="26.2144" transform="translate(4.53125 2.89282)"/>
</clipPath>
</defs>
</svg>
