<svg width="32" height="32" viewBox="0 0 32 32" xmlns="http://www.w3.org/2000/svg">
<g>
<g clip-path="url(#clip0_9594_11203)">
<path d="M12.723 13.5424C12.723 12.6377 11.9893 11.904 11.0846 11.904H10.2654C8.45546 11.904 6.98858 13.3709 6.98858 15.1808V17.6384C6.98858 19.4483 8.45546 20.9152 10.2654 20.9152H11.0846C11.9893 20.9152 12.723 20.1815 12.723 19.2768V13.5424ZM21.7342 20.9152C23.5441 20.9152 25.011 19.4483 25.011 17.6384V15.1808C25.011 13.3709 23.5441 11.904 21.7342 11.904H20.915C20.0103 11.904 19.2766 12.6377 19.2766 13.5424V19.2768C19.2766 20.1815 20.0103 20.9152 20.915 20.9152H21.7342ZM15.9998 2.89282C8.68739 2.89282 3.12707 8.97692 2.89258 16V16.8192C2.89258 17.2718 3.25917 17.6384 3.71178 17.6384H4.53098C4.98359 17.6384 5.35018 17.2718 5.35018 16.8192V16C5.35018 10.1279 10.1277 5.35042 15.9998 5.35042C21.8719 5.35042 26.6494 10.1279 26.6494 16H26.6432C26.6473 16.1244 26.6494 24.4849 26.6494 24.4849C26.6494 25.6804 25.6802 26.6496 24.4846 26.6496H19.2766C19.2766 25.2923 18.1763 24.192 16.819 24.192H15.1806C13.8233 24.192 12.723 25.2923 12.723 26.6496C12.723 28.0069 13.8233 29.1072 15.1806 29.1072H24.4846C27.0375 29.1072 29.107 27.0377 29.107 24.4849V16C28.8725 8.97692 23.3122 2.89282 15.9998 2.89282Z"/>
</g>
</g>
<defs>
<clipPath>
<rect width="26.2144" height="26.2144" transform="translate(2.89258 2.89282)"/>
</clipPath>
</defs>
</svg>
