<svg width="22" height="8" viewBox="0 0 22 8" xmlns="http://www.w3.org/2000/svg">
<path d="M5.85547 2.00879V0.890625H0.123047V2.00879H2.28613V8H3.66309V2.00879H5.85547ZM8.62695 8H11.2197C11.6104 8 11.9619 7.95605 12.2744 7.86816C12.5869 7.78027 12.8522 7.64844 13.0703 7.47266C13.2884 7.29688 13.4561 7.07878 13.5732 6.81836C13.6904 6.55794 13.749 6.25684 13.749 5.91504C13.749 5.736 13.7246 5.56348 13.6758 5.39746C13.6302 5.22819 13.5586 5.07194 13.4609 4.92871C13.3665 4.79525 13.2493 4.67806 13.1094 4.57715C12.9727 4.47624 12.7871 4.39323 12.5527 4.32812V4.32324C12.6732 4.27767 12.7822 4.22233 12.8799 4.15723C12.9808 4.09212 13.0703 4.02051 13.1484 3.94238C13.2917 3.79915 13.3991 3.63314 13.4707 3.44434C13.5456 3.25228 13.5846 3.04883 13.5879 2.83398C13.5879 2.50195 13.526 2.21387 13.4023 1.96973C13.2819 1.72559 13.1094 1.52376 12.8848 1.36426C12.6602 1.20475 12.3883 1.08594 12.0693 1.00781C11.7536 0.929688 11.402 0.890625 11.0146 0.890625H8.62695V8ZM10.0039 4.86523H11.2832C11.4753 4.86849 11.6413 4.89453 11.7812 4.94336C11.9212 4.99219 12.0352 5.06217 12.123 5.15332C12.2109 5.24121 12.2744 5.34863 12.3135 5.47559C12.3558 5.60254 12.377 5.74577 12.377 5.90527C12.377 6.05827 12.3493 6.19661 12.2939 6.32031C12.2419 6.44401 12.1637 6.5498 12.0596 6.6377C11.9652 6.71582 11.8464 6.77767 11.7031 6.82324C11.5632 6.86882 11.4036 6.8916 11.2246 6.8916H10.0039V4.86523ZM10.0039 3.87402V2.00879H11.0195C11.2409 2.01204 11.4329 2.03646 11.5957 2.08203C11.7617 2.1276 11.8936 2.20085 11.9912 2.30176C12.0661 2.37337 12.1214 2.46289 12.1572 2.57031C12.1963 2.67773 12.2158 2.80306 12.2158 2.94629C12.2158 3.08301 12.193 3.20508 12.1475 3.3125C12.1051 3.41992 12.0433 3.51107 11.9619 3.58594C11.8643 3.68034 11.7357 3.75195 11.5762 3.80078C11.4167 3.84635 11.2327 3.87077 11.0244 3.87402H10.0039ZM16.6133 8H18.5225C18.8382 8 19.1344 7.96094 19.4111 7.88281C19.6911 7.80469 19.9466 7.69238 20.1777 7.5459C20.3763 7.4222 20.5586 7.26921 20.7246 7.08691C20.8906 6.90137 21.0355 6.69954 21.1592 6.48145C21.2894 6.2373 21.3903 5.96875 21.4619 5.67578C21.5335 5.38281 21.5693 5.07194 21.5693 4.74316V4.15723C21.5693 3.81543 21.5303 3.49316 21.4521 3.19043C21.3773 2.8877 21.2699 2.611 21.1299 2.36035C21.0094 2.15527 20.8678 1.96647 20.7051 1.79395C20.5456 1.61816 20.3633 1.47005 20.1582 1.34961C19.9238 1.20312 19.6634 1.09082 19.377 1.0127C19.0905 0.931315 18.7829 0.890625 18.4541 0.890625H16.6133V8ZM17.9951 2.00391H18.4541C18.6201 2.00391 18.7731 2.02344 18.9131 2.0625C19.0563 2.09831 19.1865 2.15039 19.3037 2.21875C19.4567 2.3099 19.5902 2.42708 19.7041 2.57031C19.8213 2.71354 19.9157 2.8763 19.9873 3.05859C20.0459 3.21159 20.0898 3.38086 20.1191 3.56641C20.1517 3.7487 20.168 3.94238 20.168 4.14746V4.74316C20.168 4.96126 20.1517 5.16471 20.1191 5.35352C20.0898 5.53906 20.0459 5.70833 19.9873 5.86133C19.9157 6.03711 19.8294 6.19173 19.7285 6.3252C19.6309 6.4554 19.5202 6.56283 19.3965 6.64746C19.276 6.72884 19.1426 6.79069 18.9961 6.83301C18.8496 6.87533 18.6917 6.89648 18.5225 6.89648H17.9951V2.00391Z"/>
</svg>
