<svg width="32" height="32" viewBox="0 0 32 32" xmlns="http://www.w3.org/2000/svg">
<g>
<g clip-path="url(#clip0_9594_11149)">
<path d="M28.979 12.3443L26.3883 4.57218C26.0555 3.56866 25.1185 2.89282 24.0587 2.89282H16.819V12.7232H29.0404C29.0199 12.5952 29.0199 12.4672 28.979 12.3443ZM15.1806 2.89282H7.9409C6.88106 2.89282 5.9441 3.56866 5.6113 4.57218L3.02058 12.3443C2.97962 12.4672 2.97962 12.5952 2.95914 12.7232H15.1806V2.89282ZM2.89258 14.3616V26.6496C2.89258 28.0064 3.99338 29.1072 5.35018 29.1072H26.6494C28.0062 29.1072 29.107 28.0064 29.107 26.6496V14.3616H2.89258Z"/>
</g>
</g>
<defs>
<clipPath>
<rect width="26.2144" height="26.2144" transform="translate(2.89258 2.89282)"/>
</clipPath>
</defs>
</svg>
