<svg width="32" height="32" viewBox="0 0 32 32" xmlns="http://www.w3.org/2000/svg">
<g>
<g clip-path="url(#clip0_9594_11205)">
<path d="M30.4132 25.4215C31.3582 27.0596 30.172 29.1072 28.2844 29.1072H3.71429C1.82311 29.1072 0.642337 27.0564 1.58554 25.4215L13.8708 4.12085C14.8163 2.48199 17.1844 2.48496 18.1283 4.12085L30.4132 25.4215V25.4215ZM15.9995 21.0176C14.6988 21.0176 13.6443 22.0721 13.6443 23.3728C13.6443 24.6736 14.6988 25.728 15.9995 25.728C17.3003 25.728 18.3547 24.6736 18.3547 23.3728C18.3547 22.0721 17.3003 21.0176 15.9995 21.0176ZM13.7635 12.5519L14.1433 19.5151C14.161 19.8409 14.4304 20.096 14.7567 20.096H17.2423C17.5686 20.096 17.838 19.8409 17.8558 19.5151L18.2356 12.5519C18.2548 12.2 17.9746 11.904 17.6221 11.904H14.3769C14.0244 11.904 13.7443 12.2 13.7635 12.5519V12.5519Z"/>
</g>
</g>
<defs>
<clipPath>
<rect width="29.4912" height="26.2144" transform="translate(1.25439 2.89282)"/>
</clipPath>
</defs>
</svg>
