<svg width="32" height="32" viewBox="0 0 32 32" xmlns="http://www.w3.org/2000/svg">
<g>
<g clip-path="url(#clip0_9594_11201)">
<path d="M20.531 11.0849C19.7886 6.51273 18.0376 3.30249 15.9998 3.30249C13.9621 3.30249 12.211 6.51273 11.4686 11.0849H20.531ZM11.0846 16.0001C11.0846 17.1367 11.1461 18.2273 11.2536 19.2769H20.741C20.8485 18.2273 20.9099 17.1367 20.9099 16.0001C20.9099 14.8635 20.8485 13.7729 20.741 12.7233H11.2536C11.1461 13.7729 11.0846 14.8635 11.0846 16.0001ZM27.7093 11.0849C26.245 7.60841 23.2805 4.92041 19.6197 3.83497C20.869 5.56553 21.7291 8.17161 22.1797 11.0849H27.7093ZM12.3749 3.83497C8.71921 4.92041 5.74961 7.60841 4.29041 11.0849H9.82001C10.2654 8.17161 11.1256 5.56553 12.3749 3.83497V3.83497ZM28.2571 12.7233H22.3845C22.492 13.7985 22.5534 14.8993 22.5534 16.0001C22.5534 17.1009 22.492 18.2017 22.3845 19.2769H28.252C28.5336 18.2273 28.6923 17.1367 28.6923 16.0001C28.6923 14.8635 28.5336 13.7729 28.2571 12.7233ZM9.44625 16.0001C9.44625 14.8993 9.50769 13.7985 9.61521 12.7233H3.74257C3.46609 13.7729 3.30225 14.8635 3.30225 16.0001C3.30225 17.1367 3.46609 18.2273 3.74257 19.2769H9.61009C9.50769 18.2017 9.44625 17.1009 9.44625 16.0001V16.0001ZM11.4686 20.9153C12.211 25.4875 13.9621 28.6977 15.9998 28.6977C18.0376 28.6977 19.7886 25.4875 20.531 20.9153H11.4686ZM19.6248 28.1652C23.2805 27.0798 26.2501 24.3918 27.7144 20.9153H22.1848C21.7342 23.8286 20.8741 26.4347 19.6248 28.1652ZM4.29041 20.9153C5.75473 24.3918 8.71921 27.0798 12.38 28.1652C11.1307 26.4347 10.2706 23.8286 9.82001 20.9153H4.29041V20.9153Z"/>
</g>
</g>
<defs>
<clipPath>
<rect width="25.3952" height="26.2144" transform="translate(3.30225 2.89282)"/>
</clipPath>
</defs>
</svg>
