<svg width="32" height="32" viewBox="0 0 32 32" xmlns="http://www.w3.org/2000/svg">
<g>
<g clip-path="url(#clip0_9594_11153)">
<path d="M18.4574 12.7232V14.3616C18.4574 14.6995 18.1809 14.976 17.843 14.976H9.24138C8.90346 14.976 8.62698 14.6995 8.62698 14.3616V12.7232C8.62698 12.3853 8.90346 12.1088 9.24138 12.1088H17.843C18.1809 12.1088 18.4574 12.3853 18.4574 12.7232ZM28.7486 27.2999L27.2996 28.7488C26.8183 29.2301 26.0401 29.2301 25.5639 28.7488L20.4542 23.6442C20.2238 23.4138 20.0958 23.1015 20.0958 22.7738V21.9392C18.2884 23.3523 16.0151 24.192 13.5422 24.192C7.6593 24.192 2.89258 19.4253 2.89258 13.5424C2.89258 7.65954 7.6593 2.89282 13.5422 2.89282C19.4251 2.89282 24.1918 7.65954 24.1918 13.5424C24.1918 16.0154 23.3521 18.2887 21.939 20.096H22.7735C23.1012 20.096 23.4135 20.224 23.6439 20.4544L28.7486 25.5591C29.2247 26.0403 29.2247 26.8186 28.7486 27.2999ZM20.5054 13.5424C20.5054 9.69218 17.3924 6.57922 13.5422 6.57922C9.69194 6.57922 6.57898 9.69218 6.57898 13.5424C6.57898 17.3927 9.69194 20.5056 13.5422 20.5056C17.3924 20.5056 20.5054 17.3927 20.5054 13.5424Z"/>
</g>
</g>
<defs>
<clipPath>
<rect width="26.2144" height="26.2144" transform="translate(2.89258 2.89282)"/>
</clipPath>
</defs>
</svg>
