<svg width="32" height="32" viewBox="0 0 32 32" xmlns="http://www.w3.org/2000/svg">
<path d="M23.7925 8.1014C22.7756 7.07856 21.566 6.26755 20.2336 5.71528C18.9012 5.16302 17.4725 4.88046 16.0302 4.88397C14.5767 4.86651 13.1341 5.13772 11.7862 5.68188C10.4383 6.22603 9.21179 7.03231 8.17778 8.05398C7.14376 9.07565 6.32281 10.2924 5.76251 11.6337C5.20221 12.975 4.9137 14.4141 4.9137 15.8677C4.9137 17.3213 5.20221 18.7605 5.76251 20.1018C6.32281 21.4431 7.14376 22.6598 8.17778 23.6815C9.21179 24.7032 10.4383 25.5094 11.7862 26.0536C13.1341 26.5977 14.5767 26.8689 16.0302 26.8515C18.4436 26.8474 20.7891 26.0522 22.7074 24.5877L23.1478 24.2519L22.4729 23.3711L22.0341 23.7085C20.3086 25.024 18.1999 25.7384 16.0302 25.7426C14.7229 25.7591 13.4253 25.516 12.2127 25.0271C11.0001 24.5383 9.89663 23.8136 8.96631 22.8949C8.036 21.9763 7.29734 20.8821 6.79319 19.6758C6.28905 18.4695 6.02944 17.1751 6.02944 15.8677C6.02944 14.5603 6.28905 13.2659 6.79319 12.0596C7.29734 10.8533 8.036 9.75912 8.96631 8.84052C9.89663 7.92191 11.0001 7.19717 12.2127 6.70834C13.4253 6.21951 14.7229 5.97632 16.0302 5.99288C18.6488 5.9933 21.1601 7.03374 23.0117 8.88539C24.8634 10.737 25.9038 13.2483 25.9042 15.8669V16.9109C25.9042 18.4254 24.846 19.4852 23.33 19.4852C22.6469 19.4852 21.9918 19.214 21.5086 18.7314C21.0253 18.2487 20.7534 17.5939 20.7525 16.9109V11.1414H19.6436V12.8317C19.0046 12.0703 18.1417 11.5299 17.1777 11.2872C16.2138 11.0446 15.1979 11.1121 14.2745 11.4801C13.3511 11.8481 12.5673 12.498 12.0346 13.3372C11.5019 14.1764 11.2473 15.1622 11.3072 16.1544C11.367 17.1466 11.7383 18.0947 12.368 18.8637C12.9978 19.6328 13.854 20.1837 14.815 20.438C15.7759 20.6924 16.7926 20.6372 17.7203 20.2804C18.6481 19.9236 19.4397 19.2834 19.9826 18.4507C20.2773 19.09 20.7487 19.6315 21.3413 20.0113C21.934 20.3911 22.6229 20.5934 23.3268 20.5941C25.4607 20.5941 27.01 19.0448 27.01 16.9109V15.8669C27.0141 14.4241 26.7318 12.9947 26.1795 11.6617C25.6272 10.3287 24.8159 9.11858 23.7925 8.1014V8.1014ZM16.0302 19.4852C15.3143 19.4861 14.6143 19.2747 14.0187 18.8777C13.4231 18.4807 12.9586 17.9159 12.684 17.2549C12.4094 16.5938 12.3371 15.8662 12.4761 15.164C12.6152 14.4618 12.9594 13.8167 13.4653 13.3102C13.9711 12.8037 14.6158 12.4586 15.3178 12.3186C16.0198 12.1786 16.7475 12.25 17.4089 12.5237C18.0704 12.7974 18.6357 13.2612 19.0335 13.8563C19.4313 14.4514 19.6436 15.1511 19.6436 15.8669C19.6424 16.8259 19.261 17.7452 18.583 18.4235C17.9051 19.1017 16.9859 19.4835 16.027 19.4852H16.0302Z"/>
</svg>
