<svg width="32" height="32" viewBox="0 0 32 32" xmlns="http://www.w3.org/2000/svg">
<path d="M26.7309 15.6071C26.6803 15.5546 26.6199 15.5129 26.5533 15.4844C26.4867 15.456 26.4152 15.4413 26.343 15.4413C26.2708 15.4413 26.1993 15.456 26.1327 15.4844C26.0661 15.5129 26.0057 15.5546 25.955 15.6071L16.5354 25.2229V5.43837C16.5354 5.29132 16.4782 5.15029 16.3763 5.04631C16.2745 4.94233 16.1363 4.88391 15.9923 4.88391C15.8482 4.88391 15.7101 4.94233 15.6082 5.04631C15.5064 5.15029 15.4491 5.29132 15.4491 5.43837V25.2229L6.0373 15.6071C5.9344 15.5031 5.79526 15.4451 5.65047 15.4458C5.50569 15.4466 5.36712 15.506 5.26526 15.611C5.1634 15.7161 5.10658 15.8581 5.10731 16.0059C5.10803 16.1537 5.16625 16.2952 5.26914 16.3992L15.6152 26.9607L15.9985 27.352L16.3818 26.9607L26.7278 16.3992C26.7795 16.3476 26.8205 16.2861 26.8487 16.2183C26.8768 16.1504 26.8915 16.0775 26.8917 16.0038C26.892 15.9301 26.878 15.8571 26.8504 15.7889C26.8228 15.7208 26.7822 15.659 26.7309 15.6071V15.6071Z"/>
</svg>
