<svg width="32" height="32" viewBox="0 0 32 32" xmlns="http://www.w3.org/2000/svg">
<path d="M23.5375 12.0909C23.5386 10.8245 23.2071 9.579 22.5749 8.47426C21.9427 7.36952 21.031 6.44265 19.9275 5.78273C18.8241 5.12282 17.5658 4.75204 16.2738 4.70604C14.9818 4.66005 13.6994 4.94037 12.55 5.52008C11.4005 6.09979 10.4226 6.95938 9.71016 8.01625C8.99776 9.07312 8.57485 10.2917 8.48208 11.5549C8.38931 12.8182 8.62979 14.0835 9.18041 15.2294C9.73103 16.3753 10.5733 17.3631 11.6262 18.0981L10.3114 27.7939L16.0001 24.4513L21.6888 27.7939L20.3755 18.0965C21.3526 17.4144 22.1494 16.5136 22.6993 15.469C23.2493 14.4244 23.5367 13.2663 23.5375 12.0909V12.0909ZM9.57156 12.0909C9.57097 10.9995 9.85998 9.92667 10.4102 8.97763C10.9605 8.02859 11.7531 7.23593 12.7103 6.6774C13.6675 6.11886 14.7565 5.81362 15.8704 5.79161C16.9844 5.7696 18.085 6.03158 19.0645 6.55186C20.0439 7.07213 20.8685 7.83284 21.4574 8.75937C22.0462 9.68591 22.3791 10.7465 22.4235 11.837C22.4678 12.9276 22.2221 14.0107 21.7103 14.9802C21.1985 15.9497 20.4383 16.7722 19.5042 17.3672H19.4916C18.5221 17.9833 17.4009 18.3318 16.2461 18.376C15.0913 18.4202 13.9458 18.1584 12.9302 17.6183C11.9146 17.0781 11.0665 16.2795 10.4754 15.3068C9.88432 14.334 9.57207 13.223 9.57156 12.0909V12.0909ZM20.2868 25.7051L16.0001 23.185L11.7133 25.7051L12.6638 18.7095C13.7017 19.2132 14.8442 19.4753 16.0024 19.4753C17.1607 19.4753 18.3032 19.2132 19.3411 18.7095L20.2868 25.7051Z"/>
</svg>
