<svg width="32" height="32" viewBox="0 0 32 32" xmlns="http://www.w3.org/2000/svg">
<path d="M16.0465 5.32336C10.134 5.32336 5.32336 10.1806 5.32336 16.1396C5.32336 22.0986 10.134 26.9559 16.0465 26.9559C21.959 26.9559 26.7696 22.0986 26.7696 16.1396C26.7696 10.1806 21.959 5.32336 16.0465 5.32336V5.32336ZM25.6834 16.3103C23.278 15.6741 20.8727 15.6896 18.5139 16.3258C18.1725 15.4878 17.8311 14.6964 17.4897 13.9826C20.0502 12.9894 22.0676 11.6238 23.4332 9.90126C24.8454 11.5928 25.6989 13.7808 25.6989 16.1551C25.6834 16.2017 25.6834 16.2638 25.6834 16.3103ZM22.6728 9.07879C21.2606 10.9255 19.1967 12.1669 16.9931 12.9894C15.3482 9.80815 13.7188 7.86836 12.8652 6.95278C13.8584 6.59586 14.9447 6.40964 16.062 6.40964C18.607 6.40964 20.9348 7.43385 22.6728 9.07879V9.07879ZM11.779 7.41833C12.2911 7.93044 13.5015 9.24949 14.8516 11.4686C15.193 12.0117 15.5499 12.648 15.9224 13.3618C12.0583 14.5723 8.03906 14.6499 6.51827 14.6343C7.01486 11.4686 9.03223 8.79946 11.779 7.41833V7.41833ZM6.40964 16.1551C6.40964 16.0155 6.40964 15.8758 6.42516 15.7206H6.98382C8.25632 15.7206 10.4754 15.643 12.9584 15.193C14.1998 14.9757 15.3637 14.6809 16.4345 14.3395C16.7759 15.0378 17.1173 15.8137 17.4587 16.6517C16.1086 17.1173 14.7895 17.8001 13.517 18.6846C11.2669 20.2364 9.73056 21.9745 9.06327 22.828C7.41833 21.0744 6.40964 18.7312 6.40964 16.1551V16.1551ZM9.83918 23.5729C10.4444 22.8125 11.9342 21.0744 14.1222 19.5692C15.3482 18.7312 16.5896 18.0949 17.8311 17.6449C18.607 19.7399 19.3364 22.2073 19.895 25.0626C18.7156 25.5902 17.4121 25.8696 16.0465 25.8696C13.6877 25.8851 11.5152 25.0161 9.83918 23.5729V23.5729ZM20.9037 24.5505C20.3606 21.8038 19.6623 19.3984 18.8863 17.3345C21.0899 16.7603 23.3246 16.7914 25.5902 17.4276C25.2023 20.4537 23.4177 23.0608 20.9037 24.5505V24.5505Z"/>
</svg>
