<svg width="32" height="32" viewBox="0 0 32 32" xmlns="http://www.w3.org/2000/svg">
<path d="M9.06297 12.4308C10.7247 12.3967 12.0649 11.8318 13.1564 10.7052L15.463 8.365L15.4851 12.96C15.486 13.1035 15.5448 13.2408 15.6487 13.342C15.7526 13.4432 15.8931 13.5 16.0396 13.5C16.1123 13.4998 16.1843 13.4855 16.2514 13.458C16.3185 13.4305 16.3794 13.3903 16.4306 13.3397C16.4819 13.2891 16.5224 13.2291 16.5499 13.1632C16.5774 13.0972 16.5913 13.0266 16.5909 12.9553L16.5608 6.48108L9.95168 6.51212C9.80463 6.51212 9.6636 6.56934 9.55962 6.6712C9.45564 6.77306 9.39722 6.91121 9.39722 7.05526C9.39722 7.19931 9.45564 7.33746 9.55962 7.43931C9.6636 7.54117 9.80463 7.5984 9.95168 7.5984L14.6915 7.57667L12.3564 9.94787C11.463 10.879 10.4095 11.3135 9.04079 11.3445C8.09029 11.3631 5.21188 11.3631 5.18336 11.3631C5.03631 11.3631 4.89528 11.4204 4.7913 11.5222C4.68732 11.6241 4.62891 11.7622 4.62891 11.9063C4.62891 12.0503 4.68732 12.1885 4.7913 12.2903C4.89528 12.3922 5.03631 12.4494 5.18336 12.4494C5.30059 12.4463 8.09663 12.4463 9.06297 12.4308V12.4308Z"/>
<path d="M26.5489 9.59705H19.5311C19.384 9.59705 19.243 9.65427 19.139 9.75613C19.035 9.85799 18.9766 9.99614 18.9766 10.1402V15.5204H12.5449C12.3979 15.5204 12.2569 15.5776 12.1529 15.6795C12.0489 15.7813 11.9905 15.9195 11.9905 16.0635V19.4667H5.46376C5.31671 19.4667 5.17568 19.5239 5.0717 19.6258C4.96772 19.7276 4.9093 19.8658 4.9093 20.0098V26.332C4.9093 26.476 4.96772 26.6142 5.0717 26.716C5.17568 26.8179 5.31671 26.8751 5.46376 26.8751H26.5489C26.696 26.8751 26.837 26.8179 26.941 26.716C27.045 26.6142 27.1034 26.476 27.1034 26.332V10.1402C27.1034 9.99614 27.045 9.85799 26.941 9.75613C26.837 9.65427 26.696 9.59705 26.5489 9.59705V9.59705ZM11.9271 25.7888H6.0198V20.553H11.9287L11.9271 25.7888ZM13.0994 16.6067H18.9766V25.7888H13.0994V16.6067ZM25.9945 25.7888H20.1188V16.0635C20.1179 16.0043 20.1072 15.9456 20.0871 15.8897V10.6833H25.996L25.9945 25.7888Z"/>
</svg>
