<svg width="32" height="32" viewBox="0 0 32 32" xmlns="http://www.w3.org/2000/svg">
<path d="M9.53834 12.4769C9.39129 12.4769 9.25026 12.5353 9.14628 12.6393C9.0423 12.7433 8.98389 12.8843 8.98389 13.0314V19.2223C8.98389 19.3693 9.0423 19.5104 9.14628 19.6143C9.25026 19.7183 9.39129 19.7767 9.53834 19.7767C9.68539 19.7767 9.82642 19.7183 9.9304 19.6143C10.0344 19.5104 10.0928 19.3693 10.0928 19.2223V13.0314C10.0928 12.8843 10.0344 12.7433 9.9304 12.6393C9.82642 12.5353 9.68539 12.4769 9.53834 12.4769ZM14.6599 12.4769C14.5129 12.4769 14.3718 12.5353 14.2679 12.6393C14.1639 12.7433 14.1055 12.8843 14.1055 13.0314V19.2223C14.1055 19.3693 14.1639 19.5104 14.2679 19.6143C14.3718 19.7183 14.5129 19.7767 14.6599 19.7767C14.807 19.7767 14.948 19.7183 15.052 19.6143C15.156 19.5104 15.2144 19.3693 15.2144 19.2223V13.0314C15.2144 12.8843 15.156 12.7433 15.052 12.6393C14.948 12.5353 14.807 12.4769 14.6599 12.4769V12.4769ZM19.9399 12.4769C19.8671 12.4767 19.7949 12.4909 19.7275 12.5187C19.6601 12.5465 19.5989 12.5873 19.5474 12.6389C19.4959 12.6904 19.455 12.7516 19.4272 12.819C19.3995 12.8863 19.3853 12.9585 19.3855 13.0314V19.2223C19.3855 19.3693 19.4439 19.5104 19.5479 19.6143C19.6518 19.7183 19.7929 19.7767 19.9399 19.7767C20.087 19.7767 20.228 19.7183 20.332 19.6143C20.436 19.5104 20.4944 19.3693 20.4944 19.2223V13.0314C20.4944 12.8843 20.436 12.7433 20.332 12.6393C20.228 12.5353 20.087 12.4769 19.9399 12.4769V12.4769Z"/>
<path d="M26.4413 13.5304L24.4753 13.5161V9.9375H4.88403V22.0626H24.4753V18.4698H26.4381C26.5851 18.4698 26.7262 18.4114 26.8301 18.3074C26.9341 18.2034 26.9925 18.0624 26.9925 17.9153V14.0848C26.9925 13.9383 26.9346 13.7978 26.8313 13.6939C26.728 13.59 26.5878 13.5312 26.4413 13.5304ZM5.99294 20.9537V11.0464H23.3664V14.031C23.3656 14.0431 23.3656 14.0553 23.3664 14.0674V17.9153C23.3672 17.9467 23.3704 17.9779 23.3759 18.0088V20.9537H5.99294ZM25.8836 17.3609H24.4753V14.6266H25.8836V17.3609Z"/>
</svg>
