<svg width="32" height="32" viewBox="0 0 32 32" xmlns="http://www.w3.org/2000/svg">
<g clip-path="url(#clip0_9220_24766)">
<path d="M26.5152 13.6337H24.5486V10.153H4.92969V21.847H24.5486V18.3663H26.5152C26.6625 18.3663 26.8036 18.31 26.9077 18.2098C27.0118 18.1096 27.0703 17.9736 27.0703 17.8319V14.168C27.0703 14.0263 27.0118 13.8904 26.9077 13.7902C26.8036 13.69 26.6625 13.6337 26.5152 13.6337V13.6337ZM6.03989 20.7783V11.2216H23.4384V17.8472C23.4358 17.8885 23.4412 17.9299 23.4542 17.9693V20.7783H6.03989ZM25.9601 17.2976H24.5486V14.6871H25.9601V17.2976Z"/>
<path d="M22.122 15.7404H20.076V13.8016C20.076 13.7004 20.0342 13.6033 19.9599 13.5317C19.8855 13.4601 19.7847 13.4199 19.6795 13.4199C19.5743 13.4199 19.4735 13.4601 19.3991 13.5317C19.3248 13.6033 19.283 13.7004 19.283 13.8016V15.7404H17.2371C17.1319 15.7404 17.031 15.7806 16.9567 15.8522C16.8823 15.9238 16.8406 16.0208 16.8406 16.1221C16.8383 16.1728 16.847 16.2234 16.8662 16.2706C16.8853 16.3179 16.9144 16.3609 16.9517 16.3967C16.989 16.4326 17.0336 16.4607 17.0827 16.4791C17.1318 16.4975 17.1844 16.5059 17.2371 16.5037H19.283V18.4273C19.283 18.5285 19.3248 18.6256 19.3991 18.6972C19.4735 18.7687 19.5743 18.8089 19.6795 18.8089C19.7847 18.8089 19.8855 18.7687 19.9599 18.6972C20.0342 18.6256 20.076 18.5285 20.076 18.4273V16.5037H22.122C22.1746 16.5059 22.2272 16.4975 22.2763 16.4791C22.3254 16.4607 22.37 16.4326 22.4073 16.3967C22.4446 16.3609 22.4737 16.3179 22.4929 16.2706C22.512 16.2234 22.5207 16.1728 22.5185 16.1221C22.5185 16.0208 22.4767 15.9238 22.4023 15.8522C22.328 15.7806 22.2271 15.7404 22.122 15.7404Z"/>
<path d="M8.32375 18.8242C8.21859 18.8242 8.11774 18.784 8.04338 18.7124C7.96902 18.6409 7.92725 18.5438 7.92725 18.4426V13.8016C7.92725 13.7004 7.96902 13.6033 8.04338 13.5317C8.11774 13.4601 8.21859 13.4199 8.32375 13.4199C8.42891 13.4199 8.52976 13.4601 8.60412 13.5317C8.67847 13.6033 8.72025 13.7004 8.72025 13.8016V18.4273C8.72033 18.53 8.67907 18.6287 8.60513 18.7027C8.5312 18.7767 8.43034 18.8203 8.32375 18.8242V18.8242Z"/>
</g>
<defs>
<clipPath>
<rect width="22.2041" height="11.7551" transform="translate(4.89795 10.1224)"/>
</clipPath>
</defs>
</svg>
