<svg width="32" height="32" viewBox="0 0 32 32" xmlns="http://www.w3.org/2000/svg">
<path d="M18.956 23.1556H13.1485C13.0015 23.1556 12.8604 23.214 12.7564 23.318C12.6525 23.4219 12.594 23.563 12.594 23.71C12.594 23.8571 12.6525 23.9981 12.7564 24.1021C12.8604 24.2061 13.0015 24.2645 13.1485 24.2645H18.9529C19.0999 24.2645 19.2409 24.2061 19.3449 24.1021C19.4489 23.9981 19.5073 23.8571 19.5073 23.71C19.5073 23.563 19.4489 23.4219 19.3449 23.318C19.2409 23.214 19.0999 23.1556 18.9529 23.1556H18.956ZM18.956 25.6047H13.1485C13.0015 25.6047 12.8604 25.6631 12.7564 25.7671C12.6525 25.8711 12.594 26.0121 12.594 26.1591C12.594 26.3062 12.6525 26.4472 12.7564 26.5512C12.8604 26.6552 13.0015 26.7136 13.1485 26.7136H18.9529C19.0999 26.7136 19.2409 26.6552 19.3449 26.5512C19.4489 26.4472 19.5073 26.3062 19.5073 26.1591C19.5073 26.0121 19.4489 25.8711 19.3449 25.7671C19.2409 25.6631 19.0999 25.6047 18.9529 25.6047H18.956ZM16.0538 7.4629C14.4826 7.46457 12.9762 8.08949 11.8652 9.20053C10.7541 10.3116 10.1292 11.818 10.1275 13.3892C10.1275 14.9908 10.8863 16.2407 11.5533 17.3496C12.0776 18.2114 12.6479 20.4736 12.8206 21.2736L12.9156 21.7092H19.181L19.276 21.2736C19.4519 20.472 20.0237 18.2051 20.5434 17.3496C21.2135 16.2407 21.9691 14.9987 21.9691 13.3892C21.9674 11.8199 21.344 10.3152 20.2354 9.20444C19.1267 8.09372 17.6232 7.46751 16.0538 7.4629ZM19.6039 16.7651C19.0384 17.695 18.514 19.7021 18.3002 20.5924H13.8091C13.5952 19.7037 13.074 17.7013 12.5038 16.7651C11.8527 15.6926 11.2364 14.6803 11.2364 13.3892C11.2364 12.1116 11.744 10.8862 12.6474 9.9828C13.5509 9.07936 14.7762 8.57181 16.0538 8.57181C17.3315 8.57181 18.5568 9.07936 19.4603 9.9828C20.3637 10.8862 20.8713 12.1116 20.8713 13.3892C20.8713 14.6803 20.255 15.6926 19.6039 16.7651V16.7651ZM16.0697 5.4621C16.2167 5.4621 16.3578 5.40369 16.4618 5.29971C16.5657 5.19573 16.6241 5.0547 16.6241 4.90765V2.82765C16.6241 2.6806 16.5657 2.53957 16.4618 2.43559C16.3578 2.33161 16.2167 2.27319 16.0697 2.27319C15.9226 2.27319 15.7816 2.33161 15.6776 2.43559C15.5737 2.53957 15.5152 2.6806 15.5152 2.82765V4.91082C15.5154 4.98342 15.53 5.05527 15.5579 5.12227C15.5859 5.18927 15.6268 5.2501 15.6783 5.30129C15.7298 5.35248 15.7908 5.39303 15.858 5.42063C15.9252 5.44822 15.9971 5.46231 16.0697 5.4621V5.4621ZM8.36752 5.78527C8.31603 5.73326 8.2548 5.69191 8.18733 5.66356C8.11985 5.63521 8.04746 5.62044 7.97428 5.62007C7.82648 5.61932 7.68443 5.67733 7.5794 5.78131C7.47436 5.8853 7.41493 6.02675 7.41419 6.17455C7.41345 6.32235 7.47145 6.46439 7.57544 6.56943L9.06138 8.04745C9.16536 8.15144 9.3064 8.20986 9.45346 8.20986C9.60051 8.20986 9.74155 8.15144 9.84554 8.04745C9.94952 7.94346 10.0079 7.80243 10.0079 7.65537C10.0079 7.50831 9.94952 7.36728 9.84554 7.26329L8.36752 5.78527ZM24.5544 5.78527C24.5031 5.73359 24.442 5.69258 24.3747 5.66459C24.3074 5.6366 24.2352 5.6222 24.1624 5.6222C24.0895 5.6222 24.0173 5.6366 23.95 5.66459C23.8828 5.69258 23.8217 5.73359 23.7703 5.78527L22.2923 7.26329C22.1883 7.36833 22.1303 7.51037 22.131 7.65817C22.1318 7.80597 22.1912 7.94742 22.2962 8.05141C22.4013 8.1554 22.5433 8.2134 22.6911 8.21266C22.8389 8.21191 22.9804 8.15249 23.0843 8.04745L24.5544 6.56943C24.6061 6.51805 24.6471 6.45696 24.6751 6.38967C24.7031 6.32238 24.7175 6.25023 24.7175 6.17735C24.7175 6.10448 24.7031 6.03232 24.6751 5.96503C24.6471 5.89774 24.6061 5.83665 24.5544 5.78527Z"/>
</svg>
