<svg width="32" height="32" viewBox="0 0 32 32" xmlns="http://www.w3.org/2000/svg">
<path d="M13.044 22.3745C12.5811 22.3742 12.1285 22.5112 11.7435 22.7682C11.3585 23.0252 11.0583 23.3906 10.8811 23.8182C10.7038 24.2458 10.6573 24.7164 10.7475 25.1704C10.8378 25.6244 11.0606 26.0415 11.388 26.3688C11.7153 26.6962 12.1323 26.919 12.5864 27.0093C13.0404 27.0995 13.511 27.053 13.9386 26.8757C14.3662 26.6984 14.7316 26.3983 14.9886 26.0133C15.2456 25.6283 15.3826 25.1757 15.3823 24.7128C15.3814 24.0929 15.1348 23.4986 14.6965 23.0603C14.2582 22.622 13.6639 22.3754 13.044 22.3745ZM13.044 25.9436C12.8005 25.944 12.5624 25.872 12.3598 25.737C12.1571 25.6019 11.9991 25.4098 11.9057 25.1849C11.8123 24.96 11.7877 24.7125 11.835 24.4736C11.8823 24.2347 11.9994 24.0152 12.1715 23.8429C12.3436 23.6706 12.5629 23.5533 12.8017 23.5056C13.0405 23.458 13.2881 23.4823 13.5131 23.5754C13.7381 23.6685 13.9305 23.8263 14.0658 24.0287C14.2011 24.2312 14.2733 24.4692 14.2733 24.7128C14.2729 25.0388 14.1433 25.3514 13.9129 25.5821C13.6825 25.8128 13.3701 25.9428 13.044 25.9436V25.9436ZM22.0801 22.3745C21.6172 22.3742 21.1646 22.5112 20.7796 22.7682C20.3945 23.0252 20.0944 23.3906 19.9171 23.8182C19.7398 24.2458 19.6933 24.7164 19.7836 25.1704C19.8738 25.6244 20.0967 26.0415 20.424 26.3688C20.7513 26.6962 21.1684 26.919 21.6224 27.0093C22.0764 27.0995 22.547 27.053 22.9746 26.8757C23.4022 26.6984 23.7676 26.3983 24.0246 26.0133C24.2816 25.6283 24.4186 25.1757 24.4183 24.7128C24.4175 24.0929 24.1708 23.4986 23.7325 23.0603C23.2942 22.622 22.6999 22.3754 22.0801 22.3745V22.3745ZM22.0801 25.9436C21.8366 25.944 21.5984 25.872 21.3958 25.737C21.1932 25.6019 21.0352 25.4098 20.9417 25.1849C20.8483 24.96 20.8237 24.7125 20.8711 24.4736C20.9184 24.2347 21.0355 24.0152 21.2076 23.8429C21.3796 23.6706 21.599 23.5533 21.8378 23.5056C22.0766 23.458 22.3242 23.4823 22.5492 23.5754C22.7742 23.6685 22.9665 23.8263 23.1018 24.0287C23.2371 24.2312 23.3094 24.4692 23.3094 24.7128C23.309 25.0388 23.1794 25.3514 22.949 25.5821C22.7186 25.8128 22.4061 25.9428 22.0801 25.9436ZM8.43255 7.75275L8.0476 5.89771H5.43849C5.29144 5.89771 5.15041 5.95612 5.04643 6.0601C4.94245 6.16408 4.88403 6.30511 4.88403 6.45216C4.88403 6.59921 4.94245 6.74024 5.04643 6.84422C5.15041 6.9482 5.29144 7.00662 5.43849 7.00662H7.14621L9.50978 18.4126C9.63068 19.0262 9.96055 19.5789 10.4432 19.9767C10.9259 20.3744 11.5315 20.5926 12.1569 20.5939H22.671C23.3087 20.604 23.9297 20.3897 24.4255 19.9883C24.9212 19.587 25.2602 19.0242 25.383 18.3983L27.2191 7.75909L8.43255 7.75275ZM24.2931 18.1892C24.2219 18.5612 24.0208 18.8957 23.7256 19.1331C23.4305 19.3704 23.0606 19.4952 22.6821 19.485H12.1981C11.8215 19.4923 11.4544 19.3665 11.1614 19.1298C10.8685 18.893 10.6684 18.5605 10.5965 18.1908L8.66225 8.86167H25.9026L24.2931 18.1892Z"/>
</svg>
