<svg width="32" height="32" viewBox="0 0 32 32" xmlns="http://www.w3.org/2000/svg">
<path d="M26.7293 8.04125C26.679 7.98957 26.6192 7.94856 26.5533 7.92057C26.4873 7.89258 26.4167 7.87817 26.3453 7.87817C26.2739 7.87817 26.2032 7.89258 26.1373 7.92057C26.0714 7.94856 26.0115 7.98957 25.9612 8.04125L11.627 22.6947L6.04037 16.9917C5.93748 16.8867 5.79793 16.8277 5.65241 16.8277C5.5069 16.8277 5.36735 16.8867 5.26446 16.9917C5.16156 17.0968 5.10376 17.2392 5.10376 17.3878C5.10376 17.5363 5.16156 17.6788 5.26446 17.7838L11.627 24.2789L26.7293 8.84125C26.7824 8.78962 26.8245 8.72755 26.8534 8.6588C26.8822 8.59005 26.8971 8.51604 26.8971 8.44125C26.8971 8.36646 26.8822 8.29245 26.8534 8.2237C26.8245 8.15495 26.7824 8.09288 26.7293 8.04125V8.04125Z"/>
</svg>
