<svg width="32" height="32" viewBox="0 0 32 32" xmlns="http://www.w3.org/2000/svg">
<path d="M26.6946 14.5203C26.5476 14.5203 26.4066 14.5787 26.3026 14.6827C26.1986 14.7867 26.1402 14.9277 26.1402 15.0748V16.0522C26.136 18.7195 25.0741 21.2763 23.1874 23.1618C21.3008 25.0473 18.7433 26.1075 16.076 26.11C13.4068 26.11 10.847 25.0497 8.95959 23.1623C7.07219 21.2749 6.01187 18.7151 6.01187 16.0459C6.01187 13.3767 7.07219 10.8168 8.95959 8.92944C10.847 7.04204 13.4068 5.98172 16.076 5.98172C17.4856 5.98069 18.8795 6.2776 20.1663 6.853C20.2332 6.88529 20.3058 6.90383 20.38 6.90751C20.4541 6.9112 20.5282 6.89996 20.5979 6.87446C20.6677 6.84896 20.7315 6.80972 20.7858 6.75907C20.8401 6.70841 20.8836 6.64738 20.9139 6.57959C20.9441 6.51179 20.9604 6.43861 20.9618 6.36439C20.9633 6.29018 20.9498 6.21643 20.9222 6.14752C20.8945 6.07861 20.8534 6.01595 20.8011 5.96325C20.7488 5.91055 20.6865 5.86889 20.6178 5.84073C19.189 5.2017 17.6412 4.87186 16.076 4.8728C13.1127 4.8728 10.2708 6.04996 8.17547 8.14532C6.08011 10.2407 4.90295 13.0826 4.90295 16.0459C4.90295 19.0092 6.08011 21.8511 8.17547 23.9464C10.2708 26.0418 13.1127 27.2189 16.076 27.2189C19.0369 27.2152 21.8755 26.0376 23.9696 23.9444C26.0637 21.8512 27.2425 19.0131 27.2475 16.0522V15.0748C27.2475 14.928 27.1893 14.7872 27.0857 14.6833C26.982 14.5793 26.8414 14.5207 26.6946 14.5203V14.5203Z"/>
<path d="M13.2831 14.609C13.2311 14.5575 13.1695 14.5167 13.1017 14.4891C13.034 14.4614 12.9614 14.4474 12.8882 14.4477C12.815 14.4481 12.7427 14.4629 12.6752 14.4912C12.6077 14.5196 12.5465 14.5609 12.495 14.6129C12.4435 14.6649 12.4028 14.7266 12.3751 14.7943C12.3474 14.8621 12.3334 14.9346 12.3337 15.0078C12.3341 15.081 12.3489 15.1534 12.3772 15.2209C12.4056 15.2883 12.4469 15.3496 12.499 15.401L16.076 18.9781L27.0891 7.94917C27.1941 7.84413 27.2531 7.70167 27.2531 7.55313C27.2531 7.40458 27.1941 7.26212 27.0891 7.15709C26.984 7.05205 26.8416 6.99304 26.693 6.99304C26.5445 6.99304 26.402 7.05205 26.297 7.15709L16.0712 17.3939L13.2831 14.609Z"/>
</svg>
