<svg width="32" height="32" viewBox="0 0 32 32" xmlns="http://www.w3.org/2000/svg">
<path d="M21.044 5.2024V4.49745C21.044 4.3504 20.9855 4.20937 20.8816 4.10539C20.7776 4.00141 20.6366 3.943 20.4895 3.943H11.4218C11.3489 3.94279 11.2767 3.95698 11.2094 3.98477C11.142 4.01256 11.0808 4.0534 11.0293 4.10493C10.9777 4.15645 10.9369 4.21766 10.9091 4.28502C10.8813 4.35239 10.8671 4.42458 10.8673 4.49745V5.2024H7.5105V27.6975H24.461V5.2024H21.044ZM19.9351 5.04399V6.31131H11.9762V5.04399H19.9351ZM23.3521 26.5885H8.61941V6.31131H10.8673V6.87369C10.8673 7.02074 10.9257 7.16177 11.0297 7.26575C11.1337 7.36973 11.2747 7.42814 11.4218 7.42814H20.4895C20.6366 7.42814 20.7776 7.36973 20.8816 7.26575C20.9855 7.16177 21.044 7.02074 21.044 6.87369V6.31131H23.3521V26.5885Z"/>
<path d="M20.941 12.0397L13.1374 19.8512L11.0305 17.7427C10.987 17.696 10.9345 17.6585 10.8762 17.6325C10.8179 17.6066 10.755 17.5926 10.6912 17.5915C10.6273 17.5904 10.564 17.6021 10.5048 17.626C10.4456 17.6499 10.3918 17.6855 10.3467 17.7306C10.3016 17.7757 10.266 17.8295 10.2421 17.8887C10.2182 17.9478 10.2065 18.0112 10.2076 18.075C10.2087 18.1389 10.2227 18.2018 10.2487 18.2601C10.2746 18.3184 10.3121 18.3708 10.3588 18.4144L13.1374 21.1961L21.6142 12.7114C21.6583 12.6672 21.6933 12.6147 21.7171 12.557C21.741 12.4993 21.7532 12.4374 21.7531 12.375C21.753 12.3125 21.7407 12.2507 21.7167 12.193C21.6927 12.1354 21.6576 12.083 21.6134 12.0389C21.5692 11.9948 21.5168 11.9598 21.459 11.936C21.4013 11.9122 21.3395 11.9 21.277 11.9C21.2146 11.9001 21.1528 11.9125 21.0951 11.9364C21.0374 11.9604 20.9851 11.9955 20.941 12.0397V12.0397Z"/>
</svg>
