<svg width="32" height="32" viewBox="0 0 32 32" xmlns="http://www.w3.org/2000/svg">
<path d="M14.9137 9.47802H25.7765C25.9206 9.47802 26.0587 9.4196 26.1606 9.31562C26.2624 9.21164 26.3196 9.07062 26.3196 8.92357C26.3196 8.77651 26.2624 8.63549 26.1606 8.53151C26.0587 8.42753 25.9206 8.36911 25.7765 8.36911H14.9137C14.7697 8.36911 14.6315 8.42753 14.5297 8.53151C14.4278 8.63549 14.3706 8.77651 14.3706 8.92357C14.3706 9.07062 14.4278 9.21164 14.5297 9.31562C14.6315 9.4196 14.7697 9.47802 14.9137 9.47802V9.47802ZM11.8535 6.19089L7.66357 10.4792L6.6735 9.46852C6.57164 9.36348 6.43307 9.30405 6.28829 9.30331C6.1435 9.30257 6.00436 9.36057 5.90146 9.46455C5.79857 9.56854 5.74036 9.70999 5.73963 9.85779C5.7389 10.0056 5.79572 10.1476 5.89758 10.2527L7.65736 12.0475L12.6232 6.97822C12.7261 6.87318 12.7839 6.73072 12.7839 6.58218C12.7839 6.43364 12.7261 6.29118 12.6232 6.18614C12.5203 6.0811 12.3808 6.02209 12.2353 6.02209C12.0897 6.02209 11.9502 6.0811 11.8473 6.18614L11.8535 6.19089ZM25.7765 15.5723H14.9137C14.7697 15.5723 14.6315 15.6307 14.5297 15.7347C14.4278 15.8387 14.3706 15.9797 14.3706 16.1267C14.3706 16.2738 14.4278 16.4148 14.5297 16.5188C14.6315 16.6228 14.7697 16.6812 14.9137 16.6812H25.7765C25.9206 16.6812 26.0587 16.6228 26.1606 16.5188C26.2624 16.4148 26.3196 16.2738 26.3196 16.1267C26.3196 15.9797 26.2624 15.8387 26.1606 15.7347C26.0587 15.6307 25.9206 15.5723 25.7765 15.5723ZM8.84296 13.5921C8.35188 13.5921 7.87183 13.7407 7.46352 14.0192C7.0552 14.2978 6.73696 14.6936 6.54903 15.1568C6.3611 15.6199 6.31193 16.1295 6.40774 16.6212C6.50354 17.1129 6.74002 17.5645 7.08726 17.919C7.43451 18.2735 7.87692 18.5149 8.35856 18.6127C8.8402 18.7105 9.33943 18.6603 9.79313 18.4684C10.2468 18.2766 10.6346 17.9517 10.9074 17.5349C11.1803 17.1181 11.3259 16.628 11.3259 16.1267C11.3259 15.4545 11.0643 14.8098 10.5986 14.3345C10.133 13.8591 9.50147 13.5921 8.84296 13.5921V13.5921ZM7.44631 16.1267C7.44631 15.8447 7.52822 15.5691 7.68169 15.3346C7.83515 15.1002 8.05328 14.9174 8.30848 14.8095C8.56369 14.7016 8.8445 14.6734 9.11543 14.7284C9.38635 14.7834 9.63521 14.9192 9.83053 15.1186C10.0259 15.318 10.1589 15.572 10.2128 15.8486C10.2667 16.1252 10.239 16.4118 10.1333 16.6723C10.0276 16.9329 9.84857 17.1555 9.61889 17.3122C9.38921 17.4689 9.11919 17.5525 8.84296 17.5525C8.47254 17.5525 8.1173 17.4023 7.85538 17.1349C7.59346 16.8675 7.44631 16.5049 7.44631 16.1267V16.1267ZM25.7765 22.777H14.9137C14.7697 22.777 14.6315 22.8354 14.5297 22.9394C14.4278 23.0434 14.3706 23.1844 14.3706 23.3315C14.3706 23.4785 14.4278 23.6196 14.5297 23.7235C14.6315 23.8275 14.7697 23.8859 14.9137 23.8859H25.7765C25.9206 23.8859 26.0587 23.8275 26.1606 23.7235C26.2624 23.6196 26.3196 23.4785 26.3196 23.3315C26.3196 23.1844 26.2624 23.0434 26.1606 22.9394C26.0587 22.8354 25.9206 22.777 25.7765 22.777ZM8.84296 20.7968C8.35188 20.7968 7.87183 20.9455 7.46352 21.224C7.0552 21.5025 6.73696 21.8984 6.54903 22.3615C6.3611 22.8247 6.31193 23.3343 6.40774 23.826C6.50354 24.3176 6.74002 24.7693 7.08726 25.1238C7.43451 25.4782 7.87692 25.7196 8.35856 25.8174C8.8402 25.9152 9.33943 25.865 9.79313 25.6732C10.2468 25.4814 10.6346 25.1565 10.9074 24.7397C11.1803 24.3228 11.3259 23.8328 11.3259 23.3315C11.3259 22.6593 11.0643 22.0146 10.5986 21.5392C10.133 21.0639 9.50147 20.7968 8.84296 20.7968ZM7.44631 23.3315C7.44631 23.0495 7.52822 22.7738 7.68169 22.5394C7.83515 22.3049 8.05328 22.1222 8.30848 22.0143C8.56369 21.9064 8.8445 21.8781 9.11543 21.9331C9.38635 21.9881 9.63521 22.1239 9.83053 22.3233C10.0259 22.5227 10.1589 22.7768 10.2128 23.0533C10.2667 23.3299 10.239 23.6166 10.1333 23.8771C10.0276 24.1376 9.84857 24.3603 9.61889 24.5169C9.38921 24.6736 9.11919 24.7572 8.84296 24.7572C8.47254 24.7572 8.1173 24.607 7.85538 24.3396C7.59346 24.0723 7.44631 23.7096 7.44631 23.3315Z"/>
</svg>
