<svg width="32" height="32" viewBox="0 0 32 32" xmlns="http://www.w3.org/2000/svg">
<g clip-path="url(#clip0_9220_24800)">
<path d="M16.6379 26.1065C16.9739 26.1034 17.3092 26.0715 17.6402 26.0108C18.4746 25.8553 19.2672 25.5128 19.9639 25.0065L20.0095 24.9747L20.0702 24.9428C20.8203 24.3774 21.4317 23.6331 21.8542 22.7712C22.2766 21.9093 22.4981 20.9544 22.5002 19.9852V16.2709C22.485 13.7204 21.5586 13.1147 20.784 13.0509H20.6322C20.4444 13.0464 20.2579 13.0844 20.0854 13.1625C19.9586 12.8591 19.7502 12.601 19.4859 12.4198C19.2216 12.2386 18.9127 12.1422 18.597 12.1423C18.3445 12.1416 18.0951 12.2016 17.8681 12.3176C17.7924 12.1006 17.676 11.9017 17.5256 11.733C17.3752 11.5642 17.194 11.4289 16.9928 11.3352C16.7915 11.2415 16.5743 11.1912 16.3542 11.1875C16.1341 11.1837 15.9155 11.2265 15.7114 11.3133V7.59911C15.6722 7.17314 15.4833 6.77776 15.1815 6.49006C14.8796 6.20236 14.4865 6.04297 14.0788 6.04297C13.671 6.04297 13.2779 6.20236 12.9761 6.49006C12.6742 6.77776 12.4853 7.17314 12.4461 7.59911V15.6811C12.2931 15.4754 12.0952 15.3114 11.869 15.2029C11.6796 15.1027 11.4722 15.0452 11.2603 15.0343C11.0485 15.0233 10.8367 15.059 10.6388 15.1391C10.4328 15.214 10.2433 15.3317 10.0816 15.485C9.9198 15.6384 9.78908 15.8244 9.69719 16.0318C9.59851 16.235 9.54083 16.4574 9.52776 16.6851C9.51469 16.9127 9.54652 17.1408 9.62125 17.3549C9.77313 17.8491 11.2311 22.1691 11.3223 22.4719C11.6724 23.298 12.1913 24.0332 12.8422 24.6254C13.4931 25.2177 14.26 25.6526 15.0887 25.8992C15.596 26.0298 16.1157 26.0993 16.6379 26.1065V26.1065ZM11.1248 16.1434C11.2149 16.1383 11.3045 16.1604 11.383 16.2072C11.4545 16.2396 11.5186 16.2876 11.571 16.3481C11.6234 16.4086 11.6628 16.4801 11.6867 16.5579L12.4461 18.8215C12.49 18.9445 12.5727 19.048 12.6805 19.1148C12.7883 19.1815 12.9146 19.2074 13.0384 19.1881C13.1631 19.1654 13.2759 19.0967 13.3567 18.9944C13.4374 18.8921 13.4807 18.763 13.4789 18.6302V7.58317C13.4766 7.50372 13.4902 7.42465 13.5186 7.35097C13.547 7.2773 13.5897 7.21062 13.644 7.15517C13.6982 7.09972 13.7629 7.0567 13.8338 7.02885C13.9047 7.00099 13.9804 6.98891 14.056 6.99336C14.1311 6.99123 14.2058 7.00491 14.2757 7.0336C14.3456 7.06228 14.4094 7.10539 14.4632 7.16037C14.517 7.21535 14.5598 7.2811 14.5889 7.35372C14.6181 7.42633 14.6331 7.50436 14.6331 7.58317V15.4898C14.6331 15.6378 14.6891 15.7797 14.7888 15.8844C14.8885 15.989 15.0237 16.0478 15.1647 16.0478C15.3057 16.0478 15.4409 15.989 15.5406 15.8844C15.6402 15.7797 15.6962 15.6378 15.6962 15.4898V12.8277C15.73 12.6758 15.811 12.54 15.9266 12.4418C16.0421 12.3437 16.1855 12.2887 16.3341 12.2857C16.4085 12.2835 16.4825 12.2973 16.5516 12.3261C16.6207 12.355 16.6835 12.3984 16.7361 12.4536C16.7887 12.5088 16.8301 12.5747 16.8575 12.6473C16.885 12.7198 16.8981 12.7975 16.8961 12.8755V15.8565C16.8961 16.0045 16.9521 16.1464 17.0517 16.251C17.1514 16.3556 17.2866 16.4144 17.4276 16.4144C17.5686 16.4144 17.7038 16.3556 17.8035 16.251C17.9032 16.1464 17.9592 16.0045 17.9592 15.8565V13.832C17.9592 13.5291 18.2629 13.2422 18.597 13.2422C18.6714 13.24 18.7454 13.2537 18.8145 13.2826C18.8837 13.3115 18.9465 13.3548 18.9991 13.41C19.0517 13.4652 19.093 13.5311 19.1205 13.6037C19.148 13.6763 19.1611 13.7539 19.159 13.832V16.2231C19.159 16.3711 19.215 16.513 19.3147 16.6176C19.4144 16.7223 19.5496 16.7811 19.6905 16.7811C19.8315 16.7811 19.9667 16.7223 20.0664 16.6176C20.1661 16.513 20.2221 16.3711 20.2221 16.2231V14.7406C20.2221 14.5653 20.2677 14.1667 20.6322 14.1667H20.7081C21.346 14.2465 21.4219 15.6652 21.4371 16.2709V19.9852C21.4378 20.7722 21.2606 21.5481 20.92 22.2492C20.5794 22.9503 20.0852 23.5566 19.4779 24.0182L19.4324 24.0501L19.3868 24.082C18.8189 24.4999 18.1711 24.7828 17.4884 24.9109C17.2124 24.9604 16.9331 24.9871 16.6531 24.9906C16.2166 24.9865 15.7826 24.9222 15.3621 24.7993C14.6858 24.6019 14.0598 24.2492 13.5292 23.7667C12.9986 23.2843 12.5768 22.6841 12.2942 22.0097C12.2031 21.8024 11.2311 18.8852 10.5629 16.9564C10.5379 16.8812 10.5278 16.8014 10.533 16.722C10.5382 16.6425 10.5587 16.565 10.5933 16.4941C10.6263 16.415 10.6765 16.345 10.7397 16.2897C10.803 16.2343 10.8776 16.1952 10.9578 16.1753L11.1248 16.1434Z"/>
<path d="M16.6379 26.1065C16.9739 26.1034 17.3092 26.0715 17.6402 26.0108C18.4746 25.8553 19.2672 25.5128 19.9639 25.0065L20.0095 24.9747L20.0702 24.9428C20.8203 24.3774 21.4317 23.6331 21.8542 22.7712C22.2766 21.9093 22.4981 20.9544 22.5002 19.9852V16.2709C22.485 13.7204 21.5586 13.1147 20.784 13.0509H20.6322C20.4444 13.0464 20.2579 13.0844 20.0854 13.1625C19.9586 12.8591 19.7502 12.601 19.4859 12.4198C19.2216 12.2386 18.9127 12.1422 18.597 12.1423C18.3445 12.1416 18.0951 12.2016 17.8681 12.3176C17.7924 12.1006 17.676 11.9017 17.5256 11.733C17.3752 11.5642 17.194 11.4289 16.9928 11.3352C16.7915 11.2415 16.5743 11.1912 16.3542 11.1875C16.1341 11.1837 15.9155 11.2265 15.7114 11.3133V7.59911C15.6722 7.17314 15.4833 6.77776 15.1815 6.49006C14.8796 6.20236 14.4865 6.04297 14.0788 6.04297C13.671 6.04297 13.2779 6.20236 12.9761 6.49006C12.6742 6.77776 12.4853 7.17314 12.4461 7.59911V15.6811C12.2931 15.4754 12.0952 15.3114 11.869 15.2029C11.6796 15.1027 11.4722 15.0452 11.2603 15.0343C11.0485 15.0233 10.8367 15.059 10.6388 15.1391C10.4328 15.214 10.2433 15.3317 10.0816 15.485C9.9198 15.6384 9.78908 15.8244 9.69719 16.0318C9.59851 16.235 9.54083 16.4574 9.52776 16.6851C9.51469 16.9127 9.54652 17.1408 9.62125 17.3549C9.77313 17.8491 11.2311 22.1691 11.3223 22.4719C11.6724 23.298 12.1913 24.0332 12.8422 24.6254C13.4931 25.2177 14.26 25.6526 15.0887 25.8992C15.596 26.0298 16.1157 26.0993 16.6379 26.1065V26.1065ZM11.1248 16.1434C11.2149 16.1383 11.3045 16.1604 11.383 16.2072C11.4545 16.2396 11.5186 16.2876 11.571 16.3481C11.6234 16.4086 11.6628 16.4801 11.6867 16.5579L12.4461 18.8215C12.49 18.9445 12.5727 19.048 12.6805 19.1148C12.7883 19.1815 12.9146 19.2074 13.0384 19.1881C13.1631 19.1654 13.2759 19.0967 13.3567 18.9944C13.4374 18.8921 13.4807 18.763 13.4789 18.6302V7.58317C13.4766 7.50372 13.4902 7.42465 13.5186 7.35097C13.547 7.2773 13.5897 7.21062 13.644 7.15517C13.6982 7.09972 13.7629 7.0567 13.8338 7.02885C13.9047 7.00099 13.9804 6.98891 14.056 6.99336C14.1311 6.99123 14.2058 7.00491 14.2757 7.0336C14.3456 7.06228 14.4094 7.10539 14.4632 7.16037C14.517 7.21535 14.5598 7.2811 14.5889 7.35372C14.6181 7.42633 14.6331 7.50436 14.6331 7.58317V15.4898C14.6331 15.6378 14.6891 15.7797 14.7888 15.8844C14.8885 15.989 15.0237 16.0478 15.1647 16.0478C15.3057 16.0478 15.4409 15.989 15.5406 15.8844C15.6402 15.7797 15.6962 15.6378 15.6962 15.4898V12.8277C15.73 12.6758 15.811 12.54 15.9266 12.4418C16.0421 12.3437 16.1855 12.2887 16.3341 12.2857C16.4085 12.2835 16.4825 12.2973 16.5516 12.3261C16.6207 12.355 16.6835 12.3984 16.7361 12.4536C16.7887 12.5088 16.8301 12.5747 16.8575 12.6473C16.885 12.7198 16.8981 12.7975 16.8961 12.8755V15.8565C16.8961 16.0045 16.9521 16.1464 17.0517 16.251C17.1514 16.3556 17.2866 16.4144 17.4276 16.4144C17.5686 16.4144 17.7038 16.3556 17.8035 16.251C17.9032 16.1464 17.9592 16.0045 17.9592 15.8565V13.832C17.9592 13.5291 18.2629 13.2422 18.597 13.2422C18.6714 13.24 18.7454 13.2537 18.8145 13.2826C18.8837 13.3115 18.9465 13.3548 18.9991 13.41C19.0517 13.4652 19.093 13.5311 19.1205 13.6037C19.148 13.6763 19.1611 13.7539 19.159 13.832V16.2231C19.159 16.3711 19.215 16.513 19.3147 16.6176C19.4144 16.7223 19.5496 16.7811 19.6905 16.7811C19.8315 16.7811 19.9667 16.7223 20.0664 16.6176C20.1661 16.513 20.2221 16.3711 20.2221 16.2231V14.7406C20.2221 14.5653 20.2677 14.1667 20.6322 14.1667H20.7081C21.346 14.2465 21.4219 15.6652 21.4371 16.2709V19.9852C21.4378 20.7722 21.2606 21.5481 20.92 22.2492C20.5794 22.9503 20.0852 23.5566 19.4779 24.0182L19.4324 24.0501L19.3868 24.082C18.8189 24.4999 18.1711 24.7828 17.4884 24.9109C17.2124 24.9604 16.9331 24.9871 16.6531 24.9906C16.2166 24.9865 15.7826 24.9222 15.3621 24.7993C14.6858 24.6019 14.0598 24.2492 13.5292 23.7667C12.9986 23.2843 12.5768 22.6841 12.2942 22.0097C12.2031 21.8024 11.2311 18.8852 10.5629 16.9564C10.5379 16.8812 10.5278 16.8014 10.533 16.722C10.5382 16.6425 10.5587 16.565 10.5933 16.4941C10.6263 16.415 10.6765 16.345 10.7397 16.2897C10.803 16.2343 10.8776 16.1952 10.9578 16.1753L11.1248 16.1434Z"/>
</g>
<defs>
<clipPath>
<rect width="13.0612" height="20.2449" transform="translate(9.46948 5.87756)"/>
</clipPath>
</defs>
</svg>
