<svg width="32" height="32" viewBox="0 0 32 32" xmlns="http://www.w3.org/2000/svg">
<path d="M16.0617 5.14856C13.9155 5.14856 11.8175 5.78499 10.0329 6.97736C8.24842 8.16974 6.85755 9.86451 6.03623 11.8474C5.21491 13.8302 5.00001 16.0121 5.41872 18.1171C5.83743 20.222 6.87093 22.1556 8.38854 23.6732C9.90614 25.1908 11.8397 26.2243 13.9447 26.643C16.0497 27.0617 18.2315 26.8468 20.2144 26.0255C22.1972 25.2042 23.892 23.8133 25.0844 22.0288C26.2768 20.2443 26.9132 18.1463 26.9132 16C26.9102 13.123 25.766 10.3645 23.7316 8.33013C21.6972 6.29572 18.9388 5.1515 16.0617 5.14856V5.14856ZM16.0617 25.7426C14.1348 25.7426 12.2512 25.1712 10.649 24.1007C9.04685 23.0302 7.79812 21.5086 7.06073 19.7284C6.32334 17.9481 6.1304 15.9892 6.50632 14.0994C6.88224 12.2095 7.81013 10.4735 9.17265 9.111C10.5352 7.74848 12.2711 6.82059 14.161 6.44467C16.0509 6.06875 18.0098 6.26169 19.79 6.99908C21.5702 7.73647 23.0918 8.9852 24.1624 10.5874C25.2329 12.1895 25.8043 14.0731 25.8043 16C25.8018 18.5832 24.7745 21.0598 22.948 22.8863C21.1214 24.7128 18.6448 25.7401 16.0617 25.7426V25.7426Z"/>
<path d="M16.6826 15.7261V9.0536C16.6826 8.90655 16.6242 8.76552 16.5202 8.66154C16.4163 8.55756 16.2752 8.49915 16.1282 8.49915C15.9811 8.49915 15.8401 8.55756 15.7361 8.66154C15.6321 8.76552 15.5737 8.90655 15.5737 9.0536V15.9637C15.5742 16.0447 15.5922 16.1247 15.6267 16.198C15.6612 16.2713 15.7112 16.3362 15.7733 16.3883L19.089 19.6437C19.194 19.7468 19.3357 19.804 19.4829 19.8027C19.6301 19.8014 19.7708 19.7416 19.8739 19.6366C19.9771 19.5315 20.0343 19.3898 20.0329 19.2426C20.0316 19.0954 19.9718 18.9548 19.8668 18.8516L16.6826 15.7261Z"/>
</svg>
