<svg width="32" height="32" viewBox="0 0 32 32" xmlns="http://www.w3.org/2000/svg">
<path d="M23.8479 13.5556H23.0748C22.5667 11.9457 21.5693 10.5341 20.2214 9.5175C18.8735 8.50087 17.2423 7.92972 15.5546 7.88353C13.867 7.83735 12.2069 8.31842 10.8055 9.2598C9.40401 10.2012 8.33088 11.5561 7.73543 13.1358C6.34091 13.3136 5.06646 14.0158 4.17132 15.0998C3.27618 16.1838 2.82759 17.568 2.91679 18.971C3.00599 20.374 3.62628 21.6903 4.65149 22.6521C5.67671 23.614 7.02983 24.1492 8.43563 24.1489C9.5984 24.1489 10.6535 23.5469 11.482 22.9323C12.678 23.9398 13.6871 24.1204 15.3378 24.1204H23.8479C24.5493 24.1325 25.2461 24.0049 25.8976 23.7449C26.5491 23.4849 27.1424 23.0977 27.6427 22.606C28.143 22.1143 28.5404 21.5278 28.8116 20.8809C29.0829 20.234 29.2226 19.5395 29.2226 18.838C29.2226 18.1365 29.0829 17.4421 28.8116 16.7951C28.5404 16.1482 28.143 15.5618 27.6427 15.07C27.1424 14.5783 26.5491 14.1912 25.8976 13.9312C25.2461 13.6711 24.5493 13.5435 23.8479 13.5556V13.5556ZM23.8479 23.0115H15.3378C13.7045 23.0115 12.9774 22.8388 11.8907 21.8107L11.5422 21.4828L11.1667 21.779C10.4206 22.3651 9.43682 23.0463 8.43563 23.0463C7.28647 23.0459 6.18264 22.598 5.35819 21.7974C4.53374 20.9969 4.0535 19.9067 4.0193 18.7581C3.9851 17.6094 4.39962 16.4926 5.17498 15.6444C5.95034 14.7963 7.02556 14.2834 8.17266 14.2146L8.55444 14.1861L8.67326 13.8265C9.14369 12.385 10.0688 11.1349 11.31 10.2638C12.5511 9.39259 14.0412 8.94735 15.5568 8.99483C17.0724 9.04231 18.5317 9.57995 19.7158 10.5271C20.9 11.4742 21.7451 12.7798 22.1243 14.2479L22.2321 14.6646H23.8527C24.4076 14.6537 24.9591 14.7537 25.4749 14.9586C25.9907 15.1635 26.4605 15.4691 26.8567 15.8578C27.253 16.2464 27.5678 16.7101 27.7827 17.2218C27.9976 17.7336 28.1082 18.283 28.1082 18.838C28.1082 19.393 27.9976 19.9425 27.7827 20.4542C27.5678 20.9659 27.253 21.4297 26.8567 21.8183C26.4605 22.2069 25.9907 22.5126 25.4749 22.7175C24.9591 22.9223 24.4076 23.0223 23.8527 23.0115H23.8479Z"/>
</svg>
