<svg width="32" height="32" viewBox="0 0 32 32" xmlns="http://www.w3.org/2000/svg">
<path d="M16.0807 4.47363C15.5736 4.47614 15.0786 4.63194 14.6581 4.92137C14.2377 5.21079 13.9106 5.62088 13.7183 6.09988C13.5259 6.57887 13.4768 7.1053 13.5773 7.61273C13.6777 8.12016 13.9231 8.58585 14.2826 8.95103C14.642 9.3162 15.0994 9.56449 15.597 9.66457C16.0945 9.76465 16.61 9.71203 17.0782 9.51334C17.5465 9.31466 17.9467 8.97882 18.2281 8.54821C18.5096 8.1176 18.6599 7.61152 18.6599 7.09383C18.6574 6.39749 18.3845 5.73058 17.901 5.23937C17.4175 4.74817 16.7629 4.47279 16.0807 4.47363V4.47363ZM14.5863 7.09383C14.5836 6.79152 14.6688 6.49518 14.8314 6.24244C14.9939 5.98969 15.2263 5.79194 15.4991 5.67429C15.7719 5.55663 16.0728 5.52438 16.3636 5.58163C16.6544 5.63887 16.922 5.78303 17.1324 5.9958C17.3428 6.20857 17.4865 6.48036 17.5453 6.77667C17.6041 7.07298 17.5754 7.38045 17.4627 7.66003C17.35 7.93962 17.1585 8.17873 16.9124 8.347C16.6664 8.51526 16.3769 8.60511 16.0807 8.60512C15.6864 8.60639 15.3077 8.44802 15.0276 8.16473C14.7475 7.88145 14.5888 7.49635 14.5863 7.09383V7.09383ZM24.9153 13.3703C24.4077 13.3725 23.9122 13.5281 23.4912 13.8176C23.0703 14.1071 22.7428 14.5174 22.5501 14.9968C22.3575 15.4761 22.3082 16.003 22.4087 16.5109C22.5091 17.0188 22.7547 17.4849 23.1145 17.8504C23.4743 18.2159 23.932 18.4643 24.43 18.5644C24.928 18.6645 25.4439 18.6117 25.9126 18.4127C26.3812 18.2137 26.7816 17.8774 27.0631 17.4463C27.3446 17.0152 27.4947 16.5086 27.4944 15.9905C27.492 15.2941 27.2191 14.6272 26.7355 14.136C26.252 13.6448 25.5974 13.3694 24.9153 13.3703V13.3703ZM23.4209 15.9905C23.4184 15.6882 23.504 15.392 23.6667 15.1395C23.8294 14.887 24.0619 14.6895 24.3348 14.572C24.6076 14.4546 24.9085 14.4226 25.1992 14.48C25.4899 14.5375 25.7573 14.6817 25.9675 14.8946C26.1778 15.1074 26.3213 15.3792 26.38 15.6755C26.4387 15.9717 26.4098 16.2791 26.2971 16.5586C26.1844 16.8381 25.9928 17.0771 25.7468 17.2453C25.5008 17.4135 25.2114 17.5033 24.9153 17.5033C24.5207 17.5046 24.1418 17.346 23.8616 17.0624C23.5814 16.7788 23.4229 16.3933 23.4209 15.9905V15.9905ZM9.84238 15.9905C9.84484 15.4688 9.69554 14.9582 9.4134 14.5232C9.13126 14.0883 8.72898 13.7487 8.25755 13.5474C7.78613 13.3461 7.26677 13.2922 6.76531 13.3925C6.26384 13.4929 5.80285 13.7429 5.44075 14.111C5.07866 14.4791 4.83176 14.9486 4.73134 15.4601C4.63093 15.9716 4.68153 16.502 4.87672 16.9841C5.07192 17.4662 5.40292 17.8783 5.82778 18.1681C6.25265 18.458 6.75224 18.6126 7.26324 18.6122C7.94565 18.6131 8.60049 18.3375 9.08404 17.8459C9.56759 17.3544 9.84033 16.6871 9.84238 15.9905V15.9905ZM7.26324 14.4792C7.55588 14.4817 7.84124 14.5726 8.08335 14.7404C8.32545 14.9082 8.51347 15.1454 8.62369 15.4222C8.73391 15.6989 8.76141 16.0028 8.7027 16.2955C8.644 16.5881 8.50173 16.8565 8.29383 17.0668C8.08593 17.277 7.8217 17.4197 7.53446 17.4769C7.24723 17.5341 6.94984 17.5032 6.67979 17.388C6.40974 17.2729 6.17912 17.0788 6.017 16.8301C5.85489 16.5814 5.76854 16.2892 5.76883 15.9905C5.77089 15.5878 5.92944 15.2025 6.20965 14.9191C6.48986 14.6357 6.86881 14.4775 7.26324 14.4792V14.4792ZM16.0807 22.5188C15.5732 22.521 15.0776 22.6766 14.6567 22.9661C14.2357 23.2556 13.9082 23.6659 13.7156 24.1453C13.5229 24.6246 13.4737 25.1515 13.5741 25.6594C13.6746 26.1673 13.9202 26.6334 14.2799 26.9989C14.6397 27.3644 15.0975 27.6129 15.5955 27.7129C16.0935 27.813 16.6094 27.7602 17.078 27.5612C17.5466 27.3622 17.947 27.0259 18.2285 26.5948C18.5101 26.1637 18.6602 25.6571 18.6599 25.139C18.6574 24.4426 18.3845 23.7757 17.901 23.2845C17.4175 22.7933 16.7629 22.5179 16.0807 22.5188V22.5188ZM14.5863 25.139C14.5839 24.8367 14.6694 24.5405 14.8321 24.288C14.9948 24.0355 15.2274 23.838 15.5002 23.7206C15.773 23.6031 16.0739 23.5711 16.3646 23.6285C16.6553 23.686 16.9227 23.8303 17.133 24.0431C17.3432 24.2559 17.4868 24.5277 17.5455 24.824C17.6041 25.1203 17.5753 25.4276 17.4625 25.7071C17.3498 25.9866 17.1583 26.2256 16.9123 26.3938C16.6662 26.562 16.3768 26.6518 16.0807 26.6519C15.6862 26.6531 15.3072 26.4945 15.027 26.2109C14.7469 25.9273 14.5884 25.5418 14.5863 25.139V25.139ZM12.8964 7.86532L12.496 6.83403C11.2702 7.33029 10.1559 8.0757 9.22089 9.02501C8.28588 9.97433 7.54963 11.1077 7.05685 12.3564L8.06554 12.7683C8.50296 11.6593 9.1568 10.6528 9.98728 9.80991C10.8178 8.96703 11.8075 8.30542 12.8964 7.86532ZM24.0959 12.7683L25.1046 12.3564C24.6119 11.1074 23.8755 9.97382 22.9402 9.02447C22.0049 8.07511 20.8902 7.32986 19.6639 6.83403L19.2589 7.86532C20.3486 8.3051 21.3394 8.96653 22.1709 9.8094C23.0025 10.6523 23.6574 11.659 24.0959 12.7683ZM19.2418 24.1251L19.6375 25.158C20.8698 24.6642 21.9904 23.9187 22.9305 22.9672C23.8706 22.0157 24.6104 20.8782 25.1046 19.6245L24.0959 19.2142C23.657 20.3271 23.0001 21.3366 22.1654 22.1811C21.3307 23.0256 20.3358 23.6871 19.2418 24.1251V24.1251ZM8.06554 19.2142L7.05685 19.6261C7.55108 20.8796 8.29094 22.0169 9.23104 22.9681C10.1711 23.9194 11.2917 24.6646 12.5239 25.158L12.9197 24.1251C11.8256 23.6871 10.8308 23.0256 9.9961 22.1811C9.1614 21.3366 8.50446 20.3271 8.06554 19.2142V19.2142Z"/>
</svg>
