<svg width="32" height="32" viewBox="0 0 32 32" xmlns="http://www.w3.org/2000/svg">
<g clip-path="url(#clip0_9220_24814)">
<path d="M11.4592 11.655C11.9418 11.655 12.333 11.2588 12.333 10.7702C12.333 10.2815 11.9418 9.88538 11.4592 9.88538C10.9766 9.88538 10.5853 10.2815 10.5853 10.7702C10.5853 11.2588 10.9766 11.655 11.4592 11.655Z"/>
<path d="M17.6852 14.1672C17.6821 14.3091 17.7211 14.4487 17.797 14.568C17.873 14.6873 17.9825 14.7809 18.1114 14.8366C18.2403 14.8924 18.3828 14.9078 18.5204 14.8809C18.6581 14.854 18.7846 14.7859 18.8838 14.6855C18.9829 14.5852 19.0501 14.457 19.0767 14.3177C19.1033 14.1783 19.0881 14.034 19.033 13.9035C18.9779 13.773 18.8855 13.6621 18.7677 13.5852C18.6498 13.5083 18.512 13.4689 18.3718 13.472C18.1897 13.472 18.0151 13.5452 17.8863 13.6756C17.7576 13.806 17.6852 13.9828 17.6852 14.1672V14.1672Z"/>
<path d="M23.646 20.5346C23.2091 20.1396 22.4601 20.1396 22.4601 20.1396L21.2118 20.6452L20.3223 21.53L20.2131 21.4668L20.1195 17.106L19.6202 15.5734C20.2599 15.6208 20.6656 16.3318 20.8685 16.7584C21.0713 17.185 21.0245 17.6116 21.3834 17.6116C21.4786 17.6116 21.5699 17.5733 21.6372 17.5052C21.7045 17.437 21.7423 17.3446 21.7423 17.2482C21.4771 16.1422 21.0401 15.5734 20.5876 15.1784C20.1351 14.7834 19.4017 14.7992 19.4017 14.7992L18.1534 15.3048L17.2171 16.2054L16.4213 15.8104L16.2965 15.7314L15.095 13.7723V11.7815L19.9322 9.36409C20.0058 9.32948 20.0674 9.27334 20.1091 9.20294C20.1508 9.13253 20.1707 9.05108 20.1663 8.9691C20.1669 8.88784 20.1453 8.80799 20.1041 8.73832C20.0628 8.66864 20.0033 8.61182 19.9322 8.5741L14.8141 6.28312C14.7495 6.25395 14.6788 6.2417 14.6083 6.2475C14.5378 6.2533 14.4699 6.27696 14.4109 6.3163C14.3518 6.35565 14.3035 6.40941 14.2703 6.47264C14.2371 6.53587 14.2202 6.60653 14.2211 6.67811V12.6031L13.8466 12.7769L12.8636 13.2825L11.7245 12.1923L10.1641 11.5603C10.1485 11.5603 9.22782 11.5445 8.65047 12.0343C8.07312 12.5241 7.58939 13.1245 7.21489 14.6254C7.2127 14.6862 7.22291 14.7468 7.24488 14.8034C7.26685 14.86 7.30011 14.9114 7.34257 14.9544C7.38503 14.9974 7.43579 15.031 7.49169 15.0533C7.54758 15.0755 7.60739 15.0859 7.66741 15.0836C7.97949 15.0836 8.05751 14.815 8.16674 14.499C8.21012 14.3363 8.26756 14.1776 8.33839 14.0251C8.61926 13.4247 9.08738 12.6189 9.82078 12.5557L9.24342 14.4516V22.004L7.35533 25.0534C7.31466 25.1222 7.2919 25.2003 7.28917 25.2804C7.28644 25.3606 7.30384 25.4401 7.33972 25.5116C7.37648 25.5793 7.43075 25.6357 7.49671 25.6747C7.56268 25.7136 7.63786 25.7337 7.71422 25.7328H21.6487C21.7271 25.7332 21.8042 25.7131 21.8726 25.6743C21.941 25.6356 21.9983 25.5795 22.0388 25.5116C22.0778 25.441 22.0969 25.361 22.0942 25.2802C22.0914 25.1995 22.0669 25.121 22.0232 25.0534L21.5395 24.2634L22.3821 23.3312V25.717H23.1935V22.4464L22.7098 20.9296C23.3495 20.977 23.7553 21.688 23.9425 22.1146C24.1298 22.5412 24.0985 22.9678 24.4574 22.9678C24.5059 22.9678 24.5539 22.9579 24.5985 22.9387C24.6431 22.9194 24.6834 22.8913 24.7169 22.8558C24.7504 22.8204 24.7765 22.7784 24.7936 22.7325C24.8107 22.6866 24.8184 22.6376 24.8163 22.5886C24.5355 21.4826 24.0829 20.9296 23.646 20.5346V20.5346ZM19.3237 20.6926L18.3094 19.0494L19.2613 18.0066L19.3237 20.6926ZM17.2951 17.0586C17.4824 17.0586 18.3718 16.0948 18.3718 16.0948L18.7463 17.264L17.8257 18.2436L17.0299 16.948L17.2951 17.0586ZM10.2889 20.2976V15.605L11.7089 17.185V18.0382L10.2889 20.2976ZM12.6607 16.4582L10.9755 14.6412L11.428 13.2351C11.584 13.4089 12.5203 14.42 12.7544 14.42C12.9884 14.42 13.8935 13.8829 14.2211 13.6775V13.9303L12.6607 16.4582ZM18.7307 9.00069L15.1106 10.8019L15.0794 8.4635V7.46811C15.0816 7.4357 15.0763 7.40321 15.0638 7.37331L18.7307 9.00069ZM8.49443 24.848L14.7049 14.7992L20.8841 24.848H8.49443ZM21.0245 23.4576L20.3848 22.399H20.4004C20.572 22.399 21.4614 21.4352 21.4614 21.4352L21.8359 22.6044L21.0245 23.4576Z"/>
<path d="M21.4302 20.2028C21.8094 20.2028 22.1168 19.8915 22.1168 19.5076C22.1168 19.1236 21.8094 18.8124 21.4302 18.8124C21.051 18.8124 20.7437 19.1236 20.7437 19.5076C20.7437 19.8915 21.051 20.2028 21.4302 20.2028Z"/>
</g>
<defs>
<clipPath>
<rect width="17.6327" height="19.5918" transform="translate(7.18372 6.2041)"/>
</clipPath>
</defs>
</svg>
