<svg width="32" height="32" viewBox="0 0 32 32" xmlns="http://www.w3.org/2000/svg">
<path d="M27.1114 13.6878C27.1064 13.6645 27.0995 13.6417 27.0908 13.6195C27.0878 13.6079 27.0841 13.5965 27.0797 13.5854C27.0691 13.5618 27.0569 13.539 27.0432 13.5171L27.029 13.4923C27.0094 13.463 26.9866 13.4359 26.9609 13.4116L21.3767 7.93983C21.3515 7.91607 21.3245 7.89428 21.2959 7.87466L21.2658 7.85914C21.2448 7.84656 21.2231 7.83517 21.2009 7.825L21.1613 7.81258C21.1407 7.81258 21.1201 7.79862 21.0979 7.79396C21.0614 7.78643 21.0243 7.78279 20.987 7.7831H13.5414C12.9007 7.7831 12.2861 8.03212 11.8326 8.4755C11.3791 8.91889 11.1237 9.52042 11.1224 10.1481V24.7353C11.1233 25.3627 11.3781 25.9641 11.8309 26.4078C12.2838 26.8514 12.8978 27.101 13.5383 27.1018H24.7129C25.3534 27.101 25.9674 26.8514 26.4203 26.4078C26.8731 25.9641 27.1279 25.3627 27.1288 24.7353V13.7949C27.1271 13.7587 27.1213 13.7227 27.1114 13.6878V13.6878ZM21.5446 9.63753L25.2357 13.2533H21.5446V9.63753ZM24.7129 26.0171H13.5383C13.1918 26.0167 12.8596 25.8817 12.6146 25.6417C12.3696 25.4016 12.2318 25.0762 12.2313 24.7368V10.1496C12.2305 9.98092 12.2637 9.81369 12.329 9.65756C12.3943 9.50143 12.4904 9.35946 12.6118 9.2398C12.7332 9.12013 12.8776 9.02512 13.0366 8.96023C13.1955 8.89533 13.366 8.86182 13.5383 8.86162H20.4357V14.338H26.0199V24.7353C26.0194 25.0747 25.8816 25.4001 25.6366 25.6401C25.3916 25.8801 25.0594 26.0151 24.7129 26.0155V26.0171Z"/>
<path d="M22.6963 18.964H15.0622C14.9152 18.964 14.7742 19.0212 14.6702 19.1231C14.5662 19.225 14.5078 19.3631 14.5078 19.5072C14.5078 19.6512 14.5662 19.7894 14.6702 19.8912C14.7742 19.9931 14.9152 20.0503 15.0622 20.0503H22.6963C22.8433 20.0503 22.9844 19.9931 23.0884 19.8912C23.1923 19.7894 23.2508 19.6512 23.2508 19.5072C23.2508 19.3631 23.1923 19.225 23.0884 19.1231C22.9844 19.0212 22.8433 18.964 22.6963 18.964V18.964ZM22.6963 22.7039H15.0622C14.9152 22.7039 14.7742 22.7612 14.6702 22.863C14.5662 22.9649 14.5078 23.103 14.5078 23.2471C14.5078 23.3911 14.5662 23.5293 14.6702 23.6311C14.7742 23.733 14.9152 23.7902 15.0622 23.7902H22.6963C22.8433 23.7902 22.9844 23.733 23.0884 23.6311C23.1923 23.5293 23.2508 23.3911 23.2508 23.2471C23.2508 23.103 23.1923 22.9649 23.0884 22.863C22.9844 22.7612 22.8433 22.7039 22.6963 22.7039V22.7039ZM7.47729 22.7474C7.13739 22.7474 6.81141 22.6151 6.57107 22.3797C6.33073 22.1442 6.1957 21.8249 6.1957 21.492V7.10339C6.1957 6.77029 6.33068 6.45081 6.57097 6.21512C6.81127 5.97944 7.13724 5.84682 7.47729 5.84641H13.7585C13.9055 5.84641 14.0466 5.78919 14.1505 5.68733C14.2545 5.58547 14.3129 5.44732 14.3129 5.30327C14.3129 5.15922 14.2545 5.02107 14.1505 4.91921C14.0466 4.81736 13.9055 4.76013 13.7585 4.76013H7.47729C6.84327 4.76095 6.23549 5.00815 5.78732 5.44746C5.33915 5.88677 5.08721 6.48232 5.08679 7.10339V21.492C5.08721 22.1129 5.3392 22.7083 5.78742 23.1473C6.23563 23.5864 6.84342 23.8333 7.47729 23.8337C7.62434 23.8337 7.76537 23.7764 7.86935 23.6746C7.97333 23.5727 8.03174 23.4346 8.03174 23.2905C8.03174 23.1465 7.97333 23.0083 7.86935 22.9065C7.76537 22.8046 7.62434 22.7474 7.47729 22.7474V22.7474Z"/>
</svg>
