<svg width="32" height="32" viewBox="0 0 32 32" xmlns="http://www.w3.org/2000/svg">
<path d="M27.0051 16.0807C27.0041 15.0497 26.6942 14.0416 26.1138 13.1815C25.5334 12.3214 24.7081 11.6471 23.7402 11.2421L24.2788 8.0857C24.2922 8.00794 24.288 7.92827 24.2667 7.85223C24.2454 7.7762 24.2074 7.70564 24.1553 7.64549C24.1033 7.58534 24.0385 7.53705 23.9654 7.50399C23.8923 7.47094 23.8127 7.45391 23.7322 7.4541L8.11402 7.5767C8.03458 7.57694 7.95616 7.59415 7.8842 7.62711C7.81225 7.66008 7.7485 7.70801 7.69738 7.76757C7.64575 7.8269 7.60771 7.89639 7.58585 7.97135C7.56398 8.04631 7.5588 8.12499 7.57065 8.20208L10.4396 26.3973C10.4589 26.5263 10.5249 26.6442 10.6254 26.7297C10.726 26.8151 10.8546 26.8624 10.9877 26.8628H20.6083C20.7394 26.8631 20.8664 26.8176 20.9665 26.7346C21.0667 26.6516 21.1334 26.5365 21.1548 26.4097L22.0198 21.3244C23.3729 21.228 24.6388 20.6339 25.5634 19.6614C26.4881 18.6888 27.0031 17.4097 27.0051 16.0807V16.0807ZM20.1394 25.7765H11.4629L8.76035 8.65056L23.0764 8.53883L20.1394 25.7765ZM22.2099 20.2179L23.5501 12.3579C24.3624 12.758 25.0226 13.4024 25.4341 14.1966C25.8456 14.9908 25.9868 15.8932 25.837 16.7717C25.6872 17.6502 25.2543 18.4587 24.6016 19.0788C23.949 19.6989 23.1108 20.0981 22.2099 20.2179Z"/>
</svg>
