<svg width="32" height="32" viewBox="0 0 32 32" xmlns="http://www.w3.org/2000/svg">
<path d="M25.9802 16.4841C26.1273 16.4841 26.2683 16.4269 26.3723 16.325C26.4763 16.2231 26.5347 16.085 26.5347 15.9409C26.5347 15.7969 26.4763 15.6587 26.3723 15.5569C26.2683 15.455 26.1273 15.3978 25.9802 15.3978H23.6214V12.3562H25.9802C26.1273 12.3562 26.2683 12.299 26.3723 12.1971C26.4763 12.0953 26.5347 11.9571 26.5347 11.8131C26.5347 11.669 26.4763 11.5309 26.3723 11.429C26.2683 11.3272 26.1273 11.2699 25.9802 11.2699H23.6214V8.61786H20.8222V6.39409C20.8222 6.25004 20.7638 6.11189 20.6598 6.01003C20.5558 5.90818 20.4148 5.85095 20.2677 5.85095C20.1207 5.85095 19.9797 5.90818 19.8757 6.01003C19.7717 6.11189 19.7133 6.25004 19.7133 6.39409V8.61786H16.6083V6.39409C16.6083 6.25004 16.5499 6.11189 16.4459 6.01003C16.342 5.90818 16.2009 5.85095 16.0539 5.85095C15.9068 5.85095 15.7658 5.90818 15.6618 6.01003C15.5578 6.11189 15.4994 6.25004 15.4994 6.39409V8.61786H12.3961V6.39409C12.3961 6.25004 12.3376 6.11189 12.2337 6.01003C12.1297 5.90818 11.9887 5.85095 11.8416 5.85095C11.6946 5.85095 11.5535 5.90818 11.4495 6.01003C11.3456 6.11189 11.2871 6.25004 11.2871 6.39409V8.61786H8.46893V11.2699H6.17823C6.03118 11.2699 5.89016 11.3272 5.78618 11.429C5.6822 11.5309 5.62378 11.669 5.62378 11.8131C5.62378 11.9571 5.6822 12.0953 5.78618 12.1971C5.89016 12.299 6.03118 12.3562 6.17823 12.3562H8.46893V15.3978H6.17823C6.03118 15.3978 5.89016 15.455 5.78618 15.5569C5.6822 15.6587 5.62378 15.7969 5.62378 15.9409C5.62378 16.085 5.6822 16.2231 5.78618 16.325C5.89016 16.4269 6.03118 16.4841 6.17823 16.4841H8.46893V19.5257H6.17823C6.03118 19.5257 5.89016 19.5829 5.78618 19.6848C5.6822 19.7866 5.62378 19.9248 5.62378 20.0688C5.62378 20.2129 5.6822 20.351 5.78618 20.4529C5.89016 20.5547 6.03118 20.6119 6.17823 20.6119H8.46893V23.4611H11.2871V25.7221C11.2871 25.8662 11.3456 26.0043 11.4495 26.1062C11.5535 26.208 11.6946 26.2653 11.8416 26.2653C11.9887 26.2653 12.1297 26.208 12.2337 26.1062C12.3376 26.0043 12.3961 25.8662 12.3961 25.7221V23.4611H15.4994V25.7221C15.4994 25.8662 15.5578 26.0043 15.6618 26.1062C15.7658 26.208 15.9068 26.2653 16.0539 26.2653C16.2009 26.2653 16.342 26.208 16.4459 26.1062C16.5499 26.0043 16.6083 25.8662 16.6083 25.7221V23.4611H19.7133V25.7221C19.7133 25.8662 19.7717 26.0043 19.8757 26.1062C19.9797 26.208 20.1207 26.2653 20.2677 26.2653C20.4148 26.2653 20.5558 26.208 20.6598 26.1062C20.7638 26.0043 20.8222 25.8662 20.8222 25.7221V23.4611H23.6214V20.6119H25.9802C26.1273 20.6119 26.2683 20.5547 26.3723 20.4529C26.4763 20.351 26.5347 20.2129 26.5347 20.0688C26.5347 19.9248 26.4763 19.7866 26.3723 19.6848C26.2683 19.5829 26.1273 19.5257 25.9802 19.5257H23.6214V16.4841H25.9802ZM22.5125 22.381H9.57784V9.70414H22.5125V22.381Z"/>
<path d="M13.2008 20.3823H18.8895C19.3197 20.3709 19.7279 20.1931 20.0248 19.8878C20.3216 19.5825 20.483 19.1744 20.4736 18.7529V13.3215C20.4826 12.9002 20.321 12.4926 20.0242 12.1876C19.7274 11.8826 19.3195 11.705 18.8895 11.6936H13.2008C12.7708 11.705 12.3628 11.8826 12.066 12.1876C11.7692 12.4926 11.6077 12.9002 11.6166 13.3215V18.7529C11.6072 19.1744 11.7686 19.5825 12.0655 19.8878C12.3623 20.1931 12.7705 20.3709 13.2008 20.3823V20.3823ZM12.7255 13.3246C12.7167 13.1914 12.7615 13.0601 12.8504 12.9588C12.9392 12.8576 13.065 12.7945 13.2008 12.783H18.8895C19.0252 12.7945 19.151 12.8576 19.2398 12.9588C19.3287 13.0601 19.3735 13.1914 19.3647 13.3246V18.756C19.3739 18.8894 19.3293 19.0211 19.2404 19.1227C19.1516 19.2243 19.0255 19.2876 18.8895 19.2991H13.2008C13.0647 19.2876 12.9387 19.2243 12.8498 19.1227C12.7609 19.0211 12.7163 18.8894 12.7255 18.756V13.3246Z"/>
</svg>
