<svg width="32" height="32" viewBox="0 0 32 32" xmlns="http://www.w3.org/2000/svg">
<g clip-path="url(#clip0_9220_24834)">
<path d="M20.7692 17.0222C19.9873 15.936 18.627 15.281 16.7193 15.0894V8.81151C17.5165 8.8913 18.2781 9.18839 18.9245 9.67171C19.571 10.155 20.0784 10.8069 20.3939 11.5591C20.4577 11.6853 20.5661 11.7821 20.6972 11.8296C20.8283 11.8771 20.9722 11.8719 21.0996 11.8149C21.2271 11.758 21.3285 11.6536 21.3833 11.523C21.4381 11.3924 21.4421 11.2453 21.3947 11.1118C20.9959 10.1583 20.3495 9.33431 19.5255 8.72898C18.7014 8.12364 17.731 7.75999 16.7193 7.67735V5.47291C16.7193 5.32463 16.6616 5.18242 16.559 5.07757C16.4564 4.97272 16.3171 4.91382 16.172 4.91382C16.0269 4.91382 15.8876 4.97272 15.785 5.07757C15.6824 5.18242 15.6247 5.32463 15.6247 5.47291V7.69332C12.2941 7.90099 11.2621 10.0894 11.1839 11.2875C11.0704 12.3355 11.3559 13.388 11.9814 14.2268C12.7476 15.2331 13.9672 15.8561 15.6247 16.0957V22.8049C14.452 22.709 13.4512 22.118 12.6381 21.0797C12.176 20.4885 11.8212 19.8177 11.5905 19.0989C11.5405 18.9701 11.4455 18.8649 11.3239 18.8036C11.2024 18.7423 11.0628 18.7293 10.9324 18.7671C10.802 18.8049 10.6899 18.8908 10.6179 19.0081C10.5459 19.1255 10.5192 19.266 10.5428 19.4024C10.5584 19.4503 11.8094 23.6355 15.6404 23.9071V26.5269C15.6404 26.6751 15.698 26.8173 15.8006 26.9222C15.9033 27.027 16.0425 27.0859 16.1876 27.0859C16.3328 27.0859 16.472 27.027 16.5746 26.9222C16.6773 26.8173 16.7349 26.6751 16.7349 26.5269V23.8751C20.5972 23.4598 21.3634 20.265 21.4259 19.9295C21.4259 19.8656 21.7387 18.3641 20.7692 17.0222ZM12.857 13.5558C12.4071 12.954 12.195 12.2014 12.2628 11.4472V11.3834C12.3221 10.9079 12.5118 10.4594 12.8101 10.0894C13.3887 9.33866 14.3269 8.90736 15.6091 8.81151V14.9616C14.3581 14.7539 13.4199 14.2747 12.857 13.5558ZM20.347 19.7059V19.7378C20.3314 19.8497 19.831 22.3895 16.7193 22.7889V16.2075C18.236 16.3833 19.2993 16.8785 19.8779 17.6772C20.083 17.9671 20.2301 18.2956 20.3106 18.6437C20.3911 18.9919 20.4035 19.3528 20.347 19.7059Z"/>
</g>
<defs>
<clipPath>
<rect width="11.102" height="22.2041" transform="translate(10.449 4.89795)"/>
</clipPath>
</defs>
</svg>
