<svg width="32" height="32" viewBox="0 0 32 32" xmlns="http://www.w3.org/2000/svg">
<g clip-path="url(#clip0_9220_24832)">
<path d="M29.1753 22.2716H2.809V9.69759H29.207V22.2716H29.1753ZM29.6827 22.1637V9.82086C29.6785 9.64373 29.6032 9.4752 29.4728 9.35137C29.3424 9.22753 29.1674 9.15821 28.985 9.15826H3.01511C2.92426 9.15621 2.8339 9.17183 2.74934 9.20421C2.66479 9.23658 2.58775 9.28506 2.52276 9.3468C2.45776 9.40853 2.40612 9.48227 2.37087 9.56368C2.33563 9.6451 2.31748 9.73253 2.3175 9.82086V22.1637C2.3175 22.3435 2.391 22.516 2.52183 22.6431C2.65266 22.7703 2.83009 22.8417 3.01511 22.8417H29.0168C29.1949 22.8302 29.3621 22.7542 29.4854 22.6286C29.6087 22.5031 29.6791 22.3372 29.6827 22.1637"/>
<path d="M19.7734 21.0388H28.1764V21.6552H19.7734V21.0388Z"/>
<path d="M3.52246 21.0388H11.9254V21.6552H3.52246V21.0388Z"/>
<path d="M5.06028 10.7607C5.19825 10.7607 5.33312 10.8005 5.44784 10.875C5.56257 10.9495 5.65198 11.0554 5.70478 11.1793C5.75758 11.3032 5.77139 11.4395 5.74448 11.571C5.71756 11.7025 5.65112 11.8234 5.55356 11.9182C5.456 12.013 5.33169 12.0776 5.19637 12.1037C5.06105 12.1299 4.92078 12.1165 4.79331 12.0652C4.66584 12.0138 4.55689 11.9269 4.48024 11.8154C4.40358 11.7039 4.36267 11.5728 4.36267 11.4388C4.36267 11.2589 4.43617 11.0865 4.56699 10.9593C4.69782 10.8322 4.87526 10.7607 5.06028 10.7607"/>
<path d="M9.46799 10.7607C9.60596 10.7607 9.74084 10.8005 9.85556 10.875C9.97028 10.9495 10.0597 11.0554 10.1125 11.1793C10.1653 11.3032 10.1791 11.4395 10.1522 11.571C10.1253 11.7025 10.0588 11.8234 9.96127 11.9182C9.86371 12.013 9.73941 12.0776 9.60409 12.1037C9.46876 12.1299 9.3285 12.1165 9.20103 12.0652C9.07356 12.0138 8.96461 11.9269 8.88795 11.8154C8.8113 11.7039 8.77039 11.5728 8.77039 11.4388C8.77443 11.2602 8.84922 11.09 8.97918 10.9637C9.10914 10.8374 9.28424 10.7647 9.46799 10.7607"/>
<path d="M22.77 10.7607C22.908 10.7607 23.0428 10.8005 23.1576 10.875C23.2723 10.9495 23.3617 11.0554 23.4145 11.1793C23.4673 11.3032 23.4811 11.4395 23.4542 11.571C23.4273 11.7025 23.3608 11.8234 23.2633 11.9182C23.1657 12.013 23.0414 12.0776 22.9061 12.1037C22.7708 12.1299 22.6305 12.1165 22.503 12.0652C22.3756 12.0138 22.2666 11.9269 22.19 11.8154C22.1133 11.7039 22.0724 11.5728 22.0724 11.4388C22.0724 11.2589 22.1459 11.0865 22.2767 10.9593C22.4075 10.8322 22.585 10.7607 22.77 10.7607Z"/>
<path d="M7.28 10.7607C7.41798 10.7607 7.55285 10.8005 7.66757 10.875C7.78229 10.9495 7.87171 11.0554 7.92451 11.1793C7.97731 11.3032 7.99112 11.4395 7.9642 11.571C7.93729 11.7025 7.87085 11.8234 7.77328 11.9182C7.67572 12.013 7.55142 12.0776 7.4161 12.1037C7.28078 12.1299 7.14051 12.1165 7.01304 12.0652C6.88557 12.0138 6.77662 11.9269 6.69997 11.8154C6.62331 11.7039 6.5824 11.5728 6.5824 11.4388C6.5824 11.2589 6.6559 11.0865 6.78672 10.9593C6.91755 10.8322 7.09499 10.7607 7.28 10.7607Z"/>
<path d="M24.9896 10.7608C25.1282 10.7577 25.2646 10.7949 25.3814 10.8675C25.4982 10.9401 25.5901 11.0449 25.6453 11.1685C25.7006 11.2921 25.7166 11.4289 25.6915 11.5614C25.6664 11.6939 25.6013 11.8161 25.5044 11.9125C25.4075 12.0089 25.2832 12.075 25.1475 12.1024C25.0118 12.1299 24.8707 12.1174 24.7423 12.0665C24.6139 12.0157 24.504 11.9288 24.4266 11.817C24.3492 11.7052 24.3079 11.5736 24.3079 11.4388C24.3078 11.2616 24.3791 11.0915 24.5066 10.9647C24.634 10.838 24.8074 10.7648 24.9896 10.7608Z"/>
<path d="M27.2093 10.7608C27.3479 10.7577 27.4843 10.7949 27.6011 10.8675C27.7179 10.9401 27.8098 11.0449 27.865 11.1685C27.9203 11.2921 27.9364 11.4289 27.9113 11.5614C27.8862 11.6939 27.821 11.8161 27.7241 11.9125C27.6272 12.0089 27.503 12.075 27.3672 12.1024C27.2315 12.1299 27.0904 12.1174 26.962 12.0665C26.8336 12.0157 26.7237 11.9288 26.6463 11.817C26.569 11.7052 26.5276 11.5736 26.5276 11.4388C26.5275 11.2616 26.5989 11.0915 26.7263 10.9647C26.8537 10.838 27.0271 10.7648 27.2093 10.7608"/>
<path d="M17.8391 17.5716C17.8391 17.6333 17.6013 18.7582 16.1586 18.9431V16.0307C16.8562 16.1078 17.3635 16.3235 17.633 16.6779C17.8143 16.9403 17.8879 17.2592 17.8391 17.5716ZM14.3511 14.8596C14.1415 14.591 14.0452 14.2549 14.0816 13.9196V13.8888C14.1059 13.6785 14.1942 13.4799 14.3353 13.3187C14.6048 12.9797 15.0487 12.7947 15.6353 12.7485V15.476C15.0329 15.3835 14.6048 15.1678 14.3511 14.8596ZM18.0135 16.3851C17.6489 15.9228 17.0147 15.6147 16.1268 15.5376V12.7639C16.4998 12.8006 16.8561 12.9326 17.1596 13.1464C17.4631 13.3602 17.7031 13.6482 17.855 13.9813C17.8826 14.0365 17.9304 14.0797 17.989 14.1025C18.0477 14.1253 18.1129 14.126 18.1721 14.1045C18.2035 14.0927 18.2322 14.0748 18.2565 14.052C18.2807 14.0292 18.3001 14.002 18.3134 13.9719C18.3266 13.9417 18.3336 13.9093 18.3339 13.8765C18.3341 13.8438 18.3276 13.8113 18.3148 13.7809C18.1251 13.3619 17.8238 12.9995 17.442 12.7314C17.0602 12.4632 16.6116 12.2989 16.1427 12.2554V11.2846C16.1427 11.2192 16.116 11.1565 16.0684 11.1103C16.0208 11.0641 15.9563 11.0381 15.889 11.0381C15.8217 11.0381 15.7572 11.0641 15.7096 11.1103C15.6621 11.1565 15.6353 11.2192 15.6353 11.2846V12.2708C14.0816 12.3633 13.606 13.3341 13.5742 13.858C13.5199 14.319 13.6505 14.7826 13.9389 15.1524C14.2877 15.5992 14.8585 15.8766 15.6353 15.9845V18.9585C15.3604 18.9317 15.0942 18.8493 14.8539 18.7166C14.6136 18.5839 14.4046 18.4039 14.2401 18.188C14.0246 17.9255 13.8583 17.6282 13.7486 17.3097C13.7417 17.2769 13.7275 17.246 13.7071 17.2191C13.6867 17.1922 13.6605 17.1699 13.6303 17.1538C13.6002 17.1377 13.5668 17.1281 13.5325 17.1258C13.4982 17.1234 13.4637 17.1283 13.4316 17.1402C13.3991 17.149 13.3688 17.1641 13.3424 17.1844C13.316 17.2048 13.2941 17.23 13.2779 17.2587C13.2616 17.2874 13.2514 17.319 13.2479 17.3515C13.2443 17.3841 13.2475 17.417 13.2572 17.4484C13.2572 17.4638 13.8438 19.3129 15.6353 19.4362V20.5919C15.6353 20.6573 15.6621 20.72 15.7096 20.7662C15.7572 20.8124 15.8217 20.8384 15.889 20.8384C15.9563 20.8384 16.0208 20.8124 16.0684 20.7662C16.116 20.72 16.1427 20.6573 16.1427 20.5919V19.4208C17.9343 19.2358 18.2989 17.8182 18.3306 17.6795C18.4037 17.2243 18.2898 16.7595 18.0135 16.3851"/>
</g>
<defs>
<clipPath>
<rect width="27.4286" height="13.7143" transform="translate(2.28577 9.14282)"/>
</clipPath>
</defs>
</svg>
