<svg width="32" height="32" viewBox="0 0 32 32" xmlns="http://www.w3.org/2000/svg">
<path d="M25.3576 6.60828C25.0404 6.28992 24.6635 6.03732 24.2484 5.86496C23.8334 5.69261 23.3884 5.60388 22.939 5.60388C22.4897 5.60388 22.0447 5.69261 21.6296 5.86496C21.2146 6.03732 20.8377 6.28992 20.5205 6.60828L6.67045 20.4583L5.40881 26.5524L11.5075 25.2923L25.3576 11.4469C25.6762 11.1297 25.929 10.7527 26.1015 10.3375C26.274 9.92231 26.3627 9.47716 26.3627 9.02758C26.3627 8.578 26.274 8.13285 26.1015 7.71768C25.929 7.30251 25.6762 6.92549 25.3576 6.60828V6.60828ZM11.5215 23.7467L8.22073 20.4444L19.4963 9.1719L22.7986 12.4742L11.5215 23.7467ZM7.59379 21.3553L10.6121 24.3798L6.80701 25.1557L7.59379 21.3553ZM24.5894 10.6787L23.5668 11.7014L20.2645 8.39599L21.2887 7.37333C21.7266 6.93563 22.3204 6.68981 22.9396 6.68995C23.5587 6.6901 24.1525 6.9362 24.5902 7.37411C25.0279 7.81202 25.2737 8.40587 25.2736 9.02503C25.2734 9.64418 25.0273 10.2379 24.5894 10.6756V10.6787Z"/>
</svg>
