<svg width="32" height="32" viewBox="0 0 32 32" xmlns="http://www.w3.org/2000/svg">
<g clip-path="url(#clip0_9220_24840)">
<path d="M26.9583 23.5202C26.867 23.405 26.7334 23.3304 26.5867 23.3126C26.4401 23.2948 26.2922 23.3353 26.1756 23.4252C25.1963 24.1703 24.0784 24.7169 22.8857 25.0334C21.6931 25.35 20.4493 25.4305 19.2253 25.2702C18.0012 25.1099 16.8211 24.7121 15.7524 24.0994C14.6837 23.4867 13.7473 22.6712 12.9969 21.6995C12.4069 20.9439 11.9431 20.0994 11.6231 19.1981H20.0894C20.2377 19.1981 20.3799 19.1397 20.4848 19.0358C20.5896 18.9319 20.6485 18.7909 20.6485 18.644C20.6485 18.497 20.5896 18.3561 20.4848 18.2522C20.3799 18.1482 20.2377 18.0899 20.0894 18.0899H11.3036C11.0596 17.0202 11.0055 15.9166 11.1439 14.8285C11.1758 14.6227 11.2078 14.401 11.2557 14.1952H22.0862C22.2345 14.1952 22.3767 14.1369 22.4815 14.0329C22.5864 13.929 22.6453 13.7881 22.6453 13.6411C22.6453 13.4942 22.5864 13.3532 22.4815 13.2493C22.3767 13.1454 22.2345 13.087 22.0862 13.087H11.5433C11.9297 11.924 12.5442 10.8482 13.3514 9.92133C14.1587 8.99445 15.1428 8.23482 16.2472 7.68607C17.3516 7.13732 18.5545 6.81027 19.7868 6.72373C21.0191 6.63718 22.2566 6.79284 23.428 7.18175C23.7591 7.29193 24.0844 7.41875 24.4024 7.56172C24.5384 7.62192 24.6926 7.62751 24.8326 7.57731C24.9727 7.52712 25.0876 7.42504 25.1532 7.29258C25.214 7.15783 25.2196 7.00499 25.169 6.86621C25.1183 6.72743 25.0153 6.61353 24.8817 6.54848C23.6305 5.97262 22.2771 5.64687 20.8988 5.58986C19.5205 5.53285 18.1444 5.74569 16.8492 6.21623C15.554 6.68676 14.3651 7.40574 13.3505 8.33206C12.3359 9.25837 11.5155 10.3738 10.9362 11.6147C10.7152 12.0791 10.5335 12.561 10.3931 13.0553H5.50502C5.35674 13.0553 5.21453 13.1137 5.10968 13.2176C5.00483 13.3216 4.94592 13.4625 4.94592 13.6095C4.94592 13.7564 5.00483 13.8974 5.10968 14.0013C5.21453 14.1052 5.35674 14.1636 5.50502 14.1636H10.1056C10.0736 14.3219 10.0577 14.4802 10.0257 14.6385C9.87908 15.777 9.91683 16.9315 10.1375 18.0582H5.50502C5.35674 18.0582 5.21453 18.1166 5.10968 18.2205C5.00483 18.3244 4.94592 18.4653 4.94592 18.6123C4.94592 18.7593 5.00483 18.9002 5.10968 19.0041C5.21453 19.108 5.35674 19.1664 5.50502 19.1664H10.4251C11.0292 21.0549 12.165 22.7331 13.6988 24.0036C15.2326 25.2741 17.1006 26.0841 19.0831 26.3382C19.5436 26.4014 20.0079 26.4331 20.4728 26.4332C22.7787 26.4312 25.0194 25.6743 26.8465 24.2801C26.9047 24.2379 26.9539 24.1846 26.9911 24.1233C27.0283 24.0621 27.0528 23.9941 27.0632 23.9234C27.0736 23.8526 27.0697 23.7805 27.0517 23.7113C27.0337 23.6421 27.0019 23.5771 26.9583 23.5202V23.5202Z"/>
</g>
<defs>
<clipPath>
<rect width="22.2041" height="20.898" transform="translate(4.89795 5.55103)"/>
</clipPath>
</defs>
</svg>
