<svg width="32" height="32" viewBox="0 0 32 32" xmlns="http://www.w3.org/2000/svg">
<g clip-path="url(#clip0_9220_24838)">
<path d="M19.6836 21.0234H27.8865V21.6398H19.6836V21.0234Z"/>
<path d="M3.81958 21.0234H12.0225V21.6398H3.81958V21.0234Z"/>
<path d="M5.32089 10.7455C5.45558 10.7455 5.58724 10.7852 5.69923 10.8597C5.81122 10.9342 5.8985 11.0401 5.95005 11.164C6.00159 11.2879 6.01507 11.4242 5.9888 11.5558C5.96252 11.6873 5.89766 11.8081 5.80242 11.9029C5.70719 11.9977 5.58584 12.0623 5.45374 12.0885C5.32164 12.1146 5.18472 12.1012 5.06028 12.0499C4.93585 11.9986 4.82949 11.9117 4.75466 11.8002C4.67983 11.6887 4.63989 11.5576 4.63989 11.4235C4.63989 11.2437 4.71164 11.0712 4.83935 10.9441C4.96706 10.8169 5.14028 10.7455 5.32089 10.7455"/>
<path d="M9.6235 10.7455C9.75819 10.7455 9.88985 10.7852 10.0018 10.8597C10.1138 10.9342 10.2011 11.0401 10.2527 11.164C10.3042 11.2879 10.3177 11.4242 10.2914 11.5558C10.2651 11.6873 10.2003 11.8081 10.105 11.9029C10.0098 11.9977 9.88846 12.0623 9.75636 12.0885C9.62426 12.1146 9.48733 12.1012 9.36289 12.0499C9.23846 11.9986 9.1321 11.9117 9.05727 11.8002C8.98244 11.6887 8.9425 11.5576 8.9425 11.4235C8.94645 11.2449 9.01946 11.0747 9.14633 10.9484C9.27319 10.8221 9.44413 10.7494 9.6235 10.7455"/>
<path d="M22.6089 10.7455C22.7435 10.7455 22.8752 10.7852 22.9872 10.8597C23.0992 10.9342 23.1865 11.0401 23.238 11.164C23.2896 11.2879 23.303 11.4242 23.2768 11.5558C23.2505 11.6873 23.1856 11.8081 23.0904 11.9029C22.9951 11.9977 22.8738 12.0623 22.7417 12.0885C22.6096 12.1146 22.4727 12.1012 22.3482 12.0499C22.2238 11.9986 22.1175 11.9117 22.0426 11.8002C21.9678 11.6887 21.9279 11.5576 21.9279 11.4235C21.9279 11.2437 21.9996 11.0712 22.1273 10.9441C22.255 10.8169 22.4282 10.7455 22.6089 10.7455"/>
<path d="M7.48764 10.7455C7.62233 10.7455 7.75399 10.7852 7.86598 10.8597C7.97797 10.9342 8.06525 11.0401 8.1168 11.164C8.16834 11.2879 8.18182 11.4242 8.15555 11.5558C8.12927 11.6873 8.06441 11.8081 7.96917 11.9029C7.87393 11.9977 7.75259 12.0623 7.62049 12.0885C7.48839 12.1146 7.35147 12.1012 7.22703 12.0499C7.10259 11.9986 6.99624 11.9117 6.92141 11.8002C6.84658 11.6887 6.80664 11.5576 6.80664 11.4235C6.80664 11.2437 6.87839 11.0712 7.0061 10.9441C7.13381 10.8169 7.30703 10.7455 7.48764 10.7455"/>
<path d="M24.7756 10.7454C24.9109 10.7424 25.0441 10.7795 25.1581 10.8521C25.2721 10.9247 25.3618 11.0295 25.4157 11.1531C25.4696 11.2767 25.4853 11.4135 25.4608 11.546C25.4363 11.6785 25.3727 11.8008 25.2781 11.8971C25.1836 11.9935 25.0623 12.0596 24.9298 12.0871C24.7973 12.1145 24.6595 12.102 24.5342 12.0512C24.4089 12.0003 24.3016 11.9135 24.226 11.8017C24.1505 11.6899 24.1101 11.5582 24.1101 11.4234C24.1101 11.2462 24.1797 11.0761 24.3041 10.9494C24.4284 10.8226 24.5977 10.7494 24.7756 10.7454Z"/>
<path d="M26.9424 10.7454C27.0777 10.7424 27.2108 10.7795 27.3248 10.8521C27.4388 10.9247 27.5285 11.0295 27.5825 11.1531C27.6364 11.2767 27.6521 11.4135 27.6276 11.546C27.6031 11.6785 27.5395 11.8008 27.4449 11.8971C27.3503 11.9935 27.229 12.0596 27.0965 12.0871C26.964 12.1145 26.8263 12.102 26.7009 12.0512C26.5756 12.0003 26.4683 11.9135 26.3928 11.8017C26.3173 11.6899 26.2769 11.5582 26.2769 11.4234C26.2768 11.2462 26.3464 11.0761 26.4708 10.9494C26.5952 10.8226 26.7645 10.7494 26.9424 10.7454"/>
<path d="M20.0861 19.4825C20.0436 19.4313 19.9833 19.3981 19.9172 19.3895C19.8511 19.381 19.7843 19.3976 19.7301 19.4363C18.8122 20.136 17.653 20.4446 16.5069 20.2944C15.3607 20.1442 14.3213 19.5474 13.6166 18.635C13.3365 18.2854 13.1216 17.8888 12.982 17.4639H16.9132C16.983 17.4639 17.0499 17.4363 17.0993 17.3871C17.1486 17.338 17.1763 17.2714 17.1763 17.2019C17.1763 17.1324 17.1486 17.0658 17.0993 17.0167C17.0499 16.9675 16.983 16.9399 16.9132 16.9399H12.8427C12.7319 16.4393 12.7057 15.9237 12.7654 15.4144L12.8118 15.1216H17.8419C17.9104 15.1179 17.9752 15.0892 18.0238 15.0408C18.0723 14.9925 18.1013 14.928 18.105 14.8597C18.1013 14.7914 18.0723 14.7269 18.0238 14.6786C17.9752 14.6302 17.9104 14.6014 17.8419 14.5977H12.9511C13.315 13.5091 14.0981 12.6087 15.1283 12.0944C16.1584 11.5802 17.3515 11.494 18.4455 11.8549C18.6012 11.9005 18.7517 11.9625 18.8943 12.0398C18.9246 12.0552 18.9577 12.0642 18.9916 12.0663C19.0256 12.0683 19.0595 12.0634 19.0915 12.0519C19.1234 12.0403 19.1526 12.0223 19.1773 11.999C19.202 11.9757 19.2215 11.9477 19.2348 11.9165C19.2617 11.855 19.2639 11.7855 19.2408 11.7224C19.2178 11.6593 19.1713 11.6075 19.111 11.5775C18.5318 11.3102 17.9053 11.1592 17.2674 11.133C16.6295 11.1068 15.9927 11.2061 15.3934 11.425C14.794 11.6439 14.2439 11.9783 13.7744 12.409C13.3048 12.8397 12.9252 13.3583 12.657 13.9351C12.5487 14.1509 12.4868 14.382 12.3939 14.6131H10.1652C10.0939 14.613 10.0253 14.6401 9.97347 14.6889C9.92165 14.7376 9.89056 14.8042 9.8866 14.8751C9.8866 14.9487 9.91595 15.0192 9.96819 15.0712C10.0204 15.1232 10.0913 15.1525 10.1652 15.1525H12.2856C12.2856 15.2295 12.2546 15.3066 12.2546 15.3682C12.1927 15.8967 12.2083 16.4313 12.301 16.9554H10.1652C10.0954 16.9554 10.0285 16.983 9.97914 17.0321C9.92979 17.0812 9.90207 17.1478 9.90207 17.2173C9.90207 17.2868 9.92979 17.3534 9.97914 17.4025C10.0285 17.4517 10.0954 17.4793 10.1652 17.4793H12.4403C12.7251 18.3513 13.2506 19.1259 13.9567 19.7145C14.6629 20.3031 15.5212 20.6819 16.4334 20.8077L17.0835 20.8539C18.1525 20.8518 19.1912 20.4998 20.0396 19.8523C20.0691 19.8327 20.0941 19.8069 20.1127 19.7768C20.1313 19.7467 20.1433 19.713 20.1477 19.6779C20.1521 19.6429 20.1489 19.6073 20.1382 19.5735C20.1276 19.5398 20.1098 19.5088 20.0861 19.4825V19.4825Z"/>
<path d="M28.8616 22.2716H3.1231V9.69759H28.8926V22.2716H28.8616ZM29.3569 22.1637V9.82086C29.3529 9.64373 29.2793 9.4752 29.1521 9.35137C29.0248 9.22753 28.8539 9.15821 28.6759 9.15826H3.32431C3.23562 9.15621 3.14741 9.17183 3.06487 9.20421C2.98233 9.23658 2.90712 9.28506 2.84368 9.3468C2.78023 9.40853 2.72982 9.48227 2.69541 9.56368C2.661 9.6451 2.64329 9.73253 2.64331 9.82086V22.1637C2.64331 22.3435 2.71506 22.516 2.84277 22.6431C2.97048 22.7703 3.14369 22.8417 3.32431 22.8417H28.7069C28.8808 22.8302 29.044 22.7542 29.1644 22.6286C29.2847 22.5031 29.3534 22.3372 29.3569 22.1637"/>
</g>
<defs>
<clipPath>
<rect width="26.7755" height="13.7143" transform="translate(2.6123 9.14282)"/>
</clipPath>
</defs>
</svg>
