<svg width="32" height="32" viewBox="0 0 32 32" xmlns="http://www.w3.org/2000/svg">
<path d="M28.0902 15.8748C27.3681 14.3346 26.4086 12.9175 25.2466 11.6752C22.6866 8.91555 19.504 7.45654 16.0427 7.45654C12.5813 7.45654 9.3987 8.91555 6.83712 11.6752C5.6758 12.918 4.71632 14.335 3.99355 15.8748C3.96334 15.9445 3.94775 16.0197 3.94775 16.0958C3.94775 16.1718 3.96334 16.247 3.99355 16.3167C4.72144 17.8174 5.68403 19.1923 6.84504 20.3896C9.40662 23.0621 12.5876 24.4736 16.0442 24.4736C19.5009 24.4736 22.6819 23.0621 25.2435 20.3896C26.4045 19.1923 27.3671 17.8174 28.0949 16.3167C28.1248 16.2468 28.1398 16.1713 28.1389 16.0953C28.1381 16.0192 28.1215 15.9441 28.0902 15.8748V15.8748ZM16.0506 23.3647C9.18801 23.3647 5.75355 17.329 5.11989 16.0886C5.74563 14.8213 9.17534 8.56545 16.0506 8.56545C22.9258 8.56545 26.3476 14.8197 26.9813 16.0886C26.3349 17.3306 22.9052 23.3647 16.0427 23.3647H16.0506Z"/>
<path d="M16.0079 12.2946C15.2716 12.2946 14.5519 12.5129 13.9397 12.922C13.3275 13.331 12.8503 13.9124 12.5685 14.5927C12.2868 15.2729 12.213 16.0215 12.3567 16.7436C12.5003 17.4658 12.8549 18.1291 13.3755 18.6497C13.8962 19.1704 14.5595 19.5249 15.2817 19.6686C16.0038 19.8122 16.7523 19.7385 17.4326 19.4567C18.1128 19.175 18.6942 18.6978 19.1033 18.0856C19.5124 17.4734 19.7307 16.7536 19.7307 16.0173C19.7299 15.0302 19.3374 14.0838 18.6394 13.3859C17.9414 12.6879 16.995 12.2954 16.0079 12.2946V12.2946ZM16.0079 18.6312C15.491 18.6312 14.9856 18.4779 14.5557 18.1907C14.1259 17.9035 13.7909 17.4952 13.593 17.0176C13.3952 16.54 13.3434 16.0144 13.4443 15.5074C13.5451 15.0003 13.7941 14.5346 14.1597 14.169C14.5252 13.8035 14.991 13.5545 15.498 13.4537C16.005 13.3528 16.5306 13.4046 17.0082 13.6024C17.4858 13.8003 17.8941 14.1353 18.1813 14.5651C18.4685 14.995 18.6218 15.5004 18.6218 16.0173C18.621 16.7103 18.3453 17.3747 17.8553 17.8647C17.3653 18.3547 16.7009 18.6303 16.0079 18.6312V18.6312Z"/>
</svg>
