<svg width="32" height="32" viewBox="0 0 32 32" xmlns="http://www.w3.org/2000/svg">
<path d="M26.3461 4.88391H22.8886C22.7446 4.88391 22.6064 4.94233 22.5045 5.04631C22.4027 5.15029 22.3455 5.29132 22.3455 5.43837V12.7493L18.5326 14.9893L18.5606 12.5687C18.5617 12.4709 18.5376 12.3746 18.4905 12.2894C18.4435 12.2043 18.3752 12.1333 18.2927 12.0838C18.2101 12.0343 18.1162 12.0079 18.0204 12.0074C17.9247 12.0068 17.8305 12.0321 17.7474 12.0807L12.6636 15.0495V12.5148C12.6637 12.4187 12.6393 12.3241 12.5928 12.2405C12.5464 12.1569 12.4794 12.087 12.3984 12.0378C12.3175 11.9886 12.2255 11.9617 12.1313 11.9598C12.0371 11.9579 11.9441 11.981 11.8613 12.0269L5.4476 15.5738C5.36212 15.6216 5.29079 15.6919 5.2411 15.7775C5.19141 15.863 5.16518 15.9607 5.16517 16.0601V26.6629C5.16476 26.7358 5.17853 26.8081 5.20568 26.8756C5.23282 26.9431 5.27282 27.0043 5.32333 27.0559C5.37385 27.1075 5.43389 27.1483 5.49997 27.176C5.56606 27.2037 5.63687 27.2178 5.70831 27.2174L26.3476 26.9908C26.4909 26.9896 26.6278 26.9306 26.7287 26.8268C26.8295 26.7229 26.8861 26.5826 26.8861 26.4364V5.43837C26.8861 5.29186 26.8293 5.15131 26.7281 5.04742C26.6269 4.94353 26.4896 4.88475 26.3461 4.88391V4.88391ZM25.8029 25.8867L6.2499 26.1021V16.3912L11.5773 13.4336V16C11.5783 16.0966 11.6041 16.1914 11.652 16.2747C11.6999 16.3581 11.7684 16.4273 11.8506 16.4753C11.9328 16.5233 12.0258 16.5486 12.1205 16.5486C12.2153 16.5486 12.3083 16.5233 12.3905 16.4752L17.4634 13.5176L17.4355 15.9413C17.4341 16.0391 17.4581 16.1356 17.5052 16.2208C17.5522 16.306 17.6206 16.3769 17.7032 16.4264C17.7859 16.4758 17.8799 16.502 17.9758 16.5022C18.0716 16.5025 18.1657 16.4767 18.2486 16.4277L23.1602 13.5445C23.2422 13.4965 23.3105 13.4273 23.3582 13.3439C23.4058 13.2605 23.4312 13.1658 23.4317 13.0693V5.99282H25.8029V25.8867Z"/>
<path d="M8.18811 23.0051H19.369V19.0003H8.19587L8.18811 23.0051ZM9.27439 20.1092H18.2828V21.8961H9.28215L9.27439 20.1092Z"/>
</svg>
