<svg width="32" height="32" viewBox="0 0 32 32" xmlns="http://www.w3.org/2000/svg">
<path d="M25.3132 11.6055C25.3132 11.5817 25.299 11.5596 25.2911 11.5358L25.2816 11.5025C25.2705 11.4772 25.2562 11.455 25.2435 11.4312C25.2394 11.423 25.2346 11.415 25.2293 11.4075C25.2098 11.3775 25.1869 11.3499 25.1612 11.3251L18.815 4.97738C18.7899 4.95356 18.7629 4.93184 18.7342 4.91243C18.7242 4.90569 18.7136 4.89986 18.7026 4.89501C18.6823 4.88185 18.6611 4.8702 18.6392 4.86016L18.5996 4.84748C18.5774 4.84748 18.5568 4.83322 18.5346 4.82847C18.4986 4.82149 18.462 4.81777 18.4253 4.81738H9.95958C9.25162 4.81738 8.57259 5.09829 8.07154 5.59845C7.57049 6.09861 7.28837 6.77714 7.28711 7.48511V24.4103C7.28795 25.1179 7.56945 25.7964 8.06986 26.2968C8.57027 26.7972 9.24873 27.0787 9.95642 27.0796H22.6534C23.3613 27.0787 24.0399 26.7973 24.5406 26.2969C25.0412 25.7965 25.3231 25.1181 25.3243 24.4103V11.7227C25.3242 11.6834 25.3205 11.6442 25.3132 11.6055V11.6055ZM18.9766 6.70728L23.4313 11.1619H18.9766V6.70728ZM22.6534 25.9706H9.95958C9.75446 25.9709 9.55131 25.9307 9.36172 25.8524C9.17213 25.7741 8.99982 25.6592 8.85463 25.5143C8.70944 25.3694 8.59421 25.1973 8.51552 25.0079C8.43684 24.8185 8.39623 24.6154 8.39602 24.4103V7.48511C8.39602 7.07112 8.56037 6.67406 8.85295 6.38118C9.14554 6.0883 9.54243 5.92355 9.95642 5.92313H17.8645V12.2708H24.2123V24.4103C24.2114 24.8236 24.047 25.2197 23.7549 25.5121C23.4628 25.8045 23.0668 25.9694 22.6534 25.9706V25.9706Z"/>
<path d="M20.3675 17.79H11.6911C11.544 17.79 11.403 17.8485 11.299 17.9524C11.195 18.0564 11.1366 18.1974 11.1366 18.3445C11.1366 18.4915 11.195 18.6326 11.299 18.7366C11.403 18.8405 11.544 18.8989 11.6911 18.8989H20.3675C20.5145 18.8989 20.6556 18.8405 20.7595 18.7366C20.8635 18.6326 20.9219 18.4915 20.9219 18.3445C20.9219 18.1974 20.8635 18.0564 20.7595 17.9524C20.6556 17.8485 20.5145 17.79 20.3675 17.79ZM20.3675 22.129H11.6911C11.544 22.129 11.403 22.1875 11.299 22.2914C11.195 22.3954 11.1366 22.5364 11.1366 22.6835C11.1366 22.8305 11.195 22.9716 11.299 23.0756C11.403 23.1795 11.544 23.238 11.6911 23.238H20.3675C20.5145 23.238 20.6556 23.1795 20.7595 23.0756C20.8635 22.9716 20.9219 22.8305 20.9219 22.6835C20.9219 22.5364 20.8635 22.3954 20.7595 22.2914C20.6556 22.1875 20.5145 22.129 20.3675 22.129Z"/>
</svg>
