<svg width="32" height="32" viewBox="0 0 32 32" xmlns="http://www.w3.org/2000/svg">
<path d="M18.7802 10.7009C18.9272 10.7009 19.0683 10.6425 19.1722 10.5385C19.2762 10.4345 19.3346 10.2935 19.3346 10.1465V6.97815C19.3346 6.8311 19.2762 6.69007 19.1722 6.58609C19.0683 6.48211 18.9272 6.4237 18.7802 6.4237C18.6331 6.4237 18.4921 6.48211 18.3881 6.58609C18.2841 6.69007 18.2257 6.8311 18.2257 6.97815V10.1465C18.2257 10.2935 18.2841 10.4345 18.3881 10.5385C18.4921 10.6425 18.6331 10.7009 18.7802 10.7009ZM16.0079 9.11677C16.155 9.11677 16.296 9.05835 16.4 8.95437C16.5039 8.85039 16.5624 8.70936 16.5624 8.56231V5.39399C16.5624 5.24694 16.5039 5.10592 16.4 5.00194C16.296 4.89795 16.155 4.83954 16.0079 4.83954C15.8609 4.83954 15.7198 4.89795 15.6158 5.00194C15.5119 5.10592 15.4534 5.24694 15.4534 5.39399V8.56231C15.4534 8.70936 15.5119 8.85039 15.6158 8.95437C15.7198 9.05835 15.8609 9.11677 16.0079 9.11677V9.11677ZM13.2356 10.7009C13.3827 10.7009 13.5237 10.6425 13.6277 10.5385C13.7317 10.4345 13.7901 10.2935 13.7901 10.1465V6.97815C13.7901 6.8311 13.7317 6.69007 13.6277 6.58609C13.5237 6.48211 13.3827 6.4237 13.2356 6.4237C13.0886 6.4237 12.9475 6.48211 12.8436 6.58609C12.7396 6.69007 12.6812 6.8311 12.6812 6.97815V10.1465C12.6812 10.2935 12.7396 10.4345 12.8436 10.5385C12.9475 10.6425 13.0886 10.7009 13.2356 10.7009V10.7009ZM26.994 13.7346L26.9037 13.2926H5.11364L5.02176 13.7346C4.84908 14.5685 4.7615 15.4177 4.76038 16.2692C4.76038 20.8633 7.32038 25.0867 11.2839 27.0209L11.4059 27.089H20.6257L20.7398 27.032C24.7002 25.0978 27.2633 20.876 27.2633 16.2803C27.2612 15.4248 27.1709 14.5717 26.994 13.7346V13.7346ZM20.3596 25.9801H11.6562C8.13622 24.2043 5.86929 20.4118 5.86929 16.2803C5.87066 15.6534 5.92365 15.0277 6.0277 14.4094H25.9881C26.0922 15.0277 26.1451 15.6534 26.1465 16.2803C26.1465 20.4039 23.8796 24.1964 20.3596 25.9801Z"/>
</svg>
