<svg width="32" height="32" viewBox="0 0 32 32" xmlns="http://www.w3.org/2000/svg">
<path d="M12.7208 16.9001C12.7208 16.6208 12.4831 16.4035 12.2138 16.4035L6.33661 16.419L5.35443 19.4606C5.27522 19.7244 5.4178 20.0038 5.68711 20.0969C5.73463 20.1124 5.798 20.1279 5.84552 20.1279C6.0673 20.1279 6.27324 19.9883 6.33661 19.771L7.09701 17.4433L12.2138 17.4277C12.4831 17.4122 12.7208 17.1794 12.7208 16.9001V16.9001ZM9.86928 16.0466C11.4376 16.0466 12.7208 14.7896 12.7208 13.2533C12.7208 11.717 11.4376 10.46 9.86928 10.46C8.30097 10.46 7.03364 11.717 7.03364 13.2533C7.03364 14.7896 8.30097 16.0466 9.86928 16.0466ZM9.86928 11.4842C10.8673 11.4842 11.6911 12.2757 11.6911 13.2688C11.6911 14.262 10.8831 15.0534 9.86928 15.0534C8.85542 15.0534 8.06334 14.262 8.06334 13.2688C8.06334 12.2757 8.87126 11.4842 9.86928 11.4842ZM26.1861 19.4762L25.4257 16.4035L19.5802 16.419C19.295 16.419 19.0732 16.6518 19.0732 16.9312C19.0732 17.2105 19.3109 17.4277 19.5802 17.4277L24.602 17.4122L25.1723 19.7089C25.2356 19.9417 25.4416 20.0969 25.6792 20.0969C25.7267 20.0969 25.7584 20.0969 25.8059 20.0814C26.0752 20.0193 26.2495 19.74 26.1861 19.4762V19.4762ZM21.6554 16.0466C23.2237 16.0466 24.5069 14.7896 24.5069 13.2533C24.5069 11.717 23.2237 10.46 21.6554 10.46C20.0871 10.46 18.8039 11.717 18.8039 13.2533C18.8039 14.7896 20.0871 16.0466 21.6554 16.0466ZM21.6554 11.4842C22.6534 11.4842 23.4772 12.2757 23.4772 13.2688C23.4772 14.262 22.6693 15.0534 21.6554 15.0534C20.6416 15.0534 19.8336 14.262 19.8336 13.2688C19.8336 12.2757 20.6574 11.4842 21.6554 11.4842ZM19.596 21.2297H12.2772L11.295 24.2713C11.2158 24.5351 11.3584 24.8144 11.6277 24.9076C11.6752 24.9231 11.7386 24.9386 11.7861 24.9386C12.0079 24.9386 12.2138 24.7989 12.2772 24.5817L13.0376 22.2539H18.7881L19.3584 24.5506C19.4218 24.8144 19.7069 24.9851 19.9762 24.9231C20.2455 24.861 20.4198 24.5817 20.3564 24.3179L19.596 21.2297V21.2297ZM15.8257 15.2862C14.2574 15.2862 12.9901 16.5432 12.9901 18.0795C12.9901 19.6158 14.2732 20.8728 15.8257 20.8728C17.394 20.8728 18.6614 19.6158 18.6614 18.0795C18.6614 16.5432 17.394 15.2862 15.8257 15.2862ZM15.8257 19.8486C14.8277 19.8486 14.0198 19.0572 14.0198 18.064C14.0198 17.0708 14.8277 16.2794 15.8257 16.2794C16.8237 16.2794 17.6317 17.0708 17.6317 18.064C17.6317 19.0572 16.8237 19.8486 15.8257 19.8486ZM13.0851 11.7325L18.5663 11.717C18.8515 11.717 19.0732 11.4842 19.0732 11.2049C19.0732 10.9256 18.8356 10.7083 18.5663 10.7083L13.0851 10.7238C12.8 10.7238 12.5782 10.9566 12.5782 11.2359C12.5624 11.5153 12.8 11.7325 13.0851 11.7325ZM15.8257 10.3514C17.394 10.3514 18.6614 9.09442 18.6614 7.55811C18.6614 6.0218 17.3782 4.78033 15.8257 4.78033C14.2574 4.78033 12.9901 6.03732 12.9901 7.55811C12.9742 9.10994 14.2574 10.3514 15.8257 10.3514V10.3514ZM15.8257 5.78902C16.8237 5.78902 17.6317 6.58046 17.6317 7.55811C17.6317 8.53576 16.8237 9.34271 15.8257 9.34271C14.8277 9.34271 14.0198 8.55128 14.0198 7.55811C14.0198 6.56494 14.8277 5.78902 15.8257 5.78902Z"/>
</svg>
