<svg width="32" height="32" viewBox="0 0 32 32" xmlns="http://www.w3.org/2000/svg">
<g clip-path="url(#clip0_9220_24880)">
<path d="M22.3539 11.8351H9.66139C9.5606 11.8351 9.46394 11.7935 9.39268 11.7196C9.32141 11.6456 9.28137 11.5453 9.28137 11.4407C9.28137 11.3361 9.32141 11.2357 9.39268 11.1618C9.46394 11.0878 9.5606 11.0463 9.66139 11.0463H22.3539C22.4546 11.0463 22.5513 11.0878 22.6226 11.1618C22.6938 11.2357 22.7339 11.3361 22.7339 11.4407C22.7339 11.5453 22.6938 11.6456 22.6226 11.7196C22.5513 11.7935 22.4546 11.8351 22.3539 11.8351V11.8351Z"/>
<path d="M22.3539 15.085H9.66139C9.5606 15.085 9.46394 15.0435 9.39268 14.9695C9.32141 14.8955 9.28137 14.7952 9.28137 14.6906C9.28137 14.586 9.32141 14.4857 9.39268 14.4117C9.46394 14.3378 9.5606 14.2962 9.66139 14.2962H22.3539C22.4546 14.2962 22.5513 14.3378 22.6226 14.4117C22.6938 14.4857 22.7339 14.586 22.7339 14.6906C22.7339 14.7952 22.6938 14.8955 22.6226 14.9695C22.5513 15.0435 22.4546 15.085 22.3539 15.085V15.085Z"/>
<path d="M13.2943 18.3348H9.64613C9.54534 18.3348 9.44868 18.2933 9.37742 18.2193C9.30615 18.1453 9.26611 18.045 9.26611 17.9404C9.26611 17.8358 9.30615 17.7355 9.37742 17.6615C9.44868 17.5876 9.54534 17.546 9.64613 17.546H13.2943C13.395 17.546 13.4917 17.5876 13.563 17.6615C13.6342 17.7355 13.6743 17.8358 13.6743 17.9404C13.6743 18.045 13.6342 18.1453 13.563 18.2193C13.4917 18.2933 13.395 18.3348 13.2943 18.3348V18.3348Z"/>
<path d="M18.0066 25.6393C17.9551 25.6386 17.9043 25.627 17.8573 25.6053C17.8103 25.5836 17.768 25.5522 17.733 25.5131L16.7753 24.456H15.4377C15.3369 24.456 15.2402 24.4145 15.169 24.3405C15.0977 24.2666 15.0577 24.1662 15.0577 24.0616V22.5471L14.1 21.4743C14.0349 21.4014 13.9987 21.3056 13.9987 21.2061C13.9987 21.1067 14.0349 21.0109 14.1 20.938L15.0577 19.8652V18.3507C15.0577 18.2461 15.0977 18.1457 15.169 18.0718C15.2402 17.9978 15.3369 17.9563 15.4377 17.9563H16.7905L17.7482 16.8992C17.7824 16.859 17.8245 16.8267 17.8717 16.8046C17.9189 16.7825 17.97 16.7711 18.0218 16.7711C18.0735 16.7711 18.1247 16.7825 18.1719 16.8046C18.2191 16.8267 18.2612 16.859 18.2954 16.8992L19.253 17.9247H20.5907C20.6915 17.9247 20.7881 17.9663 20.8594 18.0402C20.9307 18.1142 20.9707 18.2145 20.9707 18.3191V19.8336L21.9283 20.9064C21.9935 20.9793 22.0297 21.0751 22.0297 21.1746C22.0297 21.2741 21.9935 21.3699 21.9283 21.4428L20.9707 22.5156V24.0616C20.9707 24.1662 20.9307 24.2666 20.8594 24.3405C20.7881 24.4145 20.6915 24.456 20.5907 24.456H19.2378L18.2802 25.5131C18.248 25.5557 18.2062 25.5895 18.1585 25.6115C18.1108 25.6335 18.0587 25.643 18.0066 25.6393V25.6393ZM15.8329 23.6672H16.9425C16.9964 23.6667 17.0499 23.6777 17.0995 23.6994C17.1492 23.7211 17.1941 23.7531 17.2314 23.7934L18.0066 24.6611L18.797 23.7934C18.832 23.7543 18.8743 23.7229 18.9213 23.7012C18.9684 23.6795 19.0192 23.6679 19.0706 23.6672H20.2107V22.3578C20.2068 22.309 20.2129 22.2598 20.2286 22.2136C20.2443 22.1673 20.2693 22.1251 20.3019 22.0896L21.1379 21.1746L20.3019 20.2596C20.2428 20.1837 20.2106 20.089 20.2107 19.9914V18.7135H19.0706C18.9674 18.7087 18.8697 18.6636 18.797 18.5873L18.0066 17.7354L17.2314 18.6189C17.1941 18.6592 17.1492 18.6912 17.0995 18.7129C17.0499 18.7346 16.9964 18.7456 16.9425 18.7451H15.8177V20.0229C15.8187 20.0728 15.8098 20.1224 15.7914 20.1685C15.7731 20.2147 15.7459 20.2564 15.7113 20.2911L14.8905 21.2061L15.7113 22.1212C15.7748 22.1956 15.8123 22.2901 15.8177 22.3894L15.8329 23.6672Z"/>
<path d="M19.5874 29.9777C19.5356 29.979 19.4842 29.9683 19.4369 29.9465C19.3896 29.9247 19.3475 29.8922 19.3138 29.8515L18.0065 28.4001L16.6993 29.8515C16.6474 29.9074 16.5808 29.9462 16.5078 29.9631C16.4348 29.9799 16.3587 29.974 16.2889 29.9461C16.218 29.9178 16.157 29.8681 16.1137 29.8034C16.0703 29.7387 16.0466 29.662 16.0457 29.5833V25.6392C16.0457 25.5346 16.0857 25.4343 16.157 25.3603C16.2282 25.2864 16.3249 25.2448 16.4257 25.2448C16.5265 25.2448 16.6231 25.2864 16.6944 25.3603C16.7656 25.4343 16.8057 25.5346 16.8057 25.6392V28.5894L17.7329 27.5639C17.7684 27.5257 17.8109 27.4954 17.8579 27.4746C17.9049 27.4539 17.9554 27.4432 18.0065 27.4432C18.0576 27.4432 18.1082 27.4539 18.1552 27.4746C18.2022 27.4954 18.2447 27.5257 18.2801 27.5639L19.2074 28.5894V25.6392C19.2074 25.5346 19.2474 25.4343 19.3187 25.3603C19.3899 25.2864 19.4866 25.2448 19.5874 25.2448C19.6882 25.2448 19.7848 25.2864 19.8561 25.3603C19.9274 25.4343 19.9674 25.5346 19.9674 25.6392V29.5833C19.9664 29.662 19.9427 29.7387 19.8994 29.8034C19.856 29.8681 19.795 29.9178 19.7242 29.9461L19.5874 29.9777Z"/>
<path d="M24.4059 26.0336H21.1378C21.037 26.0336 20.9404 25.9921 20.8691 25.9181C20.7979 25.8441 20.7578 25.7438 20.7578 25.6392C20.7578 25.5346 20.7979 25.4343 20.8691 25.3603C20.9404 25.2864 21.037 25.2448 21.1378 25.2448H24.0259V2.81106H7.97414V25.2448H14.632C14.7328 25.2448 14.8294 25.2864 14.9007 25.3603C14.972 25.4343 15.012 25.5346 15.012 25.6392C15.012 25.7438 14.972 25.8441 14.9007 25.9181C14.8294 25.9921 14.7328 26.0336 14.632 26.0336H7.59413C7.49334 26.0336 7.39668 25.9921 7.32541 25.9181C7.25415 25.8441 7.21411 25.7438 7.21411 25.6392V2.41666C7.21411 2.31206 7.25415 2.21174 7.32541 2.13777C7.39668 2.06381 7.49334 2.02225 7.59413 2.02225H24.4059C24.4564 2.02002 24.5068 2.0287 24.5539 2.04773C24.601 2.06676 24.6437 2.09573 24.6794 2.13281C24.7152 2.16989 24.7431 2.21426 24.7614 2.26313C24.7798 2.31199 24.7881 2.36427 24.786 2.41666V25.6392C24.7881 25.6916 24.7798 25.7439 24.7614 25.7928C24.7431 25.8416 24.7152 25.886 24.6794 25.9231C24.6437 25.9602 24.601 25.9891 24.5539 26.0082C24.5068 26.0272 24.4564 26.0359 24.4059 26.0336V26.0336Z"/>
<path d="M22.3539 5.33526H9.66139C9.5606 5.33526 9.46394 5.2937 9.39268 5.21974C9.32141 5.14577 9.28137 5.04546 9.28137 4.94085C9.28137 4.83625 9.32141 4.73593 9.39268 4.66197C9.46394 4.588 9.5606 4.54645 9.66139 4.54645H22.3539C22.4031 4.5464 22.4518 4.55669 22.4971 4.5767C22.5423 4.59671 22.5833 4.62602 22.6173 4.66286C22.6514 4.69971 22.678 4.74333 22.6954 4.79111C22.7128 4.83888 22.7207 4.88982 22.7187 4.94085C22.7207 4.99189 22.7128 5.04282 22.6954 5.0906C22.678 5.13837 22.6514 5.18199 22.6173 5.21884C22.5833 5.25569 22.5423 5.285 22.4971 5.305C22.4518 5.32501 22.4031 5.3353 22.3539 5.33526V5.33526Z"/>
<path d="M22.3539 8.58514H9.66139C9.5606 8.58514 9.46394 8.54358 9.39268 8.46962C9.32141 8.39565 9.28137 8.29533 9.28137 8.19073C9.28137 8.08613 9.32141 7.98581 9.39268 7.91184C9.46394 7.83788 9.5606 7.79633 9.66139 7.79633H22.3539C22.4546 7.79633 22.5513 7.83788 22.6226 7.91184C22.6938 7.98581 22.7339 8.08613 22.7339 8.19073C22.7339 8.29533 22.6938 8.39565 22.6226 8.46962C22.5513 8.54358 22.4546 8.58514 22.3539 8.58514V8.58514Z"/>
</g>
<defs>
<clipPath>
<rect width="17.6327" height="28.0816" transform="translate(7.18372 1.95917)"/>
</clipPath>
</defs>
</svg>
