<svg width="32" height="32" viewBox="0 0 32 32" xmlns="http://www.w3.org/2000/svg">
<path d="M29.0693 11.0466L29.0487 11.0171L24.3216 5.80762L24.2677 5.75641C23.7321 5.30481 23.046 5.06138 22.3394 5.07225C21.6328 5.08312 20.9549 5.34753 20.434 5.81538L18.7627 7.271L14.6439 8.38676L12.9552 6.53388C12.5061 6.02139 11.8805 5.6882 11.1972 5.59752C10.5139 5.50685 9.82045 5.66499 9.24829 6.04195L9.21661 6.06212L4.07126 10.536L4.01899 10.5873C3.57012 11.0983 3.32817 11.7529 3.33897 12.427C3.34977 13.1011 3.61258 13.7479 4.0776 14.2449L5.44473 15.7517C5.44473 15.7517 5.6871 16.014 6.09423 16.4485C5.83918 16.6984 5.49859 17.0351 5.44314 17.1003C5.04244 17.5759 4.85075 18.1878 4.91015 18.8017C4.96955 19.4156 5.27519 19.9813 5.75998 20.3746L12.1362 25.5515C12.5587 25.8955 13.0902 26.0848 13.6396 26.0869C14.0526 26.0843 14.458 25.9774 14.8166 25.7766L15.2396 26.1924C15.4883 26.4348 15.8249 26.5709 16.1758 26.5709C16.5267 26.5709 16.8633 26.4348 17.1121 26.1924L17.6443 25.671C17.8037 25.5145 17.9193 25.3206 17.9802 25.1077H18.0261C18.2288 25.1081 18.4296 25.0692 18.6169 24.9933C18.8042 24.9174 18.9744 24.806 19.1176 24.6654L19.8004 23.9982C20.0456 23.7568 20.2003 23.4412 20.2392 23.1028C20.6628 23.0926 21.0661 22.9231 21.3655 22.6294L22.1307 21.897C22.4127 21.6165 22.5815 21.2455 22.6059 20.8526C23.0461 20.8432 23.4656 20.6675 23.7766 20.3622L24.5829 19.5723C24.8065 19.3532 24.9643 19.078 25.0389 18.777C25.1135 18.4759 25.1021 18.1605 25.0059 17.8653L26.7485 16.3694C26.7803 16.3412 26.8085 16.3095 26.8325 16.2747L28.5497 14.7803C29.0888 14.3287 29.4396 13.6988 29.5354 13.0104C29.6312 12.3219 29.4653 11.623 29.0693 11.0466V11.0466ZM4.89978 13.5171C4.62054 13.2204 4.46043 12.8347 4.44907 12.4313C4.43772 12.0279 4.57587 11.6341 4.838 11.3228L9.89621 6.91718C10.2435 6.69967 10.6595 6.61268 11.0672 6.6723C11.4749 6.73193 11.8467 6.93412 12.114 7.24151L13.4542 8.70644L9.70612 9.74151L9.66334 10.1031C9.59178 10.6783 9.70238 11.2612 9.98017 11.7729L6.28275 15.0317L4.89978 13.5171ZM12.8317 24.7182L6.45542 19.5429C6.19928 19.3334 6.03781 19.0334 6.00608 18.708C5.97434 18.3826 6.0749 18.058 6.28592 17.8048C6.33344 17.752 6.617 17.4712 6.83879 17.2539L14.0198 24.9463C13.818 25.0084 13.6036 25.0201 13.3961 24.9802C13.1886 24.9404 12.9945 24.8503 12.8317 24.7182V24.7182ZM23.8051 18.7933L22.9988 19.5832C22.8834 19.6954 22.7273 19.7584 22.5647 19.7584C22.4021 19.7584 22.2461 19.6954 22.1307 19.5832L21.0408 18.5155C20.9888 18.4651 20.9271 18.4252 20.8594 18.3981C20.7916 18.371 20.7191 18.3572 20.6459 18.3576C20.4981 18.3583 20.3566 18.4165 20.2527 18.5194C20.1487 18.6223 20.0907 18.7615 20.0914 18.9062C20.0921 19.051 20.1516 19.1896 20.2566 19.2915L21.3481 20.3607C21.4511 20.4624 21.5089 20.5999 21.5089 20.7432C21.5089 20.8865 21.4511 21.024 21.3481 21.1257L20.5829 21.8753C20.4793 21.9766 20.3389 22.0334 20.1925 22.0334C20.046 22.0334 19.9056 21.9766 19.802 21.8753L18.6059 20.7036C18.5019 20.6007 18.3605 20.5425 18.2127 20.5418C18.0649 20.5411 17.9228 20.5979 17.8178 20.6997C17.7128 20.8016 17.6533 20.9402 17.6526 21.085C17.6519 21.2297 17.7099 21.3689 17.8138 21.4718L19.0083 22.6434C19.0887 22.7235 19.1337 22.8314 19.1337 22.9437C19.1337 23.056 19.0887 23.1639 19.0083 23.244L18.3334 23.9144C18.2519 23.9935 18.1417 24.0379 18.0269 24.0379C17.9121 24.0379 17.8019 23.9935 17.7204 23.9144C17.6997 23.8946 17.6774 23.8764 17.6538 23.86L17.6443 23.8523L16.5734 22.8033C16.5214 22.7523 16.4597 22.7119 16.3917 22.6843C16.3238 22.6567 16.251 22.6426 16.1774 22.6426C16.1039 22.6426 16.031 22.6567 15.9631 22.6843C15.8951 22.7119 15.8334 22.7523 15.7814 22.8033C15.7294 22.8542 15.6881 22.9147 15.66 22.9812C15.6318 23.0478 15.6173 23.1192 15.6173 23.1912C15.6173 23.2633 15.6318 23.3346 15.66 23.4012C15.6881 23.4677 15.7294 23.5282 15.7814 23.5792L16.8523 24.6282C16.8917 24.6681 16.9138 24.7216 16.9138 24.7772C16.9138 24.8328 16.8917 24.8862 16.8523 24.9262L16.32 25.4476C16.2792 25.4862 16.2247 25.5079 16.1679 25.5079C16.1111 25.5079 16.0566 25.4862 16.0158 25.4476L7.01463 15.8449L10.6582 12.631C11.0852 12.9871 11.6086 13.214 12.1647 13.2843L20.0127 14.5382L23.7418 17.8871C23.7585 17.9106 23.777 17.933 23.7972 17.9538C23.9099 18.0652 23.9737 18.2152 23.9752 18.372C23.9767 18.5288 23.9157 18.6799 23.8051 18.7933V18.7933ZM24.3723 16.9622L20.5259 13.5171L12.3422 12.2027H12.3216C11.9096 12.1519 11.5283 11.9632 11.2422 11.6685C10.9561 11.3738 10.7828 10.9913 10.7517 10.5857L18.4824 8.46436L25.3988 16.0854L24.3723 16.9622ZM27.8241 13.9547L26.221 15.3514L19.5675 8.02208L21.177 6.62544C21.4935 6.33989 21.9049 6.17628 22.335 6.16487C22.7652 6.15346 23.185 6.29502 23.5168 6.56337L28.1663 11.6844C28.3992 12.0399 28.4928 12.466 28.4299 12.8839C28.367 13.3018 28.1518 13.6833 27.8241 13.9578V13.9547Z"/>
</svg>
