<svg width="32" height="32" viewBox="0 0 32 32" xmlns="http://www.w3.org/2000/svg">
<path d="M15.9841 27.0646L15.6831 26.8628C15.5881 26.8008 13.196 25.2024 10.598 22.7039C7.08116 19.3209 5.02176 16.0621 4.45146 13.005C4.10294 11.0963 4.53067 9.2651 5.67126 7.8219C6.81185 6.3787 8.53859 5.49415 10.5346 5.33897C13.1643 5.13723 14.9227 7.18565 16 9.23406C17.7109 5.69589 20.4515 5.4476 21.402 5.35449H21.4653C23.1604 5.18379 24.9505 5.82004 26.1386 7.04598C27.0416 7.97708 28.0396 9.66857 27.6119 12.4463C27.1683 15.3017 25.1089 18.5916 21.5128 22.2384C18.8673 24.923 16.301 26.8318 16.2693 26.8473L15.9841 27.0646V27.0646ZM5.46532 12.8188C6.59007 18.933 14.3208 24.6592 15.9524 25.8076C17.6158 24.5196 25.695 17.9864 26.598 12.2756C26.8831 10.3979 26.4713 8.81507 25.394 7.71327C24.4277 6.7201 22.9544 6.19248 21.5762 6.33214H21.5128C20.4673 6.42525 18.0119 6.65802 16.5861 10.4755L16.5703 10.5221C16.4594 10.7238 16.2693 10.848 16.0633 10.848C15.8257 10.848 15.6198 10.7238 15.5247 10.5221L15.4614 10.3979C14.1623 7.52705 12.5465 6.14592 10.6297 6.3011C8.91878 6.42525 7.46136 7.17013 6.49502 8.39607C5.52869 9.65305 5.16433 11.2049 5.46532 12.8188V12.8188Z"/>
</svg>
