<svg width="32" height="32" viewBox="0 0 32 32" xmlns="http://www.w3.org/2000/svg">
<path d="M22.663 9.22465C22.3927 8.52958 21.9762 7.90072 21.4416 7.38069C20.8083 6.77451 20.0617 6.29917 19.2444 5.98188C18.3462 5.61277 17.2246 5.42584 15.9177 5.42584C14.9467 5.41403 13.983 5.59439 13.082 5.95653C12.2536 6.29386 11.5051 6.80114 10.8848 7.44564C10.2745 8.09115 9.79656 8.85 9.47807 9.6793C9.13918 10.574 8.96164 11.5218 8.95372 12.4785L8.94263 13.0441H13.9406V12.4896C13.9379 12.0871 13.9853 11.6859 14.0816 11.2951C14.1583 10.9744 14.2942 10.6709 14.4824 10.4001C14.6512 10.1591 14.8742 9.96102 15.1335 9.82188C15.4317 9.67329 15.7621 9.60091 16.0951 9.61118C16.6527 9.61118 17.0646 9.75059 17.3624 10.0342C17.6603 10.3177 17.7886 10.7803 17.7886 11.4298V11.4488C17.8152 11.755 17.7548 12.0625 17.6143 12.3359C17.45 12.6113 17.2431 12.8589 17.0012 13.0694C16.7161 13.3213 16.3993 13.5779 16.0603 13.8314C15.665 14.1315 15.3013 14.4712 14.9751 14.8452C14.1151 15.8263 13.6174 17.0727 13.5652 18.3763V20.1553H18.2305V18.6377C18.273 18.2705 18.41 17.9207 18.6282 17.6223C18.8708 17.3089 19.1524 17.0278 19.4662 16.7858C19.8052 16.5213 20.1743 16.252 20.5608 15.9938C21.0038 15.6852 21.4038 15.3192 21.7506 14.9054C22.1307 14.4394 22.4354 13.9166 22.6535 13.3561C22.9189 12.623 23.0441 11.8464 23.0226 11.067C23.0124 10.4365 22.8906 9.81275 22.663 9.22465V9.22465ZM21.6286 12.9411C21.454 13.3926 21.2085 13.8135 20.9014 14.1878C20.6196 14.5262 20.2935 14.8251 19.9319 15.0765C19.528 15.3538 19.1399 15.6357 18.7866 15.9114C18.3999 16.2116 18.0524 16.5592 17.7521 16.9458C17.4034 17.4079 17.1846 17.9549 17.1185 18.53V19.0496H14.6741V18.4381C14.7097 17.3862 15.1075 16.3789 15.8004 15.5866C16.076 15.2712 16.3834 14.9851 16.7177 14.7328C17.0804 14.4619 17.4195 14.1862 17.7268 13.9138C18.0581 13.6259 18.3406 13.2861 18.5632 12.9078C18.8105 12.4574 18.9237 11.9456 18.8896 11.433C18.8896 10.4825 18.6329 9.74742 18.1307 9.25475C17.6286 8.76208 16.9505 8.50861 16.0951 8.50861C15.5784 8.49747 15.067 8.61564 14.6076 8.85237C14.1984 9.06997 13.8454 9.37962 13.5763 9.75693C13.3069 10.1394 13.1123 10.5694 13.0028 11.0243C12.9249 11.324 12.8719 11.6298 12.8444 11.9383H10.0911C10.1427 11.3036 10.2845 10.6795 10.5125 10.0848C10.777 9.38882 11.1765 8.75193 11.688 8.21079C12.2006 7.67976 12.8184 7.2616 13.5018 6.98307C14.2679 6.67759 15.0867 6.52631 15.9113 6.53792C17.0789 6.53792 18.0595 6.69633 18.823 7.01316C19.5045 7.27517 20.1278 7.66864 20.6575 8.17119C21.0798 8.57887 21.4094 9.0727 21.6238 9.61911C21.807 10.0827 21.9067 10.575 21.9185 11.0734C21.9386 11.7085 21.8403 12.3419 21.6286 12.9411V12.9411ZM15.8971 21.7031C15.4359 21.7031 14.985 21.8398 14.6016 22.0961C14.2181 22.3523 13.9192 22.7165 13.7427 23.1426C13.5662 23.5687 13.52 24.0375 13.61 24.4899C13.7 24.9422 13.9221 25.3577 14.2482 25.6838C14.5743 26.01 14.9898 26.232 15.4422 26.322C15.8945 26.412 16.3634 26.3658 16.7895 26.1893C17.2156 26.0128 17.5797 25.714 17.836 25.3305C18.0922 24.947 18.229 24.4962 18.229 24.035C18.2281 23.4168 17.9822 22.8241 17.545 22.387C17.1079 21.9499 16.5153 21.7039 15.8971 21.7031V21.7031ZM15.8971 25.2579C15.6552 25.2579 15.4188 25.1862 15.2176 25.0518C15.0165 24.9174 14.8598 24.7264 14.7672 24.503C14.6746 24.2795 14.6504 24.0336 14.6976 23.7964C14.7448 23.5591 14.8613 23.3412 15.0323 23.1702C15.2033 22.9991 15.4213 22.8827 15.6585 22.8355C15.8957 22.7883 16.1416 22.8125 16.3651 22.9051C16.5886 22.9976 16.7796 23.1544 16.9139 23.3555C17.0483 23.5566 17.1201 23.7931 17.1201 24.035C17.1171 24.3577 16.9871 24.6662 16.7582 24.8937C16.5292 25.1212 16.2198 25.2492 15.8971 25.25V25.2579Z"/>
</svg>
