<svg width="32" height="32" viewBox="0 0 32 32" xmlns="http://www.w3.org/2000/svg">
<g clip-path="url(#clip0_9220_24898)">
<path d="M12.9679 9.91223C13.4262 9.91223 13.8741 9.77476 14.2551 9.51722C14.6361 9.25967 14.933 8.89361 15.1084 8.46532C15.2837 8.03703 15.3296 7.56576 15.2402 7.11109C15.1508 6.65643 14.9302 6.23879 14.6062 5.91099C14.2822 5.5832 13.8693 5.35996 13.4199 5.26953C12.9705 5.17909 12.5047 5.2255 12.0813 5.4029C11.658 5.58031 11.2962 5.88073 11.0416 6.26617C10.787 6.65162 10.6511 7.10478 10.6511 7.56836C10.6511 8.18999 10.8952 8.78616 11.3297 9.22573C11.7642 9.66529 12.3535 9.91223 12.9679 9.91223ZM12.9679 5.85372C13.3031 5.85372 13.6308 5.95428 13.9095 6.14268C14.1883 6.33109 14.4055 6.59888 14.5338 6.91219C14.6621 7.2255 14.6956 7.57026 14.6302 7.90287C14.5648 8.23548 14.4034 8.541 14.1664 8.78079C13.9293 9.02059 13.6274 9.1839 13.2986 9.25006C12.9698 9.31622 12.629 9.28226 12.3193 9.15248C12.0097 9.02271 11.745 8.80294 11.5587 8.52096C11.3725 8.23899 11.2731 7.90748 11.2731 7.56836C11.2731 7.11361 11.4517 6.67748 11.7695 6.35592C12.0873 6.03436 12.5184 5.85372 12.9679 5.85372V5.85372Z"/>
<path d="M23.8212 15.7326H22.1886C22.2065 15.6862 22.222 15.639 22.2352 15.591L23.4947 10.7775C23.5058 10.7381 23.5087 10.6968 23.5034 10.6562C23.498 10.6156 23.4845 10.5766 23.4636 10.5415C23.4428 10.5039 23.4137 10.4716 23.3787 10.447C23.3437 10.4225 23.3036 10.4064 23.2615 10.3999L22.2974 10.1797H22.2819C22.2166 10.1696 22.15 10.1727 22.0859 10.1889C22.0218 10.2051 21.9616 10.2341 21.9087 10.2741C21.8222 10.3509 21.7668 10.4573 21.7532 10.573L20.6648 14.6H17.8815C17.7884 14.3638 17.6276 14.1612 17.4198 14.0183C17.212 13.8753 16.9666 13.7985 16.7153 13.7977L14.2741 13.7034V12.7281C14.2755 12.5695 14.2599 12.4113 14.2274 12.2561C14.0984 11.6979 13.7728 11.2063 13.3116 10.8731C12.8504 10.54 12.285 10.3882 11.7212 10.446C11.1574 10.5038 10.6337 10.7673 10.2479 11.1873C9.86209 11.6072 9.64065 12.1549 9.62492 12.7281V19.7439C9.62659 19.9433 9.68022 20.1386 9.78041 20.3102H8.73862C9.20509 16.409 9.1118 13.2 8.47428 10.51C8.46512 10.4697 8.44819 10.4317 8.42447 10.398C8.40075 10.3643 8.3707 10.3357 8.33604 10.3138C8.30138 10.2919 8.2628 10.2771 8.22248 10.2703C8.18217 10.2635 8.14093 10.2647 8.10111 10.2741C8.06128 10.2833 8.02364 10.3005 7.99036 10.3245C7.95708 10.3485 7.92879 10.3789 7.90713 10.4139C7.88547 10.449 7.87085 10.488 7.86412 10.5288C7.85738 10.5696 7.85866 10.6113 7.86787 10.6516C8.50538 13.3101 8.56758 16.5034 8.10111 20.4361C8.09866 20.4838 8.10391 20.5316 8.11666 20.5777V21.317C8.11666 21.7425 8.28375 22.1507 8.58119 22.4516C8.87862 22.7525 9.28203 22.9215 9.70266 22.9215H11.7085V26.0677H9.85815C9.77568 26.0677 9.69658 26.1008 9.63826 26.1598C9.57994 26.2188 9.54717 26.2988 9.54717 26.3823C9.54717 26.4657 9.57994 26.5457 9.63826 26.6047C9.69658 26.6637 9.77568 26.6969 9.85815 26.6969H14.1808C14.2633 26.6969 14.3424 26.6637 14.4007 26.6047C14.459 26.5457 14.4918 26.4657 14.4918 26.3823C14.4918 26.2988 14.459 26.2188 14.4007 26.1598C14.3424 26.1008 14.2633 26.0677 14.1808 26.0677H12.3305V22.9215H14.4762C14.8207 22.9213 15.1558 22.8075 15.4307 22.5975C15.7056 22.3875 15.9055 22.0926 16 21.7575C16.1189 22.034 16.2025 22.3247 16.2488 22.6226L16.8241 25.4699C16.8555 25.8259 17.0188 26.1567 17.2812 26.396C17.5437 26.6352 17.8859 26.7652 18.2391 26.7598C18.4382 26.7613 18.6353 26.7198 18.8173 26.6381C18.9993 26.5564 19.1619 26.4364 19.2944 26.286C19.4269 26.1356 19.5261 25.9583 19.5854 25.7661C19.6448 25.5738 19.6629 25.3709 19.6385 25.171L18.8611 20.3889C18.8006 19.8012 18.5471 19.251 18.1413 18.8261C17.7354 18.4013 17.2005 18.1263 16.622 18.045H16.6065L13.8387 17.7933L13.8698 16.3776H23.5258V26.4452C23.5258 26.5286 23.5586 26.6087 23.6169 26.6677C23.6752 26.7267 23.7543 26.7598 23.8368 26.7598C23.9193 26.7598 23.9984 26.7267 24.0567 26.6677C24.115 26.6087 24.1478 26.5286 24.1478 26.4452V16.063C24.144 15.9766 24.1083 15.8948 24.0479 15.8336C23.9875 15.7725 23.9066 15.7365 23.8212 15.7326V15.7326ZM20.8824 15.2292C20.9511 15.2308 21.0182 15.2081 21.0721 15.165C21.126 15.1219 21.1634 15.0612 21.1779 14.9933L22.313 10.8246L22.795 10.9348L21.6288 15.4495C21.5977 15.6382 21.0379 15.654 20.8203 15.6697H17.8348C17.9117 15.5289 17.9594 15.3736 17.9748 15.2135L20.8824 15.2292ZM14.4762 22.308H9.70266C9.44698 22.308 9.20177 22.2053 9.02098 22.0224C8.84019 21.8395 8.73862 21.5914 8.73862 21.3327V20.9395H15.0515C15.1546 20.9395 15.2535 20.9809 15.3264 21.0547C15.3993 21.1284 15.4403 21.2284 15.4403 21.3327C15.4403 21.5914 15.3387 21.8395 15.1579 22.0224C14.9771 22.2053 14.7319 22.308 14.4762 22.308V22.308ZM12.9991 15.7483C12.87 15.7457 12.744 15.7077 12.6345 15.6385C12.525 15.5693 12.436 15.4713 12.3771 15.3551L11.6618 12.5707C11.6587 12.5246 11.6455 12.4796 11.6232 12.4392C11.6009 12.3988 11.57 12.3638 11.5328 12.3368C11.4957 12.3098 11.453 12.2915 11.408 12.2831C11.363 12.2747 11.3167 12.2764 11.2725 12.2882C11.2282 12.3 11.1871 12.3215 11.152 12.3513C11.1169 12.381 11.0887 12.4182 11.0695 12.4602C11.0502 12.5022 11.0404 12.548 11.0406 12.5943C11.0409 12.6406 11.0513 12.6863 11.071 12.7281L11.8018 15.5438C11.8018 15.5596 11.8173 15.5753 11.8173 15.6068C11.9253 15.836 12.0948 16.0298 12.3066 16.1661C12.5183 16.3024 12.7637 16.3757 13.0146 16.3776H13.2479L13.2012 18.0765C13.2008 18.1547 13.2293 18.2303 13.281 18.2885C13.3328 18.3467 13.4041 18.3833 13.4811 18.3911L16.5287 18.6742C16.9706 18.744 17.3774 18.959 17.6865 19.2859C17.9957 19.6128 18.1898 20.0336 18.2391 20.4833L19.0166 25.2654C19.0289 25.3751 19.0187 25.4863 18.9866 25.5918C18.9544 25.6974 18.9011 25.7951 18.83 25.8789C18.7266 25.9968 18.5912 26.0812 18.4407 26.1217C18.2901 26.1622 18.1311 26.157 17.9835 26.1066C17.8359 26.0563 17.7063 25.9631 17.6107 25.8387C17.5151 25.7142 17.4579 25.5641 17.4461 25.407V25.3755L16.8552 22.5283C16.6065 21.0338 15.8445 20.2159 14.6939 20.2159H10.7134C10.6515 20.2181 10.5899 20.2073 10.5323 20.1844C10.4747 20.1615 10.4224 20.1268 10.3787 20.0825C10.3349 20.0383 10.3006 19.9853 10.278 19.9271C10.2553 19.8688 10.2447 19.8065 10.2469 19.7439V12.7281C10.2469 12.2733 10.4254 11.8372 10.7433 11.5156C11.0611 11.1941 11.4922 11.0134 11.9417 11.0134C12.3358 11.0155 12.7173 11.154 13.0228 11.4058C13.3283 11.6577 13.5394 12.0077 13.621 12.3977C13.6476 12.5056 13.6581 12.617 13.6521 12.7281V14.0337C13.6531 14.094 13.6712 14.1528 13.7043 14.203C13.7374 14.2532 13.7841 14.2927 13.8387 14.3169C13.8969 14.345 13.9633 14.3505 14.0253 14.3326C14.2585 14.3169 15.7046 14.3798 16.6842 14.427C16.8574 14.427 17.0235 14.4966 17.146 14.6205C17.2685 14.7444 17.3373 14.9124 17.3373 15.0877C17.3373 15.2629 17.2685 15.4309 17.146 15.5548C17.0235 15.6787 16.8574 15.7483 16.6842 15.7483H12.9991Z"/>
</g>
<defs>
<clipPath>
<rect width="16.3265" height="21.551" transform="translate(7.83667 5.22449)"/>
</clipPath>
</defs>
</svg>
