<svg width="32" height="32" viewBox="0 0 32 32" xmlns="http://www.w3.org/2000/svg">
<path d="M25.9802 15.5722C27.2951 14.5584 28.103 12.9267 28.103 11.2158V7.49304C28.103 7.19205 27.9287 6.92274 27.6436 6.81185L23.905 5.35443C23.7307 5.29106 23.5406 5.29106 23.3822 5.37027L19.5485 7.01779C19.2951 7.12868 19.1208 7.38215 19.1208 7.65146H7.39804C6.65349 7.65146 6.05151 8.30096 6.05151 9.10888V21.5762C6.05151 21.9247 6.13071 22.2416 6.27329 22.5267H4.29309V23.9524C4.29309 25.299 5.35448 26.3921 6.66933 26.3921H25.6634C26.8515 26.3921 27.8337 25.394 27.8337 24.1742V22.5267H25.7743C25.901 22.2574 25.9802 21.9406 25.9802 21.6237V15.5722ZM20.1347 7.88908L23.6515 6.36829L27.0575 7.68314V11.2C27.0575 12.7366 26.2654 14.1782 24.998 14.9703L23.6198 15.8416L22.1941 14.9544C20.9109 14.1623 20.1188 12.7208 20.1188 11.1683V7.88908H20.1347ZM26.804 24.1901C26.804 24.8554 26.2971 25.3782 25.6634 25.3782H6.68517C5.94062 25.3782 5.33864 24.7445 5.33864 23.9683V23.5722H26.8198V24.1901H26.804ZM7.87329 22.5584C7.44557 22.5584 7.09705 22.1307 7.09705 21.6079V9.12472C7.09705 8.8871 7.23963 8.697 7.41388 8.697H19.1208V11.2158C19.1208 13.1168 20.103 14.9069 21.6872 15.8732L23.6515 17.093L24.9664 16.2693V21.6554C24.9664 22.1623 24.6495 22.5584 24.2376 22.5584H7.87329V22.5584Z"/>
<path d="M25.9643 9.17232L25.1089 8.58618L22.9703 11.6911L22.0198 10.9466L21.3861 11.7545L23.2079 13.1802L25.9643 9.17232Z"/>
</svg>
