<svg width="32" height="32" viewBox="0 0 32 32" xmlns="http://www.w3.org/2000/svg">
<path d="M20.0347 19.1081H20.0021C19.714 19.1102 19.4386 19.229 19.2363 19.4385C19.034 19.6479 18.9216 19.9308 18.9236 20.2249C18.9257 20.519 19.0421 20.8002 19.2473 21.0067C19.4524 21.2132 19.7296 21.328 20.0177 21.3259H20.0502C20.3383 21.3238 20.6138 21.2049 20.8161 20.9955C21.0183 20.786 21.1308 20.5032 21.1288 20.209C21.1267 19.9149 21.0103 19.6337 20.8051 19.4273C20.5999 19.2208 20.3228 19.106 20.0347 19.1081V19.1081Z"/>
<path d="M25.176 15.1905C24.5152 14.5111 23.7288 13.9724 22.8625 13.6056C21.9963 13.2387 21.0673 13.0511 20.1294 13.0534C19.5582 13.0608 18.9911 13.1526 18.4457 13.3259L16.3243 11.3441L13.7902 11.2792L13.8275 8.15047L10.4755 8.13938L10.4321 4.65424L4.5708 4.72869V9.72513L13.261 18.6804C13.1322 19.2637 13.0677 19.8599 13.0686 20.4578C13.062 21.404 13.2396 22.342 13.5911 23.2175C13.9426 24.093 14.461 24.8885 15.1162 25.5578C15.7714 26.2271 16.5503 26.7568 17.4077 27.1162C18.2651 27.4756 19.184 27.6576 20.1108 27.6515C22.0063 27.6473 23.823 26.8766 25.1632 25.5082C26.5034 24.1398 27.2579 22.2851 27.2616 20.3501C27.2658 19.3919 27.0836 18.4425 26.7256 17.5568C26.3676 16.6711 25.8409 15.8668 25.176 15.1905V15.1905ZM20.117 26.5394C19.3326 26.5459 18.5547 26.393 17.8287 26.0895C17.1027 25.786 16.4432 25.338 15.8885 24.7717C15.3339 24.2053 14.8952 23.5319 14.5981 22.7908C14.301 22.0496 14.1514 21.2554 14.158 20.4546C14.1559 19.8474 14.2337 19.2427 14.3892 18.6566L14.473 18.3398L5.65553 9.26572V5.82018L9.35664 5.77424L9.39854 9.24513L12.7272 9.25622L12.6931 12.3564L15.8898 12.4388L18.1726 14.5742L18.4829 14.4744C19.0138 14.2798 19.5717 14.1728 20.1356 14.1576C21.74 14.1601 23.278 14.8118 24.4124 15.9699C25.5469 17.128 26.1853 18.698 26.1878 20.3358C26.1874 21.9799 25.5478 23.5566 24.4096 24.7197C23.2714 25.8828 21.7275 26.5373 20.117 26.5394V26.5394Z"/>
</svg>
