<svg width="32" height="32" viewBox="0 0 32 32" xmlns="http://www.w3.org/2000/svg">
<g clip-path="url(#clip0_9220_24908)">
<path d="M25.7422 22.1723H6.25775C5.73375 22.1681 5.23241 21.9607 4.86187 21.5946C4.49134 21.2286 4.28131 20.7333 4.2771 20.2156V11.8003C4.28131 11.2785 4.49303 10.7791 4.86659 10.4101C5.24014 10.0411 5.74559 9.83192 6.27386 9.82776H25.7422C26.269 9.83196 26.7728 10.0416 27.1438 10.4111C27.5148 10.7806 27.7229 11.2799 27.7229 11.8003V20.2156C27.7358 20.4728 27.6921 20.7298 27.5948 20.9687C27.4975 21.2076 27.3489 21.4229 27.1593 21.5996C26.9762 21.7869 26.7557 21.9346 26.5117 22.0332C26.2678 22.1318 26.0057 22.1792 25.7422 22.1723V22.1723ZM6.27386 10.7822C6.00053 10.7822 5.7384 10.8895 5.54512 11.0804C5.35185 11.2714 5.24327 11.5303 5.24327 11.8003V20.2156C5.24327 20.4856 5.35185 20.7446 5.54512 20.9355C5.7384 21.1265 6.00053 21.2337 6.27386 21.2337H25.7422C26.0147 21.2316 26.2753 21.1229 26.4669 20.9315C26.5606 20.837 26.6345 20.7251 26.6843 20.6022C26.734 20.4793 26.7586 20.3479 26.7567 20.2156V11.7844C26.7568 11.5171 26.6504 11.2606 26.4606 11.0701C26.2708 10.8796 26.0128 10.7705 25.7422 10.7663L6.27386 10.7822Z"/>
<path d="M6.8374 12.6275H8.17394V13.9479H6.8374V12.6275Z"/>
<path d="M9.67151 12.6116H11.008V13.932H9.67151V12.6116Z"/>
<path d="M12.5056 12.6116H13.8422V13.932H12.5056V12.6116Z"/>
<path d="M15.3558 12.6116H16.6924V13.932H15.3558V12.6116Z"/>
<path d="M18.1899 12.6116H19.5265V13.932H18.1899V12.6116Z"/>
<path d="M21.024 12.6116H22.3606V13.932H21.024V12.6116Z"/>
<path d="M23.8582 12.6275H25.1947V13.9479H23.8582V12.6275Z"/>
<path d="M6.8374 15.5227H8.17394V16.8431H6.8374V15.5227Z"/>
<path d="M9.67151 15.5068H11.008V16.8272H9.67151V15.5068Z"/>
<path d="M12.5056 15.5068H13.8422V16.8272H12.5056V15.5068Z"/>
<path d="M15.3558 15.5068H16.6924V16.8272H15.3558V15.5068Z"/>
<path d="M18.1899 15.5068H19.5265V16.8272H18.1899V15.5068Z"/>
<path d="M21.024 15.5068H22.3606V16.8272H21.024V15.5068Z"/>
<path d="M23.8582 15.5227H25.1947V16.8431H23.8582V15.5227Z"/>
<path d="M6.8374 18.2748H8.17394V19.5951H6.8374V18.2748Z"/>
<path d="M9.67151 18.2748H11.008V19.5951H9.67151V18.2748Z"/>
<path d="M12.5056 18.2748H19.5104V19.5951H12.5056V18.2748Z"/>
<path d="M21.0079 18.2589H22.3445V19.5793H21.0079V18.2589Z"/>
<path d="M23.842 18.2748H25.1786V19.5951H23.842V18.2748Z"/>
</g>
<defs>
<clipPath>
<rect width="23.5102" height="12.4082" transform="translate(4.24487 9.7959)"/>
</clipPath>
</defs>
</svg>
