<svg width="32" height="32" viewBox="0 0 32 32" xmlns="http://www.w3.org/2000/svg">
<path d="M10.8789 11.6023H7.13589C6.89574 11.6294 6.67356 11.7451 6.51121 11.9278C6.34886 12.1104 6.25754 12.3474 6.25445 12.594V24.4166C6.25807 24.6787 6.36179 24.9291 6.54353 25.1143C6.72527 25.2995 6.97066 25.405 7.22745 25.4083H10.8789C11.1354 25.4046 11.3804 25.2989 11.5618 25.1137C11.7432 24.9286 11.8467 24.6785 11.8503 24.4166V12.594C11.8467 12.3322 11.7432 12.0821 11.5618 11.8969C11.3804 11.7117 11.1354 11.606 10.8789 11.6023ZM10.7641 24.2994H7.35004V12.7113H10.7641V24.2994ZM25.4335 12.754C24.5505 11.699 23.1709 11.1699 21.3351 11.1699C20.3848 11.1589 19.4546 11.4501 18.6737 12.0031C18.5831 11.8804 18.4659 11.7808 18.3313 11.7121C18.1967 11.6434 18.0483 11.6075 17.8978 11.6071H14.4729C14.2161 11.6104 13.9708 11.7159 13.789 11.9011C13.6073 12.0863 13.5036 12.3366 13.4999 12.5988V24.4214C13.5036 24.6835 13.6073 24.9338 13.789 25.119C13.9708 25.3043 14.2161 25.4098 14.4729 25.413H18.1182C18.3748 25.4097 18.6201 25.3042 18.8015 25.1189C18.983 24.9337 19.0864 24.6833 19.0896 24.4214V17.8487C19.0861 17.4546 19.198 17.0685 19.4109 16.7398C19.49 16.6273 19.6498 16.4372 19.8345 16.4372H20.2628C20.4459 16.4372 20.6058 16.6273 20.6865 16.7398C20.8989 17.0686 21.0102 17.4548 21.0061 17.8487V24.4166C21.0097 24.6785 21.1133 24.9286 21.2947 25.1137C21.4761 25.2989 21.7211 25.4046 21.9776 25.4083H25.6213C25.8778 25.4046 26.1228 25.2989 26.3042 25.1137C26.4856 24.9286 26.5891 24.6785 26.5927 24.4166V16.754C26.5958 14.9972 26.2156 13.6887 25.4335 12.754V12.754ZM25.5095 24.2994H22.0955V17.8487C22.1009 17.2211 21.9179 16.6069 21.571 16.0887C21.2249 15.596 20.761 15.3235 20.2659 15.3235H19.8376C19.341 15.3235 18.877 15.596 18.531 16.0887C18.1841 16.6069 18.0011 17.2211 18.0065 17.8487V24.2994H14.5924V12.7113H17.7954V14.2954L18.7141 13.3956C19.4993 12.6273 20.3342 12.2709 21.3413 12.2709C22.8451 12.2709 23.9469 12.6748 24.6141 13.4716C25.2209 14.1972 25.5158 15.2697 25.5158 16.7509L25.5095 24.2994ZM8.94222 4.43561C8.32539 4.43561 7.72244 4.6225 7.20974 4.97259C6.69704 5.32269 6.29766 5.82024 6.06218 6.40223C5.8267 6.98422 5.76572 7.62446 5.88696 8.24185C6.00821 8.85925 6.30622 9.42602 6.74325 9.87038C7.18029 10.3147 7.73668 10.6167 8.34195 10.738C8.94723 10.8593 9.57415 10.7945 10.1433 10.5518C10.7125 10.3091 11.1983 9.8994 11.5392 9.37463C11.8801 8.84985 12.0608 8.2336 12.0583 7.60392C12.0538 6.76286 11.7236 5.95774 11.1399 5.36419C10.5561 4.77065 9.76613 4.43685 8.94222 4.43561V4.43561ZM8.94222 9.68868C8.5413 9.68867 8.14935 9.56746 7.81583 9.34033C7.48231 9.1132 7.22214 8.79033 7.06815 8.41245C6.91417 8.03456 6.87325 7.61859 6.95057 7.21699C7.02789 6.8154 7.21998 6.44617 7.50261 6.15589C7.78524 5.86561 8.14575 5.66727 8.53867 5.58589C8.93159 5.50451 9.33932 5.54374 9.71042 5.69863C10.0815 5.85352 10.3994 6.11713 10.6239 6.45621C10.8484 6.79529 10.9696 7.19466 10.972 7.60392C10.9724 8.15404 10.7589 8.68181 10.3782 9.07125C9.99762 9.46069 9.48111 9.67992 8.94222 9.68076V9.68868Z"/>
</svg>
