<svg width="32" height="32" viewBox="0 0 32 32" xmlns="http://www.w3.org/2000/svg">
<path d="M16.0506 3.48511C15.9036 3.48511 15.7626 3.54352 15.6586 3.6475C15.5546 3.75148 15.4962 3.89251 15.4962 4.03956V9.16432C15.4962 9.31137 15.5546 9.45239 15.6586 9.55637C15.7626 9.66036 15.9036 9.71877 16.0506 9.71877C16.1977 9.71877 16.3387 9.66036 16.4427 9.55637C16.5467 9.45239 16.6051 9.31137 16.6051 9.16432V4.04273C16.6055 3.96965 16.5915 3.89721 16.5638 3.82958C16.5361 3.76194 16.4953 3.70044 16.4438 3.64862C16.3923 3.5968 16.331 3.55568 16.2635 3.52761C16.1961 3.49955 16.1237 3.48511 16.0506 3.48511V3.48511ZM16.0506 22.1307C15.9036 22.1307 15.7626 22.1891 15.6586 22.293C15.5546 22.397 15.4962 22.5381 15.4962 22.6851V27.8051C15.4962 27.9522 15.5546 28.0932 15.6586 28.1972C15.7626 28.3011 15.9036 28.3596 16.0506 28.3596C16.1977 28.3596 16.3387 28.3011 16.4427 28.1972C16.5467 28.0932 16.6051 27.9522 16.6051 27.8051V22.6851C16.6051 22.5381 16.5467 22.397 16.4427 22.293C16.3387 22.1891 16.1977 22.1307 16.0506 22.1307V22.1307ZM9.84549 15.9239C9.84549 15.7769 9.78707 15.6358 9.68309 15.5319C9.57911 15.4279 9.43808 15.3695 9.29103 15.3695H4.16945C4.02239 15.3695 3.88137 15.4279 3.77739 15.5319C3.67341 15.6358 3.61499 15.7769 3.61499 15.9239C3.61499 16.071 3.67341 16.212 3.77739 16.316C3.88137 16.42 4.02239 16.4784 4.16945 16.4784H9.29103C9.43808 16.4784 9.57911 16.42 9.68309 16.316C9.78707 16.212 9.84549 16.071 9.84549 15.9239V15.9239ZM27.9318 15.3663H22.8118C22.6648 15.3663 22.5237 15.4247 22.4198 15.5287C22.3158 15.6327 22.2574 15.7737 22.2574 15.9208C22.2574 16.0678 22.3158 16.2088 22.4198 16.3128C22.5237 16.4168 22.6648 16.4752 22.8118 16.4752H27.9334C28.0805 16.4752 28.2215 16.4168 28.3255 16.3128C28.4294 16.2088 28.4879 16.0678 28.4879 15.9208C28.4879 15.7737 28.4294 15.6327 28.3255 15.5287C28.2215 15.4247 28.0805 15.3663 27.9334 15.3663H27.9318ZM8.04113 7.12867C7.93609 7.02469 7.79405 6.96668 7.64625 6.96743C7.49845 6.96817 7.357 7.0276 7.25301 7.13263C7.14902 7.23767 7.09102 7.37971 7.09177 7.52751C7.09251 7.67531 7.15193 7.81677 7.25697 7.92075L10.8784 11.5358C10.9823 11.6408 11.1238 11.7003 11.2716 11.701C11.4194 11.7017 11.5614 11.6437 11.6665 11.5398C11.7715 11.4358 11.8309 11.2943 11.8317 11.1465C11.8324 10.9987 11.7744 10.8567 11.6704 10.7516L8.04113 7.12867ZM21.2277 20.312C21.1762 20.2605 21.115 20.2197 21.0478 20.1918C20.9805 20.164 20.9084 20.1496 20.8356 20.1496C20.7628 20.1496 20.6907 20.164 20.6234 20.1918C20.5561 20.2197 20.495 20.2605 20.4435 20.312C20.392 20.3635 20.3512 20.4247 20.3233 20.4919C20.2954 20.5592 20.2811 20.6313 20.2811 20.7041C20.2811 20.7769 20.2954 20.849 20.3233 20.9163C20.3512 20.9836 20.392 21.0447 20.4435 21.0962L24.0601 24.7128C24.1116 24.7648 24.1729 24.8062 24.2403 24.8345C24.3078 24.8629 24.3802 24.8777 24.4534 24.878C24.5266 24.8784 24.5991 24.8644 24.6669 24.8367C24.7346 24.809 24.7962 24.7683 24.8483 24.7168C24.9003 24.6653 24.9416 24.6041 24.97 24.5366C24.9983 24.4691 25.0131 24.3967 25.0135 24.3236C25.0138 24.2504 24.9998 24.1778 24.9721 24.1101C24.9444 24.0423 24.9037 23.9807 24.8522 23.9287L21.2277 20.312ZM10.8784 20.312L7.25697 23.9334C7.19909 23.9833 7.15214 24.0446 7.11907 24.1135C7.086 24.1824 7.06753 24.2574 7.06482 24.3337C7.0621 24.4101 7.0752 24.4862 7.10329 24.5573C7.13138 24.6283 7.17386 24.6928 7.22806 24.7467C7.28225 24.8006 7.347 24.8426 7.41823 24.8703C7.48946 24.898 7.56564 24.9106 7.64199 24.9074C7.71834 24.9042 7.7932 24.8853 7.86189 24.8518C7.93058 24.8183 7.9916 24.771 8.04113 24.7128L11.6625 21.0914C11.7665 20.9864 11.8245 20.8444 11.8238 20.6966C11.823 20.5488 11.7636 20.4073 11.6586 20.3033C11.5535 20.1993 11.4115 20.1413 11.2637 20.1421C11.1159 20.1428 10.9744 20.2022 10.8704 20.3073L10.8784 20.312ZM20.83 11.699C20.9027 11.6999 20.9749 11.6863 21.0423 11.6591C21.1098 11.6319 21.1712 11.5916 21.2229 11.5406L24.8443 7.92075C24.9483 7.81571 25.0063 7.67367 25.0055 7.52587C25.0048 7.37807 24.9454 7.23662 24.8403 7.13263C24.7353 7.02865 24.5933 6.97065 24.4455 6.97139C24.2977 6.97213 24.1562 7.03156 24.0522 7.13659L20.4356 10.7516C20.3839 10.803 20.3429 10.8641 20.3149 10.9314C20.2869 10.9987 20.2725 11.0708 20.2725 11.1437C20.2725 11.2166 20.2869 11.2888 20.3149 11.356C20.3429 11.4233 20.3839 11.4844 20.4356 11.5358C20.4871 11.588 20.5485 11.6293 20.6163 11.6574C20.684 11.6854 20.7567 11.6995 20.83 11.699V11.699Z"/>
</svg>
