<svg width="32" height="32" viewBox="0 0 32 32" xmlns="http://www.w3.org/2000/svg">
<path d="M19.661 16.3913L20.0538 16.0001L19.661 15.6088L13.3243 9.27214C13.2193 9.1671 13.0768 9.10809 12.9283 9.10809C12.7798 9.10809 12.6373 9.1671 12.5323 9.27214C12.4272 9.37717 12.3682 9.51963 12.3682 9.66818C12.3682 9.81672 12.4272 9.95918 12.5323 10.0642L17.9311 15.4456H4.05226C3.90521 15.4456 3.76418 15.504 3.6602 15.608C3.55622 15.712 3.4978 15.853 3.4978 16.0001C3.4978 16.1471 3.55622 16.2881 3.6602 16.3921C3.76418 16.4961 3.90521 16.5545 4.05226 16.5545H17.9311L12.5449 21.9486C12.4409 22.0536 12.3829 22.1957 12.3837 22.3435C12.3844 22.4913 12.4439 22.6327 12.5489 22.7367C12.6539 22.8407 12.796 22.8987 12.9438 22.8979C13.0916 22.8972 13.233 22.8378 13.337 22.7327L19.6736 16.3961L19.661 16.3913Z"/>
<path d="M16.0159 4.82538C15.8688 4.82538 15.7278 4.88379 15.6238 4.98777C15.5198 5.09176 15.4614 5.23278 15.4614 5.37983C15.4614 5.52688 15.5198 5.66791 15.6238 5.77189C15.7278 5.87587 15.8688 5.93429 16.0159 5.93429H26.0072V25.8947H16.0159C15.8688 25.8947 15.7278 25.9531 15.6238 26.0571C15.5198 26.1611 15.4614 26.3021 15.4614 26.4491C15.4614 26.5962 15.5198 26.7372 15.6238 26.8412C15.7278 26.9452 15.8688 27.0036 16.0159 27.0036H27.1161V4.82538H16.0159Z"/>
</svg>
