<svg width="32" height="32" viewBox="0 0 32 32" xmlns="http://www.w3.org/2000/svg">
<path d="M28.1489 16.2265L28.5402 15.8352L28.1489 15.4423L21.8123 9.1057C21.7608 9.05421 21.6996 9.01337 21.6324 8.98551C21.5651 8.95764 21.493 8.9433 21.4202 8.9433C21.3474 8.9433 21.2753 8.95764 21.208 8.98551C21.1407 9.01337 21.0796 9.05421 21.0281 9.1057C20.9766 9.15719 20.9358 9.21832 20.9079 9.28559C20.88 9.35286 20.8657 9.42497 20.8657 9.49778C20.8657 9.5706 20.88 9.6427 20.9079 9.70997C20.9358 9.77725 20.9766 9.83837 21.0281 9.88986L26.4142 15.2839H12.5386C12.3915 15.2839 12.2505 15.3423 12.1465 15.4463C12.0425 15.5503 11.9841 15.6913 11.9841 15.8384C11.9841 15.9854 12.0425 16.1265 12.1465 16.2304C12.2505 16.3344 12.3915 16.3928 12.5386 16.3928H26.4174L21.0313 21.7869C20.9262 21.8909 20.8668 22.0323 20.8661 22.1801C20.8653 22.3279 20.9233 22.47 21.0273 22.575C21.1313 22.68 21.2727 22.7395 21.4205 22.7402C21.5683 22.741 21.7104 22.683 21.8154 22.579L28.1521 16.2423L28.1489 16.2265Z"/>
<path d="M16 25.901H5.95962V5.94058H16C16.1471 5.94058 16.2881 5.88216 16.3921 5.77818C16.4961 5.6742 16.5545 5.53317 16.5545 5.38612C16.5545 5.23907 16.4961 5.09804 16.3921 4.99406C16.2881 4.89008 16.1471 4.83167 16 4.83167H4.85071V27.0099H16C16.1471 27.0099 16.2881 26.9515 16.3921 26.8475C16.4961 26.7435 16.5545 26.6025 16.5545 26.4554C16.5545 26.3084 16.4961 26.1673 16.3921 26.0634C16.2881 25.9594 16.1471 25.901 16 25.901Z"/>
</svg>
