<svg width="32" height="32" viewBox="0 0 32 32" xmlns="http://www.w3.org/2000/svg">
<path d="M11.3539 9.25621L11.9746 17.3354L13.4132 18.2685L14.4203 26.655H17.9073L18.7825 18.4174L20.1388 17.2879L20.6369 9.25779L11.3539 9.25621ZM19.0882 16.7334L17.7521 17.8423L16.9312 25.5398H15.3793L14.4327 17.6063L13.0174 16.6907L12.5302 10.3651H19.4839L19.0882 16.7334ZM16.0001 8.13621C16.5249 8.13621 17.0379 7.97733 17.4743 7.67967C17.9107 7.38201 18.2508 6.95894 18.4517 6.46395C18.6525 5.96896 18.7051 5.42429 18.6027 4.89881C18.5003 4.37334 18.2476 3.89065 17.8765 3.51181C17.5053 3.13296 17.0325 2.87496 16.5178 2.77044C16.003 2.66591 15.4694 2.71956 14.9846 2.92459C14.4997 3.12962 14.0852 3.47683 13.7936 3.92231C13.5021 4.36778 13.3464 4.89152 13.3464 5.4273C13.3473 6.14549 13.6271 6.83402 14.1246 7.34186C14.622 7.8497 15.2965 8.13537 16.0001 8.13621ZM16.0001 3.82888C16.3101 3.82888 16.6132 3.92276 16.871 4.09864C17.1288 4.27452 17.3297 4.5245 17.4482 4.81695C17.5668 5.10941 17.5978 5.4312 17.5372 5.74161C17.4766 6.05202 17.3271 6.33711 17.1078 6.56081C16.8884 6.78451 16.609 6.93677 16.3049 6.99833C16.0007 7.05989 15.6856 7.02798 15.3992 6.90663C15.1128 6.78529 14.8681 6.57997 14.6961 6.31664C14.5241 6.05331 14.4324 5.74381 14.4327 5.4273C14.4335 5.00335 14.599 4.59704 14.8928 4.29741C15.1866 3.99779 15.5848 3.8293 16.0001 3.82888V3.82888Z"/>
</svg>
