<svg width="32" height="32" viewBox="0 0 32 32" xmlns="http://www.w3.org/2000/svg">
<path d="M25.5366 19.1828C25.3896 19.1828 25.2486 19.24 25.1446 19.3419C25.0406 19.4438 24.9822 19.5819 24.9822 19.726V24.7694H19.8337C19.6866 24.7694 19.5456 24.8266 19.4416 24.9285C19.3376 25.0303 19.2792 25.1685 19.2792 25.3125C19.2792 25.4566 19.3376 25.5947 19.4416 25.6966C19.5456 25.7985 19.6866 25.8557 19.8337 25.8557H26.0911V19.7244C26.0907 19.5806 26.0321 19.4429 25.9281 19.3414C25.8242 19.2398 25.6834 19.1828 25.5366 19.1828V19.1828ZM12.2297 24.7694H7.0812V19.7244C7.0812 19.5804 7.02279 19.4422 6.9188 19.3404C6.81482 19.2385 6.6738 19.1813 6.52675 19.1813C6.37969 19.1813 6.23867 19.2385 6.13469 19.3404C6.03071 19.4422 5.97229 19.5804 5.97229 19.7244V25.8541H12.2297C12.3768 25.8541 12.5178 25.7969 12.6218 25.6951C12.7258 25.5932 12.7842 25.455 12.7842 25.311C12.7842 25.1669 12.7258 25.0288 12.6218 24.9269C12.5178 24.8251 12.3768 24.7679 12.2297 24.7679V24.7694ZM19.8337 6.14746C19.6866 6.14746 19.5456 6.20468 19.4416 6.30654C19.3376 6.4084 19.2792 6.54655 19.2792 6.6906C19.2792 6.83465 19.3376 6.9728 19.4416 7.07466C19.5456 7.17652 19.6866 7.23374 19.8337 7.23374H24.9822V12.2756C24.9822 12.4197 25.0406 12.5578 25.1446 12.6597C25.2486 12.7616 25.3896 12.8188 25.5366 12.8188C25.6837 12.8188 25.8247 12.7616 25.9287 12.6597C26.0327 12.5578 26.0911 12.4197 26.0911 12.2756V6.14746H19.8337ZM12.2297 6.14746H5.97229V12.2756C5.97229 12.4197 6.03071 12.5578 6.13469 12.6597C6.23867 12.7616 6.37969 12.8188 6.52675 12.8188C6.6738 12.8188 6.81482 12.7616 6.9188 12.6597C7.02279 12.5578 7.0812 12.4197 7.0812 12.2756V7.23374H12.2297C12.3768 7.23374 12.5178 7.17652 12.6218 7.07466C12.7258 6.9728 12.7842 6.83465 12.7842 6.6906C12.7842 6.54655 12.7258 6.4084 12.6218 6.30654C12.5178 6.20468 12.3768 6.14746 12.2297 6.14746V6.14746Z"/>
</svg>
