<svg width="32" height="32" viewBox="0 0 32 32" xmlns="http://www.w3.org/2000/svg">
<path d="M19.2158 12.9895V16.0621C19.2158 17.8156 17.7584 19.2433 15.9683 19.2433H15.6515C15.5089 19.2433 15.3663 19.2433 15.2237 19.2123C14.9228 19.1502 14.6376 19.352 14.5742 19.6468C14.5109 19.9417 14.7168 20.221 15.0178 20.2831C15.1921 20.3141 15.3822 20.3296 15.5723 20.3296H15.9683C18.3762 20.3296 20.3247 18.4209 20.3247 16.0621V12.9895C20.3247 12.6946 20.0713 12.4463 19.7703 12.4463C19.4693 12.4463 19.2158 12.6946 19.2158 12.9895V12.9895ZM12.2931 18.2657C12.3723 18.2657 12.4515 18.2502 12.5307 18.2036C12.8 18.0639 12.9267 17.7536 12.7841 17.4742C12.5624 17.0397 12.4515 16.5431 12.4515 16.0621V9.17196C12.4515 7.4184 13.9089 5.99071 15.699 5.99071H15.9841C17.2198 5.99071 18.3604 6.68904 18.9148 7.77532C19.0416 8.03913 19.3742 8.16327 19.6594 8.02361C19.9287 7.89946 20.0554 7.57358 19.9129 7.29425C19.1841 5.83553 17.6475 4.88892 16 4.88892H15.7148C13.3069 4.88892 11.3584 6.79767 11.3584 9.15644V16.0466C11.3584 16.6983 11.5168 17.3501 11.802 17.9398C11.8812 18.157 12.0871 18.2657 12.2931 18.2657V18.2657Z"/>
<path d="M23.493 5.23034C23.2396 5.05964 22.8911 5.10619 22.7168 5.35448L11.6752 20.4383C10.4871 19.3365 9.7584 17.7846 9.7584 16.0776V14.6655C9.7584 14.3706 9.50493 14.1223 9.20394 14.1223C8.90295 14.1223 8.64949 14.3706 8.64949 14.6655V16.0776C8.64949 18.1571 9.5683 20.0348 11.0257 21.3383L8.74454 24.442C8.57028 24.6903 8.61781 25.0317 8.87127 25.2024C8.96632 25.2644 9.07721 25.311 9.1881 25.311C9.36236 25.311 9.53662 25.2334 9.63167 25.0782L11.8812 22.0056C12.8475 22.6419 13.9881 23.0453 15.2079 23.154V26.3197H13.5129C13.2119 26.3197 12.9584 26.568 12.9584 26.8628C12.9584 27.1577 13.2119 27.406 13.5129 27.406H18.0911C18.3921 27.406 18.6455 27.1577 18.6455 26.8628C18.6455 26.568 18.3921 26.3197 18.0911 26.3197H16.3327V23.1695C20.1346 22.9522 23.1445 19.8486 23.1445 16.0776V14.6655C23.1445 14.3706 22.8911 14.1223 22.5901 14.1223C22.2891 14.1223 22.0356 14.3706 22.0356 14.6655V16.0776C22.0356 17.6915 21.402 19.1968 20.2297 20.3296C19.0574 21.4625 17.5208 22.0987 15.8891 22.0987C14.6534 22.0987 13.497 21.7418 12.5307 21.1211L23.6039 5.99073C23.794 5.75796 23.7465 5.41656 23.493 5.23034Z"/>
</svg>
