<svg width="32" height="32" viewBox="0 0 32 32" xmlns="http://www.w3.org/2000/svg">
<path d="M12.2456 5.99227C12.0988 5.99227 11.958 6.04928 11.8541 6.15081C11.7502 6.25233 11.6916 6.39008 11.6911 6.53386V11.5773H6.54261C6.39556 11.5773 6.25454 11.6345 6.15056 11.7364C6.04658 11.8382 5.98816 11.9764 5.98816 12.1204C5.98816 12.2645 6.04658 12.4026 6.15056 12.5045C6.25454 12.6064 6.39556 12.6636 6.54261 12.6636H12.8V6.53386C12.7996 6.39008 12.741 6.25233 12.6371 6.15081C12.5332 6.04928 12.3924 5.99227 12.2456 5.99227V5.99227ZM26.107 12.1204C26.107 11.9764 26.0486 11.8382 25.9446 11.7364C25.8406 11.6345 25.6996 11.5773 25.5525 11.5773H20.404V6.53386C20.404 6.38981 20.3456 6.25166 20.2416 6.1498C20.1376 6.04795 19.9966 5.99072 19.8495 5.99072C19.7025 5.99072 19.5615 6.04795 19.4575 6.1498C19.3535 6.25166 19.2951 6.38981 19.2951 6.53386V12.6636H25.5525C25.6996 12.6636 25.8406 12.6064 25.9446 12.5045C26.0486 12.4026 26.107 12.2645 26.107 12.1204V12.1204ZM5.98816 19.5692C5.98816 19.7133 6.04658 19.8514 6.15056 19.9533C6.25454 20.0551 6.39556 20.1124 6.54261 20.1124H11.6911V25.1558C11.6911 25.2999 11.7495 25.438 11.8535 25.5399C11.9575 25.6417 12.0985 25.6989 12.2456 25.6989C12.3926 25.6989 12.5337 25.6417 12.6376 25.5399C12.7416 25.438 12.8 25.2999 12.8 25.1558V19.0261H6.54261C6.39556 19.0261 6.25454 19.0833 6.15056 19.1852C6.04658 19.287 5.98816 19.4252 5.98816 19.5692V19.5692ZM25.5525 19.0276H19.2951V25.1558C19.2951 25.2999 19.3535 25.438 19.4575 25.5399C19.5615 25.6417 19.7025 25.6989 19.8495 25.6989C19.9966 25.6989 20.1376 25.6417 20.2416 25.5399C20.3456 25.438 20.404 25.2999 20.404 25.1558V20.1124H25.5525C25.6996 20.1124 25.8406 20.0551 25.9446 19.9533C26.0486 19.8514 26.107 19.7133 26.107 19.5692C26.107 19.4252 26.0486 19.287 25.9446 19.1852C25.8406 19.0833 25.6996 19.0261 25.5525 19.0261V19.0276Z"/>
</svg>
