<svg width="32" height="32" viewBox="0 0 32 32" xmlns="http://www.w3.org/2000/svg">
<path d="M26.8198 5.3529C26.7683 5.30109 26.7067 5.25992 26.6387 5.23181C26.5706 5.20369 26.4976 5.18921 26.4237 5.18921C26.3499 5.18921 26.2768 5.20369 26.2088 5.23181C26.1408 5.25992 26.0792 5.30109 26.0277 5.3529L19.3014 11.9497V6.38952C19.3014 6.24547 19.2429 6.10732 19.139 6.00546C19.035 5.9036 18.894 5.84638 18.7469 5.84638C18.5999 5.84638 18.4588 5.9036 18.3548 6.00546C18.2509 6.10732 18.1924 6.24547 18.1924 6.38952V13.8042H25.7631C25.9102 13.8042 26.0512 13.7469 26.1552 13.6451C26.2592 13.5432 26.3176 13.4051 26.3176 13.261C26.3176 13.117 26.2592 12.9788 26.1552 12.877C26.0512 12.7751 25.9102 12.7179 25.7631 12.7179H20.0855L26.8198 6.12105C26.8715 6.07072 26.9125 6.01088 26.9405 5.94496C26.9684 5.87905 26.9829 5.80837 26.9829 5.73698C26.9829 5.66559 26.9684 5.5949 26.9405 5.52899C26.9125 5.46307 26.8715 5.40323 26.8198 5.3529V5.3529ZM5.54453 18.7716C5.54453 18.9156 5.60294 19.0538 5.70692 19.1556C5.8109 19.2575 5.95193 19.3147 6.09898 19.3147H11.7829L5.0471 25.9131C4.99509 25.964 4.95384 26.0245 4.92569 26.0911C4.89754 26.1576 4.88306 26.229 4.88306 26.301C4.88306 26.3731 4.89754 26.4444 4.92569 26.511C4.95384 26.5776 4.99509 26.638 5.0471 26.689C5.09911 26.7399 5.16085 26.7804 5.22881 26.8079C5.29676 26.8355 5.36959 26.8497 5.44314 26.8497C5.51669 26.8497 5.58952 26.8355 5.65748 26.8079C5.72543 26.7804 5.78717 26.7399 5.83918 26.689L12.575 20.0906V25.6524C12.575 25.7964 12.6334 25.9346 12.7374 26.0364C12.8414 26.1383 12.9824 26.1955 13.1295 26.1955C13.2765 26.1955 13.4176 26.1383 13.5215 26.0364C13.6255 25.9346 13.6839 25.7964 13.6839 25.6524V18.2284H6.10532C6.03198 18.2276 5.95919 18.241 5.89119 18.268C5.82319 18.2949 5.76132 18.3348 5.70916 18.3853C5.657 18.4358 5.61559 18.496 5.58733 18.5623C5.55907 18.6286 5.54452 18.6997 5.54453 18.7716Z"/>
</svg>
