<svg width="32" height="32" viewBox="0 0 32 32" xmlns="http://www.w3.org/2000/svg">
<path d="M29.5018 6.31765C29.4427 6.27495 29.3758 6.24431 29.3049 6.22749C29.234 6.21067 29.1604 6.208 29.0885 6.21962C29.0165 6.23124 28.9476 6.25694 28.8856 6.29523C28.8236 6.33353 28.7697 6.38367 28.7271 6.4428C27.8083 7.71013 27.0447 8.38973 26.457 8.44676C26.0071 8.48953 25.6269 8.16478 25.0534 7.62458C24.4515 7.05904 23.7703 6.41745 22.7976 6.51567C21.8693 6.60755 20.9156 7.37904 19.7988 8.93785C18.671 8.01386 17.2403 7.54163 15.7841 7.61276C14.3279 7.68389 12.95 8.2933 11.9176 9.3228L5.87404 15.3664C4.77404 16.4685 4.15625 17.9621 4.15625 19.5192C4.15625 21.0764 4.77404 22.5699 5.87404 23.6721L6.22572 24.0254C7.32952 25.1223 8.82245 25.7379 10.3786 25.7379C11.9347 25.7379 13.4277 25.1223 14.5315 24.0254L20.575 17.9802C21.6678 16.8821 22.2836 15.3974 22.2889 13.8483C22.2942 12.2991 21.6887 10.8102 20.6035 9.70458C20.6186 9.6895 20.6329 9.67363 20.6463 9.65706C21.7885 8.04438 22.5061 7.65943 22.9069 7.61824C23.3473 7.57547 23.7243 7.89706 24.2931 8.4325C24.8966 8.99963 25.5794 9.6428 26.5616 9.55092C27.5121 9.45904 28.4816 8.67805 29.6269 7.0923C29.6696 7.03324 29.7002 6.96634 29.7171 6.89543C29.7339 6.82451 29.7366 6.75098 29.7249 6.67903C29.7133 6.60708 29.6876 6.53813 29.6493 6.47612C29.611 6.41411 29.5609 6.36026 29.5018 6.31765V6.31765ZM13.7473 23.2412C12.8515 24.1301 11.6406 24.629 10.3786 24.629C9.11657 24.629 7.90571 24.1301 7.00988 23.2412L6.65345 22.8879C5.76346 21.9943 5.26378 20.7844 5.26378 19.5232C5.26378 18.262 5.76346 17.0521 6.65345 16.1584L9.62216 13.1866L16.7921 20.198L13.7473 23.2412ZM19.7909 17.1961L17.5731 19.4139L10.4063 12.4024L12.7018 10.107C13.5962 9.21533 14.8076 8.71465 16.0705 8.71465C17.3334 8.71465 18.5448 9.21533 19.4392 10.107L19.7909 10.4555C20.6806 11.3509 21.1799 12.5619 21.1799 13.8242C21.1799 15.0865 20.6806 16.2975 19.7909 17.1929V17.1961Z"/>
<path d="M15.4471 15.8495C15.1182 15.8491 14.7968 15.7513 14.5235 15.5684C14.2501 15.3855 14.037 15.1258 13.9111 14.8219C13.7852 14.5181 13.7521 14.1838 13.816 13.8611C13.8799 13.5385 14.0379 13.242 14.2701 13.0091L16.5259 10.7533C16.6804 10.5988 16.8638 10.4763 17.0656 10.3927C17.2674 10.3091 17.4837 10.2661 17.7022 10.2661C17.9206 10.2661 18.1369 10.3091 18.3388 10.3927C18.5406 10.4763 18.724 10.5988 18.8784 10.7533C19.0329 10.9077 19.1554 11.0911 19.239 11.2929C19.3226 11.4947 19.3656 11.7111 19.3656 11.9295C19.3656 12.148 19.3226 12.3643 19.239 12.5661C19.1554 12.7679 19.0329 12.9513 18.8784 13.1057L16.6226 15.3663C16.4682 15.5204 16.2849 15.6424 16.0831 15.7253C15.8814 15.8083 15.6652 15.8505 15.4471 15.8495ZM17.703 11.3758C17.6303 11.375 17.5581 11.3886 17.4907 11.4158C17.4233 11.443 17.3619 11.4832 17.3101 11.5343L15.0495 13.7933C14.997 13.845 14.9553 13.9067 14.9269 13.9746C14.8984 14.0426 14.8838 14.1156 14.8838 14.1893C14.8838 14.263 14.8984 14.336 14.9269 14.404C14.9553 14.472 14.997 14.5336 15.0495 14.5853C15.1556 14.6883 15.2977 14.7459 15.4456 14.7459C15.5934 14.7459 15.7355 14.6883 15.8416 14.5853L18.0974 12.3295C18.1763 12.2522 18.2303 12.1532 18.2525 12.045C18.2747 11.9368 18.2642 11.8245 18.2221 11.7224C18.1801 11.6203 18.1085 11.533 18.0166 11.4719C17.9247 11.4107 17.8166 11.3784 17.7061 11.379L17.703 11.3758Z"/>
</svg>
