<svg width="32" height="32" viewBox="0 0 32 32" xmlns="http://www.w3.org/2000/svg">
<g clip-path="url(#clip0_9220_24960)">
<path d="M24.1157 6.73276C24.1147 6.65496 24.0939 6.57863 24.0551 6.51073C24.0164 6.44284 23.9609 6.38553 23.8938 6.34404C23.8306 6.2985 23.7562 6.27019 23.6783 6.262C23.6003 6.25381 23.5215 6.26602 23.45 6.29739L12.7664 10.2002C12.6744 10.2321 12.5946 10.291 12.5379 10.3689C12.4812 10.4468 12.4503 10.5399 12.4494 10.6356V20.9913C11.9511 20.5583 11.3079 20.3203 10.6424 20.3227C10.0969 20.3227 9.56361 20.4813 9.11005 20.7786C8.65649 21.0759 8.30298 21.4985 8.09422 21.9928C7.88547 22.4872 7.83085 23.0312 7.93727 23.556C8.0437 24.0808 8.30638 24.5629 8.6921 24.9413C9.07782 25.3197 9.56927 25.5774 10.1043 25.6817C10.6393 25.7861 11.1939 25.7326 11.6978 25.5278C12.2018 25.323 12.6325 24.9762 12.9356 24.5313C13.2387 24.0864 13.4004 23.5633 13.4004 23.0282V14.3207L23.1646 10.6978V15.6735C22.6616 15.2382 22.0126 15.0002 21.3418 15.0049C20.797 15.0079 20.2653 15.1692 19.8138 15.4684C19.3623 15.7675 19.0113 16.1911 18.805 16.6858C18.5987 17.1804 18.5463 17.7239 18.6545 18.2477C18.7627 18.7715 19.0266 19.2521 19.413 19.6289C19.7993 20.0058 20.2908 20.2619 20.8254 20.365C21.3599 20.4682 21.9137 20.4137 22.4167 20.2085C22.9198 20.0033 23.3496 19.6565 23.652 19.2119C23.9543 18.7673 24.1157 18.2449 24.1157 17.7104C24.1183 17.6168 24.113 17.5232 24.0999 17.4305C24.1129 17.3957 24.1183 17.3587 24.1157 17.3217V6.73276ZM10.6424 24.8008C10.285 24.8008 9.93559 24.6968 9.63843 24.5021C9.34127 24.3073 9.10966 24.0304 8.97289 23.7065C8.83612 23.3826 8.80034 23.0262 8.87006 22.6824C8.93978 22.3385 9.11189 22.0227 9.3646 21.7748C9.61732 21.5269 9.9393 21.3581 10.2898 21.2897C10.6403 21.2213 11.0037 21.2564 11.3339 21.3905C11.6641 21.5247 11.9463 21.7519 12.1448 22.0434C12.3434 22.3349 12.4494 22.6776 12.4494 23.0282C12.4494 23.4983 12.259 23.9492 11.9201 24.2816C11.5812 24.614 11.1216 24.8008 10.6424 24.8008V24.8008ZM13.4004 13.3256V10.9621L23.1646 7.40138V9.68709L13.4004 13.3256ZM21.3418 19.483C20.9851 19.4799 20.6373 19.3734 20.3422 19.1767C20.0471 18.9801 19.818 18.7022 19.6837 18.3781C19.5493 18.0539 19.5158 17.698 19.5873 17.3552C19.6588 17.0123 19.8321 16.698 20.0855 16.4516C20.3388 16.2053 20.6608 16.038 21.0109 15.9708C21.361 15.9037 21.7235 15.9397 22.0528 16.0743C22.382 16.2089 22.6633 16.4361 22.8612 16.7272C23.059 17.0184 23.1646 17.3605 23.1646 17.7104C23.1647 17.9445 23.1174 18.1763 23.0256 18.3924C22.9338 18.6084 22.7993 18.8046 22.6298 18.9694C22.4603 19.1342 22.2592 19.2644 22.0382 19.3526C21.8171 19.4407 21.5804 19.4851 21.3418 19.483V19.483Z"/>
</g>
<defs>
<clipPath>
<rect width="16.3265" height="19.5918" transform="translate(7.83679 6.2041)"/>
</clipPath>
</defs>
</svg>
