<svg width="32" height="32" viewBox="0 0 32 32" xmlns="http://www.w3.org/2000/svg">
<path d="M2.93072 30.7739H2.92755V30.7754H2.9323L2.93072 30.7739ZM2.91329 30.777H2.91171V30.7786H2.91012V30.7802H2.91329V30.777V30.777ZM2.94181 30.7786L2.94339 30.777L2.94181 30.7754V30.7739H2.93864V30.7802H2.94181V30.7786V30.7786ZM2.94497 30.7929H2.94339V30.7944H2.94656V30.7929H2.94497V30.7929ZM2.90379 30.7739H2.90062L2.89903 30.7754H2.90379V30.7739ZM2.89745 30.7929H2.8927V30.7976H2.89745V30.7929ZM2.95923 30.7786V30.7754L2.95765 30.7739H2.95606V30.7754H2.95448V30.7786H2.95606V30.7802H2.95765L2.95923 30.7786ZM3.03527 30.7929H3.03052V30.7976H3.03527V30.7929ZM3.04953 30.7929H3.04636V30.7944H3.05111L3.04953 30.7929ZM3.02894 30.7802H3.0321V30.777H3.03052L3.02894 30.7786V30.7802V30.7802ZM3.01626 30.7897H3.01151V30.7929H3.01626V30.7897ZM3.05745 30.7786V30.7802H3.06062V30.7739H3.05745V30.7786ZM3.01626 30.777H3.01468L3.01309 30.7786V30.7802H3.01626V30.777V30.777ZM2.97666 30.7929H2.97349V30.7944L2.97191 30.796H2.97349V30.7976H2.97666V30.7929V30.7929ZM3.11765 30.777H3.11606L3.11448 30.7786V30.7802H3.11765V30.777V30.777ZM3.08438 30.777H3.0828V30.7786H3.08121L3.0828 30.7802H3.08438L3.08596 30.7786V30.777H3.08438ZM3.15725 30.7754V30.7739H3.15408V30.7802H3.15725V30.7754ZM2.8927 30.777H2.89428V30.7739H2.89745V30.7723H2.89428L2.8927 30.7739V30.7723H2.89111V30.7818H2.8927V30.777ZM2.9228 30.7818H2.92438V30.7802H2.9228V30.7739H2.92438V30.7723H2.9228V30.7691H2.91963V30.7723H2.91804V30.7739H2.91963V30.7818H2.9228V30.7818ZM2.93389 30.7786C2.93389 30.7786 2.93389 30.7802 2.93389 30.7786V30.7786ZM2.94339 30.7802V30.7675V30.7802ZM2.95923 30.7818H2.95131V30.7944L2.95923 30.7818ZM2.97032 30.7723V30.7818V30.7707V30.7723ZM2.98299 30.7739H2.98458V30.7723H2.98141V30.7739V30.7723H2.97824V30.7818H2.98141V30.7754L2.98299 30.7739V30.7739ZM2.98616 30.7723H2.98933V30.7818H2.98616V30.7723ZM2.98616 30.7691H2.98933V30.7707H2.98616V30.7691ZM3.00676 30.7754L3.00993 30.7723H3.00676L3.00359 30.7754V30.7691H3.00042V30.7818H3.00359V30.777L3.00676 30.7818H3.00993L3.00676 30.7754V30.7754ZM3.04319 30.7818H3.02735V30.7913L3.04319 30.7818ZM3.05587 30.7802H3.06379V30.7929L3.05587 30.7802ZM3.06537 30.7723H3.06854V30.7818H3.06537V30.7723ZM3.06537 30.7691H3.06854V30.7707H3.06537V30.7691ZM3.07488 30.7786V30.7881V30.777V30.7786ZM3.10973 30.7723H3.09547V30.7818L3.10973 30.7723ZM3.13191 30.7723V30.7849V30.777V30.7849V30.7723ZM3.13824 30.7691V30.777V30.7691Z"/>
<path d="M3.14627 30.777H3.15577V30.7675L3.14627 30.777ZM3.15735 30.7738V30.7612V30.7738ZM3.16211 30.7723H3.16528V30.7818H3.16211V30.7723ZM3.16211 30.7691H3.16528V30.7707H3.16211V30.7691ZM3.17636 30.7723H3.16844V30.7818V30.7738V30.7818L3.17636 30.7723ZM2.88013 30.7865V30.7944V30.7865ZM2.88805 30.7913H2.88646V30.7929V30.7913H2.8833V30.8008H2.88646V30.7929H2.88963V30.7913L2.88805 30.7897V30.7913V30.7913ZM2.89914 30.7913H2.88963H2.89914ZM2.91498 30.7913H2.90231V30.8008L2.91498 30.7913ZM2.92607 30.7881H2.92448V30.7913H2.9229V30.7929H2.92448V30.7992L2.92607 30.8008H2.92924V30.7976H2.92607V30.7929H2.92924V30.7913H2.92607V30.7881V30.7881ZM2.93874 30.7913V30.8055V30.7913ZM2.94983 30.7944H2.94032H2.94983ZM2.96567 30.796L2.95933 30.7865H2.95617V30.8008H2.95933V30.7913L2.96567 30.8008H2.96884V30.7865H2.96567V30.796ZM2.97834 30.7913H2.97042H2.97993H2.97834ZM2.98785 30.796H2.99735V30.7865L2.98785 30.796Z"/>
<path d="M3.0006 30.7913H2.99268V30.8008L3.0006 30.7913ZM3.01802 30.7881H3.0101V30.8024L3.01802 30.7881ZM3.02594 30.7913H3.02436V30.7929V30.7913H3.02119V30.8008H3.02436V30.7929H3.02753V30.7897L3.02594 30.7913V30.7913ZM3.03703 30.7913H3.02753H3.03703ZM3.0402 30.7865H3.04337V30.7881H3.0402V30.7865ZM3.0402 30.8008V30.7913V30.8008ZM3.05287 30.7945H3.04495H3.05287ZM3.06872 30.7881H3.06713V30.7913H3.06555V30.7929H3.06713V30.7992L3.06872 30.8008H3.07188V30.7976H3.06872V30.7929H3.07188V30.7913H3.06872V30.7881V30.7881ZM27.1543 19.0828C27.7282 17.0145 27.7134 14.8271 27.1115 12.7667C27.6085 12.3811 27.9508 11.8302 28.0763 11.2138C28.2018 10.5974 28.1022 9.95646 27.7956 9.40723C27.4889 8.858 26.9956 8.43687 26.4051 8.22024C25.8145 8.00362 25.1659 8.00585 24.5768 8.22654C22.9963 6.48236 20.9219 5.26114 18.6299 4.72555C18.593 4.05409 18.3003 3.42229 17.8119 2.96001C17.3235 2.49773 16.6766 2.24011 16.0042 2.24011C15.3317 2.24011 14.6848 2.49773 14.1964 2.96001C13.708 3.42229 13.4153 4.05409 13.3784 4.72555C11.0763 5.26266 8.99346 6.49091 7.40931 8.24555C6.81505 8.00725 6.15427 7.99395 5.55089 8.20813C4.94752 8.42231 4.44302 8.84926 4.132 9.4089C3.82098 9.96854 3.72481 10.6224 3.86154 11.2479C3.99827 11.8734 4.3585 12.4275 4.87466 12.8063C4.28702 14.8413 4.27277 16.999 4.83347 19.0416C4.39607 19.3751 4.07428 19.8374 3.91337 20.3634C3.75247 20.8894 3.76055 21.4526 3.93649 21.9738C4.11242 22.4949 4.44735 22.9478 4.89414 23.2687C5.34093 23.5895 5.87707 23.7622 6.42713 23.7624C6.72127 23.7619 7.0132 23.7116 7.2905 23.6135C8.88533 25.4395 11.013 26.7189 13.3737 27.2713C13.4225 27.9338 13.7202 28.5534 14.207 29.0056C14.6937 29.4577 15.3335 29.709 15.9978 29.709C16.6622 29.709 17.3019 29.4577 17.7887 29.0056C18.2754 28.5534 18.5731 27.9338 18.622 27.2713C20.9747 26.7186 23.0959 25.4447 24.6893 23.6277C24.9524 23.7157 25.2278 23.7612 25.5052 23.7624C26.05 23.7629 26.5815 23.5943 27.0264 23.2799C27.4713 22.9654 27.8076 22.5206 27.989 22.0069C28.1703 21.4931 28.1877 20.9358 28.0388 20.4117C27.8898 19.8877 27.5819 19.4228 27.1574 19.0812L27.1543 19.0828ZM25.5052 22.6535C25.2038 22.6532 24.9093 22.5635 24.6589 22.3959C24.4085 22.2282 24.2134 21.9901 24.0983 21.7116C23.9832 21.4331 23.9533 21.1267 24.0123 20.8312C24.0712 20.5357 24.2165 20.2643 24.4297 20.0513C24.6429 19.8384 24.9144 19.6934 25.21 19.6347C25.5056 19.576 25.8119 19.6063 26.0903 19.7217C26.3687 19.8371 26.6066 20.0324 26.774 20.283C26.9414 20.5336 27.0307 20.8282 27.0307 21.1295C27.0299 21.5337 26.8688 21.9211 26.5829 22.2067C26.2969 22.4924 25.9093 22.653 25.5052 22.6535ZM26.4683 16C26.47 16.87 26.3636 17.7368 26.1515 18.5806C25.9417 18.5278 25.7262 18.5007 25.5099 18.4998C25.1018 18.5002 24.6994 18.5956 24.3345 18.7785C23.9696 18.9613 23.6523 19.2266 23.4077 19.5533L19.902 17.5287C20.2811 16.5623 20.2874 15.4895 19.9194 14.5188L23.5376 12.4309C23.8497 12.7891 24.2537 13.0552 24.7059 13.2007C25.1582 13.3461 25.6416 13.3653 26.104 13.2562C26.3458 14.1507 26.4672 15.0734 26.4652 16H26.4683ZM17.521 27.0891C17.521 27.3905 17.4316 27.6852 17.2642 27.9358C17.0967 28.1864 16.8587 28.3817 16.5802 28.4971C16.3018 28.6124 15.9953 28.6426 15.6997 28.5838C15.4041 28.525 15.1326 28.3798 14.9194 28.1667C14.7063 27.9536 14.5612 27.682 14.5024 27.3864C14.4436 27.0908 14.4737 26.7844 14.5891 26.5059C14.7044 26.2275 14.8998 25.9894 15.1504 25.822C15.401 25.6545 15.6956 25.5652 15.997 25.5652C16.1972 25.5652 16.3953 25.6046 16.5802 25.6812C16.7651 25.7577 16.9331 25.87 17.0746 26.0115C17.2161 26.153 17.3284 26.321 17.405 26.5059C17.4816 26.6908 17.521 26.889 17.521 27.0891V27.0891ZM16.0002 19.0764C15.3912 19.0771 14.7957 18.897 14.2891 18.5591C13.7825 18.2212 13.3875 17.7406 13.1541 17.1782C12.9207 16.6157 12.8593 15.9966 12.9779 15.3993C13.0964 14.802 13.3895 14.2532 13.82 13.8225C14.2505 13.3918 14.7991 13.0984 15.3963 12.9796C15.9936 12.8607 16.6127 12.9217 17.1753 13.1549C17.7379 13.388 18.2187 13.7827 18.5569 14.2892C18.895 14.7956 19.0754 15.391 19.0751 16C19.0738 16.8153 18.7495 17.5968 18.1732 18.1734C17.5968 18.7501 16.8155 19.0748 16.0002 19.0764V19.0764ZM14.4731 4.87763C14.4731 4.57635 14.5624 4.28183 14.7297 4.03129C14.897 3.78074 15.1348 3.58541 15.4131 3.46998C15.6914 3.35454 15.9976 3.32417 16.2932 3.38272C16.5887 3.44127 16.8603 3.58609 17.0735 3.79891C17.2868 4.01172 17.4322 4.28297 17.4913 4.57838C17.5505 4.87379 17.5208 5.18011 17.4059 5.45863C17.291 5.73715 17.0962 5.97538 16.846 6.14321C16.5958 6.31105 16.3015 6.40096 16.0002 6.40159C15.7999 6.40179 15.6014 6.36254 15.4163 6.28607C15.2311 6.20959 15.0628 6.0974 14.921 5.95588C14.7792 5.81437 14.6667 5.64631 14.5898 5.46131C14.5129 5.2763 14.4733 5.07796 14.4731 4.87763V4.87763ZM27.0275 10.6867C27.0278 10.9887 26.9386 11.2839 26.771 11.535C26.6034 11.7862 26.3651 11.982 26.0861 12.0976C25.8072 12.2132 25.5003 12.2434 25.2042 12.1845C24.9081 12.1256 24.6361 11.9801 24.4227 11.7665C24.2093 11.5529 24.0641 11.2808 24.0055 10.9846C23.9468 10.6884 23.9774 10.3815 24.0933 10.1027C24.2092 9.82389 24.4053 9.58576 24.6566 9.41844C24.9079 9.25113 25.2032 9.16215 25.5052 9.16277C25.9088 9.16403 26.2955 9.32504 26.5808 9.61061C26.8661 9.89619 27.0267 10.2831 27.0275 10.6867V10.6867ZM23.6263 8.84277C23.2947 9.18105 23.0606 9.60274 22.9491 10.0632C22.8375 10.5236 22.8526 11.0056 22.9927 11.4582L19.3824 13.5382C19.045 13.0744 18.6161 12.6848 18.122 12.3935C17.628 12.1022 17.0794 11.9154 16.5103 11.8448V7.4598C16.9455 7.37225 17.3516 7.17641 17.691 6.89039C18.0305 6.60437 18.2924 6.23739 18.4525 5.82337C20.4344 6.30443 22.2326 7.35387 23.6263 8.84277V8.84277ZM13.5432 5.82337C13.6975 6.22458 13.9474 6.58205 14.2712 6.86475C14.5951 7.14744 14.983 7.34681 15.4014 7.44555V11.8543C14.8197 11.9383 14.2622 12.1436 13.765 12.4569C13.2678 12.7702 12.8419 13.1845 12.5151 13.6729L8.89842 11.5834C9.00369 11.2962 9.05732 10.9926 9.05683 10.6867C9.05912 10.0111 8.80031 9.36067 8.33446 8.87129C9.73467 7.36705 11.5459 6.30721 13.5432 5.82337V5.82337ZM4.90159 10.6867C4.90127 10.3849 4.99048 10.0898 5.15792 9.83876C5.32536 9.58767 5.5635 9.39189 5.84223 9.27619C6.12096 9.16048 6.42775 9.13004 6.72378 9.18873C7.01981 9.24741 7.29178 9.39258 7.50529 9.60587C7.7188 9.81916 7.86425 10.091 7.92325 10.3869C7.98224 10.6829 7.95212 10.9897 7.8367 11.2686C7.72128 11.5474 7.52575 11.7858 7.27484 11.9535C7.02393 12.1212 6.72892 12.2107 6.42713 12.2107C6.02281 12.2107 5.63502 12.0502 5.34897 11.7644C5.06292 11.4787 4.90201 11.0911 4.90159 10.6867V10.6867ZM5.53525 15.9984C5.53531 15.0754 5.65783 14.1565 5.89961 13.2657C6.07532 13.3014 6.25416 13.3195 6.43347 13.3196C6.7842 13.3202 7.13147 13.2504 7.45474 13.1143C7.778 12.9783 8.07068 12.7787 8.31545 12.5275L12.0271 14.6709C11.7232 15.5754 11.7389 16.5568 12.0715 17.4511L8.49921 19.5105C8.25416 19.1944 7.94004 18.9386 7.58089 18.7626C7.22174 18.5866 6.82709 18.495 6.42713 18.4951C6.2326 18.4955 6.0387 18.5173 5.84891 18.56C5.63687 17.7232 5.52939 16.8633 5.52891 16L5.53525 15.9984ZM6.43347 19.6071C6.73481 19.6074 7.0293 19.6971 7.2797 19.8647C7.53011 20.0324 7.72519 20.2705 7.84029 20.549C7.9554 20.8275 7.98535 21.1339 7.92637 21.4294C7.86739 21.7249 7.72212 21.9963 7.50893 22.2093C7.29573 22.4222 7.02419 22.5672 6.72861 22.6259C6.43304 22.6846 6.1267 22.6543 5.84832 22.5389C5.56995 22.4235 5.33203 22.2282 5.16465 21.9776C4.99726 21.727 4.90792 21.4324 4.90792 21.1311C4.90834 20.7279 5.06838 20.3412 5.35306 20.0556C5.63774 19.7701 6.0239 19.6088 6.42713 19.6071H6.43347ZM8.25367 23.0273C8.58775 22.7112 8.83197 22.312 8.96138 21.8706C9.0908 21.4292 9.10077 20.9614 8.9903 20.5149L12.599 18.4301C12.9359 18.9017 13.3669 19.2983 13.8647 19.595C14.3626 19.8916 14.9166 20.0819 15.4917 20.1537V24.5053C15.0502 24.5929 14.6385 24.7918 14.2955 25.0832C13.9526 25.3746 13.6898 25.7488 13.5321 26.1703C11.4957 25.6751 9.6547 24.5802 8.24733 23.0273H8.25367ZM18.4683 26.1703C18.3165 25.7636 18.0665 25.4007 17.7407 25.1139C17.4149 24.827 17.0232 24.625 16.6006 24.5259V20.1426C17.1465 20.0634 17.6714 19.8773 18.1452 19.5948C18.6191 19.3124 19.0325 18.9392 19.3618 18.4966L22.9388 20.556C22.8976 20.7428 22.8763 20.9335 22.8754 21.1248C22.8757 21.4875 22.9512 21.8462 23.0971 22.1783C23.2429 22.5104 23.4561 22.8087 23.723 23.0543C22.3184 24.5933 20.4866 25.6783 18.462 26.1703H18.4683Z"/>
</svg>
