<svg width="32" height="32" viewBox="0 0 32 32" xmlns="http://www.w3.org/2000/svg">
<path d="M24.3176 22.2099H23.8521C23.3089 22.2099 22.921 22.0832 22.6727 21.8139C22.3468 21.4654 22.3778 20.9584 22.3778 20.9584V13.5921C22.3778 12.404 22.0209 8.90299 18.0638 7.95249V7.74655C18.0638 6.57427 17.1792 5.62378 16.0929 5.62378C15.0066 5.62378 14.1221 6.57427 14.1221 7.74655V7.92081C13.1289 8.15843 12.291 8.63368 11.6237 9.33071C9.88562 11.0733 9.8701 13.6555 9.8701 13.7664V20.5149C9.8701 22.0357 8.50449 22.1624 8.34931 22.1782L7.91479 22.2099V25.2673H13.5634C13.8117 26.3129 14.6652 27.105 15.6895 27.1525H15.8291C16.3723 27.1525 16.8844 26.9465 17.3034 26.5664C17.6758 26.2337 17.9396 25.7743 18.0482 25.2673H24.3176V22.2099V22.2099ZM15.0532 7.73071C15.0532 7.0812 15.5188 6.55843 16.0929 6.55843C16.6671 6.55843 17.1327 7.0812 17.1327 7.73071V7.77823C16.7292 7.73071 16.3102 7.69903 15.8446 7.69903C15.5653 7.69903 15.3015 7.71487 15.0532 7.73071V7.73071ZM16.6826 25.8535C16.4188 26.0911 16.0929 26.2178 15.7515 26.202C15.2239 26.1703 14.7584 25.7901 14.5566 25.2673H17.0861C16.9775 25.4891 16.8533 25.6951 16.6826 25.8535V25.8535ZM23.3865 24.3168H8.84589V23.0654C9.68388 22.8594 10.8012 22.1624 10.8012 20.5149V13.7664C10.8012 13.5604 10.8633 8.64952 15.8446 8.64952C20.9036 8.64952 21.4467 12.0871 21.4467 13.5763V20.8951C21.4467 21.0535 21.4312 21.8297 21.9899 22.4475C22.3313 22.8277 22.7968 23.0495 23.3865 23.1287V24.3168V24.3168Z"/>
<path d="M24.3177 20.705L23.6348 20.0555C23.7745 19.897 23.8831 19.7228 23.9452 19.5485C24.2556 18.7248 23.9142 17.7901 23.1848 17.4416L23.5728 16.5703C24.7677 17.1248 25.3263 18.5822 24.8298 19.8812C24.7056 20.198 24.5349 20.4673 24.3177 20.705V20.705Z"/>
<path d="M25.885 21.5604L25.2178 20.9108C25.466 20.6415 25.6678 20.3089 25.8074 19.9604C26.4127 18.392 25.7454 16.6019 24.3332 15.9366L24.7212 15.0653C26.5989 15.9366 27.4679 18.2811 26.692 20.293C26.4903 20.7524 26.2109 21.196 25.885 21.5604ZM7.66657 20.8158C7.44932 20.5782 7.27861 20.293 7.16999 19.992C6.6734 18.7247 7.24758 17.2514 8.42697 16.697L8.81492 17.5683C8.08557 17.9009 7.72864 18.8356 8.05453 19.6594C8.13212 19.8495 8.22523 20.0237 8.36489 20.1821L7.66657 20.8158Z"/>
<path d="M6.09912 21.6713C5.77324 21.307 5.49391 20.8792 5.32321 20.404C4.53178 18.3921 5.41632 16.0476 7.29403 15.1763L7.68199 16.0476C6.25431 16.7129 5.58702 18.503 6.19223 20.0713C6.3319 20.4357 6.53363 20.7683 6.78193 21.0218L6.09912 21.6713Z"/>
</svg>
