<svg width="32" height="32" viewBox="0 0 32 32" xmlns="http://www.w3.org/2000/svg">
<g clip-path="url(#clip0_9220_24976)">
<path d="M18.4971 6.14652C18.4971 6.5747 18.3734 6.99326 18.1416 7.34927C17.9098 7.70529 17.5804 7.98277 17.1949 8.14663C16.8095 8.31048 16.3854 8.35335 15.9762 8.26982C15.567 8.18629 15.1911 7.9801 14.8961 7.67733C14.6011 7.37457 14.4002 6.98882 14.3188 6.56887C14.2374 6.14892 14.2792 5.71363 14.4389 5.31805C14.5985 4.92247 14.8689 4.58436 15.2158 4.34647C15.5627 4.10859 15.9705 3.98162 16.3877 3.98162C16.9471 3.98162 17.4837 4.20971 17.8793 4.61571C18.2748 5.0217 18.4971 5.57235 18.4971 6.14652V6.14652ZM22.0489 7.97713L21.6922 5.71672C21.6798 5.63229 21.6353 5.55634 21.5684 5.50559C21.5015 5.45484 21.4177 5.43345 21.3354 5.44611C21.2532 5.45878 21.1792 5.50447 21.1297 5.57313C21.0803 5.64179 21.0594 5.7278 21.0718 5.81224L21.3044 7.30856C20.8226 7.00571 20.3198 6.73969 19.7999 6.51264L19.133 6.25795V6.1306C19.1577 5.37912 18.8905 4.64835 18.3902 4.09906C17.8899 3.54977 17.1975 3.22695 16.4652 3.20162C15.733 3.17629 15.021 3.45052 14.4858 3.96399C13.9506 4.47746 13.636 5.1881 13.6114 5.93958C13.0217 6.06196 12.445 6.24323 11.8897 6.48081C11.8236 6.52135 11.7745 6.58572 11.752 6.66139C11.7295 6.73706 11.7353 6.81859 11.7682 6.89012C11.8011 6.96164 11.8588 7.01804 11.93 7.04831C12.0012 7.07858 12.0809 7.08056 12.1534 7.05387C12.6369 6.85937 13.1348 6.705 13.6424 6.59223C13.7499 7.22547 14.0629 7.80278 14.5305 8.23038C14.9982 8.65799 15.5929 8.91076 16.2182 8.94764C16.8434 8.98452 17.4625 8.80334 17.9748 8.43354C18.487 8.06373 18.8624 7.52702 19.0399 6.9106C19.7444 7.16484 20.4204 7.4957 21.0563 7.89754L19.4897 8.31142C19.4124 8.33381 19.3465 8.38615 19.306 8.45742C19.2655 8.52869 19.2535 8.61331 19.2726 8.69346C19.2815 8.73392 19.2985 8.77206 19.3224 8.80551C19.3463 8.83897 19.3766 8.86702 19.4115 8.88792C19.4464 8.90882 19.4852 8.92213 19.5253 8.92701C19.5654 8.9319 19.6061 8.92826 19.6448 8.91632L21.8008 8.34326C21.8458 8.33396 21.8885 8.31497 21.9259 8.28753C21.9634 8.2601 21.9947 8.22484 22.0179 8.18407C22.0421 8.15642 22.058 8.12211 22.0635 8.08535C22.069 8.04859 22.0639 8.01098 22.0489 7.97713"/>
<path d="M26.2056 15.9364C25.8069 16.0622 25.3807 16.0639 24.981 15.9412C24.5814 15.8185 24.2261 15.577 23.9602 15.2471C23.6943 14.9172 23.5296 14.5137 23.4871 14.0878C23.4446 13.6619 23.5261 13.2326 23.7213 12.8542C23.9164 12.4758 24.2166 12.1653 24.5837 11.962C24.9508 11.7586 25.3685 11.6716 25.7838 11.7118C26.1991 11.7521 26.5935 11.9178 26.9171 12.1881C27.2406 12.4584 27.4788 12.821 27.6015 13.2302C27.7619 13.7791 27.7054 14.3706 27.4441 14.877C27.1829 15.3834 26.738 15.7639 26.2056 15.9364V15.9364ZM25.5232 19.9637L27.524 18.9449C27.5607 18.9261 27.5934 18.9001 27.6202 18.8683C27.6471 18.8365 27.6676 18.7996 27.6805 18.7597C27.6935 18.7198 27.6987 18.6776 27.6958 18.6357C27.6928 18.5937 27.6819 18.5528 27.6636 18.5151C27.6453 18.4775 27.6199 18.4439 27.5889 18.4164C27.558 18.3888 27.522 18.3678 27.4831 18.3545C27.4442 18.3412 27.4032 18.3359 27.3623 18.3388C27.3214 18.3418 27.2815 18.353 27.2448 18.3719L25.9109 19.0404C26.0568 18.477 26.1554 17.9019 26.2056 17.3213L26.2522 16.589L26.3762 16.5572C27.0838 16.3609 27.6863 15.8841 28.0514 15.2318C28.4164 14.5796 28.5141 13.8052 28.3228 13.079C28.1315 12.3529 27.667 11.7344 27.0314 11.3598C26.3959 10.9851 25.6413 10.8849 24.9338 11.0813C24.643 10.5419 24.3056 10.0305 23.9256 9.55309C23.8972 9.52571 23.8638 9.50439 23.8273 9.49035C23.7908 9.47632 23.7519 9.46986 23.713 9.47134C23.6741 9.47282 23.6358 9.48221 23.6004 9.49898C23.565 9.51574 23.5332 9.53955 23.5068 9.56901C23.4546 9.6224 23.4215 9.69242 23.4131 9.7676C23.4046 9.84278 23.4213 9.91868 23.4603 9.98289C23.7815 10.4004 24.0719 10.8421 24.3289 11.3041C23.7625 11.587 23.3075 12.0602 23.0392 12.6452C22.771 13.2301 22.7057 13.8916 22.8542 14.5198C23.0027 15.1481 23.3561 15.7053 23.8557 16.0991C24.3552 16.4928 24.971 16.6994 25.6007 16.6845C25.573 17.449 25.4585 18.2076 25.2595 18.9449L24.4064 17.5282C24.3621 17.46 24.2938 17.412 24.2157 17.3942C24.1377 17.3764 24.056 17.3902 23.9877 17.4327C23.9214 17.4783 23.8738 17.5472 23.8538 17.6264C23.8338 17.7056 23.8428 17.7896 23.8791 17.8625L25.0424 19.8045C25.0613 19.8455 25.0894 19.8814 25.1245 19.909C25.1595 19.9367 25.2005 19.9555 25.244 19.9637C25.3991 20.0274 25.4766 20.0115 25.5232 19.9637"/>
<path d="M19.5363 26.3628C19.3737 26.1308 19.2578 25.8677 19.1954 25.5891C19.133 25.3105 19.1255 25.0219 19.1731 24.7402C19.2208 24.4586 19.3228 24.1895 19.473 23.9488C19.6233 23.7081 19.8188 23.5005 20.0482 23.3384C20.5068 23.0069 21.075 22.8761 21.6276 22.9746C22.1803 23.0731 22.6722 23.3929 22.9951 23.8637C23.318 24.3344 23.4455 24.9175 23.3495 25.4847C23.2535 26.0519 22.9419 26.5567 22.4833 26.8881C22.2571 27.0551 22.0008 27.174 21.7294 27.238C21.4579 27.302 21.1767 27.3098 20.9023 27.2609C20.6278 27.212 20.3657 27.1073 20.1311 26.9531C19.8966 26.7989 19.6944 26.5983 19.5363 26.3628V26.3628ZM15.5812 26.9677L17.1322 28.6073C17.1612 28.6386 17.1961 28.6636 17.2348 28.6806C17.2734 28.6976 17.3151 28.7064 17.3571 28.7064C17.3992 28.7064 17.4409 28.6976 17.4795 28.6806C17.5182 28.6636 17.5531 28.6386 17.582 28.6073C17.6121 28.579 17.6362 28.5446 17.6526 28.5062C17.669 28.4678 17.6775 28.4264 17.6775 28.3845C17.6775 28.3426 17.669 28.3011 17.6526 28.2628C17.6362 28.2244 17.6121 28.1899 17.582 28.1616L16.5429 27.0632C17.1118 27.0307 17.6771 26.9508 18.2335 26.8245C18.4651 26.7777 18.6932 26.7139 18.9159 26.6335L18.978 26.7449C19.377 27.376 20.0039 27.8187 20.7209 27.9754C21.4379 28.1321 22.1862 27.9901 22.8012 27.5806C23.4162 27.1711 23.8475 26.5276 24.0002 25.7917C24.1529 25.0559 24.0145 24.2879 23.6155 23.6567C24.0268 23.211 24.3956 22.726 24.7167 22.2081C24.8098 22.0808 24.7012 21.8739 24.5927 21.7943C24.5267 21.758 24.4507 21.7461 24.3773 21.7606C24.3038 21.7751 24.2375 21.8151 24.1894 21.8739C23.8998 22.317 23.5784 22.7374 23.2278 23.1314C22.7902 22.6646 22.21 22.3658 21.5838 22.2848C20.9576 22.2037 20.3233 22.3453 19.7865 22.6859C19.2496 23.0265 18.8427 23.5456 18.6335 24.1567C18.4243 24.7679 18.4255 25.4341 18.6367 26.0445C17.9187 26.2527 17.1797 26.3755 16.4343 26.4106L17.4735 25.153C17.5061 25.1228 17.5321 25.0859 17.5498 25.0446C17.5674 25.0033 17.5763 24.9586 17.5759 24.9135C17.5755 24.8684 17.5657 24.8239 17.5472 24.783C17.5288 24.742 17.5021 24.7056 17.4689 24.6761C17.4357 24.6465 17.3967 24.6246 17.3546 24.6116C17.3125 24.5987 17.2682 24.5951 17.2247 24.6011C17.1811 24.607 17.1393 24.6224 17.102 24.6462C17.0646 24.6701 17.0327 24.7017 17.0082 24.7392L15.5657 26.4743C15.5319 26.5063 15.5059 26.546 15.4897 26.5903C15.4736 26.6345 15.4677 26.682 15.4727 26.729C15.4931 26.8152 15.53 26.8963 15.5812 26.9677"/>
<path d="M7.73302 23.0996C7.97842 22.7533 8.31836 22.4896 8.70983 22.3416C9.1013 22.1936 9.52674 22.1681 9.93234 22.2683C10.3379 22.3685 10.7055 22.5898 10.9885 22.9044C11.2715 23.2189 11.4573 23.6125 11.5224 24.0355C11.5875 24.4584 11.5289 24.8916 11.354 25.2803C11.1792 25.6691 10.896 25.9959 10.5402 26.2195C10.1844 26.443 9.77202 26.5533 9.35517 26.5363C8.93832 26.5193 8.53573 26.3759 8.19832 26.1241C7.97425 25.9569 7.78446 25.746 7.6398 25.5035C7.49515 25.261 7.39845 24.9916 7.35524 24.7108C7.31203 24.4299 7.32316 24.143 7.38798 23.8666C7.45279 23.5902 7.57004 23.3295 7.73302 23.0996V23.0996ZM5.8873 19.4702L4.89465 21.5077C4.87632 21.5454 4.86539 21.5863 4.86248 21.6283C4.85957 21.6703 4.86475 21.7124 4.87771 21.7523C4.89067 21.7922 4.91117 21.8291 4.93803 21.8609C4.96488 21.8927 4.99758 21.9187 5.03424 21.9375C5.0709 21.9564 5.11082 21.9676 5.1517 21.9706C5.19259 21.9735 5.23365 21.9682 5.27254 21.9549C5.31142 21.9416 5.34738 21.9206 5.37834 21.893C5.40931 21.8655 5.43468 21.8319 5.45301 21.7943L6.11995 20.4253C6.33574 20.9637 6.58975 21.4851 6.87995 21.9853L7.26771 22.5902L7.19016 22.6857C6.73972 23.2789 6.53733 24.0314 6.6275 24.7777C6.71767 25.524 7.09302 26.203 7.67097 26.6653C8.24893 27.1276 8.98215 27.3353 9.70933 27.2428C10.4365 27.1502 11.0981 26.765 11.5485 26.1718C12.0976 26.4277 12.6688 26.6303 13.2546 26.7767C13.3321 26.7816 13.4085 26.7565 13.4688 26.7064C13.5291 26.6563 13.5689 26.5849 13.5804 26.5061C13.5952 26.4325 13.5828 26.3558 13.5455 26.291C13.5082 26.2263 13.4487 26.1781 13.3787 26.1559C12.8733 26.0263 12.3802 25.8505 11.9053 25.6306C12.1956 25.0544 12.2845 24.3935 12.1571 23.7581C12.0297 23.1228 11.6938 22.5515 11.2055 22.1398C10.7171 21.728 10.1059 21.5007 9.47392 21.4957C8.84192 21.4908 8.22741 21.7086 7.73302 22.1126C7.3004 21.4867 6.94607 20.8075 6.67832 20.091L8.18281 20.6959C8.221 20.7147 8.26252 20.7252 8.30483 20.7269C8.34713 20.7285 8.38932 20.7213 8.4288 20.7056C8.46828 20.6899 8.50421 20.6661 8.53438 20.6356C8.56455 20.6051 8.58831 20.5686 8.60422 20.5284C8.62013 20.4881 8.62783 20.4449 8.62686 20.4015C8.6259 20.358 8.61628 20.3153 8.59859 20.2758C8.58091 20.2363 8.55554 20.2009 8.52405 20.1719C8.49255 20.1429 8.4556 20.1208 8.41546 20.1069L6.3371 19.2792C6.29701 19.2554 6.25154 19.2429 6.20526 19.2429C6.15898 19.2429 6.11351 19.2554 6.07342 19.2792C5.99665 19.3257 5.93261 19.3914 5.8873 19.4702"/>
<path d="M7.1126 10.5878C7.50686 10.7278 7.85179 10.9848 8.10376 11.3261C8.35574 11.6673 8.50344 12.0776 8.52819 12.5051C8.55295 12.9325 8.45364 13.3579 8.24283 13.7274C8.03202 14.0969 7.71918 14.394 7.34387 14.581C6.96856 14.768 6.54763 14.8366 6.13433 14.7781C5.72103 14.7196 5.33391 14.5367 5.02194 14.2523C4.70997 13.968 4.48715 13.5952 4.38167 13.1809C4.27618 12.7666 4.29277 12.3295 4.42934 11.9249C4.61586 11.385 5.00187 10.9421 5.50395 10.6919C6.00603 10.4417 6.58387 10.4043 7.1126 10.5878V10.5878ZM9.95097 7.73837L7.76403 7.35633C7.68392 7.34237 7.60166 7.36123 7.53495 7.40886C7.46824 7.45648 7.4224 7.52908 7.4073 7.61103C7.39369 7.69325 7.41207 7.77767 7.45848 7.84614C7.50488 7.9146 7.57561 7.96165 7.65546 7.97715L9.11342 8.23184C8.67146 8.59774 8.26147 9.00254 7.88811 9.44164C7.73301 9.61674 7.57791 9.80776 7.43832 9.99878L7.32975 9.95103C6.64484 9.68083 5.8834 9.70094 5.21294 10.0069C4.54248 10.3129 4.01791 10.8797 3.75465 11.5827C3.49138 12.2856 3.51097 13.0671 3.80912 13.7552C4.10726 14.4433 4.65953 14.9816 5.34444 15.2518C5.26982 15.8642 5.24905 16.4822 5.2824 17.0984C5.2824 17.2576 5.48403 17.369 5.62362 17.3371C5.69665 17.3266 5.76403 17.291 5.81474 17.236C5.86545 17.1811 5.8965 17.1101 5.90281 17.0347C5.87958 16.5036 5.89514 15.9715 5.94934 15.4429C6.56947 15.5471 7.20573 15.4324 7.7541 15.1174C8.30246 14.8025 8.7305 14.3059 8.96822 13.7089C9.20594 13.1119 9.23929 12.4498 9.06282 11.8308C8.88634 11.2118 8.51048 10.6726 7.99669 10.3012C8.45478 9.69862 8.9806 9.15362 9.56322 8.67756L9.43914 10.3331C9.43486 10.3741 9.4388 10.4155 9.45072 10.4549C9.46263 10.4943 9.48226 10.5308 9.50841 10.5621C9.53456 10.5934 9.56667 10.6189 9.60276 10.637C9.63886 10.6551 9.67818 10.6654 9.71832 10.6674C9.75909 10.6717 9.80031 10.6678 9.83959 10.6558C9.87887 10.6437 9.91543 10.6238 9.94716 10.5971C9.97889 10.5705 10.0052 10.5377 10.0245 10.5005C10.0437 10.4634 10.0557 10.4227 10.0595 10.3808L10.2302 8.1045C10.2383 8.05877 10.2355 8.01169 10.222 7.96732C10.2085 7.92295 10.1847 7.88261 10.1526 7.8498C10.1312 7.81496 10.1014 7.78639 10.0661 7.76686C10.0307 7.74734 9.99109 7.73752 9.95097 7.73837"/>
</g>
<defs>
<clipPath>
<rect width="24.8163" height="25.4694" transform="translate(3.5918 3.26532)"/>
</clipPath>
</defs>
</svg>
