<svg width="32" height="32" viewBox="0 0 32 32" xmlns="http://www.w3.org/2000/svg">
<path d="M11.5961 10.6614C10.3921 10.6614 9.42578 11.6277 9.42578 12.8159C9.42578 14.004 10.3921 14.9703 11.5961 14.9703C12.8 14.9703 13.7664 14.004 13.7664 12.8159C13.7664 11.6277 12.7842 10.6614 11.5961 10.6614ZM11.5961 13.9406C10.9624 13.9406 10.4555 13.4337 10.4555 12.8159C10.4555 12.198 10.9624 11.6911 11.5961 11.6911C12.2297 11.6911 12.7367 12.198 12.7367 12.8159C12.7367 13.4337 12.2297 13.9406 11.5961 13.9406Z"/>
<path d="M26.5505 7.27127C26.5346 6.7485 26.0752 6.33662 25.5366 6.35246H16.3802C15.8257 6.35246 15.3822 6.78019 15.3822 7.30296V8.09504H6.51087C5.78216 8.09504 5.18018 8.68118 5.18018 9.40989V21.4812C5.18018 22.2099 5.78216 22.796 6.51087 22.796H12.6257C12.7366 23.6515 12.293 24.5228 11.501 24.9346H9.39404C9.10889 24.9346 8.88711 25.1723 8.88711 25.4416C8.88711 25.7109 9.12473 25.9485 9.39404 25.9485H21.0851C21.3703 25.9485 21.5921 25.7109 21.5921 25.4416C21.5921 25.1723 21.3544 24.9346 21.0851 24.9346H19.3267C18.5346 24.5228 18.0752 23.6515 18.1861 22.796H23.9683C24.697 22.796 25.299 22.2099 25.299 21.4812V14.5267H25.5208C26.0752 14.5267 26.5346 14.099 26.5346 13.5604V7.30296L26.5505 7.27127V7.27127ZM17.7901 24.9346H13.0534C13.5128 24.3168 13.7346 23.5564 13.6713 22.796H17.1723C17.1089 23.5723 17.3307 24.3327 17.7901 24.9346V24.9346ZM23.9841 21.7663H6.51087C6.35245 21.7663 6.20988 21.6396 6.20988 21.4812V19.802H24.2851V21.4812C24.2851 21.6396 24.1426 21.7663 23.9841 21.7663ZM8.8079 18.7723C9.06136 17.4891 10.202 16.5069 11.596 16.5069C12.9742 16.5069 14.1307 17.4891 14.3841 18.7723H8.8079V18.7723ZM24.2851 18.7723H15.4297C15.1762 16.903 13.5445 15.4772 11.596 15.4772C9.6475 15.4772 8.03166 16.9188 7.7782 18.7723H6.22572V9.42573C6.22572 9.26731 6.36829 9.14058 6.52671 9.14058H15.398V13.5921C15.398 14.1148 15.8416 14.5426 16.396 14.5426H16.6178L16.5861 16.5386L19.3267 14.5426H24.301V18.7723H24.2851ZM25.5208 13.497H18.9782L17.6317 14.4792L17.6475 13.497H16.4277V7.38217H25.5366V13.497H25.5208Z"/>
<path d="M17.394 8.12674H24.2376V9.15644H17.394V8.12674ZM17.394 9.72674H21.1485V10.7564H17.394V9.72674ZM17.394 11.3426H22.6851V12.3723H17.394V11.3426Z"/>
</svg>
