<svg width="32" height="32" viewBox="0 0 32 32" xmlns="http://www.w3.org/2000/svg">
<path d="M23.1385 4.05544C22.8436 4.03959 22.5798 4.27722 22.5798 4.59405C22.5643 4.89504 22.7971 5.16435 23.1075 5.16435L26.537 5.29108L18.4365 11.7069L13.4861 7.73068L5.16832 14.0673C4.93554 14.2574 4.87347 14.5901 5.05969 14.8436C5.16832 14.9861 5.3235 15.0653 5.4942 15.0653C5.60283 15.0653 5.72697 15.0337 5.82008 14.9544L13.4861 9.12474L18.452 13.101L27.4836 5.92474L27.3595 9.44157C27.3439 9.74256 27.5767 10.0119 27.8871 10.0119H27.9026C28.1975 10.0119 28.4302 9.77425 28.4457 9.47326L28.6475 4.22969L23.1385 4.05544V4.05544Z"/>
<path d="M19.8485 15.9684C19.4606 15.7466 18.995 15.7149 18.6071 15.8891C18.3278 15.4456 17.8622 15.1921 17.3967 15.1921H17.3811C17.1328 15.1921 16.869 15.2713 16.6363 15.4297C16.3569 15.1446 15.969 14.9862 15.5965 14.9703H15.581C15.4569 14.9703 15.3327 14.9862 15.2241 15.0179L15.2086 12.8951C15.1775 11.7545 14.4792 11.2476 13.8275 11.2476H13.8119C13.0826 11.2476 12.3377 11.8654 12.3377 12.8951L12.3532 19.8971V19.9921C12.2911 19.9129 12.2446 19.8179 12.1825 19.7386C11.717 19.0416 10.4755 18.6297 9.69959 19.1525L9.68407 19.1684C9.09437 19.6119 9.06334 20.4674 9.60648 21.4812C9.60648 21.4971 9.62199 21.5129 9.63751 21.5287L12.3532 25.7109C12.8808 26.7089 14.1689 27.5644 15.9379 27.5644C16.3725 27.5644 16.8535 27.5169 17.3501 27.3901C19.2744 26.9307 20.4848 25.6634 20.5314 24.0951L20.6555 19.6278V17.6159C20.6555 16.8555 20.3607 16.2693 19.8485 15.9684V15.9684ZM19.5692 19.5802L19.4451 24.0317C19.414 25.2832 18.2191 26.0119 17.1018 26.2812C15.6741 26.6139 13.9206 26.3287 13.2843 25.1248C13.2688 25.1089 13.2688 25.0931 13.2533 25.0773L10.5376 20.8951C10.2893 20.4357 10.2738 20.103 10.3203 20.0396C10.5531 19.9129 11.1118 20.0872 11.2825 20.3406C11.9032 21.2594 12.2601 21.8139 12.8343 21.6396C13.3929 21.4654 13.424 20.7684 13.424 19.8654L13.4085 12.8634C13.4085 12.499 13.6412 12.3406 13.8119 12.3406C14.0757 12.3406 14.0913 12.7684 14.0913 12.9109L14.1378 17.7901V18.0753C14.1378 18.3763 14.3706 18.6297 14.6654 18.6456H14.681C14.9758 18.6456 15.2241 18.408 15.2241 18.107L15.2396 16.6337C15.2396 16.4278 15.2862 16.0792 15.55 16.0792C15.7207 16.0792 15.969 16.2218 15.969 16.5862V16.8396L15.9535 18.0753C15.9535 18.3763 16.1862 18.6297 16.4966 18.6297C16.7914 18.6297 17.0397 18.3921 17.0397 18.0753L17.0553 16.7763C17.0708 16.6179 17.1173 16.2852 17.3501 16.2852C17.5208 16.2852 17.7536 16.4436 17.7381 16.7921V17.1248C17.7225 17.204 17.7225 17.2832 17.7225 17.3624V18.5188C17.7225 18.8198 17.9708 19.0733 18.2657 19.0733C18.5605 19.0733 18.8088 18.8198 18.8088 18.5188V17.1882C18.8399 17.0456 18.8864 16.9505 18.964 16.903C19.0416 16.8555 19.1502 16.8555 19.2433 16.9188C19.414 17.0139 19.5071 17.2515 19.5071 17.5684L19.5692 19.5802V19.5802Z"/>
</svg>
