<svg width="32" height="32" viewBox="0 0 32 32" xmlns="http://www.w3.org/2000/svg">
<path d="M24.5908 20.2392C24.6112 20.1823 24.622 20.1223 24.6225 20.0618V15.7323C24.6225 15.5852 24.5641 15.4442 24.4601 15.3402C24.3562 15.2362 24.2151 15.1778 24.0681 15.1778C24.0273 15.1863 23.9853 15.1863 23.9445 15.1778H16.499V11.962H18.8974V6.05624H12.998V11.962H15.3948V15.1778H7.94927C7.90487 15.178 7.86068 15.1838 7.81778 15.1953C7.67073 15.1953 7.5297 15.2537 7.42572 15.3577C7.32174 15.4616 7.26332 15.6027 7.26332 15.7497V20.0792C7.26418 20.1331 7.27327 20.1865 7.29026 20.2376H4.88867V26.1386H10.7944V20.2392H8.35323C8.36894 20.1878 8.37746 20.1345 8.37857 20.0808V16.2867H15.3948V20.2471H12.998V26.1386H18.9021V20.2392H16.5053V16.2788H23.5152V20.0539C23.5158 20.1144 23.5265 20.1743 23.5469 20.2313H21.1168V26.1386H27.0209V20.2392H24.5908ZM14.1069 7.16515H17.7932V10.8531H14.1069V7.16515ZM9.6855 25.0297H5.99758V21.3481H9.6855V25.0297ZM17.7932 25.0297H14.1069V21.3481H17.7932V25.0297ZM25.912 25.0297H22.2257V21.3481H25.912V25.0297Z"/>
</svg>
