<svg width="32" height="32" viewBox="0 0 32 32" xmlns="http://www.w3.org/2000/svg">
<path d="M16.0728 6.87681C13.2496 6.87423 10.5295 7.91559 8.45618 9.79269C8.44351 9.80355 8.42767 9.81286 8.415 9.82528L8.39599 9.85476C6.66951 11.433 5.49517 13.5044 5.0401 15.7743C4.58503 18.0442 4.87241 20.3969 5.86133 22.4975L6.01024 22.8079H26.1386L26.2875 22.4975C26.9681 21.0549 27.319 19.484 27.3156 17.8948C27.3122 14.9744 26.1268 12.1746 24.0192 10.1092C21.9117 8.04374 19.054 6.88132 16.0728 6.87681V6.87681ZM25.4273 21.7278H6.71995C6.19699 20.5148 5.92766 19.2115 5.92787 17.8948C5.92787 17.6636 5.93896 17.4292 5.95638 17.2073H7.6546C7.80165 17.2073 7.94268 17.1501 8.04666 17.0482C8.15064 16.9464 8.20906 16.8082 8.20906 16.6642C8.20906 16.5201 8.15064 16.382 8.04666 16.2801C7.94268 16.1783 7.80165 16.121 7.6546 16.121H6.10054C6.46084 14.182 7.40284 12.3921 8.80628 10.9798L9.98014 12.1204C10.0317 12.1722 10.0932 12.2134 10.1613 12.2415C10.2293 12.2696 10.3024 12.2841 10.3762 12.2841C10.45 12.2841 10.5231 12.2696 10.5911 12.2415C10.6591 12.2134 10.7207 12.1722 10.7722 12.1204C10.8757 12.0186 10.9338 11.8808 10.9338 11.7371C10.9338 11.5935 10.8757 11.4556 10.7722 11.3538L9.63005 10.235C11.288 8.88903 13.3417 8.09737 15.4914 7.9755V9.56768C15.4914 9.71173 15.5498 9.84988 15.6538 9.95173C15.7578 10.0536 15.8988 10.1108 16.0459 10.1108C16.1929 10.1108 16.334 10.0536 16.4379 9.95173C16.5419 9.84988 16.6003 9.71173 16.6003 9.56768V7.97705C18.8863 8.09714 21.0637 8.97022 22.7795 10.4547C24.4953 11.9392 25.6489 13.9479 26.053 16.1552H24.1298C23.9828 16.1552 23.8418 16.2124 23.7378 16.3143C23.6338 16.4161 23.5754 16.5543 23.5754 16.6983C23.5754 16.8424 23.6338 16.9805 23.7378 17.0824C23.8418 17.1842 23.9828 17.2415 24.1298 17.2415H26.1893C26.2035 17.4572 26.213 17.676 26.213 17.8948C26.2154 19.2111 25.9483 20.5145 25.4273 21.7278V21.7278Z"/>
<path d="M20.0981 11.7806L16.9298 14.8842C16.4947 14.6945 16.0086 14.6476 15.5441 14.7506C15.0796 14.8535 14.6615 15.1009 14.3522 15.4557C14.0429 15.8104 13.859 16.2537 13.828 16.7192C13.7969 17.1848 13.9203 17.6477 14.1797 18.0389C14.4392 18.4302 14.8208 18.7288 15.2677 18.8901C15.7145 19.0515 16.2027 19.0671 16.6593 18.9345C17.1159 18.8018 17.5165 18.5282 17.8014 18.1542C18.0862 17.7803 18.24 17.3262 18.2399 16.8597C18.2398 16.394 18.0852 15.9408 17.7995 15.5686L20.8791 12.5518C20.9311 12.5014 20.9724 12.4414 21.0008 12.3753C21.0291 12.3092 21.0439 12.2383 21.0443 12.1666C21.0446 12.0949 21.0306 12.0239 21.0029 11.9575C20.9753 11.8911 20.9345 11.8307 20.883 11.7798C20.8315 11.7288 20.7703 11.6883 20.7029 11.6606C20.6354 11.6328 20.563 11.6183 20.4898 11.618C20.4166 11.6176 20.3441 11.6314 20.2763 11.6585C20.2086 11.6856 20.1469 11.7255 20.0949 11.7759L20.0981 11.7806ZM16.0331 17.9351C15.8161 17.9336 15.6043 17.8692 15.4245 17.7501C15.2446 17.631 15.1047 17.4625 15.0224 17.2658C14.94 17.069 14.9189 16.8528 14.9616 16.6443C15.0044 16.4358 15.1091 16.2444 15.2626 16.094C15.4161 15.9436 15.6115 15.8411 15.8244 15.7992C16.0372 15.7573 16.2579 15.7781 16.4587 15.8587C16.6596 15.9394 16.8316 16.0764 16.9532 16.2526C17.0748 16.4288 17.1405 16.6362 17.1421 16.8488C17.1431 16.9918 17.1151 17.1335 17.0598 17.2658C17.0044 17.398 16.9228 17.5182 16.8196 17.6193C16.7164 17.7203 16.5938 17.8003 16.4587 17.8545C16.3237 17.9088 16.1791 17.9361 16.0331 17.9351V17.9351Z"/>
</svg>
