<svg width="32" height="32" viewBox="0 0 32 32" xmlns="http://www.w3.org/2000/svg">
<path d="M26.8642 26.3398L24.3723 18.6297L7.58025 18.6519L5.14698 26.343C5.12504 26.4125 5.11699 26.4856 5.1233 26.5582C5.12962 26.6308 5.15017 26.7014 5.18378 26.7661C5.21739 26.8307 5.26341 26.8881 5.3192 26.935C5.375 26.9818 5.43948 27.0173 5.50896 27.0392C5.57845 27.0612 5.65157 27.0692 5.72417 27.0629C5.79676 27.0566 5.8674 27.036 5.93205 27.0024C5.9967 26.9688 6.0541 26.9228 6.10097 26.867C6.14784 26.8112 6.18325 26.7467 6.2052 26.6772L8.39609 19.7608L23.5723 19.7402L25.8155 26.6804C25.8512 26.7923 25.9215 26.8899 26.0164 26.9591C26.1112 27.0283 26.2256 27.0655 26.343 27.0653C26.4006 27.0657 26.4579 27.0566 26.5125 27.0384C26.6513 26.9917 26.7661 26.8922 26.832 26.7614C26.8978 26.6306 26.9094 26.4791 26.8642 26.3398V26.3398ZM15.9256 16.743C17.0332 16.7433 18.1161 16.4151 19.0372 15.8C19.9583 15.1848 20.6764 14.3103 21.1005 13.2871C21.5245 12.2639 21.6357 11.1378 21.4198 10.0514C21.2039 8.96504 20.6707 7.96707 19.8875 7.18373C19.1044 6.4004 18.1066 5.8669 17.0203 5.65069C15.9339 5.43448 14.8079 5.54529 13.7845 5.96909C12.7612 6.3929 11.8865 7.11066 11.2711 8.03161C10.6557 8.95256 10.3272 10.0353 10.3272 11.143C10.3284 12.6275 10.9186 14.0509 11.9682 15.1008C13.0178 16.1507 14.441 16.7413 15.9256 16.743V16.743ZM15.9256 6.65347C16.814 6.65315 17.6825 6.91632 18.4213 7.40969C19.1601 7.90306 19.736 8.60445 20.0761 9.42516C20.4162 10.2459 20.5053 11.149 20.3321 12.0203C20.1588 12.8917 19.731 13.692 19.1029 14.3202C18.4747 14.9484 17.6743 15.3762 16.803 15.5494C15.9316 15.7227 15.0285 15.6336 14.2078 15.2935C13.3871 14.9534 12.6857 14.3775 12.1923 13.6387C11.699 12.8999 11.4358 12.0314 11.4361 11.143C11.4374 9.95267 11.9108 8.81147 12.7524 7.9698C13.5941 7.12813 14.7353 6.65472 15.9256 6.65347V6.65347Z"/>
</svg>
