<svg width="32" height="32" viewBox="0 0 32 32" xmlns="http://www.w3.org/2000/svg">
<path d="M24.4652 9.86562H20.9876L19.1037 6.88766H12.8653L10.9845 9.86562H7.50842C6.87051 9.87378 6.26142 10.1326 5.81279 10.5862C5.36416 11.0397 5.11201 11.6516 5.11084 12.2896V22.6729C5.11125 23.3156 5.36676 23.9319 5.82125 24.3864C6.27575 24.8409 6.89205 25.0964 7.5348 25.0968H24.4652C25.108 25.0964 25.7243 24.8409 26.1788 24.3864C26.6333 23.9319 26.8888 23.3156 26.8892 22.6729V12.2896C26.8888 11.6468 26.6333 11.0305 26.1788 10.576C25.7243 10.1215 25.108 9.86604 24.4652 9.86562V9.86562ZM25.8029 22.6729C25.8025 23.0275 25.6614 23.3675 25.4107 23.6183C25.1599 23.8691 24.8199 24.0101 24.4652 24.0105H7.5348C7.18015 24.0101 6.84014 23.8691 6.58937 23.6183C6.3386 23.3675 6.19753 23.0275 6.19712 22.6729V12.2896C6.19753 11.9349 6.3386 11.5949 6.58937 11.3442C6.84014 11.0934 7.18015 10.9523 7.5348 10.9519H11.5835L13.4643 7.97394H18.5078L20.3901 10.9519H24.4652C24.8199 10.9523 25.1599 11.0934 25.4107 11.3442C25.6614 11.5949 25.8025 11.9349 25.8029 12.2896V22.6729Z"/>
<path d="M16.0001 12.7303C15.1487 12.7303 14.3164 12.9828 13.6085 13.4558C12.9006 13.9288 12.3488 14.6011 12.023 15.3877C11.6972 16.1743 11.6119 17.0398 11.778 17.8749C11.9441 18.7099 12.3541 19.477 12.9562 20.079C13.5582 20.681 14.3252 21.091 15.1603 21.2571C15.9953 21.4232 16.8609 21.338 17.6475 21.0122C18.434 20.6863 19.1064 20.1346 19.5794 19.4267C20.0524 18.7187 20.3049 17.8865 20.3049 17.0351C20.3036 15.8937 19.8497 14.7995 19.0427 13.9925C18.2356 13.1855 17.1414 12.7315 16.0001 12.7303V12.7303ZM16.0001 20.2536C15.3635 20.2536 14.7413 20.0648 14.212 19.7111C13.6827 19.3575 13.2702 18.8548 13.0266 18.2667C12.783 17.6786 12.7193 17.0315 12.8434 16.4072C12.9676 15.7828 13.2742 15.2094 13.7243 14.7592C14.1744 14.3091 14.7479 14.0026 15.3722 13.8784C15.9965 13.7542 16.6436 13.818 17.2318 14.0616C17.8199 14.3052 18.3225 14.7177 18.6762 15.247C19.0298 15.7762 19.2186 16.3985 19.2186 17.0351C19.2178 17.8884 18.8784 18.7066 18.275 19.31C17.6716 19.9134 16.8534 20.2527 16.0001 20.2536V20.2536Z"/>
</svg>
