<svg width="32" height="32" viewBox="0 0 32 32" xmlns="http://www.w3.org/2000/svg">
<path d="M24.2534 9.00124C24.2375 8.9702 24.2059 8.93917 24.1742 8.90813C23.5247 8.19429 22.7643 7.57356 21.9088 7.09249C21.8771 7.06145 21.8455 7.04594 21.7979 7.03042C21.0851 6.62694 20.3088 6.31658 19.4851 6.11484H19.4692C18.7247 5.92862 17.9484 5.83551 17.1405 5.83551C16.8712 5.83551 16.6494 6.05277 16.6494 6.31658V15.0689C16.6494 15.3327 16.8712 15.55 17.1405 15.55H26.0593C26.3286 15.55 26.5504 15.3327 26.5504 15.0689C26.5504 12.7411 25.6791 10.6151 24.2534 9.00124ZM18.8831 14.5568H17.6474V6.79764C18.0593 6.82868 18.4712 6.87524 18.8831 6.96835V14.5568ZM19.8653 7.23216C20.293 7.37182 20.7049 7.55804 21.1009 7.75978V14.5723H19.8653V7.23216V7.23216ZM22.0989 8.36499C22.4474 8.61328 22.7801 8.89261 23.0969 9.20298C23.1761 9.28057 23.2554 9.37368 23.3346 9.45127V14.5568H22.0989V8.36499V8.36499ZM24.3326 10.7393C25.0455 11.8876 25.4732 13.1912 25.5524 14.5568H24.3326V10.7393V10.7393Z"/>
<path d="M23.8257 16.7604H15.4138V8.48915C15.4138 8.22534 15.192 8.00809 14.9227 8.00809C9.72668 8.00809 5.51282 12.1515 5.51282 17.257C5.51282 22.3625 9.74252 26.5059 14.9227 26.5059C20.1188 26.5059 24.3326 22.3625 24.3326 17.257C24.3326 16.9777 24.1108 16.7604 23.8257 16.7604V16.7604ZM14.4158 8.98574V17.2415C14.4158 17.5053 14.6376 17.7225 14.9069 17.7225H23.3029C23.0495 22.0987 19.3742 25.5127 14.9069 25.5127C10.2811 25.5127 6.495 21.8038 6.495 17.2415C6.495 12.8498 9.98014 9.23403 14.4158 8.98574V8.98574Z"/>
</svg>
