<svg width="32" height="32" viewBox="0 0 32 32" xmlns="http://www.w3.org/2000/svg">
<g clip-path="url(#clip0_9220_25016)">
<path d="M9.25167 12.7213V8.84511C9.25167 8.75944 9.2189 8.67728 9.16058 8.6167C9.10226 8.55613 9.02316 8.52209 8.94069 8.52209C8.85821 8.52209 8.77911 8.55613 8.72079 8.6167C8.66247 8.67728 8.6297 8.75944 8.6297 8.84511V12.7213C8.6297 13.3512 8.16323 13.9327 7.47907 14.1103C7.41065 14.1286 7.35027 14.1706 7.30788 14.2293C7.26548 14.288 7.2436 14.36 7.24584 14.4334L7.46352 22.2504C7.46454 22.3225 7.45188 22.3942 7.42626 22.4612C7.40063 22.5282 7.36255 22.5893 7.31418 22.6411C7.26581 22.6928 7.2081 22.7342 7.14435 22.7627C7.0806 22.7913 7.01205 22.8066 6.94263 22.8076C6.8732 22.8087 6.80426 22.7955 6.73972 22.7689C6.67519 22.7423 6.61634 22.7027 6.56653 22.6525C6.51671 22.6023 6.47691 22.5423 6.4494 22.4761C6.42189 22.4099 6.40721 22.3387 6.40619 22.2666L6.62387 14.4334C6.62346 14.3607 6.60057 14.29 6.55857 14.2319C6.51658 14.1737 6.45771 14.1311 6.39064 14.1103C5.70648 13.9327 5.24001 13.3512 5.24001 12.7213V8.84511C5.24001 8.75944 5.20724 8.67728 5.14892 8.6167C5.0906 8.55613 5.0115 8.52209 4.92902 8.52209C4.84655 8.52209 4.76745 8.55613 4.70913 8.6167C4.65081 8.67728 4.61804 8.75944 4.61804 8.84511V12.7213C4.62772 13.151 4.76412 13.5673 5.00882 13.9139C5.25352 14.2605 5.59473 14.5207 5.98636 14.6595L5.79977 22.2666C5.80183 22.5836 5.92504 22.8867 6.14228 23.1093C6.35952 23.3319 6.65301 23.4558 6.95818 23.4537C7.26334 23.4515 7.55519 23.3236 7.76952 23.0979C7.98385 22.8723 8.1031 22.5674 8.10104 22.2504L7.88335 14.6595C8.27498 14.5207 8.61619 14.2605 8.86089 13.9139C9.10559 13.5673 9.24199 13.151 9.25167 12.7213V12.7213Z"/>
<path d="M6.29733 12.5598C6.33876 12.5622 6.3802 12.5554 6.41894 12.54C6.45769 12.5246 6.49288 12.5009 6.52222 12.4704C6.55155 12.4399 6.57438 12.4034 6.58922 12.3631C6.60405 12.3229 6.61056 12.2799 6.60831 12.2368V8.84511C6.60831 8.75944 6.57555 8.67728 6.51723 8.6167C6.45891 8.55613 6.37981 8.52209 6.29733 8.52209C6.21485 8.52209 6.13576 8.55613 6.07744 8.6167C6.01911 8.67728 5.98635 8.75944 5.98635 8.84511V12.2207C5.98424 12.2644 5.99073 12.3082 6.00541 12.3492C6.02009 12.3903 6.04266 12.4279 6.07175 12.4596C6.10084 12.4913 6.13584 12.5166 6.17462 12.5338C6.2134 12.551 6.25515 12.5599 6.29733 12.5598V12.5598Z"/>
<path d="M7.60349 12.5598C7.64491 12.5622 7.68635 12.5554 7.7251 12.54C7.76384 12.5246 7.79903 12.5009 7.82837 12.4704C7.85771 12.4399 7.88054 12.4034 7.89537 12.3631C7.9102 12.3229 7.91671 12.2799 7.91447 12.2368V8.84511C7.91447 8.75944 7.8817 8.67728 7.82338 8.6167C7.76506 8.55613 7.68596 8.52209 7.60349 8.52209C7.52101 8.52209 7.44191 8.55613 7.38359 8.6167C7.32527 8.67728 7.2925 8.75944 7.2925 8.84511V12.2207C7.29039 12.2644 7.29688 12.3082 7.31156 12.3492C7.32624 12.3903 7.34881 12.4279 7.3779 12.4596C7.40699 12.4913 7.44199 12.5166 7.48077 12.5338C7.51955 12.551 7.5613 12.5599 7.60349 12.5598Z"/>
<path d="M26.9622 8.60288C26.855 8.54829 26.735 8.52687 26.6164 8.54119C26.4979 8.55551 26.3858 8.60496 26.2935 8.68364C26.0483 8.94132 25.8577 9.24939 25.7338 9.58809C25.0963 11.2355 24.3655 14.3849 24.2877 16.5653C24.2898 16.7424 24.3501 16.9134 24.4588 17.0498C24.5175 17.1121 24.5877 17.1613 24.6652 17.1946C24.7426 17.2279 24.8258 17.2446 24.9097 17.2437H25.4539L25.0963 22.2505C25.0962 22.5647 25.2153 22.8662 25.4278 23.0899C25.6402 23.3136 25.9289 23.4414 26.2314 23.4456C26.5353 23.4414 26.8256 23.3142 27.0405 23.0909C27.2554 22.8677 27.378 22.5661 27.382 22.2505V9.44273C27.382 8.8613 27.1177 8.66748 26.9622 8.60288V8.60288ZM26.76 22.2828C26.7427 22.4111 26.6822 22.529 26.5893 22.6155C26.4964 22.702 26.377 22.7515 26.2522 22.7554C26.1275 22.7593 26.0055 22.7172 25.9078 22.6366C25.81 22.556 25.7429 22.4421 25.7182 22.3151L26.0914 16.9529C26.0914 16.8656 26.0641 16.7806 26.0137 16.7107C25.984 16.6777 25.9478 16.6519 25.9075 16.6352C25.8671 16.6184 25.8238 16.6111 25.7804 16.6138H24.8941C24.9719 14.5626 25.6716 11.4616 26.2935 9.86266C26.3725 9.62228 26.4997 9.40208 26.6667 9.21662H26.6823C26.7166 9.29793 26.7326 9.38632 26.7289 9.47503V22.2989L26.76 22.2828Z"/>
<path d="M16.4198 8.52209C14.9959 8.52209 13.604 8.96067 12.4201 9.78235C11.2362 10.604 10.3135 11.7719 9.76859 13.1383C9.2237 14.5047 9.08113 16.0083 9.35892 17.4589C9.6367 18.9094 10.3224 20.2419 11.3292 21.2877C12.336 22.3335 13.6188 23.0457 15.0153 23.3342C16.4118 23.6228 17.8593 23.4747 19.1748 22.9087C20.4903 22.3427 21.6147 21.3842 22.4057 20.1545C23.1968 18.9248 23.619 17.479 23.619 16C23.6149 14.018 22.8551 12.1185 21.5059 10.717C20.1567 9.31558 18.3279 8.52636 16.4198 8.52209V8.52209ZM16.4198 22.8157C15.1227 22.8125 13.8556 22.4101 12.7786 21.6592C11.7015 20.9084 10.8629 19.8428 10.3687 18.5971C9.87442 17.3514 9.74669 15.9815 10.0016 14.6604C10.2566 13.3394 10.8827 12.1265 11.801 11.1749C12.7193 10.2233 13.8885 9.57577 15.1609 9.31409C16.4334 9.05241 17.7519 9.18832 18.95 9.70466C20.1481 10.221 21.172 11.0946 21.8923 12.2151C22.6126 13.3356 22.9971 14.6527 22.9971 16C22.993 17.8091 22.2982 19.5427 21.0651 20.8204C19.8321 22.0981 18.1615 22.8157 16.4198 22.8157V22.8157Z"/>
<path d="M16.4198 10.8478C15.4388 10.851 14.4807 11.1563 13.6667 11.7251C12.8528 12.2939 12.2194 13.1006 11.8469 14.0433C11.4743 14.9859 11.3792 16.0222 11.5736 17.0209C11.768 18.0197 12.2432 18.9362 12.939 19.6545C13.6349 20.3728 14.5202 20.8606 15.4829 21.0563C16.4457 21.2519 17.4427 21.1467 18.3479 20.7537C19.2531 20.3608 20.0257 19.698 20.5682 18.8489C21.1107 17.9999 21.3986 17.0028 21.3955 15.9838C21.3935 15.3073 21.2631 14.6377 21.012 14.0134C20.7608 13.3891 20.3938 12.8224 19.9317 12.3454C19.4697 11.8685 18.9217 11.4908 18.3192 11.2338C17.7166 10.9769 17.0712 10.8457 16.4198 10.8478V10.8478ZM16.4198 20.5061C15.5625 20.5029 14.7252 20.2359 14.0139 19.7389C13.3025 19.2418 12.7489 18.5369 12.4229 17.7133C12.097 16.8896 12.0133 15.9841 12.1824 15.111C12.3516 14.238 12.766 13.4366 13.3733 12.808C13.9806 12.1794 14.7536 11.7519 15.5947 11.5793C16.4358 11.4067 17.3073 11.4969 18.0991 11.8384C18.8909 12.18 19.5675 12.7575 20.0435 13.4982C20.5195 14.2389 20.7735 15.1095 20.7735 16C20.7756 16.5937 20.6643 17.182 20.446 17.7307C20.2278 18.2794 19.9069 18.7778 19.502 19.1968C19.0971 19.6159 18.6162 19.9474 18.0872 20.1721C17.5581 20.3969 16.9914 20.5104 16.4198 20.5061V20.5061Z"/>
</g>
<defs>
<clipPath>
<rect width="22.8571" height="15.0204" transform="translate(4.57141 8.48981)"/>
</clipPath>
</defs>
</svg>
