<svg width="32" height="32" viewBox="0 0 32 32" xmlns="http://www.w3.org/2000/svg">
<path d="M23.7592 15.4297H16.5587V8.07924C16.5587 7.93218 16.5014 7.79116 16.3996 7.68718C16.2977 7.5832 16.1596 7.52478 16.0155 7.52478C15.8715 7.52478 15.7333 7.5832 15.6315 7.68718C15.5296 7.79116 15.4724 7.93218 15.4724 8.07924V15.4297H8.2719C8.12785 15.4297 7.9897 15.4881 7.88784 15.5921C7.78598 15.6961 7.72876 15.8371 7.72876 15.9842C7.72876 16.1312 7.78598 16.2723 7.88784 16.3762C7.9897 16.4802 8.12785 16.5386 8.2719 16.5386H15.4724V23.8891C15.4724 24.0362 15.5296 24.1772 15.6315 24.2812C15.7333 24.3852 15.8715 24.4436 16.0155 24.4436C16.1596 24.4436 16.2977 24.3852 16.3996 24.2812C16.5014 24.1772 16.5587 24.0362 16.5587 23.8891V16.5386H23.7592C23.9032 16.5386 24.0414 16.4802 24.1432 16.3762C24.2451 16.2723 24.3023 16.1312 24.3023 15.9842C24.3023 15.8371 24.2451 15.6961 24.1432 15.5921C24.0414 15.4881 23.9032 15.4297 23.7592 15.4297V15.4297Z"/>
</svg>
