<svg width="32" height="32" viewBox="0 0 32 32" xmlns="http://www.w3.org/2000/svg">
<g clip-path="url(#clip0_9220_25022)">
<path d="M29.1752 22.5702H2.80888V9.39747H29.2069V22.5702H29.1752ZM29.6825 22.4572V9.52662C29.6784 9.34105 29.6031 9.1645 29.4727 9.03476C29.3423 8.90503 29.1672 8.83242 28.9849 8.83246H3.01499C2.92413 8.83031 2.83377 8.84668 2.74922 8.8806C2.66467 8.91452 2.58763 8.96531 2.52264 9.02998C2.45764 9.09465 2.406 9.1719 2.37075 9.25719C2.3355 9.34248 2.31736 9.43408 2.31738 9.52662V22.4572C2.31738 22.6456 2.39088 22.8263 2.52171 22.9595C2.65253 23.0927 2.82997 23.1675 3.01499 23.1675H29.0166C29.1948 23.1554 29.362 23.0758 29.4853 22.9443C29.6086 22.8128 29.679 22.639 29.6825 22.4572"/>
<path d="M19.7734 21.2788H28.1764V21.9245H19.7734V21.2788Z"/>
<path d="M3.52222 21.2788H11.9252V21.9245H3.52222V21.2788Z"/>
<path d="M5.06015 10.5113C5.19813 10.5113 5.333 10.553 5.44772 10.631C5.56244 10.7091 5.65186 10.82 5.70466 10.9498C5.75746 11.0796 5.77127 11.2224 5.74435 11.3602C5.71744 11.498 5.651 11.6245 5.55343 11.7239C5.45587 11.8232 5.33157 11.8909 5.19625 11.9183C5.06093 11.9457 4.92066 11.9316 4.79319 11.8778C4.66572 11.8241 4.55677 11.733 4.48012 11.6162C4.40346 11.4994 4.36255 11.3621 4.36255 11.2216C4.36255 11.0332 4.43605 10.8526 4.56687 10.7194C4.6977 10.5862 4.87514 10.5113 5.06015 10.5113"/>
<path d="M9.46787 10.5113C9.60584 10.5113 9.74072 10.553 9.85544 10.631C9.97016 10.7091 10.0596 10.82 10.1124 10.9498C10.1652 11.0796 10.179 11.2224 10.1521 11.3602C10.1252 11.498 10.0587 11.6245 9.96115 11.7239C9.86359 11.8232 9.73929 11.8909 9.60396 11.9183C9.46864 11.9457 9.32838 11.9316 9.20091 11.8778C9.07344 11.8241 8.96448 11.733 8.88783 11.6162C8.81118 11.4994 8.77026 11.3621 8.77026 11.2216C8.7743 11.0345 8.8491 10.8562 8.97906 10.7239C9.10902 10.5916 9.28412 10.5154 9.46787 10.5113"/>
<path d="M22.7699 10.5113C22.9078 10.5113 23.0427 10.553 23.1574 10.631C23.2722 10.7091 23.3616 10.82 23.4144 10.9498C23.4672 11.0796 23.481 11.2224 23.4541 11.3602C23.4272 11.498 23.3607 11.6245 23.2632 11.7239C23.1656 11.8232 23.0413 11.8909 22.906 11.9183C22.7706 11.9457 22.6304 11.9316 22.5029 11.8778C22.3754 11.8241 22.2665 11.733 22.1898 11.6162C22.1132 11.4994 22.0723 11.3621 22.0723 11.2216C22.0723 11.0332 22.1458 10.8526 22.2766 10.7194C22.4074 10.5862 22.5849 10.5113 22.7699 10.5113Z"/>
<path d="M7.27988 10.5113C7.41785 10.5113 7.55273 10.553 7.66745 10.631C7.78217 10.7091 7.87158 10.82 7.92438 10.9498C7.97718 11.0796 7.991 11.2224 7.96408 11.3602C7.93717 11.498 7.87072 11.6245 7.77316 11.7239C7.6756 11.8232 7.5513 11.8909 7.41598 11.9183C7.28065 11.9457 7.14039 11.9316 7.01292 11.8778C6.88545 11.8241 6.7765 11.733 6.69984 11.6162C6.62319 11.4994 6.58228 11.3621 6.58228 11.2216C6.58228 11.0332 6.65577 10.8526 6.7866 10.7194C6.91743 10.5862 7.09486 10.5113 7.27988 10.5113Z"/>
<path d="M27.2091 10.5113C27.3477 10.5081 27.4841 10.547 27.6009 10.6231C27.7177 10.6992 27.8096 10.809 27.8648 10.9384C27.92 11.0679 27.9361 11.2112 27.911 11.35C27.8859 11.4889 27.8208 11.6169 27.7239 11.7179C27.627 11.8188 27.5027 11.8881 27.367 11.9169C27.2312 11.9456 27.0902 11.9325 26.9618 11.8792C26.8334 11.826 26.7235 11.735 26.6461 11.6179C26.5687 11.5007 26.5274 11.3628 26.5273 11.2216C26.5273 11.036 26.5986 10.8577 26.726 10.725C26.8535 10.5922 27.0268 10.5155 27.2091 10.5113"/>
<path d="M19.1234 20.3263H13.6694C14.367 19.4385 15.4134 17.7757 15.0963 16.1291H17.7599C17.8482 16.1291 17.9329 16.0934 17.9953 16.0299C18.0578 15.9663 18.0928 15.8801 18.0928 15.7901C18.0928 15.7002 18.0578 15.614 17.9953 15.5504C17.9329 15.4869 17.8482 15.4511 17.7599 15.4511H14.9219C14.5255 14.2243 14.5255 12.5938 15.3183 11.8028C16.111 11.0118 16.983 11.1732 18.3307 11.7544C18.3679 11.7729 18.4085 11.7835 18.4499 11.7854C18.4913 11.7872 18.5327 11.7804 18.5714 11.7652C18.6101 11.7501 18.6453 11.7269 18.6748 11.6973C18.7043 11.6677 18.7275 11.6321 18.7429 11.5929C18.776 11.5134 18.778 11.424 18.7485 11.343C18.7191 11.262 18.6603 11.1955 18.5843 11.1571C16.5232 10.3176 15.4134 10.8019 14.8426 11.3669C14.2719 11.9319 14.0658 12.5938 14.0023 13.4978C13.9566 14.1733 14.0318 14.8515 14.2243 15.4996H12.0839C11.9956 15.4996 11.9109 15.5353 11.8485 15.5989C11.7861 15.6624 11.751 15.7487 11.751 15.8386C11.751 15.9285 11.7861 16.0147 11.8485 16.0783C11.9109 16.1419 11.9956 16.1776 12.0839 16.1776H14.4463C14.6207 16.904 14.4621 17.7435 13.9865 18.6636C13.6616 19.2822 13.2622 19.857 12.7974 20.3748C12.7563 20.4055 12.7252 20.4481 12.7082 20.4971C12.6913 20.546 12.6892 20.599 12.7023 20.6492C12.7023 20.7001 12.7121 20.7505 12.7312 20.7975C12.7503 20.8445 12.7784 20.8872 12.8137 20.9232C12.849 20.9591 12.891 20.9877 12.9372 21.0072C12.9833 21.0266 13.0328 21.0366 13.0828 21.0366H19.1234C19.2117 21.0366 19.2964 21.0009 19.3588 20.9374C19.4213 20.8738 19.4563 20.7875 19.4563 20.6976C19.4528 20.6073 19.417 20.5214 19.3558 20.456C19.2945 20.3907 19.2118 20.3503 19.1234 20.3425V20.3263Z"/>
<path d="M24.9737 10.4952C25.1123 10.492 25.2487 10.5309 25.3655 10.607C25.4823 10.6831 25.5741 10.7928 25.6294 10.9223C25.6846 11.0518 25.7007 11.1951 25.6756 11.3339C25.6505 11.4727 25.5853 11.6008 25.4884 11.7018C25.3915 11.8027 25.2673 11.872 25.1316 11.9007C24.9958 11.9295 24.8548 11.9164 24.7264 11.8631C24.598 11.8099 24.4881 11.7189 24.4107 11.6018C24.3333 11.4846 24.292 11.3467 24.2919 11.2055C24.2898 11.113 24.3059 11.021 24.3392 10.9349C24.3725 10.8488 24.4224 10.7704 24.4859 10.7042C24.5494 10.638 24.6253 10.5854 24.7091 10.5495C24.7928 10.5137 24.8828 10.4952 24.9737 10.4952"/>
</g>
<defs>
<clipPath>
<rect width="27.4286" height="14.3673" transform="translate(2.28564 8.81631)"/>
</clipPath>
</defs>
</svg>
