<svg width="32" height="32" viewBox="0 0 32 32" xmlns="http://www.w3.org/2000/svg">
<g clip-path="url(#clip0_9220_25026)">
<path d="M26.1676 5.70758H19.2631V4.06906C19.262 4.00754 19.2472 3.94705 19.2199 3.89201C19.1927 3.83697 19.1536 3.78876 19.1055 3.75091C19.0641 3.71102 19.014 3.68159 18.9592 3.665C18.9044 3.64841 18.8465 3.64514 18.7902 3.65546L5.64342 5.61213C5.35379 5.65764 5.0898 5.80607 4.89903 6.03066C4.70827 6.25526 4.6033 6.54123 4.60303 6.83704V25.1629C4.6033 25.4588 4.70827 25.7447 4.89903 25.9693C5.0898 26.1939 5.35379 26.3423 5.64342 26.3879L18.7902 28.3445H18.8533C18.9009 28.3464 18.9484 28.3374 18.9921 28.3181C19.0358 28.2988 19.0745 28.2698 19.1055 28.2332C19.1525 28.1909 19.1906 28.1395 19.2177 28.0822C19.2448 28.0248 19.2602 27.9626 19.2631 27.8991V26.2606H26.1676C26.4909 26.2606 26.8013 26.1321 27.0315 25.9028C27.2616 25.6735 27.393 25.362 27.3971 25.0357V6.9484C27.3971 6.78545 27.3653 6.6241 27.3035 6.47356C27.2417 6.32301 27.1512 6.18623 27.037 6.07101C26.9228 5.95578 26.7873 5.86439 26.6381 5.80203C26.4889 5.73967 26.329 5.70758 26.1676 5.70758V5.70758ZM18.4592 6.12118V27.4219L5.76953 25.5606C5.66931 25.545 5.57839 25.4925 5.51434 25.4131C5.45028 25.3338 5.41764 25.2333 5.42273 25.1311V6.83704C5.42156 6.73753 5.45598 6.64093 5.51968 6.56495C5.58338 6.48898 5.67209 6.43874 5.76953 6.42343L18.4592 4.5463V6.12118ZM26.5932 25.0357C26.5891 25.1468 26.5425 25.252 26.4631 25.3292C26.3837 25.4063 26.2778 25.4494 26.1676 25.4493H19.2631V23.8108H23.74C23.8487 23.8108 23.9529 23.7672 24.0298 23.6896C24.1066 23.6121 24.1498 23.5069 24.1498 23.3972C24.1498 23.2875 24.1066 23.1823 24.0298 23.1047C23.9529 23.0271 23.8487 22.9836 23.74 22.9836H19.2631V21.345H23.74C23.8487 21.345 23.9529 21.3015 24.0298 21.2239C24.1066 21.1463 24.1498 21.0411 24.1498 20.9314C24.1498 20.8217 24.1066 20.7165 24.0298 20.639C23.9529 20.5614 23.8487 20.5178 23.74 20.5178H19.2631V18.8793H23.74C23.8487 18.8793 23.9529 18.8357 24.0298 18.7582C24.1066 18.6806 24.1498 18.5754 24.1498 18.4657C24.1498 18.356 24.1066 18.2508 24.0298 18.1733C23.9529 18.0957 23.8487 18.0521 23.74 18.0521H19.2631V16.6045C19.6535 16.7646 20.0713 16.8456 20.4927 16.8431C21.4641 16.8389 22.3942 16.4465 23.0796 15.7519C23.765 15.0572 24.1498 14.1169 24.1498 13.1366C24.1457 13.0297 24.1008 12.9285 24.0243 12.8543C23.9479 12.7802 23.846 12.7388 23.74 12.7389H20.8868V9.82773C20.8868 9.71803 20.8436 9.61283 20.7667 9.53526C20.6899 9.4577 20.5856 9.41412 20.4769 9.41412C20.0574 9.41568 19.6413 9.49105 19.2474 9.63683V6.53479H26.1676C26.2778 6.53471 26.3837 6.57778 26.4631 6.65492C26.5425 6.73206 26.5891 6.83726 26.5932 6.9484V25.0357ZM20.4927 13.5184H23.3144C23.219 14.2042 22.8806 14.832 22.3618 15.2853C21.843 15.7387 21.179 15.9869 20.4927 15.9841C20.0664 15.9858 19.6456 15.8878 19.2631 15.6977V10.5118C19.5178 10.3889 19.7885 10.3032 20.0671 10.2572V13.1048C20.0711 13.2159 20.1178 13.3211 20.1972 13.3982C20.2765 13.4754 20.3825 13.5184 20.4927 13.5184V13.5184Z"/>
<path d="M22.1006 8.17331C21.9947 8.17742 21.8944 8.22281 21.821 8.29994C21.7475 8.37706 21.7065 8.47992 21.7065 8.58691V11.4662C21.7065 11.5732 21.7475 11.6761 21.821 11.7532C21.8944 11.8303 21.9947 11.8757 22.1006 11.8798H24.9538C25.064 11.8799 25.17 11.8369 25.2494 11.7597C25.3287 11.6826 25.3754 11.5774 25.3794 11.4662C25.3794 9.84364 23.74 8.17331 22.1006 8.17331ZM22.5105 11.0526V9.04824C23.409 9.28686 24.3075 10.1618 24.4967 11.0526H22.5105Z"/>
<path d="M12.3745 11.1163H9.80501C9.69338 11.1202 9.58738 11.1668 9.5084 11.2465C9.42942 11.3262 9.38332 11.4331 9.37939 11.5458V20.1201C9.38332 20.2328 9.42942 20.3398 9.5084 20.4195C9.58738 20.4992 9.69338 20.5457 9.80501 20.5497C9.86222 20.5518 9.91926 20.5423 9.97273 20.5216C10.0262 20.501 10.075 20.4697 10.1162 20.4296C10.1574 20.3895 10.1902 20.3414 10.2126 20.2883C10.2349 20.2351 10.2464 20.1779 10.2464 20.1201V17.1135H12.3745C12.9389 17.1135 13.4802 16.8873 13.8792 16.4845C14.2783 16.0818 14.5025 15.5356 14.5025 14.966V13.2479C14.4984 12.6811 14.2723 12.139 13.8737 11.7396C13.4751 11.3403 12.9362 11.1163 12.3745 11.1163V11.1163ZM13.6513 14.9819C13.6513 15.3236 13.5168 15.6514 13.2773 15.893C13.0379 16.1347 12.7131 16.2704 12.3745 16.2704H10.2464V11.9912H12.3745C12.5421 11.9912 12.7082 12.0245 12.8631 12.0893C13.018 12.154 13.1588 12.249 13.2773 12.3686C13.3959 12.4883 13.49 12.6303 13.5541 12.7866C13.6183 12.943 13.6513 13.1105 13.6513 13.2797V14.9819Z"/>
</g>
<defs>
<clipPath>
<rect width="22.8571" height="24.8163" transform="translate(4.57153 3.59183)"/>
</clipPath>
</defs>
</svg>
