<svg width="32" height="32" viewBox="0 0 32 32" xmlns="http://www.w3.org/2000/svg">
<g clip-path="url(#clip0_9220_25034)">
<path d="M15.81 16.4456L15.8733 16.3979L15.9208 16.3501L15.9525 16.3024C15.9683 16.2865 15.9683 16.2705 15.9683 16.2387C15.9683 16.2069 15.9841 16.2069 15.9841 16.1751C15.9841 16.1432 16 16.1432 16 16.1114V15.8568C16 15.8408 15.9841 15.8249 15.9841 15.7931C15.9841 15.7613 15.9683 15.7454 15.9683 15.7294C15.9686 15.7072 15.9632 15.6852 15.9525 15.6658L15.9208 15.618L15.8733 15.5703L15.8416 15.5225H15.81L6.69087 6.7375C6.56779 6.62195 6.40485 6.55902 6.23647 6.56199C6.06808 6.56496 5.90744 6.6336 5.78846 6.75341C5.67352 6.87715 5.61092 7.04094 5.61387 7.21021C5.61682 7.37947 5.6851 7.54096 5.80429 7.66056L14.4484 16L5.80429 24.3394C5.6851 24.459 5.61682 24.6205 5.61387 24.7898C5.61092 24.959 5.67352 25.1228 5.78846 25.2466C5.84823 25.3079 5.91971 25.3564 5.99861 25.3892C6.07751 25.422 6.1622 25.4385 6.24758 25.4375C6.41149 25.4348 6.5689 25.3726 6.69087 25.2625L15.81 16.4456Z"/>
<path d="M20.987 16.4456L21.0345 16.3979L21.0978 16.3501C21.0971 16.3415 21.0981 16.3328 21.1009 16.3246C21.1036 16.3164 21.1079 16.3088 21.1137 16.3024C21.1295 16.2865 21.1295 16.2705 21.1453 16.2387C21.1612 16.2069 21.1612 16.2069 21.1612 16.1751C21.1612 16.1432 21.177 16.1432 21.177 16.1114V15.8568C21.177 15.8408 21.1612 15.8249 21.1612 15.7931C21.1612 15.7613 21.1453 15.7454 21.1453 15.7294L21.1137 15.6817C21.1079 15.6752 21.1036 15.6677 21.1009 15.6595C21.0981 15.6512 21.0971 15.6426 21.0978 15.6339L21.0345 15.5862C21.0352 15.5776 21.0342 15.5689 21.0315 15.5607C21.0288 15.5525 21.0244 15.5449 21.0187 15.5385H20.987L11.8837 6.7375C11.7607 6.62195 11.5977 6.55902 11.4293 6.56199C11.261 6.56496 11.1003 6.6336 10.9813 6.75341C10.8664 6.87715 10.8038 7.04094 10.8067 7.21021C10.8097 7.37947 10.878 7.54096 10.9972 7.66056L19.6255 16L10.9972 24.3394C10.878 24.459 10.8097 24.6205 10.8067 24.7898C10.8038 24.959 10.8664 25.1228 10.9813 25.2466C11.0411 25.3079 11.1126 25.3564 11.1915 25.3892C11.2704 25.422 11.3551 25.4385 11.4405 25.4375C11.6044 25.4348 11.7618 25.3726 11.8837 25.2625L20.987 16.4456Z"/>
<path d="M26.2273 16.3979L26.2748 16.3501C26.3065 16.3342 26.3065 16.3183 26.3065 16.3024L26.3381 16.2387C26.3381 16.2228 26.3539 16.2069 26.3539 16.1751C26.3539 16.1432 26.3856 16.1432 26.3856 16.1114V15.8568C26.3856 15.8408 26.3539 15.8249 26.3539 15.7931C26.3539 15.7613 26.3381 15.7454 26.3381 15.7294L26.3065 15.6817L26.2748 15.6339L26.2273 15.5862L26.1956 15.5385H26.164L17.0765 6.7375C16.9561 6.62296 16.7958 6.56047 16.63 6.56344C16.4642 6.56642 16.3062 6.63462 16.1899 6.75341C16.0765 6.87691 16.0134 7.03886 16.0134 7.20699C16.0134 7.37512 16.0765 7.53707 16.1899 7.66057L24.8341 16L16.1899 24.3394C16.0765 24.4629 16.0134 24.6249 16.0134 24.793C16.0134 24.9611 16.0765 25.1231 16.1899 25.2466C16.2497 25.3079 16.3212 25.3564 16.4001 25.3892C16.479 25.422 16.5637 25.4385 16.6491 25.4376C16.813 25.4348 16.9704 25.3726 17.0924 25.2625L26.1956 16.4615H26.2273V16.3979Z"/>
</g>
<defs>
<clipPath>
<rect width="20.898" height="18.9388" transform="translate(5.55103 6.53061)"/>
</clipPath>
</defs>
</svg>
