<svg width="32" height="32" viewBox="0 0 32 32" xmlns="http://www.w3.org/2000/svg">
<g clip-path="url(#clip0_9220_25038)">
<path d="M27.0645 6.95405H18.9716V4.95274C18.9721 4.76316 18.9315 4.57577 18.8528 4.40378C18.7741 4.23179 18.6591 4.07936 18.5159 3.95725C18.3728 3.83514 18.2049 3.7463 18.0242 3.697C17.8435 3.64769 17.6543 3.63913 17.4699 3.67189L5.04597 5.89736C4.65102 5.96562 4.29282 6.17369 4.03518 6.48449C3.77755 6.7953 3.63722 7.18865 3.63918 7.59447V24.4055C3.63722 24.8114 3.77755 25.2047 4.03518 25.5155C4.29282 25.8263 4.65102 26.0344 5.04597 26.1027L17.4699 28.3281H17.6912C18.0308 28.3281 18.3564 28.1915 18.5966 27.9483C18.8367 27.7051 18.9716 27.3752 18.9716 27.0313V25.062H27.0645C27.4056 25.062 27.7329 24.9259 27.9755 24.6831C28.2181 24.4404 28.3565 24.1105 28.3607 23.7651V8.23489C28.3586 8.06459 28.3234 7.89636 28.2572 7.73981C28.1909 7.58327 28.0949 7.44148 27.9745 7.32254C27.8542 7.2036 27.7118 7.10984 27.5557 7.04662C27.3996 6.98339 27.2327 6.95194 27.0645 6.95405V6.95405ZM18.118 27.0633C18.1192 27.1279 18.1056 27.1919 18.0782 27.2503C18.0507 27.3087 18.0102 27.3597 17.9599 27.3995C17.9154 27.4399 17.8624 27.4696 17.8049 27.4862C17.7474 27.5028 17.6869 27.506 17.628 27.4956L5.18822 25.2701C4.98999 25.2362 4.80994 25.1324 4.67982 24.9772C4.54969 24.822 4.47784 24.6252 4.47693 24.4215V7.61048C4.47784 7.40684 4.54969 7.21006 4.67982 7.05483C4.80994 6.89959 4.98999 6.79586 5.18822 6.76193L17.628 4.53646C17.6869 4.52474 17.7477 4.52733 17.8054 4.54403C17.8631 4.56073 17.9161 4.59106 17.9599 4.63252C18.0102 4.67229 18.0507 4.72337 18.0782 4.78173C18.1056 4.84009 18.1192 4.90412 18.118 4.96875V27.0633ZM18.9716 19.2021L20.2519 17.9053L22.2119 19.8906L20.2519 21.8599L18.9716 20.563V19.2021ZM27.4913 23.7651C27.4913 23.8798 27.4463 23.9897 27.3663 24.0708C27.2863 24.1519 27.1777 24.1974 27.0645 24.1974H18.9716V21.7798L19.9516 22.7725C20.0315 22.8526 20.1394 22.8976 20.2519 22.8976C20.3644 22.8976 20.4723 22.8526 20.5522 22.7725L23.1129 20.1788C23.154 20.1398 23.1869 20.0927 23.2093 20.0404C23.2317 19.988 23.2433 19.9316 23.2433 19.8746C23.2433 19.8175 23.2317 19.7611 23.2093 19.7087C23.1869 19.6564 23.154 19.6093 23.1129 19.5704L20.5522 16.9927C20.5138 16.951 20.4673 16.9177 20.4156 16.895C20.3639 16.8723 20.3082 16.8605 20.2519 16.8605C20.1956 16.8605 20.1398 16.8723 20.0882 16.895C20.0365 16.9177 19.99 16.951 19.9516 16.9927L18.9716 17.9853V10.3963H23.2235V13.8546H21.1054C21.0189 13.8576 20.9349 13.8846 20.8625 13.9326C20.79 13.9806 20.7319 14.0477 20.6945 14.1268C20.6659 14.2054 20.6596 14.2906 20.6763 14.3727C20.6931 14.4547 20.7322 14.5304 20.7893 14.5911L23.35 17.1848C23.4294 17.266 23.5374 17.3121 23.6503 17.3129C23.7063 17.3134 23.7619 17.3023 23.8135 17.2803C23.8652 17.2582 23.9118 17.2257 23.9506 17.1848L26.5113 14.5911C26.5709 14.5286 26.6126 14.451 26.6321 14.3664C26.6516 14.2818 26.6481 14.1935 26.6219 14.1108C26.5904 14.0306 26.5359 13.9619 26.4655 13.9134C26.3951 13.8649 26.3119 13.8388 26.2268 13.8386H24.0929V9.96403C24.0929 9.84938 24.0479 9.73943 23.9679 9.65836C23.8879 9.57729 23.7793 9.53175 23.6661 9.53175H18.9716V7.81862H27.0645C27.1777 7.81862 27.2863 7.86416 27.3663 7.94523C27.4463 8.0263 27.4913 8.13626 27.4913 8.25091V23.7651ZM25.1677 14.7032L23.6503 16.2562L22.1171 14.7032H25.1677Z"/>
<path d="M11.7322 11.2609H9.17153C9.05834 11.2609 8.94979 11.3064 8.86975 11.3875C8.78972 11.4686 8.74475 11.5785 8.74475 11.6932V20.3229C8.74475 20.4375 8.78972 20.5475 8.86975 20.6285C8.94979 20.7096 9.05834 20.7551 9.17153 20.7551C9.28472 20.7551 9.39327 20.7096 9.47331 20.6285C9.55334 20.5475 9.59831 20.4375 9.59831 20.3229V17.2969H11.7322C12.013 17.299 12.2914 17.2445 12.5513 17.1367C12.8111 17.0288 13.0472 16.8697 13.2458 16.6685C13.4443 16.4674 13.6014 16.2283 13.7079 15.9651C13.8144 15.7019 13.8682 15.4199 13.8661 15.1354V13.4063C13.8619 12.8358 13.6353 12.2902 13.2355 11.8883C12.8358 11.4864 12.2954 11.2609 11.7322 11.2609V11.2609ZM13.0125 15.1515C13.0125 15.4954 12.8776 15.8253 12.6375 16.0685C12.3974 16.3117 12.0718 16.4483 11.7322 16.4483H9.59831V12.1415H11.7322C12.0732 12.1414 12.4005 12.2776 12.6432 12.5203C12.8858 12.7631 13.0242 13.0929 13.0283 13.4383L13.0125 15.1515Z"/>
</g>
<defs>
<clipPath>
<rect width="24.8163" height="24.8163" transform="translate(3.5918 3.59184)"/>
</clipPath>
</defs>
</svg>
