<svg width="32" height="32" viewBox="0 0 32 32" xmlns="http://www.w3.org/2000/svg">
<g clip-path="url(#clip0_9220_25042)">
<path d="M24.2676 20.0338L20.4855 18.2032C20.3927 18.1575 20.321 18.0758 20.2859 17.9758C20.2508 17.8757 20.2551 17.7654 20.2979 17.6686C20.318 17.6195 20.3477 17.5752 20.385 17.5385C20.4224 17.5017 20.4666 17.4734 20.515 17.4551C20.5634 17.4369 20.6149 17.4292 20.6663 17.4325C20.7176 17.4357 20.7678 17.45 20.8137 17.4742L23.2205 18.6406L22.7204 15.6922L22.8142 15.5626C22.8298 15.5464 24.2989 13.246 24.2989 11.788C24.2833 8.79102 21.7045 6.37723 18.5475 6.37723C15.3905 6.37723 12.9836 8.61282 12.8274 11.464C12.8348 11.5232 12.8295 11.5834 12.8119 11.6402C12.7943 11.6971 12.7648 11.7492 12.7255 11.7928C12.6862 11.8364 12.6381 11.8705 12.5846 11.8926C12.5311 11.9147 12.4735 11.9243 12.416 11.9207C12.3586 11.917 12.3026 11.9002 12.2521 11.8715C12.2016 11.8428 12.1578 11.8029 12.1239 11.7546C12.0901 11.7064 12.0669 11.6509 12.0561 11.5923C12.0453 11.5336 12.0472 11.4732 12.0615 11.4154C12.2335 8.14303 15.0935 5.56723 18.5475 5.56723C22.0015 5.56723 25.0647 8.35363 25.0647 11.7718C25.0647 13.2622 23.8769 15.3034 23.5331 15.8542L24.2676 20.0338Z"/>
<path d="M7.49797 26.4328L8.35755 22.4962C7.98246 21.9616 6.84156 20.1472 6.95096 18.6406C7.15414 15.352 9.77978 12.8572 13.0618 12.8572C16.3439 12.8572 19.1727 15.4654 19.1727 18.6892C19.1727 21.913 16.4377 24.5212 13.0618 24.5212C12.4154 24.4781 11.7729 24.3861 11.1395 24.2458L7.49797 26.4328ZM13.0618 13.651C10.2018 13.651 7.90432 15.8218 7.7324 18.7054C7.63863 20.1634 9.07648 22.156 9.09211 22.1722L9.20151 22.318L8.6545 24.7966L10.9988 23.3872H11.1395C11.7717 23.5408 12.4144 23.6437 13.0618 23.695C16 23.695 18.3913 21.4432 18.3913 18.673C18.3913 15.9028 16 13.651 13.0618 13.651V13.651Z"/>
<path d="M11.3896 18.592C11.3896 17.5228 11.9366 16.8262 12.7649 16.8262C13.5933 16.8262 14.1559 17.5228 14.1559 18.592C14.1675 19.047 14.0418 19.4944 13.7964 19.8718L13.2963 19.3696L12.8743 19.8718L13.3432 20.2444C13.1669 20.3293 12.9749 20.3735 12.7806 20.374C11.921 20.3902 11.3896 19.6774 11.3896 18.592V18.592ZM14.9217 18.592C14.9217 17.1178 13.9996 16.1296 12.7493 16.1296C11.499 16.1296 10.5925 17.1178 10.5925 18.592C10.5925 20.0662 11.499 21.0868 12.7493 21.0868C13.1538 21.0937 13.5511 20.9752 13.8902 20.7466L14.4997 21.3298L14.9061 20.8276L14.3278 20.3416C14.7029 19.9366 14.9217 19.321 14.9217 18.592"/>
<path d="M18.4381 11.2534L18.8288 10.0708L19.0945 9.14743L19.3602 10.0708L19.7509 11.2534H18.4381ZM20.3917 13.1164H21.2357L19.5634 8.38603H18.6725L16.9846 13.1164H17.8129L18.2193 11.9338H20.001L20.3917 13.1164Z"/>
</g>
<defs>
<clipPath>
<rect width="18.2857" height="20.898" transform="translate(6.85718 5.55103)"/>
</clipPath>
</defs>
</svg>
