<svg width="32" height="32" viewBox="0 0 32 32" xmlns="http://www.w3.org/2000/svg">
<path d="M5.57617 5.59683V26.5077H26.4871V5.59683H5.57617ZM25.3781 15.8004C22.4886 15.7513 22.3191 16.0127 22.1702 16.2455C22.1139 16.332 22.081 16.4317 22.0749 16.5348C22.0688 16.6378 22.0896 16.7407 22.1354 16.8333C22.2051 16.9758 22.2764 17.1073 22.3445 17.2341C22.5457 17.6063 22.6803 17.8535 22.6819 18.2226C22.6835 18.4508 22.6396 18.677 22.5529 18.8881C22.4661 19.0991 22.3382 19.2908 22.1766 19.4519C22.0161 19.6142 21.8245 19.7425 21.6133 19.8291C21.402 19.9156 21.1755 19.9587 20.9473 19.9556C20.4812 19.9519 20.0353 19.7651 19.7058 19.4356C19.3762 19.106 19.1894 18.6601 19.1857 18.1941C19.1857 17.7584 19.3441 17.4875 19.5928 17.0392L19.7021 16.8428C19.7565 16.7473 19.7842 16.639 19.7822 16.5292C19.7803 16.4193 19.7488 16.3121 19.691 16.2186C19.55 15.9889 19.3568 15.6768 16.5227 15.7434C16.5227 15.1335 16.5227 14.5299 16.556 14.1133C16.9541 14.3319 17.4008 14.4469 17.855 14.4475H17.8692C18.6272 14.4417 19.3525 14.1382 19.8887 13.6023C20.4248 13.0665 20.7288 12.3413 20.735 11.5834C20.7379 11.2081 20.6662 10.836 20.5239 10.4887C20.3817 10.1414 20.1718 9.82585 19.9064 9.56048C19.641 9.2951 19.3255 9.08518 18.9782 8.94292C18.6309 8.80067 18.2588 8.72893 17.8835 8.73188C17.4389 8.73835 17.0031 8.85656 16.6162 9.07564C16.5782 8.48317 16.5702 7.53584 16.5908 6.69941H25.3781V15.8004ZM15.4835 6.70574C15.3995 10.0214 15.6831 10.202 15.9207 10.3588C16.0074 10.4149 16.1071 10.4475 16.2102 10.4534C16.3132 10.4592 16.416 10.4381 16.5084 10.3921C16.651 10.3224 16.7825 10.2511 16.9092 10.183C17.2815 9.98178 17.5286 9.84871 17.8978 9.84713C18.1258 9.84544 18.3519 9.88912 18.563 9.97562C18.774 10.0621 18.9657 10.1897 19.127 10.351C19.2882 10.5122 19.4158 10.704 19.5023 10.915C19.5888 11.126 19.6325 11.3521 19.6308 11.5802C19.6275 12.0464 19.4408 12.4925 19.1112 12.8222C18.7816 13.1518 18.3354 13.3385 17.8692 13.3418H17.8597C17.4288 13.3418 17.1595 13.1834 16.7128 12.9362L16.5164 12.8253C16.4211 12.7714 16.3131 12.744 16.2036 12.746C16.0941 12.7479 15.9871 12.7792 15.8938 12.8364C15.6688 12.9743 15.3694 13.1533 15.4185 15.7703C14.7944 15.7703 14.1734 15.7703 13.7473 15.737C13.9672 15.3343 14.0822 14.8826 14.0815 14.4238C14.0732 13.6663 13.768 12.9424 13.2315 12.4077C12.695 11.8729 11.9701 11.5701 11.2126 11.5644C10.8375 11.562 10.4657 11.6342 10.1187 11.7767C9.77166 11.9192 9.45639 12.1291 9.19114 12.3944C8.9259 12.6596 8.71595 12.9749 8.57347 13.3219C8.43098 13.6689 8.35881 14.0407 8.36112 14.4158C8.37181 14.8609 8.49264 15.2963 8.71281 15.6832C8.20271 15.7164 7.42964 15.7275 6.68983 15.7164V6.70574H15.4835ZM6.68508 16.8222C9.66013 16.8776 9.83439 16.6131 9.98488 16.377C10.0408 16.2907 10.0734 16.1913 10.0796 16.0886C10.0857 15.9858 10.0651 15.8833 10.0197 15.7909C9.94845 15.6467 9.87875 15.5152 9.81063 15.3901C9.60785 15.0162 9.47479 14.7707 9.4732 14.4016C9.47191 14.1733 9.51606 13.947 9.6031 13.736C9.69013 13.5249 9.8183 13.3333 9.98013 13.1723C10.3073 12.8511 10.7478 12.6718 11.2063 12.6733C11.6717 12.677 12.117 12.8631 12.4467 13.1915C12.7764 13.52 12.9641 13.9647 12.9694 14.4301C12.9694 14.8657 12.811 15.1366 12.5623 15.585C12.5275 15.6483 12.4894 15.7133 12.4514 15.7814C12.3974 15.8767 12.3701 15.9849 12.3723 16.0944C12.3745 16.204 12.4062 16.3109 12.4641 16.404C12.5908 16.6131 12.7603 16.8792 14.8799 16.8792H15.436C15.436 17.4717 15.436 18.0547 15.4027 18.4634C14.9985 18.2456 14.5469 18.1308 14.0879 18.1291C13.33 18.1349 12.6049 18.4385 12.069 18.9744C11.5331 19.5103 11.2295 20.2354 11.2237 20.9933C11.2208 21.3669 11.2919 21.7375 11.433 22.0835C11.574 22.4296 11.7823 22.7442 12.0456 23.0094C12.309 23.2745 12.6222 23.4848 12.9673 23.6282C13.3124 23.7716 13.6825 23.8452 14.0562 23.8448H14.0704C14.515 23.8378 14.9507 23.7196 15.3378 23.501C15.3694 23.9762 15.3789 24.7018 15.371 25.402H6.68508V16.8222ZM16.4894 25.3988C16.5354 22.5394 16.274 22.3699 16.0411 22.221C15.9548 22.1649 15.8553 22.1322 15.7525 22.1264C15.6497 22.1206 15.5471 22.1417 15.455 22.1877C15.3108 22.2574 15.1793 22.3287 15.0542 22.3968C14.6819 22.598 14.4348 22.7311 14.0657 22.7327H14.0562C13.8289 22.7331 13.6038 22.6885 13.3939 22.6014C13.184 22.5144 12.9934 22.3866 12.8331 22.2254C12.6729 22.0643 12.5461 21.873 12.4602 21.6626C12.3743 21.4522 12.3309 21.2269 12.3326 20.9996C12.3363 20.5327 12.5238 20.0861 12.8544 19.7564C13.185 19.4267 13.6321 19.2405 14.0989 19.238C14.5282 19.238 14.7991 19.3964 15.2443 19.6436L15.4407 19.7545C15.5359 19.8089 15.6439 19.8366 15.7535 19.8346C15.8631 19.8327 15.9702 19.8011 16.0633 19.7434C16.2867 19.6055 16.5861 19.4265 16.5385 16.857C17.2261 16.8444 17.931 16.857 18.4015 16.8855C18.1803 17.2884 18.0653 17.7408 18.0673 18.2004C18.0723 18.9608 18.377 19.6886 18.9153 20.2257C19.4536 20.7629 20.1821 21.066 20.9425 21.0693H20.9568C21.3305 21.0697 21.7007 20.9961 22.0459 20.8528C22.391 20.7094 22.7044 20.4991 22.9679 20.234C23.2314 19.9689 23.4397 19.6543 23.581 19.3082C23.7222 18.9622 23.7935 18.5916 23.7908 18.2178C23.7826 17.7735 23.6645 17.3381 23.4471 16.9505C23.935 16.9188 24.6684 16.9077 25.3781 16.9172V25.4051L16.4894 25.3988Z"/>
</svg>
