<svg width="32" height="32" viewBox="0 0 32 32" xmlns="http://www.w3.org/2000/svg">
<path d="M12.2962 7.95843C12.3483 7.95863 12.3998 7.94874 12.448 7.92932C12.4961 7.90989 12.5399 7.88132 12.5767 7.84526C12.6135 7.80919 12.6427 7.76634 12.6625 7.71918C12.6823 7.67202 12.6924 7.62148 12.6922 7.57047V6.46867C12.6922 6.36578 12.6505 6.2671 12.5762 6.19435C12.502 6.12159 12.4012 6.08072 12.2962 6.08072C12.1912 6.08072 12.0904 6.12159 12.0161 6.19435C11.9419 6.2671 11.9001 6.36578 11.9001 6.46867V7.57047C11.9001 7.67336 11.9419 7.77204 12.0161 7.8448C12.0904 7.91755 12.1912 7.95843 12.2962 7.95843ZM21.1659 7.95843C21.218 7.95863 21.2696 7.94874 21.3177 7.92932C21.3658 7.90989 21.4096 7.88132 21.4464 7.84526C21.4832 7.80919 21.5124 7.76634 21.5322 7.71918C21.552 7.67202 21.5621 7.62148 21.5619 7.57047V6.46867C21.5619 6.36578 21.5202 6.2671 21.4459 6.19435C21.3717 6.12159 21.2709 6.08072 21.1659 6.08072C21.0609 6.08072 20.9601 6.12159 20.8859 6.19435C20.8116 6.2671 20.7699 6.36578 20.7699 6.46867V7.57047C20.7699 7.67336 20.8116 7.77204 20.8859 7.8448C20.9601 7.91755 21.0609 7.95843 21.1659 7.95843ZM17.7647 6.05123H15.7053C15.4357 6.06153 15.1806 6.17369 14.9935 6.36421C14.8065 6.55472 14.702 6.80878 14.702 7.07311C14.702 7.33744 14.8065 7.5915 14.9935 7.78202C15.1806 7.97253 15.4357 8.0847 15.7053 8.09499H17.7647C18.0343 8.0847 18.2894 7.97253 18.4765 7.78202C18.6635 7.5915 18.768 7.33744 18.768 7.07311C18.768 6.80878 18.6635 6.55472 18.4765 6.36421C18.2894 6.17369 18.0343 6.06153 17.7647 6.05123V6.05123ZM17.7647 7.31908H15.7053C15.6421 7.31416 15.5832 7.28611 15.5402 7.24053C15.4972 7.19494 15.4734 7.13517 15.4734 7.07311C15.4734 7.01106 15.4972 6.95128 15.5402 6.90569C15.5832 6.86011 15.6421 6.83206 15.7053 6.82715H17.7647C17.8279 6.83206 17.8868 6.86011 17.9298 6.90569C17.9728 6.95128 17.9966 7.01106 17.9966 7.07311C17.9966 7.13517 17.9728 7.19494 17.9298 7.24053C17.8868 7.28611 17.8279 7.31416 17.7647 7.31908Z"/>
<path d="M27.8811 17.6962C27.8757 17.7046 27.871 17.7134 27.8669 17.7225C27.7697 17.8844 27.626 18.0147 27.4536 18.0969C27.2812 18.1791 27.0879 18.2097 26.8979 18.1848C26.7079 18.1599 26.5296 18.0807 26.3853 17.957C26.2411 17.8333 26.1373 17.6707 26.0869 17.4894C26.0366 17.3082 26.042 17.1165 26.1024 16.9382C26.1627 16.76 26.2755 16.6032 26.4264 16.4874C26.5774 16.3716 26.7599 16.3021 26.951 16.2874C27.1421 16.2728 27.3334 16.3137 27.5009 16.405L27.5295 16.4221L27.9445 15.7626L27.9081 15.7393C27.6511 15.5923 27.3603 15.5114 27.0628 15.5043C26.7653 15.4971 26.4708 15.5639 26.2068 15.6984C25.9428 15.8329 25.7179 16.0308 25.553 16.2734C25.3882 16.5161 25.2888 16.7958 25.2641 17.0863L23.813 17.4168L21.2356 12.4013V10.8309H17.1279V9.43422H20.3992V4.72131H13.0613V9.42801H16.3358V10.8247H12.3168V12.1204L8.99956 13.2067L5.94372 11.7666C5.91965 11.4293 5.79501 11.1063 5.58526 10.8377C5.37551 10.5691 5.08989 10.3667 4.76381 10.2556C4.43774 10.1446 4.08556 10.1298 3.75095 10.213C3.41635 10.2962 3.11405 10.4738 2.88154 10.7238L2.85303 10.7579L3.15719 11.0062L3.45342 11.2638L3.47243 11.2421C3.60322 11.1047 3.77254 11.0083 3.95912 10.9649C4.14569 10.9215 4.34119 10.9331 4.52105 10.9983C4.70091 11.0634 4.8571 11.1792 4.97 11.331C5.08289 11.4828 5.14745 11.664 5.15556 11.8517C5.16367 12.0393 5.11497 12.2252 5.01558 12.3858C4.91619 12.5465 4.77055 12.6747 4.59695 12.7545C4.42335 12.8343 4.22955 12.8621 4.0399 12.8343C3.85025 12.8065 3.67322 12.7245 3.53105 12.5984L3.51204 12.5798L2.96233 13.1384L2.99243 13.1679C3.33925 13.4762 3.79675 13.6371 4.26453 13.6153C4.73231 13.5934 5.17214 13.3907 5.48748 13.0515C5.62036 12.906 5.72745 12.7397 5.80431 12.5596L8.94412 14.0338L12.3136 12.9305V21.8054H13.9152V24.6546C13.348 24.7381 12.8308 25.0197 12.459 25.4475C12.0872 25.8753 11.8859 26.4205 11.8922 26.9823V27.3703H16.5924V26.9823C16.5956 26.4452 16.4099 25.9234 16.0666 25.5046C15.7233 25.0858 15.2433 24.7955 14.7073 24.6825V21.8116H18.7548V24.6825C18.2192 24.796 17.7397 25.0865 17.3968 25.5053C17.0538 25.924 16.8683 26.4455 16.8712 26.9823V27.3703H21.5699V26.9823C21.5762 26.4205 21.3749 25.8753 21.0031 25.4475C20.6313 25.0197 20.1141 24.7381 19.5469 24.6546V21.8085H21.2356V14.1269L23.3853 18.3169L25.3734 17.8622C25.5008 18.1885 25.7261 18.4693 26.0197 18.6676C26.3132 18.866 26.6612 18.9725 27.0178 18.9733C27.174 18.9731 27.3295 18.9527 27.4804 18.9128C27.7041 18.8545 27.9138 18.7533 28.0974 18.615C28.2809 18.4768 28.4347 18.3042 28.5497 18.1074C28.5576 18.095 28.5639 18.0826 28.5655 18.0795L27.8811 17.6962ZM13.8534 5.49723H19.6071V8.6521H13.8534V5.49723ZM15.7544 26.5912H12.7318C12.8092 26.2556 13.0008 25.9558 13.2752 25.7409C13.5495 25.5261 13.8903 25.4091 14.2415 25.4091C14.5928 25.4091 14.9336 25.5261 15.2079 25.7409C15.4823 25.9558 15.6739 26.2556 15.7512 26.5912H15.7544ZM20.7334 26.5912H17.7124C17.7891 26.2552 17.9803 25.9549 18.2546 25.7396C18.5289 25.5243 18.8699 25.407 19.2213 25.407C19.5728 25.407 19.9138 25.5243 20.1881 25.7396C20.4624 25.9549 20.6536 26.2552 20.7303 26.5912H20.7334ZM20.2883 20.8774H13.2673V11.762H20.2851L20.2883 20.8774Z"/>
</svg>
