<svg width="32" height="32" viewBox="0 0 32 32" xmlns="http://www.w3.org/2000/svg">
<path d="M10.2637 23.2579C9.58729 23.9733 8.31521 24.622 6.63125 25.1201C7.1065 23.5481 7.74016 22.3361 8.43403 21.6533C8.48531 21.6024 8.52584 21.542 8.55332 21.4757C8.58079 21.4094 8.59467 21.3385 8.59415 21.267C8.59364 21.1954 8.57874 21.1247 8.55031 21.0588C8.52189 20.9929 8.48049 20.9331 8.42848 20.8828C8.37647 20.8326 8.31487 20.7929 8.2472 20.766C8.17953 20.7391 8.1071 20.7255 8.03407 20.726C7.96103 20.7265 7.88881 20.7411 7.82153 20.7689C7.75425 20.7968 7.69323 20.8373 7.64195 20.8883C6.67086 21.8489 5.85977 23.5341 5.29739 25.7641L5.07719 26.6378L5.96908 26.4221C8.35482 25.8433 10.1196 25.0053 11.0717 23.995C11.1254 23.9436 11.1678 23.882 11.1965 23.8139C11.2252 23.7459 11.2394 23.6729 11.2384 23.5993C11.2374 23.5257 11.2211 23.4531 11.1906 23.3859C11.16 23.3186 11.1158 23.2582 11.0607 23.2082C11.0056 23.1582 10.9407 23.1197 10.8699 23.095C10.7991 23.0703 10.7239 23.06 10.649 23.0646C10.574 23.0693 10.5007 23.0888 10.4337 23.1221C10.3667 23.1553 10.3072 23.2015 10.259 23.2579H10.2637ZM26.4697 5.19152C26.259 5.19152 21.2705 5.22256 17.1231 7.91343C16.4312 8.3612 15.7864 8.87532 15.1984 9.44819C14.8108 9.81432 14.4438 10.2008 14.099 10.6059C13.9913 10.7316 13.8661 10.8774 13.6982 11.0714L5.42096 12.586C5.3216 12.6038 5.22912 12.648 5.15356 12.7136C5.07801 12.7793 5.02227 12.864 4.99239 12.9585C4.96251 13.053 4.95964 13.1538 4.98409 13.2498C5.00853 13.3458 5.05936 13.4334 5.13106 13.5031L8.83957 17.1375C8.56868 17.5161 8.42135 17.7334 8.41343 17.7443C8.34223 17.8488 8.31027 17.9744 8.32298 18.0994C8.33569 18.2245 8.39229 18.3414 8.48313 18.4302L13.5097 23.3541C13.6002 23.4427 13.7192 23.4979 13.8465 23.5104C13.9739 23.5228 14.1017 23.4917 14.2083 23.4224C14.221 23.4146 14.4427 23.2672 14.8277 23.005L18.5346 26.6378C18.6397 26.738 18.7808 26.7937 18.9275 26.793C18.9813 26.7926 19.0347 26.7842 19.0859 26.7681C19.1823 26.7391 19.2687 26.6849 19.336 26.6114C19.4033 26.5378 19.4488 26.4477 19.4677 26.3507L21.0186 18.2409C21.2134 18.0748 21.3623 17.9522 21.4938 17.8467C21.9045 17.5135 22.2969 17.1591 22.6693 16.7852C23.2545 16.2097 23.7798 15.5786 24.2376 14.9013C26.9845 10.8355 27.0162 5.94881 27.0162 5.74552V5.20238L26.4697 5.19152ZM6.65343 13.4659L12.5465 12.3796C11.4847 13.6324 10.4645 14.9185 9.48749 16.2359L6.65343 13.4659ZM18.5726 25.1403L15.7433 22.3625C16.7113 21.6735 18.1338 20.626 19.6816 19.3644L18.5726 25.1403ZM21.8835 16.0202C21.5324 16.372 21.1623 16.7051 20.7746 17.018C20.6162 17.1515 20.4182 17.3113 20.141 17.5456C17.8724 19.4978 15.6831 21.0776 14.5742 21.8489L14.5584 21.8597C14.3208 22.0258 14.1212 22.1701 13.9659 22.2678L9.59205 17.9801C9.69977 17.825 9.83917 17.631 10.0071 17.3998L10.0198 17.3842C10.8118 16.298 12.4182 14.1564 14.4047 11.928C14.6439 11.6595 14.8071 11.4625 14.9433 11.3073C15.2625 10.9268 15.6031 10.5642 15.9635 10.221C16.3941 9.79998 16.8593 9.41435 17.3544 9.06799L23.0574 14.6546C22.7062 15.1401 22.3152 15.5968 21.8883 16.0202H21.8835ZM23.6768 13.7266L18.3065 8.46588C21.2499 6.77439 24.5687 6.38953 25.8835 6.30263C25.7996 7.59065 25.4083 10.8433 23.6816 13.7266H23.6768Z"/>
</svg>
