<svg width="32" height="32" viewBox="0 0 32 32" xmlns="http://www.w3.org/2000/svg">
<path d="M14.7169 16.9932C14.7169 12.6636 11.8813 11.1117 9.21987 11.1117C7.47729 11.1117 3.40601 11.6859 3.40601 16.9932C3.40601 20.702 8.22185 26.0248 8.7763 26.6145L8.79214 26.6455C8.87135 26.7231 8.9664 26.7697 9.06145 26.7852V26.8007C9.64759 26.9714 10.2654 27.1111 10.8832 27.2042L11.0575 26.1334C10.7723 26.0869 10.4872 26.0403 10.2179 25.9783C11.6119 24.2868 14.7169 20.1589 14.7169 16.9932V16.9932ZM4.53076 16.9932C4.53076 13.036 7.08125 12.198 9.23571 12.198C10.5506 12.198 13.6238 12.6636 13.6238 16.9932C13.6238 19.8951 10.408 24.0385 9.23571 25.4506C8.01591 24.085 4.53076 19.8485 4.53076 16.9932V16.9932Z"/>
<path d="M11.7545 16.2017C11.7545 14.7585 10.5505 13.5947 9.07725 13.5947C7.60398 13.5947 6.40002 14.7741 6.40002 16.2017C6.40002 17.6449 7.60398 18.8088 9.07725 18.8088C10.5505 18.8088 11.7545 17.6449 11.7545 16.2017ZM9.07725 17.738C8.20596 17.738 7.50894 17.0552 7.50894 16.2173C7.50894 15.3793 8.20596 14.6965 9.07725 14.6965C9.94854 14.6965 10.6456 15.3793 10.6456 16.2173C10.6456 17.0552 9.9327 17.738 9.07725 17.738ZM26.3129 6.47177C25.5525 5.83552 24.507 5.49412 23.3664 5.49412C21.9565 5.49412 18.6773 5.95967 18.6773 10.2427C18.6773 12.5239 20.9109 15.5345 22.3367 17.2259C22.0357 17.3035 21.7505 17.3811 21.4654 17.4742L21.8139 18.4984C22.3525 18.3277 22.8911 18.1881 23.4614 18.1105V18.0795C23.5881 18.0639 23.699 18.0174 23.7941 17.9243L23.8416 17.8777C24.507 17.1173 27.8337 13.1757 27.8337 10.2272C27.802 8.56674 27.2951 7.30976 26.3129 6.47177V6.47177ZM23.3505 16.7294C20.0396 12.8963 19.7703 10.8014 19.7703 10.2427C19.7703 8.56674 20.3881 6.5804 23.3505 6.5804C26.3604 6.5804 26.6931 9.14092 26.6931 10.2427C26.6931 12.167 24.7446 15.0379 23.3505 16.7294Z"/>
<path d="M23.2396 7.75979C22.0039 7.75979 21.0059 8.73744 21.0059 9.93235C21.0059 11.1273 22.0039 12.1049 23.2396 12.1049C24.4752 12.1049 25.4732 11.1273 25.4732 9.93235C25.4732 8.73744 24.4594 7.75979 23.2396 7.75979V7.75979ZM23.2396 11.0186C22.6218 11.0186 22.1148 10.522 22.1148 9.93235C22.1148 9.32714 22.6218 8.84607 23.2396 8.84607C23.8574 8.84607 24.3643 9.34265 24.3643 9.93235C24.3643 10.5376 23.8574 11.0186 23.2396 11.0186ZM18.4554 19.0881L18.4237 19.1037L19.1683 19.9106L19.1841 19.8951C19.4218 19.6934 19.7227 19.4916 20.0871 19.2744L19.5326 18.3277C19.1049 18.5916 18.7406 18.8398 18.4554 19.0881V19.0881ZM17.4099 20.7796L18.4713 21.09C18.5822 20.7176 18.7247 20.4227 18.9148 20.1899L18.0435 19.5227C17.7742 19.8641 17.5683 20.2675 17.4099 20.7796ZM11.4693 26.2731L11.4218 27.3594C11.5643 27.3594 11.7069 27.3749 11.8653 27.3749C12.1505 27.3749 12.4356 27.3594 12.7208 27.3439L12.6416 26.2576C12.2297 26.2886 11.8178 26.2886 11.4693 26.2731ZM19.9604 18.126L20.4673 19.0881C20.8 18.9174 21.1485 18.7623 21.4812 18.6381L21.0851 17.6294C20.7049 17.7536 20.3247 17.9398 19.9604 18.126ZM13.0693 26.211L13.196 27.2973C13.6554 27.2508 14.099 27.1732 14.495 27.0801L14.2257 26.0248C13.8772 26.1024 13.497 26.1645 13.0693 26.211V26.211ZM17.1564 21.9901C17.1247 22.1452 17.1089 22.3004 17.0772 22.4556L18.1703 22.6573L18.2653 22.1918C18.3128 21.9435 18.3445 21.7107 18.4079 21.4935L17.3307 21.2607C17.2356 21.4935 17.1881 21.7418 17.1564 21.9901V21.9901ZM16.6336 23.9298L17.6475 24.3644C17.8218 23.9919 17.9485 23.5884 18.0594 23.1229L16.9822 22.8746C16.8713 23.2781 16.7604 23.6195 16.6336 23.9298V23.9298ZM15.794 25.1558L16.602 25.9007C16.9188 25.5593 17.1881 25.2179 17.4099 24.8144L16.4435 24.2868C16.2693 24.5971 16.0633 24.8765 15.794 25.1558ZM15.4297 25.4972C15.2554 25.6524 14.9703 25.792 14.6218 25.9162L14.9703 26.9404C15.4614 26.7697 15.8732 26.568 16.1584 26.3197L16.2376 26.2576L15.493 25.4506L15.4297 25.4972Z"/>
</svg>
