<svg width="32" height="32" viewBox="0 0 32 32" xmlns="http://www.w3.org/2000/svg">
<g clip-path="url(#clip0_9220_24816)">
<path d="M16.0482 26.76C15.9471 26.756 15.8484 26.7297 15.7596 26.6831L12.2491 24.6819C10.7006 23.7948 9.41826 22.5369 8.52758 21.0313C7.6369 19.5257 7.16834 17.8239 7.16772 16.0923V9.34989C7.16956 9.16058 7.22998 8.97608 7.3413 8.81984C7.45262 8.6636 7.60981 8.54268 7.79288 8.47246L15.6795 5.31677C15.7973 5.26332 15.9259 5.2356 16.0562 5.2356C16.1865 5.2356 16.3151 5.26332 16.4329 5.31677L24.2073 8.08762C24.3934 8.15987 24.5533 8.28297 24.6673 8.44167C24.7813 8.60038 24.8443 8.7877 24.8485 8.98044V16.1385C24.8599 17.8628 24.4014 19.56 23.5184 21.0614C22.6354 22.5629 21.3587 23.8164 19.8151 24.6973L16.3527 26.6985C16.2574 26.741 16.1532 26.7621 16.0482 26.76V26.76ZM8.2898 9.44225V16.1077C8.29346 17.6527 8.7131 19.1705 9.50797 20.5137C10.3028 21.8569 11.4459 22.98 12.8262 23.7737L16.0482 25.6055L19.222 23.7737C20.5973 22.9861 21.7348 21.8675 22.5219 20.5284C23.3091 19.1893 23.7187 17.6762 23.7104 16.1385V9.05741L16.0642 6.33275L8.2898 9.44225Z"/>
<path d="M14.91 19.5252C14.7878 19.5303 14.668 19.4919 14.5734 19.4174L11.3835 17.1084C11.2644 17.0227 11.1857 16.895 11.1647 16.7536C11.1437 16.6121 11.182 16.4684 11.2713 16.3541C11.3605 16.2398 11.4935 16.1642 11.6408 16.144C11.7881 16.1238 11.9377 16.1606 12.0567 16.2464L14.7818 18.2167L20.0876 11.0587C20.1747 10.9424 20.3065 10.864 20.4538 10.8409C20.6011 10.8178 20.7519 10.8519 20.873 10.9356C20.9942 11.0193 21.0758 11.1458 21.0998 11.2872C21.1239 11.4287 21.0884 11.5735 21.0013 11.6899L15.3749 19.3097C15.3342 19.3699 15.28 19.4206 15.2162 19.4579C15.1523 19.4952 15.0806 19.5182 15.0062 19.5252H14.91Z"/>
</g>
<defs>
<clipPath>
<rect width="17.6327" height="21.551" transform="translate(7.18372 5.22449)"/>
</clipPath>
</defs>
</svg>
