<svg width="32" height="32" viewBox="0 0 32 32" xmlns="http://www.w3.org/2000/svg">
<path d="M10.4554 5.311C9.18621 6.61113 8.26242 8.19674 7.76522 9.92848C7.26802 11.6602 7.21263 13.4851 7.60393 15.2427C7.60229 15.266 7.60229 15.2893 7.60393 15.3125L7.54056 26.4562C7.54048 26.5979 7.59661 26.7341 7.69711 26.836C7.79761 26.938 7.9346 26.9976 8.07918 27.0025H21.9136C22.0242 27.0034 22.1325 26.972 22.2247 26.9121C22.3168 26.8523 22.3887 26.7669 22.4309 26.6668C22.4731 26.5667 22.4839 26.4565 22.4617 26.3504C22.4395 26.2443 22.3855 26.1471 22.3065 26.0714L20.0063 23.8026C22.4631 23.4961 24.7453 22.3958 26.4918 20.6757L26.8895 20.2877L10.8356 4.91528L10.4554 5.311ZM8.63522 25.9162L8.67957 18.1167C9.63841 19.8607 11.0602 21.3186 12.7948 22.3367C14.5295 23.3547 16.5125 23.8949 18.5346 23.9004L20.5782 25.9177L8.63522 25.9162ZM25.299 20.2908C23.387 21.9646 20.8972 22.8644 18.3336 22.8079C15.77 22.7514 13.324 21.7429 11.4908 19.9865C9.65758 18.2301 8.57401 15.8571 8.45943 13.3477C8.34485 10.8382 9.2078 8.3799 10.8736 6.47022L25.299 20.2908ZM20.1679 8.94693C20.9609 8.94775 21.7211 9.2567 22.2818 9.80597C22.8426 10.3553 23.1579 11.1 23.1588 11.8768C23.1588 12.0208 23.2172 12.159 23.3212 12.2608C23.4252 12.3627 23.5662 12.4199 23.7132 12.4199C23.8603 12.4199 24.0013 12.3627 24.1053 12.2608C24.2093 12.159 24.2677 12.0208 24.2677 11.8768C24.2664 10.812 23.8341 9.79122 23.0655 9.03831C22.2969 8.28541 21.2548 7.86189 20.1679 7.86065C20.0208 7.86065 19.8798 7.91788 19.7758 8.01974C19.6718 8.12159 19.6134 8.25974 19.6134 8.40379C19.6134 8.54784 19.6718 8.68599 19.7758 8.78785C19.8798 8.88971 20.0208 8.94693 20.1679 8.94693V8.94693Z"/>
<path d="M20.1679 6.24519C21.6919 6.24684 23.153 6.84074 24.2305 7.89656C25.3081 8.95237 25.9139 10.3838 25.9152 11.8768C25.9152 12.0208 25.9736 12.159 26.0776 12.2608C26.1816 12.3627 26.3226 12.4199 26.4696 12.4199C26.6167 12.4199 26.7577 12.3627 26.8617 12.2608C26.9657 12.159 27.0241 12.0208 27.0241 11.8768C27.0224 10.0959 26.2996 8.38834 25.0142 7.12889C23.7288 5.86945 21.9859 5.16097 20.1679 5.15891C20.0208 5.15891 19.8798 5.21614 19.7758 5.31799C19.6718 5.41985 19.6134 5.558 19.6134 5.70205C19.6134 5.8461 19.6718 5.98425 19.7758 6.08611C19.8798 6.18797 20.0208 6.24519 20.1679 6.24519V6.24519Z"/>
</svg>
