<svg width="32" height="32" viewBox="0 0 32 32" xmlns="http://www.w3.org/2000/svg">
<g clip-path="url(#clip0_9220_25066)">
<path d="M24.1172 17.0007V8.44749C24.1172 8.05206 23.9603 7.67259 23.6805 7.39152C23.4007 7.11045 23.0206 6.95048 22.6228 6.94636H19.8385V5.47652C19.8344 5.34239 19.7779 5.21512 19.681 5.12171C19.5841 5.02829 19.4543 4.97608 19.3194 4.97614C19.1858 4.97614 19.0578 5.02886 18.9634 5.1227C18.869 5.21654 18.816 5.34381 18.816 5.47652V6.94636H10.3214V5.47652C10.3214 5.41081 10.3084 5.34574 10.2831 5.28503C10.2578 5.22432 10.2207 5.16916 10.174 5.1227C10.1272 5.07623 10.0717 5.03938 10.0107 5.01423C9.94959 4.98909 9.88414 4.97614 9.81803 4.97614C9.75193 4.97614 9.68647 4.98909 9.62539 5.01423C9.56432 5.03938 9.50883 5.07623 9.46209 5.1227C9.41534 5.16916 9.37826 5.22432 9.35297 5.28503C9.32767 5.34574 9.31465 5.41081 9.31465 5.47652V6.94636H6.79774C6.39723 6.94636 6.01312 7.10452 5.72991 7.38603C5.4467 7.66755 5.2876 8.04936 5.2876 8.44749V11.8094V24.2093C5.29962 24.598 5.4614 24.9673 5.73952 25.2408C6.01764 25.5144 6.39084 25.6713 6.78201 25.6791H17.6362C18.2019 26.1807 18.8666 26.5596 19.5877 26.7917C20.3089 27.0239 21.0708 27.1042 21.825 27.0275C22.5791 26.9508 23.3089 26.7188 23.9678 26.3463C24.6268 25.9738 25.2005 25.4689 25.6523 24.8639C26.1042 24.2588 26.4243 23.5669 26.5923 22.8321C26.7602 22.0973 26.7724 21.3358 26.628 20.596C26.4836 19.8563 26.1857 19.1546 25.7535 18.5356C25.3212 17.9166 24.7639 17.3939 24.1172 17.0007V17.0007ZM6.79774 7.96275H22.6228C22.6861 7.96271 22.7488 7.97535 22.8071 7.99989C22.8654 8.02444 22.9181 8.0604 22.9622 8.10563C23.0062 8.15086 23.0406 8.20443 23.0634 8.26316C23.0862 8.32189 23.0968 8.38458 23.0947 8.44749V11.2934H6.31009V8.44749C6.3079 8.38324 6.31901 8.31923 6.34274 8.25944C6.36647 8.19964 6.40231 8.14533 6.44804 8.09988C6.49377 8.05442 6.54841 8.01879 6.60856 7.99521C6.66872 7.97162 6.73311 7.96057 6.79774 7.96275V7.96275ZM6.31009 24.1936V12.3097H23.0947V16.516C22.4993 16.3022 21.8715 16.1911 21.2385 16.1876C20.2482 16.1871 19.2764 16.4552 18.428 16.963C17.5796 17.4708 16.8867 18.1991 16.4238 19.0694C15.961 19.9397 15.7458 20.919 15.8014 21.9019C15.857 22.8847 16.1814 23.8339 16.7395 24.6471H6.79774C6.67368 24.6473 6.55418 24.6006 6.46358 24.5163C6.37298 24.4321 6.31809 24.3167 6.31009 24.1936V24.1936ZM21.2542 26.0075C20.3769 26.0075 19.5192 25.7489 18.7897 25.2643C18.0602 24.7798 17.4916 24.0911 17.1559 23.2854C16.8201 22.4797 16.7322 21.593 16.9034 20.7377C17.0746 19.8823 17.4971 19.0966 18.1175 18.4799C18.7379 17.8632 19.5283 17.4433 20.3888 17.2731C21.2493 17.103 22.1412 17.1903 22.9518 17.524C23.7624 17.8578 24.4552 18.423 24.9427 19.1481C25.4301 19.8733 25.6903 20.7258 25.6903 21.5979C25.6924 22.1776 25.579 22.7519 25.3568 23.2878C25.1346 23.8238 24.808 24.3107 24.3956 24.7206C23.9833 25.1304 23.4934 25.4552 22.9543 25.676C22.4151 25.8969 21.8374 26.0095 21.2542 26.0075V26.0075Z"/>
<path d="M23.2835 22.6769L21.7734 21.5041V18.1579C21.7734 18.0251 21.7203 17.8979 21.6259 17.804C21.5315 17.7102 21.4035 17.6575 21.27 17.6575C21.1377 17.6614 21.012 17.7154 20.9184 17.8084C20.8249 17.9014 20.7706 18.0264 20.7666 18.1579V21.7543C20.7694 21.8327 20.7891 21.9095 20.8244 21.9797C20.8597 22.0498 20.9097 22.1116 20.9711 22.1608L22.6857 23.49C22.7744 23.562 22.8858 23.6008 23.0004 23.5994C23.0798 23.6 23.1583 23.5819 23.2294 23.5466C23.3005 23.5113 23.3622 23.4597 23.4094 23.3961C23.4747 23.2801 23.4979 23.1453 23.475 23.0143C23.4521 22.8833 23.3844 22.7641 23.2835 22.6769V22.6769Z"/>
</g>
<defs>
<clipPath>
<rect width="21.551" height="22.2041" transform="translate(5.22461 4.89796)"/>
</clipPath>
</defs>
</svg>
