<svg width="32" height="32" viewBox="0 0 32 32" xmlns="http://www.w3.org/2000/svg">
<g clip-path="url(#clip0_9220_25068)">
<path d="M26.635 11.0807L24.4955 8.94126C24.4616 8.90002 24.4185 8.86726 24.3697 8.84557C24.3209 8.82389 24.2678 8.81387 24.2144 8.81633H16.7496V5.66176C16.7496 5.55407 16.7069 5.45079 16.6307 5.37465C16.5546 5.2985 16.4513 5.25572 16.3436 5.25572H14.9381C14.8332 5.25976 14.7338 5.30432 14.661 5.38003C14.5882 5.45574 14.5476 5.55672 14.5477 5.66176V6.77054H7.80129C7.69785 6.77379 7.59864 6.81237 7.52019 6.87986L5.36508 9.00373C5.3273 9.04015 5.29724 9.08381 5.27671 9.13211C5.25619 9.18041 5.24561 9.23235 5.24561 9.28483C5.24561 9.33731 5.25619 9.38925 5.27671 9.43755C5.29724 9.48584 5.3273 9.52951 5.36508 9.56593L7.50457 11.7054C7.58076 11.7766 7.68141 11.8157 7.78567 11.8147H14.5477V12.4394H7.80129C7.74841 12.4401 7.69623 12.4515 7.64791 12.473C7.59959 12.4945 7.55614 12.5256 7.52019 12.5643L5.36508 14.7194C5.32815 14.7531 5.29864 14.7941 5.27845 14.8398C5.25826 14.8855 5.24783 14.9349 5.24783 14.9849C5.24783 15.0349 5.25826 15.0843 5.27845 15.13C5.29864 15.1757 5.32815 15.2167 5.36508 15.2504L7.50457 17.3899C7.58076 17.4611 7.68141 17.5002 7.78567 17.4992H14.5477V25.9322H10.6591C10.5541 25.9321 10.4531 25.9728 10.3774 26.0456C10.3017 26.1184 10.2571 26.2177 10.2531 26.3226C10.2531 26.3752 10.2637 26.4273 10.2842 26.4757C10.3048 26.5241 10.335 26.5679 10.3729 26.6044C10.4108 26.6408 10.4557 26.6693 10.5049 26.6879C10.5541 26.7066 10.6066 26.7152 10.6591 26.713H20.6382C20.7417 26.713 20.841 26.6719 20.9143 26.5987C20.9875 26.5255 21.0286 26.4262 21.0286 26.3226C21.0286 26.2191 20.9875 26.1198 20.9143 26.0466C20.841 25.9733 20.7417 25.9322 20.6382 25.9322H16.7496V13.8917H24.2144C24.3174 13.8862 24.4158 13.8479 24.4955 13.7824L26.635 11.6429C26.6958 11.5618 26.7287 11.4632 26.7287 11.3618C26.7287 11.2605 26.6958 11.1618 26.635 11.0807V11.0807ZM7.95745 11.0339L6.19277 9.28483L7.95745 7.53576H14.5477V11.0339H7.95745ZM7.95745 16.7496L6.19277 14.9849L7.95745 13.2358H14.5477V16.7496H7.95745ZM15.3285 25.9634V6.03656H15.9688V25.9634H15.3285ZM24.0583 13.1109H16.7496V9.59716H24.0583L25.8073 11.3618L24.0583 13.1109Z"/>
</g>
<defs>
<clipPath>
<rect width="21.551" height="21.551" transform="translate(5.22461 5.22449)"/>
</clipPath>
</defs>
</svg>
