<svg width="32" height="32" viewBox="0 0 32 32" xmlns="http://www.w3.org/2000/svg">
<path d="M26.9529 25.91L22.2083 21.2545C23.935 19.3438 24.8329 16.8488 24.7109 14.2998C24.589 11.7508 23.4569 9.34896 21.5554 7.60489C19.6538 5.86083 17.1328 4.91213 14.5283 4.9605C11.9238 5.00888 9.44132 6.05052 7.60862 7.86394C5.77593 9.67737 4.73759 12.1196 4.71439 14.6712C4.69118 17.2229 5.68493 19.6828 7.48435 21.528C9.28378 23.3731 11.7469 24.4579 14.3501 24.5517C16.9533 24.6455 19.4912 23.741 21.4242 22.0304L26.1687 26.6781C26.2727 26.78 26.4137 26.8372 26.5608 26.8372C26.7078 26.8372 26.8489 26.78 26.9529 26.6781C27.0569 26.5762 27.1153 26.4381 27.1153 26.294C27.1153 26.15 27.0569 26.0118 26.9529 25.91ZM5.89148 14.743C5.89295 13.3172 6.25255 11.9136 6.93855 10.656C7.62455 9.39848 8.61589 8.3256 9.82514 7.532C11.0344 6.7384 12.4244 6.24846 13.8726 6.10539C15.3208 5.96232 16.7827 6.17051 18.1294 6.71161C19.476 7.2527 20.6661 8.11008 21.5946 9.20813C22.5231 10.3062 23.1616 11.6112 23.4536 13.008C23.7457 14.4048 23.6824 15.8506 23.2694 17.2178C22.8563 18.5851 22.1062 19.8317 21.0851 20.8479C21.0709 20.8603 21.0535 20.8712 21.0392 20.8851C21.0262 20.8994 21.014 20.9145 21.0028 20.9301C19.7578 22.137 18.176 22.9558 16.4567 23.2834C14.7375 23.6111 12.9577 23.4328 11.3417 22.7712C9.72564 22.1095 8.34572 20.994 7.37582 19.5654C6.40592 18.1367 5.88945 16.4587 5.89148 14.743V14.743Z"/>
</svg>
