<svg width="32" height="32" viewBox="0 0 32 32" xmlns="http://www.w3.org/2000/svg">
<g clip-path="url(#clip0_9220_25074)">
<path d="M16.0476 27.0865C15.9475 27.0824 15.8496 27.0553 15.7617 27.0072L12.2828 24.9454C10.7503 24.0291 9.48128 22.7326 8.59892 21.1819C7.71656 19.6312 7.25091 17.879 7.24719 16.0955V9.1488C7.25002 8.95201 7.31009 8.76028 7.42008 8.59696C7.53007 8.43364 7.68525 8.30577 7.86672 8.22891L15.6823 4.99346C15.799 4.93839 15.9265 4.90983 16.0556 4.90983C16.1847 4.90983 16.3122 4.93839 16.4289 4.99346L24.1332 7.84827C24.3177 7.92271 24.4762 8.04955 24.5891 8.21306C24.7021 8.37657 24.7645 8.56957 24.7686 8.76816V16.1431C24.78 17.9197 24.3256 19.6683 23.4506 21.2152C22.5756 22.7622 21.3104 24.0536 19.7807 24.9613L16.3495 27.0231C16.2526 27.0592 16.1509 27.0806 16.0476 27.0865V27.0865ZM8.35916 9.2281V16.0955C8.36279 17.6873 8.77865 19.2511 9.56636 20.635C10.3541 22.019 11.4868 23.176 12.8547 23.9938L16.0476 25.8812L19.1929 23.9938C20.5558 23.1824 21.683 22.0298 22.4631 20.6502C23.2432 19.2705 23.6491 17.7115 23.6408 16.1272V8.84746L16.0635 6.04023L8.35916 9.2281Z"/>
<path d="M13.3949 19.5526C13.2994 19.5505 13.2062 19.5231 13.1248 19.4733C13.0531 19.4268 12.9939 19.3634 12.9524 19.2888C12.9109 19.2141 12.8883 19.1305 12.8865 19.0451V18.9341L13.3631 16.1586L11.3774 14.2237C11.2799 14.1267 11.223 13.9962 11.2186 13.8589C11.216 13.7901 11.229 13.7216 11.2565 13.6585C11.284 13.5953 11.3253 13.5392 11.3774 13.4941C11.4616 13.4059 11.574 13.3498 11.6951 13.3355L14.4433 12.939L15.6347 10.5124C15.6674 10.4 15.734 10.3003 15.8253 10.2269C15.924 10.1592 16.0434 10.1285 16.1625 10.1401C16.2817 10.1517 16.3929 10.2049 16.4766 10.2904L16.5243 10.3538L17.7951 12.939L20.5591 13.3196C20.6897 13.3315 20.8111 13.3919 20.8994 13.4888C20.9876 13.5857 21.0362 13.7121 21.0357 13.843C21.0382 13.9195 21.0222 13.9956 20.989 14.0646C20.9558 14.1336 20.9064 14.1936 20.8451 14.2395L18.8912 16.1427L19.3677 18.9975C19.3678 19.1013 19.3378 19.2029 19.2815 19.2901C19.2251 19.3773 19.1447 19.4465 19.05 19.4892L18.9547 19.5368H18.6847L16.1112 18.1728L13.649 19.5051C13.5679 19.5362 13.4818 19.5523 13.3949 19.5526V19.5526ZM15.9842 17.1895H16.2701L18.2875 18.2521L17.9222 16.0317V15.7779L19.606 14.1444L17.4774 13.843C17.3822 13.8319 17.2919 13.795 17.2163 13.7363C17.1407 13.6776 17.0827 13.5993 17.0485 13.51L16.143 11.6861L15.174 13.6368L15.1105 13.7003C15.0208 13.7925 14.9039 13.8536 14.7769 13.8747L12.6641 14.1761L14.348 15.8097V16.1427L13.9826 18.268L15.9842 17.1895Z"/>
</g>
<defs>
<clipPath>
<rect width="17.6327" height="22.2041" transform="translate(7.18372 4.89796)"/>
</clipPath>
</defs>
</svg>
