<svg width="32" height="32" viewBox="0 0 32 32" xmlns="http://www.w3.org/2000/svg">
<path d="M26.5525 5.94534C26.4804 5.86966 26.3887 5.81661 26.288 5.79247C26.1874 5.76833 26.0821 5.7741 25.9845 5.8091L5.6261 13.0851C5.53533 13.1177 5.45466 13.1743 5.39233 13.2491C5.33001 13.3239 5.28827 13.4142 5.27138 13.5109C5.25449 13.6076 5.26305 13.7071 5.2962 13.7993C5.32935 13.8915 5.3859 13.9731 5.46005 14.0356L9.44204 17.3766L9.4529 22.3366C9.4531 22.4387 9.48087 22.5387 9.53317 22.6256C9.58547 22.7126 9.66026 22.7831 9.74931 22.8295C9.83837 22.8759 9.93822 22.8962 10.0379 22.8884C10.1375 22.8805 10.2331 22.8447 10.3142 22.7849L12.9368 20.8507L18.6785 26.015C18.7782 26.104 18.9061 26.153 19.0385 26.1529C19.1488 26.1532 19.2566 26.1191 19.3473 26.0551C19.438 25.9911 19.5073 25.9003 19.546 25.7948L26.6766 6.52831C26.7127 6.42919 26.7202 6.32159 26.6982 6.21826C26.6762 6.11494 26.6256 6.02022 26.5525 5.94534V5.94534ZM10.5283 17.318L19.802 11.1398C19.8942 11.0664 19.9559 10.9603 19.975 10.8426C19.994 10.7249 19.969 10.6042 19.9049 10.5044C19.8408 10.4047 19.7423 10.3332 19.629 10.3042C19.5156 10.2751 19.3957 10.2907 19.293 10.3477L10.0845 16.4752L6.89549 13.8059L24.3148 7.58178L12.6761 19.6832C12.6668 19.6875 12.6579 19.6928 12.6497 19.699L10.5361 21.2594L10.5283 17.318ZM18.8104 24.659L13.6553 20.0253L24.8176 8.41504L18.8104 24.659Z"/>
</svg>
