<svg width="32" height="32" viewBox="0 0 32 32" xmlns="http://www.w3.org/2000/svg">
<g clip-path="url(#clip0_9220_25078)">
<path d="M27.2236 15.5945H25.082C24.972 14.8431 24.5856 14.1555 23.9939 13.6579C23.4022 13.1604 22.645 12.8864 21.8614 12.8864C21.0778 12.8864 20.3205 13.1604 19.7288 13.6579C19.1372 14.1555 18.7508 14.8431 18.6408 15.5945H4.77622C4.6481 15.5945 4.52522 15.6438 4.43463 15.7315C4.34403 15.8193 4.29313 15.9383 4.29313 16.0624C4.29089 16.1244 4.30184 16.1862 4.32532 16.244C4.3488 16.3017 4.38431 16.3542 4.42962 16.3981C4.47494 16.4419 4.5291 16.4763 4.58872 16.4991C4.64835 16.5218 4.71218 16.5324 4.77622 16.5302H18.6408C18.7508 17.2816 19.1372 17.9693 19.7288 18.4668C20.3205 18.9644 21.0778 19.2383 21.8614 19.2383C22.645 19.2383 23.4022 18.9644 23.9939 18.4668C24.5856 17.9693 24.972 17.2816 25.082 16.5302H27.2236C27.2877 16.5324 27.3515 16.5218 27.4111 16.4991C27.4708 16.4763 27.5249 16.4419 27.5702 16.3981C27.6155 16.3542 27.6511 16.3017 27.6745 16.244C27.698 16.1862 27.709 16.1244 27.7067 16.0624C27.7067 15.9383 27.6558 15.8193 27.5652 15.7315C27.4746 15.6438 27.3518 15.5945 27.2236 15.5945ZM21.8614 18.2769C21.4091 18.2769 20.967 18.1471 20.591 17.9037C20.215 17.6604 19.9219 17.3145 19.7488 16.9099C19.5758 16.5052 19.5305 16.0599 19.6187 15.6303C19.7069 15.2008 19.9247 14.8062 20.2445 14.4964C20.5643 14.1867 20.9717 13.9758 21.4153 13.8904C21.8588 13.8049 22.3186 13.8488 22.7364 14.0164C23.1542 14.184 23.5114 14.4679 23.7626 14.832C24.0139 15.1962 24.148 15.6244 24.148 16.0624C24.1438 16.6485 23.9015 17.2094 23.4736 17.6238C23.0457 18.0382 22.4665 18.2729 21.8614 18.2769V18.2769Z"/>
<path d="M4.7763 9.37191H7.52989C7.67858 10.0847 8.07733 10.7258 8.65848 11.1863C9.23963 11.6468 9.96738 11.8984 10.7183 11.8984C11.4691 11.8984 12.1969 11.6468 12.778 11.1863C13.3592 10.7258 13.7579 10.0847 13.9066 9.37191H27.2237C27.3518 9.37191 27.4747 9.32262 27.5653 9.23488C27.6559 9.14714 27.7068 9.02813 27.7068 8.90405C27.7068 8.77996 27.6559 8.66096 27.5653 8.57322C27.4747 8.48547 27.3518 8.43618 27.2237 8.43618H13.9549C13.8748 7.65874 13.4992 6.9379 12.901 6.4136C12.3029 5.8893 11.525 5.59897 10.7183 5.59897C9.91154 5.59897 9.13359 5.8893 8.53548 6.4136C7.93736 6.9379 7.56176 7.65874 7.48158 8.43618H4.7763C4.64818 8.43618 4.5253 8.48547 4.43471 8.57322C4.34411 8.66096 4.29321 8.77996 4.29321 8.90405C4.29321 9.02813 4.34411 9.14714 4.43471 9.23488C4.5253 9.32262 4.64818 9.37191 4.7763 9.37191V9.37191ZM10.7183 6.54913C11.1705 6.54913 11.6126 6.67901 11.9886 6.92235C12.3647 7.16569 12.6577 7.51155 12.8308 7.91621C13.0039 8.32087 13.0492 8.76614 12.9609 9.19573C12.8727 9.62531 12.6549 10.0199 12.3351 10.3296C12.0154 10.6393 11.6079 10.8502 11.1644 10.9357C10.7208 11.0211 10.261 10.9773 9.84321 10.8097C9.42539 10.6421 9.06827 10.3582 8.81702 9.99403C8.56576 9.62985 8.43165 9.20169 8.43165 8.76369C8.43587 8.17761 8.67813 7.6167 9.10605 7.20227C9.53396 6.78784 10.1131 6.55321 10.7183 6.54913V6.54913Z"/>
<path d="M27.2237 22.7529H17.8357C17.7257 22.0015 17.3394 21.3138 16.7477 20.8163C16.156 20.3187 15.3987 20.0448 14.6152 20.0448C13.8316 20.0448 13.0743 20.3187 12.4826 20.8163C11.8909 21.3138 11.5046 22.0015 11.3946 22.7529H4.7763C4.64818 22.7529 4.5253 22.8021 4.43471 22.8899C4.34411 22.9776 4.29321 23.0966 4.29321 23.2207C4.29321 23.3448 4.34411 23.4638 4.43471 23.5515C4.5253 23.6393 4.64818 23.6886 4.7763 23.6886H11.3946C11.5046 24.44 11.8909 25.1276 12.4826 25.6252C13.0743 26.1227 13.8316 26.3967 14.6152 26.3967C15.3987 26.3967 16.156 26.1227 16.7477 25.6252C17.3394 25.1276 17.7257 24.44 17.8357 23.6886H27.2237C27.3518 23.6886 27.4747 23.6393 27.5653 23.5515C27.6559 23.4638 27.7068 23.3448 27.7068 23.2207C27.7068 23.0966 27.6559 22.9776 27.5653 22.8899C27.4747 22.8021 27.3518 22.7529 27.2237 22.7529ZM14.6152 25.4353C14.1629 25.4353 13.7208 25.3054 13.3448 25.0621C12.9688 24.8187 12.6757 24.4728 12.5026 24.0682C12.3295 23.6635 12.2843 23.2183 12.3725 22.7887C12.4607 22.3591 12.6785 21.9645 12.9983 21.6548C13.3181 21.3451 13.7255 21.1342 14.1691 21.0487C14.6126 20.9633 15.0724 21.0071 15.4902 21.1747C15.908 21.3423 16.2651 21.6262 16.5164 21.9904C16.7677 22.3546 16.9018 22.7827 16.9018 23.2207C16.8975 23.8068 16.6553 24.3677 16.2274 24.7821C15.7995 25.1966 15.2203 25.4312 14.6152 25.4353V25.4353Z"/>
</g>
<defs>
<clipPath>
<rect width="23.5102" height="20.898" transform="translate(4.24487 5.55102)"/>
</clipPath>
</defs>
</svg>
