<svg width="32" height="32" viewBox="0 0 32 32" xmlns="http://www.w3.org/2000/svg">
<g clip-path="url(#clip0_9220_25086)">
<path d="M11.4063 12.2118H12.2415C12.5738 12.2118 12.8924 12.3449 13.1274 12.5817C13.3623 12.8185 13.4943 13.1397 13.4943 13.4746C13.4943 13.5862 13.5383 13.6932 13.6166 13.7722C13.695 13.8511 13.8012 13.8955 13.9119 13.8955C14.0227 13.8955 14.1289 13.8511 14.2072 13.7722C14.2856 13.6932 14.3296 13.5862 14.3296 13.4746C14.3296 13.1982 14.2756 12.9245 14.1706 12.6692C14.0657 12.4138 13.9119 12.1818 13.718 11.9864C13.5241 11.791 13.2939 11.636 13.0406 11.5302C12.7872 11.4244 12.5157 11.37 12.2415 11.37H11.4063C11.1315 11.3679 10.859 11.421 10.6047 11.526C10.3505 11.631 10.1195 11.786 9.92517 11.9818C9.73086 12.1776 9.57713 12.4105 9.47293 12.6667C9.36872 12.923 9.31611 13.1976 9.31817 13.4746V14.3164C9.31817 14.8745 9.53817 15.4098 9.92976 15.8045C10.3213 16.1992 10.8525 16.4209 11.4063 16.4209H12.2415C12.5738 16.4209 12.8924 16.554 13.1274 16.7908C13.3623 17.0276 13.4943 17.3487 13.4943 17.6836V18.5255C13.4943 18.8604 13.3623 19.1815 13.1274 19.4183C12.8924 19.6551 12.5738 19.7882 12.2415 19.7882H11.4063C11.074 19.7882 10.7553 19.6551 10.5204 19.4183C10.2854 19.1815 10.1534 18.8604 10.1534 18.5255C10.1534 18.4138 10.1094 18.3068 10.0311 18.2278C9.95277 18.1489 9.84655 18.1045 9.73579 18.1045C9.62503 18.1045 9.51881 18.1489 9.44049 18.2278C9.36217 18.3068 9.31817 18.4138 9.31817 18.5255C9.31817 19.0836 9.53817 19.6189 9.92976 20.0136C10.3213 20.4083 10.8525 20.63 11.4063 20.63H12.2415C12.5157 20.63 12.7872 20.5756 13.0406 20.4698C13.2939 20.364 13.5241 20.209 13.718 20.0136C13.9119 19.8182 14.0657 19.5862 14.1706 19.3308C14.2756 19.0755 14.3296 18.8018 14.3296 18.5255V17.6836C14.3296 17.4073 14.2756 17.1336 14.1706 16.8783C14.0657 16.6229 13.9119 16.3909 13.718 16.1955C13.5241 16.0001 13.2939 15.8451 13.0406 15.7393C12.7872 15.6335 12.5157 15.5791 12.2415 15.5791H11.4063C11.074 15.5791 10.7553 15.4461 10.5204 15.2093C10.2854 14.9724 10.1534 14.6513 10.1534 14.3164V13.4746C10.1534 13.1397 10.2854 12.8185 10.5204 12.5817C10.7553 12.3449 11.074 12.2118 11.4063 12.2118V12.2118Z"/>
<path d="M24.9401 13.0536C24.2811 11.6877 23.1864 10.5843 21.8311 9.92022C21.844 9.83774 21.8492 9.75424 21.8466 9.67079C21.8432 8.96335 21.5887 8.28051 21.1291 7.74581C20.6695 7.21111 20.0352 6.85986 19.3409 6.75561V5.19669C19.3407 5.01235 19.3004 4.8303 19.2229 4.66332C19.1454 4.49635 19.0326 4.3485 18.8924 4.23016C18.679 4.06273 18.42 3.96484 18.1499 3.94955H17.8715L5.66788 6.13204C5.28013 6.20187 4.92934 6.40756 4.67745 6.71278C4.42557 7.01799 4.2888 7.4031 4.29129 7.80009V24.2155C4.29244 24.6098 4.43086 24.9912 4.68243 25.2932C4.934 25.5952 5.28275 25.7986 5.66788 25.868L17.8715 28.0349H18.0881C18.2524 28.0391 18.4159 28.0098 18.5688 27.9488C18.7217 27.8878 18.8608 27.7964 18.9778 27.6799C19.0947 27.5635 19.1872 27.4245 19.2496 27.2712C19.312 27.1179 19.3431 26.9534 19.3409 26.7877V25.2288C20.0365 25.1276 20.6726 24.7773 21.1328 24.2419C21.593 23.7065 21.8464 23.022 21.8466 22.3136C21.8492 22.2302 21.844 22.1467 21.8311 22.0642C23.1864 21.4001 24.2811 20.2967 24.9401 18.9308C25.7154 18.9308 26.4589 18.6204 27.0072 18.0678C27.5554 17.5153 27.8634 16.7658 27.8634 15.9844C27.8634 15.203 27.5554 14.4536 27.0072 13.901C26.4589 13.3485 25.7154 13.0381 24.9401 13.0381V13.0536ZM18.5057 26.8033C18.5083 26.8643 18.4955 26.9249 18.4685 26.9794C18.4414 27.034 18.401 27.0807 18.351 27.1151C18.3057 27.1568 18.2512 27.187 18.1921 27.2033C18.1329 27.2195 18.0708 27.2214 18.0107 27.2086L5.82255 25.0417C5.62857 25.0087 5.45239 24.9077 5.32506 24.7565C5.19772 24.6054 5.12742 24.4138 5.12652 24.2155V7.80009C5.12426 7.60094 5.19344 7.40768 5.32133 7.25587C5.44922 7.10405 5.62722 7.00391 5.82255 6.97386L18.0262 4.80696H18.1345C18.237 4.81851 18.3317 4.86791 18.4002 4.94563C18.4688 5.02334 18.5063 5.12388 18.5057 5.22787V26.8033ZM19.3409 7.6286C19.7991 7.72248 20.2127 7.96862 20.5156 8.32759C20.8185 8.68655 20.9931 9.13758 21.0114 9.60843V9.68638C21.0131 9.94757 20.9659 10.2067 20.8722 10.4503C20.7431 10.7784 20.5359 11.0695 20.2689 11.2978C20.0018 11.5262 19.6832 11.6848 19.3409 11.7597V7.6286ZM21.0114 22.4228C20.9979 22.8934 20.8247 23.3451 20.5207 23.7025C20.2167 24.06 19.8003 24.3016 19.3409 24.387V20.2559C19.6865 20.3283 20.0082 20.4878 20.2759 20.7196C20.5437 20.9513 20.7489 21.2476 20.8722 21.5809C20.967 21.8241 21.0143 22.0835 21.0114 22.3448V22.4228ZM21.6455 21.2224C21.4533 20.7417 21.1393 20.3203 20.7349 20.0003C20.3305 19.6802 19.8498 19.4727 19.3409 19.3985V12.586C19.8508 12.5209 20.3339 12.3187 20.7394 12.0005C21.1449 11.6823 21.4579 11.2599 21.6455 10.7776C22.6542 11.3186 23.4866 12.1414 24.043 13.1472C23.4154 13.3105 22.8595 13.6793 22.4626 14.1957C22.0658 14.7121 21.8504 15.3468 21.8504 16C21.8504 16.6532 22.0658 17.2879 22.4626 17.8043C22.8595 18.3207 23.4154 18.6895 24.043 18.8528C23.4909 19.862 22.6574 20.6858 21.6455 21.2224V21.2224ZM25.3113 18.0578C25.1396 18.1024 24.9627 18.1234 24.7854 18.1201L24.4142 18.089C23.9298 18.004 23.4906 17.7494 23.1742 17.3701C22.8577 16.9908 22.6842 16.5112 22.6842 16.0156C22.6842 15.52 22.8577 15.0403 23.1742 14.6611C23.4906 14.2818 23.9298 14.0272 24.4142 13.9422C24.5338 13.9026 24.6598 13.8867 24.7854 13.8955C24.9627 13.8922 25.1396 13.9132 25.3113 13.9578C25.7604 14.0772 26.1576 14.3431 26.441 14.7139C26.7245 15.0847 26.8782 15.5397 26.8782 16.0078C26.8782 16.4759 26.7245 16.9309 26.441 17.3017C26.1576 17.6725 25.7604 17.9384 25.3113 18.0578V18.0578Z"/>
</g>
<defs>
<clipPath>
<rect width="23.5102" height="24.1633" transform="translate(4.24487 3.91837)"/>
</clipPath>
</defs>
</svg>
