<svg width="32" height="32" viewBox="0 0 32 32" xmlns="http://www.w3.org/2000/svg">
<path d="M19.3268 5.66337H12.7193C12.0534 5.6642 11.4151 5.92896 10.9442 6.39962C10.4732 6.87028 10.208 7.50844 10.2068 8.17426V23.8257C10.2076 24.4918 10.4726 25.1304 10.9436 25.6014C11.4146 26.0724 12.0532 26.3374 12.7193 26.3382H19.3268C19.9926 26.337 20.6308 26.0718 21.1014 25.6008C21.5721 25.1299 21.8368 24.4916 21.8377 23.8257V8.17426C21.8368 7.50858 21.572 6.87042 21.1013 6.39972C20.6306 5.92901 19.9925 5.6642 19.3268 5.66337V5.66337ZM20.7288 23.8257C20.7283 24.1974 20.5805 24.5538 20.3177 24.8166C20.0548 25.0795 19.6985 25.2273 19.3268 25.2277H12.7193C12.3474 25.2273 11.9909 25.0795 11.7278 24.8167C11.4647 24.5539 11.3165 24.1976 11.3157 23.8257V8.17426C11.3165 7.80241 11.4647 7.44606 11.7278 7.18327C11.9909 6.92049 12.3474 6.7727 12.7193 6.77228H19.3268C19.6985 6.7727 20.0548 6.92054 20.3177 7.18337C20.5805 7.4462 20.7283 7.80256 20.7288 8.17426V23.8257Z"/>
<path d="M16.1267 21.6143C15.9811 21.6123 15.8365 21.639 15.7012 21.6929C15.5659 21.7468 15.4426 21.8268 15.3382 21.9284C15.2339 22.03 15.1505 22.1511 15.093 22.2849C15.0354 22.4187 15.0048 22.5625 15.0028 22.7081C15.0008 22.8537 15.0275 22.9983 15.0814 23.1336C15.1353 23.2689 15.2154 23.3923 15.3169 23.4966C15.4185 23.601 15.5396 23.6843 15.6734 23.7419C15.8072 23.7995 15.951 23.8301 16.0966 23.8321H16.122C16.4161 23.8321 16.6982 23.7152 16.9061 23.5073C17.1141 23.2993 17.2309 23.0173 17.2309 22.7232C17.2309 22.4291 17.1141 22.147 16.9061 21.939C16.6982 21.7311 16.4161 21.6143 16.122 21.6143H16.1267Z"/>
</svg>
