<svg width="32" height="32" viewBox="0 0 32 32" xmlns="http://www.w3.org/2000/svg">
<path d="M23.7528 12.3564H22.3128V11.5295C22.3118 11.0123 22.1619 10.5062 21.881 10.0719C21.6 9.63761 21.2 9.29339 20.7286 9.0804L19.8526 5.39406C19.8234 5.27272 19.7543 5.1647 19.6563 5.08741C19.5583 5.01011 19.4372 4.96803 19.3124 4.96793H12.9995C12.8782 4.96789 12.7603 5.0075 12.6636 5.08071C12.5669 5.15393 12.4969 5.25673 12.464 5.37347L11.4565 9.00278C10.937 9.19244 10.4885 9.53746 10.1719 9.99094C9.8553 10.4444 9.68601 10.9844 9.68702 11.5374V20.6907C9.68753 21.2376 9.85453 21.7714 10.1658 22.221C10.4771 22.6707 10.9179 23.0149 11.4296 23.2079L12.3025 26.8753C12.3313 26.9965 12.4001 27.1044 12.4978 27.1818C12.5956 27.2591 12.7165 27.3012 12.8411 27.3014H19.1603C19.2815 27.3012 19.3994 27.2614 19.4958 27.1878C19.5923 27.1143 19.6619 27.0112 19.6941 26.8943L20.7365 23.1287C21.2064 22.9146 21.6048 22.5699 21.8843 22.1356C22.1637 21.7014 22.3125 21.196 22.3128 20.6796V16.5545H23.7528C23.8998 16.5545 24.0408 16.496 24.1448 16.3921C24.2488 16.2881 24.3072 16.1471 24.3072 16V12.903C24.3051 12.7573 24.2458 12.6183 24.142 12.516C24.0383 12.4138 23.8985 12.3564 23.7528 12.3564ZM13.4209 6.07684H18.8799L19.5357 8.83486H12.6541L13.4209 6.07684ZM18.7373 26.1846H13.2783L12.6114 23.3774H19.5183L18.7373 26.1846ZM21.2039 20.6828C21.2039 21.1029 21.0369 21.5059 20.7399 21.8029C20.4428 22.1 20.0398 22.2669 19.6197 22.2669H12.3817C11.9615 22.2669 11.5586 22.1 11.2615 21.8029C10.9644 21.5059 10.7975 21.1029 10.7975 20.6828V11.5295C10.7977 11.1855 10.9098 10.8508 11.117 10.5761C11.3242 10.3015 11.6152 10.1017 11.946 10.0071C12.0003 10.0018 12.0536 9.98904 12.1044 9.96911C12.1938 9.95254 12.2845 9.94406 12.3753 9.94377H19.6118C20.0319 9.94377 20.4349 10.1107 20.7319 10.4078C21.029 10.7048 21.1959 11.1078 21.1959 11.5279L21.2039 20.6828ZM23.1983 15.4456H22.3128V13.4654H23.1983V15.4456Z"/>
</svg>
