<svg width="32" height="32" viewBox="0 0 32 32" xmlns="http://www.w3.org/2000/svg">
<path d="M17.9802 5.32277C17.7743 5.27525 17.5684 5.30693 17.3783 5.41782L9.44162 10.5663H5.41786C5.11687 10.5663 4.8634 10.8198 4.8634 11.1208V19.8495C4.8634 20.1505 5.11687 20.404 5.41786 20.404H9.90103L17.3624 25.9168C17.3783 25.9327 17.3941 25.9485 17.4258 25.9485C17.5208 25.996 17.6317 26.0277 17.7426 26.0436H17.806C17.9961 26.0436 18.1703 25.9802 18.3129 25.8535C18.4713 25.7109 18.5664 25.5208 18.5822 25.3149V6.06732C18.5822 5.94059 18.5505 5.79802 18.4713 5.68713C18.3604 5.49703 18.1862 5.37029 17.9802 5.32277V5.32277ZM10.408 19.3901C10.3129 19.3267 10.202 19.2792 10.0753 19.2792H5.97231V11.6752H9.60004C9.71093 11.6752 9.80598 11.6436 9.90103 11.5802L17.4416 6.68515V24.5861L10.408 19.3901V19.3901ZM24.1268 15.5723L26.7723 12.895C26.9941 12.6733 26.9783 12.3248 26.7723 12.1188C26.5505 11.897 26.202 11.9129 25.9961 12.1188L23.3505 14.7802L20.705 12.1188C20.4832 11.897 20.1347 11.897 19.9287 12.1188C19.707 12.3406 19.707 12.6891 19.9287 12.895L22.5743 15.5723L19.9287 18.2495C19.707 18.4713 19.7228 18.8198 19.9287 19.0257C20.0396 19.1366 20.1822 19.1842 20.3248 19.1842C20.4674 19.1842 20.6099 19.1366 20.7208 19.0257L23.3664 16.3644L26.0119 19.0257C26.1228 19.1366 26.2654 19.1842 26.408 19.1842C26.5505 19.1842 26.6931 19.1366 26.804 19.0257C27.0258 18.804 27.0258 18.4554 26.804 18.2495L24.1268 15.5723V15.5723Z"/>
</svg>
