<svg width="32" height="32" viewBox="0 0 32 32" xmlns="http://www.w3.org/2000/svg">
<path d="M17.9397 5.32277C17.738 5.27525 17.5362 5.30693 17.35 5.41782L9.57536 10.5663H5.63372C5.33887 10.5663 5.09058 10.8198 5.09058 11.1208V19.8495C5.09058 20.1505 5.33887 20.404 5.63372 20.404H10.0254L17.3345 25.9168C17.35 25.9327 17.3655 25.9485 17.3966 25.9485C17.4897 25.996 17.5983 26.0277 17.7069 26.0436H17.769C17.9552 26.0436 18.1259 25.9802 18.2656 25.8535C18.4208 25.7109 18.5139 25.5208 18.5294 25.3149V6.06733C18.5294 5.9406 18.4984 5.79802 18.4208 5.68713C18.3122 5.49703 18.1415 5.3703 17.9397 5.32277V5.32277ZM17.4276 24.602L10.522 19.3901C10.4289 19.3267 10.3202 19.2792 10.1961 19.2792H6.17686V11.6752H9.73054C9.83917 11.6752 9.93228 11.6436 10.0254 11.5802L17.4121 6.68515V24.602H17.4276ZM25.7765 14.701H20.5933C20.2985 14.701 20.0502 14.9545 20.0502 15.2554C20.0502 15.5564 20.2985 15.8099 20.5933 15.8099H25.7765C26.0713 15.8099 26.3196 15.5564 26.3196 15.2554C26.3196 14.9545 26.0868 14.701 25.7765 14.701ZM25.0781 20.3248L20.5933 17.6158C20.3295 17.4574 20.0037 17.5525 19.8485 17.8059C19.6933 18.0753 19.7864 18.4079 20.0347 18.5663L24.5195 21.2753C24.6126 21.3228 24.7057 21.3545 24.7988 21.3545C24.985 21.3545 25.1712 21.2594 25.2643 21.0852C25.4195 20.8158 25.3264 20.4673 25.0781 20.3248V20.3248ZM20.5933 13.0852C20.6865 13.0852 20.7796 13.0535 20.8727 13.0059L25.3575 10.297C25.6213 10.1386 25.6989 9.80594 25.5437 9.53664C25.3885 9.26733 25.0626 9.18812 24.7988 9.34654L20.314 12.0554C20.0502 12.2139 19.9726 12.5465 20.1278 12.8158C20.2364 12.9901 20.4226 13.0852 20.5933 13.0852V13.0852Z"/>
</svg>
