<svg width="32" height="32" viewBox="0 0 32 32" xmlns="http://www.w3.org/2000/svg">
<g clip-path="url(#clip0_9220_25110)">
<path fill-rule="evenodd" clip-rule="evenodd" d="M5.85008 5.51489C5.48941 5.51489 5.19702 5.80728 5.19702 6.16795V25.8321C5.19702 26.1928 5.48941 26.4851 5.85008 26.4851C6.21076 26.4851 6.50314 26.1928 6.50314 25.8321V18.8046H25.4969V25.8321C25.4969 26.1928 25.7893 26.4851 26.15 26.4851C26.5106 26.4851 26.803 26.1928 26.803 25.8321V6.16795C26.803 5.80728 26.5106 5.51489 26.15 5.51489H5.85008ZM8.28984 17.4984H6.50314V15.7301H8.2742V13.9618H10.4794V15.7301H8.28984V17.4984ZM12.6689 15.7301V17.4984H10.4794V15.7301H12.6689ZM17.0635 15.7301V17.4984H14.8584V15.7301H12.6689V13.9618H14.874V15.7301H17.0635ZM21.4582 15.7301V17.4984H19.253V15.7301H17.0635V13.9618H19.2687V15.7301H21.4582ZM21.4582 15.7301V13.9618H23.6633V15.7301H25.4969V17.4984H23.6477V15.7301H21.4582ZM25.4969 12.6557H6.50314V6.82102H25.4969V12.6557ZM21.6458 7.78736H24.8988V8.25004H23.5382V11.8281H23.0064V8.25004H21.6458V7.78736ZM19.7534 8.25004H18.6118V9.73064H19.7534C20.3008 9.73064 20.5667 9.42218 20.5667 8.99034C20.5667 8.5585 20.3008 8.25004 19.7534 8.25004ZM21.2392 11.8281H20.6449L19.5501 10.1933H18.6118V11.8281H18.08V7.80278H19.7691C20.6605 7.80278 21.1141 8.34258 21.1141 9.00576C21.1141 9.57641 20.7856 10.0545 20.1131 10.1779L21.2392 11.8281ZM15.4057 8.65104L14.8427 10.1779H16.2189L15.6716 8.65104L15.5464 8.23462L15.4057 8.65104ZM17.4232 11.8281H16.8289L16.391 10.6406H14.6706L14.2327 11.8281H13.6697L15.2493 7.78736H15.8436L17.4232 11.8281ZM10.6201 7.78736H13.873V8.25004H12.5124V11.8281H11.9807V8.25004H10.6201V7.78736ZM10.4793 10.7023C10.4793 11.35 10.0258 11.9053 8.89972 11.9053C7.88317 11.9053 7.30451 11.4426 7.24195 10.5172H7.75805C7.82061 11.1804 8.22723 11.4734 8.931 11.4734C9.63477 11.4734 9.97884 11.1958 9.97884 10.7331C9.97884 10.3475 9.75989 10.1316 9.11867 10.0082L8.54002 9.88486C7.88317 9.74606 7.39835 9.48387 7.39835 8.83611C7.39835 8.1575 7.89881 7.69482 8.83717 7.69482C9.74425 7.69482 10.2916 8.12666 10.3542 8.91322H9.83808C9.79117 8.40427 9.43146 8.12666 8.80589 8.12666C8.22723 8.12666 7.88317 8.358 7.88317 8.78984C7.88317 9.11372 8.07084 9.2988 8.58694 9.40676L9.30635 9.56098C10.0727 9.71521 10.4793 10.0699 10.4793 10.7023Z"/>
</g>
<defs>
<clipPath>
<rect width="21.551" height="20.898" transform="translate(5.22461 5.55103)"/>
</clipPath>
</defs>
</svg>
