<svg width="32" height="32" viewBox="0 0 32 32" xmlns="http://www.w3.org/2000/svg">
<g clip-path="url(#clip0_9220_25114)">
<path d="M11.2434 6.69361C11.3371 6.69573 11.4286 6.7228 11.5086 6.77208L25.3574 15.5763C25.4249 15.6204 25.4805 15.6809 25.5189 15.7521C25.5574 15.8234 25.5775 15.9032 25.5775 15.9843C25.5775 16.0654 25.5574 16.1452 25.5189 16.2165C25.4805 16.2877 25.4249 16.3482 25.3574 16.3923L11.5086 25.2122C11.432 25.2688 11.3382 25.2966 11.2434 25.2907C11.1111 25.2907 10.9841 25.2378 10.8905 25.1436C10.797 25.0494 10.7444 24.9217 10.7444 24.7885V21.0377L16.2652 17.0358C16.4741 16.8836 16.6431 16.6826 16.7576 16.4501C16.8722 16.2175 16.9288 15.9605 16.9227 15.701C16.9165 15.4415 16.8478 15.1875 16.7224 14.9607C16.597 14.7339 16.4187 14.5412 16.2028 14.3992L10.7444 10.7269V7.19581C10.7444 7.06262 10.797 6.93489 10.8905 6.8407C10.9841 6.74652 11.1111 6.69361 11.2434 6.69361V6.69361ZM11.2434 5.90893C10.9043 5.90893 10.579 6.04451 10.3392 6.28585C10.0993 6.52719 9.9646 6.85451 9.9646 7.19581V11.1663L15.7817 15.0584C15.8898 15.1329 15.9788 15.2322 16.0412 15.3482C16.1036 15.4641 16.1378 15.5933 16.1408 15.7252C16.1439 15.857 16.1157 15.9877 16.0587 16.1064C16.0017 16.2251 15.9174 16.3285 15.8129 16.408L9.9802 20.6453V24.8042C9.9802 25.1455 10.1149 25.4728 10.3548 25.7141C10.5946 25.9555 10.9199 26.0911 11.259 26.0911C11.5097 26.0914 11.7546 26.0147 11.9608 25.8713L25.8096 17.0515C25.9877 16.9373 26.134 16.7794 26.235 16.5928C26.3359 16.4062 26.3881 16.1968 26.3867 15.9843C26.3852 15.7724 26.3318 15.564 26.2312 15.3779C26.1305 15.1917 25.9857 15.0334 25.8096 14.9171L11.9608 6.09725C11.7398 5.97849 11.494 5.91397 11.2434 5.90893V5.90893Z"/>
<path d="M6.40877 10.9152L13.6763 15.796L6.40877 21.0848V10.9152ZM6.2996 10.0521C6.11761 10.0521 5.94307 10.1248 5.81439 10.2543C5.6857 10.3838 5.6134 10.5595 5.6134 10.7426V21.2731C5.6134 21.4562 5.6857 21.6319 5.81439 21.7614C5.94307 21.8909 6.11761 21.9636 6.2996 21.9636C6.43893 21.9607 6.57441 21.9171 6.68949 21.8381L14.2377 16.3609C14.3269 16.296 14.3993 16.2104 14.4487 16.1113C14.4982 16.0123 14.5232 15.9027 14.5216 15.7919C14.5201 15.6811 14.4921 15.5723 14.44 15.4746C14.3878 15.377 14.3131 15.2934 14.2221 15.231L6.6739 10.1619C6.56311 10.0879 6.43256 10.0496 6.2996 10.0521V10.0521Z"/>
</g>
<defs>
<clipPath>
<rect width="20.898" height="20.2449" transform="translate(5.55103 5.87755)"/>
</clipPath>
</defs>
</svg>
