<svg width="32" height="32" viewBox="0 0 32 32" xmlns="http://www.w3.org/2000/svg">
<path d="M16.0141 10.4491C14.8934 10.4491 13.7978 10.7747 12.866 11.3846C11.9341 11.9945 11.2078 12.8615 10.7789 13.8758C10.3501 14.8901 10.2378 16.0062 10.4565 17.0829C10.6751 18.1597 11.2148 19.1488 12.0073 19.9251C12.7998 20.7014 13.8095 21.23 14.9087 21.4442C16.0079 21.6584 17.1472 21.5485 18.1826 21.1284C19.2181 20.7082 20.103 19.9967 20.7257 19.0839C21.3483 18.1711 21.6807 17.0979 21.6807 16C21.6786 14.5284 21.0809 13.1177 20.0187 12.0772C18.9564 11.0366 17.5164 10.4512 16.0141 10.4491V10.4491ZM16.0141 20.4646C15.1127 20.4646 14.2316 20.2028 13.4821 19.7122C12.7326 19.2216 12.1484 18.5243 11.8034 17.7085C11.4585 16.8927 11.3682 15.995 11.5441 15.129C11.7199 14.2629 12.154 13.4674 12.7914 12.843C13.4288 12.2187 14.2409 11.7934 15.125 11.6212C16.0091 11.4489 16.9255 11.5373 17.7583 11.8752C18.5911 12.2132 19.3029 12.7854 19.8037 13.5196C20.3045 14.2538 20.5718 15.117 20.5718 16C20.5709 17.1838 20.0905 18.3189 19.2359 19.156C18.3814 19.9931 17.2226 20.4638 16.0141 20.4646ZM16.0141 7.52856C16.1612 7.52856 16.3022 7.47134 16.4062 7.36948C16.5102 7.26762 16.5686 7.12947 16.5686 6.98542V4.98201C16.5686 4.83796 16.5102 4.69981 16.4062 4.59796C16.3022 4.4961 16.1612 4.43887 16.0141 4.43887C15.8671 4.43887 15.7261 4.4961 15.6221 4.59796C15.5181 4.69981 15.4597 4.83796 15.4597 4.98201V6.98542C15.4597 7.12947 15.5181 7.26762 15.6221 7.36948C15.7261 7.47134 15.8671 7.52856 16.0141 7.52856V7.52856ZM16.0141 24.4714C15.8671 24.4714 15.7261 24.5287 15.6221 24.6305C15.5181 24.7324 15.4597 24.8705 15.4597 25.0146V27.018C15.4597 27.162 15.5181 27.3002 15.6221 27.402C15.7261 27.5039 15.8671 27.5611 16.0141 27.5611C16.1612 27.5611 16.3022 27.5039 16.4062 27.402C16.5102 27.3002 16.5686 27.162 16.5686 27.018V25.0146C16.5686 24.8705 16.5102 24.7324 16.4062 24.6305C16.3022 24.5287 16.1612 24.4714 16.0141 24.4714V24.4714ZM8.45137 7.82341C8.39988 7.77246 8.33865 7.73195 8.27118 7.70418C8.20371 7.67642 8.13131 7.66194 8.05813 7.66158C7.91033 7.66085 7.76828 7.71767 7.66325 7.81953C7.55821 7.9214 7.49878 8.05996 7.49804 8.20475C7.4973 8.34953 7.5553 8.48867 7.65929 8.59157L9.11038 10.013C9.21541 10.1149 9.35745 10.1717 9.50526 10.171C9.65306 10.1703 9.79451 10.1121 9.89849 10.0092C10.0025 9.90627 10.0605 9.76713 10.0597 9.62234C10.059 9.47756 9.99957 9.33899 9.89453 9.23713L8.45137 7.82341ZM22.91 21.987C22.8585 21.936 22.7973 21.8955 22.7298 21.8677C22.6623 21.84 22.5899 21.8255 22.5167 21.8251C22.4436 21.8248 22.371 21.8385 22.3033 21.8656C22.2355 21.8927 22.1739 21.9326 22.1219 21.9831C22.0699 22.0335 22.0285 22.0935 22.0001 22.1596C21.9718 22.2257 21.957 22.2966 21.9567 22.3683C21.9563 22.44 21.9703 22.511 21.998 22.5774C22.0257 22.6438 22.0664 22.7042 22.1179 22.7551L23.569 24.1766C23.673 24.2784 23.814 24.3357 23.9611 24.3357C24.1081 24.3357 24.2492 24.2784 24.3531 24.1766C24.4571 24.0747 24.5156 23.9366 24.5156 23.7925C24.5156 23.6484 24.4571 23.5103 24.3531 23.4084L22.91 21.987ZM6.81176 15.4569H4.76661C4.61956 15.4569 4.47853 15.5141 4.37455 15.6159C4.27057 15.7178 4.21216 15.8559 4.21216 16C4.21216 16.144 4.27057 16.2822 4.37455 16.3841C4.47853 16.4859 4.61956 16.5431 4.76661 16.5431H6.81176C6.95881 16.5431 7.09984 16.4859 7.20382 16.3841C7.3078 16.2822 7.36622 16.144 7.36622 16C7.36622 15.8559 7.3078 15.7178 7.20382 15.6159C7.09984 15.5141 6.95881 15.4569 6.81176 15.4569ZM27.2617 15.4569H25.2165C25.0695 15.4569 24.9284 15.5141 24.8245 15.6159C24.7205 15.7178 24.6621 15.8559 24.6621 16C24.6621 16.144 24.7205 16.2822 24.8245 16.3841C24.9284 16.4859 25.0695 16.5431 25.2165 16.5431H27.2617C27.4087 16.5431 27.5497 16.4859 27.6537 16.3841C27.7577 16.2822 27.8161 16.144 27.8161 16C27.8161 15.8559 27.7577 15.7178 27.6537 15.6159C27.5497 15.5141 27.4087 15.4569 27.2617 15.4569ZM9.1183 21.987L7.66721 23.4084C7.61572 23.4594 7.57498 23.5198 7.54731 23.5861C7.51965 23.6525 7.5056 23.7236 7.50596 23.7953C7.50633 23.8669 7.52111 23.9379 7.54946 24.004C7.5778 24.07 7.61916 24.13 7.67117 24.1805C7.72318 24.2309 7.78482 24.2708 7.85257 24.2979C7.92032 24.325 7.99286 24.3388 8.06605 24.3384C8.13923 24.3381 8.21163 24.3236 8.2791 24.2958C8.34657 24.268 8.4078 24.2275 8.45929 24.1766L9.91038 22.7551C10.0144 22.6532 10.0728 22.5151 10.0728 22.371C10.0728 22.227 10.0144 22.0888 9.91038 21.987C9.80639 21.8851 9.66535 21.8279 9.5183 21.8279C9.37124 21.8279 9.2302 21.8851 9.12622 21.987H9.1183ZM23.5769 7.82341L22.1258 9.24489C22.0729 9.29535 22.0309 9.35567 22.0022 9.42231C21.9735 9.48894 21.9587 9.56053 21.9587 9.63284C21.9587 9.70516 21.9735 9.77675 22.0022 9.84338C22.0309 9.91001 22.0729 9.97034 22.1258 10.0208C22.1773 10.0726 22.2389 10.1138 22.3069 10.1419C22.375 10.17 22.448 10.1845 22.5219 10.1845C22.5957 10.1845 22.6688 10.17 22.7368 10.1419C22.8048 10.1138 22.8664 10.0726 22.9179 10.0208L24.369 8.59933C24.4205 8.54889 24.4613 8.48901 24.4892 8.42311C24.5171 8.35721 24.5314 8.28658 24.5314 8.21525C24.5314 8.14392 24.5171 8.07329 24.4892 8.00739C24.4613 7.94149 24.4205 7.88161 24.369 7.83117C24.3175 7.78073 24.2564 7.74072 24.1891 7.71343C24.1218 7.68613 24.0497 7.67208 23.9769 7.67208C23.9041 7.67208 23.832 7.68613 23.7647 7.71343C23.6974 7.74072 23.6363 7.78073 23.5848 7.83117L23.5769 7.82341Z"/>
</svg>
