<svg width="32" height="32" viewBox="0 0 32 32" xmlns="http://www.w3.org/2000/svg">
<path d="M26.062 16.2729H24.5909V12.6199C24.5606 10.3805 23.6498 8.24305 22.0555 6.67013C20.4612 5.09721 18.3117 4.21533 16.0721 4.21533C13.8325 4.21533 11.683 5.09721 10.0887 6.67013C8.49438 8.24305 7.58357 10.3805 7.55334 12.6199V16.2729H6.01238C5.86833 16.2729 5.73018 16.3301 5.62832 16.432C5.52646 16.5338 5.46924 16.672 5.46924 16.816V22.8837C5.46924 23.0277 5.52646 23.1659 5.62832 23.2677C5.73018 23.3696 5.86833 23.4268 6.01238 23.4268H7.75974V25.8399C7.75974 25.984 7.81696 26.1221 7.91882 26.224C8.02068 26.3258 8.15883 26.3831 8.30288 26.3831H16.256C16.4129 26.9087 16.7566 27.3587 17.2224 27.6484C17.6882 27.9381 18.2438 28.0475 18.7846 27.9558C19.3254 27.8642 19.814 27.5779 20.1584 27.1509C20.5027 26.7239 20.6789 26.1857 20.6539 25.6377C20.6288 25.0898 20.4042 24.5699 20.0224 24.1761C19.6405 23.7823 19.1278 23.5418 18.5809 23.4999C18.034 23.458 17.4907 23.6175 17.0533 23.9485C16.6158 24.2795 16.3146 24.7591 16.2063 25.2968H8.84602V23.4346H10.3466C10.4907 23.4346 10.6288 23.3774 10.7307 23.2755C10.8326 23.1736 10.8898 23.0355 10.8898 22.8914V16.8238C10.8898 16.6797 10.8326 16.5416 10.7307 16.4397C10.6288 16.3379 10.4907 16.2807 10.3466 16.2807H8.63962V12.6199C8.66784 10.6673 9.46332 8.80419 10.8541 7.43335C12.2449 6.06251 14.1193 5.29403 16.0721 5.29403C18.0249 5.29403 19.8993 6.06251 21.2901 7.43335C22.6809 8.80419 23.4764 10.6673 23.5046 12.6199V16.2729H21.7277C21.5837 16.2729 21.4455 16.3301 21.3437 16.432C21.2418 16.5338 21.1846 16.672 21.1846 16.816V22.8837C21.1846 23.0277 21.2418 23.1659 21.3437 23.2677C21.4455 23.3696 21.5837 23.4268 21.7277 23.4268H26.062C26.2061 23.4268 26.3442 23.3696 26.4461 23.2677C26.5479 23.1659 26.6051 23.0277 26.6051 22.8837V16.816C26.6051 16.672 26.5479 16.5338 26.4461 16.432C26.3442 16.3301 26.2061 16.2729 26.062 16.2729V16.2729ZM18.4099 24.5798C18.6398 24.5798 18.8645 24.648 19.0557 24.7757C19.2468 24.9034 19.3958 25.085 19.4838 25.2974C19.5718 25.5097 19.5948 25.7434 19.5499 25.9689C19.5051 26.1944 19.3944 26.4015 19.2318 26.564C19.0693 26.7266 18.8622 26.8373 18.6367 26.8821C18.4112 26.927 18.1775 26.904 17.9651 26.816C17.7528 26.728 17.5712 26.579 17.4435 26.3879C17.3158 26.1968 17.2476 25.972 17.2476 25.7422C17.248 25.434 17.3706 25.1386 17.5885 24.9207C17.8064 24.7028 18.1018 24.5802 18.4099 24.5798V24.5798ZM9.8035 22.3405H6.55552V17.3592H7.93044C8.03907 17.3964 8.15701 17.3964 8.26563 17.3592H9.80505L9.8035 22.3405ZM25.5189 22.3405H22.2709V17.3592H23.8801C23.9882 17.3964 24.1057 17.3964 24.2138 17.3592H25.5189V22.3405Z"/>
</svg>
