<svg width="32" height="32" viewBox="0 0 32 32" xmlns="http://www.w3.org/2000/svg">
<path d="M21.7107 15.1822C21.4226 15.1783 21.1448 15.289 20.9383 15.4899C20.7318 15.6909 20.6136 15.9656 20.6097 16.2537C20.6058 16.5418 20.7165 16.8197 20.9175 17.0261C21.1184 17.2326 21.3932 17.3508 21.6813 17.3547H21.7076C21.9957 17.3547 22.272 17.2403 22.4758 17.0366C22.6795 16.8329 22.7939 16.5566 22.7939 16.2685C22.7939 15.9804 22.6795 15.7041 22.4758 15.5003C22.272 15.2966 21.9957 15.1822 21.7076 15.1822H21.7107Z"/>
<path d="M23.666 8.74829H8.33392C7.68183 8.74911 7.05668 9.00852 6.59559 9.46961C6.13449 9.93071 5.87509 10.5559 5.87427 11.2079V20.792C5.87509 21.4441 6.13449 22.0693 6.59559 22.5304C7.05668 22.9915 7.68183 23.2509 8.33392 23.2517H23.666C24.3181 23.2509 24.9432 22.9915 25.4043 22.5304C25.8654 22.0693 26.1248 21.4441 26.1256 20.792V11.2079C26.1248 10.5559 25.8654 9.93071 25.4043 9.46961C24.9432 9.00852 24.3181 8.74911 23.666 8.74829V8.74829ZM25.0394 20.792C25.0389 21.1561 24.8941 21.5052 24.6366 21.7627C24.3792 22.0202 24.0301 22.165 23.666 22.1654H8.33392C7.9698 22.165 7.62072 22.0202 7.36325 21.7627C7.10578 21.5052 6.96096 21.1561 6.96055 20.792V11.2079C6.96096 10.8438 7.10578 10.4947 7.36325 10.2373C7.62072 9.97981 7.9698 9.83498 8.33392 9.83457H23.666C24.0301 9.83498 24.3792 9.97981 24.6366 10.2373C24.8941 10.4947 25.0389 10.8438 25.0394 11.2079V20.792Z"/>
</svg>
