<svg width="32" height="32" viewBox="0 0 32 32" xmlns="http://www.w3.org/2000/svg">
<path d="M17.0297 14.338C16.6165 14.1218 16.1378 14.0586 15.6809 14.1598C15.224 14.261 14.8196 14.5199 14.5416 14.8892C14.2635 15.2584 14.1305 15.7134 14.1667 16.1709C14.203 16.6284 14.4061 17.0578 14.739 17.3806C15.0719 17.7034 15.5123 17.8981 15.9796 17.929C16.4469 17.9599 16.91 17.825 17.2842 17.5489C17.6583 17.2729 17.9186 16.8741 18.0173 16.4256C18.116 15.9771 18.0466 15.5087 17.8218 15.1062L20.0396 12.8684L25.0804 12.1204L29.4495 7.83584L24.9838 6.96216L24.0903 2.586L19.7069 6.87991L19.2523 12.0878L17.0297 14.338ZM23.4091 4.7896L24.0428 7.89325L27.2016 8.51398L24.5545 11.0962L20.5212 11.6952L20.4087 11.5897L20.7762 7.36874L23.4091 4.7896Z"/>
<path d="M16.0632 10.7688C16.2102 10.7688 16.3513 10.7116 16.4553 10.6097C16.5592 10.5079 16.6177 10.3697 16.6177 10.2257C16.6177 10.0816 16.5592 9.94346 16.4553 9.8416C16.3513 9.73974 16.2102 9.68252 16.0632 9.68252C14.8099 9.68252 13.5848 10.0466 12.5428 10.7286C11.5007 11.4107 10.6885 12.3802 10.2089 13.5144C9.72931 14.6486 9.60382 15.8967 9.84832 17.1008C10.0928 18.3049 10.6963 19.411 11.5825 20.2791C12.4687 21.1472 13.5978 21.7384 14.827 21.9779C16.0562 22.2174 17.3303 22.0945 18.4881 21.6246C19.646 21.1548 20.6356 20.3592 21.3319 19.3384C22.0282 18.3176 22.3998 17.1175 22.3998 15.8898C22.3998 15.7458 22.3414 15.6076 22.2374 15.5058C22.1334 15.4039 21.9924 15.3467 21.8454 15.3467C21.6983 15.3467 21.5573 15.4039 21.4533 15.5058C21.3493 15.6076 21.2909 15.7458 21.2909 15.8898C21.2909 16.9027 20.9843 17.8928 20.4099 18.7349C19.8355 19.5771 19.019 20.2335 18.0638 20.6211C17.1085 21.0087 16.0574 21.1101 15.0433 20.9125C14.0292 20.7149 13.0977 20.2271 12.3666 19.511C11.6355 18.7948 11.1376 17.8823 10.9359 16.8889C10.7342 15.8955 10.8377 14.8658 11.2334 13.9301C11.6291 12.9944 12.2991 12.1946 13.1588 11.6318C14.0185 11.0691 15.0293 10.7688 16.0632 10.7688V10.7688Z"/>
<path d="M25.5683 15.3467C25.4212 15.3467 25.2802 15.4039 25.1762 15.5058C25.0722 15.6076 25.0138 15.7458 25.0138 15.8898C25.0138 17.6239 24.4889 19.3191 23.5054 20.761C22.5219 22.2028 21.124 23.3266 19.4885 23.9903C17.853 24.6539 16.0534 24.8275 14.3172 24.4892C12.5809 24.1509 10.9861 23.3158 9.73436 22.0896C8.48261 20.8634 7.63016 19.3011 7.2848 17.6004C6.93945 15.8996 7.1167 14.1366 7.79414 12.5345C8.47158 10.9324 9.61879 9.56307 11.0907 8.59965C12.5626 7.63623 14.2931 7.122 16.0633 7.122C16.2104 7.122 16.3514 7.06478 16.4554 6.96292C16.5594 6.86106 16.6178 6.72291 16.6178 6.57886C16.6178 6.43481 16.5594 6.29666 16.4554 6.1948C16.3514 6.09294 16.2104 6.03572 16.0633 6.03572C14.0738 6.03572 12.1289 6.61365 10.4746 7.69644C8.82035 8.77922 7.53101 10.3182 6.76964 12.1188C6.00826 13.9194 5.80906 15.9008 6.1972 17.8123C6.58534 19.7238 7.54341 21.4796 8.95024 22.8577C10.3571 24.2359 12.1495 25.1744 14.1008 25.5546C16.0522 25.9348 18.0748 25.7397 19.9129 24.9938C21.751 24.248 23.3221 22.985 24.4274 21.3645C25.5327 19.744 26.1227 17.8388 26.1227 15.8898C26.1227 15.7458 26.0643 15.6076 25.9603 15.5058C25.8563 15.4039 25.7153 15.3467 25.5683 15.3467Z"/>
</svg>
