<svg width="32" height="32" viewBox="0 0 32 32" xmlns="http://www.w3.org/2000/svg">
<g clip-path="url(#clip0_9220_25122)">
<path d="M13.4373 11.3856H7.49444C7.43869 11.3856 7.38349 11.3965 7.33199 11.4176C7.28049 11.4388 7.23369 11.4698 7.19428 11.5089C7.15486 11.548 7.12359 11.5944 7.10226 11.6454C7.08093 11.6965 7.06995 11.7512 7.06995 11.8065C7.06995 11.8618 7.08093 11.9165 7.10226 11.9676C7.12359 12.0186 7.15486 12.065 7.19428 12.1041C7.23369 12.1432 7.28049 12.1742 7.33199 12.1954C7.38349 12.2165 7.43869 12.2274 7.49444 12.2274H10.0414V20.2247C10.0414 20.3363 10.0861 20.4434 10.1657 20.5223C10.2453 20.6012 10.3533 20.6456 10.4659 20.6456C10.5784 20.6456 10.6864 20.6012 10.766 20.5223C10.8456 20.4434 10.8904 20.3363 10.8904 20.2247V12.2274H13.4373C13.5499 12.2274 13.6578 12.1831 13.7375 12.1041C13.8171 12.0252 13.8618 11.9181 13.8618 11.8065C13.8618 11.6949 13.8171 11.5878 13.7375 11.5089C13.6578 11.4299 13.5499 11.3856 13.4373 11.3856V11.3856Z"/>
<path d="M27.8857 14.7529H24.4897C24.2646 14.7529 24.0486 14.8416 23.8894 14.9994C23.7302 15.1573 23.6408 15.3714 23.6408 15.5947V21.4874C23.6386 21.5679 23.6616 21.6471 23.7066 21.7141C23.7517 21.7811 23.8165 21.8326 23.8923 21.8615C24.2382 22.0174 25.1501 22.3292 25.7632 22.3292C27.7127 22.3292 28.546 21.0197 28.7189 20.3338C28.7329 20.2992 28.7383 20.2618 28.7346 20.2247V15.5947C28.7346 15.4841 28.7127 15.3747 28.67 15.2725C28.6274 15.1704 28.5648 15.0776 28.486 14.9994C28.4072 14.9213 28.3136 14.8593 28.2106 14.8169C28.1076 14.7746 27.9972 14.7529 27.8857 14.7529ZM27.8857 20.1623C27.8071 20.3962 27.3511 21.4874 25.7632 21.4874C25.3275 21.4538 24.8988 21.3594 24.4897 21.2068V15.5947H27.8857V20.1623Z"/>
<path d="M25.9676 13.9266C26.4309 13.9266 26.8838 13.7904 27.269 13.5352C27.6542 13.2799 27.9545 12.9172 28.1318 12.4927C28.3091 12.0683 28.3555 11.6013 28.2651 11.1507C28.1747 10.7001 27.9516 10.2862 27.624 9.96137C27.2964 9.63652 26.879 9.41529 26.4246 9.32567C25.9702 9.23604 25.4991 9.28204 25.0711 9.45785C24.6431 9.63366 24.2772 9.93137 24.0198 10.3134C23.7624 10.6953 23.625 11.1444 23.625 11.6038C23.625 12.2199 23.8718 12.8107 24.3111 13.2463C24.7504 13.6819 25.3463 13.9266 25.9676 13.9266ZM25.9676 10.1229C26.263 10.1229 26.5517 10.2097 26.7973 10.3724C27.043 10.5352 27.2344 10.7665 27.3474 11.0371C27.4605 11.3077 27.4901 11.6055 27.4324 11.8928C27.3748 12.18 27.2326 12.4439 27.0237 12.651C26.8148 12.8582 26.5487 12.9992 26.2589 13.0563C25.9692 13.1135 25.6689 13.0842 25.396 12.9721C25.1231 12.86 24.8898 12.6702 24.7257 12.4266C24.5616 12.1831 24.474 11.8967 24.474 11.6038C24.474 11.2111 24.6313 10.8344 24.9114 10.5566C25.1915 10.2789 25.5714 10.1229 25.9676 10.1229V10.1229Z"/>
<path d="M21.9428 13.911H18.5469V12.1183C18.9687 12.4596 19.4961 12.6467 20.0405 12.6483C20.6618 12.6483 21.2576 12.4036 21.6969 11.968C22.1362 11.5324 22.383 10.9416 22.383 10.3255C22.383 9.70949 22.1362 9.11868 21.6969 8.68307C21.2576 8.24746 20.6618 8.00274 20.0405 8.00274C19.4961 8.00437 18.9687 8.1915 18.5469 8.53277V5.22786C18.5471 4.90091 18.4195 4.58662 18.1907 4.35111C17.962 4.11561 17.6501 3.97724 17.3206 3.96513H17.0376L4.66452 6.14762C4.27169 6.21409 3.91541 6.41668 3.65916 6.71931C3.40291 7.02193 3.26332 7.40493 3.26528 7.80008V24.1999C3.26332 24.5951 3.40291 24.9781 3.65916 25.2807C3.91541 25.5833 4.27169 25.7859 4.66452 25.8524L17.0533 28.0193H17.2734C17.5721 28.0162 17.8607 27.9117 18.091 27.7231C18.2335 27.6047 18.3482 27.4569 18.427 27.2899C18.5057 27.1229 18.5467 26.9409 18.5469 26.7566V23.3269C18.9537 23.4806 19.3851 23.5598 19.8204 23.5608C21.7699 23.5608 22.6031 22.2513 22.7761 21.5653C22.79 21.5307 22.7954 21.4933 22.7918 21.4562V14.7529C22.7918 14.5296 22.7024 14.3155 22.5431 14.1576C22.3839 13.9997 22.168 13.911 21.9428 13.911V13.911ZM17.6979 26.8033C17.6992 26.8662 17.6856 26.9286 17.6583 26.9854C17.631 27.0422 17.5907 27.092 17.5407 27.1307C17.4934 27.1704 17.438 27.1993 17.3782 27.2154C17.3185 27.2316 17.2559 27.2346 17.1948 27.2242L4.80602 25.0417C4.60884 25.0087 4.42976 24.9077 4.30034 24.7565C4.17091 24.6054 4.09944 24.4138 4.09854 24.2155V7.81567C4.09944 7.61739 4.17091 7.42578 4.30034 7.27463C4.42976 7.12348 4.60884 7.02248 4.80602 6.98944L17.1948 4.82254H17.3049C17.3896 4.8356 17.4703 4.86758 17.5407 4.91608C17.5907 4.95479 17.631 5.00453 17.6583 5.06136C17.6856 5.11818 17.6992 5.18052 17.6979 5.24345V26.8033ZM18.5312 10.3411C18.5312 10.0482 18.6188 9.76188 18.7829 9.51833C18.947 9.27479 19.1803 9.08497 19.4532 8.97288C19.7261 8.86079 20.0264 8.83146 20.3161 8.8886C20.6059 8.94574 20.872 9.08679 21.0809 9.29391C21.2898 9.50103 21.432 9.76491 21.4896 10.0522C21.5473 10.3395 21.5177 10.6372 21.4046 10.9079C21.2916 11.1785 21.1002 11.4098 20.8545 11.5725C20.6089 11.7352 20.3202 11.8221 20.0248 11.8221C19.6299 11.818 19.2524 11.6607 18.9732 11.3838C18.694 11.107 18.5353 10.7326 18.5312 10.3411V10.3411ZM21.9428 21.425C21.8642 21.6589 21.4083 22.7501 19.8204 22.7501C19.3753 22.762 18.9353 22.6543 18.5469 22.4383V14.7529H21.9428V21.425Z"/>
</g>
<defs>
<clipPath>
<rect width="25.4694" height="24.1633" transform="translate(3.26526 3.91837)"/>
</clipPath>
</defs>
</svg>
