<svg width="32" height="32" viewBox="0 0 32 32" xmlns="http://www.w3.org/2000/svg">
<path d="M24.3548 5.11082H8.02216C7.98757 5.11129 7.95309 5.11493 7.91919 5.12169C7.88529 5.11493 7.85081 5.11129 7.81622 5.11082C7.43612 5.11124 7.0717 5.25933 6.80293 5.52262C6.53416 5.78591 6.38298 6.14288 6.38256 6.51523V7.35787C6.38247 7.61801 6.45713 7.87292 6.598 8.09344C6.41755 8.24693 6.27263 8.43638 6.17292 8.64914C6.0732 8.86189 6.02099 9.09304 6.01978 9.32714V10.4134C6.01978 10.8079 6.16488 11.1891 6.4285 11.4873C6.25603 11.6531 6.11901 11.8508 6.02544 12.069C5.93188 12.2873 5.88364 12.5215 5.88355 12.7582V13.9702C5.88371 14.4262 6.06296 14.8646 6.38414 15.1946C6.20359 15.3664 6.06008 15.5719 5.96212 15.799C5.86416 16.0261 5.81374 16.2702 5.81384 16.5168V17.7955C5.81426 18.2861 6.01329 18.7565 6.36728 19.1036C6.72128 19.4506 7.20133 19.646 7.70216 19.6468C7.72113 19.6484 7.74021 19.6484 7.75919 19.6468C7.77817 19.6483 7.79724 19.6483 7.81622 19.6468H13.2404V23.2424C13.2416 24.2092 13.6343 25.1361 14.3321 25.8197C15.03 26.5033 15.9762 26.888 16.9632 26.8892H17.3228L21.5477 17.5782H24.3548C25.0621 17.5774 25.7402 17.3018 26.2403 16.8119C26.7404 16.322 27.0217 15.6578 27.0226 14.9649V7.7241C27.0213 7.0314 26.7398 6.36741 26.2398 5.8776C25.7398 5.38778 25.062 5.11206 24.3548 5.11082V5.11082ZM20.6321 16.9187L16.6131 25.7765C15.9865 25.6929 15.412 25.3899 14.9958 24.9234C14.5797 24.457 14.35 23.8588 14.3493 23.2393V18.5605H7.81622C7.79724 18.559 7.77817 18.559 7.75919 18.5605C7.74021 18.5589 7.72113 18.5589 7.70216 18.5605C7.49558 18.5601 7.29758 18.4795 7.1515 18.3364C7.00542 18.1934 6.92317 17.9994 6.92275 17.797V16.5183C6.92317 16.3159 7.00542 16.122 7.1515 15.9789C7.29758 15.8358 7.49558 15.7552 7.70216 15.7548H9.46533C9.61238 15.7548 9.75341 15.6976 9.85739 15.5957C9.96137 15.4939 10.0198 15.3557 10.0198 15.2117C10.0198 15.0676 9.96137 14.9295 9.85739 14.8276C9.75341 14.7258 9.61238 14.6685 9.46533 14.6685H7.70216C7.51379 14.6681 7.33328 14.5945 7.20023 14.4639C7.06718 14.3333 6.99246 14.1563 6.99246 13.9718V12.7598C6.99246 12.5753 7.06718 12.3983 7.20023 12.2676C7.33328 12.137 7.51379 12.0634 7.70216 12.063H9.63483C9.78188 12.063 9.92291 12.0058 10.0269 11.9039C10.1309 11.8021 10.1893 11.6639 10.1893 11.5199C10.1893 11.3758 10.1309 11.2377 10.0269 11.1358C9.92291 11.034 9.78188 10.9767 9.63483 10.9767H7.70216C7.54992 10.9763 7.40406 10.9168 7.29656 10.8112C7.18906 10.7056 7.12869 10.5626 7.12869 10.4134V9.32714C7.12911 9.17828 7.18967 9.03563 7.29712 8.93037C7.40458 8.82511 7.5502 8.76579 7.70216 8.76538C7.73509 8.76474 7.76793 8.76163 7.80038 8.75607H9.54295C9.69 8.75607 9.83103 8.69885 9.93501 8.59699C10.039 8.49513 10.0974 8.35698 10.0974 8.21293C10.0974 8.06888 10.039 7.93073 9.93501 7.82887C9.83103 7.72701 9.69 7.66979 9.54295 7.66979H7.81622C7.73181 7.66866 7.65106 7.63583 7.59063 7.57808C7.5302 7.52033 7.49471 7.44206 7.49147 7.35942V6.51523C7.49269 6.43123 7.5273 6.35101 7.58794 6.29161C7.64858 6.23221 7.73047 6.19831 7.81622 6.1971C7.85076 6.19716 7.88524 6.19404 7.91919 6.18779C7.95314 6.19404 7.98761 6.19716 8.02216 6.1971H20.6321V16.9187ZM25.9136 14.9649C25.9132 15.3698 25.7489 15.758 25.4566 16.0442C25.1644 16.3305 24.7681 16.4915 24.3548 16.4919H21.741V6.1971H24.3548C24.768 6.19792 25.164 6.35907 25.4562 6.64526C25.7483 6.93145 25.9128 7.31937 25.9136 7.7241V14.9649Z"/>
</svg>
