<svg width="32" height="32" viewBox="0 0 32 32" xmlns="http://www.w3.org/2000/svg">
<path d="M27.5766 16.2535C27.5766 16.0158 27.499 15.7941 27.3749 15.604L24.6126 11.7703C24.4264 11.5168 24.1471 11.3743 23.8522 11.3743H20.0347V8.11089C20.0347 7.2396 19.3985 6.52673 18.6226 6.52673H5.72686C4.95095 6.52673 4.3147 7.2396 4.3147 8.11089V21.3703C4.3147 22.2416 4.95095 22.9545 5.72686 22.9545H6.23896V22.9861C6.23896 24.396 7.35628 25.5525 8.72189 25.5525C10.0875 25.5525 11.2048 24.396 11.2048 22.9861V22.9545H18.607C18.7312 22.9545 18.8553 22.9386 18.9795 22.8911V22.9545H20.7175V22.9861C20.7175 24.396 21.8348 25.5525 23.2005 25.5525C24.5661 25.5525 25.6834 24.396 25.6834 22.9861V22.9545H27.5611V16.2535H27.5766ZM8.72189 24.4594C7.94598 24.4594 7.32524 23.8099 7.32524 23.002C7.32524 22.1941 7.96149 21.5446 8.72189 21.5446C9.48229 21.5446 10.1185 22.1941 10.1185 23.002C10.1185 23.8099 9.4978 24.4594 8.72189 24.4594ZM18.9484 21.3861C18.9484 21.6396 18.7933 21.8614 18.6226 21.8614H10.9565C10.553 21.0218 9.69954 20.4356 8.72189 20.4356C7.74424 20.4356 6.90625 21.0218 6.50278 21.8614H5.72686C5.55616 21.8614 5.40098 21.6396 5.40098 21.3861V8.11089C5.40098 7.85743 5.55616 7.63564 5.72686 7.63564H18.6226C18.7933 7.63564 18.9484 7.85743 18.9484 8.11089V21.3861V21.3861ZM23.216 24.4594C22.4401 24.4594 21.8193 23.8099 21.8193 23.002C21.8193 22.1941 22.4556 21.5446 23.216 21.5446C23.9919 21.5446 24.6126 22.1941 24.6126 23.002C24.6126 23.8099 23.9919 24.4594 23.216 24.4594ZM26.4903 21.8614H25.4506C25.0471 21.0218 24.1936 20.4356 23.216 20.4356C22.2383 20.4356 21.4003 21.0218 20.9813 21.8614H20.0813V12.4832H23.7591L26.4748 16.2535V21.8614H26.4903Z"/>
</svg>
