<svg width="32" height="32" viewBox="0 0 32 32" xmlns="http://www.w3.org/2000/svg">
<path d="M26.2201 15.4709C25.7707 14.6285 25.1072 13.9254 24.2994 13.4353C23.4917 12.9452 22.5695 12.6864 21.6298 12.686H20.8539C20.4929 11.5204 19.8815 10.4518 19.0644 9.55827C18.2472 8.6647 17.2449 7.96866 16.1307 7.52096C15.0164 7.07327 13.8182 6.88521 12.6237 6.97052C11.4291 7.05583 10.2683 7.41235 9.22594 8.01405C8.18357 8.61576 7.28597 9.44748 6.59866 10.4485C5.91134 11.4495 5.45165 12.5945 5.25314 13.8001C5.05462 15.0056 5.1223 16.2411 5.45122 17.4165C5.78015 18.5919 6.36202 19.6775 7.15437 20.5941C7.24985 20.7044 7.38434 20.7714 7.52826 20.7805C7.67217 20.7895 7.81371 20.7399 7.92175 20.6424C8.02978 20.5449 8.09547 20.4076 8.10434 20.2607C8.11322 20.1138 8.06456 19.9693 7.96908 19.859C7.27302 19.0546 6.76465 18.0995 6.48216 17.0656C6.19966 16.0318 6.15041 14.946 6.33809 13.8899C6.52577 12.8338 6.94551 11.8349 7.56576 10.9682C8.186 10.1015 8.99062 9.38961 9.91913 8.88601C10.8476 8.38242 11.8759 8.10022 12.9266 8.06063C13.9773 8.02104 15.0232 8.22509 15.9855 8.65744C16.9479 9.0898 17.8017 9.7392 18.4828 10.5569C19.164 11.3745 19.6547 12.3391 19.9182 13.3782C19.9484 13.4971 20.0165 13.6024 20.1117 13.6775C20.2069 13.7526 20.3239 13.7934 20.4442 13.7933H21.6252C22.5463 13.794 23.4409 14.1078 24.1679 14.6853C24.8948 15.2628 25.4126 16.071 25.6394 16.9824C25.8663 17.8937 25.7894 18.8562 25.4207 19.7179C25.0521 20.5797 24.4128 21.2915 23.6038 21.741C23.4772 21.8116 23.3833 21.9306 23.3427 22.0719C23.3021 22.2131 23.3181 22.3651 23.3873 22.4943C23.4564 22.6235 23.573 22.7193 23.7114 22.7608C23.8498 22.8022 23.9986 22.7858 24.1252 22.7153C25.343 22.0371 26.2475 20.8935 26.6403 19.5354C27.033 18.1772 26.8819 16.7155 26.2201 15.4709Z"/>
<path d="M16.3877 15.7196L15.9998 15.3283L11.8704 19.5485C11.7685 19.6535 11.7117 19.7956 11.7124 19.9434C11.7131 20.0912 11.7713 20.2326 11.8742 20.3366C11.9771 20.4406 12.1163 20.4986 12.2611 20.4979C12.4058 20.4971 12.5444 20.4377 12.6463 20.3327L15.4691 17.4511V24.7271C15.4691 24.8742 15.5263 25.0152 15.6281 25.1192C15.73 25.2232 15.8681 25.2816 16.0122 25.2816C16.1562 25.2816 16.2944 25.2232 16.3962 25.1192C16.4981 25.0152 16.5553 24.8742 16.5553 24.7271V17.4511L19.3781 20.3327C19.48 20.4377 19.6185 20.4971 19.7633 20.4979C19.9081 20.4986 20.0473 20.4406 20.1501 20.3366C20.253 20.2326 20.3112 20.0912 20.312 19.9434C20.3127 19.7956 20.2559 19.6535 20.154 19.5485L16.3877 15.7196Z"/>
</svg>
