<svg width="32" height="32" viewBox="0 0 32 32" xmlns="http://www.w3.org/2000/svg">
<g clip-path="url(#clip0_9220_25146)">
<path d="M26.7346 22.0587C26.5609 21.8884 26.3254 21.7927 26.0797 21.7926H24.9775C24.9775 16.7045 24.9775 11.4599 24.9934 6.29356C24.9934 5.35422 24.1628 4.5871 23.1564 4.5871H10.0097C9.63925 4.58069 9.27565 4.68516 8.9674 4.88657C8.65914 5.08797 8.4209 5.37673 8.28446 5.7143C8.28446 5.72996 8.26849 5.74561 8.26849 5.76127C8.25573 5.79718 8.24506 5.83376 8.23654 5.87086C8.23654 5.88651 8.22057 5.90217 8.22057 5.93348C8.22057 5.96479 8.20459 6.02741 8.18862 6.07438V6.10569C8.19121 6.14805 8.1858 6.19051 8.17264 6.23094V6.2779L8.09277 19.0685H9.13109V6.29356C9.12852 6.25634 9.13396 6.219 9.14707 6.18397V6.137C9.15027 6.10371 9.1612 6.07158 9.17902 6.04307V6.01176C9.20702 5.94958 9.25107 5.89563 9.30681 5.8552C9.37152 5.81715 9.44499 5.79575 9.52041 5.79302C9.59582 5.79028 9.67071 5.80629 9.73811 5.83955L14.9457 7.59297C15.2115 7.70534 15.4403 7.88774 15.6067 8.1199C15.773 8.35205 15.8705 8.62487 15.8882 8.90804L15.8083 19.0372H16.7667L16.8466 8.90804C16.8387 8.45446 16.6942 8.01328 16.4313 7.63994C16.1543 7.21336 15.7458 6.88434 15.2652 6.7006L11.7349 5.49512H23.1564C23.6356 5.49512 24.035 5.83955 24.035 6.26225V22.2309C24.035 22.3555 24.0855 22.475 24.1753 22.563C24.2652 22.6511 24.3871 22.7006 24.5142 22.7006H26.0956V26.1605H20.9999C20.7832 26.4939 20.5374 26.8082 20.2651 27.0998H26.0956C26.2251 27.101 26.3534 27.075 26.4718 27.0237C26.5903 26.9724 26.6962 26.897 26.7825 26.8024C26.9563 26.6322 27.054 26.4013 27.0541 26.1605V22.685C27.0517 22.5639 27.0218 22.4448 26.9666 22.3365C26.9113 22.2281 26.832 22.1332 26.7346 22.0587Z"/>
<path d="M16.4473 27.4129H14.4985C14.4349 27.4151 14.3716 27.4045 14.3125 27.3816C14.2533 27.3588 14.1996 27.3243 14.1546 27.2802C14.1097 27.2362 14.0745 27.1835 14.0512 27.1256C14.0279 27.0676 14.017 27.0055 14.0192 26.9433C14.0192 26.8187 14.0697 26.6992 14.1596 26.6112C14.2495 26.5231 14.3714 26.4736 14.4985 26.4736H16.4473C17.1803 26.4736 17.8832 26.1883 18.4014 25.6803C18.9197 25.1724 19.2108 24.4835 19.2108 23.7652C19.2108 23.0469 18.9197 22.358 18.4014 21.85C17.8832 21.3421 17.1803 21.0568 16.4473 21.0568H14.5144C14.3873 21.0568 14.2655 21.0073 14.1756 20.9192C14.0857 20.8311 14.0352 20.7117 14.0352 20.5871C14.0352 20.4625 14.0857 20.3431 14.1756 20.255C14.2655 20.1669 14.3873 20.1174 14.5144 20.1174H16.4473C17.4344 20.1174 18.3811 20.5018 19.0792 21.1858C19.7772 21.8699 20.1693 22.7977 20.1693 23.7652C20.1693 24.7326 19.7772 25.6605 19.0792 26.3445C18.3811 27.0286 17.4344 27.4129 16.4473 27.4129V27.4129ZM10.6167 27.4129H8.6679C7.68077 27.4129 6.73407 27.0286 6.03607 26.3445C5.33806 25.6605 4.94592 24.7326 4.94592 23.7652C4.94592 22.7977 5.33806 21.8699 6.03607 21.1858C6.73407 20.5018 7.68077 20.1174 8.6679 20.1174H10.6167C10.6803 20.1152 10.7436 20.1259 10.8027 20.1487C10.8619 20.1716 10.9156 20.2061 10.9606 20.2501C11.0055 20.2942 11.0407 20.3468 11.064 20.4048C11.0873 20.4628 11.0982 20.5248 11.096 20.5871C11.096 20.7117 11.0455 20.8311 10.9556 20.9192C10.8657 21.0073 10.7438 21.0568 10.6167 21.0568H8.6679C7.93497 21.0568 7.23205 21.3421 6.71379 21.85C6.19553 22.358 5.90437 23.0469 5.90437 23.7652C5.90437 24.4835 6.19553 25.1724 6.71379 25.6803C7.23205 26.1883 7.93497 26.4736 8.6679 26.4736H10.6167C10.7438 26.4736 10.8657 26.5231 10.9556 26.6112C11.0455 26.6992 11.096 26.8187 11.096 26.9433C11.096 27.0678 11.0455 27.1873 10.9556 27.2754C10.8657 27.3635 10.7438 27.4129 10.6167 27.4129ZM15.1694 24.2505H9.97778C9.85068 24.2505 9.72879 24.201 9.63892 24.1129C9.54905 24.0249 9.49856 23.9054 9.49856 23.7808C9.49633 23.7186 9.5072 23.6565 9.53049 23.5986C9.55378 23.5406 9.589 23.4879 9.63396 23.4439C9.67891 23.3998 9.73263 23.3653 9.79178 23.3425C9.85094 23.3196 9.91425 23.309 9.97778 23.3112H15.1694C15.2329 23.309 15.2962 23.3196 15.3554 23.3425C15.4145 23.3653 15.4683 23.3998 15.5132 23.4439C15.5582 23.4879 15.5934 23.5406 15.6167 23.5986C15.64 23.6565 15.6508 23.7186 15.6486 23.7808C15.6486 23.9054 15.5981 24.0249 15.5082 24.1129C15.4184 24.201 15.2965 24.2505 15.1694 24.2505V24.2505Z"/>
</g>
<defs>
<clipPath>
<rect width="22.2041" height="22.8571" transform="translate(4.89795 4.57144)"/>
</clipPath>
</defs>
</svg>
