<svg width="32" height="32" viewBox="0 0 32 32" xmlns="http://www.w3.org/2000/svg">
<path d="M26.8845 10.1735C26.8026 10.1255 26.7097 10.1003 26.6153 10.1003C26.5208 10.1003 26.428 10.1255 26.346 10.1735L21.8007 12.7414V10.6503C21.7999 9.93966 21.523 9.25837 21.0308 8.75588C20.5385 8.25339 19.8712 7.97073 19.175 7.96989H16.5369C16.5166 7.86371 16.4659 7.76611 16.3911 7.68949L13.8274 5.0487C13.7242 4.94588 13.5853 4.88893 13.441 4.89028H5.65396C5.50991 4.89028 5.37176 4.9487 5.2699 5.05268C5.16804 5.15666 5.11082 5.29769 5.11082 5.44474C5.11082 5.59179 5.16804 5.73282 5.2699 5.8368C5.37176 5.94078 5.50991 5.99919 5.65396 5.99919H13.2067L15.131 7.96989H7.71944C7.02332 7.97073 6.35594 8.25339 5.86371 8.75588C5.37147 9.25837 5.09457 9.93966 5.09375 10.6503V21.2816C5.09457 21.9922 5.37147 22.6735 5.86371 23.176C6.35594 23.6785 7.02332 23.9611 7.71944 23.962H19.175C19.8712 23.9611 20.5385 23.6785 21.0308 23.176C21.523 22.6735 21.7999 21.9922 21.8007 21.2816V19.1081L26.3398 21.7616C26.4219 21.81 26.515 21.8357 26.6099 21.836C26.7054 21.836 26.7992 21.8097 26.8814 21.76C26.9634 21.7119 27.0316 21.6427 27.0792 21.5593C27.1269 21.4759 27.1523 21.3813 27.153 21.2847V10.6503C27.1529 10.5538 27.1281 10.459 27.081 10.3754C27.0339 10.2917 26.9661 10.2221 26.8845 10.1735V10.1735ZM19.175 22.8467H7.71944C7.31129 22.8463 6.91997 22.6806 6.63137 22.386C6.34276 22.0914 6.18044 21.6919 6.18003 21.2752V10.6503C6.18044 10.2336 6.34276 9.83416 6.63137 9.53954C6.91997 9.24492 7.31129 9.07922 7.71944 9.0788H19.175C19.5832 9.07922 19.9745 9.24492 20.2631 9.53954C20.5517 9.83416 20.714 10.2336 20.7145 10.6503V13.6111C20.7121 13.6406 20.7121 13.6703 20.7145 13.6998V21.2816C20.714 21.6982 20.5517 22.0977 20.2631 22.3923C19.9745 22.6869 19.5832 22.8526 19.175 22.8531V22.8467ZM26.0667 20.3121L21.8582 17.8503V15.9398L21.81 13.9944L26.0729 11.5802L26.0667 20.3121Z"/>
</svg>
