<svg width="32" height="32" viewBox="0 0 32 32" xmlns="http://www.w3.org/2000/svg">
<path d="M8.66221 14.6376C8.54919 14.7318 8.47819 14.8669 8.46482 15.0134C8.45145 15.1598 8.49681 15.3056 8.59093 15.4186C8.68504 15.5317 8.82019 15.6027 8.96666 15.616C9.11312 15.6294 9.2589 15.584 9.37192 15.4899C11.2451 13.9292 13.6062 13.0745 16.0444 13.0745C18.4826 13.0745 20.8437 13.9292 22.7169 15.4899C22.8299 15.584 22.9757 15.6294 23.1221 15.616C23.2686 15.6027 23.4037 15.5317 23.4979 15.4186C23.592 15.3056 23.6373 15.1598 23.624 15.0134C23.6106 14.8669 23.5396 14.7318 23.4266 14.6376C21.3541 12.9109 18.7419 11.9653 16.0444 11.9653C13.3469 11.9653 10.7347 12.9109 8.66221 14.6376V14.6376Z"/>
<path d="M26.9307 10.7422C23.9089 8.08592 20.0233 6.62088 16 6.62088C11.9767 6.62088 8.0911 8.08592 5.06933 10.7422C4.95963 10.8396 4.89302 10.9766 4.88409 11.123C4.87515 11.2694 4.92463 11.4134 5.02167 11.5235C5.11871 11.6335 5.25541 11.7006 5.40182 11.7101C5.54823 11.7195 5.69242 11.6705 5.80279 11.5739C8.62153 9.09723 12.2454 7.73134 15.9976 7.73134C19.7499 7.73134 23.3738 9.09723 26.1925 11.5739C26.2933 11.6634 26.4236 11.7125 26.5584 11.7117C26.6714 11.7126 26.7819 11.6791 26.8752 11.6155C26.9685 11.552 27.0402 11.4614 27.0807 11.356C27.1212 11.2506 27.1285 11.1353 27.1017 11.0256C27.0749 10.916 27.0152 10.8171 26.9307 10.7422V10.7422ZM19.802 18.5236C18.6945 17.7376 17.37 17.3154 16.0119 17.3154C14.6538 17.3154 13.3293 17.7376 12.2218 18.5236C12.1606 18.565 12.1084 18.6183 12.0681 18.6803C12.0278 18.7422 12.0003 18.8116 11.9872 18.8843C11.9741 18.957 11.9757 19.0316 11.9919 19.1038C12.008 19.1759 12.0384 19.244 12.0813 19.3042C12.1242 19.3644 12.1786 19.4154 12.2415 19.4542C12.3044 19.4931 12.3744 19.5189 12.4474 19.5303C12.5204 19.5417 12.5949 19.5384 12.6667 19.5206C12.7384 19.5028 12.8058 19.4708 12.865 19.4265C13.7849 18.7742 14.8849 18.4237 16.0127 18.4237C17.1405 18.4237 18.2404 18.7742 19.1604 19.4265C19.219 19.4774 19.2877 19.5153 19.3619 19.5379C19.4361 19.5605 19.5142 19.5673 19.5912 19.5579C19.6682 19.5484 19.7424 19.5229 19.8089 19.4829C19.8754 19.443 19.9328 19.3896 19.9774 19.326C20.022 19.2625 20.0527 19.1904 20.0676 19.1143C20.0826 19.0381 20.0814 18.9597 20.0641 18.8841C20.0468 18.8084 20.0138 18.7373 19.9673 18.6752C19.9208 18.6131 19.8618 18.5614 19.7941 18.5236H19.802ZM15.9287 21.9422H15.9113C15.7657 21.9432 15.6217 21.9729 15.4875 22.0296C15.3534 22.0863 15.2317 22.1689 15.1295 22.2726C14.923 22.482 14.8082 22.7649 14.8103 23.059C14.8124 23.3531 14.9313 23.6343 15.1407 23.8408C15.3502 24.0473 15.633 24.1621 15.9271 24.16H15.9588C16.2529 24.156 16.5334 24.0354 16.7385 23.8246C16.9437 23.6138 17.0567 23.3301 17.0527 23.036C17.0487 22.7419 16.928 22.4615 16.7173 22.2563C16.5065 22.0512 16.2228 21.9382 15.9287 21.9422Z"/>
</svg>
