<svg width="32" height="32" viewBox="0 0 32 32" xmlns="http://www.w3.org/2000/svg">
<path d="M18.6257 9.25624H13.3712L10.6927 21.1057H13.4147L14.6235 26.6503H17.7163L18.77 21.1057H21.4904L18.6257 9.25624ZM17.8746 19.9968L16.8209 25.5414H15.4941L14.2852 19.9968H12.0584L14.2309 10.3651H17.7706L20.0984 19.9968H17.8746ZM16 8.13624C16.5249 8.13624 17.038 7.97732 17.4744 7.67959C17.9109 7.38186 18.251 6.9587 18.4518 6.46362C18.6526 5.96853 18.705 5.42378 18.6025 4.89826C18.5 4.37274 18.2471 3.89006 17.8758 3.51128C17.5046 3.13249 17.0316 2.87462 16.5167 2.77027C16.0019 2.66593 15.4683 2.7198 14.9834 2.92507C14.4986 3.13035 14.0842 3.4778 13.7928 3.92349C13.5014 4.36918 13.3461 4.89307 13.3464 5.42891C13.3476 6.14683 13.6276 6.83495 14.1251 7.34245C14.6225 7.84995 15.2967 8.1354 16 8.13624V8.13624ZM16 3.82891C16.31 3.82891 16.613 3.92275 16.8708 4.09856C17.1285 4.27437 17.3294 4.52426 17.448 4.81662C17.5667 5.10898 17.5977 5.43069 17.5372 5.74106C17.4768 6.05142 17.3275 6.33652 17.1083 6.56028C16.8891 6.78405 16.6098 6.93643 16.3058 6.99817C16.0017 7.0599 15.6866 7.02822 15.4002 6.90712C15.1138 6.78602 14.869 6.58094 14.6968 6.31782C14.5246 6.0547 14.4327 5.74536 14.4327 5.42891C14.4331 5.00469 14.5983 4.59797 14.8922 4.298C15.186 3.99804 15.5844 3.82933 16 3.82891V3.82891Z"/>
</svg>
