<svg width="32" height="32" viewBox="0 0 32 32" xmlns="http://www.w3.org/2000/svg">
<path d="M14.4444 19.9445H13.6476L13.1612 20.7667L12.9886 21.1532L12.8143 20.7572L12.3533 19.9445H11.5359L12.5814 21.6095L11.3933 23.4724H12.2393L12.8191 22.4427L12.9727 22.1006L13.1169 22.4364L13.6919 23.4724H14.5252L13.3751 21.6142L14.4444 19.9445ZM16.0016 19.9445H15.2682V23.4724H17.7204V22.8182H16.0016V19.9445V19.9445ZM20.149 21.4606L19.4456 21.2879C19.1731 21.2182 19.0337 21.0851 19.0337 20.8919C19.0337 20.6527 19.2428 20.4657 19.6183 20.4657C19.9937 20.4657 20.2931 20.6685 20.3375 21.0249H21.0503C21.006 20.3311 20.4658 19.8653 19.6135 19.8653C18.7074 19.8653 18.2955 20.4055 18.2955 20.9742C18.2955 21.4685 18.6123 21.8154 19.1636 21.9548L19.8115 22.1132C20.149 22.1972 20.3517 22.2923 20.3517 22.5441C20.3517 22.8214 20.1046 22.9861 19.7038 22.9861C19.2381 22.9861 18.9497 22.7675 18.9307 22.3762H18.2179C18.2369 23.1398 18.8167 23.5849 19.7149 23.5849C20.5862 23.5849 21.1169 23.1588 21.1169 22.476C21.1105 21.8867 20.6987 21.5952 20.149 21.4606V21.4606Z"/>
<path d="M25.3132 11.6055C25.3132 11.5818 25.299 11.5596 25.2911 11.5358L25.2816 11.5026C25.2705 11.4772 25.2562 11.455 25.2435 11.4313C25.2394 11.423 25.2346 11.4151 25.2293 11.4075C25.2098 11.3776 25.1869 11.3499 25.1612 11.3251L18.815 4.97741C18.7899 4.95359 18.7629 4.93187 18.7342 4.91246C18.7242 4.90572 18.7136 4.89989 18.7026 4.89504C18.6823 4.88188 18.6611 4.87023 18.6392 4.86019L18.5996 4.84751C18.5774 4.84751 18.5568 4.83325 18.5346 4.8285C18.4986 4.82152 18.462 4.81781 18.4253 4.81741H9.95958C9.25162 4.81741 8.57259 5.09832 8.07154 5.59848C7.57049 6.09864 7.28837 6.77718 7.28711 7.48514V24.4103C7.28795 25.118 7.56945 25.7964 8.06986 26.2968C8.57027 26.7973 9.24873 27.0788 9.95642 27.0796H22.6534C23.3613 27.0788 24.0399 26.7973 24.5406 26.2969C25.0412 25.7966 25.3231 25.1181 25.3243 24.4103V11.7228C25.3242 11.6834 25.3205 11.6442 25.3132 11.6055V11.6055ZM18.9766 6.70731L23.4313 11.162H18.9766V6.70731ZM22.6534 25.9707H9.95958C9.75446 25.9709 9.55131 25.9307 9.36172 25.8524C9.17213 25.7741 8.99982 25.6592 8.85463 25.5143C8.70944 25.3694 8.59421 25.1973 8.51552 25.0079C8.43684 24.8185 8.39623 24.6154 8.39602 24.4103V7.48514C8.39602 7.07115 8.56037 6.67409 8.85295 6.38121C9.14554 6.08833 9.54243 5.92358 9.95642 5.92316H17.8645V12.2709H24.2123V24.4103C24.2114 24.8236 24.047 25.2198 23.7549 25.5122C23.4628 25.8046 23.0668 25.9694 22.6534 25.9707V25.9707Z"/>
</svg>
