<svg width="32" height="32" viewBox="0 0 32 32" xmlns="http://www.w3.org/2000/svg">
<g clip-path="url(#clip0_9220_25162)">
<path d="M17.7365 8.9222C17.8594 8.54304 17.8316 8.13005 17.659 7.77147C17.5669 7.58571 17.4382 7.42125 17.2808 7.28835C17.1234 7.15545 16.9407 7.05697 16.7442 6.99905C16.3676 6.87524 15.9586 6.9026 15.6011 7.07552C15.2437 7.24845 14.9648 7.55384 14.8217 7.9291L11.7673 15.7005L8.35639 7.83452C8.17842 7.46974 7.87445 7.18446 7.5026 7.03324C7.13076 6.88201 6.71713 6.87545 6.34083 7.01481C5.95321 7.14788 5.63303 7.43132 5.45006 7.80337C5.2671 8.17541 5.23618 8.6059 5.36405 9.00102V9.03255L9.99985 20.0197C9.37967 21.6907 8.85253 22.1951 7.82924 22.1951H7.20907C6.88464 22.1785 6.56421 22.2738 6.29969 22.4655C6.03517 22.6572 5.84206 22.934 5.75166 23.2513C5.70277 23.4335 5.69016 23.6238 5.71455 23.811C5.73895 23.9982 5.79986 24.1786 5.89373 24.3416C5.98759 24.5045 6.11252 24.6468 6.26118 24.7601C6.40983 24.8733 6.57923 24.9552 6.75944 25.001H6.80596C7.19576 25.0632 7.5897 25.0949 7.98428 25.0956C10.8991 25.0956 11.8449 23.3459 12.6976 21.2493L17.7365 8.96949V8.9222ZM16.8683 8.59117L11.8294 20.8394C10.9146 23.0936 10.1394 24.1025 7.98428 24.1025C7.65215 24.0992 7.32062 24.0728 6.99201 24.0237C6.86991 23.9818 6.76583 23.8983 6.69743 23.7872C6.66722 23.7385 6.64747 23.6838 6.63945 23.6268C6.63144 23.5697 6.63534 23.5116 6.65091 23.4562C6.68559 23.3441 6.75657 23.2473 6.85229 23.1814C6.94801 23.1156 7.06283 23.0847 7.17806 23.0936H7.30209L7.82924 23.1252C9.53472 23.1252 10.2634 22.0375 10.9301 20.1459C10.9507 20.09 10.96 20.0304 10.9573 19.9708C10.9546 19.9112 10.9401 19.8528 10.9146 19.7991L6.2323 8.65422C6.18824 8.49746 6.20561 8.32945 6.28077 8.18543C6.35593 8.04142 6.48303 7.9326 6.63541 7.88181C6.79342 7.82138 6.96739 7.8199 7.12637 7.87763C7.28535 7.93536 7.41904 8.04855 7.50365 8.19708L11.3642 17.072C11.4026 17.1563 11.4638 17.2278 11.5407 17.2781C11.6175 17.3284 11.7069 17.3553 11.7984 17.3557C11.8898 17.355 11.9789 17.3259 12.0537 17.2724C12.1285 17.2189 12.1854 17.1435 12.217 17.0562L15.6899 8.24437C15.7519 8.09694 15.8656 7.97819 16.0088 7.91119C16.1521 7.84419 16.3147 7.83372 16.4652 7.88181C16.5418 7.90383 16.6131 7.94184 16.6745 7.9934C16.7359 8.04497 16.786 8.10896 16.8218 8.18132C16.8888 8.30668 16.9055 8.45358 16.8683 8.59117V8.59117Z"/>
<path d="M26.7135 16.5518C26.6958 16.21 26.5722 15.8827 26.3606 15.6166C26.149 15.3505 25.8601 15.1592 25.5352 15.07H25.2871C24.1849 15.1366 23.0874 15.2682 22.0002 15.4641C19.1009 15.937 18.8683 16.2995 18.7443 16.5045C18.6908 16.5877 18.6586 16.6832 18.6505 16.7822C18.6424 16.8813 18.6586 16.9809 18.6978 17.0719C18.8528 17.4187 19.2869 17.7813 21.3645 18.0493C22.6981 18.1987 24.0385 18.2777 25.3802 18.2857H25.4732C25.8487 18.1933 26.1796 17.9682 26.4068 17.6505C26.634 17.3329 26.7428 16.9434 26.7135 16.5518ZM25.3336 17.3242C22.9615 17.3084 20.9304 17.0719 20.0001 16.8197C21.318 16.4414 24.5274 16 25.2871 16H25.3646C25.486 16.0495 25.5904 16.1341 25.6649 16.2434C25.7393 16.3527 25.7805 16.4819 25.7833 16.6148C25.7988 16.9458 25.6127 17.2611 25.3336 17.3242V17.3242Z"/>
<path d="M17.5507 14.4709C17.7064 14.5756 17.8916 14.6254 18.0778 14.6128C18.4809 14.6128 19.1321 14.4709 20.2949 13.998C21.513 13.5024 22.7035 12.9393 23.8609 12.3113L23.923 12.264C24.2122 12.0383 24.4066 11.7096 24.4671 11.3439C24.5275 10.9783 24.4494 10.603 24.2486 10.2936C24.0697 10.0191 23.8093 9.80989 23.5053 9.69647C23.2013 9.58304 22.8696 9.57133 22.5586 9.66305H22.4656L22.419 9.69458H22.4035L22.3415 9.7261C21.9694 9.96256 20.7446 10.798 19.6438 11.6177C17.3181 13.3517 17.3026 13.73 17.2871 13.9823C17.2874 14.0796 17.3117 14.1753 17.3578 14.2607C17.4038 14.346 17.4701 14.4183 17.5507 14.4709V14.4709ZM22.7446 10.6089L22.8532 10.5616C22.9672 10.536 23.0862 10.5465 23.1943 10.5916C23.3023 10.6366 23.3943 10.7142 23.4578 10.8138C23.529 10.918 23.5589 11.0456 23.5417 11.1712C23.5244 11.2968 23.4613 11.4112 23.3648 11.4916C21.4888 12.5162 19.7058 13.2729 18.7135 13.5566C19.9876 12.4792 21.3347 11.4942 22.7446 10.6089V10.6089Z"/>
<path d="M23.9073 21.5015L23.8453 21.47C22.6514 20.8394 21.3181 20.2089 20.2793 19.7833C18.2792 18.9793 17.8141 19.1212 17.5505 19.3103C17.4671 19.3627 17.3998 19.4376 17.3559 19.5267C17.3121 19.6158 17.2936 19.7156 17.3024 19.8148C17.318 20.067 17.3335 20.4453 19.6591 22.1793C20.7444 22.9833 21.9693 23.8187 22.3414 24.0079H22.3879L22.5429 24.0867H22.5584C22.6936 24.1308 22.835 24.1521 22.977 24.1498C23.2246 24.1481 23.4681 24.0856 23.6868 23.9676C23.9055 23.8496 24.0928 23.6795 24.2329 23.4719C24.4337 23.1625 24.5118 22.7872 24.4514 22.4216C24.391 22.056 24.1966 21.7272 23.9073 21.5015V21.5015ZM23.4732 22.9517C23.4056 23.0511 23.3107 23.1279 23.2004 23.1728C23.0902 23.2177 22.9693 23.2285 22.853 23.2039L22.76 23.1567C22.1088 22.8099 19.7986 21.1704 18.7288 20.2404C19.6901 20.5241 21.4421 21.265 23.3646 22.2897C23.4625 22.3651 23.5282 22.4756 23.5484 22.5988C23.5686 22.7219 23.5417 22.8482 23.4732 22.9517V22.9517Z"/>
</g>
<defs>
<clipPath>
<rect width="21.551" height="18.2857" transform="translate(5.22461 6.85715)"/>
</clipPath>
</defs>
</svg>
