<svg width="32" height="32" viewBox="0 0 32 32" xmlns="http://www.w3.org/2000/svg">
<g clip-path="url(#clip0_9220_25166)">
<path d="M22.3178 20.0047H16.5393V16.6433H22.1483C22.2913 16.6433 22.4285 16.584 22.5296 16.4785C22.6308 16.3729 22.6876 16.2297 22.6876 16.0804C22.6876 15.9311 22.6308 15.788 22.5296 15.6824C22.4285 15.5768 22.2913 15.5175 22.1483 15.5175H16.9708L22.7647 6.12515C22.841 6.00105 22.8676 5.85065 22.8388 5.70629C22.8099 5.56193 22.728 5.43514 22.6106 5.35317C22.4917 5.27352 22.3476 5.24575 22.2092 5.27582C22.0709 5.3059 21.9494 5.39142 21.8709 5.514L15.9846 15.035L10.129 5.514C10.0915 5.45161 10.0424 5.39777 9.98445 5.3557C9.92654 5.31363 9.86108 5.2842 9.79201 5.26918C9.72294 5.25416 9.65167 5.25386 9.58248 5.26829C9.51329 5.28273 9.44761 5.3116 9.38937 5.35317C9.3296 5.39229 9.27801 5.44362 9.2377 5.50406C9.19739 5.5645 9.1692 5.63282 9.15481 5.70491C9.14042 5.777 9.14013 5.85139 9.15396 5.9236C9.16778 5.99581 9.19544 6.06436 9.23528 6.12515L14.9984 15.5175H9.80542C9.66238 15.5175 9.5252 15.5768 9.42406 15.6824C9.32292 15.788 9.2661 15.9311 9.2661 16.0804C9.2661 16.2297 9.32292 16.3729 9.42406 16.4785C9.5252 16.584 9.66238 16.6433 9.80542 16.6433H15.4606V20.0047H9.68215C9.53911 20.0047 9.40193 20.064 9.30079 20.1695C9.19964 20.2751 9.14282 20.4183 9.14282 20.5676C9.14282 20.7168 9.19964 20.86 9.30079 20.9656C9.40193 21.0711 9.53911 21.1304 9.68215 21.1304H15.4606V26.1805C15.4606 26.3298 15.5175 26.4729 15.6186 26.5785C15.7197 26.6841 15.8569 26.7434 16 26.7434C16.143 26.7434 16.2802 26.6841 16.3813 26.5785C16.4825 26.4729 16.5393 26.3298 16.5393 26.1805V21.1304H22.3178C22.4608 21.1304 22.598 21.0711 22.6991 20.9656C22.8003 20.86 22.8571 20.7168 22.8571 20.5676C22.8571 20.4183 22.8003 20.2751 22.6991 20.1695C22.598 20.064 22.4608 20.0047 22.3178 20.0047Z"/>
</g>
<defs>
<clipPath>
<rect width="13.7143" height="21.551" transform="translate(9.14282 5.22449)"/>
</clipPath>
</defs>
</svg>
