<svg width="32" height="32" viewBox="0 0 32 32" xmlns="http://www.w3.org/2000/svg">
<path d="M26.3857 10.9608V10.9243C26.2495 10.386 25.9743 9.89299 25.5875 9.49457C25.2008 9.09615 24.7161 8.80636 24.1821 8.65424H24.1631C22.495 8.23761 16.2407 8.23761 15.9746 8.23761C15.7085 8.23761 9.44312 8.23761 7.77342 8.68909C7.23932 8.84173 6.75473 9.1321 6.36825 9.53109C5.98177 9.93008 5.70698 10.4237 5.57144 10.9624C5.56805 10.9743 5.5654 10.9865 5.56352 10.9988C5.26337 12.6637 5.11648 14.3526 5.12471 16.0443C5.11383 17.7514 5.26073 19.4558 5.56352 21.1358C5.56352 21.1533 5.57144 21.1723 5.57619 21.1897C5.72594 21.7118 6.0074 22.1867 6.39357 22.5687C6.77973 22.9507 7.25762 23.227 7.78134 23.3711C9.44312 23.8146 15.7021 23.8194 15.9746 23.8194C16.2471 23.8194 22.5061 23.8194 24.1758 23.3679C24.7098 23.2158 25.1945 22.926 25.5812 22.5276C25.9679 22.1292 26.2432 21.6361 26.3794 21.0978V21.0614C26.6777 19.4085 26.8251 17.7319 26.8198 16.0523C26.8322 14.3454 26.6869 12.641 26.3857 10.9608V10.9608ZM25.299 20.8443C25.2093 21.189 25.0314 21.5044 24.7828 21.7594C24.5342 22.0144 24.2234 22.2002 23.8811 22.2986C22.6138 22.6376 17.7457 22.7105 15.9746 22.7105C14.2035 22.7105 9.33065 22.6376 8.07916 22.3002C7.74346 22.208 7.4366 22.0322 7.18727 21.7892C6.93794 21.5463 6.75427 21.2441 6.65342 20.9109C6.36576 19.3054 6.2263 17.6769 6.23679 16.0459C6.22727 14.426 6.36674 12.8086 6.65342 11.2142C6.74277 10.8697 6.92038 10.5544 7.16872 10.2993C7.41707 10.0443 7.72758 9.85843 8.06966 9.75999C9.33698 9.42256 14.2051 9.3481 15.9762 9.3481C17.7473 9.3481 22.6027 9.41622 23.8859 9.72355C24.2272 9.82322 24.5368 10.0095 24.7847 10.2644C25.0326 10.5192 25.2103 10.8339 25.3006 11.1778C25.588 12.786 25.728 14.417 25.7188 16.0507C25.7233 17.6579 25.5828 19.2623 25.299 20.8443V20.8443Z"/>
<path d="M19.5247 15.5659L14.1386 12.5053C14.0547 12.4576 13.9599 12.4327 13.8634 12.4328C13.767 12.433 13.6723 12.4583 13.5886 12.5063C13.5049 12.5543 13.4352 12.6233 13.3864 12.7065C13.3375 12.7897 13.3112 12.8841 13.3101 12.9806V19.1033C13.3112 19.1998 13.3375 19.2943 13.3864 19.3774C13.4352 19.4606 13.5049 19.5296 13.5886 19.5776C13.6723 19.6256 13.767 19.6509 13.8634 19.6511C13.9599 19.6513 14.0547 19.6263 14.1386 19.5786L19.5247 16.518C19.61 16.4696 19.681 16.3995 19.7304 16.3148C19.7798 16.23 19.8058 16.1337 19.8058 16.0356C19.8058 15.9375 19.7798 15.8412 19.7304 15.7565C19.681 15.6717 19.61 15.6016 19.5247 15.5532V15.5659ZM14.4237 18.156V13.9406L18.1291 16.0491L14.4237 18.156Z"/>
</svg>
