<svg width="32" height="32" viewBox="0 0 32 32" xmlns="http://www.w3.org/2000/svg">
<g clip-path="url(#clip0_9220_25172)">
<path d="M26.1357 5.2562H5.86527C5.6996 5.2562 5.54071 5.32298 5.42356 5.44185C5.30641 5.56072 5.2406 5.72194 5.2406 5.89005V26.11C5.24456 26.2768 5.31165 26.4357 5.42795 26.5537C5.54425 26.6717 5.70084 26.7398 5.86527 26.7438C6.02969 26.7398 6.18629 26.6717 6.30259 26.5537C6.41889 26.4357 6.48597 26.2768 6.48993 26.11V18.678H25.511V26.11C25.511 26.2781 25.5769 26.4393 25.694 26.5582C25.8112 26.6771 25.97 26.7438 26.1357 26.7438C26.3014 26.7438 26.4603 26.6771 26.5774 26.5582C26.6946 26.4393 26.7604 26.2781 26.7604 26.11V5.89005C26.7604 5.72194 26.6946 5.56072 26.5774 5.44185C26.4603 5.32298 26.3014 5.2562 26.1357 5.2562V5.2562ZM25.511 6.5239V12.7515H6.48993V6.5239H25.511ZM23.637 17.7273V15.7148H21.4507V17.7273H19.2488V15.7148H17.0624V17.7273H14.8605V15.7148H12.6741V17.7273H10.4878V15.7148H8.30147V17.7273H6.48993V15.7148H8.28585V13.7023H10.4878V15.7148H12.6741V13.7023H14.8761V15.7148H17.0624V13.7023H19.2644V15.7148H21.4507V13.7023H23.6527V15.7148H25.511V17.7273H23.637Z"/>
</g>
<defs>
<clipPath>
<rect width="21.551" height="21.551" transform="translate(5.22449 5.22449)"/>
</clipPath>
</defs>
</svg>
